<?xml version="1.0" encoding="UTF-8" standalone="no"?>
<!-- Created with Inkscape (http://www.inkscape.org/) -->

<svg
   xmlns:dc="http://purl.org/dc/elements/1.1/"
   xmlns:cc="http://creativecommons.org/ns#"
   xmlns:rdf="http://www.w3.org/1999/02/22-rdf-syntax-ns#"
   xmlns:svg="http://www.w3.org/2000/svg"
   xmlns="http://www.w3.org/2000/svg"
   xmlns:sodipodi="http://sodipodi.sourceforge.net/DTD/sodipodi-0.dtd"
   xmlns:inkscape="http://www.inkscape.org/namespaces/inkscape"
   width="1920"
   height="1080"
   viewBox="0 0 507.99999 285.75001"
   version="1.1"
   id="svg8"
   inkscape:version="0.92.2 (5c3e80d, 2017-08-06)"
   sodipodi:docname="adorina.svg"
   inkscape:export-filename="/home/mbrickn/Projects/Operation-Ohio-Source/Internal/images/vector/overlay characters/adorina.png"
   inkscape:export-xdpi="96"
   inkscape:export-ydpi="96">
  <defs
     id="defs2" />
  <sodipodi:namedview
     id="base"
     pagecolor="#ffffff"
     bordercolor="#666666"
     borderopacity="1.0"
     inkscape:pageopacity="0.0"
     inkscape:pageshadow="2"
     inkscape:zoom="0.175"
     inkscape:cx="-245.5474"
     inkscape:cy="183.68409"
     inkscape:document-units="mm"
     inkscape:current-layer="layer1"
     inkscape:document-rotation="0"
     showgrid="true"
     units="px"
     inkscape:window-width="1440"
     inkscape:window-height="863"
     inkscape:window-x="1920"
     inkscape:window-y="0"
     inkscape:window-maximized="1">
    <inkscape:grid
       type="xygrid"
       id="grid4267" />
  </sodipodi:namedview>
  <metadata
     id="metadata5">
    <rdf:RDF>
      <cc:Work
         rdf:about="">
        <dc:format>image/svg+xml</dc:format>
        <dc:type
           rdf:resource="http://purl.org/dc/dcmitype/StillImage" />
        <dc:title />
        <cc:license
           rdf:resource="http://creativecommons.org/licenses/by/4.0/" />
      </cc:Work>
      <cc:License
         rdf:about="http://creativecommons.org/licenses/by/4.0/">
        <cc:permits
           rdf:resource="http://creativecommons.org/ns#Reproduction" />
        <cc:permits
           rdf:resource="http://creativecommons.org/ns#Distribution" />
        <cc:requires
           rdf:resource="http://creativecommons.org/ns#Notice" />
        <cc:requires
           rdf:resource="http://creativecommons.org/ns#Attribution" />
        <cc:permits
           rdf:resource="http://creativecommons.org/ns#DerivativeWorks" />
      </cc:License>
    </rdf:RDF>
  </metadata>
  <g
     inkscape:label="Layer 1"
     inkscape:groupmode="layer"
     id="layer1"
     transform="translate(0,-11.249983)">
    <path
       style="fill:#ffe6d5;stroke-width:1.26499999;stroke-linejoin:bevel;paint-order:markers fill stroke"
       d="M -26.458349,-9.9166837 H 534.45834 V 318.16665 H -26.458349 Z"
       id="rect4383"
       inkscape:connector-curvature="0" />
    <path
       inkscape:connector-curvature="0"
       style="fill:#d40000;stroke-width:1.26499999;stroke-linejoin:bevel;paint-order:markers fill stroke"
       inkscape:transform-center-x="5.7666668e-06"
       inkscape:transform-center-y="-3.2845105"
       d="m 475.28764,11.249988 6.8739,24.934714 25.83847,-1.167778 -21.59016,14.242722 9.09513,24.212989 -20.21734,-16.13223 -20.21737,16.132228 9.09516,-24.212987 -21.59018,-14.242725 25.83846,1.167781 z"
       id="path4343" />
    <path
       inkscape:connector-curvature="0"
       style="fill:#d40000;stroke-width:1.26499999;stroke-linejoin:bevel;paint-order:markers fill stroke"
       inkscape:transform-center-x="5.7666668e-06"
       inkscape:transform-center-y="-3.2845105"
       d="M 32.712382,11.249988 39.586284,36.184702 65.424762,35.016924 43.83459,49.259646 52.929743,73.472635 32.712382,57.340405 12.495017,73.472633 21.590172,49.259646 -2.0833333e-7,35.016921 25.838478,36.184702 Z"
       id="path4345" />
    <path
       inkscape:connector-curvature="0"
       style="fill:#d40000;stroke-width:5.09462976;stroke-linejoin:bevel;paint-order:markers fill stroke"
       inkscape:transform-center-x="3.8707838e-05"
       inkscape:transform-center-y="-13.227946"
       d="m 243.41668,121.95995 27.68377,100.42145 104.06126,-4.70309 -86.95174,57.36078 36.62961,97.5148 -81.4229,-64.97055 -81.42291,64.97053 36.6296,-97.51478 -86.95172,-57.36078 104.06124,4.70309 z"
       id="path4381" />
    <g
       aria-label="ADORINA WU"
       transform="matrix(0.26458333,0,0,0.26458333,-36.263418,24.078922)"
       style="font-style:normal;font-weight:normal;font-size:40px;line-height:1.25;font-family:sans-serif;letter-spacing:0px;word-spacing:0px;fill:#d40000;fill-opacity:1;stroke:none"
       id="flowRoot852">
      <path
         inkscape:connector-curvature="0"
         d="m 539.424,166.272 q -4.608,1.536 -9.6,1.92 -4.224,0.384 -9.408,-0.384 -4.992,-0.768 -9.984,-3.648 -5.76,-3.456 -9.408,-7.872 -3.456,-4.608 -5.568,-8.832 -2.112,-4.416 -2.88,-7.872 -0.768,-3.648 -0.96,-4.8 -0.192,1.152 -0.96,4.8 -0.768,3.456 -2.88,7.872 -2.112,4.224 -5.76,8.832 -3.456,4.416 -9.216,7.872 -4.992,2.88 -10.176,3.648 -4.992,0.768 -9.216,0.384 -4.992,-0.384 -9.6,-1.92 -3.84,-1.344 -6.72,-3.456 -2.688,-2.304 -4.608,-4.992 -1.728,-2.88 -3.072,-5.952 -1.152,-3.264 -1.728,-6.336 -1.536,-7.296 -1.152,-15.552 0.576,-13.632 3.072,-24.96 2.496,-11.52 6.144,-20.928 3.84,-9.6 8.256,-17.088 4.416,-7.68 8.64,-13.824 6.336,-9.216 12.864,-14.016 6.72,-4.8 12.288,-6.912 5.76,-2.304 9.408,-2.496 3.84,-0.384 4.416,-0.384 0.576,0 4.224,0.384 3.84,0.192 9.408,2.496 5.76,2.112 12.48,6.912 6.72,4.8 13.056,14.016 4.224,6.144 8.448,13.824 4.416,7.488 8.064,17.088 3.84,9.408 6.336,20.928 2.496,11.328 3.072,24.96 0.576,8.256 -0.96,15.552 -0.576,3.072 -1.92,6.336 -1.152,3.072 -3.072,5.952 -1.92,2.688 -4.8,4.992 -2.688,2.112 -6.528,3.456 z m -47.04,-69.12 q -3.264,0 -5.76,2.496 -2.304,2.496 -1.92,5.568 0.384,4.032 2.304,5.568 2.112,1.536 5.376,1.536 3.264,0 5.376,-1.92 2.112,-1.92 2.112,-5.184 0,-3.072 -1.92,-5.568 -1.92,-2.496 -5.568,-2.496 z"
         style="font-style:normal;font-variant:normal;font-weight:normal;font-stretch:normal;font-size:192px;font-family:Sniglet;-inkscape-font-specification:Sniglet;fill:#d40000;fill-opacity:1"
         id="path873" />
      <path
         inkscape:connector-curvature="0"
         d="m 683.058,133.44 q -2.304,7.68 -6.336,13.44 -4.032,5.568 -9.024,9.6 -4.992,4.032 -10.752,6.528 -5.568,2.496 -11.136,4.032 -13.248,3.456 -28.224,3.072 -11.52,0.192 -19.008,-2.304 -7.488,-2.688 -12.096,-5.952 -5.376,-3.648 -8.64,-8.256 -2.88,-4.8 -4.416,-10.752 -1.344,-5.952 -1.92,-11.904 -0.576,-6.144 -0.576,-11.904 0,-5.952 0,-10.944 0,-10.176 0.576,-18.624 0.576,-8.64 1.536,-14.976 0.768,-7.488 2.112,-13.44 0.96,-5.952 3.264,-10.368 2.304,-4.416 5.184,-7.488 3.072,-3.264 6.336,-5.376 3.456,-2.112 6.912,-3.264 7.872,-2.88 17.472,-2.496 9.216,0 16.896,1.344 7.68,1.152 13.824,3.264 6.144,1.92 10.944,4.608 4.992,2.688 8.832,5.376 8.832,6.528 13.824,14.784 4.8,8.256 7.104,19.008 0.96,4.608 1.536,10.368 0.768,5.568 0.576,12.288 -0.192,6.72 -1.344,14.4 -0.96,7.488 -3.456,15.936 z M 629.874,94.272 q -3.264,0 -5.568,1.728 -2.112,1.536 -2.112,6.336 0,4.608 2.112,5.952 2.304,1.152 5.568,1.152 3.264,0 5.376,-1.92 2.112,-1.92 2.112,-5.184 0,-3.072 -1.92,-5.568 -1.92,-2.496 -5.568,-2.496 z"
         style="font-style:normal;font-variant:normal;font-weight:normal;font-stretch:normal;font-size:192px;font-family:Sniglet;-inkscape-font-specification:Sniglet;fill:#d40000;fill-opacity:1"
         id="path875" />
      <path
         inkscape:connector-curvature="0"
         d="m 769.956,32.832 q 11.52,0 20.16,2.88 8.832,2.688 15.36,7.296 6.528,4.608 10.944,10.56 4.416,5.76 7.296,11.904 6.72,14.4 7.68,32.448 0,13.632 -2.688,24 -2.688,10.176 -7.104,17.856 -4.224,7.488 -9.792,12.672 -5.376,5.184 -11.136,8.64 -13.44,7.872 -30.72,9.024 -13.056,0 -22.848,-2.688 -9.792,-2.88 -17.088,-7.296 -7.296,-4.608 -12.288,-10.368 -4.992,-5.952 -8.256,-12.096 -7.68,-14.208 -8.64,-32.448 0,-14.976 2.88,-25.92 3.072,-10.944 7.872,-18.816 4.992,-8.064 11.136,-13.056 6.144,-5.184 12.672,-8.256 15.168,-7.104 34.56,-6.336 z m -2.88,61.632 q -3.264,0 -5.76,2.496 -2.304,2.496 -1.92,5.568 0.384,4.032 2.304,5.568 2.112,1.536 5.376,1.536 3.264,0 5.376,-1.92 2.112,-1.92 2.112,-5.184 0,-3.072 -1.92,-5.568 -1.92,-2.496 -5.568,-2.496 z"
         style="font-style:normal;font-variant:normal;font-weight:normal;font-stretch:normal;font-size:192px;font-family:Sniglet;-inkscape-font-specification:Sniglet;fill:#d40000;fill-opacity:1"
         id="path877" />
      <path
         inkscape:connector-curvature="0"
         d="m 956.781,68.352 q 1.92,10.368 0.576,18.432 -1.344,8.064 -3.456,13.632 -2.688,6.528 -6.528,11.328 6.912,5.952 10.944,11.52 4.224,5.376 6.144,10.176 1.92,4.8 1.92,9.024 0.192,4.032 -0.576,7.488 -2.112,8.064 -9.408,14.592 -5.568,4.416 -10.752,5.376 -5.184,1.152 -9.792,-0.192 -4.608,-1.152 -8.832,-4.224 -4.032,-3.264 -7.488,-7.296 -8.064,-9.216 -14.784,-24.192 0.96,6.336 0.576,11.136 -0.384,4.8 -1.728,8.448 -1.344,3.648 -3.264,6.336 -1.92,2.496 -4.224,4.224 -5.184,4.224 -12.672,5.376 -9.6,1.344 -15.936,-2.112 -6.336,-3.648 -9.984,-8.256 -4.416,-5.376 -6.528,-12.672 -4.992,-16.896 -5.76,-30.72 -0.768,-14.016 0.192,-24.384 1.152,-11.904 4.224,-21.696 1.92,-7.872 5.376,-13.632 3.456,-5.76 7.68,-9.984 4.416,-4.224 9.216,-6.912 4.8,-2.688 9.408,-4.224 10.944,-3.648 23.424,-3.072 8.448,0 15.168,1.728 6.72,1.536 11.904,4.224 5.376,2.496 9.216,5.76 4.032,3.072 6.72,6.528 6.336,7.872 9.024,18.24 z M 904.749,81.6 q -3.264,0 -5.76,2.496 -2.304,2.496 -1.92,5.568 0.384,4.032 2.304,5.568 2.112,1.536 5.376,1.536 3.264,0 5.376,-1.92 2.112,-1.92 2.112,-5.184 0,-3.072 -1.92,-5.568 -1.92,-2.496 -5.568,-2.496 z"
         style="font-style:normal;font-variant:normal;font-weight:normal;font-stretch:normal;font-size:192px;font-family:Sniglet;-inkscape-font-specification:Sniglet;fill:#d40000;fill-opacity:1"
         id="path879" />
      <path
         inkscape:connector-curvature="0"
         d="m 977.613,129.024 q -1.152,-7.872 -1.536,-17.088 -0.192,-9.408 0,-17.472 0.192,-9.408 0.768,-19.008 0.96,-11.904 4.8,-21.312 1.728,-4.032 4.224,-7.872 2.496,-3.84 5.952,-6.72 3.648,-3.072 8.448,-4.992 4.8,-1.92 11.136,-1.92 7.68,0.576 14.016,4.608 2.688,1.728 5.376,4.416 2.88,2.688 5.184,6.72 2.496,4.032 4.224,9.408 1.92,5.376 2.88,12.288 1.536,13.44 1.728,25.536 0.192,11.904 -0.192,21.12 -0.576,10.56 -1.536,19.776 -1.344,9.408 -4.992,16.704 -1.728,3.072 -4.032,6.144 -2.304,2.88 -5.568,5.376 -3.264,2.304 -7.488,3.648 -4.224,1.344 -9.6,1.344 -5.952,0 -10.56,-1.728 -4.608,-1.92 -8.256,-4.8 -3.456,-2.88 -5.952,-6.528 -2.304,-3.648 -4.032,-7.488 -3.84,-9.024 -4.992,-20.16 z"
         style="font-style:normal;font-variant:normal;font-weight:normal;font-stretch:normal;font-size:192px;font-family:Sniglet;-inkscape-font-specification:Sniglet;fill:#d40000;fill-opacity:1"
         id="path881" />
      <path
         inkscape:connector-curvature="0"
         d="m 1061.31,62.016 q 1.92,-8.256 6.528,-14.976 3.84,-5.76 10.752,-10.56 7.104,-4.992 18.432,-5.568 8.064,-0.384 14.016,1.728 6.144,1.92 10.752,5.376 4.608,3.456 7.68,8.064 3.264,4.608 5.376,9.408 4.992,11.328 5.568,26.112 -0.192,-9.792 0.96,-17.088 1.344,-7.488 3.456,-12.672 2.112,-5.376 4.8,-8.832 2.88,-3.648 5.76,-5.76 6.72,-4.992 15.552,-4.992 9.024,-0.192 14.4,3.264 5.568,3.264 8.448,7.488 3.456,4.992 4.608,11.136 3.264,16.896 3.264,32.256 0,15.168 -0.96,27.072 -1.344,13.824 -3.84,26.112 -1.344,6.144 -3.456,10.752 -1.92,4.416 -4.416,7.68 -2.304,3.072 -4.992,5.184 -2.688,1.92 -5.184,3.072 -6.144,2.688 -12.672,2.112 -7.872,0.192 -14.208,-2.112 -6.144,-2.304 -10.944,-6.336 -4.8,-4.032 -8.256,-9.216 -3.456,-5.184 -5.952,-10.56 -5.952,-12.672 -8.064,-28.992 0.576,11.904 -0.384,20.736 -0.96,8.64 -3.072,14.976 -2.112,6.144 -4.992,10.176 -2.688,4.032 -5.76,6.336 -7.296,5.76 -16.704,4.992 -8.256,0.384 -13.44,-2.88 -5.184,-3.456 -8.064,-7.488 -3.456,-4.8 -4.992,-10.944 -3.648,-15.168 -4.224,-30.144 -0.384,-15.168 0.576,-27.456 0.96,-14.208 3.648,-27.456 z"
         style="font-style:normal;font-variant:normal;font-weight:normal;font-stretch:normal;font-size:192px;font-family:Sniglet;-inkscape-font-specification:Sniglet;fill:#d40000;fill-opacity:1"
         id="path883" />
      <path
         inkscape:connector-curvature="0"
         d="m 1328.049,166.272 q -4.608,1.536 -9.6,1.92 -4.224,0.384 -9.408,-0.384 -4.992,-0.768 -9.984,-3.648 -5.76,-3.456 -9.408,-7.872 -3.456,-4.608 -5.568,-8.832 -2.112,-4.416 -2.88,-7.872 -0.768,-3.648 -0.96,-4.8 -0.192,1.152 -0.96,4.8 -0.768,3.456 -2.88,7.872 -2.112,4.224 -5.76,8.832 -3.456,4.416 -9.216,7.872 -4.992,2.88 -10.176,3.648 -4.992,0.768 -9.216,0.384 -4.992,-0.384 -9.6,-1.92 -3.84,-1.344 -6.72,-3.456 -2.688,-2.304 -4.608,-4.992 -1.728,-2.88 -3.072,-5.952 -1.152,-3.264 -1.728,-6.336 -1.536,-7.296 -1.152,-15.552 0.576,-13.632 3.072,-24.96 2.496,-11.52 6.144,-20.928 3.84,-9.6 8.256,-17.088 4.416,-7.68 8.64,-13.824 6.336,-9.216 12.864,-14.016 6.72,-4.8 12.288,-6.912 5.76,-2.304 9.408,-2.496 3.84,-0.384 4.416,-0.384 0.576,0 4.224,0.384 3.84,0.192 9.408,2.496 5.76,2.112 12.48,6.912 6.72,4.8 13.056,14.016 4.224,6.144 8.448,13.824 4.416,7.488 8.064,17.088 3.84,9.408 6.336,20.928 2.496,11.328 3.072,24.96 0.576,8.256 -0.96,15.552 -0.576,3.072 -1.92,6.336 -1.152,3.072 -3.072,5.952 -1.92,2.688 -4.8,4.992 -2.688,2.112 -6.528,3.456 z m -47.04,-69.12 q -3.264,0 -5.76,2.496 -2.304,2.496 -1.92,5.568 0.384,4.032 2.304,5.568 2.112,1.536 5.376,1.536 3.264,0 5.376,-1.92 2.112,-1.92 2.112,-5.184 0,-3.072 -1.92,-5.568 -1.92,-2.496 -5.568,-2.496 z"
         style="font-style:normal;font-variant:normal;font-weight:normal;font-stretch:normal;font-size:192px;font-family:Sniglet;-inkscape-font-specification:Sniglet;fill:#d40000;fill-opacity:1"
         id="path885" />
      <path
         inkscape:connector-curvature="0"
         d="m 1532.496,128.064 q -1.536,11.712 -6.144,20.928 -1.92,4.032 -4.8,7.872 -2.688,3.648 -6.528,6.528 -3.648,2.88 -8.64,4.608 -4.992,1.92 -11.328,1.92 -9.792,0 -17.088,-4.416 -7.104,-4.608 -11.904,-10.176 -5.568,-6.336 -9.6,-14.784 -5.376,-11.904 -8.256,-24 -2.688,-12.096 -4.032,-21.888 -1.536,-11.52 -1.728,-22.08 -0.384,-7.872 0.576,-13.824 1.152,-5.952 3.072,-10.368 2.112,-4.416 4.8,-7.296 2.688,-3.072 5.568,-4.992 6.72,-4.608 15.552,-5.184 7.68,0 13.44,2.688 5.952,2.688 10.176,7.104 4.224,4.416 7.104,10.176 2.88,5.568 4.608,11.328 4.224,13.632 4.416,31.104 -0.384,-11.52 2.496,-17.28 3.072,-5.952 6.912,-8.64 4.416,-3.072 10.176,-3.072 4.224,0 7.296,1.344 3.264,1.344 5.568,3.456 2.304,1.92 3.84,4.608 1.728,2.496 2.688,5.184 2.112,6.336 2.304,14.4 0,-11.712 1.344,-20.544 1.536,-8.832 3.84,-15.36 2.496,-6.72 5.568,-11.136 3.072,-4.608 6.336,-7.488 7.68,-6.912 17.28,-7.872 6.528,0 11.52,1.728 4.992,1.728 8.64,4.608 3.648,2.88 6.144,6.528 2.496,3.648 4.032,7.68 3.648,9.216 4.032,21.12 0,15.744 -2.112,28.416 -2.112,12.672 -4.8,21.888 -3.072,10.56 -6.912,19.008 -2.496,5.568 -5.568,9.6 -2.88,4.032 -6.144,7.104 -3.264,2.88 -6.72,4.992 -3.264,1.92 -6.336,3.072 -7.296,2.88 -14.976,2.88 -6.912,0 -12.096,-1.728 -5.184,-1.92 -9.024,-4.8 -3.84,-2.88 -6.528,-6.528 -2.496,-3.84 -4.032,-7.68 -3.84,-9.216 -4.032,-20.736 z"
         style="font-style:normal;font-variant:normal;font-weight:normal;font-stretch:normal;font-size:192px;font-family:Sniglet;-inkscape-font-specification:Sniglet;fill:#d40000;fill-opacity:1"
         id="path887" />
      <path
         inkscape:connector-curvature="0"
         d="m 1667.034,31.488 q 6.912,0.384 12.288,3.648 4.608,2.688 8.448,8.64 4.032,5.952 4.032,16.896 0,8.256 -0.192,15.744 -0.192,7.296 0.384,13.056 0.576,5.568 2.112,9.024 1.728,3.264 5.184,3.264 3.456,0 4.992,-3.264 1.728,-3.456 2.304,-9.024 0.576,-5.76 0.384,-13.056 -0.192,-7.488 -0.384,-15.744 -0.192,-5.376 0.768,-9.408 1.152,-4.224 3.072,-7.296 1.92,-3.072 4.224,-4.992 2.496,-2.112 4.992,-3.264 5.952,-2.88 13.632,-2.88 9.792,-0.576 15.744,2.688 6.144,3.264 9.6,7.296 3.84,4.992 5.76,11.136 3.264,14.592 3.264,28.224 0.192,13.44 -1.152,24 -1.536,12.288 -4.416,23.232 -4.032,11.712 -11.904,20.928 -3.456,3.84 -8.064,7.68 -4.416,3.648 -10.56,6.528 -5.952,2.88 -13.632,4.608 -7.488,1.728 -16.704,1.728 -7.872,0 -14.4,-1.344 -6.336,-1.152 -11.712,-3.072 -5.376,-1.92 -9.6,-4.416 -4.224,-2.496 -7.488,-4.992 -7.68,-5.952 -12.096,-13.44 -3.648,-6.144 -5.952,-12.864 -2.304,-6.912 -3.84,-13.824 -1.344,-7.104 -2.112,-13.824 -0.576,-6.912 -0.576,-13.248 -0.192,-14.784 1.92,-29.184 2.304,-12.096 7.488,-18.048 5.184,-6.144 10.56,-8.64 6.336,-2.88 13.632,-2.496 z"
         style="font-style:normal;font-variant:normal;font-weight:normal;font-stretch:normal;font-size:192px;font-family:Sniglet;-inkscape-font-specification:Sniglet;fill:#d40000;fill-opacity:1"
         id="path889" />
    </g>
    <g
       transform="matrix(0.26458333,0,0,0.26458333,-2.0833333e-7,11.249986)"
       aria-label="で  す"
       style="font-style:normal;font-weight:normal;font-size:40px;line-height:1.25;font-family:sans-serif;letter-spacing:0px;word-spacing:0px;fill:#d40000;fill-opacity:1;stroke:none"
       id="flowRoot860">
      <path
         d="m 356.93488,518.61974 -31.33512,13.12689 c 13.55032,19.05515 22.44272,35.56962 33.02892,58.85925 l 32.182,-14.39723 c -8.0455,-16.93791 -23.713,-42.34478 -33.8758,-57.58891 z m 47.4262,-19.4786 -30.9117,14.39723 c 13.5503,18.6317 23.2896,34.29928 34.7227,57.16546 l 31.7586,-15.24412 c -8.8924,-16.51447 -24.9834,-41.49789 -35.5696,-56.31857 z m -329.865899,-49.96685 5.50482,57.58891 c 48.696509,-10.58619 136.773659,-19.90205 173.190179,-23.71308 -28.37101,21.1724 -61.82339,68.59856 -61.82339,129.1516 0,91.04129 82.99578,138.46745 171.07289,143.97227 l 19.4786,-58.01236 c -71.1392,-3.38758 -135.50327,-28.371 -135.50327,-97.393 0,-49.5434 37.68686,-103.74473 88.50057,-117.29506 22.4428,-5.08137 58.4358,-5.50482 80.8786,-5.50482 l -0.4235,-54.20133 c -29.6413,1.27035 -75.3737,3.81103 -118.56538,7.19862 -76.64406,6.77516 -146.08951,13.12688 -181.23568,16.09102 -8.04551,0.84689 -24.136529,1.69379 -41.074439,2.11723 z"
         style="font-style:normal;font-variant:normal;font-weight:bold;font-stretch:normal;font-size:192px;font-family:'URW Palladio L';-inkscape-font-specification:'URW Palladio L Bold';text-align:center;text-anchor:middle;fill:#d40000;fill-opacity:1;stroke-width:2.20545769"
         id="path868"
         inkscape:connector-curvature="0" />
      <path
         d="m 1518.9256,599.49828 c 0,-22.01928 16.091,-33.02893 32.182,-33.02893 11.8566,0 21.5959,4.65793 27.5241,14.82068 5.5048,36.41651 -10.1627,49.5434 -27.5241,49.5434 -16.5145,0 -32.182,-11.85654 -32.182,-31.33515 z M 1742.506,447.4805 c -22.0192,-0.42344 -79.1847,0 -121.5295,0 0,-5.08137 0.4235,-9.31585 0.4235,-12.70343 0.4234,-6.77517 1.6938,-29.2179 2.9641,-35.99307 h -60.9765 c 1.6938,6.77517 2.9641,22.86618 3.811,36.41652 0.4235,2.96413 0.4235,7.62206 0.4235,12.70343 -56.3186,0.8469 -132.5392,2.96414 -180.3888,2.96414 l 1.2703,50.81374 c 51.6607,-2.96414 116.4482,-5.50482 179.9654,-6.35172 l 0.4234,27.94756 c -5.0813,-0.8469 -10.5862,-1.27034 -16.5144,-1.27034 -45.7324,0 -83.8427,30.91169 -83.8427,78.33785 0,51.23719 39.8041,77.06751 72.4096,77.06751 6.7751,0 13.1268,-0.8469 19.0551,-2.11724 -23.2896,24.98342 -60.1296,38.9572 -102.4744,47.84961 l 44.4621,44.88547 c 102.4743,-28.79445 134.6564,-98.2399 134.6564,-152.86468 0,-22.01928 -5.0814,-42.34478 -15.6676,-58.01235 0,-18.20826 0,-41.07444 -0.4234,-62.24684 56.742,0 96.1226,0.8469 121.5295,2.11724 z"
         style="font-style:normal;font-variant:normal;font-weight:bold;font-stretch:normal;font-size:192px;font-family:'URW Palladio L';-inkscape-font-specification:'URW Palladio L Bold';text-align:center;text-anchor:middle;fill:#d40000;fill-opacity:1;stroke-width:2.20545769"
         id="path870"
         inkscape:connector-curvature="0" />
    </g>
  </g>
</svg>
