<?xml version="1.0" encoding="UTF-8" standalone="no"?>
<!-- Created with Inkscape (http://www.inkscape.org/) -->

<svg
   xmlns:dc="http://purl.org/dc/elements/1.1/"
   xmlns:cc="http://creativecommons.org/ns#"
   xmlns:rdf="http://www.w3.org/1999/02/22-rdf-syntax-ns#"
   xmlns:svg="http://www.w3.org/2000/svg"
   xmlns="http://www.w3.org/2000/svg"
   xmlns:sodipodi="http://sodipodi.sourceforge.net/DTD/sodipodi-0.dtd"
   xmlns:inkscape="http://www.inkscape.org/namespaces/inkscape"
   width="1920"
   height="1080"
   viewBox="0 0 507.99999 285.75001"
   version="1.1"
   id="svg8"
   inkscape:version="0.92.2 (5c3e80d, 2017-08-06)"
   sodipodi:docname="ann.svg"
   inkscape:export-filename="/home/mbrickn/Projects/Operation-Ohio-Source/Internal/images/vector/overlay characters/ann.png"
   inkscape:export-xdpi="96"
   inkscape:export-ydpi="96">
  <defs
     id="defs2" />
  <sodipodi:namedview
     id="base"
     pagecolor="#ffffff"
     bordercolor="#666666"
     borderopacity="1.0"
     inkscape:pageopacity="0.0"
     inkscape:pageshadow="2"
     inkscape:zoom="0.35"
     inkscape:cx="-220.22835"
     inkscape:cy="321.16868"
     inkscape:document-units="mm"
     inkscape:current-layer="layer1"
     inkscape:document-rotation="0"
     showgrid="true"
     units="px"
     inkscape:window-width="1920"
     inkscape:window-height="1016"
     inkscape:window-x="0"
     inkscape:window-y="27"
     inkscape:window-maximized="1">
    <inkscape:grid
       type="xygrid"
       id="grid4267" />
  </sodipodi:namedview>
  <metadata
     id="metadata5">
    <rdf:RDF>
      <cc:Work
         rdf:about="">
        <dc:format>image/svg+xml</dc:format>
        <dc:type
           rdf:resource="http://purl.org/dc/dcmitype/StillImage" />
        <dc:title />
        <cc:license
           rdf:resource="http://creativecommons.org/licenses/by/4.0/" />
      </cc:Work>
      <cc:License
         rdf:about="http://creativecommons.org/licenses/by/4.0/">
        <cc:permits
           rdf:resource="http://creativecommons.org/ns#Reproduction" />
        <cc:permits
           rdf:resource="http://creativecommons.org/ns#Distribution" />
        <cc:requires
           rdf:resource="http://creativecommons.org/ns#Notice" />
        <cc:requires
           rdf:resource="http://creativecommons.org/ns#Attribution" />
        <cc:permits
           rdf:resource="http://creativecommons.org/ns#DerivativeWorks" />
      </cc:License>
    </rdf:RDF>
  </metadata>
  <g
     inkscape:label="Layer 1"
     inkscape:groupmode="layer"
     id="layer1"
     transform="translate(0,-11.249983)">
    <rect
       style="fill:#ececec;stroke-width:1.26499999;stroke-linejoin:bevel;paint-order:markers fill stroke"
       id="rect4331"
       width="836.08331"
       height="349.25"
       x="-243.41666"
       y="-41.666683" />
    <g
       aria-label="COMPUTE THIS"
       transform="matrix(0.30383656,0,0,0.30383656,7.791958,206.98354)"
       style="font-style:normal;font-weight:normal;font-size:40px;line-height:1.25;font-family:sans-serif;letter-spacing:0px;word-spacing:0px;fill:#ff6600;fill-opacity:1;stroke:#803e80;stroke-width:17.70383453;stroke-miterlimit:4;stroke-dasharray:none;stroke-opacity:1"
       id="flowRoot4337">
      <path
         d="m 134.016,23.394719 h -8.256 l -10.368,9.408 c -12.672,-7.68 -21.504,-10.176 -35.136,-10.176 -42.24,0 -72.576,30.912 -72.576,73.92 0,19.968001 5.952,35.712001 18.24,49.344001 13.248,14.592 29.568,21.12 52.032,21.12 33.984,0 53.568,-16.512 60.864,-50.88 l -11.904,-2.88 c -5.184,26.688 -20.544,41.856 -42.624,41.856 -26.112,0 -38.4,-19.776 -38.4,-62.016001 0,-39.744 12.288,-60.48 35.904,-60.48 21.312,0 35.328,14.784 43.968,46.848 l 10.176,-1.152 z"
         style="letter-spacing:-3.87999463px;fill:#ff6600;stroke:#803e80;stroke-width:17.70383453;stroke-miterlimit:4;stroke-dasharray:none;stroke-opacity:1"
         id="path4294" />
      <path
         d="m 225.43401,22.626719 c -18.624,0 -34.368,5.376 -46.848,16.32 -16.128,13.824 -25.728,35.52 -25.728,57.984 0,40.704001 29.952,70.080001 71.616,70.080001 19.584,0 34.752,-4.8 47.616,-14.976 16.512,-13.248 25.728,-32.832 25.728,-55.296001 0,-22.272 -9.792,-44.16 -25.728,-57.792 -12.864,-11.136 -27.84,-16.32 -46.656,-16.32 z m 0.192,9.984 c 10.368,0 18.432,4.992 24,14.784 6.336,11.52 9.792,28.8 9.792,49.536 0,38.976001 -11.904,60.096001 -33.792,60.096001 -11.136,0 -19.2,-4.8 -24.576,-14.784 -6.336,-11.904 -9.792,-28.8 -9.792,-48.960001 0,-20.736 3.264,-36.096 9.792,-47.04 5.568,-9.408 13.248,-13.632 24.576,-13.632 z"
         style="letter-spacing:-3.87999463px;fill:#ff6600;stroke:#803e80;stroke-width:17.70383453;stroke-miterlimit:4;stroke-dasharray:none;stroke-opacity:1"
         id="path4296" />
      <path
         d="m 366.51102,25.506719 h -61.824 v 10.368 h 2.112 c 10.176,0 14.208,0.768 15.936,2.88 1.344,1.536 1.344,2.304 1.344,14.4 v 69.312001 c 0,16.896 -0.96,21.888 -4.992,26.112 -3.072,3.264 -8.256,4.992 -15.744,5.184 v 10.368 h 54.72 v -10.368 c -7.68,-0.192 -13.056,-1.92 -16.128,-5.184 -4.032,-4.224 -4.992,-9.024 -4.992,-26.112 V 42.594719 l 43.584,121.536001 h 9.984 l 42.432,-123.456001 v 95.808001 c 0,12.096 0,12.864 -1.344,14.4 -1.728,2.112 -5.76,2.88 -15.936,2.88 h -2.112 v 10.368 h 73.344 v -10.368 h -2.112 c -10.176,0 -14.208,-0.768 -15.936,-2.88 -1.344,-1.536 -1.344,-2.496 -1.344,-14.4 V 53.154719 c 0,-11.904 0,-12.864 1.344,-14.4 1.728,-2.112 5.76,-2.88 15.936,-2.88 h 2.112 v -10.368 h -62.592 l -28.032,82.560001 z"
         style="letter-spacing:-3.87999463px;fill:#ff6600;stroke:#803e80;stroke-width:17.70383453;stroke-miterlimit:4;stroke-dasharray:none;stroke-opacity:1"
         id="path4298" />
      <path
         d="m 545.12102,104.61072 h 21.504 c 40.128,0 60.48,-13.632001 60.48,-40.512001 0,-14.4 -7.104,-26.112 -19.392,-31.872 -10.368,-4.8 -21.696,-6.72 -40.896,-6.72 h -76.224 v 10.56 h 2.88 c 9.984,0 14.016,0.768 15.744,2.688 1.344,1.728 1.344,2.304 1.344,14.592 v 83.136001 c 0,12.288 0,12.864 -1.344,14.592 -1.728,1.92 -5.76,2.688 -15.744,2.688 h -2.88 v 10.368 h 76.032 v -10.368 h -4.224 c -10.176,0 -14.208,-0.768 -15.936,-2.688 -1.344,-1.728 -1.344,-2.304 -1.344,-14.592 z m 0,-10.560001 v -46.464 c 0,-9.408 1.92,-11.52 10.56,-11.52 h 7.68 c 18.24,0 26.688,8.64 26.688,27.84 0,22.08 -9.024,30.144 -33.792,30.144 z"
         style="letter-spacing:-3.87999463px;fill:#ff6600;stroke:#803e80;stroke-width:17.70383453;stroke-miterlimit:4;stroke-dasharray:none;stroke-opacity:1"
         id="path4300" />
      <path
         d="m 685.38804,53.154719 c 0,-12.096 0,-12.864 1.344,-14.4 1.728,-2.112 5.952,-2.88 15.936,-2.88 h 2.88 v -10.368 h -74.688 v 10.368 h 2.88 c 9.984,0 14.016,0.768 15.744,2.88 1.344,1.536 1.344,2.304 1.344,14.4 v 60.864001 c 0,16.128 1.344,24.192 4.992,30.912 7.872,14.4 26.496,22.08 53.568,22.08 24.576,0 39.36,-6.528 48.768,-21.312 5.376,-8.64 6.912,-17.28 6.912,-39.936 V 67.170719 c 0,-16.896 0.96,-21.888 4.992,-26.112 3.072,-3.264 8.448,-4.992 16.128,-5.184 v -10.368 h -54.72 v 10.368 c 7.488,0.192 12.672,1.92 15.744,5.184 4.032,4.224 4.992,9.024 4.992,26.112 v 38.592001 c 0,15.744 -0.768,23.232 -3.264,28.608 -5.568,12.096 -16.704,18.24 -32.64,18.24 -10.944,0 -19.2,-3.264 -24.576,-9.408 -4.224,-5.184 -6.336,-14.592 -6.336,-28.608 z"
         style="letter-spacing:-3.87999463px;fill:#ff6600;stroke:#803e80;stroke-width:17.70383453;stroke-miterlimit:4;stroke-dasharray:none;stroke-opacity:1"
         id="path4302" />
      <path
         d="m 917.08904,25.506719 h -127.104 l -2.88,52.032 h 10.176 c 2.496,-14.208 5.184,-21.696 9.792,-28.416 6.144,-9.216 13.44,-13.632 22.272,-13.632 5.76,0 6.912,1.344 6.912,7.872 v 93.120001 c 0,12.096 0,12.864 -1.344,14.4 -1.728,2.112 -5.76,2.88 -15.936,2.88 h -4.224 v 10.368 h 77.568 v -10.368 h -4.224 c -10.176,0 -14.208,-0.768 -15.936,-2.88 -1.344,-1.536 -1.344,-2.304 -1.344,-14.4 V 43.362719 c 0,-6.528 1.152,-7.872 6.912,-7.872 8.256,0 14.592,3.456 20.736,11.328 5.376,7.104 8.448,15.168 11.328,30.72 h 10.176 z"
         style="letter-spacing:-3.87999463px;fill:#ff6600;stroke:#803e80;stroke-width:17.70383453;stroke-miterlimit:4;stroke-dasharray:none;stroke-opacity:1"
         id="path4304" />
      <path
         d="M 1050.999,25.506719 H 922.16703 v 10.368 h 2.88 c 9.984,0 14.016,0.768 15.744,2.88 1.344,1.536 1.344,2.304 1.344,14.4 v 83.328001 c 0,12.096 0,12.864 -1.344,14.4 -1.728,2.112 -5.76,2.88 -15.744,2.88 h -2.88 v 10.368 H 1052.535 l 2.304,-51.648 h -10.176 c -8.064,28.8 -21.696,41.28 -44.92797,41.28 h -5.76 c -9.408,0 -11.904,-0.384 -14.208,-2.688 -2.496,-2.304 -3.072,-4.416 -3.072,-10.752 V 97.698719 h 3.264 c 14.976,0 24.38397,9.600001 26.49597,27.264001 h 10.368 V 59.874719 h -10.368 c -2.112,17.664 -11.51997,27.264 -26.49597,27.264 h -3.264 v -34.752 c 0,-7.872 0.384,-9.984 1.92,-12.288 2.112,-2.88 6.72,-4.224 14.592,-4.224 h 5.376 c 14.20797,0 25.91997,5.184 32.44797,14.208 4.032,5.76 8.256,15.36 11.136,25.344 h 9.984 z"
         style="letter-spacing:-3.87999463px;fill:#ff6600;stroke:#803e80;stroke-width:17.70383453;stroke-miterlimit:4;stroke-dasharray:none;stroke-opacity:1"
         id="path4306" />
      <path
         d="m 1245.1991,25.506719 h -127.104 l -2.88,52.032 h 10.176 c 2.496,-14.208 5.184,-21.696 9.792,-28.416 6.144,-9.216 13.44,-13.632 22.272,-13.632 5.76,0 6.912,1.344 6.912,7.872 v 93.120001 c 0,12.096 0,12.864 -1.344,14.4 -1.728,2.112 -5.76,2.88 -15.936,2.88 h -4.224 v 10.368 h 77.568 v -10.368 h -4.224 c -10.176,0 -14.208,-0.768 -15.936,-2.88 -1.344,-1.536 -1.344,-2.304 -1.344,-14.4 V 43.362719 c 0,-6.528 1.152,-7.872 6.912,-7.872 8.256,0 14.592,3.456 20.736,11.328 5.376,7.104 8.448,15.168 11.328,30.72 h 10.176 z"
         style="letter-spacing:-3.87999463px;fill:#ff6600;stroke:#803e80;stroke-width:17.70383453;stroke-miterlimit:4;stroke-dasharray:none;stroke-opacity:1"
         id="path4308" />
      <path
         d="m 1355.6851,99.042719 v 37.440001 c 0,12.096 0,12.864 -1.344,14.4 -1.728,2.112 -5.76,2.88 -15.744,2.88 h -2.88 v 10.368 h 74.688 v -10.368 h -2.88 c -9.984,0 -14.208,-0.768 -15.936,-2.88 -1.344,-1.536 -1.344,-2.112 -1.344,-14.4 V 53.346719 c 0,-12.288 0,-13.056 1.344,-14.592 1.728,-2.112 5.952,-2.88 15.936,-2.88 h 2.88 v -10.368 h -74.688 v 10.368 h 2.88 c 9.984,0 14.016,0.768 15.744,2.88 1.344,1.536 1.344,2.496 1.344,14.592 v 34.176 h -50.112 v -34.176 c 0,-12.288 0,-13.056 1.344,-14.592 1.728,-2.112 5.952,-2.88 15.936,-2.88 h 2.88 v -10.368 h -74.688 v 10.368 h 2.88 c 9.984,0 14.016,0.768 15.744,2.88 1.344,1.536 1.344,2.304 1.344,14.592 v 83.136001 c 0,12.096 0,12.864 -1.344,14.4 -1.728,2.112 -5.76,2.88 -15.744,2.88 h -2.88 v 10.368 h 74.688 v -10.368 h -2.88 c -9.984,0 -14.208,-0.768 -15.936,-2.88 -1.344,-1.536 -1.344,-2.112 -1.344,-14.4 V 99.042719 Z"
         style="letter-spacing:-3.87999463px;fill:#ff6600;stroke:#803e80;stroke-width:17.70383453;stroke-miterlimit:4;stroke-dasharray:none;stroke-opacity:1"
         id="path4310" />
      <path
         d="m 1435.5441,136.48272 c 0,12.096 0,12.864 -1.344,14.4 -1.728,2.112 -5.76,2.88 -15.744,2.88 h -2.88 v 10.368 h 74.688 v -10.368 h -2.88 c -9.984,0 -14.208,-0.768 -15.936,-2.88 -1.344,-1.536 -1.344,-2.112 -1.344,-14.4 V 53.154719 c 0,-12.288 0,-12.864 1.344,-14.4 1.728,-2.112 5.952,-2.88 15.936,-2.88 h 2.88 v -10.368 h -74.688 v 10.368 h 2.88 c 9.984,0 14.016,0.768 15.744,2.88 1.344,1.536 1.344,2.304 1.344,14.4 z"
         style="letter-spacing:-3.87999463px;fill:#ff6600;stroke:#803e80;stroke-width:17.70383453;stroke-miterlimit:4;stroke-dasharray:none;stroke-opacity:1"
         id="path4312" />
      <path
         d="m 1604.3411,24.162719 h -8.64 l -9.984,8.832 c -10.752,-7.296 -21.12,-10.368 -34.56,-10.368 -29.568,0 -49.728,17.28 -49.728,42.816 0,23.424 17.28,40.128001 47.424,45.696001 l 11.904,2.304 c 12.288,2.304 16.128,3.264 20.736,5.76 5.376,2.88 8.448,8.64 8.448,15.36 0,13.44 -10.944,22.464 -27.648,22.464 -21.696,0 -40.704,-17.088 -51.264,-45.888 h -9.792 l 1.152,54.336 h 8.64 l 11.904,-11.328 c 11.712,8.832 24,12.864 39.36,12.864 29.952,0 50.688,-18.816 50.688,-45.696 0,-24.384001 -14.4,-38.016001 -47.616,-45.312001 l -9.216,-2.112 c -14.784,-2.88 -14.784,-2.88 -19.584,-4.608 -8.64,-3.072 -13.056,-8.64 -13.056,-16.512 0,-11.712 10.752,-20.16 25.92,-20.16 19.968,0 35.904,14.016 47.232,41.28 h 10.176 z"
         style="letter-spacing:-3.87999463px;fill:#ff6600;stroke:#803e80;stroke-width:17.70383453;stroke-miterlimit:4;stroke-dasharray:none;stroke-opacity:1"
         id="path4314" />
    </g>
    <g
       aria-label="YOU ABSOLUTE ZERO"
       transform="matrix(0.21057552,0,0,0.21057552,10.059421,261.83161)"
       style="font-style:normal;font-weight:normal;font-size:40px;line-height:1.25;font-family:sans-serif;letter-spacing:0px;word-spacing:0px;fill:#ff6600;fill-opacity:1;stroke:#803e80;stroke-width:17.70386314;stroke-miterlimit:4;stroke-dasharray:none;stroke-opacity:1"
       id="flowRoot4345">
      <path
         d="m 80.64,88.098719 -25.344,-42.048 c -1.92,-3.072 -2.304,-4.224 -2.304,-5.952 0,-2.88 3.456,-4.224 10.752,-4.224 h 3.072 v -10.368 h -69.12 v 10.368 c 8.64,0 11.52,1.344 15.168,6.912 l 39.168,62.784001 v 30.912 c 0,11.904 0,12.864 -1.344,14.4 -1.728,2.112 -5.76,2.88 -15.936,2.88 h -4.224 v 10.368 h 77.568 v -10.368 h -4.224 c -10.176,0 -14.208,-0.768 -15.936,-2.88 -1.344,-1.536 -1.344,-2.304 -1.344,-14.4 v -33.408 l 28.8,-49.344001 c 7.296,-11.904 14.976,-17.088 25.728,-17.856 v -10.368 H 84.48 v 10.368 h 4.032 c 8.448,0 14.016,3.648 14.016,9.216 0,2.304 -1.152,5.76 -2.688,8.832 z"
         style="font-style:normal;font-variant:normal;font-weight:bold;font-stretch:normal;font-size:192px;font-family:'Century Schoolbook L';-inkscape-font-specification:'Century Schoolbook L Bold';fill:#ff6600;stroke:#803e80;stroke-width:17.70386314;stroke-miterlimit:4;stroke-dasharray:none;stroke-opacity:1"
         id="path4317" />
      <path
         d="m 218.814,22.626719 c -18.624,0 -34.368,5.376 -46.848,16.32 -16.128,13.824 -25.728,35.52 -25.728,57.984 0,40.704001 29.952,70.080001 71.616,70.080001 19.584,0 34.752,-4.8 47.616,-14.976 16.512,-13.248 25.728,-32.832 25.728,-55.296001 0,-22.272 -9.792,-44.16 -25.728,-57.792 -12.864,-11.136 -27.84,-16.32 -46.656,-16.32 z m 0.192,9.984 c 10.368,0 18.432,4.992 24,14.784 6.336,11.52 9.792,28.8 9.792,49.536 0,38.976001 -11.904,60.096001 -33.792,60.096001 -11.136,0 -19.2,-4.8 -24.576,-14.784 -6.336,-11.904 -9.792,-28.8 -9.792,-48.960001 0,-20.736 3.264,-36.096 9.792,-47.04 5.568,-9.408 13.248,-13.632 24.576,-13.632 z"
         style="font-style:normal;font-variant:normal;font-weight:bold;font-stretch:normal;font-size:192px;font-family:'Century Schoolbook L';-inkscape-font-specification:'Century Schoolbook L Bold';fill:#ff6600;stroke:#803e80;stroke-width:17.70386314;stroke-miterlimit:4;stroke-dasharray:none;stroke-opacity:1"
         id="path4319" />
      <path
         d="m 356.283,53.154719 c 0,-12.096 0,-12.864 1.344,-14.4 1.728,-2.112 5.952,-2.88 15.936,-2.88 h 2.88 v -10.368 h -74.688 v 10.368 h 2.88 c 9.984,0 14.016,0.768 15.744,2.88 1.344,1.536 1.344,2.304 1.344,14.4 v 60.864001 c 0,16.128 1.344,24.192 4.992,30.912 7.872,14.4 26.496,22.08 53.568,22.08 24.576,0 39.36,-6.528 48.768,-21.312 5.376,-8.64 6.912,-17.28 6.912,-39.936 V 67.170719 c 0,-16.896 0.96,-21.888 4.992,-26.112 3.072,-3.264 8.448,-4.992 16.128,-5.184 v -10.368 h -54.72 v 10.368 c 7.488,0.192 12.672,1.92 15.744,5.184 4.032,4.224 4.992,9.024 4.992,26.112 v 38.592001 c 0,15.744 -0.768,23.232 -3.264,28.608 -5.568,12.096 -16.704,18.24 -32.64,18.24 -10.944,0 -19.2,-3.264 -24.576,-9.408 -4.224,-5.184 -6.336,-14.592 -6.336,-28.608 z"
         style="font-style:normal;font-variant:normal;font-weight:bold;font-stretch:normal;font-size:192px;font-family:'Century Schoolbook L';-inkscape-font-specification:'Century Schoolbook L Bold';fill:#ff6600;stroke:#803e80;stroke-width:17.70386314;stroke-miterlimit:4;stroke-dasharray:none;stroke-opacity:1"
         id="path4321" />
      <path
         d="M 581.517,22.626719 537.933,124.38672 c -8.832,20.736 -15.936,28.224 -27.264,29.376 v 10.368 h 55.488 v -10.368 c -13.824,-0.768 -19.2,-4.416 -19.2,-13.248 0,-3.264 0.576,-5.376 3.072,-10.944 l 3.072,-7.296 h 47.808 l 7.296,18.816 c 1.536,3.456 2.304,6.336 2.304,7.872 0,3.456 -2.496,4.608 -11.136,4.608 l -3.264,0.192 v 10.368 h 67.392 v -10.368 c -10.944,-0.384 -14.016,-2.304 -18.048,-12.096 L 596.109,22.626719 Z m -4.032,40.896 18.624,45.888001 h -38.016 z"
         style="font-style:normal;font-variant:normal;font-weight:bold;font-stretch:normal;font-size:192px;font-family:'Century Schoolbook L';-inkscape-font-specification:'Century Schoolbook L Bold';fill:#ff6600;stroke:#803e80;stroke-width:17.70386314;stroke-miterlimit:4;stroke-dasharray:none;stroke-opacity:1"
         id="path4323" />
      <path
         d="m 663.264,25.506719 v 10.368 h 2.88 c 9.984,0 14.016,0.768 15.744,2.688 1.344,1.728 1.344,2.304 1.344,14.592 v 83.328001 c 0,12.096 0,12.864 -1.344,14.4 -1.728,2.112 -5.76,2.88 -15.744,2.88 h -2.88 v 10.368 h 77.76 c 19.968,0 30.144,-1.536 39.936,-5.76 12.288,-5.568 20.352,-17.664 20.352,-30.528 0,-13.44 -7.68,-24.384 -21.888,-30.720001 -6.528,-3.072 -12.288,-4.608 -22.272,-5.952 9.408,-1.536 14.784,-2.88 20.16,-5.376 11.52,-5.568 17.664,-14.784 17.664,-26.304 0,-10.944 -5.76,-21.12 -15.168,-26.304 -10.56,-6.144 -19.584,-7.68 -42.432,-7.68 z m 54.528,62.208 v -40.704 c 0,-5.568 0.384,-7.104 2.304,-8.64 1.92,-1.728 4.8,-2.496 8.448,-2.496 h 5.76 c 16.896,0 25.92,8.448 25.92,24.384 0,9.408 -3.264,16.896 -9.408,21.696 -5.184,4.224 -11.712,5.76 -23.616,5.76 z m 0,10.56 h 13.248 c 12.096,0 17.664,1.152 23.04,4.608001 6.528,4.416 10.56,12.864 10.56,22.848 0,9.216 -3.456,17.664 -9.024,22.272 -4.8,4.032 -11.136,5.76 -20.352,5.76 h -5.76 c -6.72,0 -9.984,-1.152 -11.136,-3.84 -0.576,-1.536 -0.576,-2.112 -0.576,-8.448 z"
         style="font-style:normal;font-variant:normal;font-weight:bold;font-stretch:normal;font-size:192px;font-family:'Century Schoolbook L';-inkscape-font-specification:'Century Schoolbook L Bold';fill:#ff6600;stroke:#803e80;stroke-width:17.70386314;stroke-miterlimit:4;stroke-dasharray:none;stroke-opacity:1"
         id="path4325" />
      <path
         d="m 922.146,24.162719 h -8.64 l -9.984,8.832 c -10.752,-7.296 -21.12,-10.368 -34.56,-10.368 -29.568,0 -49.728,17.28 -49.728,42.816 0,23.424 17.28,40.128001 47.424,45.696001 l 11.904,2.304 c 12.288,2.304 16.128,3.264 20.736,5.76 5.376,2.88 8.448,8.64 8.448,15.36 0,13.44 -10.944,22.464 -27.648,22.464 -21.696,0 -40.704,-17.088 -51.264,-45.888 h -9.792 l 1.152,54.336 h 8.64 l 11.904,-11.328 c 11.712,8.832 24,12.864 39.36,12.864 29.952,0 50.688,-18.816 50.688,-45.696 0,-24.384001 -14.4,-38.016001 -47.616,-45.312001 l -9.216,-2.112 c -14.784,-2.88 -14.784,-2.88 -19.584,-4.608 -8.64,-3.072 -13.056,-8.64 -13.056,-16.512 0,-11.712 10.752,-20.16 25.92,-20.16 19.968,0 35.904,14.016 47.232,41.28 h 10.176 z"
         style="font-style:normal;font-variant:normal;font-weight:bold;font-stretch:normal;font-size:192px;font-family:'Century Schoolbook L';-inkscape-font-specification:'Century Schoolbook L Bold';fill:#ff6600;stroke:#803e80;stroke-width:17.70386314;stroke-miterlimit:4;stroke-dasharray:none;stroke-opacity:1"
         id="path4327" />
      <path
         d="m 1017.564,22.626719 c -18.624,0 -34.368,5.376 -46.848,16.32 -16.128,13.824 -25.728,35.52 -25.728,57.984 0,40.704001 29.952,70.080001 71.616,70.080001 19.584,0 34.752,-4.8 47.616,-14.976 16.512,-13.248 25.728,-32.832 25.728,-55.296001 0,-22.272 -9.792,-44.16 -25.728,-57.792 -12.864,-11.136 -27.84,-16.32 -46.656,-16.32 z m 0.192,9.984 c 10.368,0 18.432,4.992 24,14.784 6.336,11.52 9.792,28.8 9.792,49.536 0,38.976001 -11.904,60.096001 -33.792,60.096001 -11.136,0 -19.2,-4.8 -24.576,-14.784 -6.336,-11.904 -9.792,-28.8 -9.792,-48.960001 0,-20.736 3.264,-36.096 9.792,-47.04 5.568,-9.408 13.248,-13.632 24.576,-13.632 z"
         style="font-style:normal;font-variant:normal;font-weight:bold;font-stretch:normal;font-size:192px;font-family:'Century Schoolbook L';-inkscape-font-specification:'Century Schoolbook L Bold';fill:#ff6600;stroke:#803e80;stroke-width:17.70386314;stroke-miterlimit:4;stroke-dasharray:none;stroke-opacity:1"
         id="path4329" />
      <path
         d="m 1222.041,112.48272 c -3.84,13.248 -7.296,20.544 -12.48,26.88 -7.872,9.408 -18.816,14.4 -32.448,14.4 h -4.032 c -9.408,0 -11.904,-0.384 -14.208,-2.688 -2.496,-2.304 -3.072,-4.416 -3.072,-10.752 V 53.154719 c 0,-12.096 0,-12.864 1.344,-14.4 1.728,-2.112 5.76,-2.88 15.936,-2.88 h 4.224 v -10.368 h -76.032 v 10.368 h 2.88 c 9.984,0 14.016,0.768 15.744,2.88 1.344,1.536 1.344,2.304 1.344,14.4 v 83.136001 c 0,12.288 0,13.056 -1.344,14.592 -1.728,2.112 -5.76,2.88 -15.744,2.88 h -2.88 v 10.368 h 128.64 l 2.304,-51.648 z"
         style="font-style:normal;font-variant:normal;font-weight:bold;font-stretch:normal;font-size:192px;font-family:'Century Schoolbook L';-inkscape-font-specification:'Century Schoolbook L Bold';fill:#ff6600;stroke:#803e80;stroke-width:17.70386314;stroke-miterlimit:4;stroke-dasharray:none;stroke-opacity:1"
         id="path4331" />
      <path
         d="m 1293.783,53.154719 c 0,-12.096 0,-12.864 1.344,-14.4 1.728,-2.112 5.952,-2.88 15.936,-2.88 h 2.88 v -10.368 h -74.688 v 10.368 h 2.88 c 9.984,0 14.016,0.768 15.744,2.88 1.344,1.536 1.344,2.304 1.344,14.4 v 60.864001 c 0,16.128 1.344,24.192 4.992,30.912 7.872,14.4 26.496,22.08 53.568,22.08 24.576,0 39.36,-6.528 48.768,-21.312 5.376,-8.64 6.912,-17.28 6.912,-39.936 V 67.170719 c 0,-16.896 0.96,-21.888 4.992,-26.112 3.072,-3.264 8.448,-4.992 16.128,-5.184 v -10.368 h -54.72 v 10.368 c 7.488,0.192 12.672,1.92 15.744,5.184 4.032,4.224 4.992,9.024 4.992,26.112 v 38.592001 c 0,15.744 -0.768,23.232 -3.264,28.608 -5.568,12.096 -16.704,18.24 -32.64,18.24 -10.944,0 -19.2,-3.264 -24.576,-9.408 -4.224,-5.184 -6.336,-14.592 -6.336,-28.608 z"
         style="font-style:normal;font-variant:normal;font-weight:bold;font-stretch:normal;font-size:192px;font-family:'Century Schoolbook L';-inkscape-font-specification:'Century Schoolbook L Bold';fill:#ff6600;stroke:#803e80;stroke-width:17.70386314;stroke-miterlimit:4;stroke-dasharray:none;stroke-opacity:1"
         id="path4333" />
      <path
         d="M 1529.364,25.506719 H 1402.26 l -2.88,52.032 h 10.176 c 2.496,-14.208 5.184,-21.696 9.792,-28.416 6.144,-9.216 13.44,-13.632 22.272,-13.632 5.76,0 6.912,1.344 6.912,7.872 v 93.120001 c 0,12.096 0,12.864 -1.344,14.4 -1.728,2.112 -5.76,2.88 -15.936,2.88 h -4.224 v 10.368 h 77.568 v -10.368 h -4.224 c -10.176,0 -14.208,-0.768 -15.936,-2.88 -1.344,-1.536 -1.344,-2.304 -1.344,-14.4 V 43.362719 c 0,-6.528 1.152,-7.872 6.912,-7.872 8.256,0 14.592,3.456 20.736,11.328 5.376,7.104 8.448,15.168 11.328,30.72 h 10.176 z"
         style="font-style:normal;font-variant:normal;font-weight:bold;font-stretch:normal;font-size:192px;font-family:'Century Schoolbook L';-inkscape-font-specification:'Century Schoolbook L Bold';fill:#ff6600;stroke:#803e80;stroke-width:17.70386314;stroke-miterlimit:4;stroke-dasharray:none;stroke-opacity:1"
         id="path4335" />
      <path
         d="m 1667.154,25.506719 h -128.832 v 10.368 h 2.88 c 9.984,0 14.016,0.768 15.744,2.88 1.344,1.536 1.344,2.304 1.344,14.4 v 83.328001 c 0,12.096 0,12.864 -1.344,14.4 -1.728,2.112 -5.76,2.88 -15.744,2.88 h -2.88 v 10.368 h 130.368 l 2.304,-51.648 h -10.176 c -8.064,28.8 -21.696,41.28 -44.928,41.28 h -5.76 c -9.408,0 -11.904,-0.384 -14.208,-2.688 -2.496,-2.304 -3.072,-4.416 -3.072,-10.752 V 97.698719 h 3.264 c 14.976,0 24.384,9.600001 26.496,27.264001 h 10.368 V 59.874719 h -10.368 c -2.112,17.664 -11.52,27.264 -26.496,27.264 h -3.264 v -34.752 c 0,-7.872 0.384,-9.984 1.92,-12.288 2.112,-2.88 6.72,-4.224 14.592,-4.224 h 5.376 c 14.208,0 25.92,5.184 32.448,14.208 4.032,5.76 8.256,15.36 11.136,25.344 h 9.984 z"
         style="font-style:normal;font-variant:normal;font-weight:bold;font-stretch:normal;font-size:192px;font-family:'Century Schoolbook L';-inkscape-font-specification:'Century Schoolbook L Bold';fill:#ff6600;stroke:#803e80;stroke-width:17.70386314;stroke-miterlimit:4;stroke-dasharray:none;stroke-opacity:1"
         id="path4337" />
      <path
         d="m 1857.978,25.506719 h -110.016 l -2.304,48.384 h 9.792 c 3.264,-10.368 6.144,-16.512 10.368,-22.272 8.448,-11.904 17.472,-15.552 37.824,-15.552 h 14.208 l -76.992,116.928001 v 11.136 h 114.048 l 3.072,-52.992 h -10.176 c -3.456,18.432 -12.48,32.448 -24.768,38.592 -5.952,3.072 -11.328,3.84 -24.96,3.84 h -17.088 l 76.992,-117.312001 z"
         style="font-style:normal;font-variant:normal;font-weight:bold;font-stretch:normal;font-size:192px;font-family:'Century Schoolbook L';-inkscape-font-specification:'Century Schoolbook L Bold';fill:#ff6600;stroke:#803e80;stroke-width:17.70386314;stroke-miterlimit:4;stroke-dasharray:none;stroke-opacity:1"
         id="path4339" />
      <path
         d="m 1996.404,25.506719 h -128.832 v 10.368 h 2.88 c 9.984,0 14.016,0.768 15.744,2.88 1.344,1.536 1.344,2.304 1.344,14.4 v 83.328001 c 0,12.096 0,12.864 -1.344,14.4 -1.728,2.112 -5.76,2.88 -15.744,2.88 h -2.88 v 10.368 h 130.368 l 2.304,-51.648 h -10.176 c -8.064,28.8 -21.696,41.28 -44.928,41.28 h -5.76 c -9.408,0 -11.904,-0.384 -14.208,-2.688 -2.496,-2.304 -3.072,-4.416 -3.072,-10.752 V 97.698719 h 3.264 c 14.976,0 24.384,9.600001 26.496,27.264001 h 10.368 V 59.874719 h -10.368 c -2.112,17.664 -11.52,27.264 -26.496,27.264 h -3.264 v -34.752 c 0,-7.872 0.384,-9.984 1.92,-12.288 2.112,-2.88 6.72,-4.224 14.592,-4.224 h 5.376 c 14.208,0 25.92,5.184 32.448,14.208 4.032,5.76 8.256,15.36 11.136,25.344 h 9.984 z"
         style="font-style:normal;font-variant:normal;font-weight:bold;font-stretch:normal;font-size:192px;font-family:'Century Schoolbook L';-inkscape-font-specification:'Century Schoolbook L Bold';fill:#ff6600;stroke:#803e80;stroke-width:17.70386314;stroke-miterlimit:4;stroke-dasharray:none;stroke-opacity:1"
         id="path4341" />
      <path
         d="m 2068.743,97.506719 h 10.752 c 8.256,0 13.632,1.92 17.088,5.760001 3.072,3.648 3.84,5.952 4.608,16.896 1.152,12.864 2.112,20.928 2.688,24 3.264,14.976 14.016,22.848 30.72,22.848 20.736,0 32.64,-11.712 32.64,-32.064 v -2.304 h -10.368 c -0.192,12.096 -3.072,18.24 -8.832,18.24 -2.112,0 -4.416,-1.152 -5.568,-2.88 -1.152,-1.536 -1.344,-2.88 -2.304,-9.024 0,-0.768 -0.384,-2.688 -0.768,-5.376 l -1.344,-7.296 c -2.88,-17.28 -10.176,-25.92 -26.88,-31.488001 10.176,-1.92 15.168,-3.264 19.968,-5.568 11.712,-5.952 18.432,-16.512 18.432,-28.992 0,-11.52 -5.568,-21.312 -15.552,-27.84 -7.296,-4.608 -20.16,-6.912 -37.824,-6.912 h -81.984 v 10.368 h 2.88 c 9.984,0 14.016,0.768 15.744,2.688 1.344,1.728 1.344,2.304 1.344,14.592 v 83.136001 c 0,12.288 0,12.864 -1.344,14.592 -1.728,1.92 -5.76,2.688 -15.744,2.688 h -2.88 v 10.368 h 76.8 v -10.368 h -4.992 c -9.984,0 -14.208,-0.768 -15.936,-2.688 -1.344,-1.728 -1.344,-2.304 -1.344,-14.592 z m 0,-10.56 v -38.784 c 0,-10.944 1.344,-12.288 13.632,-12.288 h 4.608 c 17.856,0 25.92,7.872 25.92,25.344 0,19.584 -8.064,25.728 -33.6,25.728 z"
         style="font-style:normal;font-variant:normal;font-weight:bold;font-stretch:normal;font-size:192px;font-family:'Century Schoolbook L';-inkscape-font-specification:'Century Schoolbook L Bold';fill:#ff6600;stroke:#803e80;stroke-width:17.70386314;stroke-miterlimit:4;stroke-dasharray:none;stroke-opacity:1"
         id="path4343" />
      <path
         d="m 2246.814,22.626719 c -18.624,0 -34.368,5.376 -46.848,16.32 -16.128,13.824 -25.728,35.52 -25.728,57.984 0,40.704001 29.952,70.080001 71.616,70.080001 19.584,0 34.752,-4.8 47.616,-14.976 16.512,-13.248 25.728,-32.832 25.728,-55.296001 0,-22.272 -9.792,-44.16 -25.728,-57.792 -12.864,-11.136 -27.84,-16.32 -46.656,-16.32 z m 0.192,9.984 c 10.368,0 18.432,4.992 24,14.784 6.336,11.52 9.792,28.8 9.792,49.536 0,38.976001 -11.904,60.096001 -33.792,60.096001 -11.136,0 -19.2,-4.8 -24.576,-14.784 -6.336,-11.904 -9.792,-28.8 -9.792,-48.960001 0,-20.736 3.264,-36.096 9.792,-47.04 5.568,-9.408 13.248,-13.632 24.576,-13.632 z"
         style="font-style:normal;font-variant:normal;font-weight:bold;font-stretch:normal;font-size:192px;font-family:'Century Schoolbook L';-inkscape-font-specification:'Century Schoolbook L Bold';fill:#ff6600;stroke:#803e80;stroke-width:17.70386314;stroke-miterlimit:4;stroke-dasharray:none;stroke-opacity:1"
         id="path4345" />
    </g>
    <g
       id="g4317"
       transform="translate(0,-52.191586)">
      <g
         aria-label="ANN"
         transform="matrix(1.2092858,0,0,1.2092858,-23.289231,40.390784)"
         style="font-style:normal;font-weight:normal;font-size:40px;line-height:1.25;font-family:sans-serif;letter-spacing:0px;word-spacing:0px;fill:#7f2aff;fill-opacity:1;stroke:#803e80;stroke-width:17.70383453;stroke-miterlimit:4;stroke-dasharray:none;stroke-opacity:1"
         id="flowRoot4269">
        <path
           d="M 67.392,22.626719 23.808,124.38672 c -8.832,20.736 -15.936,28.224 -27.264,29.376 v 10.368 h 55.488 v -10.368 c -13.824,-0.768 -19.2,-4.416 -19.2,-13.248 0,-3.264 0.576,-5.376 3.072,-10.944 l 3.072,-7.296 h 47.808 l 7.296,18.816 c 1.536,3.456 2.304,6.336 2.304,7.872 0,3.456 -2.496,4.608 -11.136,4.608 l -3.264,0.192 v 10.368 h 67.392 v -10.368 c -10.944,-0.384 -14.016,-2.304 -18.048,-12.096 L 81.984,22.626719 Z m -4.032,40.896 18.624,45.888001 H 43.968 Z"
           style="font-style:normal;font-variant:normal;font-weight:bold;font-stretch:normal;font-size:192px;font-family:'Century Schoolbook L';-inkscape-font-specification:'Century Schoolbook L Bold';fill:#7f2aff;stroke:#803e80;stroke-width:17.70383453;stroke-miterlimit:4;stroke-dasharray:none;stroke-opacity:1"
           id="path4348" />
        <path
           d="m 197.715,25.506719 h -48.384 v 10.56 c 8.64,0.192 15.552,3.84 20.352,10.752 v 75.648001 c 0,16.896 -0.96,21.696 -4.992,25.92 -3.072,3.264 -7.488,4.8 -15.744,5.184 v 10.368 h 54.72 v -10.368 c -8.256,-0.384 -13.056,-1.92 -16.128,-5.184 -4.032,-4.224 -4.992,-9.024 -4.992,-25.92 V 59.298719 l 89.28,106.176001 h 12.864 V 67.170719 c 0,-17.088 0.96,-21.888 4.992,-26.112 3.072,-3.264 8.448,-4.992 16.128,-5.184 v -10.368 h -54.72 v 10.368 c 7.488,0.192 12.672,1.92 15.744,5.184 4.032,4.224 4.992,9.216 4.992,26.112 v 45.120001 z"
           style="letter-spacing:-3.87999463px;fill:#7f2aff;stroke:#803e80;stroke-width:17.70383453;stroke-miterlimit:4;stroke-dasharray:none;stroke-opacity:1"
           id="path4350" />
        <path
           d="m 353.96,25.506719 h -48.384 v 10.56 c 8.64,0.192 15.552,3.84 20.352,10.752 v 75.648001 c 0,16.896 -0.96,21.696 -4.992,25.92 -3.072,3.264 -7.488,4.8 -15.744,5.184 v 10.368 h 54.72 v -10.368 c -8.256,-0.384 -13.056,-1.92 -16.128,-5.184 -4.032,-4.224 -4.992,-9.024 -4.992,-25.92 V 59.298719 l 89.28,106.176001 h 12.864 V 67.170719 c 0,-17.088 0.96,-21.888 4.992,-26.112 3.072,-3.264 8.448,-4.992 16.128,-5.184 v -10.368 h -54.72 v 10.368 c 7.488,0.192 12.672,1.92 15.744,5.184 4.032,4.224 4.992,9.216 4.992,26.112 v 45.120001 z"
           style="letter-spacing:-3.87999463px;fill:#7f2aff;stroke:#803e80;stroke-width:17.70383453;stroke-miterlimit:4;stroke-dasharray:none;stroke-opacity:1"
           id="path4352" />
      </g>
      <g
         aria-label="ANN"
         transform="matrix(1.2092858,0,0,1.2092858,-23.289231,40.390784)"
         style="font-style:normal;font-weight:normal;font-size:40px;line-height:1.25;font-family:sans-serif;letter-spacing:0px;word-spacing:0px;fill:#ff6600;fill-opacity:1;stroke:none;stroke-width:17.70383453;stroke-miterlimit:4;stroke-dasharray:none;stroke-opacity:1"
         id="flowRoot4295">
        <path
           d="M 67.392,22.626719 23.808,124.38672 c -8.832,20.736 -15.936,28.224 -27.264,29.376 v 10.368 h 55.488 v -10.368 c -13.824,-0.768 -19.2,-4.416 -19.2,-13.248 0,-3.264 0.576,-5.376 3.072,-10.944 l 3.072,-7.296 h 47.808 l 7.296,18.816 c 1.536,3.456 2.304,6.336 2.304,7.872 0,3.456 -2.496,4.608 -11.136,4.608 l -3.264,0.192 v 10.368 h 67.392 v -10.368 c -10.944,-0.384 -14.016,-2.304 -18.048,-12.096 L 81.984,22.626719 Z m -4.032,40.896 18.624,45.888001 H 43.968 Z"
           style="font-style:normal;font-variant:normal;font-weight:bold;font-stretch:normal;font-size:192px;font-family:'Century Schoolbook L';-inkscape-font-specification:'Century Schoolbook L Bold';fill:#ff6600;stroke:none;stroke-width:17.70383453;stroke-miterlimit:4;stroke-dasharray:none;stroke-opacity:1"
           id="path4355" />
        <path
           d="m 197.715,25.506719 h -48.384 v 10.56 c 8.64,0.192 15.552,3.84 20.352,10.752 v 75.648001 c 0,16.896 -0.96,21.696 -4.992,25.92 -3.072,3.264 -7.488,4.8 -15.744,5.184 v 10.368 h 54.72 v -10.368 c -8.256,-0.384 -13.056,-1.92 -16.128,-5.184 -4.032,-4.224 -4.992,-9.024 -4.992,-25.92 V 59.298719 l 89.28,106.176001 h 12.864 V 67.170719 c 0,-17.088 0.96,-21.888 4.992,-26.112 3.072,-3.264 8.448,-4.992 16.128,-5.184 v -10.368 h -54.72 v 10.368 c 7.488,0.192 12.672,1.92 15.744,5.184 4.032,4.224 4.992,9.216 4.992,26.112 v 45.120001 z"
           style="letter-spacing:-3.87999463px;fill:#ff6600;stroke:none;stroke-width:17.70383453;stroke-miterlimit:4;stroke-dasharray:none;stroke-opacity:1"
           id="path4357" />
        <path
           d="m 353.96,25.506719 h -48.384 v 10.56 c 8.64,0.192 15.552,3.84 20.352,10.752 v 75.648001 c 0,16.896 -0.96,21.696 -4.992,25.92 -3.072,3.264 -7.488,4.8 -15.744,5.184 v 10.368 h 54.72 v -10.368 c -8.256,-0.384 -13.056,-1.92 -16.128,-5.184 -4.032,-4.224 -4.992,-9.024 -4.992,-25.92 V 59.298719 l 89.28,106.176001 h 12.864 V 67.170719 c 0,-17.088 0.96,-21.888 4.992,-26.112 3.072,-3.264 8.448,-4.992 16.128,-5.184 v -10.368 h -54.72 v 10.368 c 7.488,0.192 12.672,1.92 15.744,5.184 4.032,4.224 4.992,9.216 4.992,26.112 v 45.120001 z"
           style="letter-spacing:-3.87999463px;fill:#ff6600;stroke:none;stroke-width:17.70383453;stroke-miterlimit:4;stroke-dasharray:none;stroke-opacity:1"
           id="path4359" />
      </g>
    </g>
    <g
       aria-label="COMPUTE THIS"
       transform="matrix(0.30383656,0,0,0.30383656,7.791958,206.98354)"
       style="font-style:normal;font-weight:normal;font-size:40px;line-height:1.25;font-family:sans-serif;letter-spacing:0px;word-spacing:0px;fill:#ff6600;fill-opacity:1;stroke:none;stroke-width:17.70383453;stroke-miterlimit:4;stroke-dasharray:none;stroke-opacity:1"
       id="flowRoot4305">
      <path
         d="m 134.016,23.394719 h -8.256 l -10.368,9.408 c -12.672,-7.68 -21.504,-10.176 -35.136,-10.176 -42.24,0 -72.576,30.912 -72.576,73.92 0,19.968001 5.952,35.712001 18.24,49.344001 13.248,14.592 29.568,21.12 52.032,21.12 33.984,0 53.568,-16.512 60.864,-50.88 l -11.904,-2.88 c -5.184,26.688 -20.544,41.856 -42.624,41.856 -26.112,0 -38.4,-19.776 -38.4,-62.016001 0,-39.744 12.288,-60.48 35.904,-60.48 21.312,0 35.328,14.784 43.968,46.848 l 10.176,-1.152 z"
         style="letter-spacing:-3.87999463px;fill:#ff6600;stroke:none;stroke-width:17.70383453;stroke-miterlimit:4;stroke-dasharray:none;stroke-opacity:1"
         id="path4362" />
      <path
         d="m 225.43401,22.626719 c -18.624,0 -34.368,5.376 -46.848,16.32 -16.128,13.824 -25.728,35.52 -25.728,57.984 0,40.704001 29.952,70.080001 71.616,70.080001 19.584,0 34.752,-4.8 47.616,-14.976 16.512,-13.248 25.728,-32.832 25.728,-55.296001 0,-22.272 -9.792,-44.16 -25.728,-57.792 -12.864,-11.136 -27.84,-16.32 -46.656,-16.32 z m 0.192,9.984 c 10.368,0 18.432,4.992 24,14.784 6.336,11.52 9.792,28.8 9.792,49.536 0,38.976001 -11.904,60.096001 -33.792,60.096001 -11.136,0 -19.2,-4.8 -24.576,-14.784 -6.336,-11.904 -9.792,-28.8 -9.792,-48.960001 0,-20.736 3.264,-36.096 9.792,-47.04 5.568,-9.408 13.248,-13.632 24.576,-13.632 z"
         style="letter-spacing:-3.87999463px;fill:#ff6600;stroke:none;stroke-width:17.70383453;stroke-miterlimit:4;stroke-dasharray:none;stroke-opacity:1"
         id="path4364" />
      <path
         d="m 366.51102,25.506719 h -61.824 v 10.368 h 2.112 c 10.176,0 14.208,0.768 15.936,2.88 1.344,1.536 1.344,2.304 1.344,14.4 v 69.312001 c 0,16.896 -0.96,21.888 -4.992,26.112 -3.072,3.264 -8.256,4.992 -15.744,5.184 v 10.368 h 54.72 v -10.368 c -7.68,-0.192 -13.056,-1.92 -16.128,-5.184 -4.032,-4.224 -4.992,-9.024 -4.992,-26.112 V 42.594719 l 43.584,121.536001 h 9.984 l 42.432,-123.456001 v 95.808001 c 0,12.096 0,12.864 -1.344,14.4 -1.728,2.112 -5.76,2.88 -15.936,2.88 h -2.112 v 10.368 h 73.344 v -10.368 h -2.112 c -10.176,0 -14.208,-0.768 -15.936,-2.88 -1.344,-1.536 -1.344,-2.496 -1.344,-14.4 V 53.154719 c 0,-11.904 0,-12.864 1.344,-14.4 1.728,-2.112 5.76,-2.88 15.936,-2.88 h 2.112 v -10.368 h -62.592 l -28.032,82.560001 z"
         style="letter-spacing:-3.87999463px;fill:#ff6600;stroke:none;stroke-width:17.70383453;stroke-miterlimit:4;stroke-dasharray:none;stroke-opacity:1"
         id="path4366" />
      <path
         d="m 545.12102,104.61072 h 21.504 c 40.128,0 60.48,-13.632001 60.48,-40.512001 0,-14.4 -7.104,-26.112 -19.392,-31.872 -10.368,-4.8 -21.696,-6.72 -40.896,-6.72 h -76.224 v 10.56 h 2.88 c 9.984,0 14.016,0.768 15.744,2.688 1.344,1.728 1.344,2.304 1.344,14.592 v 83.136001 c 0,12.288 0,12.864 -1.344,14.592 -1.728,1.92 -5.76,2.688 -15.744,2.688 h -2.88 v 10.368 h 76.032 v -10.368 h -4.224 c -10.176,0 -14.208,-0.768 -15.936,-2.688 -1.344,-1.728 -1.344,-2.304 -1.344,-14.592 z m 0,-10.560001 v -46.464 c 0,-9.408 1.92,-11.52 10.56,-11.52 h 7.68 c 18.24,0 26.688,8.64 26.688,27.84 0,22.08 -9.024,30.144 -33.792,30.144 z"
         style="letter-spacing:-3.87999463px;fill:#ff6600;stroke:none;stroke-width:17.70383453;stroke-miterlimit:4;stroke-dasharray:none;stroke-opacity:1"
         id="path4368" />
      <path
         d="m 685.38804,53.154719 c 0,-12.096 0,-12.864 1.344,-14.4 1.728,-2.112 5.952,-2.88 15.936,-2.88 h 2.88 v -10.368 h -74.688 v 10.368 h 2.88 c 9.984,0 14.016,0.768 15.744,2.88 1.344,1.536 1.344,2.304 1.344,14.4 v 60.864001 c 0,16.128 1.344,24.192 4.992,30.912 7.872,14.4 26.496,22.08 53.568,22.08 24.576,0 39.36,-6.528 48.768,-21.312 5.376,-8.64 6.912,-17.28 6.912,-39.936 V 67.170719 c 0,-16.896 0.96,-21.888 4.992,-26.112 3.072,-3.264 8.448,-4.992 16.128,-5.184 v -10.368 h -54.72 v 10.368 c 7.488,0.192 12.672,1.92 15.744,5.184 4.032,4.224 4.992,9.024 4.992,26.112 v 38.592001 c 0,15.744 -0.768,23.232 -3.264,28.608 -5.568,12.096 -16.704,18.24 -32.64,18.24 -10.944,0 -19.2,-3.264 -24.576,-9.408 -4.224,-5.184 -6.336,-14.592 -6.336,-28.608 z"
         style="letter-spacing:-3.87999463px;fill:#ff6600;stroke:none;stroke-width:17.70383453;stroke-miterlimit:4;stroke-dasharray:none;stroke-opacity:1"
         id="path4370" />
      <path
         d="m 917.08904,25.506719 h -127.104 l -2.88,52.032 h 10.176 c 2.496,-14.208 5.184,-21.696 9.792,-28.416 6.144,-9.216 13.44,-13.632 22.272,-13.632 5.76,0 6.912,1.344 6.912,7.872 v 93.120001 c 0,12.096 0,12.864 -1.344,14.4 -1.728,2.112 -5.76,2.88 -15.936,2.88 h -4.224 v 10.368 h 77.568 v -10.368 h -4.224 c -10.176,0 -14.208,-0.768 -15.936,-2.88 -1.344,-1.536 -1.344,-2.304 -1.344,-14.4 V 43.362719 c 0,-6.528 1.152,-7.872 6.912,-7.872 8.256,0 14.592,3.456 20.736,11.328 5.376,7.104 8.448,15.168 11.328,30.72 h 10.176 z"
         style="letter-spacing:-3.87999463px;fill:#ff6600;stroke:none;stroke-width:17.70383453;stroke-miterlimit:4;stroke-dasharray:none;stroke-opacity:1"
         id="path4372" />
      <path
         d="M 1050.999,25.506719 H 922.16703 v 10.368 h 2.88 c 9.984,0 14.016,0.768 15.744,2.88 1.344,1.536 1.344,2.304 1.344,14.4 v 83.328001 c 0,12.096 0,12.864 -1.344,14.4 -1.728,2.112 -5.76,2.88 -15.744,2.88 h -2.88 v 10.368 H 1052.535 l 2.304,-51.648 h -10.176 c -8.064,28.8 -21.696,41.28 -44.92797,41.28 h -5.76 c -9.408,0 -11.904,-0.384 -14.208,-2.688 -2.496,-2.304 -3.072,-4.416 -3.072,-10.752 V 97.698719 h 3.264 c 14.976,0 24.38397,9.600001 26.49597,27.264001 h 10.368 V 59.874719 h -10.368 c -2.112,17.664 -11.51997,27.264 -26.49597,27.264 h -3.264 v -34.752 c 0,-7.872 0.384,-9.984 1.92,-12.288 2.112,-2.88 6.72,-4.224 14.592,-4.224 h 5.376 c 14.20797,0 25.91997,5.184 32.44797,14.208 4.032,5.76 8.256,15.36 11.136,25.344 h 9.984 z"
         style="letter-spacing:-3.87999463px;fill:#ff6600;stroke:none;stroke-width:17.70383453;stroke-miterlimit:4;stroke-dasharray:none;stroke-opacity:1"
         id="path4374" />
      <path
         d="m 1245.1991,25.506719 h -127.104 l -2.88,52.032 h 10.176 c 2.496,-14.208 5.184,-21.696 9.792,-28.416 6.144,-9.216 13.44,-13.632 22.272,-13.632 5.76,0 6.912,1.344 6.912,7.872 v 93.120001 c 0,12.096 0,12.864 -1.344,14.4 -1.728,2.112 -5.76,2.88 -15.936,2.88 h -4.224 v 10.368 h 77.568 v -10.368 h -4.224 c -10.176,0 -14.208,-0.768 -15.936,-2.88 -1.344,-1.536 -1.344,-2.304 -1.344,-14.4 V 43.362719 c 0,-6.528 1.152,-7.872 6.912,-7.872 8.256,0 14.592,3.456 20.736,11.328 5.376,7.104 8.448,15.168 11.328,30.72 h 10.176 z"
         style="letter-spacing:-3.87999463px;fill:#ff6600;stroke:none;stroke-width:17.70383453;stroke-miterlimit:4;stroke-dasharray:none;stroke-opacity:1"
         id="path4376" />
      <path
         d="m 1355.6851,99.042719 v 37.440001 c 0,12.096 0,12.864 -1.344,14.4 -1.728,2.112 -5.76,2.88 -15.744,2.88 h -2.88 v 10.368 h 74.688 v -10.368 h -2.88 c -9.984,0 -14.208,-0.768 -15.936,-2.88 -1.344,-1.536 -1.344,-2.112 -1.344,-14.4 V 53.346719 c 0,-12.288 0,-13.056 1.344,-14.592 1.728,-2.112 5.952,-2.88 15.936,-2.88 h 2.88 v -10.368 h -74.688 v 10.368 h 2.88 c 9.984,0 14.016,0.768 15.744,2.88 1.344,1.536 1.344,2.496 1.344,14.592 v 34.176 h -50.112 v -34.176 c 0,-12.288 0,-13.056 1.344,-14.592 1.728,-2.112 5.952,-2.88 15.936,-2.88 h 2.88 v -10.368 h -74.688 v 10.368 h 2.88 c 9.984,0 14.016,0.768 15.744,2.88 1.344,1.536 1.344,2.304 1.344,14.592 v 83.136001 c 0,12.096 0,12.864 -1.344,14.4 -1.728,2.112 -5.76,2.88 -15.744,2.88 h -2.88 v 10.368 h 74.688 v -10.368 h -2.88 c -9.984,0 -14.208,-0.768 -15.936,-2.88 -1.344,-1.536 -1.344,-2.112 -1.344,-14.4 V 99.042719 Z"
         style="letter-spacing:-3.87999463px;fill:#ff6600;stroke:none;stroke-width:17.70383453;stroke-miterlimit:4;stroke-dasharray:none;stroke-opacity:1"
         id="path4378" />
      <path
         d="m 1435.5441,136.48272 c 0,12.096 0,12.864 -1.344,14.4 -1.728,2.112 -5.76,2.88 -15.744,2.88 h -2.88 v 10.368 h 74.688 v -10.368 h -2.88 c -9.984,0 -14.208,-0.768 -15.936,-2.88 -1.344,-1.536 -1.344,-2.112 -1.344,-14.4 V 53.154719 c 0,-12.288 0,-12.864 1.344,-14.4 1.728,-2.112 5.952,-2.88 15.936,-2.88 h 2.88 v -10.368 h -74.688 v 10.368 h 2.88 c 9.984,0 14.016,0.768 15.744,2.88 1.344,1.536 1.344,2.304 1.344,14.4 z"
         style="letter-spacing:-3.87999463px;fill:#ff6600;stroke:none;stroke-width:17.70383453;stroke-miterlimit:4;stroke-dasharray:none;stroke-opacity:1"
         id="path4380" />
      <path
         d="m 1604.3411,24.162719 h -8.64 l -9.984,8.832 c -10.752,-7.296 -21.12,-10.368 -34.56,-10.368 -29.568,0 -49.728,17.28 -49.728,42.816 0,23.424 17.28,40.128001 47.424,45.696001 l 11.904,2.304 c 12.288,2.304 16.128,3.264 20.736,5.76 5.376,2.88 8.448,8.64 8.448,15.36 0,13.44 -10.944,22.464 -27.648,22.464 -21.696,0 -40.704,-17.088 -51.264,-45.888 h -9.792 l 1.152,54.336 h 8.64 l 11.904,-11.328 c 11.712,8.832 24,12.864 39.36,12.864 29.952,0 50.688,-18.816 50.688,-45.696 0,-24.384001 -14.4,-38.016001 -47.616,-45.312001 l -9.216,-2.112 c -14.784,-2.88 -14.784,-2.88 -19.584,-4.608 -8.64,-3.072 -13.056,-8.64 -13.056,-16.512 0,-11.712 10.752,-20.16 25.92,-20.16 19.968,0 35.904,14.016 47.232,41.28 h 10.176 z"
         style="letter-spacing:-3.87999463px;fill:#ff6600;stroke:none;stroke-width:17.70383453;stroke-miterlimit:4;stroke-dasharray:none;stroke-opacity:1"
         id="path4382" />
    </g>
    <g
       aria-label="YOU ABSOLUTE ZERO"
       transform="matrix(0.21057552,0,0,0.21057552,10.059421,261.83161)"
       style="font-style:normal;font-weight:normal;font-size:40px;line-height:1.25;font-family:sans-serif;letter-spacing:0px;word-spacing:0px;fill:#ff6600;fill-opacity:1;stroke:none;stroke-width:17.70383453;stroke-miterlimit:4;stroke-dasharray:none;stroke-opacity:1"
       id="flowRoot4327">
      <path
         d="m 80.64,88.098719 -25.344,-42.048 c -1.92,-3.072 -2.304,-4.224 -2.304,-5.952 0,-2.88 3.456,-4.224 10.752,-4.224 h 3.072 v -10.368 h -69.12 v 10.368 c 8.64,0 11.52,1.344 15.168,6.912 l 39.168,62.784001 v 30.912 c 0,11.904 0,12.864 -1.344,14.4 -1.728,2.112 -5.76,2.88 -15.936,2.88 h -4.224 v 10.368 h 77.568 v -10.368 h -4.224 c -10.176,0 -14.208,-0.768 -15.936,-2.88 -1.344,-1.536 -1.344,-2.304 -1.344,-14.4 v -33.408 l 28.8,-49.344001 c 7.296,-11.904 14.976,-17.088 25.728,-17.856 v -10.368 H 84.48 v 10.368 h 4.032 c 8.448,0 14.016,3.648 14.016,9.216 0,2.304 -1.152,5.76 -2.688,8.832 z"
         style="font-style:normal;font-variant:normal;font-weight:bold;font-stretch:normal;font-size:192px;font-family:'Century Schoolbook L';-inkscape-font-specification:'Century Schoolbook L Bold';fill:#ff6600;stroke:none;stroke-width:17.70383453;stroke-miterlimit:4;stroke-dasharray:none;stroke-opacity:1"
         id="path4385" />
      <path
         d="m 218.814,22.626719 c -18.624,0 -34.368,5.376 -46.848,16.32 -16.128,13.824 -25.728,35.52 -25.728,57.984 0,40.704001 29.952,70.080001 71.616,70.080001 19.584,0 34.752,-4.8 47.616,-14.976 16.512,-13.248 25.728,-32.832 25.728,-55.296001 0,-22.272 -9.792,-44.16 -25.728,-57.792 -12.864,-11.136 -27.84,-16.32 -46.656,-16.32 z m 0.192,9.984 c 10.368,0 18.432,4.992 24,14.784 6.336,11.52 9.792,28.8 9.792,49.536 0,38.976001 -11.904,60.096001 -33.792,60.096001 -11.136,0 -19.2,-4.8 -24.576,-14.784 -6.336,-11.904 -9.792,-28.8 -9.792,-48.960001 0,-20.736 3.264,-36.096 9.792,-47.04 5.568,-9.408 13.248,-13.632 24.576,-13.632 z"
         style="font-style:normal;font-variant:normal;font-weight:bold;font-stretch:normal;font-size:192px;font-family:'Century Schoolbook L';-inkscape-font-specification:'Century Schoolbook L Bold';fill:#ff6600;stroke:none;stroke-width:17.70383453;stroke-miterlimit:4;stroke-dasharray:none;stroke-opacity:1"
         id="path4387" />
      <path
         d="m 356.283,53.154719 c 0,-12.096 0,-12.864 1.344,-14.4 1.728,-2.112 5.952,-2.88 15.936,-2.88 h 2.88 v -10.368 h -74.688 v 10.368 h 2.88 c 9.984,0 14.016,0.768 15.744,2.88 1.344,1.536 1.344,2.304 1.344,14.4 v 60.864001 c 0,16.128 1.344,24.192 4.992,30.912 7.872,14.4 26.496,22.08 53.568,22.08 24.576,0 39.36,-6.528 48.768,-21.312 5.376,-8.64 6.912,-17.28 6.912,-39.936 V 67.170719 c 0,-16.896 0.96,-21.888 4.992,-26.112 3.072,-3.264 8.448,-4.992 16.128,-5.184 v -10.368 h -54.72 v 10.368 c 7.488,0.192 12.672,1.92 15.744,5.184 4.032,4.224 4.992,9.024 4.992,26.112 v 38.592001 c 0,15.744 -0.768,23.232 -3.264,28.608 -5.568,12.096 -16.704,18.24 -32.64,18.24 -10.944,0 -19.2,-3.264 -24.576,-9.408 -4.224,-5.184 -6.336,-14.592 -6.336,-28.608 z"
         style="font-style:normal;font-variant:normal;font-weight:bold;font-stretch:normal;font-size:192px;font-family:'Century Schoolbook L';-inkscape-font-specification:'Century Schoolbook L Bold';fill:#ff6600;stroke:none;stroke-width:17.70383453;stroke-miterlimit:4;stroke-dasharray:none;stroke-opacity:1"
         id="path4389" />
      <path
         d="M 581.517,22.626719 537.933,124.38672 c -8.832,20.736 -15.936,28.224 -27.264,29.376 v 10.368 h 55.488 v -10.368 c -13.824,-0.768 -19.2,-4.416 -19.2,-13.248 0,-3.264 0.576,-5.376 3.072,-10.944 l 3.072,-7.296 h 47.808 l 7.296,18.816 c 1.536,3.456 2.304,6.336 2.304,7.872 0,3.456 -2.496,4.608 -11.136,4.608 l -3.264,0.192 v 10.368 h 67.392 v -10.368 c -10.944,-0.384 -14.016,-2.304 -18.048,-12.096 L 596.109,22.626719 Z m -4.032,40.896 18.624,45.888001 h -38.016 z"
         style="font-style:normal;font-variant:normal;font-weight:bold;font-stretch:normal;font-size:192px;font-family:'Century Schoolbook L';-inkscape-font-specification:'Century Schoolbook L Bold';fill:#ff6600;stroke:none;stroke-width:17.70383453;stroke-miterlimit:4;stroke-dasharray:none;stroke-opacity:1"
         id="path4391" />
      <path
         d="m 663.264,25.506719 v 10.368 h 2.88 c 9.984,0 14.016,0.768 15.744,2.688 1.344,1.728 1.344,2.304 1.344,14.592 v 83.328001 c 0,12.096 0,12.864 -1.344,14.4 -1.728,2.112 -5.76,2.88 -15.744,2.88 h -2.88 v 10.368 h 77.76 c 19.968,0 30.144,-1.536 39.936,-5.76 12.288,-5.568 20.352,-17.664 20.352,-30.528 0,-13.44 -7.68,-24.384 -21.888,-30.720001 -6.528,-3.072 -12.288,-4.608 -22.272,-5.952 9.408,-1.536 14.784,-2.88 20.16,-5.376 11.52,-5.568 17.664,-14.784 17.664,-26.304 0,-10.944 -5.76,-21.12 -15.168,-26.304 -10.56,-6.144 -19.584,-7.68 -42.432,-7.68 z m 54.528,62.208 v -40.704 c 0,-5.568 0.384,-7.104 2.304,-8.64 1.92,-1.728 4.8,-2.496 8.448,-2.496 h 5.76 c 16.896,0 25.92,8.448 25.92,24.384 0,9.408 -3.264,16.896 -9.408,21.696 -5.184,4.224 -11.712,5.76 -23.616,5.76 z m 0,10.56 h 13.248 c 12.096,0 17.664,1.152 23.04,4.608001 6.528,4.416 10.56,12.864 10.56,22.848 0,9.216 -3.456,17.664 -9.024,22.272 -4.8,4.032 -11.136,5.76 -20.352,5.76 h -5.76 c -6.72,0 -9.984,-1.152 -11.136,-3.84 -0.576,-1.536 -0.576,-2.112 -0.576,-8.448 z"
         style="font-style:normal;font-variant:normal;font-weight:bold;font-stretch:normal;font-size:192px;font-family:'Century Schoolbook L';-inkscape-font-specification:'Century Schoolbook L Bold';fill:#ff6600;stroke:none;stroke-width:17.70383453;stroke-miterlimit:4;stroke-dasharray:none;stroke-opacity:1"
         id="path4393" />
      <path
         d="m 922.146,24.162719 h -8.64 l -9.984,8.832 c -10.752,-7.296 -21.12,-10.368 -34.56,-10.368 -29.568,0 -49.728,17.28 -49.728,42.816 0,23.424 17.28,40.128001 47.424,45.696001 l 11.904,2.304 c 12.288,2.304 16.128,3.264 20.736,5.76 5.376,2.88 8.448,8.64 8.448,15.36 0,13.44 -10.944,22.464 -27.648,22.464 -21.696,0 -40.704,-17.088 -51.264,-45.888 h -9.792 l 1.152,54.336 h 8.64 l 11.904,-11.328 c 11.712,8.832 24,12.864 39.36,12.864 29.952,0 50.688,-18.816 50.688,-45.696 0,-24.384001 -14.4,-38.016001 -47.616,-45.312001 l -9.216,-2.112 c -14.784,-2.88 -14.784,-2.88 -19.584,-4.608 -8.64,-3.072 -13.056,-8.64 -13.056,-16.512 0,-11.712 10.752,-20.16 25.92,-20.16 19.968,0 35.904,14.016 47.232,41.28 h 10.176 z"
         style="font-style:normal;font-variant:normal;font-weight:bold;font-stretch:normal;font-size:192px;font-family:'Century Schoolbook L';-inkscape-font-specification:'Century Schoolbook L Bold';fill:#ff6600;stroke:none;stroke-width:17.70383453;stroke-miterlimit:4;stroke-dasharray:none;stroke-opacity:1"
         id="path4395" />
      <path
         d="m 1017.564,22.626719 c -18.624,0 -34.368,5.376 -46.848,16.32 -16.128,13.824 -25.728,35.52 -25.728,57.984 0,40.704001 29.952,70.080001 71.616,70.080001 19.584,0 34.752,-4.8 47.616,-14.976 16.512,-13.248 25.728,-32.832 25.728,-55.296001 0,-22.272 -9.792,-44.16 -25.728,-57.792 -12.864,-11.136 -27.84,-16.32 -46.656,-16.32 z m 0.192,9.984 c 10.368,0 18.432,4.992 24,14.784 6.336,11.52 9.792,28.8 9.792,49.536 0,38.976001 -11.904,60.096001 -33.792,60.096001 -11.136,0 -19.2,-4.8 -24.576,-14.784 -6.336,-11.904 -9.792,-28.8 -9.792,-48.960001 0,-20.736 3.264,-36.096 9.792,-47.04 5.568,-9.408 13.248,-13.632 24.576,-13.632 z"
         style="font-style:normal;font-variant:normal;font-weight:bold;font-stretch:normal;font-size:192px;font-family:'Century Schoolbook L';-inkscape-font-specification:'Century Schoolbook L Bold';fill:#ff6600;stroke:none;stroke-width:17.70383453;stroke-miterlimit:4;stroke-dasharray:none;stroke-opacity:1"
         id="path4397" />
      <path
         d="m 1222.041,112.48272 c -3.84,13.248 -7.296,20.544 -12.48,26.88 -7.872,9.408 -18.816,14.4 -32.448,14.4 h -4.032 c -9.408,0 -11.904,-0.384 -14.208,-2.688 -2.496,-2.304 -3.072,-4.416 -3.072,-10.752 V 53.154719 c 0,-12.096 0,-12.864 1.344,-14.4 1.728,-2.112 5.76,-2.88 15.936,-2.88 h 4.224 v -10.368 h -76.032 v 10.368 h 2.88 c 9.984,0 14.016,0.768 15.744,2.88 1.344,1.536 1.344,2.304 1.344,14.4 v 83.136001 c 0,12.288 0,13.056 -1.344,14.592 -1.728,2.112 -5.76,2.88 -15.744,2.88 h -2.88 v 10.368 h 128.64 l 2.304,-51.648 z"
         style="font-style:normal;font-variant:normal;font-weight:bold;font-stretch:normal;font-size:192px;font-family:'Century Schoolbook L';-inkscape-font-specification:'Century Schoolbook L Bold';fill:#ff6600;stroke:none;stroke-width:17.70383453;stroke-miterlimit:4;stroke-dasharray:none;stroke-opacity:1"
         id="path4399" />
      <path
         d="m 1293.783,53.154719 c 0,-12.096 0,-12.864 1.344,-14.4 1.728,-2.112 5.952,-2.88 15.936,-2.88 h 2.88 v -10.368 h -74.688 v 10.368 h 2.88 c 9.984,0 14.016,0.768 15.744,2.88 1.344,1.536 1.344,2.304 1.344,14.4 v 60.864001 c 0,16.128 1.344,24.192 4.992,30.912 7.872,14.4 26.496,22.08 53.568,22.08 24.576,0 39.36,-6.528 48.768,-21.312 5.376,-8.64 6.912,-17.28 6.912,-39.936 V 67.170719 c 0,-16.896 0.96,-21.888 4.992,-26.112 3.072,-3.264 8.448,-4.992 16.128,-5.184 v -10.368 h -54.72 v 10.368 c 7.488,0.192 12.672,1.92 15.744,5.184 4.032,4.224 4.992,9.024 4.992,26.112 v 38.592001 c 0,15.744 -0.768,23.232 -3.264,28.608 -5.568,12.096 -16.704,18.24 -32.64,18.24 -10.944,0 -19.2,-3.264 -24.576,-9.408 -4.224,-5.184 -6.336,-14.592 -6.336,-28.608 z"
         style="font-style:normal;font-variant:normal;font-weight:bold;font-stretch:normal;font-size:192px;font-family:'Century Schoolbook L';-inkscape-font-specification:'Century Schoolbook L Bold';fill:#ff6600;stroke:none;stroke-width:17.70383453;stroke-miterlimit:4;stroke-dasharray:none;stroke-opacity:1"
         id="path4401" />
      <path
         d="M 1529.364,25.506719 H 1402.26 l -2.88,52.032 h 10.176 c 2.496,-14.208 5.184,-21.696 9.792,-28.416 6.144,-9.216 13.44,-13.632 22.272,-13.632 5.76,0 6.912,1.344 6.912,7.872 v 93.120001 c 0,12.096 0,12.864 -1.344,14.4 -1.728,2.112 -5.76,2.88 -15.936,2.88 h -4.224 v 10.368 h 77.568 v -10.368 h -4.224 c -10.176,0 -14.208,-0.768 -15.936,-2.88 -1.344,-1.536 -1.344,-2.304 -1.344,-14.4 V 43.362719 c 0,-6.528 1.152,-7.872 6.912,-7.872 8.256,0 14.592,3.456 20.736,11.328 5.376,7.104 8.448,15.168 11.328,30.72 h 10.176 z"
         style="font-style:normal;font-variant:normal;font-weight:bold;font-stretch:normal;font-size:192px;font-family:'Century Schoolbook L';-inkscape-font-specification:'Century Schoolbook L Bold';fill:#ff6600;stroke:none;stroke-width:17.70383453;stroke-miterlimit:4;stroke-dasharray:none;stroke-opacity:1"
         id="path4403" />
      <path
         d="m 1667.154,25.506719 h -128.832 v 10.368 h 2.88 c 9.984,0 14.016,0.768 15.744,2.88 1.344,1.536 1.344,2.304 1.344,14.4 v 83.328001 c 0,12.096 0,12.864 -1.344,14.4 -1.728,2.112 -5.76,2.88 -15.744,2.88 h -2.88 v 10.368 h 130.368 l 2.304,-51.648 h -10.176 c -8.064,28.8 -21.696,41.28 -44.928,41.28 h -5.76 c -9.408,0 -11.904,-0.384 -14.208,-2.688 -2.496,-2.304 -3.072,-4.416 -3.072,-10.752 V 97.698719 h 3.264 c 14.976,0 24.384,9.600001 26.496,27.264001 h 10.368 V 59.874719 h -10.368 c -2.112,17.664 -11.52,27.264 -26.496,27.264 h -3.264 v -34.752 c 0,-7.872 0.384,-9.984 1.92,-12.288 2.112,-2.88 6.72,-4.224 14.592,-4.224 h 5.376 c 14.208,0 25.92,5.184 32.448,14.208 4.032,5.76 8.256,15.36 11.136,25.344 h 9.984 z"
         style="font-style:normal;font-variant:normal;font-weight:bold;font-stretch:normal;font-size:192px;font-family:'Century Schoolbook L';-inkscape-font-specification:'Century Schoolbook L Bold';fill:#ff6600;stroke:none;stroke-width:17.70383453;stroke-miterlimit:4;stroke-dasharray:none;stroke-opacity:1"
         id="path4405" />
      <path
         d="m 1857.978,25.506719 h -110.016 l -2.304,48.384 h 9.792 c 3.264,-10.368 6.144,-16.512 10.368,-22.272 8.448,-11.904 17.472,-15.552 37.824,-15.552 h 14.208 l -76.992,116.928001 v 11.136 h 114.048 l 3.072,-52.992 h -10.176 c -3.456,18.432 -12.48,32.448 -24.768,38.592 -5.952,3.072 -11.328,3.84 -24.96,3.84 h -17.088 l 76.992,-117.312001 z"
         style="font-style:normal;font-variant:normal;font-weight:bold;font-stretch:normal;font-size:192px;font-family:'Century Schoolbook L';-inkscape-font-specification:'Century Schoolbook L Bold';fill:#ff6600;stroke:none;stroke-width:17.70383453;stroke-miterlimit:4;stroke-dasharray:none;stroke-opacity:1"
         id="path4407" />
      <path
         d="m 1996.404,25.506719 h -128.832 v 10.368 h 2.88 c 9.984,0 14.016,0.768 15.744,2.88 1.344,1.536 1.344,2.304 1.344,14.4 v 83.328001 c 0,12.096 0,12.864 -1.344,14.4 -1.728,2.112 -5.76,2.88 -15.744,2.88 h -2.88 v 10.368 h 130.368 l 2.304,-51.648 h -10.176 c -8.064,28.8 -21.696,41.28 -44.928,41.28 h -5.76 c -9.408,0 -11.904,-0.384 -14.208,-2.688 -2.496,-2.304 -3.072,-4.416 -3.072,-10.752 V 97.698719 h 3.264 c 14.976,0 24.384,9.600001 26.496,27.264001 h 10.368 V 59.874719 h -10.368 c -2.112,17.664 -11.52,27.264 -26.496,27.264 h -3.264 v -34.752 c 0,-7.872 0.384,-9.984 1.92,-12.288 2.112,-2.88 6.72,-4.224 14.592,-4.224 h 5.376 c 14.208,0 25.92,5.184 32.448,14.208 4.032,5.76 8.256,15.36 11.136,25.344 h 9.984 z"
         style="font-style:normal;font-variant:normal;font-weight:bold;font-stretch:normal;font-size:192px;font-family:'Century Schoolbook L';-inkscape-font-specification:'Century Schoolbook L Bold';fill:#ff6600;stroke:none;stroke-width:17.70383453;stroke-miterlimit:4;stroke-dasharray:none;stroke-opacity:1"
         id="path4409" />
      <path
         d="m 2068.743,97.506719 h 10.752 c 8.256,0 13.632,1.92 17.088,5.760001 3.072,3.648 3.84,5.952 4.608,16.896 1.152,12.864 2.112,20.928 2.688,24 3.264,14.976 14.016,22.848 30.72,22.848 20.736,0 32.64,-11.712 32.64,-32.064 v -2.304 h -10.368 c -0.192,12.096 -3.072,18.24 -8.832,18.24 -2.112,0 -4.416,-1.152 -5.568,-2.88 -1.152,-1.536 -1.344,-2.88 -2.304,-9.024 0,-0.768 -0.384,-2.688 -0.768,-5.376 l -1.344,-7.296 c -2.88,-17.28 -10.176,-25.92 -26.88,-31.488001 10.176,-1.92 15.168,-3.264 19.968,-5.568 11.712,-5.952 18.432,-16.512 18.432,-28.992 0,-11.52 -5.568,-21.312 -15.552,-27.84 -7.296,-4.608 -20.16,-6.912 -37.824,-6.912 h -81.984 v 10.368 h 2.88 c 9.984,0 14.016,0.768 15.744,2.688 1.344,1.728 1.344,2.304 1.344,14.592 v 83.136001 c 0,12.288 0,12.864 -1.344,14.592 -1.728,1.92 -5.76,2.688 -15.744,2.688 h -2.88 v 10.368 h 76.8 v -10.368 h -4.992 c -9.984,0 -14.208,-0.768 -15.936,-2.688 -1.344,-1.728 -1.344,-2.304 -1.344,-14.592 z m 0,-10.56 v -38.784 c 0,-10.944 1.344,-12.288 13.632,-12.288 h 4.608 c 17.856,0 25.92,7.872 25.92,25.344 0,19.584 -8.064,25.728 -33.6,25.728 z"
         style="font-style:normal;font-variant:normal;font-weight:bold;font-stretch:normal;font-size:192px;font-family:'Century Schoolbook L';-inkscape-font-specification:'Century Schoolbook L Bold';fill:#ff6600;stroke:none;stroke-width:17.70383453;stroke-miterlimit:4;stroke-dasharray:none;stroke-opacity:1"
         id="path4411" />
      <path
         d="m 2246.814,22.626719 c -18.624,0 -34.368,5.376 -46.848,16.32 -16.128,13.824 -25.728,35.52 -25.728,57.984 0,40.704001 29.952,70.080001 71.616,70.080001 19.584,0 34.752,-4.8 47.616,-14.976 16.512,-13.248 25.728,-32.832 25.728,-55.296001 0,-22.272 -9.792,-44.16 -25.728,-57.792 -12.864,-11.136 -27.84,-16.32 -46.656,-16.32 z m 0.192,9.984 c 10.368,0 18.432,4.992 24,14.784 6.336,11.52 9.792,28.8 9.792,49.536 0,38.976001 -11.904,60.096001 -33.792,60.096001 -11.136,0 -19.2,-4.8 -24.576,-14.784 -6.336,-11.904 -9.792,-28.8 -9.792,-48.960001 0,-20.736 3.264,-36.096 9.792,-47.04 5.568,-9.408 13.248,-13.632 24.576,-13.632 z"
         style="font-style:normal;font-variant:normal;font-weight:bold;font-stretch:normal;font-size:192px;font-family:'Century Schoolbook L';-inkscape-font-specification:'Century Schoolbook L Bold';fill:#ff6600;stroke:none;stroke-width:17.70383453;stroke-miterlimit:4;stroke-dasharray:none;stroke-opacity:1"
         id="path4413" />
    </g>
  </g>
</svg>
