<?xml version="1.0" encoding="UTF-8" standalone="no"?>
<!-- Created with Inkscape (http://www.inkscape.org/) -->

<svg
   xmlns:dc="http://purl.org/dc/elements/1.1/"
   xmlns:cc="http://creativecommons.org/ns#"
   xmlns:rdf="http://www.w3.org/1999/02/22-rdf-syntax-ns#"
   xmlns:svg="http://www.w3.org/2000/svg"
   xmlns="http://www.w3.org/2000/svg"
   xmlns:sodipodi="http://sodipodi.sourceforge.net/DTD/sodipodi-0.dtd"
   xmlns:inkscape="http://www.inkscape.org/namespaces/inkscape"
   width="1920"
   height="1080"
   viewBox="0 0 507.99999 285.75001"
   version="1.1"
   id="svg8"
   inkscape:version="0.92.2 (5c3e80d, 2017-08-06)"
   sodipodi:docname="frog.svg"
   inkscape:export-filename="/home/mbrickn/Projects/Operation-Ohio-Source/Internal/images/vector/overlay characters/frog.png"
   inkscape:export-xdpi="96"
   inkscape:export-ydpi="96">
  <defs
     id="defs2" />
  <sodipodi:namedview
     id="base"
     pagecolor="#ffffff"
     bordercolor="#666666"
     borderopacity="1.0"
     inkscape:pageopacity="0.0"
     inkscape:pageshadow="2"
     inkscape:zoom="1.4"
     inkscape:cx="441.4214"
     inkscape:cy="932.39885"
     inkscape:document-units="mm"
     inkscape:current-layer="flowRoot4304"
     inkscape:document-rotation="0"
     showgrid="true"
     units="px"
     inkscape:window-width="1440"
     inkscape:window-height="863"
     inkscape:window-x="1920"
     inkscape:window-y="0"
     inkscape:window-maximized="1">
    <inkscape:grid
       type="xygrid"
       id="grid4267" />
  </sodipodi:namedview>
  <metadata
     id="metadata5">
    <rdf:RDF>
      <cc:Work
         rdf:about="">
        <dc:format>image/svg+xml</dc:format>
        <dc:type
           rdf:resource="http://purl.org/dc/dcmitype/StillImage" />
        <dc:title />
        <cc:license
           rdf:resource="http://creativecommons.org/licenses/by/4.0/" />
      </cc:Work>
      <cc:License
         rdf:about="http://creativecommons.org/licenses/by/4.0/">
        <cc:permits
           rdf:resource="http://creativecommons.org/ns#Reproduction" />
        <cc:permits
           rdf:resource="http://creativecommons.org/ns#Distribution" />
        <cc:requires
           rdf:resource="http://creativecommons.org/ns#Notice" />
        <cc:requires
           rdf:resource="http://creativecommons.org/ns#Attribution" />
        <cc:permits
           rdf:resource="http://creativecommons.org/ns#DerivativeWorks" />
      </cc:License>
    </rdf:RDF>
  </metadata>
  <g
     inkscape:label="Layer 1"
     inkscape:groupmode="layer"
     id="layer1"
     transform="translate(0,-11.249983)">
    <path
       style="fill:#5500d4;stroke-width:1.26499999;stroke-linejoin:bevel;paint-order:markers fill stroke"
       d="m -26.45835,-9.916687 h 560.9167 V 318.16665 h -560.9167 z"
       id="rect4383"
       inkscape:connector-curvature="0" />
    <g
       transform="matrix(0.39204013,0,0,0.39204013,-122.3944,74.722457)"
       style="font-size:40px;line-height:1.25;font-family:'Noto Sans Tagalog';-inkscape-font-specification:'Noto Sans Tagalog';letter-spacing:0px;word-spacing:0px"
       id="flowRoot4353" />
    <g
       aria-label="FROG SENSEI "
       transform="matrix(0.71822106,0.19244675,-0.19244675,0.71822106,-560.17648,-393.31957)"
       style="font-size:40px;line-height:1.25;font-family:'Noto Sans Tagalog';-inkscape-font-specification:'Noto Sans Tagalog';letter-spacing:0px;word-spacing:0px"
       id="flowRoot4304">
      <path
         d="m 964.1087,300.6971 c -27.99476,0 -29.24656,0 -29.24656,0 V 384.34 h 12.29038 v -36.41596 h 11.37999 v -12.63178 h -11.37999 v -21.96338 h 16.95618 z"
         style="font-style:normal;font-variant:normal;font-weight:normal;font-stretch:normal;font-size:192px;font-family:'League Gothic';-inkscape-font-specification:'League Gothic';fill:#18cf10;fill-opacity:1;stroke-width:0.59270769"
         id="path4320"
         inkscape:connector-curvature="0" />
      <path
         d="m 964.37467,385.20393 -3.19382,-16.47828 c 1.89778,-1.29604 2.77724,-4.351 2.77724,-7.72997 0,-6.38765 -2.59209,-9.81291 -8.51686,-9.81291 h -4.99904 v 34.02116 h 4.99904 v -14.34906 h 1.34233 l 2.59209,14.34906 z m -5.23046,-24.0231 c 0,4.86016 -2.31437,5.04531 -3.70298,5.04531 v -10.09063 c 1.38861,0 3.70298,0.18515 3.70298,5.04532 z"
         style="font-style:normal;font-variant:normal;font-weight:normal;font-stretch:normal;font-size:192px;font-family:'League Gothic';-inkscape-font-specification:'League Gothic';fill:#18cf10;fill-opacity:1;stroke-width:0.24107964"
         id="path4322"
         inkscape:connector-curvature="0" />
      <path
         d="m 1005.3161,369.10528 v -49.27534 c 0,0 0.1138,-18.09418 -16.38722,-18.09418 -16.50095,0 -16.38715,18.09418 -16.38715,18.09418 v 49.27534 c 0,0 -0.1138,18.09418 16.38715,18.09418 16.50102,0 16.38722,-18.09418 16.38722,-18.09418 z m -12.29043,-49.27534 v 49.27534 c 0,0 0.2276,6.14519 -4.09679,6.14519 -4.3244,0 -4.0968,-6.14519 -4.0968,-6.14519 v -49.27534 c 0,0 -0.2276,-6.1452 4.0968,-6.1452 4.32439,0 4.09679,6.1452 4.09679,6.1452 z"
         style="font-style:normal;font-variant:normal;font-weight:normal;font-stretch:normal;font-size:192px;font-family:'League Gothic';-inkscape-font-specification:'League Gothic';fill:#18cf10;fill-opacity:1;stroke-width:0.59270769"
         id="path4324"
         inkscape:connector-curvature="0" />
      <path
         d="m 1045.5461,332.68932 v -12.85938 c 0,0 0.1138,-18.09418 -16.3872,-18.09418 -16.501,0 -16.3872,18.09418 -16.3872,18.09418 v 49.27534 c 0,0 -1.138,18.09418 14.4526,18.09418 3.8692,0 7.2832,-2.0484 9.5592,-4.89339 l 1.4794,3.98299 h 7.2832 v -41.65075 h -17.1838 v 10.35579 h 4.8934 v 15.13538 c 0,0 0.2276,6.14519 -4.0968,6.14519 -4.3244,0 -4.0968,-6.14519 -4.0968,-6.14519 v -50.29954 c 0,0 -0.2276,-6.1452 4.0968,-6.1452 4.3244,0 4.0968,6.1452 4.0968,6.1452 v 12.85938 z"
         style="font-style:normal;font-variant:normal;font-weight:normal;font-stretch:normal;font-size:192px;font-family:'League Gothic';-inkscape-font-specification:'League Gothic';fill:#18cf10;fill-opacity:1;stroke-width:0.59270769"
         id="path4326"
         inkscape:connector-curvature="0" />
      <g
         id="g4291"
         transform="matrix(0.67007653,0,0,0.67007653,401.82782,112.44933)">
        <path
           inkscape:connector-curvature="0"
           id="path4328"
           style="font-style:normal;font-variant:normal;font-weight:normal;font-stretch:normal;font-size:192px;line-height:1.25;font-family:'League Gothic';-inkscape-font-specification:'League Gothic';letter-spacing:0px;word-spacing:0px;fill:#18cf10;fill-opacity:1;stroke-width:0.63111234"
           d="m 1277.9912,716.91473 c 6.1509,7.33513 16.447,10.56162 27.0218,13.55454 8.6341,2.56445 17.4988,4.46106 21.3139,9.01068 3.5815,4.2711 5.1924,8.45513 2.2212,10.94661 -4.1782,3.50364 -9.7183,-1.97159 -14.4677,-7.6354 l -9.0634,9.18154 c 8.4866,10.1206 18.333,18.46832 31.2391,7.64595 10.9563,-9.18734 7.1537,-19.75672 -0.4765,-28.85599 -6.1508,-7.33512 -16.5698,-10.14231 -27.0517,-13.21308 -8.6491,-2.39377 -17.0017,-4.24539 -20.8946,-8.88788 -3.2701,-3.89967 -4.7702,-7.38588 -2.2483,-9.6588 3.3426,-2.8029 8.4305,1.94448 12.2456,6.49414 l 9.0635,-9.18153 c -6.3845,-7.61369 -17.366,-16.74918 -29.2029,-6.349 -9.3149,8.12731 -5.9287,19.52027 0.3,26.94822 z" />
        <path
           inkscape:connector-curvature="0"
           id="path4330"
           style="font-style:normal;font-variant:normal;font-weight:normal;font-stretch:normal;font-size:192px;line-height:1.25;font-family:'League Gothic';-inkscape-font-specification:'League Gothic';letter-spacing:0px;word-spacing:0px;fill:#18cf10;fill-opacity:1;stroke-width:0.58096319"
           d="m 1342.8449,707.9884 21.1114,-17.703 -7.9555,-9.48734 -11.8805,9.96244 -14.4778,-17.26527 8.5471,-7.16721 -8.4573,-10.08564 -8.5471,7.16721 -13.8328,-16.49602 11.8806,-9.96241 -7.9556,-9.48734 -21.1115,17.70301 z" />
        <path
           inkscape:connector-curvature="0"
           id="path4332"
           style="font-style:normal;font-variant:normal;font-weight:normal;font-stretch:normal;font-size:192px;line-height:1.25;font-family:'League Gothic';-inkscape-font-specification:'League Gothic';letter-spacing:0px;word-spacing:0px;fill:#18cf10;fill-opacity:1;stroke-width:0.68796712"
           d="m 1417.2101,688.43011 c 0,0 9.7165,-8.14783 9.7165,-8.14783 0,0 -62.3816,-74.39228 -62.3816,-74.39228 l -10.0202,8.40243 32.5063,38.76496 2.8857,3.44125 -0.6072,0.50926 -3.7966,-2.67744 c 0,0 -43.1338,-29.85332 -43.1338,-29.85332 0,0 -9.7166,8.14779 -9.7166,8.14779 0,0 62.3816,74.39232 62.3816,74.39232 l 10.0202,-8.40243 -32.5063,-38.76496 -2.8857,-3.44129 0.6073,-0.50922 3.7966,2.67739 z" />
        <path
           inkscape:connector-curvature="0"
           id="path4334"
           style="font-style:normal;font-variant:normal;font-weight:normal;font-stretch:normal;font-size:192px;line-height:1.25;font-family:'League Gothic';-inkscape-font-specification:'League Gothic';letter-spacing:0px;word-spacing:0px;fill:#18cf10;fill-opacity:1;stroke-width:0.73584652"
           d="m 1404.6302,633.10141 c 7.1716,8.55236 19.1765,12.31432 31.506,15.80388 10.067,2.99003 20.4028,5.20139 24.8511,10.50607 4.1758,4.97985 6.054,9.85823 2.5898,12.76321 -4.8716,4.08508 -11.3311,-2.29878 -16.8686,-8.9025 l -10.5676,10.70522 c 9.895,11.80014 21.3755,21.53318 36.4234,8.91482 12.7744,-10.712 8.3408,-23.03543 -0.5556,-33.64468 -7.1716,-8.55241 -19.3197,-11.8255 -31.5411,-15.40587 -10.0843,-2.79098 -19.8231,-4.94989 -24.3621,-10.36279 -3.8128,-4.54687 -5.5618,-8.61164 -2.6214,-11.2617 3.8974,-3.26806 9.8296,2.26718 14.2778,7.57181 l 10.5675,-10.70523 c -7.4439,-8.87714 -20.2478,-19.52872 -34.049,-7.40257 -10.8607,9.47603 -6.9126,22.75969 0.3498,31.42033 z" />
        <path
           inkscape:connector-curvature="0"
           id="path4336"
           style="font-style:normal;font-variant:normal;font-weight:normal;font-stretch:normal;font-size:192px;line-height:1.25;font-family:'League Gothic';-inkscape-font-specification:'League Gothic';letter-spacing:0px;word-spacing:0px;fill:#18cf10;fill-opacity:1;stroke-width:0.77103543"
           d="m 1484.118,647.24485 28.0184,-23.49486 -10.5584,-12.59129 -15.7674,13.22178 -19.2145,-22.91385 11.3436,-9.5121 -11.2243,-13.38533 -11.3435,9.51205 -18.3583,-21.89295 15.7674,-13.22178 -10.5584,-12.59133 -28.0185,23.49486 z" />
        <path
           inkscape:connector-curvature="0"
           id="path4338"
           style="font-style:normal;font-variant:normal;font-weight:normal;font-stretch:normal;font-size:192px;line-height:1.25;font-family:'League Gothic';-inkscape-font-specification:'League Gothic';letter-spacing:0px;word-spacing:0px;fill:#18cf10;fill-opacity:1;stroke-width:1"
           d="m 1540.9177,636.09966 15.889,-13.32368 -90.6752,-108.13349 -15.889,13.32369 z" />
      </g>
    </g>
    <g
       aria-label="RIBBIT"
       style="font-size:61.01501465px;line-height:1.25;font-family:'Noto Sans Tagalog';-inkscape-font-specification:'Noto Sans Tagalog';letter-spacing:0px;word-spacing:0px;stroke-width:1.52537537"
       id="text4318"
       transform="matrix(1.4089035,-0.57305564,0.57305564,1.4089035,-237.29353,-51.367191)">
      <path
         d="M 167.32073,293.98943 154.01869,225.3586 c 7.90411,-5.39793 11.56699,-18.12164 11.56699,-32.19481 0,-26.60409 -10.79586,-40.87005 -35.47212,-40.87005 h -20.82059 v 141.69569 h 20.82059 v -59.76281 h 5.59072 l 10.79586,59.76281 z M 145.53622,193.93492 c 0,20.24224 -9.63917,21.01338 -15.42266,21.01338 v -42.02676 c 5.78349,0 15.42266,0.77114 15.42266,21.01338 z"
         style="font-style:normal;font-variant:normal;font-weight:normal;font-stretch:normal;font-size:130.16537476px;line-height:1.25;font-family:'League Gothic';-inkscape-font-specification:'League Gothic';font-variant-ligatures:normal;font-variant-position:normal;font-variant-caps:normal;font-variant-numeric:normal;font-variant-alternates:normal;font-variant-east-asian:normal;font-feature-settings:normal;text-indent:0;text-align:start;text-decoration:none;text-decoration-line:none;text-decoration-style:solid;text-decoration-color:#000000;letter-spacing:0px;word-spacing:0px;text-transform:none;writing-mode:lr-tb;direction:ltr;text-orientation:mixed;dominant-baseline:auto;baseline-shift:baseline;text-anchor:start;white-space:normal;shape-padding:0;opacity:1;vector-effect:none;fill:#18cf10;fill-opacity:1;stroke-width:2.25917864;stroke-linecap:butt;stroke-linejoin:miter;stroke-miterlimit:4;stroke-dasharray:none;stroke-dashoffset:0;stroke-opacity:1"
         id="path4341"
         inkscape:connector-curvature="0" />
      <path
         d="m 173.68881,285.87894 h 14.05786 v -95.67155 h -14.05786 z"
         style="font-style:normal;font-variant:normal;font-weight:normal;font-stretch:normal;font-size:130.16537476px;line-height:1.25;font-family:'League Gothic';-inkscape-font-specification:'League Gothic';font-variant-ligatures:normal;font-variant-position:normal;font-variant-caps:normal;font-variant-numeric:normal;font-variant-alternates:normal;font-variant-east-asian:normal;font-feature-settings:normal;text-indent:0;text-align:start;text-decoration:none;text-decoration-line:none;text-decoration-style:solid;text-decoration-color:#000000;letter-spacing:0px;word-spacing:0px;text-transform:none;writing-mode:lr-tb;direction:ltr;text-orientation:mixed;dominant-baseline:auto;baseline-shift:baseline;text-anchor:start;white-space:normal;shape-padding:0;opacity:1;vector-effect:none;fill:#18cf10;fill-opacity:1;stroke-width:1.52537537;stroke-linecap:butt;stroke-linejoin:miter;stroke-miterlimit:4;stroke-dasharray:none;stroke-dashoffset:0;stroke-opacity:1"
         id="path4343"
         inkscape:connector-curvature="0" />
      <path
         d="m 225.5958,292.35007 c 23.89028,-0.92599 30.92772,-18.5196 30.92772,-38.52076 0,-27.0386 -13.88969,-33.33527 -13.88969,-33.33527 9.63019,-8.33381 12.40813,-15.55645 12.40813,-28.14977 0,-27.03861 -12.59333,-36.11321 -36.4836,-36.11321 -7.59303,0 -17.59361,0 -17.59361,0 v 136.11901 z m 10.18578,-40.7431 c 0,22.4087 -11.11175,20.92713 -14.81567,20.92713 v -41.85428 c 3.70392,0 14.81567,-1.48156 14.81567,20.92715 z m 0,-57.41075 c 0,18.70479 -11.11175,18.14921 -14.81567,18.14921 v -36.29841 c 3.70392,0 14.81567,-0.55558 14.81567,18.1492 z"
         style="font-style:normal;font-variant:normal;font-weight:normal;font-stretch:normal;font-size:130.16537476px;line-height:1.25;font-family:'League Gothic';-inkscape-font-specification:'League Gothic';font-variant-ligatures:normal;font-variant-position:normal;font-variant-caps:normal;font-variant-numeric:normal;font-variant-alternates:normal;font-variant-east-asian:normal;font-feature-settings:normal;text-indent:0;text-align:start;text-decoration:none;text-decoration-line:none;text-decoration-style:solid;text-decoration-color:#000000;letter-spacing:0px;word-spacing:0px;text-transform:none;writing-mode:lr-tb;direction:ltr;text-orientation:mixed;dominant-baseline:auto;baseline-shift:baseline;text-anchor:start;white-space:normal;shape-padding:0;opacity:1;vector-effect:none;fill:#18cf10;fill-opacity:1;stroke-width:2.17026448;stroke-linecap:butt;stroke-linejoin:miter;stroke-miterlimit:4;stroke-dasharray:none;stroke-dashoffset:0;stroke-opacity:1"
         id="path4345"
         inkscape:connector-curvature="0" />
      <path
         d="m 276.99555,296.99997 c 16.79133,-0.65083 21.73761,-13.01654 21.73761,-27.0744 0,-19.00414 -9.7624,-23.42977 -9.7624,-23.42977 6.7686,-5.85744 8.72108,-10.93389 8.72108,-19.78513 0,-19.00415 -8.85124,-25.38225 -25.64258,-25.38225 -5.33678,0 -12.36571,0 -12.36571,0 v 95.67155 z m 7.15909,-28.63638 c 0,15.75001 -7.80992,14.70868 -10.41323,14.70868 V 253.6549 c 2.60331,0 10.41323,-1.04132 10.41323,14.70869 z m 0,-40.35127 c 0,13.1467 -7.80992,12.75621 -10.41323,12.75621 v -25.51242 c 2.60331,0 10.41323,-0.39049 10.41323,12.75621 z"
         style="font-style:normal;font-variant:normal;font-weight:normal;font-stretch:normal;font-size:130.16537476px;line-height:1.25;font-family:'League Gothic';-inkscape-font-specification:'League Gothic';font-variant-ligatures:normal;font-variant-position:normal;font-variant-caps:normal;font-variant-numeric:normal;font-variant-alternates:normal;font-variant-east-asian:normal;font-feature-settings:normal;text-indent:0;text-align:start;text-decoration:none;text-decoration-line:none;text-decoration-style:solid;text-decoration-color:#000000;letter-spacing:0px;word-spacing:0px;text-transform:none;writing-mode:lr-tb;direction:ltr;text-orientation:mixed;dominant-baseline:auto;baseline-shift:baseline;text-anchor:start;white-space:normal;shape-padding:0;opacity:1;vector-effect:none;fill:#18cf10;fill-opacity:1;stroke-width:1.52537537;stroke-linecap:butt;stroke-linejoin:miter;stroke-miterlimit:4;stroke-dasharray:none;stroke-dashoffset:0;stroke-opacity:1"
         id="path4347"
         inkscape:connector-curvature="0" />
      <path
         d="m 302.52459,392.73848 h 36.67479 V 143.14615 h -36.67479 z"
         style="font-style:normal;font-variant:normal;font-weight:normal;font-stretch:normal;font-size:130.16537476px;line-height:1.25;font-family:'League Gothic';-inkscape-font-specification:'League Gothic';font-variant-ligatures:normal;font-variant-position:normal;font-variant-caps:normal;font-variant-numeric:normal;font-variant-alternates:normal;font-variant-east-asian:normal;font-feature-settings:normal;text-indent:0;text-align:start;text-decoration:none;text-decoration-line:none;text-decoration-style:solid;text-decoration-color:#000000;letter-spacing:0px;word-spacing:0px;text-transform:none;writing-mode:lr-tb;direction:ltr;text-orientation:mixed;dominant-baseline:auto;baseline-shift:baseline;text-anchor:start;white-space:normal;shape-padding:0;opacity:1;vector-effect:none;fill:#18cf10;fill-opacity:1;stroke-width:3.9794693;stroke-linecap:butt;stroke-linejoin:miter;stroke-miterlimit:4;stroke-dasharray:none;stroke-dashoffset:0;stroke-opacity:1"
         id="path4349"
         inkscape:connector-curvature="0" />
      <path
         d="m 359.48799,216.22805 v 81.22319 h 14.05786 v -81.22319 h 13.27686 v -14.44836 h -40.61159 v 14.44836 z"
         style="font-style:normal;font-variant:normal;font-weight:normal;font-stretch:normal;font-size:130.16537476px;line-height:1.25;font-family:'League Gothic';-inkscape-font-specification:'League Gothic';font-variant-ligatures:normal;font-variant-position:normal;font-variant-caps:normal;font-variant-numeric:normal;font-variant-alternates:normal;font-variant-east-asian:normal;font-feature-settings:normal;text-indent:0;text-align:start;text-decoration:none;text-decoration-line:none;text-decoration-style:solid;text-decoration-color:#000000;letter-spacing:0px;word-spacing:0px;text-transform:none;writing-mode:lr-tb;direction:ltr;text-orientation:mixed;dominant-baseline:auto;baseline-shift:baseline;text-anchor:start;white-space:normal;shape-padding:0;opacity:1;vector-effect:none;fill:#18cf10;fill-opacity:1;stroke-width:1.52537537;stroke-linecap:butt;stroke-linejoin:miter;stroke-miterlimit:4;stroke-dasharray:none;stroke-dashoffset:0;stroke-opacity:1"
         id="path4351"
         inkscape:connector-curvature="0" />
    </g>
  </g>
</svg>
