<?xml version="1.0" encoding="UTF-8" standalone="no"?>
<!-- Created with Inkscape (http://www.inkscape.org/) -->

<svg
   xmlns:dc="http://purl.org/dc/elements/1.1/"
   xmlns:cc="http://creativecommons.org/ns#"
   xmlns:rdf="http://www.w3.org/1999/02/22-rdf-syntax-ns#"
   xmlns:svg="http://www.w3.org/2000/svg"
   xmlns="http://www.w3.org/2000/svg"
   xmlns:sodipodi="http://sodipodi.sourceforge.net/DTD/sodipodi-0.dtd"
   xmlns:inkscape="http://www.inkscape.org/namespaces/inkscape"
   width="1920"
   height="1080"
   viewBox="0 0 507.99999 285.75001"
   version="1.1"
   id="svg8"
   inkscape:version="0.92.2 (5c3e80d, 2017-08-06)"
   sodipodi:docname="mobobrious pi.svg"
   inkscape:export-filename="/home/mbrickn/Projects/Operation-Ohio-Source/Internal/images/vector/overlay characters/mobobrious pi.png"
   inkscape:export-xdpi="96"
   inkscape:export-ydpi="96">
  <defs
     id="defs2" />
  <sodipodi:namedview
     id="base"
     pagecolor="#ffffff"
     bordercolor="#666666"
     borderopacity="1.0"
     inkscape:pageopacity="0.0"
     inkscape:pageshadow="2"
     inkscape:zoom="0.35"
     inkscape:cx="371.66912"
     inkscape:cy="1073.5754"
     inkscape:document-units="mm"
     inkscape:current-layer="layer1"
     inkscape:document-rotation="0"
     showgrid="false"
     units="px"
     inkscape:window-width="1440"
     inkscape:window-height="863"
     inkscape:window-x="1920"
     inkscape:window-y="0"
     inkscape:window-maximized="1">
    <inkscape:grid
       type="xygrid"
       id="grid4267" />
  </sodipodi:namedview>
  <metadata
     id="metadata5">
    <rdf:RDF>
      <cc:Work
         rdf:about="">
        <dc:format>image/svg+xml</dc:format>
        <dc:type
           rdf:resource="http://purl.org/dc/dcmitype/StillImage" />
        <dc:title />
        <cc:license
           rdf:resource="http://creativecommons.org/licenses/by/4.0/" />
      </cc:Work>
      <cc:License
         rdf:about="http://creativecommons.org/licenses/by/4.0/">
        <cc:permits
           rdf:resource="http://creativecommons.org/ns#Reproduction" />
        <cc:permits
           rdf:resource="http://creativecommons.org/ns#Distribution" />
        <cc:requires
           rdf:resource="http://creativecommons.org/ns#Notice" />
        <cc:requires
           rdf:resource="http://creativecommons.org/ns#Attribution" />
        <cc:permits
           rdf:resource="http://creativecommons.org/ns#DerivativeWorks" />
      </cc:License>
    </rdf:RDF>
  </metadata>
  <g
     inkscape:label="Layer 1"
     inkscape:groupmode="layer"
     id="layer1"
     transform="translate(0,-11.249983)">
    <path
       style="fill:#3737c8;stroke-width:1.26499999;stroke-linejoin:bevel;paint-order:markers fill stroke"
       d="m -164.04165,-20.500013 h 836.0833 V 328.74998 h -836.0833 z"
       id="rect4331"
       inkscape:connector-curvature="0" />
    <g
       aria-label="mobobrious  π "
       transform="matrix(0.25556787,0.0684792,-0.0684792,0.25556787,77.235758,-25.233311)"
       style="font-size:40px;line-height:1.25;font-family:'Noto Sans Tagalog';-inkscape-font-specification:'Noto Sans Tagalog';letter-spacing:0px;word-spacing:0px;fill:#ffd42a"
       id="flowRoot4287">
      <g
         id="g4330"
         transform="matrix(11.2367,0,0,11.2367,-297.51994,-2226.8509)"
         style="fill:#ffd42a">
        <path
           inkscape:connector-curvature="0"
           id="path4297"
           style="font-style:normal;font-variant:normal;font-weight:normal;font-stretch:normal;font-family:'League Gothic';-inkscape-font-specification:'League Gothic';fill:#ffd42a"
           d="m 26.483828,240.12453 c 0.4,0 1.08,0.12 1.08,0.96 v 17.32 h 3.8 v -17.92 c 0,-1.8 -0.88,-4.28 -3.04,-4.28 -1.4,0 -3.04,1.96 -3.68,2.44 -0.4,-1.28 -1.28,-2.44 -2.72,-2.44 -1.4,0 -3.04,1.96 -3.36,2.16 v -1.84 h -4.04 v 21.88 h 4.04 v -17.24 c 0,0 0.72,-1.04 1.52,-1.04 0.4,0 1.08,0.12 1.08,0.96 v 17.32 h 3.8 v -17.24 c 0,0 0.72,-1.04 1.52,-1.04 z" />
        <path
           inkscape:connector-curvature="0"
           id="path4299"
           style="font-style:normal;font-variant:normal;font-weight:normal;font-stretch:normal;font-family:'League Gothic';-inkscape-font-specification:'League Gothic';fill:#ffd42a"
           d="m 44.445703,241.84453 c 0,0 0.04,-5.64 -5.2,-5.64 -5.2,0 -5.16,5.76 -5.16,5.76 v 11 c 0,0 -0.04,5.76 5.16,5.76 5.24,0 5.2,-5.64 5.2,-5.64 z m -3.8,0.12 v 11 c 0,0 0.12,2.2 -1.4,2.2 -1.48,0 -1.36,-2.2 -1.36,-2.2 v -11 c 0,0 -0.12,-2.24 1.36,-2.24 1.52,0 1.4,2.24 1.4,2.24 z" />
        <path
           inkscape:connector-curvature="0"
           id="path4301"
           style="font-style:normal;font-variant:normal;font-weight:normal;font-stretch:normal;font-family:'League Gothic';-inkscape-font-specification:'League Gothic';fill:#ffd42a"
           d="m 47.258203,258.40453 h 4.04 v -1.44 c 0,0 1.72,1.76 3.2,1.76 2.2,0 3.12,-2.48 3.12,-4.28 v -13.96 c 0,-1.8 -0.92,-4.28 -3.12,-4.28 -1.48,0 -3.2,1.76 -3.2,1.76 v -8.96 h -4.04 z m 4.04,-4.8 c 0,-4.96 0,-8.08 0,-12.28 0,-0.64 0.6,-1.32 1.2,-1.32 0.6,0 1.08,0.56 1.08,1.32 v 12.28 c 0,0.76 -0.48,1.32 -1.08,1.32 -0.56,0 -1.2,-0.56 -1.2,-1.32 z" />
        <path
           inkscape:connector-curvature="0"
           id="path4303"
           style="font-style:normal;font-variant:normal;font-weight:normal;font-stretch:normal;font-family:'League Gothic';-inkscape-font-specification:'League Gothic';fill:#ffd42a"
           d="m 70.695703,241.84453 c 0,0 0.04,-5.64 -5.2,-5.64 -5.2,0 -5.16,5.76 -5.16,5.76 v 11 c 0,0 -0.04,5.76 5.16,5.76 5.24,0 5.2,-5.64 5.2,-5.64 z m -3.8,0.12 v 11 c 0,0 0.12,2.2 -1.4,2.2 -1.48,0 -1.36,-2.2 -1.36,-2.2 v -11 c 0,0 -0.12,-2.24 1.36,-2.24 1.52,0 1.4,2.24 1.4,2.24 z" />
        <path
           inkscape:connector-curvature="0"
           id="path4305"
           style="font-style:normal;font-variant:normal;font-weight:normal;font-stretch:normal;font-family:'League Gothic';-inkscape-font-specification:'League Gothic';fill:#ffd42a"
           d="m 73.508203,258.40453 h 4.04 v -1.44 c 0,0 1.72,1.76 3.2,1.76 2.2,0 3.12,-2.48 3.12,-4.28 v -13.96 c 0,-1.8 -0.92,-4.28 -3.12,-4.28 -1.48,0 -3.2,1.76 -3.2,1.76 v -8.96 h -4.04 z m 4.04,-4.8 c 0,-4.96 0,-8.08 0,-12.28 0,-0.64 0.6,-1.32 1.2,-1.32 0.6,0 1.08,0.56 1.08,1.32 v 12.28 c 0,0.76 -0.48,1.32 -1.08,1.32 -0.56,0 -1.2,-0.56 -1.2,-1.32 z" />
        <path
           inkscape:connector-curvature="0"
           id="path4307"
           style="font-style:normal;font-variant:normal;font-weight:normal;font-stretch:normal;font-family:'League Gothic';-inkscape-font-specification:'League Gothic';fill:#ffd42a"
           d="m 95.025703,236.20453 c -2.96,0 -3.92,2.2 -4.04,2.76 v -2.44 h -4.04 v 21.88 h 4.04 c 0,-4.56 0,-2.8 0,-15.2 0,-0.68 0.16,-1.36 0.88,-2 1.28,-1.12 3.16,-0.52 3.16,-0.52 z" />
        <path
           inkscape:connector-curvature="0"
           id="path4309"
           style="font-style:normal;font-variant:normal;font-weight:normal;font-stretch:normal;font-family:'League Gothic';-inkscape-font-specification:'League Gothic';fill:#ffd42a"
           d="m 100.82945,258.40453 v -21.88 h -4.039997 v 21.88 z m -4.039997,-25.36 h 4.039997 v -4.04 h -4.039997 z" />
        <path
           inkscape:connector-curvature="0"
           id="path4311"
           style="font-style:normal;font-variant:normal;font-weight:normal;font-stretch:normal;font-family:'League Gothic';-inkscape-font-specification:'League Gothic';fill:#ffd42a"
           d="m 113.97695,241.84453 c 0,0 0.04,-5.64 -5.2,-5.64 -5.2,0 -5.16,5.76 -5.16,5.76 v 11 c 0,0 -0.04,5.76 5.16,5.76 5.24,0 5.2,-5.64 5.2,-5.64 z m -3.8,0.12 v 11 c 0,0 0.12,2.2 -1.4,2.2 -1.48,0 -1.36,-2.2 -1.36,-2.2 v -11 c 0,0 -0.12,-2.24 1.36,-2.24 1.52,0 1.4,2.24 1.4,2.24 z" />
        <path
           inkscape:connector-curvature="0"
           id="path4313"
           style="font-style:normal;font-variant:normal;font-weight:normal;font-stretch:normal;font-family:'League Gothic';-inkscape-font-specification:'League Gothic';fill:#ffd42a"
           d="m 121.70945,254.80453 c -0.48,0 -0.96,-0.12 -0.96,-0.96 v -17.32 h -4.04 v 17.92 c 0,1.8 0.88,4.28 3.04,4.28 1.4,0 2.96,-1.96 3.28,-2.16 v 1.84 h 4.04 v -21.88 h -4.04 c 0,4.56 0,4.84 0,17.24 0,0 -0.52,1.04 -1.32,1.04 z" />
        <path
           inkscape:connector-curvature="0"
           id="path4315"
           style="font-style:normal;font-variant:normal;font-weight:normal;font-stretch:normal;font-family:'League Gothic';-inkscape-font-specification:'League Gothic';fill:#ffd42a"
           d="m 129.94883,242.12453 c 0,3.16 1.96,4.92 3.84,6.72 1.24,1.2 2.52,2.56 2.52,3.88 0,1.28 -0.24,2.64 -1.4,2.64 -1.68,0 -1.88,-2.16 -1.88,-3.32 h -3.76 c 0,2.36 0.72,6.68 5.64,6.68 3.84,0 5.16,-3.28 5.16,-6 0,-2.84 -1.96,-5 -3.72,-6.68 -1.24,-1.2 -2.64,-2.52 -2.64,-3.92 0,-1.12 0.16,-2.52 1.24,-2.56 1.28,0 1.32,1.52 1.32,2.56 h 3.76 c 0,-2.48 -0.44,-6 -5.16,-5.92 -3.88,0.08 -4.92,3.32 -4.92,5.92 z" />
      </g>
      <path
         d="M -268.5826,917.1534 V 130.8613 h 134.83483 V 234.18553 H 370.4172 q 52.76146,0 76.21096,-17.58715 22.7168,-18.31989 22.7168,-58.6238 0,-10.99164 -1.46701,-27.11328 -2.1986,-16.12165 -2.93026,-21.2513 h 97.46229 q 9.52613,25.64818 13.92301,52.76145 4.39688,27.11365 4.39688,54.22693 0,87.93577 -47.63181,121.64456 -48.36458,33.7088 -177.337,33.7088 H -133.74815 V 674.59742 H 552.15072 V 812.36325 H -133.74815 V 917.1534 Z"
         style="font-style:normal;font-variant:normal;font-weight:normal;font-stretch:normal;font-family:'League Gothic';-inkscape-font-specification:'League Gothic';fill:#ffd42a;stroke-width:37.51925278"
         id="path4317"
         inkscape:connector-curvature="0" />
    </g>
    <g
       aria-label="DA"
       transform="matrix(1.5437427,-0.8324108,0.8324108,1.5437427,-1285.7717,1101.8078)"
       style="font-size:40px;line-height:1.25;font-family:'Noto Sans Tagalog';-inkscape-font-specification:'Noto Sans Tagalog';letter-spacing:0px;word-spacing:0px;fill:#ffd42a;fill-opacity:1"
       id="flowRoot4362">
      <path
         d="m 1095.8879,37.211455 c 1.6281,-3.779428 2.7328,-7.209986 2.8491,-10.233528 0.1744,-2.965398 -0.5815,-5.814505 -2.5002,-8.198452 -2.9073,-3.546848 -7.5589,-7.907727 -13.0245,-7.907727 -2.0351,0 -5.2912,0.697741 -7.3263,2.558382 -1.8606,1.744352 -2.8491,5.40749 -3.5469,7.384421 -4.7678,9.652079 -11.8615,19.478592 -14.6525,32.851953 0,0.174435 0,0.290725 0,0.46516 -0.1744,3.314268 2.5584,5.930795 5.6401,5.930795 2.035,0 4.0701,-0.988466 5.5819,-3.314268 0.9885,0.174436 1.7443,0.232581 2.2676,0.232581 9.4195,0 20.4671,-10.698689 24.7117,-19.769317 z m -23.8976,10.117239 c 0.7559,-2.151367 1.221,-2.849108 1.628,-4.651604 l 2.384,-5.52378 2.6165,-5.174909 c 1.2211,-2.500237 1.8607,-4.826039 4.012,-8.256597 3.4306,2.500237 5.5819,4.535314 5.4075,8.082162 -0.1163,1.802496 -0.814,3.953863 -2.0932,6.22152 h 0.058 c -2.3258,4.709749 -7.0355,7.965871 -11.5708,10.407964 l -3.2562,1.744351 z"
         style="font-style:normal;font-variant:normal;font-weight:normal;font-stretch:normal;font-family:Knewave;-inkscape-font-specification:Knewave;stroke-width:1.45362616"
         id="path4403"
         inkscape:connector-curvature="0" />
      <path
         d="m 1132.2579,0.98915158 0.066,-0.0663025 C 1119.329,11.265773 1108.9197,25.520445 1100.3669,39.509914 c -0.7956,1.326015 -4.5085,8.022396 -4.7073,11.470037 -0.1327,2.784634 2.0553,3.911747 3.7791,3.911747 4.0443,0 7.5583,-3.513941 10.8733,-8.154998 1.2598,-0.928211 2.4531,-0.0663 4.9063,-1.458617 0.8619,-0.464105 3.4477,-2.45313 6.4311,-3.182439 l -0.9281,3.116138 c -0.5304,2.51943 -1.9227,5.038861 -1.9891,6.232275 -0.066,1.922723 2.851,2.850934 5.1052,2.850934 1.8564,0 3.978,-0.729308 5.3703,-1.989023 0.3978,-0.928211 0.6631,-1.723821 0.9946,-2.652032 l 0.663,-1.458618 c 5.3041,-13.392761 9.2821,-26.454019 14.4536,-39.8467801 -0.2653,-1.458618 -1.1272,-2.718332 -2.3869,-3.3813403 0.8619,-1.0608125 1.2597,-1.9227235 1.2597,-2.5194305 0.1326,-2.18792643 -2.7184,-3.5139424 -5.5692,-3.5139424 -1.3261,0 -3.0499,0.66300805 -4.7073,1.3923168 z m -9.481,26.12251442 c 0.7955,-1.392316 1.79,-3.182438 2.5193,-4.574755 l 3.514,-4.110649 0.5304,0.265203 -1.9227,5.502967 c -1.3923,3.845446 -2.7183,8.022396 -3.9117,11.867843 l -6.2323,0.198901 z"
         style="font-style:normal;font-variant:normal;font-weight:normal;font-stretch:normal;font-family:Knewave;-inkscape-font-specification:Knewave;stroke-width:1.65751994"
         id="path4405"
         inkscape:connector-curvature="0" />
    </g>
    <g
       aria-label="DA"
       transform="matrix(1.1086731,-1.5347772,1.5347772,1.1086731,-849.13103,1790.4473)"
       style="font-size:40px;line-height:1.25;font-family:'Noto Sans Tagalog';-inkscape-font-specification:'Noto Sans Tagalog';letter-spacing:0px;word-spacing:0px;fill:#ffd42a;fill-opacity:1"
       id="flowRoot4370">
      <path
         d="m 1098.9095,32.274296 c 1.12,-2.6 1.88,-4.96 1.96,-7.04 0.12,-2.04 -0.4,-4 -1.72,-5.64 -2,-2.44 -5.2,-5.44 -8.96,-5.44 -1.4,0 -3.64,0.48 -5.04,1.76 -1.28,1.2 -1.96,3.72 -2.44,5.08 -3.28,6.64 -8.16,13.4 -10.08,22.6 0,0.12 0,0.2 0,0.32 -0.12,2.28 1.76,4.08 3.88,4.08 1.4,0 2.8,-0.68 3.84,-2.28 0.68,0.12 1.2,0.16 1.56,0.16 6.48,0 14.08,-7.36 17,-13.6 z m -16.44,6.96 c 0.52,-1.48 0.84,-1.96 1.12,-3.2 l 1.64,-3.8 1.8,-3.56 c 0.84,-1.72 1.28,-3.32 2.76,-5.68 2.36,1.72 3.84,3.12 3.72,5.56 -0.08,1.24 -0.56,2.72 -1.44,4.28 h 0.04 c -1.6,3.24 -4.84,5.48 -7.96,7.16 l -2.24,1.2 z"
         style="font-style:normal;font-variant:normal;font-weight:normal;font-stretch:normal;font-family:Knewave;-inkscape-font-specification:Knewave"
         id="path4398"
         inkscape:connector-curvature="0" />
      <path
         d="m 1116.0415,24.094585 0.04,-0.04 c -7.84,6.24 -14.12,14.84 -19.28,23.28 -0.48,0.8 -2.72,4.84 -2.84,6.92 -0.08,1.68 1.24,2.36 2.28,2.36 2.44,0 4.56,-2.12 6.56,-4.92 0.76,-0.56 1.48,-0.04 2.96,-0.88 0.52,-0.28 2.08,-1.48 3.88,-1.92 l -0.56,1.88 c -0.32,1.52 -1.16,3.04 -1.2,3.76 -0.04,1.16 1.72,1.72 3.08,1.72 1.12,0 2.4,-0.44 3.24,-1.2 0.24,-0.56 0.4,-1.04 0.6,-1.6 l 0.4,-0.88 c 3.2,-8.08 5.6,-15.96 8.72,-24.04 -0.16,-0.88 -0.68,-1.64 -1.44,-2.04 0.52,-0.64 0.76,-1.16 0.76,-1.52 0.08,-1.32 -1.64,-2.12 -3.36,-2.12 -0.8,0 -1.84,0.4 -2.84,0.84 z m -5.72,15.76 c 0.48,-0.84 1.08,-1.92 1.52,-2.76 l 2.12,-2.48 0.32,0.16 -1.16,3.32 c -0.84,2.32 -1.64,4.84 -2.36,7.16 l -3.76,0.12 z"
         style="font-style:normal;font-variant:normal;font-weight:normal;font-stretch:normal;font-family:Knewave;-inkscape-font-specification:Knewave"
         id="path4400"
         inkscape:connector-curvature="0" />
    </g>
    <g
       aria-label="DA"
       transform="matrix(2.1636698,-1.1666854,1.1666854,2.1636698,-2073.5592,1286.726)"
       style="font-size:40px;line-height:1.25;font-family:'Noto Sans Tagalog';-inkscape-font-specification:'Noto Sans Tagalog';letter-spacing:0px;word-spacing:0px;fill:#ffd42a;fill-opacity:1"
       id="flowRoot4378">
      <path
         d="m 1098.9095,32.274296 c 1.12,-2.6 1.88,-4.96 1.96,-7.04 0.12,-2.04 -0.4,-4 -1.72,-5.64 -2,-2.44 -5.2,-5.44 -8.96,-5.44 -1.4,0 -3.64,0.48 -5.04,1.76 -1.28,1.2 -1.96,3.72 -2.44,5.08 -3.28,6.64 -8.16,13.4 -10.08,22.6 0,0.12 0,0.2 0,0.32 -0.12,2.28 1.76,4.08 3.88,4.08 1.4,0 2.8,-0.68 3.84,-2.28 0.68,0.12 1.2,0.16 1.56,0.16 6.48,0 14.08,-7.36 17,-13.6 z m -16.44,6.96 c 0.52,-1.48 0.84,-1.96 1.12,-3.2 l 1.64,-3.8 1.8,-3.56 c 0.84,-1.72 1.28,-3.32 2.76,-5.68 2.36,1.72 3.84,3.12 3.72,5.56 -0.08,1.24 -0.56,2.72 -1.44,4.28 h 0.04 c -1.6,3.24 -4.84,5.48 -7.96,7.16 l -2.24,1.2 z"
         style="font-style:normal;font-variant:normal;font-weight:normal;font-stretch:normal;font-family:Knewave;-inkscape-font-specification:Knewave"
         id="path4393"
         inkscape:connector-curvature="0" />
      <path
         d="m 1115.1086,21.180279 0.04,-0.04 c -7.84,6.24 -14.12,14.84 -19.28,23.28 -0.48,0.8 -2.72,4.84 -2.84,6.92 -0.08,1.68 1.24,2.36 2.28,2.36 2.44,0 4.56,-2.12 6.56,-4.92 0.76,-0.56 1.48,-0.04 2.96,-0.88 0.52,-0.28 2.08,-1.48 3.88,-1.92 l -0.56,1.88 c -0.32,1.52 -1.16,3.04 -1.2,3.76 -0.04,1.16 1.72,1.72 3.08,1.72 1.12,0 2.4,-0.44 3.24,-1.2 0.24,-0.56 0.4,-1.04 0.6,-1.6 l 0.4,-0.88 c 3.2,-8.08 5.6,-15.96 8.72,-24.04 -0.16,-0.88 -0.68,-1.64 -1.44,-2.04 0.52,-0.64 0.76,-1.16 0.76,-1.52 0.08,-1.32 -1.64,-2.12 -3.36,-2.12 -0.8,0 -1.84,0.4 -2.84,0.84 z m -5.72,15.76 c 0.48,-0.84 1.08,-1.92 1.52,-2.76 l 2.12,-2.48 0.32,0.16 -1.16,3.32 c -0.84,2.32 -1.64,4.84 -2.36,7.16 l -3.76,0.12 z"
         style="font-style:normal;font-variant:normal;font-weight:normal;font-stretch:normal;font-family:Knewave;-inkscape-font-specification:Knewave"
         id="path4395"
         inkscape:connector-curvature="0" />
    </g>
    <g
       aria-label="DA"
       transform="matrix(1.1464263,-0.61817145,0.61817145,1.1464263,-1024.416,713.8557)"
       style="font-size:40px;line-height:1.25;font-family:'Noto Sans Tagalog';-inkscape-font-specification:'Noto Sans Tagalog';letter-spacing:0px;word-spacing:0px;fill:#ffd42a;fill-opacity:1"
       id="flowRoot4386">
      <path
         d="m 1098.9095,32.274296 c 1.12,-2.6 1.88,-4.96 1.96,-7.04 0.12,-2.04 -0.4,-4 -1.72,-5.64 -2,-2.44 -5.2,-5.44 -8.96,-5.44 -1.4,0 -3.64,0.48 -5.04,1.76 -1.28,1.2 -1.96,3.72 -2.44,5.08 -3.28,6.64 -8.16,13.4 -10.08,22.6 0,0.12 0,0.2 0,0.32 -0.12,2.28 1.76,4.08 3.88,4.08 1.4,0 2.8,-0.68 3.84,-2.28 0.68,0.12 1.2,0.16 1.56,0.16 6.48,0 14.08,-7.36 17,-13.6 z m -16.44,6.96 c 0.52,-1.48 0.84,-1.96 1.12,-3.2 l 1.64,-3.8 1.8,-3.56 c 0.84,-1.72 1.28,-3.32 2.76,-5.68 2.36,1.72 3.84,3.12 3.72,5.56 -0.08,1.24 -0.56,2.72 -1.44,4.28 h 0.04 c -1.6,3.24 -4.84,5.48 -7.96,7.16 l -2.24,1.2 z"
         style="font-style:normal;font-variant:normal;font-weight:normal;font-stretch:normal;font-family:Knewave;-inkscape-font-specification:Knewave"
         id="path4388"
         inkscape:connector-curvature="0" />
      <path
         d="m 1123.3027,3.9754985 0.04,-0.04 c -7.84,6.2400005 -14.12,14.8400005 -19.28,23.2800005 -0.48,0.8 -2.72,4.84 -2.84,6.92 -0.08,1.68 1.24,2.36 2.28,2.36 2.44,0 4.56,-2.12 6.56,-4.92 0.76,-0.56 1.48,-0.04 2.96,-0.88 0.52,-0.28 2.08,-1.48 3.88,-1.92 l -0.56,1.88 c -0.32,1.52 -1.16,3.04 -1.2,3.76 -0.04,1.16 1.72,1.72 3.08,1.72 1.12,0 2.4,-0.44 3.24,-1.2 0.24,-0.56 0.4,-1.04 0.6,-1.6 l 0.4,-0.88 c 3.2,-8.08 5.6,-15.96 8.72,-24.0400005 -0.16,-0.88 -0.68,-1.64 -1.44,-2.04 0.52,-0.64 0.76,-1.16 0.76,-1.52 0.08,-1.32 -1.64,-2.12 -3.36,-2.12 -0.8,0 -1.84,0.4 -2.84,0.84 z m -5.72,15.7600005 c 0.48,-0.84 1.08,-1.92 1.52,-2.76 l 2.12,-2.48 0.32,0.16 -1.16,3.32 c -0.84,2.32 -1.64,4.84 -2.36,7.16 l -3.76,0.12 z"
         style="font-style:normal;font-variant:normal;font-weight:normal;font-stretch:normal;font-family:Knewave;-inkscape-font-specification:Knewave"
         id="path4390"
         inkscape:connector-curvature="0" />
    </g>
  </g>
</svg>
