<?xml version="1.0" encoding="UTF-8" standalone="no"?>
<!-- Created with Inkscape (http://www.inkscape.org/) -->

<svg
   xmlns:dc="http://purl.org/dc/elements/1.1/"
   xmlns:cc="http://creativecommons.org/ns#"
   xmlns:rdf="http://www.w3.org/1999/02/22-rdf-syntax-ns#"
   xmlns:svg="http://www.w3.org/2000/svg"
   xmlns="http://www.w3.org/2000/svg"
   xmlns:xlink="http://www.w3.org/1999/xlink"
   xmlns:sodipodi="http://sodipodi.sourceforge.net/DTD/sodipodi-0.dtd"
   xmlns:inkscape="http://www.inkscape.org/namespaces/inkscape"
   width="1920"
   height="1080"
   viewBox="0 0 507.99999 285.75001"
   version="1.1"
   id="svg8"
   inkscape:version="0.92.2 (5c3e80d, 2017-08-06)"
   sodipodi:docname="orion.svg"
   inkscape:export-filename="/home/mbrickn/Projects/Operation-Ohio-Source/Internal/images/vector/overlay characters/orion.png"
   inkscape:export-xdpi="96"
   inkscape:export-ydpi="96">
  <defs
     id="defs2">
    <linearGradient
       inkscape:collect="always"
       id="linearGradient4294">
      <stop
         style="stop-color:#000000;stop-opacity:1;"
         offset="0"
         id="stop4290" />
      <stop
         style="stop-color:#292929;stop-opacity:1"
         offset="1"
         id="stop4292" />
    </linearGradient>
    <linearGradient
       inkscape:collect="always"
       xlink:href="#linearGradient4294"
       id="linearGradient4296"
       x1="190.5"
       y1="148.83331"
       x2="359.83334"
       y2="402.83331"
       gradientUnits="userSpaceOnUse" />
  </defs>
  <sodipodi:namedview
     id="base"
     pagecolor="#ffffff"
     bordercolor="#666666"
     borderopacity="1.0"
     inkscape:pageopacity="0.0"
     inkscape:pageshadow="2"
     inkscape:zoom="1.4"
     inkscape:cx="38.209847"
     inkscape:cy="1138.3992"
     inkscape:document-units="mm"
     inkscape:current-layer="layer1"
     inkscape:document-rotation="0"
     showgrid="true"
     units="px"
     inkscape:window-width="1440"
     inkscape:window-height="863"
     inkscape:window-x="1920"
     inkscape:window-y="0"
     inkscape:window-maximized="1">
    <inkscape:grid
       type="xygrid"
       id="grid4267" />
  </sodipodi:namedview>
  <metadata
     id="metadata5">
    <rdf:RDF>
      <cc:Work
         rdf:about="">
        <dc:format>image/svg+xml</dc:format>
        <dc:type
           rdf:resource="http://purl.org/dc/dcmitype/StillImage" />
        <dc:title />
        <cc:license
           rdf:resource="http://creativecommons.org/licenses/by/4.0/" />
      </cc:Work>
      <cc:License
         rdf:about="http://creativecommons.org/licenses/by/4.0/">
        <cc:permits
           rdf:resource="http://creativecommons.org/ns#Reproduction" />
        <cc:permits
           rdf:resource="http://creativecommons.org/ns#Distribution" />
        <cc:requires
           rdf:resource="http://creativecommons.org/ns#Notice" />
        <cc:requires
           rdf:resource="http://creativecommons.org/ns#Attribution" />
        <cc:permits
           rdf:resource="http://creativecommons.org/ns#DerivativeWorks" />
      </cc:License>
    </rdf:RDF>
  </metadata>
  <g
     inkscape:label="Layer 1"
     inkscape:groupmode="layer"
     id="layer1"
     transform="translate(0,-11.249983)">
    <rect
       style="fill:url(#linearGradient4296);stroke-width:1.26499999;stroke-linejoin:bevel;paint-order:markers fill stroke;fill-opacity:1"
       id="rect4289"
       width="592.41638"
       height="385.66074"
       x="-47.625"
       y="-46.958351" />
    <path
       style="fill:#ffff00;stroke:none;stroke-width:0.5677042;stroke-linejoin:bevel;paint-order:markers fill stroke"
       inkscape:transform-center-x="6.1434335"
       inkscape:transform-center-y="0.3673016"
       d="m 155.07354,22.995224 28.90087,42.18687 47.54949,-18.815885 -31.19124,40.522816 32.58857,39.407835 -48.17811,-17.1424 -27.40865,43.17126 1.41553,-51.1174 -49.52805,-12.726517 49.05296,-14.449896 z"
       id="path4339"
       inkscape:connector-curvature="0" />
    <g
       aria-label="ORION"
       transform="matrix(1.986143,-1.1467003,0.57335012,2.1397718,-305.50324,-370.4777)"
       style="font-size:40px;line-height:1.25;font-family:'Noto Sans Tagalog';-inkscape-font-specification:'Noto Sans Tagalog';letter-spacing:0px;word-spacing:0px;fill:#0066ff"
       id="flowRoot4331">
      <path
         d="m 99.6,326.91477 c -4.88,0 -8.92,1.64 -12.56,5.08 -3.52,3.36 -5.6,8.16 -5.6,12.96 0,7.28 4.84,12.04 12.24,12.04 9.88,0 18.2,-8.32 18.2,-18.24 0,-3.16 -1.12,-5.96 -3.32,-8.2 -2.36,-2.48 -5.28,-3.64 -8.96,-3.64 z m -0.12,2.16 c 1.56,0 3.16,0.84 3.96,2.08 0.76,1.12 1.08,2.52 1.08,4.44 0,4.2 -1.24,9.16 -3.2,12.96 -2.24,4.24 -4.72,6.28 -7.64,6.28 -3.12,0 -5.08,-2.36 -5.08,-6.16 0,-3.76 1.44,-9.4 3.4,-13.4 2.08,-4.2 4.48,-6.2 7.48,-6.2 z"
         style="font-style:italic;font-variant:normal;font-weight:bold;font-stretch:normal;font-family:'Century Schoolbook L';-inkscape-font-specification:'Century Schoolbook L Bold Italic';fill:#0066ff"
         id="path4276"
         inkscape:connector-curvature="0" />
      <path
         d="m 125.51937,342.39477 h 1.20001 c 2.75999,0 4.07999,1.04 4.07999,3.24 0,0.6 -0.08,1.48 -0.2,2.32 -0.16,1.28 -0.28,2.52 -0.28,3.36 0,3.32 2.36,5.68 5.72,5.68 3.4,0 5.64,-1.92 7,-6.04 l -1.72,-0.84 c -0.36,1 -0.47999,1.28 -0.68,1.72 -0.56,1.28 -1.44,2.12 -2.16,2.12 -0.28,0 -0.52,-0.16 -0.72,-0.44 -0.28,-0.36 -0.28,-0.36 -0.28,-3 v -1.36 c 0,-2.32 -0.44,-3.68 -1.56,-4.92 -1.04,-1.08 -1.96,-1.64 -4,-2.2 7.56,-0.6 11.48,-3.28 11.48,-7.84 0,-2.4 -1.28,-4.52 -3.2,-5.4 -1.91999,-0.88 -4.56,-1.28 -8.47999,-1.28 h -13.88 l -0.28,2.16 h 0.75999 c 2.60001,0 3.16001,0.2 3.16001,1.08 0,0.36 -0.12,0.92 -0.56,2.52 l -4.64,17.36 c -0.72,2.72 -0.72,2.72 -1.08,3.04 -0.40001,0.4 -1.36,0.56 -3.04001,0.56 h -0.15999 l -0.28,2.16 h 14.95999 l 0.32001,-2.16 h -1.04001 c -2.59999,0 -3.16,-0.2 -3.16,-1.08 0,-0.36 0.20001,-1.24 0.52001,-2.52 z m 0.60001,-2.16 2.43999,-9.04 c 0.32,-1.24 0.72001,-1.52 2.16001,-1.52 h 1 c 2.79999,0 4.31999,1.4 4.31999,3.92 0,2.12 -1,4.24 -2.6,5.4 -1.32,1.04 -2.36,1.24 -5.95999,1.24 z"
         style="font-style:italic;font-variant:normal;font-weight:bold;font-stretch:normal;font-family:'Century Schoolbook L';-inkscape-font-specification:'Century Schoolbook L Bold Italic';fill:#0066ff"
         id="path4278"
         inkscape:connector-curvature="0" />
      <path
         d="m 158.51437,356.39477 0.32,-2.16 h -0.88 c -2.6,0 -3.16,-0.2 -3.16,-1.08 0,-0.32 0,-0.32 0.56,-2.52 l 4.64,-17.36 c 0.72,-2.76 0.72,-2.76 1.08,-3.04 0.4,-0.4 1.36,-0.56 3.04,-0.56 h 0.28 l 0.28,-2.16 h -14.92 l -0.32,2.16 h 0.88 c 2.6,0 3.16,0.2 3.16,1.08 0,0.36 -0.16,1.16 -0.56,2.52 l -4.64,17.36 c -0.72,2.72 -0.72,2.72 -1.08,3.04 -0.4,0.4 -1.36,0.56 -3.04,0.56 h -0.28 l -0.27999,2.16 z"
         style="font-style:italic;font-variant:normal;font-weight:bold;font-stretch:normal;font-family:'Century Schoolbook L';-inkscape-font-specification:'Century Schoolbook L Bold Italic';fill:#0066ff"
         id="path4280"
         inkscape:connector-curvature="0" />
      <path
         d="m 182.56875,326.91477 c -4.88,0 -8.92,1.64 -12.56,5.08 -3.52,3.36 -5.6,8.16 -5.6,12.96 0,7.28 4.84,12.04 12.24,12.04 9.88,0 18.2,-8.32 18.2,-18.24 0,-3.16 -1.12,-5.96 -3.32,-8.2 -2.36,-2.48 -5.28,-3.64 -8.96,-3.64 z m -0.12,2.16 c 1.56,0 3.16,0.84 3.96,2.08 0.76,1.12 1.08,2.52 1.08,4.44 0,4.2 -1.24,9.16 -3.2,12.96 -2.24,4.24 -4.72,6.28 -7.64,6.28 -3.12,0 -5.08,-2.36 -5.08,-6.16 0,-3.76 1.44,-9.4 3.4,-13.4 2.08,-4.2 4.48,-6.2 7.48,-6.2 z"
         style="font-style:italic;font-variant:normal;font-weight:bold;font-stretch:normal;font-family:'Century Schoolbook L';-inkscape-font-specification:'Century Schoolbook L Bold Italic';fill:#0066ff"
         id="path4282"
         inkscape:connector-curvature="0" />
      <path
         d="m 210.32812,327.51477 h -10.16 l -0.28,2.16 h 2.24 c 1.24,0 1.88,0.36 2.36,1.28 l -4.52,16.76 c -1.2,4.16 -1.27999,4.4 -2.4,5.44 -0.8,0.68 -1.87999,1.04 -3.24,1.08 l -0.28,2.16 h 11.36 l 0.32,-2.16 h -0.44 c -2.32,0 -3.48,-0.72 -3.48,-2.2 0,-0.84 0.04,-1.12 0.84,-4.32 l 3.6,-13.4 11.84,22.64 h 3.2 l 5.56,-20.76 c 1.24,-4.24 1.32,-4.36 2.44,-5.44 0.8,-0.72 1.88,-1.08 3.24,-1.08 l 0.28001,-2.16 h -11.08001 l -0.28,2.16 c 2.4,0 3.6,0.72 3.6,2.2 0,0.88 -0.04,1.12 -0.88,4.32 l -3.12,11.6 z"
         style="font-style:italic;font-variant:normal;font-weight:bold;font-stretch:normal;font-family:'Century Schoolbook L';-inkscape-font-specification:'Century Schoolbook L Bold Italic';fill:#0066ff"
         id="path4284"
         inkscape:connector-curvature="0" />
    </g>
    <g
       aria-label="THE HUNT  CONTINUES"
       transform="matrix(0.28930189,0.16702852,-0.2281652,0.2281652,336.65131,125.17941)"
       style="font-size:40px;line-height:1.25;font-family:'Noto Sans Tagalog';-inkscape-font-specification:'Noto Sans Tagalog';letter-spacing:0px;word-spacing:0px;fill:#0066ff;fill-opacity:1"
       id="flowRoot4341">
      <path
         d="M 95.570212,36.004811 H 33.323674 l -9.160026,26.85553 4.267739,0.624547 c 5.100469,-9.264117 6.141381,-11.033667 8.951844,-14.572768 4.163648,-5.412743 9.055934,-8.015023 14.676859,-8.015023 h 1.457277 c 2.394098,0 3.43501,0.520456 3.43501,1.769551 0,0.520456 -0.208183,1.457277 -0.520456,2.60228 L 42.275517,98.355441 c -1.457277,5.516829 -1.561368,5.620929 -2.394097,6.453659 -1.145004,1.04091 -3.643193,1.45727 -8.743661,1.45727 h -2.290007 l -0.520456,4.89229 h 36.015556 l 0.624547,-4.89229 h -3.851374 c -6.765928,0 -8.223205,-0.52045 -8.223205,-2.81046 0,-0.72864 0.416365,-3.12274 0.936821,-5.100469 L 67.67377,46.726205 c 1.457277,-5.308652 1.977733,-5.829108 5.204561,-5.829108 h 1.457276 c 3.955466,0 6.974111,0.936821 8.847752,2.60228 2.394098,2.290007 3.851375,7.286384 3.851375,13.323674 0,1.873642 0,3.018645 -0.208182,7.286384 l 4.37183,0.520456 z"
         style="font-style:italic;font-variant:normal;font-weight:normal;font-stretch:normal;font-size:104.09120178px;font-family:'Century Schoolbook L';-inkscape-font-specification:'Century Schoolbook L Italic';fill:#0066ff;fill-opacity:1"
         id="path4287" />
      <path
         d="m 151.00366,74.310373 -6.34957,24.045068 c -1.56136,5.516829 -1.56136,5.620929 -2.39409,6.453659 -1.14501,1.04091 -3.6432,1.45727 -8.74367,1.45727 h -0.41636 l -0.52046,4.89229 h 32.99691 l 0.62455,-4.89229 h -2.70637 c -6.76593,0 -8.2232,-0.52045 -8.2232,-2.81046 0,-0.72864 0.41636,-3.12274 0.93682,-5.100469 l 13.32367,-49.547412 c 1.56137,-5.725016 1.56137,-5.725016 2.3941,-6.453655 1.145,-1.040912 3.5391,-1.457277 8.74366,-1.457277 h 0.41636 l 0.52046,-4.892286 h -33.101 l -0.52046,4.892286 h 2.70637 c 6.76593,0 8.22321,0.520456 8.22321,2.810463 0,0.832729 -0.31228,2.60228 -1.04091,5.100469 l -5.51684,20.610058 h -33.51736 l 5.62092,-20.610058 c 1.45728,-5.725016 1.45728,-5.725016 2.3941,-6.453655 1.04091,-1.040912 3.5391,-1.457277 8.63957,-1.457277 h 0.41636 l 0.52046,-4.892286 h -32.99691 l -0.62455,4.892286 h 2.70637 c 6.76593,0 8.22321,0.520456 8.22321,2.810463 0,0.832729 -0.41637,3.018645 -0.93682,5.100469 L 99.478512,98.355441 c -1.457277,5.516829 -1.561368,5.620929 -2.394098,6.453659 -1.145003,1.04091 -3.539101,1.45727 -8.63957,1.45727 h -0.520456 l -0.520456,4.89229 h 33.100998 l 0.52046,-4.89229 h -2.70637 c -6.76593,0 -8.22321,-0.52045 -8.22321,-2.81046 0,-0.83273 0,-0.83273 1.04092,-5.100469 l 6.45365,-24.045068 z"
         style="font-style:italic;font-variant:normal;font-weight:normal;font-stretch:normal;font-size:104.09120178px;font-family:'Century Schoolbook L';-inkscape-font-specification:'Century Schoolbook L Italic';fill:#0066ff;fill-opacity:1"
         id="path4289" />
      <path
         d="M 251.13776,36.004811 H 190.3485 l -0.62455,4.892286 h 2.70637 c 6.76593,0 8.22321,0.520456 8.22321,2.810463 0,0.832729 -0.41636,3.018645 -0.93682,5.100469 l -13.32367,49.547412 c -1.45728,5.516829 -1.56137,5.620929 -2.3941,6.453659 -1.14501,1.04091 -3.5391,1.45727 -8.63957,1.45727 h -0.52046 l -0.52045,4.89229 h 62.55881 l 8.11911,-25.502346 -4.26774,-0.83273 -0.52045,0.83273 c -4.58002,8.327296 -6.55775,11.137759 -10.61731,14.468676 -4.99637,4.26774 -11.03366,6.14138 -19.46505,6.14138 h -5.62093 c -5.41274,0 -7.28638,-0.83273 -7.28638,-3.33092 0,-1.24909 0.10409,-1.76955 1.145,-5.725013 l 6.14138,-22.900064 h 2.29001 c 7.70275,0 11.55412,3.122736 11.55412,9.472299 0,2.290007 -0.20818,3.851375 -0.93682,7.182293 l 4.68411,0.83273 9.26411,-34.766461 -4.6841,-0.624548 c -3.01864,9.160026 -8.43139,13.011401 -18.52823,13.011401 h -2.3941 l 5.72501,-21.338697 c 1.76956,-6.661837 2.60228,-7.182293 10.40913,-7.182293 h 6.03728 c 4.47593,0 8.01503,1.145004 10.61731,3.43501 2.91455,2.60228 3.85137,5.933198 3.85137,13.115491 v 3.643192 h 4.68411 z"
         style="font-style:italic;font-variant:normal;font-weight:normal;font-stretch:normal;font-size:104.09120178px;font-family:'Century Schoolbook L';-inkscape-font-specification:'Century Schoolbook L Italic';fill:#0066ff;fill-opacity:1"
         id="path4291" />
      <path
         d="m 341.90531,74.310373 -6.34957,24.045068 c -1.56137,5.516829 -1.56137,5.620929 -2.39409,6.453659 -1.14501,1.04091 -3.6432,1.45727 -8.74367,1.45727 h -0.41636 l -0.52046,4.89229 h 32.99691 l 0.62455,-4.89229 h -2.70637 c -6.76593,0 -8.2232,-0.52045 -8.2232,-2.81046 0,-0.72864 0.41636,-3.12274 0.93682,-5.100469 l 13.32367,-49.547412 c 1.56137,-5.725016 1.56137,-5.725016 2.3941,-6.453655 1.145,-1.040912 3.5391,-1.457277 8.74366,-1.457277 h 0.41636 l 0.52046,-4.892286 h -33.101 l -0.52046,4.892286 h 2.70637 c 6.76593,0 8.22321,0.520456 8.22321,2.810463 0,0.832729 -0.31228,2.60228 -1.04091,5.100469 l -5.51684,20.610058 h -33.51737 l 5.62093,-20.610058 c 1.45728,-5.725016 1.45728,-5.725016 2.3941,-6.453655 1.04091,-1.040912 3.5391,-1.457277 8.63957,-1.457277 h 0.41636 l 0.52046,-4.892286 h -32.99691 l -0.62455,4.892286 h 2.70637 c 6.76593,0 8.22321,0.520456 8.22321,2.810463 0,0.832729 -0.41637,3.018645 -0.93683,5.100469 l -13.32367,49.547412 c -1.45728,5.516829 -1.56137,5.620929 -2.3941,6.453659 -1.145,1.04091 -3.5391,1.45727 -8.63957,1.45727 h -0.52045 l -0.52046,4.89229 h 33.101 l 0.52046,-4.89229 h -2.70637 c -6.76593,0 -8.22321,-0.52045 -8.22321,-2.81046 0,-0.83273 0,-0.83273 1.04092,-5.100469 l 6.45365,-24.045068 z"
         style="font-style:italic;font-variant:normal;font-weight:normal;font-stretch:normal;font-size:104.09120178px;font-family:'Century Schoolbook L';-inkscape-font-specification:'Century Schoolbook L Italic';fill:#0066ff;fill-opacity:1"
         id="path4293" />
      <path
         d="m 379.48059,40.897097 h 2.60228 c 6.76593,0 8.22321,0.520456 8.22321,2.810463 0,0.832729 -0.41637,3.018645 -0.93682,5.100469 l -8.53548,31.747816 c -1.66546,6.03729 -2.08183,8.743661 -2.08183,12.282762 0,12.907313 9.05594,19.881423 26.0228,19.881423 5.30866,0 10.51322,-0.83273 14.57277,-2.3941 6.76593,-2.60228 10.82549,-7.0782 14.05231,-15.50959 1.45728,-3.643192 1.45728,-3.643192 4.26774,-14.260495 l 5.82911,-21.963243 c 4.47592,-16.134137 5.41274,-17.27914 14.57277,-17.695505 l 0.52046,-4.892286 h -27.37599 l -0.62455,4.892286 c 6.66184,-0.104091 9.68048,1.769551 9.68048,5.725016 0,2.290007 -0.10409,2.706372 -2.39409,11.970489 l -6.03729,22.379608 c -3.01865,11.554123 -4.26774,14.989133 -6.76593,18.528234 -4.05956,5.829106 -10.09685,8.743656 -18.11187,8.743656 -10.6173,0 -16.75868,-5.20456 -16.75868,-14.052307 0,-2.706372 0.72863,-7.80684 1.45727,-10.721394 l 9.36821,-34.66237 c 1.45728,-5.620925 1.45728,-5.620925 2.3941,-6.453655 1.04091,-1.040912 3.5391,-1.457277 8.63957,-1.457277 h 0.41636 l 0.62455,-4.892286 h -33.101 z"
         style="font-style:italic;font-variant:normal;font-weight:normal;font-stretch:normal;font-size:104.09120178px;font-family:'Century Schoolbook L';-inkscape-font-specification:'Century Schoolbook L Italic';fill:#0066ff;fill-opacity:1"
         id="path4295" />
      <path
         d="m 486.63761,36.004811 h -21.96325 l -0.52045,4.892286 h 5.41274 c 4.99638,0 5.9332,0.520456 6.76593,3.330919 l -11.8664,44.342852 c -4.05956,15.197312 -6.03729,17.487322 -15.09322,17.695502 l -0.52046,4.89229 h 28.72917 l 0.62455,-4.89229 h -1.14501 c -6.34956,0 -9.3682,-1.87364 -9.3682,-5.72501 0,-2.29001 0.10409,-2.706375 2.49819,-11.970492 l 10.30502,-38.513745 28.93736,62.558817 h 4.05956 l 14.46867,-54.023338 c 3.95547,-14.989133 6.03729,-17.383231 14.78095,-17.695505 l 0.52046,-4.892286 h -27.2719 l -0.62454,4.892286 c 6.34956,0 9.36821,1.873642 9.36821,5.725016 0,2.290007 -0.1041,2.706372 -2.3941,11.970489 l -9.36821,34.870552 z"
         style="font-style:italic;font-variant:normal;font-weight:normal;font-stretch:normal;font-size:104.09120178px;font-family:'Century Schoolbook L';-inkscape-font-specification:'Century Schoolbook L Italic';fill:#0066ff;fill-opacity:1"
         id="path4297" />
      <path
         d="m 614.19649,36.004811 h -62.24653 l -9.16003,26.85553 4.26774,0.624547 c 5.10047,-9.264117 6.14138,-11.033667 8.95184,-14.572768 4.16365,-5.412743 9.05594,-8.015023 14.67686,-8.015023 h 1.45728 c 2.3941,0 3.43501,0.520456 3.43501,1.769551 0,0.520456 -0.20818,1.457277 -0.52046,2.60228 l -14.1564,53.086513 c -1.45728,5.516829 -1.56137,5.620929 -2.3941,6.453659 -1.145,1.04091 -3.64319,1.45727 -8.74366,1.45727 h -2.29001 l -0.52045,4.89229 h 36.01555 l 0.62455,-4.89229 h -3.85137 c -6.76593,0 -8.22321,-0.52045 -8.22321,-2.81046 0,-0.72864 0.41637,-3.12274 0.93682,-5.100469 l 13.84413,-51.629236 c 1.45728,-5.308652 1.97773,-5.829108 5.20456,-5.829108 h 1.45728 c 3.95546,0 6.97411,0.936821 8.84775,2.60228 2.3941,2.290007 3.85138,7.286384 3.85138,13.323674 0,1.873642 0,3.018645 -0.20819,7.286384 l 4.37183,0.520456 z"
         style="font-style:italic;font-variant:normal;font-weight:normal;font-stretch:normal;font-size:104.09120178px;font-family:'Century Schoolbook L';-inkscape-font-specification:'Century Schoolbook L Italic';fill:#0066ff;fill-opacity:1"
         id="path4299" />
      <path
         d="m 72.615848,168.76897 c -4.093291,-4.86079 -8.442413,-6.82216 -14.923458,-6.82216 -9.380459,0 -17.908149,4.4344 -24.730301,12.96209 -6.310491,7.67492 -9.551013,16.54372 -9.551013,26.00946 0,15.17929 9.892121,25.15668 25.071409,25.15668 7.504367,0 13.900135,-2.64358 18.760918,-7.67492 2.643584,-2.72886 4.604953,-5.8841 6.822152,-11.08599 l -3.496353,-1.53499 c -2.131922,4.51968 -3.325799,6.56632 -4.860783,8.35714 -4.263845,5.28717 -9.380459,7.7602 -15.776227,7.7602 -5.287168,0 -9.380459,-1.70554 -11.938766,-5.03134 -2.558307,-3.15525 -3.922737,-7.67492 -3.922737,-12.53571 0,-9.72156 3.411076,-20.97811 8.783521,-29.24997 3.922737,-6.05466 9.636289,-9.46574 15.520396,-9.46574 5.628275,0 9.636289,2.89942 11.938766,8.61297 1.36443,3.15524 1.961368,6.90743 2.217199,13.47375 h 3.496353 l 4.775507,-23.87753 h -3.069969 z"
         style="font-style:italic;font-variant:normal;font-weight:normal;font-stretch:normal;font-size:85.27690125px;font-family:'Century Schoolbook L';-inkscape-font-specification:'Century Schoolbook L Italic';fill:#0066ff;fill-opacity:1"
         id="path4301" />
      <path
         d="m 120.59743,161.94681 c -9.20991,0 -17.39649,3.83747 -24.559749,11.51239 -7.077982,7.50436 -11.00072,17.48176 -11.00072,27.88554 0,15.09401 9.039352,24.7303 23.195319,24.7303 8.95407,0 16.88482,-3.41107 23.70698,-10.14795 7.84547,-7.84547 12.36515,-18.59036 12.36515,-29.5058 0,-7.4191 -2.2172,-13.21792 -6.82215,-17.7376 -4.34913,-4.26385 -10.40379,-6.73688 -16.88483,-6.73688 z m 0.25583,3.66691 c 4.4344,0 8.78352,2.04665 10.57434,5.11662 1.62026,2.64358 2.89941,7.76019 2.89941,11.76821 0,8.78352 -3.92274,21.48978 -9.20991,30.01747 -3.83746,6.22521 -10.06267,9.89212 -16.71427,9.89212 -8.18658,0 -13.303195,-5.88411 -13.303195,-15.26457 0,-10.3185 4.946065,-25.8389 10.489055,-33.00216 4.51968,-5.79883 9.38046,-8.52769 15.26457,-8.52769 z"
         style="font-style:italic;font-variant:normal;font-weight:normal;font-stretch:normal;font-size:85.27690125px;font-family:'Century Schoolbook L';-inkscape-font-specification:'Century Schoolbook L Italic';fill:#0066ff;fill-opacity:1"
         id="path4303" />
      <path
         d="m 174.77758,163.22597 h -17.99343 l -0.42638,4.00801 h 4.43439 c 4.0933,0 4.86079,0.42639 5.543,2.72886 l -9.72156,36.32796 c -3.3258,12.45043 -4.94606,14.32652 -12.36515,14.49708 l -0.42639,4.00801 h 23.53643 l 0.51166,-4.00801 h -0.93805 c -5.20189,0 -7.67492,-1.53499 -7.67492,-4.69023 0,-1.8761 0.0853,-2.2172 2.04665,-9.80685 l 8.44241,-31.55245 23.70698,51.25142 h 3.3258 l 11.85349,-44.25871 c 3.24052,-12.27988 4.94606,-14.24125 12.10932,-14.49708 l 0.42638,-4.00801 h -22.34255 l -0.51166,4.00801 c 5.20189,0 7.67492,1.53499 7.67492,4.69023 0,1.87609 -0.0853,2.2172 -1.96137,9.80685 l -7.67492,28.56776 z"
         style="font-style:italic;font-variant:normal;font-weight:normal;font-stretch:normal;font-size:85.27690125px;font-family:'Century Schoolbook L';-inkscape-font-specification:'Century Schoolbook L Italic';fill:#0066ff;fill-opacity:1"
         id="path4305" />
      <path
         d="m 279.28042,163.22597 h -50.99559 l -7.50437,22.00144 3.49635,0.51166 c 4.17857,-7.58964 5.03134,-9.03935 7.33382,-11.93877 3.41107,-4.4344 7.41909,-6.56632 12.02404,-6.56632 h 1.19388 c 1.96137,0 2.81413,0.42639 2.81413,1.44971 0,0.42638 -0.17055,1.19388 -0.42638,2.13192 l -11.59766,43.49122 c -1.19387,4.51968 -1.27915,4.60495 -1.96137,5.28717 -0.93804,0.85277 -2.98469,1.19388 -7.16326,1.19388 h -1.87609 l -0.42638,4.00801 h 29.5058 l 0.51167,-4.00801 h -3.15525 c -5.543,0 -6.73687,-0.42639 -6.73687,-2.30248 0,-0.59694 0.3411,-2.55831 0.76749,-4.17857 l 11.34183,-42.29734 c 1.19387,-4.34912 1.62026,-4.77551 4.26384,-4.77551 h 1.19388 c 3.24052,0 5.71355,0.76749 7.24853,2.13192 1.96137,1.8761 3.15525,5.96939 3.15525,10.91545 0,1.53498 0,2.47303 -0.17055,5.96938 l 3.58163,0.42639 z"
         style="font-style:italic;font-variant:normal;font-weight:normal;font-stretch:normal;font-size:85.27690125px;font-family:'Century Schoolbook L';-inkscape-font-specification:'Century Schoolbook L Italic';fill:#0066ff;fill-opacity:1"
         id="path4307" />
      <path
         d="m 299.96407,220.78788 h -1.8761 c -5.62827,0 -6.82215,-0.42639 -6.82215,-2.38776 0,-0.76749 0.0853,-1.19387 0.85277,-4.09329 l 10.91545,-40.5918 c 1.19387,-4.4344 1.19387,-4.51968 1.96136,-5.28717 1.02333,-0.93805 2.2172,-1.1086 7.16326,-1.19388 l 0.42639,-4.00801 h -26.43584 l -0.51166,4.00801 h 1.87609 c 5.62827,0 6.82215,0.42639 6.82215,2.30248 0,0.68221 -0.25583,1.87609 -0.85277,4.17857 l -10.91544,40.5918 c -1.1086,4.26385 -1.19388,4.51968 -1.96137,5.28717 -1.02332,0.93805 -2.13192,1.1086 -7.16326,1.19388 l -0.42638,4.00801 h 26.43584 z"
         style="font-style:italic;font-variant:normal;font-weight:normal;font-stretch:normal;font-size:85.27690125px;font-family:'Century Schoolbook L';-inkscape-font-specification:'Century Schoolbook L Italic';fill:#0066ff;fill-opacity:1"
         id="path4309" />
      <path
         d="m 337.33668,163.22597 h -17.99343 l -0.42638,4.00801 h 4.4344 c 4.09329,0 4.86078,0.42639 5.543,2.72886 l -9.72157,36.32796 c -3.3258,12.45043 -4.94606,14.32652 -12.36515,14.49708 l -0.42638,4.00801 h 23.53642 l 0.51166,-4.00801 h -0.93804 c -5.2019,0 -7.67493,-1.53499 -7.67493,-4.69023 0,-1.8761 0.0853,-2.2172 2.04665,-9.80685 l 8.44241,-31.55245 23.70698,51.25142 h 3.3258 l 11.85349,-44.25871 c 3.24052,-12.27988 4.94606,-14.24125 12.10932,-14.49708 l 0.42638,-4.00801 h -22.34254 l -0.51166,4.00801 c 5.20189,0 7.67492,1.53499 7.67492,4.69023 0,1.87609 -0.0853,2.2172 -1.96137,9.80685 l -7.67492,28.56776 z"
         style="font-style:italic;font-variant:normal;font-weight:normal;font-stretch:normal;font-size:85.27690125px;font-family:'Century Schoolbook L';-inkscape-font-specification:'Century Schoolbook L Italic';fill:#0066ff;fill-opacity:1"
         id="path4311" />
      <path
         d="m 388.45619,167.23398 h 2.13192 c 5.543,0 6.73688,0.42639 6.73688,2.30248 0,0.68221 -0.34111,2.47303 -0.7675,4.17857 l -6.9927,26.00945 c -1.36443,4.94606 -1.70554,7.16326 -1.70554,10.06268 0,10.57433 7.41909,16.28788 21.31922,16.28788 4.34913,0 8.61297,-0.68221 11.93877,-1.96136 5.543,-2.13193 8.8688,-5.79883 11.51238,-12.70626 1.19388,-2.98469 1.19388,-2.98469 3.49636,-11.68294 l 4.7755,-17.99342 c 3.66691,-13.21792 4.4344,-14.15597 11.93877,-14.49708 l 0.42638,-4.00801 h -22.42782 l -0.51166,4.00801 c 5.45772,-0.0853 7.93075,1.44971 7.93075,4.69023 0,1.87609 -0.0853,2.2172 -1.96137,9.80685 l -4.94606,18.33453 c -2.47303,9.46574 -3.49635,12.27987 -5.543,15.17929 -3.3258,4.7755 -8.27186,7.16326 -14.83818,7.16326 -8.69824,0 -13.72958,-4.26385 -13.72958,-11.51238 0,-2.2172 0.59694,-6.39577 1.19387,-8.78353 l 7.67493,-28.3972 c 1.19387,-4.60496 1.19387,-4.60496 1.96136,-5.28717 0.85277,-0.85277 2.89942,-1.19388 7.07799,-1.19388 h 0.34111 l 0.51166,-4.00801 h -27.11806 z"
         style="font-style:italic;font-variant:normal;font-weight:normal;font-stretch:normal;font-size:85.27690125px;font-family:'Century Schoolbook L';-inkscape-font-specification:'Century Schoolbook L Italic';fill:#0066ff;fill-opacity:1"
         id="path4313" />
      <path
         d="m 509.16165,163.22597 h -49.80171 l -0.51167,4.00801 h 2.2172 c 5.543,0 6.73688,0.42639 6.73688,2.30248 0,0.68221 -0.34111,2.47303 -0.76749,4.17857 l -10.91545,40.5918 c -1.19387,4.51968 -1.27915,4.60495 -1.96137,5.28717 -0.93804,0.85277 -2.89941,1.19388 -7.07798,1.19388 h -0.42638 l -0.42639,4.00801 h 51.25142 l 6.6516,-20.89284 -3.49635,-0.68222 -0.42639,0.68222 c -3.75218,6.82215 -5.37244,9.12463 -8.69824,11.85349 -4.09329,3.49635 -9.03935,5.03134 -15.94678,5.03134 h -4.60496 c -4.4344,0 -5.96938,-0.68222 -5.96938,-2.72886 0,-1.02333 0.0853,-1.44971 0.93805,-4.69023 l 5.03133,-18.76092 h 1.8761 c 6.31049,0 9.46573,2.5583 9.46573,7.7602 0,1.87609 -0.17055,3.15524 -0.76749,5.8841 l 3.83746,0.68222 7.58964,-28.48249 -3.83746,-0.51166 c -2.47303,7.50437 -6.90743,10.65961 -15.17928,10.65961 h -1.96137 l 4.69023,-17.48176 c 1.4497,-5.45772 2.13192,-5.88411 8.52769,-5.88411 h 4.94606 c 3.6669,0 6.56632,0.93805 8.69824,2.81414 2.38775,2.13192 3.15525,4.86078 3.15525,10.74489 v 2.98469 h 3.83746 z"
         style="font-style:italic;font-variant:normal;font-weight:normal;font-stretch:normal;font-size:85.27690125px;font-family:'Century Schoolbook L';-inkscape-font-specification:'Century Schoolbook L Italic';fill:#0066ff;fill-opacity:1"
         id="path4315" />
      <path
         d="m 564.90342,163.82291 h -3.24052 l -4.60495,4.4344 c -4.4344,-4.34913 -9.29518,-6.3105 -15.5204,-6.3105 -11.51238,0 -20.46645,8.35714 -20.46645,19.10203 0,3.83746 1.4497,7.58964 4.00801,10.40378 1.70554,1.87609 4.09329,3.3258 8.52769,5.20189 l 7.33382,3.06997 c 4.60495,1.87609 5.62827,2.38775 6.65159,3.06997 2.47303,1.79082 3.75219,4.26385 3.75219,7.41909 0,7.24854 -6.05466,12.1946 -14.83818,12.1946 -5.543,0 -9.63629,-1.70554 -12.96209,-5.45772 -3.15525,-3.58163 -4.51968,-7.7602 -4.51968,-13.47375 0,-0.34111 0,-1.44971 0.0853,-2.38776 l -3.41108,-0.59694 -4.69023,24.30392 h 2.98469 l 5.03134,-5.37244 c 4.77551,4.43439 10.65961,6.65159 17.56704,6.65159 13.3032,0 22.93949,-8.27186 22.93949,-19.52841 0,-8.35713 -3.58163,-12.70625 -13.72958,-16.71427 l -7.24854,-2.89941 c -6.73687,-2.64359 -9.72156,-5.79883 -9.72156,-10.14795 0,-6.3105 5.71355,-11.17128 13.30319,-11.17128 9.03935,0 14.66763,6.90743 14.66763,18.16398 0,0.25583 0,0.93805 -0.0853,1.70554 l 3.58163,0.59694 z"
         style="font-style:italic;font-variant:normal;font-weight:normal;font-stretch:normal;font-size:85.27690125px;font-family:'Century Schoolbook L';-inkscape-font-specification:'Century Schoolbook L Italic';fill:#0066ff;fill-opacity:1"
         id="path4317" />
    </g>
    <path
       style="fill:#ffff00;stroke:none;stroke-width:0.25225827;stroke-linejoin:bevel;paint-order:markers fill stroke"
       inkscape:transform-center-x="2.7298226"
       inkscape:transform-center-y="0.16320856"
       d="m 35.408039,135.24614 12.84205,18.74566 21.12852,-8.36081 -13.859768,18.00624 14.480669,17.5108 -21.407846,-7.6172 -12.178985,19.18307 0.628988,-22.71392 -22.007692,-5.655 21.796591,-6.42079 z"
       id="path4339-3"
       inkscape:connector-curvature="0" />
    <path
       inkscape:connector-curvature="0"
       id="path61"
       d="m 41.111566,50.543581 6.344677,9.261384 10.438647,-4.130699 -6.847485,8.89607 7.154244,8.651295 L 47.625,69.458316 41.607914,78.935804 41.918668,67.713883 31.045662,64.920003 41.814373,61.747781 Z"
       inkscape:transform-center-y="0.080633773"
       inkscape:transform-center-x="1.348682"
       style="fill:#ffff00;stroke:none;stroke-width:0.12462942;stroke-linejoin:bevel;paint-order:markers fill stroke" />
    <path
       style="fill:#ffff00;stroke:none;stroke-width:0.10085748;stroke-linejoin:bevel;paint-order:markers fill stroke"
       inkscape:transform-center-x="1.0914332"
       inkscape:transform-center-y="0.065253358"
       d="m 66.042666,31.648706 5.134487,7.494858 8.447569,-3.342805 -5.541389,7.199224 5.789636,7.001139 -8.559248,-3.045497 -4.869381,7.669742 0.251481,-9.08144 -8.799078,-2.260972 8.714676,-2.56715 z"
       id="path63"
       inkscape:connector-curvature="0" />
    <path
       inkscape:connector-curvature="0"
       id="path65"
       d="m 86.883788,7.2802657 5.070476,7.4014213 8.342246,-3.301131 -5.472294,7.109473 5.717454,6.913856 -8.45254,-3.007529 -4.808675,7.574125 0.248345,-8.968223 -8.689381,-2.232786 8.606032,-2.535145 z"
       inkscape:transform-center-y="0.064439983"
       inkscape:transform-center-x="1.0778246"
       style="fill:#ffff00;stroke:none;stroke-width:0.09960011;stroke-linejoin:bevel;paint-order:markers fill stroke" />
    <path
       inkscape:connector-curvature="0"
       id="path65-6"
       d="m 75.938164,-30.808466 3.436836,5.016782 5.654491,-2.237551 -3.709199,4.818896 3.875368,4.686304 -5.729246,-2.038543 -3.259384,5.133844 0.168332,-6.078783 -5.889779,-1.513411 5.833283,-1.718356 z"
       inkscape:transform-center-y="0.04367837"
       inkscape:transform-center-x="0.73056491"
       style="fill:#ffff00;stroke:none;stroke-width:0.06751028;stroke-linejoin:bevel;paint-order:markers fill stroke" />
    <path
       inkscape:connector-curvature="0"
       id="path65-6-7"
       d="m 31.369298,-42.444199 3.436836,5.016782 5.654491,-2.237551 -3.709199,4.818896 3.875368,4.686304 -5.729246,-2.038543 -3.259384,5.133844 0.168332,-6.078783 -5.889779,-1.513411 5.833283,-1.718356 z"
       inkscape:transform-center-y="0.04367837"
       inkscape:transform-center-x="0.73056491"
       style="fill:#ffff00;stroke:none;stroke-width:0.06751028;stroke-linejoin:bevel;paint-order:markers fill stroke" />
    <path
       inkscape:connector-curvature="0"
       id="path65-6-5"
       d="m 1.7634167,-14.870905 3.436836,5.016782 5.6544913,-2.237551 -3.7091993,4.818896 3.8753683,4.686304 -5.7292463,-2.038543 -3.259384,5.133844 0.168332,-6.078783 -5.889779,-1.513411 5.833283,-1.718356 z"
       inkscape:transform-center-y="0.04367837"
       inkscape:transform-center-x="0.73056491"
       style="fill:#ffff00;stroke:none;stroke-width:0.06751028;stroke-linejoin:bevel;paint-order:markers fill stroke" />
    <path
       inkscape:connector-curvature="0"
       id="path65-6-5-3"
       d="m -21.526908,-20.162567 2.098265,3.062858 3.452194,-1.366075 -2.26455,2.942043 2.365999,2.861094 -3.497833,-1.244576 -1.989927,3.134326 0.102771,-3.711233 -3.595842,-0.923971 3.56135,-1.049095 z"
       inkscape:transform-center-y="0.026666567"
       inkscape:transform-center-x="0.44602622"
       style="fill:#ffff00;stroke:none;stroke-width:0.04121653;stroke-linejoin:bevel;paint-order:markers fill stroke" />
    <path
       inkscape:connector-curvature="0"
       id="path65-6-5-3-5"
       d="m -29.280488,-26.896851 1.38605,2.02323 2.280413,-0.902387 -1.495892,1.943423 1.562907,1.889951 -2.310562,-0.822129 -1.314485,2.070439 0.06789,-2.451526 -2.375303,-0.610347 2.352519,-0.693 z"
       inkscape:transform-center-y="0.017614894"
       inkscape:transform-center-x="0.29463003"
       style="fill:#ffff00;stroke:none;stroke-width:0.02722637;stroke-linejoin:bevel;paint-order:markers fill stroke" />
    <path
       inkscape:connector-curvature="0"
       id="path65-6-5-3-5-6"
       d="m -34.909953,-34.834348 1.173128,1.712428 1.930105,-0.763765 -1.266098,1.644881 1.322818,1.599622 -1.955622,-0.695836 -1.112557,1.752385 0.05746,-2.07493 -2.010417,-0.516588 1.991133,-0.586544 z"
       inkscape:transform-center-y="0.014908854"
       inkscape:transform-center-x="0.24937043"
       style="fill:#ffff00;stroke:none;stroke-width:0.02304394;stroke-linejoin:bevel;paint-order:markers fill stroke" />
    <path
       inkscape:connector-curvature="0"
       id="path65-6-5-3-5-6-2"
       d="m -26.915733,-37.32368 1.173128,1.712428 1.930105,-0.763765 -1.266098,1.644881 1.322818,1.599622 -1.955622,-0.695836 -1.112557,1.752385 0.05746,-2.07493 -2.010417,-0.516588 1.991133,-0.586544 z"
       inkscape:transform-center-y="0.014908854"
       inkscape:transform-center-x="0.24937043"
       style="fill:#ffff00;stroke:none;stroke-width:0.02304394;stroke-linejoin:bevel;paint-order:markers fill stroke" />
    <path
       inkscape:connector-curvature="0"
       id="path65-6-5-3-5-6-9"
       d="m -19.725164,-45.164014 1.173128,1.712428 1.930105,-0.763765 -1.266098,1.644881 1.322818,1.599622 -1.955622,-0.695836 -1.112557,1.752385 0.05746,-2.07493 -2.010417,-0.516588 1.991133,-0.586544 z"
       inkscape:transform-center-y="0.014908854"
       inkscape:transform-center-x="0.24937043"
       style="fill:#ffff00;stroke:none;stroke-width:0.02304394;stroke-linejoin:bevel;paint-order:markers fill stroke" />
    <path
       inkscape:connector-curvature="0"
       id="path65-6-5-3-5-6-1"
       d="m -26.607567,-44.841469 1.173128,1.712428 1.930105,-0.763765 -1.266098,1.644881 1.322818,1.599622 -1.955622,-0.695836 -1.112557,1.752385 0.05746,-2.07493 -2.010417,-0.516588 1.991133,-0.586544 z"
       inkscape:transform-center-y="0.014908854"
       inkscape:transform-center-x="0.24937043"
       style="fill:#ffff00;stroke:none;stroke-width:0.02304394;stroke-linejoin:bevel;paint-order:markers fill stroke" />
  </g>
</svg>
