<?xml version="1.0" encoding="UTF-8" standalone="no"?>
<!-- Created with Inkscape (http://www.inkscape.org/) -->

<svg
   xmlns:dc="http://purl.org/dc/elements/1.1/"
   xmlns:cc="http://creativecommons.org/ns#"
   xmlns:rdf="http://www.w3.org/1999/02/22-rdf-syntax-ns#"
   xmlns:svg="http://www.w3.org/2000/svg"
   xmlns="http://www.w3.org/2000/svg"
   xmlns:sodipodi="http://sodipodi.sourceforge.net/DTD/sodipodi-0.dtd"
   xmlns:inkscape="http://www.inkscape.org/namespaces/inkscape"
   width="1920"
   height="1080"
   viewBox="0 0 507.99999 285.75001"
   version="1.1"
   id="svg8"
   inkscape:version="0.92.2 (5c3e80d, 2017-08-06)"
   sodipodi:docname="sezsez.svg"
   inkscape:export-filename="/home/mbrickn/Projects/Operation-Ohio-Source/Internal/images/vector/overlay characters/sezsez.png"
   inkscape:export-xdpi="96"
   inkscape:export-ydpi="96">
  <defs
     id="defs2" />
  <sodipodi:namedview
     id="base"
     pagecolor="#ffffff"
     bordercolor="#666666"
     borderopacity="1.0"
     inkscape:pageopacity="0.0"
     inkscape:pageshadow="2"
     inkscape:zoom="0.24748737"
     inkscape:cx="436.3562"
     inkscape:cy="799.05388"
     inkscape:document-units="mm"
     inkscape:current-layer="layer1"
     inkscape:document-rotation="0"
     showgrid="false"
     units="px"
     inkscape:window-width="1440"
     inkscape:window-height="863"
     inkscape:window-x="1920"
     inkscape:window-y="0"
     inkscape:window-maximized="1">
    <inkscape:grid
       type="xygrid"
       id="grid4267" />
  </sodipodi:namedview>
  <metadata
     id="metadata5">
    <rdf:RDF>
      <cc:Work
         rdf:about="">
        <dc:format>image/svg+xml</dc:format>
        <dc:type
           rdf:resource="http://purl.org/dc/dcmitype/StillImage" />
        <dc:title />
        <cc:license
           rdf:resource="http://creativecommons.org/licenses/by/4.0/" />
      </cc:Work>
      <cc:License
         rdf:about="http://creativecommons.org/licenses/by/4.0/">
        <cc:permits
           rdf:resource="http://creativecommons.org/ns#Reproduction" />
        <cc:permits
           rdf:resource="http://creativecommons.org/ns#Distribution" />
        <cc:requires
           rdf:resource="http://creativecommons.org/ns#Notice" />
        <cc:requires
           rdf:resource="http://creativecommons.org/ns#Attribution" />
        <cc:permits
           rdf:resource="http://creativecommons.org/ns#DerivativeWorks" />
      </cc:License>
    </rdf:RDF>
  </metadata>
  <g
     inkscape:label="Layer 1"
     inkscape:groupmode="layer"
     id="layer1"
     transform="translate(0,-11.249983)">
    <rect
       style="fill:#ececec;stroke-width:1.26499999;stroke-linejoin:bevel;paint-order:markers fill stroke"
       id="rect4331"
       width="836.08331"
       height="349.25"
       x="-158.2867"
       y="-22.953846" />
    <g
       aria-label="SEZSEZ I"
       transform="matrix(1.0122348,0.01618012,-0.01618012,1.0122348,-57.030391,-84.654234)"
       style="font-size:40px;line-height:1.25;font-family:'Noto Sans Tagalog';-inkscape-font-specification:'Noto Sans Tagalog';letter-spacing:0px;word-spacing:0px"
       id="flowRoot4331">
      <path
         d="m 86.08,158.75477 c 10.76,0 15.84,-8.76 16.04,-12.32 0.24,-4.76 -4.72,-6.4 -4.6,-8.4 0.16,-3.04 1.44,-3.8 4.44,-3.8 0.56,0 1.16,0.04 1.84,0.08 3.04,-0.4 4,-1.6 4.04,-2.84 1.4,-0.08 2.88,-1.2 2.92,-2.52 0.04,-0.48 -0.12,-0.96 -0.52,-1.48 l -0.36,-0.32 c -0.8,-0.68 -1.48,-1.4 -2.72,-1.6 -1.08,-0.16 -2.12,-0.28 -3,-0.28 -3.28,0 -5.92,1.04 -8.36,2.2 -2.96,1.44 -6.24,4.44 -7.72,9.36 -0.2,0.72 -0.32,1.36 -0.32,1.96 -0.16,3.08 1.76,5.16 3.92,7.16 0.88,0.8 1.68,1.6 1.64,2.48 -0.04,0.84 -1.2,1.84 -3.96,2.72 -0.4,0.16 -0.96,0.24 -1.48,0.24 -1.6,0 -3.56,-0.72 -5.12,-0.72 -1.96,0 -3.32,1.92 -3.4,3.6 -0.12,2.48 2.36,4.48 6.16,4.48 0.2,0 0.36,0 0.56,0 z"
         style="font-style:normal;font-variant:normal;font-weight:normal;font-stretch:normal;font-family:Knewave;-inkscape-font-specification:Knewave;fill:#e82b2b;fill-opacity:1"
         id="path4343"
         inkscape:connector-curvature="0" />
      <path
         d="m 129.98,125.59477 c -0.64,-0.08 -1.32,-0.16 -1.96,-0.16 -3.28,0 -7.68,1.28 -11.8,2.76 -1.64,0.76 -1.24,3.48 -2.44,5.2 -5.72,8.16 -9.32,14.56 -10.88,22.88 -0.04,0.12 -0.08,0.24 -0.08,0.36 -0.16,2.92 5.28,2.64 6.96,2.64 2.12,0 3.92,-0.28 6.44,-0.92 h -0.04 c 2.28,-0.8 4.48,-3 4.52,-3.8 0,-0.12 -0.04,-0.2 -0.08,-0.24 -0.6,-0.28 -0.8,-0.68 -0.76,-1.08 0,-0.28 0.12,-0.56 0.16,-0.84 0,-0.28 -0.12,-0.56 -0.56,-0.76 -1.64,0.2 -2.6,0.32 -3.68,0.32 -0.52,0 -3.68,0.04 -3.64,-0.64 0.08,-1.16 2.52,-4.6 3.48,-5.76 2.8,-0.16 1.68,-0.2 3.76,-0.6 h -0.04 c 2.32,-0.76 3.84,-2.76 4.64,-4.4 0.08,-0.16 0.16,-0.32 0.16,-0.4 0,-0.32 -0.28,-0.4 -0.68,-0.4 -0.92,0 -2.36,0.36 -3.68,0.36 -0.44,0 -0.92,-0.08 -1.48,-0.32 l 0.48,-1.04 c 0.48,-1.12 1.16,-2.12 2.12,-3.24 l 0.24,-0.28 c 1,-1.2 2.04,-1.56 4.96,-2.28 3.28,-0.48 5.8,-3.44 5.88,-5.52 0.08,-1 -0.52,-1.8 -1.96,-1.84 z"
         style="font-style:normal;font-variant:normal;font-weight:normal;font-stretch:normal;font-family:Knewave;-inkscape-font-specification:Knewave;fill:#e82b2b;fill-opacity:1"
         id="path4345"
         inkscape:connector-curvature="0" />
      <path
         d="m 138.58812,151.23477 c -0.16,-0.2 -0.24,-0.44 -0.24,-0.72 0.12,-2.4 12.64,-11.64 14.8,-20.36 0.04,-0.28 0.08,-0.56 0.08,-0.8 0.12,-2.16 -0.8,-2.24 -1.76,-2.48 l -0.64,-0.16 0.16,-0.92 c -0.36,-0.48 -0.76,-0.72 -1.48,-0.92 h 0.04 c -0.48,-0.04 -0.96,-0.04 -1.48,-0.04 -5,0 -13.4,2.44 -13.6,6.24 -0.16,2.52 3.28001,2.6 5.24,2.6 1.2,0 2.52,-0.16 3.92,-0.44 -0.96,1.52 -1.24,1.88 -1.52,2.2 l -0.2,0.24 c -5.16,5.44 -9.12,8.12 -14.12,13.76 l -0.52,0.6 c -2.2,2.56 -3,3.32 -3.12,5.64 -0.16,3.76 4.04001,3.64 7.2,3.64 6.48,0 13.68,-1.88 13.92,-6.04 0.04,-0.96 -0.6,-1.56 -2.24,-1.56 z"
         style="font-style:normal;font-variant:normal;font-weight:normal;font-stretch:normal;font-family:Knewave;-inkscape-font-specification:Knewave;fill:#e82b2b;fill-opacity:1"
         id="path4347"
         inkscape:connector-curvature="0" />
      <path
         d="m 152.72062,158.75477 c 10.76,0 15.84001,-8.76 16.04,-12.32 0.24001,-4.76 -4.72,-6.4 -4.6,-8.4 0.16,-3.04 1.44,-3.8 4.44,-3.8 0.56,0 1.16,0.04 1.84,0.08 3.04,-0.4 4,-1.6 4.04,-2.84 1.4,-0.08 2.88,-1.2 2.92,-2.52 0.04,-0.48 -0.12,-0.96 -0.52,-1.48 l -0.36,-0.32 c -0.8,-0.68 -1.48,-1.4 -2.72,-1.6 -1.08,-0.16 -2.12,-0.28 -3,-0.28 -3.28,0 -5.92,1.04 -8.36,2.2 -2.96,1.44 -6.24,4.44 -7.72,9.36 -0.2,0.72 -0.32,1.36 -0.32,1.96 -0.16,3.08 1.76,5.16 3.92,7.16 0.88,0.8 1.68001,1.6 1.64,2.48 -0.04,0.84 -1.2,1.84 -3.95999,2.72 -0.40001,0.16 -0.96001,0.24 -1.48001,0.24 -1.6,0 -3.56,-0.72 -5.12,-0.72 -1.96,0 -3.32,1.92 -3.39999,3.6 -0.12001,2.48 2.35999,4.48 6.15999,4.48 0.2,0 0.36,0 0.56,0 z"
         style="font-style:normal;font-variant:normal;font-weight:normal;font-stretch:normal;font-family:Knewave;-inkscape-font-specification:Knewave;fill:#e82b2b;fill-opacity:1"
         id="path4349"
         inkscape:connector-curvature="0" />
      <path
         d="m 196.62063,125.59477 c -0.64001,-0.08 -1.32001,-0.16 -1.96001,-0.16 -3.28,0 -7.68,1.28 -11.8,2.76 -1.64,0.76 -1.24,3.48 -2.44,5.2 -5.72,8.16 -9.32,14.56 -10.88,22.88 -0.04,0.12 -0.08,0.24 -0.08,0.36 -0.16,2.92 5.28,2.64 6.96,2.64 2.12,0 3.92,-0.28 6.44,-0.92 h -0.04 c 2.28,-0.8 4.48,-3 4.52,-3.8 0,-0.12 -0.04,-0.2 -0.08,-0.24 -0.6,-0.28 -0.8,-0.68 -0.75999,-1.08 0,-0.28 0.11999,-0.56 0.15999,-0.84 0,-0.28 -0.12,-0.56 -0.56,-0.76 -1.64,0.2 -2.59999,0.32 -3.68,0.32 -0.52,0 -3.68,0.04 -3.64,-0.64 0.08,-1.16 2.52,-4.6 3.48,-5.76 2.80001,-0.16 1.68,-0.2 3.76,-0.6 h -0.04 c 2.32,-0.76 3.84,-2.76 4.64,-4.4 0.08,-0.16 0.16,-0.32 0.16,-0.4 0,-0.32 -0.27999,-0.4 -0.68,-0.4 -0.92,0 -2.36,0.36 -3.68,0.36 -0.44,0 -0.91999,-0.08 -1.48,-0.32 l 0.48,-1.04 c 0.48,-1.12 1.16,-2.12 2.12,-3.24 l 0.24,-0.28 c 1,-1.2 2.04,-1.56 4.96,-2.28 3.28,-0.48 5.8,-3.44 5.88,-5.52 0.08,-1 -0.52,-1.8 -1.96,-1.84 z"
         style="font-style:normal;font-variant:normal;font-weight:normal;font-stretch:normal;font-family:Knewave;-inkscape-font-specification:Knewave;fill:#e82b2b;fill-opacity:1"
         id="path4351"
         inkscape:connector-curvature="0" />
      <path
         d="m 205.22875,151.23477 c -0.16,-0.2 -0.24,-0.44 -0.24,-0.72 0.12,-2.4 12.64,-11.64 14.8,-20.36 0.04,-0.28 0.08,-0.56 0.08,-0.8 0.12,-2.16 -0.8,-2.24 -1.76,-2.48 l -0.64,-0.16 0.16,-0.92 c -0.36,-0.48 -0.76,-0.72 -1.48,-0.92 h 0.04 c -0.48,-0.04 -0.96,-0.04 -1.48,-0.04 -5,0 -13.4,2.44 -13.6,6.24 -0.16,2.52 3.28,2.6 5.24,2.6 1.2,0 2.52,-0.16 3.92,-0.44 -0.96,1.52 -1.24,1.88 -1.52,2.2 l -0.2,0.24 c -5.16,5.44 -9.12,8.12 -14.12,13.76 l -0.52,0.6 c -2.2,2.56 -3,3.32 -3.12,5.64 -0.16,3.76 4.04,3.64 7.2,3.64 6.48,0 13.68,-1.88 13.92,-6.04 0.04,-0.96 -0.6,-1.56 -2.24,-1.56 z"
         style="font-style:normal;font-variant:normal;font-weight:normal;font-stretch:normal;font-family:Knewave;-inkscape-font-specification:Knewave;fill:#e82b2b;fill-opacity:1"
         id="path4353"
         inkscape:connector-curvature="0" />
      <path
         d="m 236.63044,173.58579 c 4.43868,0.0164 7.96048,-0.16887 10.56527,-0.55591 5.75174,-0.86982 6.5574,-2.68451 4.60825,-4.23112 -1.7242,-1.36814 -6.09745,-2.55959 -11.5588,-2.68638 -14.48869,-0.27859 -8.7252,-3.76828 -26.25115,-4.52879 -29.10997,-1.18821 -90.92504,-0.4577 -125.200451,-0.66146 -8.110386,0.0499 -15.017402,0.17833 -18.88711,0.7886 -4.953977,0.80169 -6.345939,2.50173 -1.473129,6.36826 2.024056,1.60608 10.124348,7.15717 31.61624,5.98147 33.57001,-0.18075 72.0592,-0.13904 136.50591,-0.53417 z"
         style="font-style:normal;font-variant:normal;font-weight:normal;font-stretch:normal;font-family:Knewave;-inkscape-font-specification:Knewave;fill:#e82b2b;fill-opacity:1;stroke-width:2.86577272"
         id="path4355"
         inkscape:connector-curvature="0" />
      <path
         inkscape:connector-curvature="0"
         id="path4358"
         style="font-style:normal;font-variant:normal;font-weight:normal;font-stretch:normal;font-family:Knewave;-inkscape-font-specification:Knewave;fill:#e82b2b;fill-opacity:1;stroke-width:2.86577272"
         d="m 236.63105,121.30786 c 4.43868,0.016 7.96047,-0.16965 10.56521,-0.55695 5.75166,-0.87037 6.55714,-2.68514 4.60784,-4.23156 -1.72433,-1.36797 -6.0977,-2.55899 -11.55906,-2.68525 -14.48872,-0.27718 -8.72557,-3.76743 -26.25159,-4.52624 -29.11009,-1.18539 -90.92509,-0.44885 -125.200514,-0.64928 -8.110381,0.0507 -15.017385,0.17979 -18.887033,0.79043 -4.953899,0.80218 -6.345696,2.50236 -1.472509,6.36841 2.024212,1.60589 10.125043,7.15618 31.616816,5.97839 33.57,-0.18401 72.05919,-0.14605 136.50586,-0.54745 z" />
    </g>
    <g
       aria-label="SEZ"
       transform="matrix(0.26458333,0,0,0.26458333,0,11.249983)"
       style="font-size:40px;line-height:1.25;font-family:'Noto Sans Tagalog';-inkscape-font-specification:'Noto Sans Tagalog';letter-spacing:0px;word-spacing:0px;fill:#e82b2b;fill-opacity:1"
       id="flowRoot4360">
      <path
         d="m 152.37339,449.65807 c 30.15326,0 44.38918,-24.54856 44.94965,-34.52492 0.67257,-13.33917 -13.22708,-17.93502 -12.89079,-23.53972 0.44837,-8.51913 4.03538,-10.64892 12.44242,-10.64892 1.56931,0 3.25072,0.1121 5.15632,0.22419 8.51913,-1.12094 11.20939,-4.48376 11.32148,-7.95867 3.92329,-0.22418 8.07076,-3.36281 8.18286,-7.06191 0.11209,-1.34513 -0.33629,-2.69026 -1.45723,-4.14748 l -1.00884,-0.89675 c -2.24188,-1.90559 -4.14747,-3.92328 -7.62239,-4.48375 -3.02653,-0.44838 -5.94097,-0.78466 -8.40704,-0.78466 -9.1917,0 -16.58989,2.91444 -23.42762,6.16516 -8.29495,4.03538 -17.48665,12.44243 -21.63412,26.22998 -0.56047,2.01769 -0.89675,3.81119 -0.89675,5.4926 -0.44838,8.63123 4.93213,14.46011 10.9852,20.0648 2.46606,2.24188 4.70794,4.48376 4.59585,6.94983 -0.1121,2.35397 -3.36282,5.15631 -11.0973,7.62238 -1.12094,0.44838 -2.69025,0.67256 -4.14747,0.67256 -4.48376,0 -9.97636,-2.01769 -14.34802,-2.01769 -5.49257,0 -9.30377,5.38051 -9.52795,10.08845 -0.33629,6.94983 6.61351,12.55452 17.26243,12.55452 0.56047,0 1.00884,0 1.56931,0 z"
         style="font-style:normal;font-variant:normal;font-weight:normal;font-stretch:normal;font-family:Knewave;-inkscape-font-specification:Knewave;stroke-width:2.80234742"
         id="path4368"
         inkscape:connector-curvature="0" />
      <path
         d="m 300.06412,393.97148 c -2.51303,-0.31413 -5.18314,-0.62826 -7.69618,-0.62826 -12.87932,0 -30.15645,5.02607 -46.33413,10.83747 -6.43966,2.98424 -4.86901,13.66465 -9.58096,20.41843 -22.46026,32.04124 -36.59611,57.17161 -42.72164,89.8411 -0.15706,0.47119 -0.31412,0.94239 -0.31412,1.41358 -0.62826,11.46574 20.73256,10.36629 27.32928,10.36629 8.32444,0 15.39236,-1.09946 25.28744,-3.6125 h -0.15706 c 8.9527,-3.14129 17.59126,-11.77986 17.74832,-14.92116 0,-0.47119 -0.15706,-0.78532 -0.31413,-0.94239 -2.35597,-1.09945 -3.14129,-2.6701 -2.98423,-4.24075 0,-1.09945 0.4712,-2.1989 0.62826,-3.29836 0,-1.09946 -0.47119,-2.19891 -2.1989,-2.98423 -6.43966,0.78532 -10.20922,1.25652 -14.44997,1.25652 -2.04184,0 -14.44997,0.15706 -14.2929,-2.51304 0.31413,-4.55488 9.89509,-18.06246 13.66464,-22.61734 10.99454,-0.62826 6.59672,-0.78532 14.76409,-2.35597 h -0.15706 c 9.10976,-2.98424 15.07822,-10.83748 18.21952,-17.27714 0.31413,-0.62826 0.62826,-1.25652 0.62826,-1.57065 0,-1.25651 -1.09945,-1.57064 -2.6701,-1.57064 -3.61249,0 -9.26683,1.41358 -14.44997,1.41358 -1.72771,0 -3.61249,-0.31413 -5.8114,-1.25652 l 1.88478,-4.08368 c 1.88478,-4.39782 4.55488,-8.32444 8.32444,-12.72226 l 0.94239,-1.09945 c 3.92662,-4.71195 8.0103,-6.12553 19.47604,-8.9527 12.87932,-1.88478 22.77441,-13.50758 23.08853,-21.67495 0.31413,-3.92662 -2.04184,-7.06792 -7.69618,-7.22498 z"
         style="font-style:normal;font-variant:normal;font-weight:normal;font-stretch:normal;font-family:Knewave;-inkscape-font-specification:Knewave;stroke-width:3.9266212"
         id="path4370"
         inkscape:connector-curvature="0" />
      <path
         d="m 312.5539,539.91264 c -0.57682,-0.72103 -0.86524,-1.58628 -0.86524,-2.59572 0.43262,-8.65237 45.56912,-41.96397 53.35625,-73.4009 0.14422,-1.00945 0.28843,-2.0189 0.28843,-2.88412 0.43261,-7.78713 -2.88413,-8.07554 -6.34507,-8.94079 l -2.3073,-0.57682 0.57681,-3.31674 c -1.29785,-1.73047 -2.73991,-2.59572 -5.33561,-3.31675 h 0.1442 c -1.73047,-0.1442 -3.46094,-0.1442 -5.33563,-0.1442 -18.02576,0 -48.30904,8.79657 -49.03007,22.49615 -0.57682,9.08498 11.82489,9.37341 18.89099,9.37341 4.32619,0 9.085,-0.57684 14.13221,-1.58628 -3.46095,5.47984 -4.47039,6.77769 -5.47983,7.93134 l -0.72104,0.86523 c -18.60258,19.61204 -32.87899,29.27385 -50.90475,49.60691 l -1.87468,2.16309 c -7.93133,9.22919 -10.81546,11.96911 -11.24808,20.33305 -0.57682,13.55538 14.56482,13.12276 25.95711,13.12276 23.36139,0 49.31848,-6.77769 50.18372,-21.77511 0.1442,-3.46095 -2.16309,-5.62404 -8.07554,-5.62404 z"
         style="font-style:normal;font-variant:normal;font-weight:normal;font-stretch:normal;font-family:Knewave;-inkscape-font-specification:Knewave;stroke-width:3.60515261"
         id="path4372"
         inkscape:connector-curvature="0" />
    </g>
    <g
       id="g4381"
       style="font-size:40px;line-height:1.25;font-family:'Noto Sans Tagalog';-inkscape-font-specification:'Noto Sans Tagalog';letter-spacing:0px;word-spacing:0px;fill:#e82b2b;fill-opacity:1"
       transform="matrix(0.9834512,0,0,0.9834512,67.724711,-327.56931)"
       aria-label="SEZ">
      <path
         inkscape:connector-curvature="0"
         id="path4375"
         style="font-style:normal;font-variant:normal;font-weight:normal;font-stretch:normal;font-family:Knewave;-inkscape-font-specification:Knewave;stroke-width:2.80234742;fill:#000000"
         d="m 152.37339,449.65807 c 30.15326,0 44.38918,-24.54856 44.94965,-34.52492 0.67257,-13.33917 -13.22708,-17.93502 -12.89079,-23.53972 0.44837,-8.51913 4.03538,-10.64892 12.44242,-10.64892 1.56931,0 3.25072,0.1121 5.15632,0.22419 8.51913,-1.12094 11.20939,-4.48376 11.32148,-7.95867 3.92329,-0.22418 8.07076,-3.36281 8.18286,-7.06191 0.11209,-1.34513 -0.33629,-2.69026 -1.45723,-4.14748 l -1.00884,-0.89675 c -2.24188,-1.90559 -4.14747,-3.92328 -7.62239,-4.48375 -3.02653,-0.44838 -5.94097,-0.78466 -8.40704,-0.78466 -9.1917,0 -16.58989,2.91444 -23.42762,6.16516 -8.29495,4.03538 -17.48665,12.44243 -21.63412,26.22998 -0.56047,2.01769 -0.89675,3.81119 -0.89675,5.4926 -0.44838,8.63123 4.93213,14.46011 10.9852,20.0648 2.46606,2.24188 4.70794,4.48376 4.59585,6.94983 -0.1121,2.35397 -3.36282,5.15631 -11.0973,7.62238 -1.12094,0.44838 -2.69025,0.67256 -4.14747,0.67256 -4.48376,0 -9.97636,-2.01769 -14.34802,-2.01769 -5.49257,0 -9.30377,5.38051 -9.52795,10.08845 -0.33629,6.94983 6.61351,12.55452 17.26243,12.55452 0.56047,0 1.00884,0 1.56931,0 z" />
      <path
         inkscape:connector-curvature="0"
         id="path4377"
         style="font-style:normal;font-variant:normal;font-weight:normal;font-stretch:normal;font-family:Knewave;-inkscape-font-specification:Knewave;stroke-width:3.9266212;fill:#000000"
         d="m 316.95613,344.59482 c -2.51303,-0.31413 -5.18314,-0.62826 -7.69618,-0.62826 -12.87932,0 -30.15645,5.02607 -46.33413,10.83747 -6.43966,2.98424 -4.86901,13.66465 -9.58096,20.41843 -22.46026,32.04124 -36.59611,57.17161 -42.72164,89.8411 -0.15706,0.47119 -0.31412,0.94239 -0.31412,1.41358 -0.62826,11.46574 20.73256,10.36629 27.32928,10.36629 8.32444,0 15.39236,-1.09946 25.28744,-3.6125 h -0.15706 c 8.9527,-3.14129 17.59126,-11.77986 17.74832,-14.92116 0,-0.47119 -0.15706,-0.78532 -0.31413,-0.94239 -2.35597,-1.09945 -3.14129,-2.6701 -2.98423,-4.24075 0,-1.09945 0.4712,-2.1989 0.62826,-3.29836 0,-1.09946 -0.47119,-2.19891 -2.1989,-2.98423 -6.43966,0.78532 -10.20922,1.25652 -14.44997,1.25652 -2.04184,0 -14.44997,0.15706 -14.2929,-2.51304 0.31413,-4.55488 9.89509,-18.06246 13.66464,-22.61734 10.99454,-0.62826 6.59672,-0.78532 14.76409,-2.35597 h -0.15706 c 9.10976,-2.98424 15.07822,-10.83748 18.21952,-17.27714 0.31413,-0.62826 0.62826,-1.25652 0.62826,-1.57065 0,-1.25651 -1.09945,-1.57064 -2.6701,-1.57064 -3.61249,0 -9.26683,1.41358 -14.44997,1.41358 -1.72771,0 -3.61249,-0.31413 -5.8114,-1.25652 l 1.88478,-4.08368 c 1.88478,-4.39782 4.55488,-8.32444 8.32444,-12.72226 l 0.94239,-1.09945 c 3.92662,-4.71195 8.0103,-6.12553 19.47604,-8.9527 12.87932,-1.88478 22.77441,-13.50758 23.08853,-21.67495 0.31413,-3.92662 -2.04184,-7.06792 -7.69618,-7.22498 z" />
      <path
         inkscape:connector-curvature="0"
         id="path4379"
         style="font-style:normal;font-variant:normal;font-weight:normal;font-stretch:normal;font-family:Knewave;-inkscape-font-specification:Knewave;stroke-width:3.60515261;fill:#000000"
         d="m 362.24479,442.63281 c -0.57682,-0.72103 -0.86524,-1.58628 -0.86524,-2.59572 0.43262,-8.65237 45.56912,-41.96397 53.35625,-73.4009 0.14422,-1.00945 0.28843,-2.0189 0.28843,-2.88412 0.43261,-7.78713 -2.88413,-8.07554 -6.34507,-8.94079 l -2.3073,-0.57682 0.57681,-3.31674 c -1.29785,-1.73047 -2.73991,-2.59572 -5.33561,-3.31675 h 0.1442 c -1.73047,-0.1442 -3.46094,-0.1442 -5.33563,-0.1442 -18.02576,0 -48.30904,8.79657 -49.03007,22.49615 -0.57682,9.08498 11.82489,9.37341 18.89099,9.37341 4.32619,0 9.085,-0.57684 14.13221,-1.58628 -3.46095,5.47984 -4.47039,6.77769 -5.47983,7.93134 l -0.72104,0.86523 c -18.60258,19.61204 -32.87899,29.27385 -50.90475,49.60691 l -1.87468,2.16309 c -7.93133,9.22919 -10.81546,11.96911 -11.24808,20.33305 -0.57682,13.55538 14.56482,13.12276 25.95711,13.12276 23.36139,0 49.31848,-6.77769 50.18372,-21.77511 0.1442,-3.46095 -2.16309,-5.62404 -8.07554,-5.62404 z" />
      <g
         aria-label="WHO"
         transform="matrix(0.26903555,0,0,0.26903555,-68.864333,344.5207)"
         style="font-size:40px;line-height:1.25;font-family:'Noto Sans Tagalog';-inkscape-font-specification:'Noto Sans Tagalog';letter-spacing:0px;word-spacing:0px;fill:#000000"
         id="flowRoot4383">
        <path
           d="m 1076.4384,552.43044 c -1.457,-27.19768 -19.9126,-37.88248 -43.2249,-37.88248 -19.9125,0 -41.28219,8.25644 -59.73772,20.88392 -8.74211,6.31376 -14.08451,6.31376 -16.99853,6.79943 -2.42837,0 -3.88539,-0.48567 -5.82809,-0.48567 -11.65614,0 -39.33949,42.73919 -95.67751,150.07286 l -3.88539,-1.45702 c 0.48567,-2.91402 0.48567,-6.31374 0.97134,-9.22778 1.45703,-27.19766 -15.05585,-55.36668 -38.85381,-55.36668 -7.28509,0 -15.05586,2.42835 -22.82661,8.25644 -25.74067,27.19766 -33.02575,36.42544 -47.59593,57.79504 -2.42837,1.9427 -4.37106,2.42837 -5.3424,2.42837 -1.9427,0 -2.91404,-1.94269 -2.42837,-5.3424 0.48567,-9.22778 7.2851,-29.14036 8.74211,-37.3968 5.3424,-33.9971 11.17047,-44.19622 18.45557,-89.84945 0.48567,-2.42837 0.97134,-4.37106 0.97134,-6.79943 0.48567,-10.6848 -7.77077,-17.96988 -19.42691,-17.96988 -20.39825,0 -51.48131,18.94122 -71.39389,72.85091 v -0.48569 l -16.51287,51.96699 c -21.36961,66.53717 -43.71055,143.75913 -52.93833,224.86647 2.91404,21.3696 21.85527,26.22633 40.7965,26.22633 1.9427,0 3.88539,0 5.82809,0 h -0.48569 c 16.99855,-1.9427 40.31085,-20.88393 59.25209,-37.3968 l 22.34093,-17.48423 4.85673,34.48278 c 5.3424,16.0272 20.88394,24.76931 38.85382,24.76931 16.51288,0 36.42546,-7.77077 50.0243,-20.88394 74.30792,-68.96552 119.96115,-152.01556 175.32781,-230.20886 20.88392,-27.68335 43.71052,-70.42254 68.96552,-98.10589 h -0.4857 l 4.3712,-7.2851 c 0.9712,-1.45701 1.4569,-0.97134 3.8853,-7.77075 z"
           style="font-style:normal;font-variant:normal;font-weight:normal;font-stretch:normal;font-size:192px;font-family:Knewave;-inkscape-font-specification:Knewave;stroke-width:2.52954555;fill:#000000"
           id="path4391"
           inkscape:connector-curvature="0" />
        <path
           d="m 1140.2156,818.41921 c 23.7365,-12.81772 31.3322,-11.86826 49.8467,-20.4134 l 8.0704,-3.79784 13.7672,-3.32311 c -20.4134,41.30152 -56.9676,95.42075 -74.0579,145.74215 -2.3737,5.22203 -3.3231,9.01987 -3.7979,12.81771 -0.4747,13.76718 11.8683,19.46394 26.5849,19.46394 15.1914,0 33.2311,-6.17149 40.8268,-16.14083 v 0.47473 c 12.343,-22.78704 28.0091,-4.7473 42.251,-40.35206 52.2203,-131.02552 112.0362,-242.5871 141.4695,-295.75687 l 14.7168,-26.58489 c 3.3231,-5.69676 4.7473,-10.44406 5.2221,-14.71663 0.4747,-12.81772 -12.8177,-18.51448 -29.4336,-18.98921 -60.2906,1.89892 -71.2093,37.97841 -119.1571,148.59053 v -0.47473 c -0.4747,0.47473 -0.9495,1.42419 -0.9495,1.89892 l -4.7473,8.54515 c -3.3231,-0.47473 -6.6462,-0.47473 -9.9693,-0.47473 -20.4134,0 -37.0289,8.07041 -56.4929,8.07041 -1.4242,0 -3.3231,-0.47473 -5.222,-0.47473 28.9585,-46.52356 49.8467,-81.17886 77.381,-130.55079 h -0.4747 c 2.8484,-6.17149 4.7473,-10.91879 4.7473,-14.71663 0.9494,-11.86826 -9.4946,-17.09029 -24.2113,-17.09029 -30.8574,0 -78.3304,21.83759 -87.3503,52.69505 l -14.2419,25.16069 c -48.8972,86.87562 -90.6734,155.71149 -147.16632,295.28215 -1.42419,4.27257 -2.84838,7.59568 -2.84838,10.91879 -0.94946,14.71664 13.76717,21.83759 31.3322,21.83759 20.8881,0 45.5741,-9.01987 55.0687,-26.11016 6.6462,-9.96933 11.3935,-20.88813 17.0903,-32.28165 l 10.9188,-22.31232 36.0794,-60.76545 z"
           style="font-style:normal;font-variant:normal;font-weight:normal;font-stretch:normal;font-size:192px;font-family:Knewave;-inkscape-font-specification:Knewave;stroke-width:2.47255278;fill:#000000"
           id="path4393"
           inkscape:connector-curvature="0" />
        <path
           d="m 1505.6039,617.84947 c -30.0678,21.54111 -67.3162,65.96964 -86.6132,95.13989 v -0.44877 c -29.1702,47.12116 -62.8283,111.74448 -65.521,164.6997 -2.2438,43.53099 20.6435,91.99847 90.2036,91.99847 62.8282,0 114.4371,-48.46748 151.2365,-95.58865 40.8383,-52.95522 87.0619,-140.01719 90.6521,-205.53805 0.4488,-11.21933 -0.4488,-22.43866 -2.6926,-32.31166 l -1.7951,-10.32178 c -1.3463,-5.38528 -3.1414,-10.77056 -3.1414,-13.46319 -9.873,-16.60461 -26.4776,-27.37516 -44.8773,-27.37516 -11.2193,0 -23.3362,4.48773 -35.0043,14.80951 -8.0779,-3.14141 -17.0534,-4.48773 -25.1313,-4.48773 -21.9901,0 -46.2236,8.07791 -67.316,22.88742 z m -31.4141,284.52211 c -3.5902,4.03896 -9.4242,7.62914 -13.4632,10.32178 l -8.0781,5.83405 c -13.0142,-5.83405 -15.7068,-27.37515 -16.6044,-33.65798 l 1.3463,-8.52669 c 21.0924,-70.00859 95.1399,-148.99264 140.466,-195.66504 -7.1804,73.15001 -52.9552,171.4313 -103.6666,221.69388 z"
           style="font-style:normal;font-variant:normal;font-weight:normal;font-stretch:normal;font-size:192px;font-family:Knewave;-inkscape-font-specification:Knewave;stroke-width:2.33735967;fill:#000000"
           id="path4395"
           inkscape:connector-curvature="0" />
      </g>
    </g>
  </g>
</svg>
