<?xml version="1.0" encoding="UTF-8" standalone="no"?>
<!-- Created with Inkscape (http://www.inkscape.org/) -->

<svg
   xmlns:dc="http://purl.org/dc/elements/1.1/"
   xmlns:cc="http://creativecommons.org/ns#"
   xmlns:rdf="http://www.w3.org/1999/02/22-rdf-syntax-ns#"
   xmlns:svg="http://www.w3.org/2000/svg"
   xmlns="http://www.w3.org/2000/svg"
   xmlns:sodipodi="http://sodipodi.sourceforge.net/DTD/sodipodi-0.dtd"
   xmlns:inkscape="http://www.inkscape.org/namespaces/inkscape"
   width="1920"
   height="1080"
   viewBox="0 0 507.99999 285.75001"
   version="1.1"
   id="svg8"
   inkscape:version="0.92.2 (5c3e80d, 2017-08-06)"
   sodipodi:docname="will.svg"
   inkscape:export-filename="/home/mbrickn/Projects/Operation-Ohio-Source/Internal/images/vector/overlay characters/will.png"
   inkscape:export-xdpi="96"
   inkscape:export-ydpi="96">
  <defs
     id="defs2" />
  <sodipodi:namedview
     id="base"
     pagecolor="#ffffff"
     bordercolor="#666666"
     borderopacity="1.0"
     inkscape:pageopacity="0.0"
     inkscape:pageshadow="2"
     inkscape:zoom="0.49497476"
     inkscape:cx="115.42672"
     inkscape:cy="191.24461"
     inkscape:document-units="mm"
     inkscape:current-layer="layer1"
     inkscape:document-rotation="0"
     showgrid="true"
     units="px"
     inkscape:window-width="1440"
     inkscape:window-height="863"
     inkscape:window-x="1920"
     inkscape:window-y="0"
     inkscape:window-maximized="1">
    <inkscape:grid
       type="xygrid"
       id="grid4267" />
  </sodipodi:namedview>
  <metadata
     id="metadata5">
    <rdf:RDF>
      <cc:Work
         rdf:about="">
        <dc:format>image/svg+xml</dc:format>
        <dc:type
           rdf:resource="http://purl.org/dc/dcmitype/StillImage" />
        <dc:title />
        <cc:license
           rdf:resource="http://creativecommons.org/licenses/by/4.0/" />
      </cc:Work>
      <cc:License
         rdf:about="http://creativecommons.org/licenses/by/4.0/">
        <cc:permits
           rdf:resource="http://creativecommons.org/ns#Reproduction" />
        <cc:permits
           rdf:resource="http://creativecommons.org/ns#Distribution" />
        <cc:requires
           rdf:resource="http://creativecommons.org/ns#Notice" />
        <cc:requires
           rdf:resource="http://creativecommons.org/ns#Attribution" />
        <cc:permits
           rdf:resource="http://creativecommons.org/ns#DerivativeWorks" />
      </cc:License>
    </rdf:RDF>
  </metadata>
  <g
     inkscape:label="Layer 1"
     inkscape:groupmode="layer"
     id="layer1"
     transform="translate(0,-11.249983)">
    <path
       style="fill:#ffe6d5;stroke-width:1.26499999;stroke-linejoin:bevel;paint-order:markers fill stroke"
       d="m -26.45835,-9.916682 h 560.9167 V 318.16665 h -560.9167 z"
       id="rect4383"
       inkscape:connector-curvature="0" />
    <g
       transform="matrix(0.39204013,0,0,0.39204013,-122.3944,74.722457)"
       style="font-size:40px;line-height:1.25;font-family:'Noto Sans Tagalog';-inkscape-font-specification:'Noto Sans Tagalog';letter-spacing:0px;word-spacing:0px"
       id="flowRoot4353" />
    <g
       aria-label="WANTED DEAD OR ALIVE WILD WYOMING WILLIAM A SHARP SHOOTER PERSECUTOR"
       transform="matrix(0.2746105,0,0,0.2746105,-69.836698,17.058003)"
       style="font-size:40px;line-height:1.25;font-family:'Noto Sans Tagalog';-inkscape-font-specification:'Noto Sans Tagalog';letter-spacing:0px;word-spacing:0px"
       id="flowRoot4304">
      <g
         id="g4449">
        <path
           id="path4326"
           style="font-style:normal;font-variant:normal;font-weight:bold;font-stretch:normal;font-size:266.66665649px;font-family:'Century Schoolbook L';-inkscape-font-specification:'Century Schoolbook L Bold';text-align:center;text-anchor:middle"
           d="M 717.51668,239.15933 688.98335,144.226 c -1.33333,-4 -1.6,-5.6 -1.6,-7.2 0,-5.06667 3.2,-6.4 15.73333,-7.2 v -14.4 h -78.93333 v 14.4 c 10.4,0.53333 13.06667,2.66666 17.06667,14.13333 l 9.6,30.13333 -21.33333,66.93333 -30.93333,-95.46666 c -1.6,-4.53333 -2.13334,-7.2 -2.13334,-9.06667 0,-4.8 3.2,-6.13333 15.73333,-6.66666 v -14.4 h -82.66666 v 14.4 h 0.53333 c 12,0 15.46667,2.66666 19.73334,15.46666 l 54.4,166.66666 h 19.99999 l 35.2,-108.53333 33.33334,108.53333 h 19.46666 l 46.4,-146.39999 c 7.73333,-26.4 12.8,-32.53333 28.8,-35.73333 v -14.4 h -67.2 v 14.4 c 7.73333,0.26666 11.46667,0.8 14.93333,2.4 5.6,2.66666 9.06667,8.26666 9.06667,14.66666 0,3.73334 -0.53333,6.66667 -3.46667,16.26667 z" />
        <path
           id="path4328"
           style="font-style:normal;font-variant:normal;font-weight:bold;font-stretch:normal;font-size:266.66665649px;font-family:'Century Schoolbook L';-inkscape-font-specification:'Century Schoolbook L Bold';text-align:center;text-anchor:middle"
           d="M 882.975,111.426 822.44167,252.75933 C 810.175,281.55932 800.30834,291.95932 784.575,293.55932 v 14.4 h 77.06667 v -14.4 c -19.2,-1.06666 -26.66667,-6.13333 -26.66667,-18.4 0,-4.53333 0.8,-7.46666 4.26667,-15.19999 l 4.26667,-10.13334 h 66.39999 l 10.13334,26.13333 c 2.13333,4.8 3.2,8.8 3.2,10.93334 0,4.8 -3.46667,6.4 -15.46667,6.4 l -4.53333,0.26666 v 14.4 h 93.59999 v -14.4 c -15.2,-0.53333 -19.46666,-3.2 -25.06666,-16.8 L 903.24167,111.426 Z m -5.6,56.8 25.86667,63.73333 h -52.8 z" />
        <path
           id="path4330"
           style="font-style:normal;font-variant:normal;font-weight:bold;font-stretch:normal;font-size:266.66665649px;font-family:'Century Schoolbook L';-inkscape-font-specification:'Century Schoolbook L Bold';text-align:center;text-anchor:middle"
           d="m 1063.9792,115.426 h -67.20004 v 14.66666 c 12.00004,0.26667 21.60004,5.33334 28.26664,14.93334 v 105.06666 c 0,23.46666 -1.3333,30.13333 -6.9333,36 -4.2667,4.53333 -10.4,6.66666 -21.86667,7.2 v 14.4 h 75.99997 v -14.4 c -11.4666,-0.53334 -18.1333,-2.66667 -22.4,-7.2 -5.6,-5.86667 -6.9333,-12.53334 -6.9333,-36 v -87.73333 l 124,147.46666 h 17.8667 V 173.29266 c 0,-23.73333 1.3333,-30.4 6.9333,-36.26666 4.2667,-4.53334 11.7333,-6.93334 22.4,-7.2 v -14.4 h -76 v 14.4 c 10.4,0.26666 17.6,2.66666 21.8667,7.2 5.6,5.86666 6.9333,12.8 6.9333,36.26666 v 62.66667 z" />
        <path
           id="path4332"
           style="font-style:normal;font-variant:normal;font-weight:bold;font-stretch:normal;font-size:266.66665649px;font-family:'Century Schoolbook L';-inkscape-font-specification:'Century Schoolbook L Bold';text-align:center;text-anchor:middle"
           d="M 1398.9083,115.426 H 1222.375 l -4,72.26666 h 14.1333 c 3.4667,-19.73333 7.2,-30.13333 13.6,-39.46666 8.5334,-12.8 18.6667,-18.93334 30.9334,-18.93334 8,0 9.6,1.86667 9.6,10.93334 v 129.33332 c 0,16.8 0,17.86667 -1.8667,20 -2.4,2.93334 -8,4 -22.1333,4 h -5.8667 v 14.4 h 107.7333 v -14.4 h -5.8666 c -14.1334,0 -19.7334,-1.06666 -22.1334,-4 -1.8666,-2.13333 -1.8666,-3.2 -1.8666,-20 V 140.226 c 0,-9.06667 1.6,-10.93334 9.6,-10.93334 11.4666,0 20.2666,4.8 28.8,15.73334 7.4666,9.86666 11.7333,21.06666 15.7333,42.66666 h 14.1333 z" />
        <path
           id="path4334"
           style="font-style:normal;font-variant:normal;font-weight:bold;font-stretch:normal;font-size:266.66665649px;font-family:'Century Schoolbook L';-inkscape-font-specification:'Century Schoolbook L Bold';text-align:center;text-anchor:middle"
           d="M 1590.2833,115.426 H 1411.35 v 14.4 h 4 c 13.8667,0 19.4666,1.06666 21.8666,4 1.8667,2.13333 1.8667,3.2 1.8667,20 v 115.73332 c 0,16.8 0,17.86667 -1.8667,20 -2.4,2.93334 -7.9999,4 -21.8666,4 h -4 v 14.4 h 181.0666 l 3.2,-71.73333 h -14.1333 c -11.2,40 -30.1333,57.33333 -62.4,57.33333 h -8 c -13.0667,0 -16.5333,-0.53333 -19.7333,-3.73333 -3.4667,-3.2 -4.2667,-6.13333 -4.2667,-14.93333 v -59.2 h 4.5333 c 20.8,0 33.8667,13.33333 36.8,37.86667 h 14.4 v -90.4 h -14.4 c -2.9333,24.53333 -16,37.86666 -36.8,37.86666 h -4.5333 v -48.26666 c 0,-10.93333 0.5333,-13.86667 2.6667,-17.06667 2.9333,-4 9.3333,-5.86666 20.2666,-5.86666 h 7.4667 c 19.7333,0 36,7.2 45.0667,19.73333 5.6,8 11.4666,21.33333 15.4666,35.2 h 13.8667 z" />
        <path
           id="path4336"
           style="font-style:normal;font-variant:normal;font-weight:bold;font-stretch:normal;font-size:266.66665649px;font-family:'Century Schoolbook L';-inkscape-font-specification:'Century Schoolbook L Bold';text-align:center;text-anchor:middle"
           d="m 1642.4874,269.55932 c 0,16.8 0,17.86667 -1.8666,20 -2.4,2.93334 -8,4 -21.8667,4 h -4 v 14.4 h 98.1333 c 33.6,0 54.9334,-4.8 71.4667,-16.26666 23.7333,-16.53334 36.8,-45.6 36.8,-82.13333 0,-35.73334 -13.0667,-63.46667 -38.1333,-79.73333 -16,-10.66667 -35.7334,-14.4 -73.3334,-14.4 h -94.9333 v 14.4 h 4 c 13.8667,0 19.4667,1.06666 21.8667,4 1.8666,2.13333 1.8666,3.2 1.8666,20 z m 64,24 c -13.0666,0 -16,-3.2 -16,-17.33333 V 145.826 c 0,-12.8 3.2,-16 16,-16 h 6.6667 c 37.0667,0 54.9333,25.86666 54.9333,79.19999 0,28.53334 -5.6,54.4 -14.4,66.4 -8,11.46667 -23.7333,18.13333 -41.6,18.13333 z" />
      </g>
      <path
         d="m 353.491,549.81603 c 0,12.096 0,12.864 -1.344,14.4 -1.728,2.112 -5.76,2.88 -15.744,2.88 h -2.88 v 10.368 h 70.656 c 24.192,0 39.552,-3.456 51.456,-11.712 17.088,-11.904 26.496,-32.832 26.496,-59.136 0,-25.728 -9.408,-45.696 -27.456,-57.408 -11.52,-7.68 -25.728,-10.368 -52.8,-10.368 h -68.352 v 10.368 h 2.88 c 9.984,0 14.016,0.768 15.744,2.88 1.344,1.536 1.344,2.304 1.344,14.4 z m 46.08,17.28 c -9.408,0 -11.52,-2.304 -11.52,-12.48 v -93.888 c 0,-9.216 2.304,-11.52 11.52,-11.52 h 4.8 c 26.688,0 39.552,18.624 39.552,57.024 0,20.544 -4.032,39.168 -10.368,47.808 -5.76,8.256 -17.088,13.056 -29.952,13.056 z"
         style="font-style:normal;font-variant:normal;font-weight:bold;font-stretch:normal;font-size:192px;font-family:'Century Schoolbook L';-inkscape-font-specification:'Century Schoolbook L Bold';text-align:center;text-anchor:middle"
         id="path4338" />
      <path
         d="M 621.904,438.84003 H 493.072 v 10.368 h 2.88 c 9.984,0 14.016,0.768 15.744,2.88 1.344,1.536 1.344,2.304 1.344,14.4 v 83.328 c 0,12.096 0,12.864 -1.344,14.4 -1.728,2.112 -5.76,2.88 -15.744,2.88 h -2.88 v 10.368 H 623.44 l 2.304,-51.648 h -10.176 c -8.064,28.8 -21.696,41.28 -44.928,41.28 h -5.76 c -9.408,0 -11.904,-0.384 -14.208,-2.688 -2.496,-2.304 -3.072,-4.416 -3.072,-10.752 v -42.624 h 3.264 c 14.976,0 24.384,9.6 26.496,27.264 h 10.368 v -65.088 H 577.36 c -2.112,17.664 -11.52,27.264 -26.496,27.264 H 547.6 v -34.752 c 0,-7.872 0.384,-9.984 1.92,-12.288 2.112,-2.88 6.72,-4.224 14.592,-4.224 h 5.376 c 14.208,0 25.92,5.184 32.448,14.208 4.032,5.76 8.256,15.36 11.136,25.344 h 9.984 z"
         style="font-style:normal;font-variant:normal;font-weight:bold;font-stretch:normal;font-size:192px;font-family:'Century Schoolbook L';-inkscape-font-specification:'Century Schoolbook L Bold';text-align:center;text-anchor:middle"
         id="path4340" />
      <path
         d="m 703.267,435.96003 -43.584,101.76 c -8.832,20.736 -15.936,28.224 -27.264,29.376 v 10.368 h 55.488 v -10.368 c -13.824,-0.768 -19.2,-4.416 -19.2,-13.248 0,-3.264 0.576,-5.376 3.072,-10.944 l 3.072,-7.296 h 47.808 l 7.296,18.816 c 1.536,3.456 2.304,6.336 2.304,7.872 0,3.456 -2.496,4.608 -11.136,4.608 l -3.264,0.192 v 10.368 h 67.392 v -10.368 c -10.944,-0.384 -14.016,-2.304 -18.048,-12.096 l -49.344,-119.04 z m -4.032,40.896 18.624,45.888 h -38.016 z"
         style="font-style:normal;font-variant:normal;font-weight:bold;font-stretch:normal;font-size:192px;font-family:'Century Schoolbook L';-inkscape-font-specification:'Century Schoolbook L Bold';text-align:center;text-anchor:middle"
         id="path4342" />
      <path
         d="m 805.366,549.81603 c 0,12.096 0,12.864 -1.344,14.4 -1.728,2.112 -5.76,2.88 -15.744,2.88 h -2.88 v 10.368 h 70.656 c 24.192,0 39.552,-3.456 51.456,-11.712 17.088,-11.904 26.496,-32.832 26.496,-59.136 0,-25.728 -9.408,-45.696 -27.456,-57.408 -11.52,-7.68 -25.728,-10.368 -52.8,-10.368 h -68.352 v 10.368 h 2.88 c 9.984,0 14.016,0.768 15.744,2.88 1.344,1.536 1.344,2.304 1.344,14.4 z m 46.08,17.28 c -9.408,0 -11.52,-2.304 -11.52,-12.48 v -93.888 c 0,-9.216 2.304,-11.52 11.52,-11.52 h 4.8 c 26.688,0 39.552,18.624 39.552,57.024 0,20.544 -4.032,39.168 -10.368,47.808 -5.76,8.256 -17.088,13.056 -29.952,13.056 z"
         style="font-style:normal;font-variant:normal;font-weight:bold;font-stretch:normal;font-size:192px;font-family:'Century Schoolbook L';-inkscape-font-specification:'Century Schoolbook L Bold';text-align:center;text-anchor:middle"
         id="path4344" />
      <path
         d="m 1077.064,435.96003 c -18.624,0 -34.368,5.376 -46.848,16.32 -16.128,13.824 -25.728,35.52 -25.728,57.984 0,40.704 29.952,70.08 71.616,70.08 19.584,0 34.752,-4.8 47.616,-14.976 16.512,-13.248 25.728,-32.832 25.728,-55.296 0,-22.272 -9.792,-44.16 -25.728,-57.792 -12.864,-11.136 -27.84,-16.32 -46.656,-16.32 z m 0.192,9.984 c 10.368,0 18.432,4.992 24,14.784 6.336,11.52 9.792,28.8 9.792,49.536 0,38.976 -11.904,60.096 -33.792,60.096 -11.136,0 -19.2,-4.8 -24.576,-14.784 -6.336,-11.904 -9.792,-28.8 -9.792,-48.96 0,-20.736 3.264,-36.096 9.792,-47.04 5.568,-9.408 13.248,-13.632 24.576,-13.632 z"
         style="font-style:normal;font-variant:normal;font-weight:bold;font-stretch:normal;font-size:192px;font-family:'Century Schoolbook L';-inkscape-font-specification:'Century Schoolbook L Bold';text-align:center;text-anchor:middle"
         id="path4346" />
      <path
         d="m 1215.493,510.84003 h 10.752 c 8.256,0 13.632,1.92 17.088,5.76 3.072,3.648 3.84,5.952 4.608,16.896 1.152,12.864 2.112,20.928 2.688,24 3.264,14.976 14.016,22.848 30.72,22.848 20.736,0 32.64,-11.712 32.64,-32.064 v -2.304 h -10.368 c -0.192,12.096 -3.072,18.24 -8.832,18.24 -2.112,0 -4.416,-1.152 -5.568,-2.88 -1.152,-1.536 -1.344,-2.88 -2.304,-9.024 0,-0.768 -0.384,-2.688 -0.768,-5.376 l -1.344,-7.296 c -2.88,-17.28 -10.176,-25.92 -26.88,-31.488 10.176,-1.92 15.168,-3.264 19.968,-5.568 11.712,-5.952 18.432,-16.512 18.432,-28.992 0,-11.52 -5.568,-21.312 -15.552,-27.84 -7.296,-4.608 -20.16,-6.912 -37.824,-6.912 h -81.984 v 10.368 h 2.88 c 9.984,0 14.016,0.768 15.744,2.688 1.344,1.728 1.344,2.304 1.344,14.592 v 83.136 c 0,12.288 0,12.864 -1.344,14.592 -1.728,1.92 -5.76,2.688 -15.744,2.688 h -2.88 v 10.368 h 76.8 v -10.368 h -4.992 c -9.984,0 -14.208,-0.768 -15.936,-2.688 -1.344,-1.728 -1.344,-2.304 -1.344,-14.592 z m 0,-10.56 v -38.784 c 0,-10.944 1.344,-12.288 13.632,-12.288 h 4.608 c 17.856,0 25.92,7.872 25.92,25.344 0,19.584 -8.064,25.728 -33.6,25.728 z"
         style="font-style:normal;font-variant:normal;font-weight:bold;font-stretch:normal;font-size:192px;font-family:'Century Schoolbook L';-inkscape-font-specification:'Century Schoolbook L Bold';text-align:center;text-anchor:middle"
         id="path4348" />
      <path
         d="m 1436.017,435.96003 -43.584,101.76 c -8.832,20.736 -15.936,28.224 -27.264,29.376 v 10.368 h 55.488 v -10.368 c -13.824,-0.768 -19.2,-4.416 -19.2,-13.248 0,-3.264 0.576,-5.376 3.072,-10.944 l 3.072,-7.296 h 47.808 l 7.296,18.816 c 1.536,3.456 2.304,6.336 2.304,7.872 0,3.456 -2.496,4.608 -11.136,4.608 l -3.264,0.192 v 10.368 h 67.392 v -10.368 c -10.944,-0.384 -14.016,-2.304 -18.048,-12.096 l -49.344,-119.04 z m -4.032,40.896 18.624,45.888 h -38.016 z"
         style="font-style:normal;font-variant:normal;font-weight:bold;font-stretch:normal;font-size:192px;font-family:'Century Schoolbook L';-inkscape-font-specification:'Century Schoolbook L Bold';text-align:center;text-anchor:middle"
         id="path4350" />
      <path
         d="m 1638.916,525.81603 c -3.84,13.248 -7.296,20.544 -12.48,26.88 -7.872,9.408 -18.816,14.4 -32.448,14.4 h -4.032 c -9.408,0 -11.904,-0.384 -14.208,-2.688 -2.496,-2.304 -3.072,-4.416 -3.072,-10.752 v -87.168 c 0,-12.096 0,-12.864 1.344,-14.4 1.728,-2.112 5.76,-2.88 15.936,-2.88 h 4.224 v -10.368 h -76.032 v 10.368 h 2.88 c 9.984,0 14.016,0.768 15.744,2.88 1.344,1.536 1.344,2.304 1.344,14.4 v 83.136 c 0,12.288 0,13.056 -1.344,14.592 -1.728,2.112 -5.76,2.88 -15.744,2.88 h -2.88 v 10.368 h 128.64 l 2.304,-51.648 z"
         style="font-style:normal;font-variant:normal;font-weight:bold;font-stretch:normal;font-size:192px;font-family:'Century Schoolbook L';-inkscape-font-specification:'Century Schoolbook L Bold';text-align:center;text-anchor:middle"
         id="path4352" />
      <path
         d="m 1678.594,549.81603 c 0,12.096 0,12.864 -1.344,14.4 -1.728,2.112 -5.76,2.88 -15.744,2.88 h -2.88 v 10.368 h 74.688 v -10.368 h -2.88 c -9.984,0 -14.208,-0.768 -15.936,-2.88 -1.344,-1.536 -1.344,-2.112 -1.344,-14.4 v -83.328 c 0,-12.288 0,-12.864 1.344,-14.4 1.728,-2.112 5.952,-2.88 15.936,-2.88 h 2.88 v -10.368 h -74.688 v 10.368 h 2.88 c 9.984,0 14.016,0.768 15.744,2.88 1.344,1.536 1.344,2.304 1.344,14.4 z"
         style="font-style:normal;font-variant:normal;font-weight:bold;font-stretch:normal;font-size:192px;font-family:'Century Schoolbook L';-inkscape-font-specification:'Century Schoolbook L Bold';text-align:center;text-anchor:middle"
         id="path4354" />
      <path
         d="m 1820.743,537.91203 -30.528,-77.568 c -1.152,-3.072 -1.728,-5.184 -1.728,-6.336 0,-3.456 3.456,-4.8 11.904,-4.8 h 4.032 v -10.368 h -69.504 v 10.368 c 11.328,0 14.4,2.112 18.816,13.248 l 46.656,117.888 h 16.896 l 43.968,-106.752 c 6.144,-15.36 14.784,-23.232 26.496,-24.384 v -10.368 h -56.64 v 10.368 c 6.144,0 9.216,0.576 11.904,2.112 4.224,2.112 6.72,6.336 6.72,10.944 0,2.112 -0.576,4.416 -1.728,7.296 z"
         style="font-style:normal;font-variant:normal;font-weight:bold;font-stretch:normal;font-size:192px;font-family:'Century Schoolbook L';-inkscape-font-specification:'Century Schoolbook L Bold';text-align:center;text-anchor:middle"
         id="path4356" />
      <path
         d="m 2016.154,438.84003 h -128.832 v 10.368 h 2.88 c 9.984,0 14.016,0.768 15.744,2.88 1.344,1.536 1.344,2.304 1.344,14.4 v 83.328 c 0,12.096 0,12.864 -1.344,14.4 -1.728,2.112 -5.76,2.88 -15.744,2.88 h -2.88 v 10.368 h 130.368 l 2.304,-51.648 h -10.176 c -8.064,28.8 -21.696,41.28 -44.928,41.28 h -5.76 c -9.408,0 -11.904,-0.384 -14.208,-2.688 -2.496,-2.304 -3.072,-4.416 -3.072,-10.752 v -42.624 h 3.264 c 14.976,0 24.384,9.6 26.496,27.264 h 10.368 v -65.088 h -10.368 c -2.112,17.664 -11.52,27.264 -26.496,27.264 h -3.264 v -34.752 c 0,-7.872 0.384,-9.984 1.92,-12.288 2.112,-2.88 6.72,-4.224 14.592,-4.224 h 5.376 c 14.208,0 25.92,5.184 32.448,14.208 4.032,5.76 8.256,15.36 11.136,25.344 h 9.984 z"
         style="font-style:normal;font-variant:normal;font-weight:bold;font-stretch:normal;font-size:192px;font-family:'Century Schoolbook L';-inkscape-font-specification:'Century Schoolbook L Bold';text-align:center;text-anchor:middle"
         id="path4358" />
      <path
         d="m 411.14031,724.95501 -12.84,-42.72 c -0.6,-1.8 -0.72,-2.52 -0.72,-3.24 0,-2.28 1.44,-2.88 7.08,-3.24 v -6.48 h -35.52 v 6.48 c 4.68,0.24 5.88,1.2 7.68,6.36 l 4.32,13.56 -9.6,30.12 -13.92,-42.96 c -0.72,-2.04 -0.96,-3.24 -0.96,-4.08 0,-2.16 1.44,-2.76 7.08,-3 v -6.48 h -37.2 v 6.48 h 0.24 c 5.4,0 6.96,1.2 8.88,6.96 l 24.48,75 h 9 l 15.84,-48.84 15,48.84 h 8.76 l 20.88,-65.88 c 3.48,-11.88 5.76,-14.64 12.96,-16.08 v -6.48 h -30.24 v 6.48 c 3.48,0.12 5.16,0.36 6.72,1.08 2.52,1.2 4.08,3.72 4.08,6.6 0,1.68 -0.24,3 -1.56,7.32 z"
         style="font-style:normal;font-variant:normal;font-weight:bold;font-stretch:normal;font-size:120px;font-family:'Century Schoolbook L';-inkscape-font-specification:'Century Schoolbook L Bold';text-align:center;text-anchor:middle"
         id="path4360" />
      <path
         d="m 459.31656,738.63501 c 0,7.56 0,8.04 -0.84,9 -1.08,1.32 -3.6,1.8 -9.84,1.8 h -1.8 v 6.48 h 46.68 v -6.48 h -1.8 c -6.24,0 -8.88,-0.48 -9.96,-1.8 -0.84,-0.96 -0.84,-1.32 -0.84,-9 v -52.08 c 0,-7.68 0,-8.04 0.84,-9 1.08,-1.32 3.72,-1.8 9.96,-1.8 h 1.8 v -6.48 h -46.68 v 6.48 h 1.8 c 6.24,0 8.76,0.48 9.84,1.8 0.84,0.96 0.84,1.44 0.84,9 z"
         style="font-style:normal;font-variant:normal;font-weight:bold;font-stretch:normal;font-size:120px;font-family:'Century Schoolbook L';-inkscape-font-specification:'Century Schoolbook L Bold';text-align:center;text-anchor:middle"
         id="path4362" />
      <path
         d="m 574.43969,723.63501 c -2.4,8.28 -4.56,12.84 -7.8,16.8 -4.92,5.88 -11.76,9 -20.28,9 h -2.52 c -5.88,0 -7.44,-0.24 -8.88,-1.68 -1.56,-1.44 -1.92,-2.76 -1.92,-6.72 v -54.48 c 0,-7.56 0,-8.04 0.84,-9 1.08,-1.32 3.6,-1.8 9.96,-1.8 h 2.64 v -6.48 h -47.52 v 6.48 h 1.8 c 6.24,0 8.76,0.48 9.84,1.8 0.84,0.96 0.84,1.44 0.84,9 v 51.96 c 0,7.68 0,8.16 -0.84,9.12 -1.08,1.32 -3.6,1.8 -9.84,1.8 h -1.8 v 6.48 h 80.4 l 1.44,-32.28 z"
         style="font-style:normal;font-variant:normal;font-weight:bold;font-stretch:normal;font-size:120px;font-family:'Century Schoolbook L';-inkscape-font-specification:'Century Schoolbook L Bold';text-align:center;text-anchor:middle"
         id="path4364" />
      <path
         d="m 598.15844,738.63501 c 0,7.56 0,8.04 -0.84,9 -1.08,1.32 -3.6,1.8 -9.84,1.8 h -1.8 v 6.48 h 44.16 c 15.12,0 24.72,-2.16 32.16,-7.32 10.68,-7.44 16.56,-20.52 16.56,-36.96 0,-16.08 -5.88,-28.56 -17.16,-35.88 -7.2,-4.8 -16.08,-6.48 -33,-6.48 h -42.72 v 6.48 h 1.8 c 6.24,0 8.76,0.48 9.84,1.8 0.84,0.96 0.84,1.44 0.84,9 z m 28.8,10.8 c -5.88,0 -7.2,-1.44 -7.2,-7.8 v -58.68 c 0,-5.76 1.44,-7.2 7.2,-7.2 h 3 c 16.68,0 24.72,11.64 24.72,35.64 0,12.84 -2.52,24.48 -6.48,29.88 -3.6,5.16 -10.68,8.16 -18.72,8.16 z"
         style="font-style:normal;font-variant:normal;font-weight:bold;font-stretch:normal;font-size:120px;font-family:'Century Schoolbook L';-inkscape-font-specification:'Century Schoolbook L Bold';text-align:center;text-anchor:middle"
         id="path4366" />
      <path
         d="m 803.24969,724.95501 -12.84,-42.72 c -0.6,-1.8 -0.72,-2.52 -0.72,-3.24 0,-2.28 1.44,-2.88 7.08,-3.24 v -6.48 h -35.52 v 6.48 c 4.68,0.24 5.88,1.2 7.68,6.36 l 4.32,13.56 -9.6,30.12 -13.92,-42.96 c -0.72,-2.04 -0.96,-3.24 -0.96,-4.08 0,-2.16 1.44,-2.76 7.08,-3 v -6.48 h -37.2 v 6.48 h 0.24 c 5.4,0 6.96,1.2 8.88,6.96 l 24.48,75 h 9 l 15.84,-48.84 15,48.84 h 8.76 l 20.88,-65.88 c 3.48,-11.88 5.76,-14.64 12.96,-16.08 v -6.48 h -30.24 v 6.48 c 3.48,0.12 5.16,0.36 6.72,1.08 2.52,1.2 4.08,3.72 4.08,6.6 0,1.68 -0.24,3 -1.56,7.32 z"
         style="font-style:normal;font-variant:normal;font-weight:bold;font-stretch:normal;font-size:120px;font-family:'Century Schoolbook L';-inkscape-font-specification:'Century Schoolbook L Bold';text-align:center;text-anchor:middle"
         id="path4368" />
      <path
         d="m 885.98594,708.39501 -15.84,-26.28 c -1.2,-1.92 -1.44,-2.64 -1.44,-3.72 0,-1.8 2.16,-2.64 6.72,-2.64 h 1.92 v -6.48 h -43.2 v 6.48 c 5.4,0 7.2,0.84 9.48,4.32 l 24.48,39.24 v 19.32 c 0,7.44 0,8.04 -0.84,9 -1.08,1.32 -3.6,1.8 -9.96,1.8 h -2.64 v 6.48 h 48.48 v -6.48 h -2.64 c -6.36,0 -8.88,-0.48 -9.96,-1.8 -0.84,-0.96 -0.84,-1.44 -0.84,-9 v -20.88 l 18,-30.84 c 4.56,-7.44 9.36,-10.68 16.08,-11.16 v -6.48 h -35.4 v 6.48 h 2.52 c 5.28,0 8.76,2.28 8.76,5.76 0,1.44 -0.72,3.6 -1.68,5.52 z"
         style="font-style:normal;font-variant:normal;font-weight:bold;font-stretch:normal;font-size:120px;font-family:'Century Schoolbook L';-inkscape-font-specification:'Century Schoolbook L Bold';text-align:center;text-anchor:middle"
         id="path4370" />
      <path
         d="m 972.34469,667.47501 c -11.64,0 -21.48,3.36 -29.28,10.2 -10.08,8.64 -16.08,22.2 -16.08,36.24 0,25.44 18.72,43.8 44.76,43.8 12.24,0 21.72,-3 29.76001,-9.36 10.32,-8.28 16.08,-20.52 16.08,-34.56 0,-13.92 -6.12,-27.6 -16.08,-36.12 -8.04001,-6.96 -17.40001,-10.2 -29.16001,-10.2 z m 0.12,6.24 c 6.48,0 11.52,3.12 15,9.24 3.96,7.2 6.12,18 6.12,30.96 0,24.36 -7.44,37.56 -21.12,37.56 -6.96,0 -12,-3 -15.36,-9.24 -3.96,-7.44 -6.12,-18 -6.12,-30.6 0,-12.96 2.04,-22.56 6.12,-29.4 3.48,-5.88 8.28,-8.52 15.36,-8.52 z"
         style="font-style:normal;font-variant:normal;font-weight:bold;font-stretch:normal;font-size:120px;font-family:'Century Schoolbook L';-inkscape-font-specification:'Century Schoolbook L Bold';text-align:center;text-anchor:middle"
         id="path4372" />
      <path
         d="m 1062.9428,669.27501 h -38.64 v 6.48 h 1.32 c 6.36,0 8.88,0.48 9.96,1.8 0.84,0.96 0.84,1.44 0.84,9 v 43.32 c 0,10.56 -0.6,13.68 -3.12,16.32 -1.92,2.04 -5.16,3.12 -9.84,3.24 v 6.48 h 34.2 v -6.48 c -4.8,-0.12 -8.16,-1.2 -10.08,-3.24 -2.52,-2.64 -3.12,-5.64 -3.12,-16.32 v -49.92 l 27.24,75.96 h 6.24 l 26.52,-77.16 v 59.88 c 0,7.56 0,8.04 -0.84,9 -1.08,1.32 -3.6,1.8 -9.96,1.8 h -1.32 v 6.48 h 45.84 v -6.48 h -1.32 c -6.36,0 -8.88,-0.48 -9.96,-1.8 -0.84,-0.96 -0.84,-1.56 -0.84,-9 v -52.08 c 0,-7.44 0,-8.04 0.84,-9 1.08,-1.32 3.6,-1.8 9.96,-1.8 h 1.32 v -6.48 h -39.12 l -17.52,51.6 z"
         style="font-style:normal;font-variant:normal;font-weight:bold;font-stretch:normal;font-size:120px;font-family:'Century Schoolbook L';-inkscape-font-specification:'Century Schoolbook L Bold';text-align:center;text-anchor:middle"
         id="path4374" />
      <path
         d="m 1155.8791,738.63501 c 0,7.56 0,8.04 -0.84,9 -1.08,1.32 -3.6,1.8 -9.84,1.8 h -1.8 v 6.48 h 46.68 v -6.48 h -1.8 c -6.24,0 -8.88,-0.48 -9.96,-1.8 -0.84,-0.96 -0.84,-1.32 -0.84,-9 v -52.08 c 0,-7.68 0,-8.04 0.84,-9 1.08,-1.32 3.72,-1.8 9.96,-1.8 h 1.8 v -6.48 h -46.68 v 6.48 h 1.8 c 6.24,0 8.76,0.48 9.84,1.8 0.84,0.96 0.84,1.44 0.84,9 z"
         style="font-style:normal;font-variant:normal;font-weight:bold;font-stretch:normal;font-size:120px;font-family:'Century Schoolbook L';-inkscape-font-specification:'Century Schoolbook L Bold';text-align:center;text-anchor:middle"
         id="path4376" />
      <path
         d="m 1225.6422,669.27501 h -30.24 v 6.6 c 5.4,0.12 9.72,2.4 12.72,6.72 v 47.28 c 0,10.56 -0.6,13.56 -3.12,16.2 -1.92,2.04 -4.68,3 -9.84,3.24 v 6.48 h 34.2 v -6.48 c -5.16,-0.24 -8.16,-1.2 -10.08,-3.24 -2.52,-2.64 -3.12,-5.64 -3.12,-16.2 v -39.48 l 55.8,66.36 h 8.04 v -61.44 c 0,-10.68 0.6,-13.68 3.12,-16.32 1.92,-2.04 5.28,-3.12 10.08,-3.24 v -6.48 h -34.2 v 6.48 c 4.68,0.12 7.92,1.2 9.84,3.24 2.52,2.64 3.12,5.76 3.12,16.32 v 28.2 z"
         style="font-style:normal;font-variant:normal;font-weight:bold;font-stretch:normal;font-size:120px;font-family:'Century Schoolbook L';-inkscape-font-specification:'Century Schoolbook L Bold';text-align:center;text-anchor:middle"
         id="path4378" />
      <path
         d="m 1379.6003,667.95501 h -5.28 l -7.08,6 c -8.4,-4.8 -14.28,-6.48 -22.92,-6.48 -13.8,0 -25.56,4.92 -34.44,14.52 -8.16,8.64 -11.88,18.72 -11.88,31.92 0,25.92 17.04,43.8 41.88,43.8 7.32,0 14.64,-1.8 20.16,-4.92 3,-1.8 4.92,-3.36 8.4,-6.96 l 5.88,11.76 h 6.36 v -24.72 c 0,-7.56 0,-8.16 0.84,-9.12 1.08,-1.2 3,-1.56 9.84,-1.68 v -6.48 h -42.6 v 6.48 h 1.32 c 10.44,0 10.92,0.36 10.92,9.12 v 1.68 c 0,11.28 -7.08,18.6 -17.76,18.6 -7.32,0 -13.32,-3.84 -16.32,-10.32 -3.24,-6.96 -4.92,-16.68 -4.92,-27.96 0,-12.72 2.4,-23.28 6.84,-30.48 3.48,-5.64 9.84,-9 16.92,-9 14.16,0 24.6,10.44 28.56,28.68 h 6.36 z"
         style="font-style:normal;font-variant:normal;font-weight:bold;font-stretch:normal;font-size:120px;font-family:'Century Schoolbook L';-inkscape-font-specification:'Century Schoolbook L Bold';text-align:center;text-anchor:middle"
         id="path4380" />
      <path
         d="m 1513.1716,724.95501 -12.84,-42.72 c -0.6,-1.8 -0.72,-2.52 -0.72,-3.24 0,-2.28 1.44,-2.88 7.08,-3.24 v -6.48 h -35.52 v 6.48 c 4.68,0.24 5.88,1.2 7.68,6.36 l 4.32,13.56 -9.6,30.12 -13.92,-42.96 c -0.72,-2.04 -0.96,-3.24 -0.96,-4.08 0,-2.16 1.44,-2.76 7.08,-3 v -6.48 h -37.2 v 6.48 h 0.24 c 5.4,0 6.96,1.2 8.88,6.96 l 24.48,75 h 9 l 15.84,-48.84 15,48.84 h 8.76 l 20.88,-65.88 c 3.48,-11.88 5.76,-14.64 12.96,-16.08 v -6.48 h -30.24 v 6.48 c 3.48,0.12 5.16,0.36 6.72,1.08 2.52,1.2 4.08,3.72 4.08,6.6 0,1.68 -0.24,3 -1.56,7.32 z"
         style="font-style:normal;font-variant:normal;font-weight:bold;font-stretch:normal;font-size:120px;font-family:'Century Schoolbook L';-inkscape-font-specification:'Century Schoolbook L Bold';text-align:center;text-anchor:middle"
         id="path4382" />
      <path
         d="m 1561.3478,738.63501 c 0,7.56 0,8.04 -0.84,9 -1.08,1.32 -3.6,1.8 -9.84,1.8 h -1.8 v 6.48 h 46.68 v -6.48 h -1.8 c -6.24,0 -8.88,-0.48 -9.96,-1.8 -0.84,-0.96 -0.84,-1.32 -0.84,-9 v -52.08 c 0,-7.68 0,-8.04 0.84,-9 1.08,-1.32 3.72,-1.8 9.96,-1.8 h 1.8 v -6.48 h -46.68 v 6.48 h 1.8 c 6.24,0 8.76,0.48 9.84,1.8 0.84,0.96 0.84,1.44 0.84,9 z"
         style="font-style:normal;font-variant:normal;font-weight:bold;font-stretch:normal;font-size:120px;font-family:'Century Schoolbook L';-inkscape-font-specification:'Century Schoolbook L Bold';text-align:center;text-anchor:middle"
         id="path4384" />
      <path
         d="m 1676.4709,723.63501 c -2.4,8.28 -4.56,12.84 -7.8,16.8 -4.92,5.88 -11.76,9 -20.28,9 h -2.52 c -5.88,0 -7.44,-0.24 -8.88,-1.68 -1.56,-1.44 -1.92,-2.76 -1.92,-6.72 v -54.48 c 0,-7.56 0,-8.04 0.84,-9 1.08,-1.32 3.6,-1.8 9.96,-1.8 h 2.64 v -6.48 h -47.52 v 6.48 h 1.8 c 6.24,0 8.76,0.48 9.84,1.8 0.84,0.96 0.84,1.44 0.84,9 v 51.96 c 0,7.68 0,8.16 -0.84,9.12 -1.08,1.32 -3.6,1.8 -9.84,1.8 h -1.8 v 6.48 h 80.4 l 1.44,-32.28 z"
         style="font-style:normal;font-variant:normal;font-weight:bold;font-stretch:normal;font-size:120px;font-family:'Century Schoolbook L';-inkscape-font-specification:'Century Schoolbook L Bold';text-align:center;text-anchor:middle"
         id="path4386" />
      <path
         d="m 1763.1897,723.63501 c -2.4,8.28 -4.56,12.84 -7.8,16.8 -4.92,5.88 -11.76,9 -20.28,9 h -2.52 c -5.88,0 -7.44,-0.24 -8.88,-1.68 -1.56,-1.44 -1.92,-2.76 -1.92,-6.72 v -54.48 c 0,-7.56 0,-8.04 0.84,-9 1.08,-1.32 3.6,-1.8 9.96,-1.8 h 2.64 v -6.48 h -47.52 v 6.48 h 1.8 c 6.24,0 8.76,0.48 9.84,1.8 0.84,0.96 0.84,1.44 0.84,9 v 51.96 c 0,7.68 0,8.16 -0.84,9.12 -1.08,1.32 -3.6,1.8 -9.84,1.8 h -1.8 v 6.48 h 80.4 l 1.44,-32.28 z"
         style="font-style:normal;font-variant:normal;font-weight:bold;font-stretch:normal;font-size:120px;font-family:'Century Schoolbook L';-inkscape-font-specification:'Century Schoolbook L Bold';text-align:center;text-anchor:middle"
         id="path4388" />
      <path
         d="m 1787.9884,738.63501 c 0,7.56 0,8.04 -0.84,9 -1.08,1.32 -3.6,1.8 -9.84,1.8 h -1.8 v 6.48 h 46.68 v -6.48 h -1.8 c -6.24,0 -8.88,-0.48 -9.96,-1.8 -0.84,-0.96 -0.84,-1.32 -0.84,-9 v -52.08 c 0,-7.68 0,-8.04 0.84,-9 1.08,-1.32 3.72,-1.8 9.96,-1.8 h 1.8 v -6.48 h -46.68 v 6.48 h 1.8 c 6.24,0 8.76,0.48 9.84,1.8 0.84,0.96 0.84,1.44 0.84,9 z"
         style="font-style:normal;font-variant:normal;font-weight:bold;font-stretch:normal;font-size:120px;font-family:'Century Schoolbook L';-inkscape-font-specification:'Century Schoolbook L Bold';text-align:center;text-anchor:middle"
         id="path4390" />
      <path
         d="m 1867.4716,667.47501 -27.24,63.6 c -5.52,12.96 -9.96,17.64 -17.04,18.36 v 6.48 h 34.68 v -6.48 c -8.64,-0.48 -12,-2.76 -12,-8.28 0,-2.04 0.36,-3.36 1.92,-6.84 l 1.92,-4.56 h 29.88 l 4.56,11.76 c 0.96,2.16 1.44,3.96 1.44,4.92 0,2.16 -1.56,2.88 -6.96,2.88 l -2.04,0.12 v 6.48 h 42.12 v -6.48 c -6.84,-0.24 -8.76,-1.44 -11.28,-7.56 l -30.84,-74.4 z m -2.52,25.56 11.64,28.68 h -23.76 z"
         style="font-style:normal;font-variant:normal;font-weight:bold;font-stretch:normal;font-size:120px;font-family:'Century Schoolbook L';-inkscape-font-specification:'Century Schoolbook L Bold';text-align:center;text-anchor:middle"
         id="path4392" />
      <path
         d="m 1957.0834,669.27501 h -38.64 v 6.48 h 1.32 c 6.36,0 8.88,0.48 9.96,1.8 0.84,0.96 0.84,1.44 0.84,9 v 43.32 c 0,10.56 -0.6,13.68 -3.12,16.32 -1.92,2.04 -5.16,3.12 -9.84,3.24 v 6.48 h 34.2 v -6.48 c -4.8,-0.12 -8.16,-1.2 -10.08,-3.24 -2.52,-2.64 -3.12,-5.64 -3.12,-16.32 v -49.92 l 27.24,75.96 h 6.24 l 26.52,-77.16 v 59.88 c 0,7.56 0,8.04 -0.84,9 -1.08,1.32 -3.6,1.8 -9.96,1.8 h -1.32 v 6.48 h 45.84 v -6.48 h -1.32 c -6.36,0 -8.88,-0.48 -9.96,-1.8 -0.84,-0.96 -0.84,-1.56 -0.84,-9 v -52.08 c 0,-7.44 0,-8.04 0.84,-9 1.08,-1.32 3.6,-1.8 9.96,-1.8 h 1.32 v -6.48 h -39.12 l -17.52,51.6 z"
         style="font-style:normal;font-variant:normal;font-weight:bold;font-stretch:normal;font-size:120px;font-family:'Century Schoolbook L';-inkscape-font-specification:'Century Schoolbook L Bold';text-align:center;text-anchor:middle"
         id="path4394" />
      <path
         d="m 314.2585,814.64667 -21.792,50.88 c -4.416,10.368 -7.968,14.112 -13.632,14.688 v 5.184 h 27.744 v -5.184 c -6.912,-0.384 -9.6,-2.208 -9.6,-6.624 0,-1.632 0.288,-2.688 1.536,-5.472 l 1.536,-3.648 h 23.904 l 3.648,9.408 c 0.768,1.728 1.152,3.168 1.152,3.936 0,1.728 -1.248,2.304 -5.568,2.304 l -1.632,0.096 v 5.184 h 33.696 v -5.184 c -5.472,-0.192 -7.008,-1.152 -9.024,-6.048 l -24.672,-59.52 z m -2.016,20.448 9.312,22.944 h -19.008 z"
         style="font-style:normal;font-variant:normal;font-weight:bold;font-stretch:normal;font-size:96px;font-family:'Century Schoolbook L';-inkscape-font-specification:'Century Schoolbook L Bold';text-align:center;text-anchor:middle"
         id="path4396" />
      <path
         d="m 437.5105,815.41467 h -4.32 l -4.992,4.416 c -5.376,-3.648 -10.56,-5.184 -17.28,-5.184 -14.784,0 -24.864,8.64 -24.864,21.408 0,11.712 8.64,20.064 23.712,22.848 l 5.952,1.152 c 6.144,1.152 8.064,1.632 10.368,2.88 2.688,1.44 4.224,4.32 4.224,7.68 0,6.72 -5.472,11.232 -13.824,11.232 -10.848,0 -20.352,-8.544 -25.632,-22.944 h -4.896 l 0.576,27.168 h 4.32 l 5.952,-5.664 c 5.856,4.416 12,6.432 19.68,6.432 14.976,0 25.344,-9.408 25.344,-22.848 0,-12.192 -7.2,-19.008 -23.808,-22.656 l -4.608,-1.056 c -7.392,-1.44 -7.392,-1.44 -9.792,-2.304 -4.32,-1.536 -6.528,-4.32 -6.528,-8.256 0,-5.856 5.376,-10.08 12.96,-10.08 9.984,0 17.952,7.008 23.616,20.64 h 5.088 z"
         style="font-style:normal;font-variant:normal;font-weight:bold;font-stretch:normal;font-size:96px;font-family:'Century Schoolbook L';-inkscape-font-specification:'Century Schoolbook L Bold';text-align:center;text-anchor:middle"
         id="path4398" />
      <path
         d="m 499.4275,852.85467 v 18.72 c 0,6.048 0,6.432 -0.672,7.2 -0.864,1.056 -2.88,1.44 -7.872,1.44 h -1.44 v 5.184 h 37.344 v -5.184 h -1.44 c -4.992,0 -7.104,-0.384 -7.968,-1.44 -0.672,-0.768 -0.672,-1.056 -0.672,-7.2 v -41.568 c 0,-6.144 0,-6.528 0.672,-7.296 0.864,-1.056 2.976,-1.44 7.968,-1.44 h 1.44 v -5.184 h -37.344 v 5.184 h 1.44 c 4.992,0 7.008,0.384 7.872,1.44 0.672,0.768 0.672,1.248 0.672,7.296 v 17.088 h -25.056 v -17.088 c 0,-6.144 0,-6.528 0.672,-7.296 0.864,-1.056 2.976,-1.44 7.968,-1.44 h 1.44 v -5.184 h -37.344 v 5.184 h 1.44 c 4.992,0 7.008,0.384 7.872,1.44 0.672,0.768 0.672,1.152 0.672,7.296 v 41.568 c 0,6.048 0,6.432 -0.672,7.2 -0.864,1.056 -2.88,1.44 -7.872,1.44 h -1.44 v 5.184 h 37.344 v -5.184 h -1.44 c -4.992,0 -7.104,-0.384 -7.968,-1.44 -0.672,-0.768 -0.672,-1.056 -0.672,-7.2 v -18.72 z"
         style="font-style:normal;font-variant:normal;font-weight:bold;font-stretch:normal;font-size:96px;font-family:'Century Schoolbook L';-inkscape-font-specification:'Century Schoolbook L Bold';text-align:center;text-anchor:middle"
         id="path4400" />
      <path
         d="m 562.321,814.64667 -21.792,50.88 c -4.416,10.368 -7.968,14.112 -13.632,14.688 v 5.184 h 27.744 v -5.184 c -6.912,-0.384 -9.6,-2.208 -9.6,-6.624 0,-1.632 0.288,-2.688 1.536,-5.472 l 1.536,-3.648 h 23.904 l 3.648,9.408 c 0.768,1.728 1.152,3.168 1.152,3.936 0,1.728 -1.248,2.304 -5.568,2.304 l -1.632,0.096 v 5.184 h 33.696 v -5.184 c -5.472,-0.192 -7.008,-1.152 -9.024,-6.048 l -24.672,-59.52 z m -2.016,20.448 9.312,22.944 h -19.008 z"
         style="font-style:normal;font-variant:normal;font-weight:bold;font-stretch:normal;font-size:96px;font-family:'Century Schoolbook L';-inkscape-font-specification:'Century Schoolbook L Bold';text-align:center;text-anchor:middle"
         id="path4402" />
      <path
         d="m 630.7465,852.08667 h 5.376 c 4.128,0 6.816,0.96 8.544,2.88 1.536,1.824 1.92,2.976 2.304,8.448 0.576,6.432 1.056,10.464 1.344,12 1.632,7.488 7.008,11.424 15.36,11.424 10.368,0 16.32,-5.856 16.32,-16.032 v -1.152 h -5.184 c -0.096,6.048 -1.536,9.12 -4.416,9.12 -1.056,0 -2.208,-0.576 -2.784,-1.44 -0.576,-0.768 -0.672,-1.44 -1.152,-4.512 0,-0.384 -0.192,-1.344 -0.384,-2.688 l -0.672,-3.648 c -1.44,-8.64 -5.088,-12.96 -13.44,-15.744 5.088,-0.96 7.584,-1.632 9.984,-2.784 5.856,-2.976 9.216,-8.256 9.216,-14.496 0,-5.76 -2.784,-10.656 -7.776,-13.92 -3.648,-2.304 -10.08,-3.456 -18.912,-3.456 h -40.992 v 5.184 h 1.44 c 4.992,0 7.008,0.384 7.872,1.344 0.672,0.864 0.672,1.152 0.672,7.296 v 41.568 c 0,6.144 0,6.432 -0.672,7.296 -0.864,0.96 -2.88,1.344 -7.872,1.344 h -1.44 v 5.184 h 38.4 v -5.184 h -2.496 c -4.992,0 -7.104,-0.384 -7.968,-1.344 -0.672,-0.864 -0.672,-1.152 -0.672,-7.296 z m 0,-5.28 v -19.392 c 0,-5.472 0.672,-6.144 6.816,-6.144 h 2.304 c 8.928,0 12.96,3.936 12.96,12.672 0,9.792 -4.032,12.864 -16.8,12.864 z"
         style="font-style:normal;font-variant:normal;font-weight:bold;font-stretch:normal;font-size:96px;font-family:'Century Schoolbook L';-inkscape-font-specification:'Century Schoolbook L Bold';text-align:center;text-anchor:middle"
         id="path4404" />
      <path
         d="m 709.318,855.63867 h 10.752 c 20.064,0 30.24,-6.816 30.24,-20.256 0,-7.2 -3.552,-13.056 -9.696,-15.936 -5.184,-2.4 -10.848,-3.36 -20.448,-3.36 h -38.112 v 5.28 h 1.44 c 4.992,0 7.008,0.384 7.872,1.344 0.672,0.864 0.672,1.152 0.672,7.296 v 41.568 c 0,6.144 0,6.432 -0.672,7.296 -0.864,0.96 -2.88,1.344 -7.872,1.344 h -1.44 v 5.184 h 38.016 v -5.184 h -2.112 c -5.088,0 -7.104,-0.384 -7.968,-1.344 -0.672,-0.864 -0.672,-1.152 -0.672,-7.296 z m 0,-5.28 v -23.232 c 0,-4.704 0.96,-5.76 5.28,-5.76 h 3.84 c 9.12,0 13.344,4.32 13.344,13.92 0,11.04 -4.512,15.072 -16.896,15.072 z"
         style="font-style:normal;font-variant:normal;font-weight:bold;font-stretch:normal;font-size:96px;font-family:'Century Schoolbook L';-inkscape-font-specification:'Century Schoolbook L Bold';text-align:center;text-anchor:middle"
         id="path4406" />
      <path
         d="m 836.698,815.41467 h -4.32 l -4.992,4.416 c -5.376,-3.648 -10.56,-5.184 -17.28,-5.184 -14.784,0 -24.864,8.64 -24.864,21.408 0,11.712 8.64,20.064 23.712,22.848 l 5.952,1.152 c 6.144,1.152 8.064,1.632 10.368,2.88 2.688,1.44 4.224,4.32 4.224,7.68 0,6.72 -5.472,11.232 -13.824,11.232 -10.848,0 -20.352,-8.544 -25.632,-22.944 h -4.896 l 0.576,27.168 h 4.32 l 5.952,-5.664 c 5.856,4.416 12,6.432 19.68,6.432 14.976,0 25.344,-9.408 25.344,-22.848 0,-12.192 -7.2,-19.008 -23.808,-22.656 l -4.608,-1.056 c -7.392,-1.44 -7.392,-1.44 -9.792,-2.304 -4.32,-1.536 -6.528,-4.32 -6.528,-8.256 0,-5.856 5.376,-10.08 12.96,-10.08 9.984,0 17.952,7.008 23.616,20.64 h 5.088 z"
         style="font-style:normal;font-variant:normal;font-weight:bold;font-stretch:normal;font-size:96px;font-family:'Century Schoolbook L';-inkscape-font-specification:'Century Schoolbook L Bold';text-align:center;text-anchor:middle"
         id="path4408" />
      <path
         d="m 898.615,852.85467 v 18.72 c 0,6.048 0,6.432 -0.672,7.2 -0.864,1.056 -2.88,1.44 -7.872,1.44 h -1.44 v 5.184 h 37.344 v -5.184 h -1.44 c -4.992,0 -7.104,-0.384 -7.968,-1.44 -0.672,-0.768 -0.672,-1.056 -0.672,-7.2 v -41.568 c 0,-6.144 0,-6.528 0.672,-7.296 0.864,-1.056 2.976,-1.44 7.968,-1.44 h 1.44 v -5.184 h -37.344 v 5.184 h 1.44 c 4.992,0 7.008,0.384 7.872,1.44 0.672,0.768 0.672,1.248 0.672,7.296 v 17.088 h -25.056 v -17.088 c 0,-6.144 0,-6.528 0.672,-7.296 0.864,-1.056 2.976,-1.44 7.968,-1.44 h 1.44 v -5.184 h -37.344 v 5.184 h 1.44 c 4.992,0 7.008,0.384 7.872,1.44 0.672,0.768 0.672,1.152 0.672,7.296 v 41.568 c 0,6.048 0,6.432 -0.672,7.2 -0.864,1.056 -2.88,1.44 -7.872,1.44 h -1.44 v 5.184 h 37.344 v -5.184 h -1.44 c -4.992,0 -7.104,-0.384 -7.968,-1.44 -0.672,-0.768 -0.672,-1.056 -0.672,-7.2 v -18.72 z"
         style="font-style:normal;font-variant:normal;font-weight:bold;font-stretch:normal;font-size:96px;font-family:'Century Schoolbook L';-inkscape-font-specification:'Century Schoolbook L Bold';text-align:center;text-anchor:middle"
         id="path4410" />
      <path
         d="m 967.8445,814.64667 c -9.312,0 -17.184,2.688 -23.424,8.16 -8.064,6.912 -12.864,17.76 -12.864,28.992 0,20.352 14.976,35.04 35.808,35.04 9.792,0 17.376,-2.4 23.808,-7.488 8.256,-6.624 12.864,-16.416 12.864,-27.648 0,-11.136 -4.896,-22.08 -12.864,-28.896 -6.432,-5.568 -13.92,-8.16 -23.328,-8.16 z m 0.096,4.992 c 5.184,0 9.216,2.496 12,7.392 3.168,5.76 4.896,14.4 4.896,24.768 0,19.488 -5.952,30.048 -16.896,30.048 -5.568,0 -9.6,-2.4 -12.288,-7.392 -3.168,-5.952 -4.896,-14.4 -4.896,-24.48 0,-10.368 1.632,-18.048 4.896,-23.52 2.784,-4.704 6.624,-6.816 12.288,-6.816 z"
         style="font-style:normal;font-variant:normal;font-weight:bold;font-stretch:normal;font-size:96px;font-family:'Century Schoolbook L';-inkscape-font-specification:'Century Schoolbook L Bold';text-align:center;text-anchor:middle"
         id="path4412" />
      <path
         d="m 1047.907,814.64667 c -9.312,0 -17.184,2.688 -23.424,8.16 -8.064,6.912 -12.864,17.76 -12.864,28.992 0,20.352 14.976,35.04 35.808,35.04 9.792,0 17.376,-2.4 23.808,-7.488 8.256,-6.624 12.864,-16.416 12.864,-27.648 0,-11.136 -4.896,-22.08 -12.864,-28.896 -6.432,-5.568 -13.92,-8.16 -23.328,-8.16 z m 0.096,4.992 c 5.184,0 9.216,2.496 12,7.392 3.168,5.76 4.896,14.4 4.896,24.768 0,19.488 -5.952,30.048 -16.896,30.048 -5.568,0 -9.6,-2.4 -12.288,-7.392 -3.168,-5.952 -4.896,-14.4 -4.896,-24.48 0,-10.368 1.632,-18.048 4.896,-23.52 2.784,-4.704 6.624,-6.816 12.288,-6.816 z"
         style="font-style:normal;font-variant:normal;font-weight:bold;font-stretch:normal;font-size:96px;font-family:'Century Schoolbook L';-inkscape-font-specification:'Century Schoolbook L Bold';text-align:center;text-anchor:middle"
         id="path4414" />
      <path
         d="m 1154.3695,816.08667 h -63.552 l -1.44,26.016 h 5.088 c 1.248,-7.104 2.592,-10.848 4.896,-14.208 3.072,-4.608 6.72,-6.816 11.136,-6.816 2.88,0 3.456,0.672 3.456,3.936 v 46.56 c 0,6.048 0,6.432 -0.672,7.2 -0.864,1.056 -2.88,1.44 -7.968,1.44 h -2.112 v 5.184 h 38.784 v -5.184 h -2.112 c -5.088,0 -7.104,-0.384 -7.968,-1.44 -0.672,-0.768 -0.672,-1.152 -0.672,-7.2 v -46.56 c 0,-3.264 0.576,-3.936 3.456,-3.936 4.128,0 7.296,1.728 10.368,5.664 2.688,3.552 4.224,7.584 5.664,15.36 h 5.088 z"
         style="font-style:normal;font-variant:normal;font-weight:bold;font-stretch:normal;font-size:96px;font-family:'Century Schoolbook L';-inkscape-font-specification:'Century Schoolbook L Bold';text-align:center;text-anchor:middle"
         id="path4416" />
      <path
         d="m 1223.2645,816.08667 h -64.416 v 5.184 h 1.44 c 4.992,0 7.008,0.384 7.872,1.44 0.672,0.768 0.672,1.152 0.672,7.2 v 41.664 c 0,6.048 0,6.432 -0.672,7.2 -0.864,1.056 -2.88,1.44 -7.872,1.44 h -1.44 v 5.184 h 65.184 l 1.152,-25.824 h -5.088 c -4.032,14.4 -10.848,20.64 -22.464,20.64 h -2.88 c -4.704,0 -5.952,-0.192 -7.104,-1.344 -1.248,-1.152 -1.536,-2.208 -1.536,-5.376 v -21.312 h 1.632 c 7.488,0 12.192,4.8 13.248,13.632 h 5.184 v -32.544 h -5.184 c -1.056,8.832 -5.76,13.632 -13.248,13.632 h -1.632 v -17.376 c 0,-3.936 0.192,-4.992 0.96,-6.144 1.056,-1.44 3.36,-2.112 7.296,-2.112 h 2.688 c 7.104,0 12.96,2.592 16.224,7.104 2.016,2.88 4.128,7.68 5.568,12.672 h 4.992 z"
         style="font-style:normal;font-variant:normal;font-weight:bold;font-stretch:normal;font-size:96px;font-family:'Century Schoolbook L';-inkscape-font-specification:'Century Schoolbook L Bold';text-align:center;text-anchor:middle"
         id="path4418" />
      <path
         d="m 1259.434,852.08667 h 5.376 c 4.128,0 6.816,0.96 8.544,2.88 1.536,1.824 1.92,2.976 2.304,8.448 0.576,6.432 1.056,10.464 1.344,12 1.632,7.488 7.008,11.424 15.36,11.424 10.368,0 16.32,-5.856 16.32,-16.032 v -1.152 h -5.184 c -0.096,6.048 -1.536,9.12 -4.416,9.12 -1.056,0 -2.208,-0.576 -2.784,-1.44 -0.576,-0.768 -0.672,-1.44 -1.152,-4.512 0,-0.384 -0.192,-1.344 -0.384,-2.688 l -0.672,-3.648 c -1.44,-8.64 -5.088,-12.96 -13.44,-15.744 5.088,-0.96 7.584,-1.632 9.984,-2.784 5.856,-2.976 9.216,-8.256 9.216,-14.496 0,-5.76 -2.784,-10.656 -7.776,-13.92 -3.648,-2.304 -10.08,-3.456 -18.912,-3.456 h -40.992 v 5.184 h 1.44 c 4.992,0 7.008,0.384 7.872,1.344 0.672,0.864 0.672,1.152 0.672,7.296 v 41.568 c 0,6.144 0,6.432 -0.672,7.296 -0.864,0.96 -2.88,1.344 -7.872,1.344 h -1.44 v 5.184 h 38.4 v -5.184 h -2.496 c -4.992,0 -7.104,-0.384 -7.968,-1.344 -0.672,-0.864 -0.672,-1.152 -0.672,-7.296 z m 0,-5.28 v -19.392 c 0,-5.472 0.672,-6.144 6.816,-6.144 h 2.304 c 8.928,0 12.96,3.936 12.96,12.672 0,9.792 -4.032,12.864 -16.8,12.864 z"
         style="font-style:normal;font-variant:normal;font-weight:bold;font-stretch:normal;font-size:96px;font-family:'Century Schoolbook L';-inkscape-font-specification:'Century Schoolbook L Bold';text-align:center;text-anchor:middle"
         id="path4420" />
      <path
         d="m 1365.568,855.63867 h 10.752 c 20.064,0 30.24,-6.816 30.24,-20.256 0,-7.2 -3.552,-13.056 -9.696,-15.936 -5.184,-2.4 -10.848,-3.36 -20.448,-3.36 h -38.112 v 5.28 h 1.44 c 4.992,0 7.008,0.384 7.872,1.344 0.672,0.864 0.672,1.152 0.672,7.296 v 41.568 c 0,6.144 0,6.432 -0.672,7.296 -0.864,0.96 -2.88,1.344 -7.872,1.344 h -1.44 v 5.184 h 38.016 v -5.184 h -2.112 c -5.088,0 -7.104,-0.384 -7.968,-1.344 -0.672,-0.864 -0.672,-1.152 -0.672,-7.296 z m 0,-5.28 v -23.232 c 0,-4.704 0.96,-5.76 5.28,-5.76 h 3.84 c 9.12,0 13.344,4.32 13.344,13.92 0,11.04 -4.512,15.072 -16.896,15.072 z"
         style="font-style:normal;font-variant:normal;font-weight:bold;font-stretch:normal;font-size:96px;font-family:'Century Schoolbook L';-inkscape-font-specification:'Century Schoolbook L Bold';text-align:center;text-anchor:middle"
         id="path4422" />
      <path
         d="m 1474.8895,816.08667 h -64.416 v 5.184 h 1.44 c 4.992,0 7.008,0.384 7.872,1.44 0.672,0.768 0.672,1.152 0.672,7.2 v 41.664 c 0,6.048 0,6.432 -0.672,7.2 -0.864,1.056 -2.88,1.44 -7.872,1.44 h -1.44 v 5.184 h 65.184 l 1.152,-25.824 h -5.088 c -4.032,14.4 -10.848,20.64 -22.464,20.64 h -2.88 c -4.704,0 -5.952,-0.192 -7.104,-1.344 -1.248,-1.152 -1.536,-2.208 -1.536,-5.376 v -21.312 h 1.632 c 7.488,0 12.192,4.8 13.248,13.632 h 5.184 v -32.544 h -5.184 c -1.056,8.832 -5.76,13.632 -13.248,13.632 h -1.632 v -17.376 c 0,-3.936 0.192,-4.992 0.96,-6.144 1.056,-1.44 3.36,-2.112 7.296,-2.112 h 2.688 c 7.104,0 12.96,2.592 16.224,7.104 2.016,2.88 4.128,7.68 5.568,12.672 h 4.992 z"
         style="font-style:normal;font-variant:normal;font-weight:bold;font-stretch:normal;font-size:96px;font-family:'Century Schoolbook L';-inkscape-font-specification:'Century Schoolbook L Bold';text-align:center;text-anchor:middle"
         id="path4424" />
      <path
         d="m 1511.059,852.08667 h 5.376 c 4.128,0 6.816,0.96 8.544,2.88 1.536,1.824 1.92,2.976 2.304,8.448 0.576,6.432 1.056,10.464 1.344,12 1.632,7.488 7.008,11.424 15.36,11.424 10.368,0 16.32,-5.856 16.32,-16.032 v -1.152 h -5.184 c -0.096,6.048 -1.536,9.12 -4.416,9.12 -1.056,0 -2.208,-0.576 -2.784,-1.44 -0.576,-0.768 -0.672,-1.44 -1.152,-4.512 0,-0.384 -0.192,-1.344 -0.384,-2.688 l -0.672,-3.648 c -1.44,-8.64 -5.088,-12.96 -13.44,-15.744 5.088,-0.96 7.584,-1.632 9.984,-2.784 5.856,-2.976 9.216,-8.256 9.216,-14.496 0,-5.76 -2.784,-10.656 -7.776,-13.92 -3.648,-2.304 -10.08,-3.456 -18.912,-3.456 h -40.992 v 5.184 h 1.44 c 4.992,0 7.008,0.384 7.872,1.344 0.672,0.864 0.672,1.152 0.672,7.296 v 41.568 c 0,6.144 0,6.432 -0.672,7.296 -0.864,0.96 -2.88,1.344 -7.872,1.344 h -1.44 v 5.184 h 38.4 v -5.184 h -2.496 c -4.992,0 -7.104,-0.384 -7.968,-1.344 -0.672,-0.864 -0.672,-1.152 -0.672,-7.296 z m 0,-5.28 v -19.392 c 0,-5.472 0.672,-6.144 6.816,-6.144 h 2.304 c 8.928,0 12.96,3.936 12.96,12.672 0,9.792 -4.032,12.864 -16.8,12.864 z"
         style="font-style:normal;font-variant:normal;font-weight:bold;font-stretch:normal;font-size:96px;font-family:'Century Schoolbook L';-inkscape-font-specification:'Century Schoolbook L Bold';text-align:center;text-anchor:middle"
         id="path4426" />
      <path
         d="m 1616.5105,815.41467 h -4.32 l -4.992,4.416 c -5.376,-3.648 -10.56,-5.184 -17.28,-5.184 -14.784,0 -24.864,8.64 -24.864,21.408 0,11.712 8.64,20.064 23.712,22.848 l 5.952,1.152 c 6.144,1.152 8.064,1.632 10.368,2.88 2.688,1.44 4.224,4.32 4.224,7.68 0,6.72 -5.472,11.232 -13.824,11.232 -10.848,0 -20.352,-8.544 -25.632,-22.944 h -4.896 l 0.576,27.168 h 4.32 l 5.952,-5.664 c 5.856,4.416 12,6.432 19.68,6.432 14.976,0 25.344,-9.408 25.344,-22.848 0,-12.192 -7.2,-19.008 -23.808,-22.656 l -4.608,-1.056 c -7.392,-1.44 -7.392,-1.44 -9.792,-2.304 -4.32,-1.536 -6.528,-4.32 -6.528,-8.256 0,-5.856 5.376,-10.08 12.96,-10.08 9.984,0 17.952,7.008 23.616,20.64 h 5.088 z"
         style="font-style:normal;font-variant:normal;font-weight:bold;font-stretch:normal;font-size:96px;font-family:'Century Schoolbook L';-inkscape-font-specification:'Century Schoolbook L Bold';text-align:center;text-anchor:middle"
         id="path4428" />
      <path
         d="m 1690.1395,816.08667 h -64.416 v 5.184 h 1.44 c 4.992,0 7.008,0.384 7.872,1.44 0.672,0.768 0.672,1.152 0.672,7.2 v 41.664 c 0,6.048 0,6.432 -0.672,7.2 -0.864,1.056 -2.88,1.44 -7.872,1.44 h -1.44 v 5.184 h 65.184 l 1.152,-25.824 h -5.088 c -4.032,14.4 -10.848,20.64 -22.464,20.64 h -2.88 c -4.704,0 -5.952,-0.192 -7.104,-1.344 -1.248,-1.152 -1.536,-2.208 -1.536,-5.376 v -21.312 h 1.632 c 7.488,0 12.192,4.8 13.248,13.632 h 5.184 v -32.544 h -5.184 c -1.056,8.832 -5.76,13.632 -13.248,13.632 h -1.632 v -17.376 c 0,-3.936 0.192,-4.992 0.96,-6.144 1.056,-1.44 3.36,-2.112 7.296,-2.112 h 2.688 c 7.104,0 12.96,2.592 16.224,7.104 2.016,2.88 4.128,7.68 5.568,12.672 h 4.992 z"
         style="font-style:normal;font-variant:normal;font-weight:bold;font-stretch:normal;font-size:96px;font-family:'Century Schoolbook L';-inkscape-font-specification:'Century Schoolbook L Bold';text-align:center;text-anchor:middle"
         id="path4430" />
      <path
         d="m 1764.133,815.03067 h -4.128 l -5.184,4.704 c -6.336,-3.84 -10.752,-5.088 -17.568,-5.088 -21.12,0 -36.288,15.456 -36.288,36.96 0,9.984 2.976,17.856 9.12,24.672 6.624,7.296 14.784,10.56 26.016,10.56 16.992,0 26.784,-8.256 30.432,-25.44 l -5.952,-1.44 c -2.592,13.344 -10.272,20.928 -21.312,20.928 -13.056,0 -19.2,-9.888 -19.2,-31.008 0,-19.872 6.144,-30.24 17.952,-30.24 10.656,0 17.664,7.392 21.984,23.424 l 5.088,-0.576 z"
         style="font-style:normal;font-variant:normal;font-weight:bold;font-stretch:normal;font-size:96px;font-family:'Century Schoolbook L';-inkscape-font-specification:'Century Schoolbook L Bold';text-align:center;text-anchor:middle"
         id="path4432" />
      <path
         d="m 1800.454,829.91067 c 0,-6.048 0,-6.432 0.672,-7.2 0.864,-1.056 2.976,-1.44 7.968,-1.44 h 1.44 v -5.184 h -37.344 v 5.184 h 1.44 c 4.992,0 7.008,0.384 7.872,1.44 0.672,0.768 0.672,1.152 0.672,7.2 v 30.432 c 0,8.064 0.672,12.096 2.496,15.456 3.936,7.2 13.248,11.04 26.784,11.04 12.288,0 19.68,-3.264 24.384,-10.656 2.688,-4.32 3.456,-8.64 3.456,-19.968 v -19.296 c 0,-8.448 0.48,-10.944 2.496,-13.056 1.536,-1.632 4.224,-2.496 8.064,-2.592 v -5.184 h -27.36 v 5.184 c 3.744,0.096 6.336,0.96 7.872,2.592 2.016,2.112 2.496,4.512 2.496,13.056 v 19.296 c 0,7.872 -0.384,11.616 -1.632,14.304 -2.784,6.048 -8.352,9.12 -16.32,9.12 -5.472,0 -9.6,-1.632 -12.288,-4.704 -2.112,-2.592 -3.168,-7.296 -3.168,-14.304 z"
         style="font-style:normal;font-variant:normal;font-weight:bold;font-stretch:normal;font-size:96px;font-family:'Century Schoolbook L';-inkscape-font-specification:'Century Schoolbook L Bold';text-align:center;text-anchor:middle"
         id="path4434" />
      <path
         d="m 1918.2445,816.08667 h -63.552 l -1.44,26.016 h 5.088 c 1.248,-7.104 2.592,-10.848 4.896,-14.208 3.072,-4.608 6.72,-6.816 11.136,-6.816 2.88,0 3.456,0.672 3.456,3.936 v 46.56 c 0,6.048 0,6.432 -0.672,7.2 -0.864,1.056 -2.88,1.44 -7.968,1.44 h -2.112 v 5.184 h 38.784 v -5.184 h -2.112 c -5.088,0 -7.104,-0.384 -7.968,-1.44 -0.672,-0.768 -0.672,-1.152 -0.672,-7.2 v -46.56 c 0,-3.264 0.576,-3.936 3.456,-3.936 4.128,0 7.296,1.728 10.368,5.664 2.688,3.552 4.224,7.584 5.664,15.36 h 5.088 z"
         style="font-style:normal;font-variant:normal;font-weight:bold;font-stretch:normal;font-size:96px;font-family:'Century Schoolbook L';-inkscape-font-specification:'Century Schoolbook L Bold';text-align:center;text-anchor:middle"
         id="path4436" />
      <path
         d="m 1961.2195,814.64667 c -9.312,0 -17.184,2.688 -23.424,8.16 -8.064,6.912 -12.864,17.76 -12.864,28.992 0,20.352 14.976,35.04 35.808,35.04 9.792,0 17.376,-2.4 23.808,-7.488 8.256,-6.624 12.864,-16.416 12.864,-27.648 0,-11.136 -4.896,-22.08 -12.864,-28.896 -6.432,-5.568 -13.92,-8.16 -23.328,-8.16 z m 0.096,4.992 c 5.184,0 9.216,2.496 12,7.392 3.168,5.76 4.896,14.4 4.896,24.768 0,19.488 -5.952,30.048 -16.896,30.048 -5.568,0 -9.6,-2.4 -12.288,-7.392 -3.168,-5.952 -4.896,-14.4 -4.896,-24.48 0,-10.368 1.632,-18.048 4.896,-23.52 2.784,-4.704 6.624,-6.816 12.288,-6.816 z"
         style="font-style:normal;font-variant:normal;font-weight:bold;font-stretch:normal;font-size:96px;font-family:'Century Schoolbook L';-inkscape-font-specification:'Century Schoolbook L Bold';text-align:center;text-anchor:middle"
         id="path4438" />
      <path
         d="m 2030.434,852.08667 h 5.376 c 4.128,0 6.816,0.96 8.544,2.88 1.536,1.824 1.92,2.976 2.304,8.448 0.576,6.432 1.056,10.464 1.344,12 1.632,7.488 7.008,11.424 15.36,11.424 10.368,0 16.32,-5.856 16.32,-16.032 v -1.152 h -5.184 c -0.096,6.048 -1.536,9.12 -4.416,9.12 -1.056,0 -2.208,-0.576 -2.784,-1.44 -0.576,-0.768 -0.672,-1.44 -1.152,-4.512 0,-0.384 -0.192,-1.344 -0.384,-2.688 l -0.672,-3.648 c -1.44,-8.64 -5.088,-12.96 -13.44,-15.744 5.088,-0.96 7.584,-1.632 9.984,-2.784 5.856,-2.976 9.216,-8.256 9.216,-14.496 0,-5.76 -2.784,-10.656 -7.776,-13.92 -3.648,-2.304 -10.08,-3.456 -18.912,-3.456 h -40.992 v 5.184 h 1.44 c 4.992,0 7.008,0.384 7.872,1.344 0.672,0.864 0.672,1.152 0.672,7.296 v 41.568 c 0,6.144 0,6.432 -0.672,7.296 -0.864,0.96 -2.88,1.344 -7.872,1.344 h -1.44 v 5.184 h 38.4 v -5.184 h -2.496 c -4.992,0 -7.104,-0.384 -7.968,-1.344 -0.672,-0.864 -0.672,-1.152 -0.672,-7.296 z m 0,-5.28 v -19.392 c 0,-5.472 0.672,-6.144 6.816,-6.144 h 2.304 c 8.928,0 12.96,3.936 12.96,12.672 0,9.792 -4.032,12.864 -16.8,12.864 z"
         style="font-style:normal;font-variant:normal;font-weight:bold;font-stretch:normal;font-size:96px;font-family:'Century Schoolbook L';-inkscape-font-specification:'Century Schoolbook L Bold';text-align:center;text-anchor:middle"
         id="path4440" />
    </g>
    <g
       aria-label="$"
       transform="matrix(0.437999,0.1479726,-0.1479726,0.437999,10.051827,-27.080196)"
       style="font-size:40px;line-height:1.25;font-family:'Noto Sans Tagalog';-inkscape-font-specification:'Noto Sans Tagalog';letter-spacing:0px;word-spacing:0px"
       id="flowRoot4329">
      <path
         d="m 161.248,180.99472 v -40.896 c 9.792,0.96 15.168,3.648 15.168,7.488 0,0.96 -0.192,1.536 -1.152,2.88 -2.112,3.456 -3.264,6.912 -3.264,10.368 0,7.68 6.336,13.632 14.592,13.632 9.792,0 16.704,-7.296 16.704,-17.28 0,-15.168 -16.32,-25.728 -42.048,-27.456 v -19.392 h -11.136 v 19.584 c -9.216,1.152 -12.864,2.112 -17.856,4.608 -14.784,7.104 -23.616,21.12 -23.616,37.44 0,18.048 10.56,28.992 34.944,36.48 l 6.528,2.112 v 45.696 c -11.328,-0.768 -21.312,-4.992 -21.312,-9.216 0,-0.768 0.384,-1.152 1.344,-2.112 4.032,-3.264 6.72,-9.024 6.72,-14.208 0,-8.064 -6.72,-14.016 -15.552,-14.016 -9.6,0 -16.512,7.488 -16.512,18.048 0,15.36 12.48,26.304 34.752,30.72 3.456,0.768 6.144,0.96 10.56,1.344 v 23.616 h 11.136 v -24 c 28.224,-3.264 44.16,-18.816 44.16,-42.816 0,-20.544 -11.52,-32.64 -39.168,-41.088 z m -11.136,-3.456 -2.496,-0.768 c -10.752,-3.264 -15.936,-9.024 -15.936,-18.048 0,-10.368 6.144,-16.32 18.432,-18.432 z m 11.136,36.48 1.92,0.576 c 12.48,3.84 18.24,10.368 18.24,20.928 0,8.064 -4.608,15.36 -11.904,18.24 -2.304,0.96 -4.416,1.536 -8.256,1.92 z"
         style="font-style:normal;font-variant:normal;font-weight:bold;font-stretch:normal;font-size:192px;font-family:'Century Schoolbook L';-inkscape-font-specification:'Century Schoolbook L Bold';fill:#71a34e;fill-opacity:1"
         id="path4339" />
    </g>
    <g
       aria-label="$"
       transform="matrix(0.36727076,-0.1430962,0.1430962,0.36727076,376.41642,23.802317)"
       style="font-size:40px;line-height:1.25;font-family:'Noto Sans Tagalog';-inkscape-font-specification:'Noto Sans Tagalog';letter-spacing:0px;word-spacing:0px"
       id="flowRoot4343">
      <path
         d="m 161.248,180.99472 v -40.896 c 9.792,0.96 15.168,3.648 15.168,7.488 0,0.96 -0.192,1.536 -1.152,2.88 -2.112,3.456 -3.264,6.912 -3.264,10.368 0,7.68 6.336,13.632 14.592,13.632 9.792,0 16.704,-7.296 16.704,-17.28 0,-15.168 -16.32,-25.728 -42.048,-27.456 v -19.392 h -11.136 v 19.584 c -9.216,1.152 -12.864,2.112 -17.856,4.608 -14.784,7.104 -23.616,21.12 -23.616,37.44 0,18.048 10.56,28.992 34.944,36.48 l 6.528,2.112 v 45.696 c -11.328,-0.768 -21.312,-4.992 -21.312,-9.216 0,-0.768 0.384,-1.152 1.344,-2.112 4.032,-3.264 6.72,-9.024 6.72,-14.208 0,-8.064 -6.72,-14.016 -15.552,-14.016 -9.6,0 -16.512,7.488 -16.512,18.048 0,15.36 12.48,26.304 34.752,30.72 3.456,0.768 6.144,0.96 10.56,1.344 v 23.616 h 11.136 v -24 c 28.224,-3.264 44.16,-18.816 44.16,-42.816 0,-20.544 -11.52,-32.64 -39.168,-41.088 z m -11.136,-3.456 -2.496,-0.768 c -10.752,-3.264 -15.936,-9.024 -15.936,-18.048 0,-10.368 6.144,-16.32 18.432,-18.432 z m 11.136,36.48 1.92,0.576 c 12.48,3.84 18.24,10.368 18.24,20.928 0,8.064 -4.608,15.36 -11.904,18.24 -2.304,0.96 -4.416,1.536 -8.256,1.92 z"
         style="font-style:normal;font-variant:normal;font-weight:bold;font-stretch:normal;font-size:192px;font-family:'Century Schoolbook L';-inkscape-font-specification:'Century Schoolbook L Bold';fill:#71a34e;fill-opacity:1"
         id="path4335" />
    </g>
  </g>
</svg>
