<?xml version="1.0" encoding="UTF-8" standalone="no"?>
<!-- Created with Inkscape (http://www.inkscape.org/) -->

<svg
   xmlns:dc="http://purl.org/dc/elements/1.1/"
   xmlns:cc="http://creativecommons.org/ns#"
   xmlns:rdf="http://www.w3.org/1999/02/22-rdf-syntax-ns#"
   xmlns:svg="http://www.w3.org/2000/svg"
   xmlns="http://www.w3.org/2000/svg"
   xmlns:sodipodi="http://sodipodi.sourceforge.net/DTD/sodipodi-0.dtd"
   xmlns:inkscape="http://www.inkscape.org/namespaces/inkscape"
   width="74.344337mm"
   height="133.81981mm"
   viewBox="0 0 74.344337 133.81981"
   version="1.1"
   id="svg8"
   inkscape:version="0.92+devel unknown"
   sodipodi:docname="BG IST.svg">
  <defs
     id="defs2" />
  <sodipodi:namedview
     id="base"
     pagecolor="#ffffff"
     bordercolor="#666666"
     borderopacity="1.0"
     inkscape:pageopacity="0.0"
     inkscape:pageshadow="2"
     inkscape:zoom="0.7"
     inkscape:cx="260.55878"
     inkscape:cy="316.67414"
     inkscape:document-units="mm"
     inkscape:current-layer="layer1"
     inkscape:document-rotation="0"
     showgrid="false"
     inkscape:window-width="1920"
     inkscape:window-height="1016"
     inkscape:window-x="0"
     inkscape:window-y="0"
     inkscape:window-maximized="1"
     fit-margin-top="0"
     fit-margin-left="0"
     fit-margin-right="0"
     fit-margin-bottom="0">
    <inkscape:grid
       type="xygrid"
       id="grid4267"
       originx="-97.895832"
       originy="-58.003112" />
  </sodipodi:namedview>
  <metadata
     id="metadata5">
    <rdf:RDF>
      <cc:Work
         rdf:about="">
        <dc:format>image/svg+xml</dc:format>
        <dc:type
           rdf:resource="http://purl.org/dc/dcmitype/StillImage" />
        <dc:title />
        <cc:license
           rdf:resource="http://creativecommons.org/licenses/by/4.0/" />
      </cc:Work>
      <cc:License
         rdf:about="http://creativecommons.org/licenses/by/4.0/">
        <cc:permits
           rdf:resource="http://creativecommons.org/ns#Reproduction" />
        <cc:permits
           rdf:resource="http://creativecommons.org/ns#Distribution" />
        <cc:requires
           rdf:resource="http://creativecommons.org/ns#Notice" />
        <cc:requires
           rdf:resource="http://creativecommons.org/ns#Attribution" />
        <cc:permits
           rdf:resource="http://creativecommons.org/ns#DerivativeWorks" />
      </cc:License>
    </rdf:RDF>
  </metadata>
  <g
     inkscape:label="Layer 1"
     inkscape:groupmode="layer"
     id="layer1"
     transform="translate(-97.895836,-105.17708)">
    <g
       id="g4342">
      <rect
         y="105.17708"
         x="97.895836"
         height="133.81981"
         width="74.344337"
         id="rect4281"
         style="fill:#ff6600;stroke-width:115.3730545;stroke-linejoin:bevel;paint-order:markers fill stroke" />
      <g
         transform="matrix(11.239459,0,0,11.239459,-1002.4004,-1076.9564)"
         id="g4355">
        <g
           aria-label="BG IST"
           transform="matrix(0.26458333,0,0,0.26458333,-0.08620094,-0.49473256)"
           style="font-style:normal;font-weight:normal;font-size:13.33333397px;line-height:1.25;font-family:sans-serif;letter-spacing:0px;word-spacing:0px;fill:#ffffff;fill-opacity:1;stroke:none"
           id="flowRoot4271">
          <g
             id="g4318">
            <path
               inkscape:connector-curvature="0"
               id="path4305"
               style="font-style:normal;font-variant:normal;font-weight:bold;font-stretch:normal;font-size:17.33333397px;font-family:'League Gothic';-inkscape-font-specification:'League Gothic Bold';text-align:center;text-anchor:middle;fill:#ffffff;fill-opacity:1"
               d="m 379.23565,417.4262 c 2.236,-0.0867 2.89466,-1.73333 2.89466,-3.60534 0,-2.53066 -1.3,-3.12 -1.3,-3.12 0.90134,-0.78 1.16134,-1.456 1.16134,-2.63466 0,-2.53067 -1.17867,-3.38 -3.41467,-3.38 -0.71067,0 -1.64667,0 -1.64667,0 v 12.74 z m 0.95333,-3.81334 c 0,2.09734 -1.04,1.95867 -1.38667,1.95867 v -3.91733 c 0.34667,0 1.38667,-0.13867 1.38667,1.95866 z m 0,-5.37333 c 0,1.75067 -1.04,1.69867 -1.38667,1.69867 v -3.39734 c 0.34667,0 1.38667,-0.052 1.38667,1.69867 z" />
            <path
               inkscape:connector-curvature="0"
               id="path4307"
               style="font-style:normal;font-variant:normal;font-weight:bold;font-stretch:normal;font-size:17.33333397px;font-family:'League Gothic';-inkscape-font-specification:'League Gothic Bold';text-align:center;text-anchor:middle;fill:#ffffff;fill-opacity:1"
               d="m 388.09785,409.2622 v -1.95867 c 0,0 0.0173,-2.756 -2.496,-2.756 -2.51333,0 -2.496,2.756 -2.496,2.756 v 7.50534 c 0,0 -0.17333,2.756 2.20134,2.756 0.58933,0 1.10933,-0.312 1.456,-0.74534 l 0.22533,0.60667 h 1.10933 v -6.344 h -2.61733 v 1.57733 h 0.74533 v 2.30534 c 0,0 0.0347,0.936 -0.624,0.936 -0.65866,0 -0.624,-0.936 -0.624,-0.936 v -7.66134 c 0,0 -0.0347,-0.936 0.624,-0.936 0.65867,0 0.624,0.936 0.624,0.936 v 1.95867 z" />
          </g>
          <path
             inkscape:connector-curvature="0"
             d="m 375.84698,439.09285 h 1.872 v -12.74 h -1.872 z"
             style="font-style:normal;font-variant:normal;font-weight:bold;font-stretch:normal;font-size:17.33333397px;font-family:'League Gothic';-inkscape-font-specification:'League Gothic Bold';text-align:center;text-anchor:middle;fill:#ffffff;fill-opacity:1"
             id="path4309" />
          <path
             inkscape:connector-curvature="0"
             d="m 378.97565,429.19552 c 0,1.36933 0.832,2.66933 1.716,3.96933 0.71066,1.07467 1.508,2.09734 1.508,2.94667 0,0.79733 -0.208,1.404 -0.76267,1.404 -0.78,0 -0.884,-1.10933 -0.884,-2.16667 l -1.83733,0.17334 c 0,1.88933 0.312,3.70933 2.72133,3.70933 2.04533,0 2.6,-1.508 2.6,-3.20667 0,-1.36933 -0.884,-2.63466 -1.75067,-3.93466 -0.728,-1.05734 -1.47333,-2.028 -1.47333,-2.89467 0,-0.728 0.156,-1.248 0.64133,-1.26533 0.624,0 0.74534,0.988 0.74534,1.83733 l 1.83733,-0.17333 c 0,-1.42134 -0.364,-3.432 -2.61733,-3.38 -1.768,0.0347 -2.444,1.59466 -2.444,2.98133 z"
             style="font-style:normal;font-variant:normal;font-weight:bold;font-stretch:normal;font-size:17.33333397px;font-family:'League Gothic';-inkscape-font-specification:'League Gothic Bold';text-align:center;text-anchor:middle;fill:#ffffff;fill-opacity:1"
             id="path4311" />
          <path
             inkscape:connector-curvature="0"
             d="m 386.16465,428.27685 v 10.816 h 1.872 v -10.816 h 1.768 v -1.924 h -5.408 v 1.924 z"
             style="font-style:normal;font-variant:normal;font-weight:bold;font-stretch:normal;font-size:17.33333397px;font-family:'League Gothic';-inkscape-font-specification:'League Gothic Bold';text-align:center;text-anchor:middle;fill:#ffffff;fill-opacity:1"
             id="path4313" />
        </g>
        <g
           id="g4303"
           transform="matrix(1.0780464,-0.6224104,0.6224104,1.0780464,-75.54707,54.686524)">
          <path
             inkscape:connector-curvature="0"
             id="path4285"
             d="M 99.218749,107.02917 H 103.1875"
             style="fill:none;stroke:#ff6600;stroke-width:0.26458332px;stroke-linecap:butt;stroke-linejoin:miter;stroke-opacity:1" />
          <path
             inkscape:connector-curvature="0"
             id="path4287"
             d="M 103.1875,107.55833 H 99.218749"
             style="fill:none;stroke:#ff6600;stroke-width:0.26458332px;stroke-linecap:butt;stroke-linejoin:miter;stroke-opacity:1" />
          <path
             inkscape:connector-curvature="0"
             id="path4289"
             d="M 99.218749,108.0875 H 103.1875"
             style="fill:none;stroke:#ff6600;stroke-width:0.26458332px;stroke-linecap:butt;stroke-linejoin:miter;stroke-opacity:1" />
          <path
             inkscape:connector-curvature="0"
             id="path4291"
             d="M 103.1875,108.61667 H 99.218749"
             style="fill:none;stroke:#ff6600;stroke-width:0.26458332px;stroke-linecap:butt;stroke-linejoin:miter;stroke-opacity:1" />
          <path
             inkscape:connector-curvature="0"
             id="path4293"
             d="M 99.218749,109.14583 H 103.1875"
             style="fill:none;stroke:#ff6600;stroke-width:0.26458332px;stroke-linecap:butt;stroke-linejoin:miter;stroke-opacity:1" />
          <path
             inkscape:connector-curvature="0"
             id="path4295"
             d="M 103.1875,109.675 H 99.218749"
             style="fill:none;stroke:#ff6600;stroke-width:0.26458332px;stroke-linecap:butt;stroke-linejoin:miter;stroke-opacity:1" />
        </g>
        <g
           transform="matrix(1.0780464,-0.6224104,0.6224104,1.0780464,-75.337077,60.268118)"
           id="g4332">
          <path
             style="fill:none;stroke:#ff6600;stroke-width:0.26458332px;stroke-linecap:butt;stroke-linejoin:miter;stroke-opacity:1"
             d="M 99.218749,107.02917 H 103.1875"
             id="path4320"
             inkscape:connector-curvature="0" />
          <path
             style="fill:none;stroke:#ff6600;stroke-width:0.26458332px;stroke-linecap:butt;stroke-linejoin:miter;stroke-opacity:1"
             d="M 103.1875,107.55833 H 99.218749"
             id="path4322"
             inkscape:connector-curvature="0" />
          <path
             style="fill:none;stroke:#ff6600;stroke-width:0.26458332px;stroke-linecap:butt;stroke-linejoin:miter;stroke-opacity:1"
             d="M 99.218749,108.0875 H 103.1875"
             id="path4324"
             inkscape:connector-curvature="0" />
          <path
             style="fill:none;stroke:#ff6600;stroke-width:0.26458332px;stroke-linecap:butt;stroke-linejoin:miter;stroke-opacity:1"
             d="M 103.1875,108.61667 H 99.218749"
             id="path4326"
             inkscape:connector-curvature="0" />
          <path
             style="fill:none;stroke:#ff6600;stroke-width:0.26458332px;stroke-linecap:butt;stroke-linejoin:miter;stroke-opacity:1"
             d="M 99.218749,109.14583 H 103.1875"
             id="path4328"
             inkscape:connector-curvature="0" />
          <path
             style="fill:none;stroke:#ff6600;stroke-width:0.26458332px;stroke-linecap:butt;stroke-linejoin:miter;stroke-opacity:1"
             d="M 103.1875,109.675 H 99.218749"
             id="path4330"
             inkscape:connector-curvature="0" />
        </g>
      </g>
    </g>
  </g>
</svg>
