<?xml version="1.0" encoding="UTF-8" standalone="no"?>
<!-- Created with Inkscape (http://www.inkscape.org/) -->

<svg
   xmlns:dc="http://purl.org/dc/elements/1.1/"
   xmlns:cc="http://creativecommons.org/ns#"
   xmlns:rdf="http://www.w3.org/1999/02/22-rdf-syntax-ns#"
   xmlns:svg="http://www.w3.org/2000/svg"
   xmlns="http://www.w3.org/2000/svg"
   xmlns:sodipodi="http://sodipodi.sourceforge.net/DTD/sodipodi-0.dtd"
   xmlns:inkscape="http://www.inkscape.org/namespaces/inkscape"
   width="1920"
   height="1080"
   viewBox="0 0 507.99999 285.75001"
   version="1.1"
   id="svg8"
   inkscape:version="0.92+devel unknown"
   sodipodi:docname="10am.svg">
  <defs
     id="defs2" />
  <sodipodi:namedview
     id="base"
     pagecolor="#ffffff"
     bordercolor="#666666"
     borderopacity="1.0"
     inkscape:pageopacity="0.0"
     inkscape:pageshadow="2"
     inkscape:zoom="0.49497475"
     inkscape:cx="1190.1871"
     inkscape:cy="541.30317"
     inkscape:document-units="mm"
     inkscape:current-layer="layer1"
     inkscape:document-rotation="0"
     showgrid="false"
     units="px"
     inkscape:window-width="1920"
     inkscape:window-height="1016"
     inkscape:window-x="0"
     inkscape:window-y="0"
     inkscape:window-maximized="1" />
  <metadata
     id="metadata5">
    <rdf:RDF>
      <cc:Work
         rdf:about="">
        <dc:format>image/svg+xml</dc:format>
        <dc:type
           rdf:resource="http://purl.org/dc/dcmitype/StillImage" />
        <dc:title />
        <cc:license
           rdf:resource="http://creativecommons.org/licenses/by/4.0/" />
      </cc:Work>
      <cc:License
         rdf:about="http://creativecommons.org/licenses/by/4.0/">
        <cc:permits
           rdf:resource="http://creativecommons.org/ns#Reproduction" />
        <cc:permits
           rdf:resource="http://creativecommons.org/ns#Distribution" />
        <cc:requires
           rdf:resource="http://creativecommons.org/ns#Notice" />
        <cc:requires
           rdf:resource="http://creativecommons.org/ns#Attribution" />
        <cc:permits
           rdf:resource="http://creativecommons.org/ns#DerivativeWorks" />
      </cc:License>
    </rdf:RDF>
  </metadata>
  <g
     inkscape:label="Layer 1"
     inkscape:groupmode="layer"
     id="layer1"
     transform="translate(0,-11.249983)">
    <rect
       style="fill:#8787de;fill-opacity:1;stroke:none;stroke-width:3.65399981;stroke-linecap:round;stroke-linejoin:round;stroke-miterlimit:4;stroke-dasharray:none;stroke-dashoffset:0;stroke-opacity:1;paint-order:stroke fill markers"
       id="rect4286"
       width="516.21436"
       height="312.42136"
       x="-4.1071777"
       y="-2.085695"
       ry="0.55484182" />
    <g
       aria-label="10AM"
       transform="matrix(1.8464327,0,0,1.8464327,-203.98135,-424.77393)"
       style="font-style:normal;font-weight:normal;font-size:40px;line-height:1.25;font-family:sans-serif;letter-spacing:0px;word-spacing:0px;fill:#000000;fill-opacity:1;stroke:none"
       id="flowRoot4272">
      <path
         d="m 128.32527,273.49089 v 110.592 h 20.736 v -141.12 h -12.48 c 0,0 -4.8,13.824 -22.08,17.28 v 13.248 z"
         style="font-style:normal;font-variant:normal;font-weight:normal;font-stretch:normal;font-size:192px;font-family:'League Gothic';-inkscape-font-specification:'League Gothic';fill:#ffffff"
         id="path4280" />
      <path
         d="m 218.45427,355.09089 v -83.136 c 0,0 0.192,-30.528 -27.648,-30.528 -27.84,0 -27.648,30.528 -27.648,30.528 v 83.136 c 0,0 -0.192,30.528 27.648,30.528 27.84,0 27.648,-30.528 27.648,-30.528 z m -20.736,-83.136 v 83.136 c 0,0 0.384,10.368 -6.912,10.368 -7.296,0 -6.912,-10.368 -6.912,-10.368 v -83.136 c 0,0 -0.384,-10.368 6.912,-10.368 7.296,0 6.912,10.368 6.912,10.368 z"
         style="font-style:normal;font-variant:normal;font-weight:normal;font-stretch:normal;font-size:192px;font-family:'League Gothic';-inkscape-font-specification:'League Gothic';fill:#ffffff"
         id="path4282" />
      <path
         d="m 246.77727,384.08289 3.84,-28.8 h 19.968 l 3.84,28.8 h 20.16 l -21.312,-141.12 h -25.344 l -21.312,141.12 z m 20.928,-50.688 h -14.208 l 5.952,-44.544 0.576,-3.648 h 1.152 l 0.576,3.648 z"
         style="font-style:normal;font-variant:normal;font-weight:normal;font-stretch:normal;font-size:192px;font-family:'League Gothic';-inkscape-font-specification:'League Gothic';fill:#ffffff"
         id="path4284" />
      <path
         d="m 347.20227,384.08289 13.248,-88.704 0.768,-5.952 h 1.152 v 5.952 88.704 h 19.2 v -141.12 h -25.344 l -12.288,64.512 -0.96,7.488 h -0.384 l -0.96,-7.488 -12.288,-64.512 h -25.344 v 141.12 h 19.2 v -88.704 -5.952 h 1.152 l 0.768,5.952 13.248,88.704 z"
         style="font-style:normal;font-variant:normal;font-weight:normal;font-stretch:normal;font-size:192px;font-family:'League Gothic';-inkscape-font-specification:'League Gothic';fill:#ffffff"
         id="path4286" />
    </g>
  </g>
</svg>
