<?xml version="1.0" encoding="UTF-8" standalone="no"?>
<!-- Created with Inkscape (http://www.inkscape.org/) -->

<svg
   xmlns:dc="http://purl.org/dc/elements/1.1/"
   xmlns:cc="http://creativecommons.org/ns#"
   xmlns:rdf="http://www.w3.org/1999/02/22-rdf-syntax-ns#"
   xmlns:svg="http://www.w3.org/2000/svg"
   xmlns="http://www.w3.org/2000/svg"
   xmlns:sodipodi="http://sodipodi.sourceforge.net/DTD/sodipodi-0.dtd"
   xmlns:inkscape="http://www.inkscape.org/namespaces/inkscape"
   width="1920"
   height="1080"
   viewBox="0 0 507.99999 285.75001"
   version="1.1"
   id="svg8"
   inkscape:version="0.92+devel unknown"
   sodipodi:docname="11am.svg">
  <defs
     id="defs2" />
  <sodipodi:namedview
     id="base"
     pagecolor="#ffffff"
     bordercolor="#666666"
     borderopacity="1.0"
     inkscape:pageopacity="0.0"
     inkscape:pageshadow="2"
     inkscape:zoom="0.35"
     inkscape:cx="-113.82075"
     inkscape:cy="758.38127"
     inkscape:document-units="mm"
     inkscape:current-layer="flowRoot4270"
     inkscape:document-rotation="0"
     showgrid="false"
     units="px"
     inkscape:window-width="1920"
     inkscape:window-height="1016"
     inkscape:window-x="0"
     inkscape:window-y="0"
     inkscape:window-maximized="1" />
  <metadata
     id="metadata5">
    <rdf:RDF>
      <cc:Work
         rdf:about="">
        <dc:format>image/svg+xml</dc:format>
        <dc:type
           rdf:resource="http://purl.org/dc/dcmitype/StillImage" />
        <dc:title />
        <cc:license
           rdf:resource="http://creativecommons.org/licenses/by/4.0/" />
      </cc:Work>
      <cc:License
         rdf:about="http://creativecommons.org/licenses/by/4.0/">
        <cc:permits
           rdf:resource="http://creativecommons.org/ns#Reproduction" />
        <cc:permits
           rdf:resource="http://creativecommons.org/ns#Distribution" />
        <cc:requires
           rdf:resource="http://creativecommons.org/ns#Notice" />
        <cc:requires
           rdf:resource="http://creativecommons.org/ns#Attribution" />
        <cc:permits
           rdf:resource="http://creativecommons.org/ns#DerivativeWorks" />
      </cc:License>
    </rdf:RDF>
  </metadata>
  <g
     inkscape:label="Layer 1"
     inkscape:groupmode="layer"
     id="layer1"
     transform="translate(0,-11.249983)">
    <rect
       style="fill:#ffcc00;fill-opacity:1;stroke:none;stroke-width:4.52094126;stroke-linecap:round;stroke-linejoin:round;stroke-miterlimit:4;stroke-dasharray:none;stroke-dashoffset:0;stroke-opacity:1;paint-order:stroke fill markers"
       id="rect4286"
       width="638.69043"
       height="386.5459"
       x="-87.612709"
       y="-52.52351"
       ry="0.68648261" />
    <g
       aria-label="10AM"
       transform="matrix(1.8464327,0,0,1.8464327,-203.98135,-424.77393)"
       style="font-style:normal;font-weight:normal;font-size:40px;line-height:1.25;font-family:sans-serif;letter-spacing:0px;word-spacing:0px;fill:#000000;fill-opacity:1;stroke:none"
       id="flowRoot4272" />
    <g
       aria-label="11 In the morning"
       transform="matrix(1.1111184,0,0,1.1111184,-28.552813,-38.706771)"
       style="font-style:normal;font-weight:normal;font-size:40px;line-height:1.25;font-family:sans-serif;text-align:start;letter-spacing:0px;word-spacing:0px;text-anchor:start;fill:#ffffff;fill-opacity:1;stroke:none"
       id="flowRoot4270">
      <path
         d="M 113.74962,-4.9213373 H 78.248514 C 63.667694,61.009313 47.818984,74.956173 -20.01351,80.027763 v 44.376397 h 84.949104 v 316.34032 h 48.814026 z"
         style="font-style:normal;font-variant:normal;font-weight:normal;font-stretch:condensed;font-size:266.66665649px;font-family:'Nimbus Sans L';-inkscape-font-specification:'Nimbus Sans L Condensed';text-align:start;text-anchor:start;fill:#ffffff;stroke-width:2.37730718"
         id="path4284"
         inkscape:connector-curvature="0" />
      <path
         d="M 198.69872,-4.9213373 H 163.19761 C 148.6168,61.009313 132.76808,74.956173 64.935594,80.027763 v 44.376397 h 84.949096 v 316.34032 h 48.81403 z"
         style="font-style:normal;font-variant:normal;font-weight:normal;font-stretch:condensed;font-size:266.66665649px;font-family:'Nimbus Sans L';-inkscape-font-specification:'Nimbus Sans L Condensed';text-align:start;text-anchor:start;fill:#ffffff;stroke-width:2.37730718"
         id="path4286"
         inkscape:connector-curvature="0" />
      <g
         id="g4325"
         transform="matrix(2.4716447,-0.97762793,0.97762793,2.4716447,-284.46182,-361.96406)"
         style="fill:#ffffff">
        <path
           inkscape:connector-curvature="0"
           id="path4292"
           style="font-size:31.33863068px;fill:#ffffff"
           d="m 98.065625,273.89148 v -2.28772 h -2.19371 v -4.57544 h -2.25638 v 4.57544 h -1.81764 v 2.28772 h 1.81764 v 10.81182 c 0,2.38174 0.84614,3.50993 2.63245,3.50993 0.15669,0 0.28204,0 0.78346,-0.094 0.18803,-0.0313 0.50142,-0.0627 1.00284,-0.12535 v -2.16237 h -0.78347 c -1.00283,0 -1.3789,-0.37606 -1.3789,-1.28488 V 273.8915 Z" />
        <path
           inkscape:connector-curvature="0"
           id="path4294"
           style="font-size:31.33863068px;fill:#ffffff"
           d="m 99.463753,257.14346 h -2.25638 v 22.50114 h 2.25638 v -8.93151 c 0,-3.47859 1.378897,-5.48426 3.823317,-5.48426 1.84898,0 2.63245,1.09685 2.63245,3.69796 v 10.71781 h 2.25638 v -11.15655 c 0,-3.60395 -1.69229,-5.70363 -4.5441,-5.70363 -1.7863,0 -2.85183,0.68945 -4.168047,2.72646 z" />
        <path
           inkscape:connector-curvature="0"
           id="path4296"
           style="font-size:31.33863068px;fill:#ffffff"
           d="m 113.371,288.61606 c -0.21938,1.84898 -1.72363,3.19654 -3.54127,3.19654 -1.31622,0 -2.38174,-0.59543 -3.03985,-1.72362 -0.53275,-0.90882 -0.72079,-1.7863 -0.78346,-3.63528 h 9.80899 c -0.094,-3.22788 -0.37607,-4.76347 -1.15953,-6.39308 -1.03418,-2.16237 -2.53843,-3.1652 -4.7008,-3.1652 -3.88599,0 -6.36174,3.47858 -6.36174,8.96284 0,5.17088 2.3504,8.36742 6.17371,8.36742 3.10253,0 5.26489,-2.06835 5.86033,-5.60962 z m -7.36458,-4.35607 c 0.12535,-2.94583 1.69228,-4.92016 3.85465,-4.92016 1.15953,0 2.13103,0.56409 2.7578,1.56693 0.50142,0.84614 0.72079,1.66095 0.84614,3.35323 z" />
        <path
           inkscape:connector-curvature="0"
           id="path4298"
           style="font-size:31.33863068px;fill:#ffffff"
           d="m 134.39656,295.01367 1.95409,-1.12819 -4.46576,-7.73491 c -1.66095,-2.87685 -1.52082,-5.45463 0.35183,-6.53581 1.13989,-0.65811 2.38248,-0.0728 3.35398,1.60989 l 5.67229,9.82469 1.95409,-1.12819 -4.99851,-8.65767 c -1.23788,-2.14407 -0.98807,-4.53187 0.58605,-5.44069 1.43842,-0.83048 2.74369,-0.13661 4.02857,2.08888 l 5.29623,9.17333 1.9541,-1.12819 -5.67229,-9.82469 c -1.70796,-2.95828 -4.16909,-3.96185 -6.42172,-2.66129 -1.41128,0.8148 -1.88915,1.74206 -2.16917,4.32824 -1.68862,-1.23247 -2.96029,-1.36674 -4.39872,-0.53627 -1.54698,0.89315 -2.18238,2.23703 -2.16805,4.5809 l -1.20654,-2.08978 -1.84552,1.06551 z" />
        <path
           inkscape:connector-curvature="0"
           id="path4300"
           style="font-size:31.33863068px;fill:#ffffff"
           d="m 152.68336,284.04975 c -3.79198,0 -6.33041,3.47858 -6.33041,8.64946 0,5.10819 2.56977,8.64946 6.23639,8.64946 3.69796,0 6.23639,-3.54127 6.23639,-8.64946 0,-5.04552 -2.53843,-8.64946 -6.14237,-8.64946 z m -0.0313,2.41307 c 2.28772,0 3.82331,2.47575 3.82331,6.23639 0,3.79197 -1.53559,6.23639 -3.88599,6.23639 -2.3504,0 -3.88599,-2.44442 -3.88599,-6.23639 0,-3.82331 1.50425,-6.23639 3.94867,-6.23639 z" />
        <path
           inkscape:connector-curvature="0"
           id="path4302"
           style="font-size:31.33863068px;fill:#ffffff"
           d="m 161.90928,274.04817 v -2.82048 c -0.21938,-0.0627 -0.37607,-0.094 -0.59544,-0.094 -1.56693,0 -2.63244,0.90882 -3.82331,3.25921 v -2.78913 h -2.13103 v 16.3901 h 2.25638 v -9.55828 c 0,-2.53843 1.44158,-4.38741 3.44725,-4.38741 z" />
        <path
           inkscape:connector-curvature="0"
           id="path4304"
           style="font-size:31.33863068px;fill:#ffffff"
           d="m 161.78392,257.65807 h -2.13102 v 16.3901 h 2.25638 v -8.93151 c 0,-3.41591 1.41024,-5.48426 3.69796,-5.48426 1.91165,0 2.7578,1.31622 2.7578,4.32473 v 10.09104 h 2.25638 v -11.15655 c 0,-3.60395 -1.69229,-5.70363 -4.5441,-5.70363 -1.84898,0 -3.13387,0.84614 -4.2934,2.88315 z" />
        <path
           inkscape:connector-curvature="0"
           id="path4306"
           style="font-size:31.33863068px;fill:#ffffff"
           d="m 170.62142,277.02534 h -2.25638 v 16.3901 h 2.25638 z m 0,-2.97717 v -3.13387 h -2.25638 v 3.13387 z" />
        <path
           inkscape:connector-curvature="0"
           id="path4308"
           style="font-size:31.33863068px;fill:#ffffff"
           d="m 175.52238,276.48258 h -2.13102 v 16.3901 h 2.25638 v -8.93151 c 0,-3.41591 1.41024,-5.48426 3.69796,-5.48426 1.91165,0 2.7578,1.31622 2.7578,4.32473 v 10.09104 h 2.25638 v -11.15655 c 0,-3.60395 -1.69229,-5.70363 -4.5441,-5.70363 -1.84898,0 -3.13387,0.84614 -4.2934,2.88315 z" />
        <path
           inkscape:connector-curvature="0"
           id="path4310"
           style="font-size:31.33863068px;fill:#ffffff"
           d="m 192.74894,260.17023 h -2.13102 v 2.41307 c -1.22221,-2.13103 -2.28772,-2.88315 -4.10536,-2.88315 -3.3219,0 -5.54694,3.32189 -5.54694,8.27339 0,5.45293 2.31906,9.05687 5.86032,9.05687 1.66095,0 2.78914,-0.68945 3.66662,-2.28772 v 0.65811 c 0,2.00567 -0.15669,3.03985 -0.59543,3.91733 -0.59544,1.25354 -1.66095,1.84898 -3.25922,1.84898 -1.72362,0 -2.60111,-0.75213 -3.00851,-2.60111 h -2.25638 c 0.34473,2.09969 0.78347,3.03985 1.84898,3.88599 0.87748,0.65811 2.00567,1.00284 3.3219,1.00284 2.35039,0 4.10536,-0.90882 5.10819,-2.63245 0.78347,-1.34756 1.09685,-2.97717 1.09685,-5.60961 z m -5.7663,1.97433 c 2.31905,0 3.60394,2.3504 3.60394,6.67513 0,3.60394 -1.3789,5.79764 -3.69796,5.79764 -2.25638,0 -3.5726,-2.38173 -3.5726,-6.48709 0,-4.01135 1.2222,-5.98568 3.66662,-5.98568 z" />
      </g>
    </g>
  </g>
</svg>
