<?xml version="1.0" encoding="UTF-8" standalone="no"?>
<!-- Created with Inkscape (http://www.inkscape.org/) -->

<svg
   xmlns:dc="http://purl.org/dc/elements/1.1/"
   xmlns:cc="http://creativecommons.org/ns#"
   xmlns:rdf="http://www.w3.org/1999/02/22-rdf-syntax-ns#"
   xmlns:svg="http://www.w3.org/2000/svg"
   xmlns="http://www.w3.org/2000/svg"
   xmlns:sodipodi="http://sodipodi.sourceforge.net/DTD/sodipodi-0.dtd"
   xmlns:inkscape="http://www.inkscape.org/namespaces/inkscape"
   width="1920"
   height="1080"
   viewBox="0 0 507.99999 285.75001"
   version="1.1"
   id="svg8"
   inkscape:version="0.92+devel unknown"
   sodipodi:docname="2pm.svg">
  <defs
     id="defs2" />
  <sodipodi:namedview
     id="base"
     pagecolor="#ffffff"
     bordercolor="#666666"
     borderopacity="1.0"
     inkscape:pageopacity="0.0"
     inkscape:pageshadow="2"
     inkscape:zoom="0.35"
     inkscape:cx="166.07458"
     inkscape:cy="126.60487"
     inkscape:document-units="mm"
     inkscape:current-layer="layer1"
     inkscape:document-rotation="0"
     showgrid="false"
     units="px"
     inkscape:window-width="1920"
     inkscape:window-height="1016"
     inkscape:window-x="0"
     inkscape:window-y="0"
     inkscape:window-maximized="1" />
  <metadata
     id="metadata5">
    <rdf:RDF>
      <cc:Work
         rdf:about="">
        <dc:format>image/svg+xml</dc:format>
        <dc:type
           rdf:resource="http://purl.org/dc/dcmitype/StillImage" />
        <dc:title />
        <cc:license
           rdf:resource="http://creativecommons.org/licenses/by/4.0/" />
      </cc:Work>
      <cc:License
         rdf:about="http://creativecommons.org/licenses/by/4.0/">
        <cc:permits
           rdf:resource="http://creativecommons.org/ns#Reproduction" />
        <cc:permits
           rdf:resource="http://creativecommons.org/ns#Distribution" />
        <cc:requires
           rdf:resource="http://creativecommons.org/ns#Notice" />
        <cc:requires
           rdf:resource="http://creativecommons.org/ns#Attribution" />
        <cc:permits
           rdf:resource="http://creativecommons.org/ns#DerivativeWorks" />
      </cc:License>
    </rdf:RDF>
  </metadata>
  <g
     inkscape:label="Layer 1"
     inkscape:groupmode="layer"
     id="layer1"
     transform="translate(0,-11.249983)">
    <rect
       style="fill:#ff6600;fill-opacity:1;stroke:none;stroke-width:3.65399981;stroke-linecap:round;stroke-linejoin:round;stroke-miterlimit:4;stroke-dasharray:none;stroke-dashoffset:0;stroke-opacity:1;paint-order:stroke fill markers"
       id="rect4286"
       width="516.21436"
       height="312.42136"
       x="-4.1071777"
       y="-2.085695"
       ry="0.55484182" />
    <g
       aria-label="2 PM"
       transform="matrix(4.3347222,-1.1614853,0,4.3347222,-2854.26,-739.44734)"
       style="font-style:normal;font-weight:normal;font-size:40px;line-height:1.25;font-family:sans-serif;letter-spacing:0px;word-spacing:0px;fill:#ffffff;fill-opacity:1;stroke:none"
       id="flowRoot4270">
      <path
         d="m 684.7257,389.95883 c 1.24,-2.04 1.32,-1.4 3.88,-3.84 -0.6,5.12 -6.6,9.64 -10.72,13.24 -1.68,1.44 -3.4,3.12 -5.12,4.68 l -1.4,1.24 c -1.16,1.08 -4.04,3.72 -4.12,5.48 -0.04,0.96 0.6,1.32 0.6,2.12 0,0.32 -0.28,0.8 -0.28,1.16 -0.08,1.2 2.8,1.64 6.24,1.64 4.2,0 9.2,-0.76 10.52,-1.84 1.76,-1.16 3.12,-3.76 3.2,-5.36 0.08,-1.52 -1.72,-2.16 -5.64,-2.16 -0.76,0 -1.84,0.08 -3.2,0.2 l 1.52,-1.16 c 3.24,-2.52 6.56,-5.04 9.2,-7.72 3.32,-3.36 8.08,-8.28 8.28,-12.36 0.2,-3.52 -3.56,-5.76 -7.28,-5.76 -6.56,0 -10.84,4.36 -14.68,9.6 v -0.04 c -0.28,0.56 -0.48,1.04 -0.52,1.52 -0.08,1.48 1.48,2.12 3.4,2.12 2.4,0 5.32,-1 6.08,-2.76 z"
         style="font-style:normal;font-variant:normal;font-weight:normal;font-stretch:normal;font-family:Knewave;-inkscape-font-specification:Knewave;fill:#ffffff;fill-opacity:1"
         id="path4269" />
      <path
         d="m 732.50445,400.19883 c 2.56,-3.28 5.2,-9.24 5.4,-13.52 0.24,-4.08 -2.2,-6.6 -5.6,-6.6 -2.04,0 -3.68,1 -6.08,2.24 -2.92,1.56 -3.76,2.4 -7.64,7.28 -1.64,2.04 -1.96,2.4 -4.16,6.08 -2.92,4.72 -5.84,10.52 -8.32,15.88 v -0.04 c -0.04,0.2 -0.08,0.36 -0.08,0.52 -0.12,2.08 1.76,3.08 3.92,3.08 2.72,0 4.88,-1.52 6.36,-4.16 v 0.04 c 0.76,-2.52 1.76,-5 2.96,-7.48 1.04,1.24 2.4,1.76 3.92,1.76 3.04,0 6.88,-2 9.32,-5.08 z m -11.12,-0.56 c 0.96,-1.6 2.08,-3.12 2.96,-4.76 l 0.56,-0.92 c 1.08,-1.76 2.44,-3.76 4.12,-6.04 0,0.16 -0.04,0.32 -0.04,0.48 -0.24,4.72 -2.28,10.4 -7.4,11.52 z"
         style="font-style:normal;font-variant:normal;font-weight:normal;font-stretch:normal;font-family:Knewave;-inkscape-font-specification:Knewave;fill:#ffffff;fill-opacity:1"
         id="path4271" />
      <path
         d="m 750.39383,381.95883 c -1.92,0 -4.24,0.8 -5.84,3.12 -2.16,2.12 -4.96,6.72 -6.36,9.52 -2.16,4.36 -7.32,14.88 -7.48,17.32 -0.04,1.28 1.28,1.92 2.84,1.92 4.08,0 5.72,-2.28 9.04,-10.08 l 0.36,0.12 c 0,1.6 0.08,0.44 0.52,2.44 0,0.32 0.68,0.44 1.4,0.44 0.56,0 1.2,-0.12 1.52,-0.16 l 0.4,-0.12 c 1.2,-0.36 1.8,-0.52 4.4,-3.32 l 0.4,0.16 c -1.04,2.44 -2.36,5.6 -2.32,5.48 l -0.72,2.76 c -0.04,0.12 -0.04,0.24 -0.08,0.32 -0.04,1.08 1.12,1.6 2.56,1.6 1.8,0 3.84,-0.8 4.64,-2.32 4.32,-8.2 7.76,-17.4 11.16,-27.72 0.04,-0.2 0.04,-0.4 0.04,-0.6 0.08,-1.4 -1,-1.96 -2.4,-1.96 -1.08,0 -2.36,0.28 -3.28,0.76 h 0.04 c -3.96,2.36 -7.56,6.88 -10.48,10.6 l -0.32,-0.2 c 0.76,-1.84 1.48,-3.84 1.6,-6.12 0.04,-0.24 0.04,-0.48 0.04,-0.72 0.68,-0.64 0.92,-0.84 0.96,-1.44 0.04,-0.36 -0.04,-0.8 -0.12,-1.2 -0.6,-0.32 -1.48,-0.6 -2.52,-0.6 z m 2.56,0.64 c -0.04,0 -0.08,-0.04 -0.08,-0.12 z"
         style="font-style:normal;font-variant:normal;font-weight:normal;font-stretch:normal;font-family:Knewave;-inkscape-font-specification:Knewave;fill:#ffffff;fill-opacity:1"
         id="path4273" />
    </g>
  </g>
</svg>
