<?xml version="1.0" encoding="UTF-8" standalone="no"?>
<!-- Created with Inkscape (http://www.inkscape.org/) -->

<svg
   xmlns:dc="http://purl.org/dc/elements/1.1/"
   xmlns:cc="http://creativecommons.org/ns#"
   xmlns:rdf="http://www.w3.org/1999/02/22-rdf-syntax-ns#"
   xmlns:svg="http://www.w3.org/2000/svg"
   xmlns="http://www.w3.org/2000/svg"
   xmlns:sodipodi="http://sodipodi.sourceforge.net/DTD/sodipodi-0.dtd"
   xmlns:inkscape="http://www.inkscape.org/namespaces/inkscape"
   width="1920"
   height="1080"
   viewBox="0 0 507.99999 285.75001"
   version="1.1"
   id="svg8"
   inkscape:version="0.92+devel unknown"
   sodipodi:docname="3pm.svg">
  <defs
     id="defs2" />
  <sodipodi:namedview
     id="base"
     pagecolor="#ffffff"
     bordercolor="#666666"
     borderopacity="1.0"
     inkscape:pageopacity="0.0"
     inkscape:pageshadow="2"
     inkscape:zoom="0.24748737"
     inkscape:cx="-558.65606"
     inkscape:cy="1145.0789"
     inkscape:document-units="mm"
     inkscape:current-layer="layer1"
     inkscape:document-rotation="0"
     showgrid="false"
     units="px"
     inkscape:window-width="1920"
     inkscape:window-height="1016"
     inkscape:window-x="0"
     inkscape:window-y="0"
     inkscape:window-maximized="1" />
  <metadata
     id="metadata5">
    <rdf:RDF>
      <cc:Work
         rdf:about="">
        <dc:format>image/svg+xml</dc:format>
        <dc:type
           rdf:resource="http://purl.org/dc/dcmitype/StillImage" />
        <dc:title />
        <cc:license
           rdf:resource="http://creativecommons.org/licenses/by/4.0/" />
      </cc:Work>
      <cc:License
         rdf:about="http://creativecommons.org/licenses/by/4.0/">
        <cc:permits
           rdf:resource="http://creativecommons.org/ns#Reproduction" />
        <cc:permits
           rdf:resource="http://creativecommons.org/ns#Distribution" />
        <cc:requires
           rdf:resource="http://creativecommons.org/ns#Notice" />
        <cc:requires
           rdf:resource="http://creativecommons.org/ns#Attribution" />
        <cc:permits
           rdf:resource="http://creativecommons.org/ns#DerivativeWorks" />
      </cc:License>
    </rdf:RDF>
  </metadata>
  <g
     inkscape:label="Layer 1"
     inkscape:groupmode="layer"
     id="layer1"
     transform="translate(0,-11.249983)">
    <rect
       style="fill:#9a00ff;fill-opacity:1;stroke:none;stroke-width:3.65399981;stroke-linecap:round;stroke-linejoin:round;stroke-miterlimit:4;stroke-dasharray:none;stroke-dashoffset:0;stroke-opacity:1;paint-order:stroke fill markers"
       id="rect4286"
       width="516.21436"
       height="312.42136"
       x="-4.1071777"
       y="-2.085695"
       ry="0.55484182" />
    <g
       aria-label="3"
       transform="matrix(3.2697955,12.203043,-12.203043,3.2697955,2482.6732,-11285.377)"
       style="font-style:normal;font-weight:normal;font-size:40px;line-height:1.25;font-family:sans-serif;letter-spacing:0px;word-spacing:0px;fill:#000000;fill-opacity:1;stroke:none"
       id="flowRoot4270">
      <path
         d="m 837.85568,404.48911 c 0.74666,-0.26667 0.85333,-0.26667 1.22666,-0.42667 3.73334,-1.54666 5.86667,-4.53333 5.86667,-8.32 0,-5.54666 -4.26667,-9.17333 -10.88,-9.17333 -6.24,0 -10.98667,3.68 -10.98667,8.53333 0,2.18667 1.49334,3.73334 3.52,3.73334 1.86667,0 3.14667,-1.28 3.14667,-3.2 0,-1.12 -0.42667,-1.86667 -1.65333,-2.72 -0.53334,-0.37334 -0.69334,-0.64 -0.69334,-0.96 0,-1.49334 3.14667,-3.09334 6.13334,-3.09334 3.84,0 5.86666,2.4 5.86666,6.93334 0,4.96 -2.02666,7.57333 -5.86666,7.57333 -0.48,0 -1.33334,-0.0533 -2.13334,-0.10667 -0.42666,-0.0533 -0.85333,-0.0533 -1.17333,-0.0533 -1.12,0 -1.70667,0.48 -1.70667,1.44 0,0.90667 0.58667,1.33333 1.65334,1.33333 0.16,0 0.58666,0 1.28,-0.0533 2.02666,-0.0533 2.08,-0.0533 2.50666,-0.0533 3.94667,0 6.08,2.82666 6.08,8.10666 0,5.49334 -2.72,8.64 -7.46666,8.64 -3.36,0 -6.98667,-1.81333 -6.98667,-3.46666 0,-0.48 0.10667,-0.58667 1.17333,-1.17334 1.49334,-0.90666 2.08,-1.81333 2.08,-3.14666 0,-1.92 -1.44,-3.36 -3.41333,-3.36 -2.24,0 -3.78667,1.92 -3.78667,4.69333 0,5.17333 4.74667,8.74667 11.57334,8.74667 7.68,0 12.74667,-4.26667 12.74667,-10.82667 0,-5.01333 -2.61334,-8.05333 -8.10667,-9.6 z"
         style="font-style:normal;font-variant:normal;font-weight:normal;font-stretch:normal;font-size:53.33333588px;font-family:'Century Schoolbook L';-inkscape-font-specification:'Century Schoolbook L';fill:#ffffff"
         id="path4278"
         inkscape:connector-curvature="0" />
    </g>
    <path
       style="font-style:normal;font-weight:normal;font-size:40px;line-height:1.25;font-family:sans-serif;letter-spacing:0px;word-spacing:0px;fill:#ffffff;fill-opacity:1;stroke:none;stroke-width:2.41612768"
       d="m 334.811,-17.068938 -8.51345,2.281085 c 0.80615,7.7883347 -3.82886,13.1917507 -13.90551,16.2119557 -14.63761,3.922132 -36.75437,9.2087373 -66.34974,15.8580963 -29.51531,6.948082 -51.59224,12.383186 -66.22984,16.305317 -21.20957,5.683092 -35.84439,12.005687 -43.90426,18.967934 -11.00423,10.312577 -15.12575,28.385577 -12.36558,54.22044 l 10.75418,-2.88161 c -0.16009,-0.59746 -0.17091,-1.23475 -0.0323,-1.91225 0.36153,-14.184523 7.86088,-23.237643 22.49848,-27.159773 l 22.40396,-6.00298 4.32243,16.13127 c 22.25209,83.045943 21.17082,127.999513 -3.2447,134.861803 -2.38981,0.64035 -4.97995,0.53401 -7.76998,-0.31928 -7.99132,-2.34117 -13.54786,-9.33703 -16.66956,-20.98737 l -10.75418,2.88162 c 3.28178,12.24778 6.21183,21.38831 8.78892,27.42143 8.51027,19.81169 21.72742,27.31608 39.651,22.51347 30.09132,-8.38312 33.59993,-56.22846 10.52596,-143.53661 -1.841,-6.87071 -4.47174,-16.090903 -7.89216,-27.661193 l -3.9628,-14.78729 60.04475,-16.088619 32.77778,122.327942 c 1.52082,5.6758 3.59896,11.0421 6.23465,16.099 11.02302,22.01996 28.33419,29.86852 51.93358,23.54508 30.68879,-8.5432 40.12867,-36.04597 28.31938,-82.50865 l -10.75421,2.88161 2.04017,7.61784 c 6.45216,31.24908 2.50928,48.79461 -11.82959,52.63669 -12.02911,2.90302 -21.06402,-5.72242 -27.10443,-25.87573 L 289.84513,39.162863 302.39168,35.801751 c 12.54652,-3.361826 21.2284,-6.809667 26.04518,-10.341535 9.33483,-6.983692 11.45974,-21.1594913 6.37414,-42.529154 z"
       id="flowRoot4267"
       inkscape:connector-curvature="0" />
  </g>
</svg>
