<?xml version="1.0" encoding="UTF-8" standalone="no"?>
<!-- Created with Inkscape (http://www.inkscape.org/) -->

<svg
   xmlns:dc="http://purl.org/dc/elements/1.1/"
   xmlns:cc="http://creativecommons.org/ns#"
   xmlns:rdf="http://www.w3.org/1999/02/22-rdf-syntax-ns#"
   xmlns:svg="http://www.w3.org/2000/svg"
   xmlns="http://www.w3.org/2000/svg"
   xmlns:sodipodi="http://sodipodi.sourceforge.net/DTD/sodipodi-0.dtd"
   xmlns:inkscape="http://www.inkscape.org/namespaces/inkscape"
   width="1920"
   height="1080"
   viewBox="0 0 507.99999 285.75001"
   version="1.1"
   id="svg8"
   inkscape:version="0.92+devel unknown"
   sodipodi:docname="4pm.svg">
  <defs
     id="defs2" />
  <sodipodi:namedview
     id="base"
     pagecolor="#ffffff"
     bordercolor="#666666"
     borderopacity="1.0"
     inkscape:pageopacity="0.0"
     inkscape:pageshadow="2"
     inkscape:zoom="0.12374369"
     inkscape:cx="-583.67375"
     inkscape:cy="-912.56176"
     inkscape:document-units="mm"
     inkscape:current-layer="g4292"
     inkscape:document-rotation="0"
     showgrid="false"
     units="px"
     inkscape:window-width="1920"
     inkscape:window-height="1016"
     inkscape:window-x="0"
     inkscape:window-y="0"
     inkscape:window-maximized="1" />
  <metadata
     id="metadata5">
    <rdf:RDF>
      <cc:Work
         rdf:about="">
        <dc:format>image/svg+xml</dc:format>
        <dc:type
           rdf:resource="http://purl.org/dc/dcmitype/StillImage" />
        <dc:title />
        <cc:license
           rdf:resource="http://creativecommons.org/licenses/by/4.0/" />
      </cc:Work>
      <cc:License
         rdf:about="http://creativecommons.org/licenses/by/4.0/">
        <cc:permits
           rdf:resource="http://creativecommons.org/ns#Reproduction" />
        <cc:permits
           rdf:resource="http://creativecommons.org/ns#Distribution" />
        <cc:requires
           rdf:resource="http://creativecommons.org/ns#Notice" />
        <cc:requires
           rdf:resource="http://creativecommons.org/ns#Attribution" />
        <cc:permits
           rdf:resource="http://creativecommons.org/ns#DerivativeWorks" />
      </cc:License>
    </rdf:RDF>
  </metadata>
  <g
     inkscape:label="Layer 1"
     inkscape:groupmode="layer"
     id="layer1"
     transform="translate(0,-11.249983)">
    <rect
       style="fill:#ffffff;fill-opacity:1;stroke:none;stroke-width:3.65399981;stroke-linecap:round;stroke-linejoin:round;stroke-miterlimit:4;stroke-dasharray:none;stroke-dashoffset:0;stroke-opacity:1;paint-order:stroke fill markers"
       id="rect4286"
       width="516.21436"
       height="312.42136"
       x="1201.625"
       y="-231.88341"
       ry="0.55484182" />
    <g
       id="g4278"
       transform="matrix(1.3114381,0,0,1.3114381,200.00434,109.67752)">
      <g
         id="g4292"
         transform="translate(-4.2168064,-0.49670792)">
        <rect
           style="font-style:normal;font-weight:normal;font-size:40px;line-height:1.25;font-family:sans-serif;letter-spacing:0px;word-spacing:0px;fill:#ffffff;fill-opacity:1;stroke:none;stroke-width:15.37625122;stroke-linecap:round;stroke-linejoin:round;paint-order:stroke fill markers"
           id="rect4272"
           width="468.32336"
           height="277.64407"
           x="-188.77202"
           y="-104.43317"
           ry="1.6395723" />
        <g
           id="g4303"
           transform="translate(29.866298,29.866285)">
          <rect
             style="fill:#000000;stroke:none;stroke-width:13.3461113;stroke-linecap:round;stroke-linejoin:round;stroke-opacity:1;paint-order:stroke fill markers"
             id="rect4270"
             width="63.342209"
             height="63.342209"
             x="116.48276"
             y="24.466829"
             ry="0.36721948"
             transform="translate(4.2168064,0.49670786)" />
          <g
             id="flowRoot4270"
             style="font-style:normal;font-weight:normal;font-size:40px;line-height:1.25;font-family:sans-serif;letter-spacing:0px;word-spacing:0px;fill:#000000;fill-opacity:1;stroke:none"
             transform="matrix(1.3457537,5.0224214,-5.0224214,1.3457537,1187.6116,-4568.692)"
             aria-label="3">
            <g
               aria-label="四"
               transform="matrix(0.01317011,-0.04915151,0.04915151,0.01317011,792.14232,448.76008)"
               style="font-style:normal;font-weight:normal;font-size:40px;line-height:1.25;font-family:sans-serif;letter-spacing:0px;word-spacing:0px;fill:#000000;fill-opacity:1;stroke:none"
               id="flowRoot4267">
              <path
                 d="m 671.63782,282.71348 v -10.56 h -113.664 v 13.632 H 545.49381 V 131.03347 h 138.43202 v 151.68001 z m -2.304,-86.4 q -0.384,6.72 -0.96,13.056 -0.576,6.144 -2.496,10.176 -0.96,1.728 -1.728,3.072 -0.768,1.152 -2.304,2.304 -2.112,1.536 -5.952,2.304 -3.648,0.576 -11.136,0.768 -7.68,0 -12.288,-0.768 -4.608,-0.768 -7.104,-2.496 -2.496,-1.92 -3.456,-4.992 -0.768,-3.264 -0.768,-8.256 v -69.69601 h -21.888 q 0,19.008 -1.152,32.83201 -0.96,13.824 -4.224,24.576 -3.264,10.56 -9.6,19.392 -6.336,8.64 -16.896,17.472 l -8.256,-9.216 q 9.6,-7.68 15.168,-15.36 5.568,-7.68 8.448,-17.28 2.88,-9.6 3.648,-22.08 0.768,-12.67201 0.768,-30.33601 h -29.184 v 119.42401 h 113.664 V 141.78547 h -38.4 v 67.77601 q 0,4.416 2.496,5.76 2.496,1.152 8.64,1.152 6.144,0 8.832,-0.768 2.88,-0.96 3.84,-4.416 0.96,-2.304 1.344,-7.488 0.384,-5.376 0.384,-11.328 z"
                 style="font-style:normal;font-variant:normal;font-weight:normal;font-stretch:normal;font-size:192.00001526px;font-family:Caladea;-inkscape-font-specification:Caladea;fill:#ffffff"
                 id="path4274" />
            </g>
          </g>
        </g>
      </g>
    </g>
  </g>
</svg>
