<?xml version="1.0" encoding="UTF-8" standalone="no"?>
<!-- Created with Inkscape (http://www.inkscape.org/) -->

<svg
   xmlns:dc="http://purl.org/dc/elements/1.1/"
   xmlns:cc="http://creativecommons.org/ns#"
   xmlns:rdf="http://www.w3.org/1999/02/22-rdf-syntax-ns#"
   xmlns:svg="http://www.w3.org/2000/svg"
   xmlns="http://www.w3.org/2000/svg"
   xmlns:sodipodi="http://sodipodi.sourceforge.net/DTD/sodipodi-0.dtd"
   xmlns:inkscape="http://www.inkscape.org/namespaces/inkscape"
   width="1920"
   height="1080"
   viewBox="0 0 507.99999 285.75001"
   version="1.1"
   id="svg8"
   inkscape:version="0.92+devel unknown"
   sodipodi:docname="6pm.svg">
  <defs
     id="defs2" />
  <sodipodi:namedview
     id="base"
     pagecolor="#ffffff"
     bordercolor="#666666"
     borderopacity="1.0"
     inkscape:pageopacity="0.0"
     inkscape:pageshadow="2"
     inkscape:zoom="0.35000001"
     inkscape:cx="-288.40463"
     inkscape:cy="679.54569"
     inkscape:document-units="mm"
     inkscape:current-layer="g4292"
     inkscape:document-rotation="0"
     showgrid="false"
     units="px"
     inkscape:window-width="1920"
     inkscape:window-height="1016"
     inkscape:window-x="0"
     inkscape:window-y="0"
     inkscape:window-maximized="1" />
  <metadata
     id="metadata5">
    <rdf:RDF>
      <cc:Work
         rdf:about="">
        <dc:format>image/svg+xml</dc:format>
        <dc:type
           rdf:resource="http://purl.org/dc/dcmitype/StillImage" />
        <dc:title />
        <cc:license
           rdf:resource="http://creativecommons.org/licenses/by/4.0/" />
      </cc:Work>
      <cc:License
         rdf:about="http://creativecommons.org/licenses/by/4.0/">
        <cc:permits
           rdf:resource="http://creativecommons.org/ns#Reproduction" />
        <cc:permits
           rdf:resource="http://creativecommons.org/ns#Distribution" />
        <cc:requires
           rdf:resource="http://creativecommons.org/ns#Notice" />
        <cc:requires
           rdf:resource="http://creativecommons.org/ns#Attribution" />
        <cc:permits
           rdf:resource="http://creativecommons.org/ns#DerivativeWorks" />
      </cc:License>
    </rdf:RDF>
  </metadata>
  <g
     inkscape:label="Layer 1"
     inkscape:groupmode="layer"
     id="layer1"
     transform="translate(0,-11.249983)">
    <rect
       style="fill:#ffffff;fill-opacity:1;stroke:none;stroke-width:3.65399981;stroke-linecap:round;stroke-linejoin:round;stroke-miterlimit:4;stroke-dasharray:none;stroke-dashoffset:0;stroke-opacity:1;paint-order:stroke fill markers"
       id="rect4286"
       width="516.21436"
       height="312.42136"
       x="1201.625"
       y="-231.88341"
       ry="0.55484182" />
    <g
       id="g4278"
       transform="matrix(1.3114381,0,0,1.3114381,200.00434,109.67752)">
      <g
         id="g4292"
         transform="translate(-4.2168064,-0.49670792)">
        <rect
           style="font-style:normal;font-weight:normal;font-size:40px;line-height:1.25;font-family:sans-serif;letter-spacing:0px;word-spacing:0px;fill:#87decd;fill-opacity:1;stroke:none;stroke-width:15.37625122;stroke-linecap:round;stroke-linejoin:round;paint-order:stroke fill markers"
           id="rect4272"
           width="468.32336"
           height="277.64407"
           x="-188.77202"
           y="-104.43317"
           ry="1.6395723" />
        <g
           aria-label="6"
           transform="matrix(2.1569909,0,0,2.1569909,-1004.2288,-489.80728)"
           style="font-style:normal;font-variant:normal;font-weight:normal;font-stretch:normal;font-size:40px;line-height:1.25;font-family:Knewave;-inkscape-font-specification:Knewave;letter-spacing:0px;word-spacing:0px;fill:#ffffff;fill-opacity:1;stroke:none"
           id="flowRoot4277">
          <g
             id="g4307">
            <path
               inkscape:connector-curvature="0"
               id="path4272"
               style="font-style:normal;font-variant:normal;font-weight:normal;font-stretch:normal;font-size:192px;font-family:Lato;-inkscape-font-specification:Lato;fill:#ffffff;fill-opacity:1"
               d="m 485.41238,302.56572 q 6.912,0 12.48,-2.208 5.664,-2.208 9.6,-6.144 4.032,-3.936 6.144,-9.312 2.208,-5.376 2.208,-11.712 0,-6.72 -2.112,-12.096 -2.112,-5.472 -6.048,-9.216 -3.84,-3.84 -9.216,-5.856 -5.376,-2.016 -11.808,-2.016 -6.912,0 -12.48,2.4 -5.568,2.304 -9.504,6.336 -3.84,3.936 -5.952,9.216 -2.016,5.184 -2.016,10.848 0,6.624 1.92,12.096 1.92,5.472 5.568,9.408 3.744,3.936 9.024,6.144 5.376,2.112 12.192,2.112 z m -9.984,-73.344 q -1.824,2.304 -3.552,4.512 -1.632,2.112 -3.168,4.224 4.896,-3.36 10.752,-5.184 5.856,-1.824 12.768,-1.824 8.352,0 15.744,2.784 7.392,2.688 12.864,7.968 5.568,5.184 8.832,12.864 3.264,7.584 3.264,17.376 0,9.504 -3.456,17.664 -3.456,8.16 -9.696,14.208 -6.144,6.048 -14.88,9.504 -8.64,3.456 -19.104,3.456 -10.368,0 -18.816,-3.264 -8.448,-3.36 -14.4,-9.408 -5.856,-6.144 -9.12,-14.784 -3.168,-8.736 -3.168,-19.488 0,-9.024 3.936,-19.2 4.032,-10.272 12.768,-21.888 l 34.944,-46.944 q 1.344,-1.728 3.648,-2.88 2.4,-1.248 5.472,-1.248 h 15.168 z" />
            <circle
               r="7.030622"
               cy="236.9025"
               cx="468.97574"
               id="circle4303"
               style="fill:#87decd;fill-opacity:1;stroke:none;stroke-width:66.15306854;stroke-linecap:round;stroke-linejoin:bevel;paint-order:stroke fill markers" />
          </g>
        </g>
      </g>
    </g>
  </g>
</svg>
