<?xml version="1.0" encoding="UTF-8" standalone="no"?>
<!-- Created with Inkscape (http://www.inkscape.org/) -->

<svg
   xmlns:dc="http://purl.org/dc/elements/1.1/"
   xmlns:cc="http://creativecommons.org/ns#"
   xmlns:rdf="http://www.w3.org/1999/02/22-rdf-syntax-ns#"
   xmlns:svg="http://www.w3.org/2000/svg"
   xmlns="http://www.w3.org/2000/svg"
   xmlns:sodipodi="http://sodipodi.sourceforge.net/DTD/sodipodi-0.dtd"
   xmlns:inkscape="http://www.inkscape.org/namespaces/inkscape"
   width="1920"
   height="1080"
   viewBox="0 0 507.99999 285.75001"
   version="1.1"
   id="svg8"
   inkscape:version="0.92+devel unknown"
   sodipodi:docname="7pm.svg">
  <defs
     id="defs2" />
  <sodipodi:namedview
     id="base"
     pagecolor="#ffffff"
     bordercolor="#666666"
     borderopacity="1.0"
     inkscape:pageopacity="0.0"
     inkscape:pageshadow="2"
     inkscape:zoom="0.24748739"
     inkscape:cx="1670.7096"
     inkscape:cy="1271.0552"
     inkscape:document-units="mm"
     inkscape:current-layer="flowRoot4632"
     inkscape:document-rotation="0"
     showgrid="false"
     units="px"
     inkscape:window-width="1920"
     inkscape:window-height="1016"
     inkscape:window-x="0"
     inkscape:window-y="0"
     inkscape:window-maximized="1" />
  <metadata
     id="metadata5">
    <rdf:RDF>
      <cc:Work
         rdf:about="">
        <dc:format>image/svg+xml</dc:format>
        <dc:type
           rdf:resource="http://purl.org/dc/dcmitype/StillImage" />
        <dc:title />
        <cc:license
           rdf:resource="http://creativecommons.org/licenses/by/4.0/" />
      </cc:Work>
      <cc:License
         rdf:about="http://creativecommons.org/licenses/by/4.0/">
        <cc:permits
           rdf:resource="http://creativecommons.org/ns#Reproduction" />
        <cc:permits
           rdf:resource="http://creativecommons.org/ns#Distribution" />
        <cc:requires
           rdf:resource="http://creativecommons.org/ns#Notice" />
        <cc:requires
           rdf:resource="http://creativecommons.org/ns#Attribution" />
        <cc:permits
           rdf:resource="http://creativecommons.org/ns#DerivativeWorks" />
      </cc:License>
    </rdf:RDF>
  </metadata>
  <g
     inkscape:label="Layer 1"
     inkscape:groupmode="layer"
     id="layer1"
     transform="translate(0,-11.249983)">
    <rect
       style="fill:#ffffff;fill-opacity:1;stroke:none;stroke-width:3.65399981;stroke-linecap:round;stroke-linejoin:round;stroke-miterlimit:4;stroke-dasharray:none;stroke-dashoffset:0;stroke-opacity:1;paint-order:stroke fill markers"
       id="rect4286"
       width="516.21436"
       height="312.42136"
       x="1201.625"
       y="-231.88341"
       ry="0.55484182" />
    <g
       id="g4278"
       transform="matrix(1.3114381,0,0,1.3114381,200.00434,109.67752)">
      <g
         id="g4292"
         transform="translate(-4.2168064,-0.49670792)">
        <g
           style="font-style:normal;font-weight:normal;font-size:40px;line-height:1.25;font-family:sans-serif;letter-spacing:0px;word-spacing:0px;fill:#000000;fill-opacity:1;stroke:none"
           id="flowRoot4385" />
        <rect
           style="fill:#2aff80;fill-opacity:1;stroke:none;stroke-width:13.34641647;stroke-linecap:round;stroke-linejoin:bevel;paint-order:stroke fill markers"
           id="rect4691"
           width="517.64099"
           height="284.80374"
           x="-207.21956"
           y="-109.95058" />
        <g
           id="g4689"
           transform="matrix(2.1139927,-0.93004933,0.93004933,2.1139927,-244.20484,99.449032)">
          <g
             id="flowRoot4646"
             style="font-style:normal;font-weight:normal;font-size:40px;line-height:1.25;font-family:sans-serif;letter-spacing:0px;word-spacing:0px;fill:#ff6600;fill-opacity:1;stroke:none"
             transform="matrix(0.51983947,0,0,0.51983947,-437.10295,-203.2356)"
             aria-label="7:00PM" />
          <g
             id="flowRoot4632"
             style="font-style:normal;font-weight:normal;font-size:40px;line-height:1.25;font-family:sans-serif;letter-spacing:0px;word-spacing:0px;fill:#ffffff;fill-opacity:1;stroke:none"
             transform="matrix(0.51983947,0,0,0.51983947,-437.12165,-204.90705)"
             aria-label="7:00PM">
            <g
               id="g4283"
               transform="matrix(0.80732843,0,0,0.80732843,97.119043,36.743454)">
              <path
                 inkscape:connector-curvature="0"
                 d="m 1071.6953,511.47477 c 9.9672,14.68862 14.8919,22.25279 20.6056,32.14918 5.3918,9.33884 8.2515,14.93583 13.596,27.08973 l 44.1109,-6.32519 -1.4716,-7.69933 -5.4692,0.18406 c -13.6729,0.46015 -19.1536,-1.95098 -24.143,-10.5929 l -17.0606,-29.54977 c 31.4816,4.31168 51.7561,6.91646 60.4642,7.83593 21.1108,2.12194 27.7971,1.79272 34.4876,-2.07005 6.6905,-3.86277 8.3932,-11.53631 4.128,-18.92376 -2.8166,-4.87849 -7.461,-7.77248 -12.3726,-7.91031 -3.614,-0.14361 -5.8873,0.42548 -13.0233,2.87284 -23.7187,8.49025 -40.2009,10.20063 -98.6359,9.74212 z"
                 style="font-style:italic;font-variant:normal;font-weight:bold;font-stretch:normal;font-size:96px;font-family:'Century Schoolbook L';-inkscape-font-specification:'Century Schoolbook L Bold Italic';fill:#ffffff;fill-opacity:1;stroke-width:1.67654943"
                 id="path4662" />
              <path
                 inkscape:connector-curvature="0"
                 d="m 1104.0668,373.26402 c -13.8416,0 -26.2347,7.24269 -37.1792,22.04998 -10.4616,14.16349 -17.0605,34.76493 -17.0605,53.43498 0,24.46421 12.7149,40.39814 32.1897,40.39814 28.4879,0 53.435,-34.92588 53.435,-75.16307 0,-24.7861 -12.2321,-40.72003 -31.385,-40.72003 z m -0.8047,7.88649 c 5.3113,0 8.5302,4.98941 8.5302,13.51969 0,12.39306 -4.9894,40.07624 -10.6226,58.4244 -6.277,20.60144 -11.2664,27.84413 -18.831,27.84413 -5.6332,0 -9.1741,-4.34561 -9.1741,-11.42736 0,-11.10546 4.9894,-39.11054 10.3008,-58.26345 5.6332,-19.95764 12.2321,-30.09741 19.7967,-30.09741 z"
                 style="font-style:italic;font-variant:normal;font-weight:bold;font-stretch:normal;font-size:96px;font-family:'Century Schoolbook L';-inkscape-font-specification:'Century Schoolbook L Bold Italic';fill:#ffffff;fill-opacity:1;stroke-width:1.67654943"
                 id="path4666" />
              <path
                 inkscape:connector-curvature="0"
                 d="m 1196.4866,373.26402 c -13.8416,0 -26.2347,7.24269 -37.1792,22.04998 -10.4616,14.16349 -17.0605,34.76493 -17.0605,53.43498 0,24.46421 12.7149,40.39814 32.1897,40.39814 28.4879,0 53.435,-34.92588 53.435,-75.16307 0,-24.7861 -12.2321,-40.72003 -31.385,-40.72003 z m -0.8048,7.88649 c 5.3113,0 8.5303,4.98941 8.5303,13.51969 0,12.39306 -4.9894,40.07624 -10.6226,58.4244 -6.277,20.60144 -11.2664,27.84413 -18.831,27.84413 -5.6332,0 -9.1741,-4.34561 -9.1741,-11.42736 0,-11.10546 4.9894,-39.11054 10.3007,-58.26345 5.6332,-19.95764 12.2321,-30.09741 19.7967,-30.09741 z"
                 style="font-style:italic;font-variant:normal;font-weight:bold;font-stretch:normal;font-size:96px;font-family:'Century Schoolbook L';-inkscape-font-specification:'Century Schoolbook L Bold Italic';fill:#ffffff;fill-opacity:1;stroke-width:1.67654943"
                 id="path4668" />
            </g>
          </g>
        </g>
      </g>
    </g>
  </g>
</svg>
