<?xml version="1.0" encoding="UTF-8" standalone="no"?>
<!-- Created with Inkscape (http://www.inkscape.org/) -->

<svg
   xmlns:dc="http://purl.org/dc/elements/1.1/"
   xmlns:cc="http://creativecommons.org/ns#"
   xmlns:rdf="http://www.w3.org/1999/02/22-rdf-syntax-ns#"
   xmlns:svg="http://www.w3.org/2000/svg"
   xmlns="http://www.w3.org/2000/svg"
   xmlns:sodipodi="http://sodipodi.sourceforge.net/DTD/sodipodi-0.dtd"
   xmlns:inkscape="http://www.inkscape.org/namespaces/inkscape"
   width="1920"
   height="1080"
   viewBox="0 0 507.99999 285.75001"
   version="1.1"
   id="svg8"
   inkscape:version="0.92+devel unknown"
   sodipodi:docname="8pm.svg">
  <defs
     id="defs2" />
  <sodipodi:namedview
     id="base"
     pagecolor="#ffffff"
     bordercolor="#666666"
     borderopacity="1.0"
     inkscape:pageopacity="0.0"
     inkscape:pageshadow="2"
     inkscape:zoom="0.35000002"
     inkscape:cx="1572.7835"
     inkscape:cy="107.3277"
     inkscape:document-units="mm"
     inkscape:current-layer="g4292"
     inkscape:document-rotation="0"
     showgrid="false"
     units="px"
     inkscape:window-width="1920"
     inkscape:window-height="1016"
     inkscape:window-x="0"
     inkscape:window-y="0"
     inkscape:window-maximized="1" />
  <metadata
     id="metadata5">
    <rdf:RDF>
      <cc:Work
         rdf:about="">
        <dc:format>image/svg+xml</dc:format>
        <dc:type
           rdf:resource="http://purl.org/dc/dcmitype/StillImage" />
        <dc:title />
        <cc:license
           rdf:resource="http://creativecommons.org/licenses/by/4.0/" />
      </cc:Work>
      <cc:License
         rdf:about="http://creativecommons.org/licenses/by/4.0/">
        <cc:permits
           rdf:resource="http://creativecommons.org/ns#Reproduction" />
        <cc:permits
           rdf:resource="http://creativecommons.org/ns#Distribution" />
        <cc:requires
           rdf:resource="http://creativecommons.org/ns#Notice" />
        <cc:requires
           rdf:resource="http://creativecommons.org/ns#Attribution" />
        <cc:permits
           rdf:resource="http://creativecommons.org/ns#DerivativeWorks" />
      </cc:License>
    </rdf:RDF>
  </metadata>
  <g
     inkscape:label="Layer 1"
     inkscape:groupmode="layer"
     id="layer1"
     transform="translate(0,-11.249983)">
    <rect
       style="fill:#ffffff;fill-opacity:1;stroke:none;stroke-width:3.65399981;stroke-linecap:round;stroke-linejoin:round;stroke-miterlimit:4;stroke-dasharray:none;stroke-dashoffset:0;stroke-opacity:1;paint-order:stroke fill markers"
       id="rect4286"
       width="516.21436"
       height="312.42136"
       x="1201.625"
       y="-231.88341"
       ry="0.55484182" />
    <g
       id="g4278"
       transform="matrix(1.3114381,0,0,1.3114381,200.00434,109.67752)">
      <g
         id="g4292"
         transform="translate(-4.2168064,-0.49670792)">
        <g
           style="font-style:normal;font-weight:normal;font-size:40px;line-height:1.25;font-family:sans-serif;letter-spacing:0px;word-spacing:0px;fill:#000000;fill-opacity:1;stroke:none"
           id="flowRoot4385" />
        <rect
           style="fill:#d40000;fill-opacity:1;stroke:none;stroke-width:13.34641647;stroke-linecap:round;stroke-linejoin:bevel;paint-order:stroke fill markers"
           id="rect4691"
           width="517.64099"
           height="284.80374"
           x="-304.21017"
           y="-108.01301"
           transform="scale(-1,1)" />
        <g
           id="g4689"
           transform="matrix(2.1139927,-0.93004933,0.93004933,2.1139927,-244.20484,99.449032)">
          <g
             id="flowRoot4646"
             style="font-style:normal;font-weight:normal;font-size:40px;line-height:1.25;font-family:sans-serif;letter-spacing:0px;word-spacing:0px;fill:#ff6600;fill-opacity:1;stroke:none"
             transform="matrix(0.51983947,0,0,0.51983947,-437.10295,-203.2356)"
             aria-label="7:00PM" />
          <g
             id="flowRoot4632"
             style="font-style:normal;font-weight:normal;font-size:40px;line-height:1.25;font-family:sans-serif;letter-spacing:0px;word-spacing:0px;fill:#ffffff;fill-opacity:1;stroke:none"
             transform="matrix(0.51983947,0,0,0.51983947,-437.12165,-204.90705)"
             aria-label="7:00PM" />
        </g>
        <g
           aria-label="........
eight"
           transform="matrix(2.8003469,0,0,2.8003469,-2742.3688,-1539.442)"
           style="font-style:normal;font-weight:normal;font-size:40px;line-height:1.25;font-family:sans-serif;letter-spacing:0px;word-spacing:0px;fill:#000000;fill-opacity:1;stroke:none"
           id="flowRoot4277">
          <path
             d="m 968.00472,534.07992 h 4.75517 v -5.02689 h -4.75517 z"
             style="font-style:normal;font-variant:normal;font-weight:normal;font-stretch:normal;font-size:45.28733444px;font-family:'League Gothic';-inkscape-font-specification:'League Gothic';text-align:center;text-anchor:middle;fill:#ffffff"
             id="path4287" />
          <path
             d="m 975.08087,534.07992 h 4.75517 v -5.02689 h -4.75517 z"
             style="font-style:normal;font-variant:normal;font-weight:normal;font-stretch:normal;font-size:45.28733444px;font-family:'League Gothic';-inkscape-font-specification:'League Gothic';text-align:center;text-anchor:middle;fill:#ffffff"
             id="path4289" />
          <path
             d="m 982.15701,534.07992 h 4.75517 v -5.02689 h -4.75517 z"
             style="font-style:normal;font-variant:normal;font-weight:normal;font-stretch:normal;font-size:45.28733444px;font-family:'League Gothic';-inkscape-font-specification:'League Gothic';text-align:center;text-anchor:middle;fill:#ffffff"
             id="path4291" />
          <path
             d="m 989.23316,534.07992 h 4.75517 v -5.02689 h -4.75517 z"
             style="font-style:normal;font-variant:normal;font-weight:normal;font-stretch:normal;font-size:45.28733444px;font-family:'League Gothic';-inkscape-font-specification:'League Gothic';text-align:center;text-anchor:middle;fill:#ffffff"
             id="path4293" />
          <path
             d="m 996.30931,534.07992 h 4.75519 v -5.02689 h -4.75519 z"
             style="font-style:normal;font-variant:normal;font-weight:normal;font-stretch:normal;font-size:45.28733444px;font-family:'League Gothic';-inkscape-font-specification:'League Gothic';text-align:center;text-anchor:middle;fill:#ffffff"
             id="path4295" />
          <path
             d="m 1003.3855,534.07992 h 4.7551 v -5.02689 h -4.7551 z"
             style="font-style:normal;font-variant:normal;font-weight:normal;font-stretch:normal;font-size:45.28733444px;font-family:'League Gothic';-inkscape-font-specification:'League Gothic';text-align:center;text-anchor:middle;fill:#ffffff"
             id="path4297" />
          <path
             d="m 1010.4616,534.07992 h 4.7552 v -5.02689 h -4.7552 z"
             style="font-style:normal;font-variant:normal;font-weight:normal;font-stretch:normal;font-size:45.28733444px;font-family:'League Gothic';-inkscape-font-specification:'League Gothic';text-align:center;text-anchor:middle;fill:#ffffff"
             id="path4299" />
          <path
             d="m 1017.5377,534.07992 h 4.7552 v -5.02689 h -4.7552 z"
             style="font-style:normal;font-variant:normal;font-weight:normal;font-stretch:normal;font-size:45.28733444px;font-family:'League Gothic';-inkscape-font-specification:'League Gothic';text-align:center;text-anchor:middle;fill:#ffffff"
             id="path4301" />
          <path
             d="m 974.6934,579.29263 v 2.4 c 0,0 0.08,2.2 -1.44,2.2 -1.48,0 -1.48,-2.2 -1.48,-2.2 v -4.76 h 6.68 v -6.36 c 0,0 0.04,-5.64 -5.2,-5.64 -5.2,0 -5.24,5.76 -5.24,5.76 v 11 c 0,0 0,5.76 5.2,5.76 5.24,0 5.24,-5.64 5.24,-5.64 v -2.52 z m -2.92,-8.6 c 0,0 0,-2.24 1.48,-2.24 1.52,0 1.44,2.24 1.44,2.24 v 3.08 h -2.92 z"
             style="font-style:normal;font-variant:normal;font-weight:normal;font-stretch:normal;font-family:'League Gothic';-inkscape-font-specification:'League Gothic';text-align:center;text-anchor:middle;fill:#ffffff"
             id="path4303" />
          <path
             d="m 985.1859,587.13263 v -21.88 h -4.04 v 21.88 z m -4.04,-25.36 h 4.04 v -4.04 h -4.04 z"
             style="font-style:normal;font-variant:normal;font-weight:normal;font-stretch:normal;font-family:'League Gothic';-inkscape-font-specification:'League Gothic';text-align:center;text-anchor:middle;fill:#ffffff"
             id="path4305" />
          <path
             d="m 998.29152,570.37263 c 0,0 0,-0.6 -0.2,-1.36 0.48,-0.24 1.28,-0.48 2.35998,-0.48 v -3.6 c -1.31998,0 -2.75998,1.44 -3.31998,2 -0.76,-1.08 -2,-2 -4.04,-2 -5.04,0 -5.12,5.56 -5.12,5.56 v 5.96 c 0,0 0.04,3.24 2.32,4.76 -1.16,0.64 -2.52,2.04 -2.52,3.28 0,1.68 1.12,2.56 2.44,2.92 -1.52,0.72 -3.16,1.84 -3.16,3.32 0,3.24 2.6,4.12 6.48,4.24 3.32,0 6.91998,-1.32 6.91998,-5.6 0,-3.8 -3.07998,-4.72 -5.59998,-5.08 -1.48,-0.24 -3.08,-0.44 -3.08,-1.36 0,-0.32 0.24,-0.72 0.56,-1 0.24,0.04 0.48,0.04 0.76,0.04 5.08,0 5.2,-5.4 5.2,-5.4 z m -3.96,0.28 v 6 c 0,0 0.12,1.96 -1.24,1.96 -1.28,0 -1.16,-1.96 -1.16,-1.96 v -6 c 0,0 -0.12,-2 1.16,-2 1.36,0 1.24,2 1.24,2 z m 2.36,19.44 c 0,1.04 -1.72,1.48 -3.08,1.48 -1.84,0 -2.64,-0.68 -2.64,-1.52 0,-0.84 0.64,-1.44 1.48,-1.92 l 2.08,0.4 c 2,0.36 2.16,0.84 2.16,1.56 z"
             style="font-style:normal;font-variant:normal;font-weight:normal;font-stretch:normal;font-family:'League Gothic';-inkscape-font-specification:'League Gothic';text-align:center;text-anchor:middle;fill:#ffffff"
             id="path4307" />
          <path
             d="m 1007.4434,568.85263 c 0.48,0 0.96,0.12 0.96,0.96 v 17.32 h 4.04 v -17.92 c 0,-1.8 -0.88,-4.28 -3.04,-4.28 -1.4,0 -2.96,1.96 -3.28,2.16 v -9.36 h -4.04 v 29.4 h 4.04 c 0,-4.56 0,-4.84 0,-17.24 0,0 0.52,-1.04 1.32,-1.04 z"
             style="font-style:normal;font-variant:normal;font-weight:normal;font-stretch:normal;font-family:'League Gothic';-inkscape-font-specification:'League Gothic';text-align:center;text-anchor:middle;fill:#ffffff"
             id="path4309" />
          <path
             d="m 1016.2046,559.85263 v 5.4 h -2.04 v 3.64 h 2.04 v 11.2 c 0,2.56 0,7.36 4.64,7.36 1.28,0 2.16,-0.28 2.16,-0.28 v -3.96 c 0,0 -0.8,0.16 -1.48,0.16 -1.28,0 -1.28,-2.24 -1.28,-3.6 v -10.88 h 2.76 v -3.64 h -2.76 v -5.4 z"
             style="font-style:normal;font-variant:normal;font-weight:normal;font-stretch:normal;font-family:'League Gothic';-inkscape-font-specification:'League Gothic';text-align:center;text-anchor:middle;fill:#ffffff"
             id="path4311" />
        </g>
      </g>
    </g>
  </g>
</svg>
