<?xml version="1.0" encoding="UTF-8" standalone="no"?>
<!-- Created with Inkscape (http://www.inkscape.org/) -->

<svg
   xmlns:dc="http://purl.org/dc/elements/1.1/"
   xmlns:cc="http://creativecommons.org/ns#"
   xmlns:rdf="http://www.w3.org/1999/02/22-rdf-syntax-ns#"
   xmlns:svg="http://www.w3.org/2000/svg"
   xmlns="http://www.w3.org/2000/svg"
   xmlns:sodipodi="http://sodipodi.sourceforge.net/DTD/sodipodi-0.dtd"
   xmlns:inkscape="http://www.inkscape.org/namespaces/inkscape"
   width="1920"
   height="1080"
   viewBox="0 0 507.99999 285.75001"
   version="1.1"
   id="svg8"
   inkscape:version="0.92+devel unknown"
   sodipodi:docname="9pm.svg">
  <defs
     id="defs2" />
  <sodipodi:namedview
     id="base"
     pagecolor="#ffffff"
     bordercolor="#666666"
     borderopacity="1.0"
     inkscape:pageopacity="0.0"
     inkscape:pageshadow="2"
     inkscape:zoom="0.70000002"
     inkscape:cx="371.30741"
     inkscape:cy="437.56933"
     inkscape:document-units="mm"
     inkscape:current-layer="flowRoot4290"
     inkscape:document-rotation="0"
     showgrid="true"
     units="px"
     inkscape:window-width="1920"
     inkscape:window-height="1016"
     inkscape:window-x="0"
     inkscape:window-y="0"
     inkscape:window-maximized="1">
    <inkscape:grid
       type="xygrid"
       id="grid4306" />
  </sodipodi:namedview>
  <metadata
     id="metadata5">
    <rdf:RDF>
      <cc:Work
         rdf:about="">
        <dc:format>image/svg+xml</dc:format>
        <dc:type
           rdf:resource="http://purl.org/dc/dcmitype/StillImage" />
        <dc:title />
        <cc:license
           rdf:resource="http://creativecommons.org/licenses/by/4.0/" />
      </cc:Work>
      <cc:License
         rdf:about="http://creativecommons.org/licenses/by/4.0/">
        <cc:permits
           rdf:resource="http://creativecommons.org/ns#Reproduction" />
        <cc:permits
           rdf:resource="http://creativecommons.org/ns#Distribution" />
        <cc:requires
           rdf:resource="http://creativecommons.org/ns#Notice" />
        <cc:requires
           rdf:resource="http://creativecommons.org/ns#Attribution" />
        <cc:permits
           rdf:resource="http://creativecommons.org/ns#DerivativeWorks" />
      </cc:License>
    </rdf:RDF>
  </metadata>
  <g
     inkscape:label="Layer 1"
     inkscape:groupmode="layer"
     id="layer1"
     transform="translate(0,-11.249983)">
    <rect
       style="fill:#ffffff;fill-opacity:1;stroke:none;stroke-width:3.65399981;stroke-linecap:round;stroke-linejoin:round;stroke-miterlimit:4;stroke-dasharray:none;stroke-dashoffset:0;stroke-opacity:1;paint-order:stroke fill markers"
       id="rect4286"
       width="516.21436"
       height="312.42136"
       x="1201.625"
       y="-231.88341"
       ry="0.55484182" />
    <g
       id="g4278"
       transform="matrix(1.3114381,0,0,1.3114381,200.00434,109.67752)">
      <g
         id="g4292"
         transform="translate(-4.2168064,-0.49670792)">
        <g
           style="font-style:normal;font-weight:normal;font-size:40px;line-height:1.25;font-family:sans-serif;letter-spacing:0px;word-spacing:0px;fill:#000000;fill-opacity:1;stroke:none"
           id="flowRoot4385" />
        <rect
           style="fill:#442178;fill-opacity:1;stroke:none;stroke-width:13.34641647;stroke-linecap:round;stroke-linejoin:bevel;paint-order:stroke fill markers"
           id="rect4691"
           width="517.64099"
           height="284.80374"
           x="-304.21017"
           y="-108.01301"
           transform="scale(-1,1)" />
        <g
           id="g4689"
           transform="matrix(2.1139927,-0.93004933,0.93004933,2.1139927,-244.20484,99.449032)">
          <g
             id="flowRoot4646"
             style="font-style:normal;font-weight:normal;font-size:40px;line-height:1.25;font-family:sans-serif;letter-spacing:0px;word-spacing:0px;fill:#ff6600;fill-opacity:1;stroke:none"
             transform="matrix(0.51983947,0,0,0.51983947,-437.10295,-203.2356)"
             aria-label="7:00PM" />
          <g
             id="flowRoot4632"
             style="font-style:normal;font-weight:normal;font-size:40px;line-height:1.25;font-family:sans-serif;letter-spacing:0px;word-spacing:0px;fill:#ffffff;fill-opacity:1;stroke:none"
             transform="matrix(0.51983947,0,0,0.51983947,-437.12165,-204.90705)"
             aria-label="7:00PM" />
        </g>
        <path
           sodipodi:type="star"
           style="fill:#ffffff;stroke-width:13.34641647;stroke-linecap:round;stroke-linejoin:bevel;paint-order:stroke fill markers"
           id="path4308"
           sodipodi:sides="9"
           sodipodi:cx="45.389668"
           sodipodi:cy="37.308952"
           sodipodi:r1="96.840256"
           sodipodi:r2="44.546516"
           sodipodi:arg1="-1.5707963"
           sodipodi:arg2="-1.2217305"
           inkscape:flatsided="true"
           inkscape:rounded="0"
           inkscape:randomized="0"
           d="m 45.38967,-59.531303 62.24772,22.656317 33.12131,57.367807 -11.50291,65.236261 -50.744807,42.579948 -66.242636,0 -50.744802,-42.579952 -11.502912,-65.236262 33.12132,-57.367805 z"
           inkscape:transform-center-y="-3.8295198" />
        <g
           aria-label="The Moon "
           transform="matrix(0.20175053,0,0,0.20175053,-157.37232,50.6461)"
           style="font-style:normal;font-variant:normal;font-weight:normal;font-stretch:normal;font-size:40px;line-height:1.25;font-family:Jomolhari;-inkscape-font-specification:Jomolhari;text-align:center;letter-spacing:0px;word-spacing:0px;text-anchor:middle;fill:#ffffff;fill-opacity:1;stroke:none"
           id="flowRoot4290">
          <g
             id="g4341"
             transform="matrix(0.90656262,0,0,0.90656262,-209.57323,-491.24516)">
            <g
               id="g4346"
               transform="rotate(-12.219218,1475.8798,2669.2443)">
              <path
                 d="M 1043.942,409.34154 H 916.71932 l -3.18588,59.04492 h 9.13285 c 1.48674,-10.61959 3.39827,-18.69048 5.73458,-25.48701 5.52218,-15.50461 15.71699,-23.5755 30.15964,-23.5755 7.00893,0 9.98241,2.33631 9.98241,7.64611 v 109.59418 6.15936 c 0,8.92046 -1.91152,9.98242 -19.11526,9.98242 h -5.52219 v 9.98241 h 72.85043 v -9.98241 h -5.5222 c -16.99137,0 -18.90289,-1.06196 -18.90289,-9.98242 v -6.15936 -109.59418 c 0,-5.3098 2.97348,-7.64611 9.98239,-7.64611 12.9559,0 23.3631,7.22132 28.6729,19.96483 3.1859,7.8585 5.3098,16.99135 7.0089,29.09768 h 9.1329 z"
                 style="font-style:normal;font-variant:normal;font-weight:normal;font-stretch:normal;font-family:'Century Schoolbook L';-inkscape-font-specification:'Century Schoolbook L';fill:#ffffff;fill-opacity:1;stroke-width:5.30979538"
                 id="path4312"
                 inkscape:connector-curvature="0" />
              <path
                 d="m 1093.8475,406.15566 -39.2925,2.33631 v 9.13285 h 10.1948 c 7.8585,0 9.1328,1.48674 9.1328,10.61959 v 108.31983 8.49567 c 0,8.49567 -2.3363,9.98242 -15.9294,9.98242 h -0.8495 v 7.6461 h 53.7351 v -7.6461 h -0.8496 c -13.8054,0 -16.1417,-1.48675 -16.1417,-9.98242 v -8.49567 -21.87636 c 0,-10.61959 1.4867,-20.17722 3.823,-25.06223 4.4602,-9.55764 14.0179,-16.14178 23.1507,-16.14178 5.5222,0 11.894,3.18587 15.0798,7.43371 3.1859,4.67262 4.6727,11.04438 4.6727,21.45157 v 34.19509 8.49567 c 0,8.49567 -2.3364,9.98242 -16.1418,9.98242 h -0.8496 v 7.6461 h 53.7351 v -7.6461 h -0.8495 c -13.5931,0 -15.9294,-1.48675 -15.9294,-9.98242 v -8.49567 -33.34552 c 0,-15.29221 -0.6372,-19.11526 -4.4602,-26.33658 -5.3098,-10.19481 -15.9294,-16.35417 -28.6729,-16.35417 -13.5931,0 -24.0003,6.37175 -33.5579,20.602 z"
                 style="font-style:normal;font-variant:normal;font-weight:normal;font-stretch:normal;font-family:'Century Schoolbook L';-inkscape-font-specification:'Century Schoolbook L';fill:#ffffff;fill-opacity:1;stroke-width:5.30979538"
                 id="path4314"
                 inkscape:connector-curvature="0" />
              <path
                 d="m 1279.9724,514.90027 c 0.2124,-31.85877 -17.841,-54.3723 -43.7528,-54.3723 -27.1861,0 -47.5757,23.57549 -47.5757,55.43426 0,29.73486 19.3276,49.91208 48.0005,49.91208 20.1773,0 34.6199,-9.98242 43.328,-30.15964 l -7.4338,-4.03544 c -8.708,16.35417 -17.6285,22.72592 -31.8587,22.72592 -10.832,0 -18.6905,-4.67262 -24.2127,-14.01786 -3.823,-6.37175 -5.5222,-13.80547 -5.3098,-25.48702 z m -68.6026,-9.13285 c 0,-6.58414 0.8496,-11.25676 2.9735,-17.20373 4.4602,-12.74351 11.2568,-18.90288 21.4516,-18.90288 12.9559,0 21.4515,11.25677 21.4515,28.24812 0,6.15936 -1.9115,7.85849 -8.708,7.85849 z"
                 style="font-style:normal;font-variant:normal;font-weight:normal;font-stretch:normal;font-family:'Century Schoolbook L';-inkscape-font-specification:'Century Schoolbook L';fill:#ffffff;fill-opacity:1;stroke-width:5.30979538"
                 id="path4316"
                 inkscape:connector-curvature="0" />
            </g>
            <g
               id="g4352"
               transform="rotate(-30,1087.0458,-460.69923)">
              <path
                 d="m 1407.2683,409.34154 h -54.7973 v 9.98241 h 4.0354 c 17.204,0 19.1155,1.06196 19.1155,9.98242 v 6.15936 81.34607 c 0,28.88529 -4.248,35.04465 -24.6377,35.89422 v 9.98241 h 60.5319 v -9.98241 c -20.1772,-0.84957 -24.425,-7.00893 -24.425,-35.89422 v -93.87719 l 50.5492,139.75382 h 8.4957 l 47.3634,-139.75382 v 113.62963 6.15936 c 0,9.13285 -1.9116,9.98242 -19.1153,9.98242 h -3.8231 v 9.98241 h 69.6646 v -9.98241 h -3.8231 c -17.2037,0 -19.1153,-0.84957 -19.1153,-9.98242 v -6.15936 -101.09851 -6.15936 c 0,-8.92046 1.9116,-9.98242 19.1153,-9.98242 h 3.8231 v -9.98241 h -53.3104 l -38.8677,113.20484 z"
                 style="font-style:normal;font-variant:normal;font-weight:normal;font-stretch:normal;font-family:'Century Schoolbook L';-inkscape-font-specification:'Century Schoolbook L';fill:#ffffff;fill-opacity:1;stroke-width:5.30979538"
                 id="path4318"
                 inkscape:connector-curvature="0" />
              <path
                 d="m 1600.196,460.52797 c -25.9118,0 -46.3014,23.1507 -46.3014,52.88556 0,29.09768 20.3896,52.46078 45.8766,52.46078 25.487,0 45.8766,-23.3631 45.8766,-52.67317 0,-29.09768 -20.3896,-52.67317 -45.4518,-52.67317 z m 0,9.13284 c 14.8674,0 23.1507,15.50461 23.1507,43.54033 0,28.24811 -8.2833,43.54032 -23.5755,43.54032 -15.2922,0 -23.5755,-15.29221 -23.5755,-43.32793 0,-28.88529 8.0709,-43.75272 24.0003,-43.75272 z"
                 style="font-style:normal;font-variant:normal;font-weight:normal;font-stretch:normal;font-family:'Century Schoolbook L';-inkscape-font-specification:'Century Schoolbook L';fill:#ffffff;fill-opacity:1;stroke-width:5.30979538"
                 id="path4320"
                 inkscape:connector-curvature="0" />
              <path
                 d="m 1706.3919,460.52797 c -25.9118,0 -46.3014,23.1507 -46.3014,52.88556 0,29.09768 20.3896,52.46078 45.8766,52.46078 25.487,0 45.8766,-23.3631 45.8766,-52.67317 0,-29.09768 -20.3896,-52.67317 -45.4518,-52.67317 z m 0,9.13284 c 14.8674,0 23.1507,15.50461 23.1507,43.54033 0,28.24811 -8.2833,43.54032 -23.5755,43.54032 -15.2922,0 -23.5755,-15.29221 -23.5755,-43.32793 0,-28.88529 8.0709,-43.75272 24.0003,-43.75272 z"
                 style="font-style:normal;font-variant:normal;font-weight:normal;font-stretch:normal;font-family:'Century Schoolbook L';-inkscape-font-specification:'Century Schoolbook L';fill:#ffffff;fill-opacity:1;stroke-width:5.30979538"
                 id="path4322"
                 inkscape:connector-curvature="0" />
              <path
                 d="m 1801.5434,463.71384 -36.7438,2.33631 v 9.13285 h 7.6462 c 7.8584,0 9.1328,1.48674 9.1328,10.61959 v 50.76165 8.49567 c 0,8.49567 -2.3363,9.98242 -15.9294,9.98242 h -0.8496 v 7.6461 h 53.7352 v -7.6461 h -0.8496 c -13.8055,0 -16.1418,-1.48675 -16.1418,-9.98242 v -8.49567 -22.08875 c 0,-10.4072 1.4868,-19.96483 3.8231,-24.84984 4.4602,-9.55764 14.0178,-16.14178 23.1507,-16.14178 5.5222,0 11.8939,3.18587 15.0798,7.43371 3.1859,4.46023 4.6726,11.04438 4.6726,21.23918 v 34.40748 8.49567 c 0,8.49567 -2.3363,9.98242 -16.1417,9.98242 h -0.8496 v 7.6461 h 53.7351 v -7.6461 h -0.8496 c -13.593,0 -15.9293,-1.48675 -15.9293,-9.98242 v -8.49567 -33.34552 c 0,-15.29221 -0.6372,-19.11526 -4.4603,-26.33658 -5.3098,-10.19481 -16.1417,-16.35417 -28.6729,-16.35417 -13.593,0 -24.2126,6.37175 -33.5579,20.38961 z"
                 style="font-style:normal;font-variant:normal;font-weight:normal;font-stretch:normal;font-family:'Century Schoolbook L';-inkscape-font-specification:'Century Schoolbook L';fill:#ffffff;fill-opacity:1;stroke-width:5.30979538"
                 id="path4324"
                 inkscape:connector-curvature="0" />
            </g>
          </g>
          <g
             id="g4390"
             transform="matrix(2.0514728,0,0,2.0514728,-415.59851,366.31474)">
            <g
               id="flowRoot4356"
               style="font-style:normal;font-weight:normal;font-size:40px;line-height:1.25;font-family:sans-serif;letter-spacing:0px;word-spacing:0px;fill:#ffffff;fill-opacity:1;stroke:none"
               transform="translate(45.306225,-621.77656)"
               aria-label="FIGURE 9">
              <path
                 id="path4366"
                 style="font-style:normal;font-variant:normal;font-weight:normal;font-stretch:normal;font-family:'Century Schoolbook L';-inkscape-font-specification:'Century Schoolbook L';fill:#ffffff;fill-opacity:1"
                 d="m 236.05375,166.75566 h -23.8 v 1.88 h 0.72 c 3.24,0 3.6,0.2 3.6,1.88 v 1.16 19.04 1.16 c 0,1.68 -0.36,1.88 -3.6,1.88 h -0.72 v 1.88 h 13.72 v -1.88 h -1.32 c -3.24,0 -3.6,-0.2 -3.6,-1.88 v -1.16 -9.08 h 0.8 c 2.48,0 3.44,0.24 4.28,1.08 1,1.04 1.4,2.32 1.48,4.68 h 1.88 v -13.12 h -1.88 c -0.2,3.92 -1.8,5.48 -5.6,5.48 h -0.96 v -9.12 c 0,-1.72 0.36,-2 2.52,-2 h 1.84 c 6.6,0 8.32,1.52 9.44,8.36 h 1.76 z"
                 inkscape:connector-curvature="0" />
              <path
                 id="path4368"
                 style="font-style:normal;font-variant:normal;font-weight:normal;font-stretch:normal;font-family:'Century Schoolbook L';-inkscape-font-specification:'Century Schoolbook L';fill:#ffffff;fill-opacity:1"
                 d="m 248.2125,171.67566 v -1.16 c 0,-1.68 0.36,-1.88 3.56,-1.88 h 0.8 v -1.88 h -13.24 v 1.88 h 0.8 c 3.24,0 3.6,0.2 3.6,1.88 v 1.16 19.04 1.16 c 0,1.68 -0.36,1.88 -3.6,1.88 h -0.8 v 1.88 h 13.24 v -1.88 h -0.8 c -3.2,0 -3.56,-0.2 -3.56,-1.88 v -1.16 z"
                 inkscape:connector-curvature="0" />
              <path
                 id="path4370"
                 style="font-style:normal;font-variant:normal;font-weight:normal;font-stretch:normal;font-family:'Century Schoolbook L';-inkscape-font-specification:'Century Schoolbook L';fill:#ffffff;fill-opacity:1"
                 d="m 280.0625,166.47566 h -1.52 l -1.56,2.44 c -2.6,-2.08 -4.36,-2.76 -7.28,-2.76 -3.16,0 -5.64,0.88 -8.16,2.92 -3.96,3.2 -5.8,7.24 -5.8,12.64 0,4.08 1.2,7.48 3.52,10.08 2.48,2.8 6.16,4.44 10,4.44 3.36,0 5.72,-1.04 8.32,-3.64 l 1.48,3.6 h 1.68 v -8.8 c 0,-2.16 0,-2.2 0.24,-2.48 0.36,-0.4 1.2,-0.56 3.36,-0.56 h 0.6 v -1.88 h -12.72 v 1.88 h 0.76 c 3.36,0 3.64,0.2 3.64,2.4 0,1.72 -0.32,3.32 -0.8,4.28 -1,1.96 -3.56,3.32 -6.16,3.32 -2.56,0 -5.16,-1.32 -6.52,-3.32 -1.48,-2.2 -2.12,-5.04 -2.12,-9.32 0,-8.92 2.96,-13.68 8.52,-13.68 4.56,0 7.72,3.28 9.36,9.68 h 1.72 z"
                 inkscape:connector-curvature="0" />
              <path
                 id="path4372"
                 style="font-style:normal;font-variant:normal;font-weight:normal;font-stretch:normal;font-family:'Century Schoolbook L';-inkscape-font-specification:'Century Schoolbook L';fill:#ffffff;fill-opacity:1"
                 d="m 312.47625,175.43566 c 0,-5.48 0.8,-6.64 4.64,-6.8 v -1.88 h -11.4 v 1.88 c 3.8,0.16 4.6,1.32 4.6,6.8 v 8.84 c 0,3.2 -0.2,4.48 -0.96,5.88 -1.28,2.48 -3.88,3.92 -7.12,3.92 -2.72,0 -5.08,-1.04 -6.4,-2.84 -1.08,-1.48 -1.28,-2.44 -1.28,-6.16 v -13.4 -1.16 c 0,-1.68 0.36,-1.88 3.6,-1.88 h 0.76 v -1.88 h -13.08 v 1.88 h 0.68 c 3.2,0 3.56,0.2 3.56,1.88 v 1.16 13.16 2.76 c 0.12,2.12 0.44,3.4 1.2,4.52 1.84,2.64 5.36,4.12 9.88,4.12 4.52,0 7.64,-1.36 9.56,-4.2 1.28,-1.84 1.76,-3.96 1.76,-7.52 z"
                 inkscape:connector-curvature="0" />
              <path
                 id="path4374"
                 style="font-style:normal;font-variant:normal;font-weight:normal;font-stretch:normal;font-family:'Century Schoolbook L';-inkscape-font-specification:'Century Schoolbook L';fill:#ffffff;fill-opacity:1"
                 d="m 327.57437,181.63566 h 2.32001 c 1.56,0 3.15999,0.48 4.03999,1.2 1.16001,0.92 1.76,2.36 2.04,5 l 0.2,2.04 c 0.48001,4.52 1.96,6.36 5.12,6.36 3.28001,0 4.84,-2.2 4.96,-7 h -1.67999 c -0.16001,2.76 -0.64001,3.96 -1.72001,3.96 -0.92,0 -1.32,-0.68 -2,-3.44 l -0.63999,-2.52 c -0.88,-3.68 -2.44,-5.36 -5.56,-6.16 5.75999,-0.8 8.51999,-3.12 8.51999,-7.16 0,-4.56 -3.83999,-7.16 -10.56,-7.16 h -13.83999 v 1.88 h 0.71999 c 3.24,0 3.60001,0.2 3.60001,1.88 v 1.16 19.08 1.12 c 0,1.68 -0.36001,1.88 -3.60001,1.88 h -0.71999 v 1.88 h 13.12 v -1.88 h -0.72001 c -3.24,0 -3.6,-0.2 -3.6,-1.88 v -1.12 z m 0,-1.88 v -8.8 c 0,-1.6 0.04,-1.72 0.44,-2.04 0.32001,-0.24 0.6,-0.28 2.32001,-0.28 h 2.15999 c 3.96001,0 5.76,1.68 5.76,5.32 0,2.04 -0.52,3.6 -1.56,4.44 -1,0.84 -2.79999,1.36 -4.72,1.36 z"
                 inkscape:connector-curvature="0" />
              <path
                 id="path4376"
                 style="font-style:normal;font-variant:normal;font-weight:normal;font-stretch:normal;font-family:'Century Schoolbook L';-inkscape-font-specification:'Century Schoolbook L';fill:#ffffff;fill-opacity:1"
                 d="m 371.84062,166.75566 h -24.03999 v 1.88 h 0.71999 c 3.24,0 3.60001,0.2 3.60001,1.88 v 1.16 19.04 1.16 c 0,1.68 -0.36001,1.88 -3.60001,1.88 h -0.71999 v 1.88 h 24.56 l 0.79999,-10.68 h -1.76 c -0.52,2.8 -1.44,5.28 -2.39999,6.44 -1.24001,1.6 -3.52001,2.36 -6.88,2.36 h -2.64001 c -1.2,0 -2.2,-0.24 -2.56,-0.6 -0.28,-0.24 -0.32,-0.48 -0.32,-1.32 v -10.2 h 0.8 c 2.44,0 3.44,0.24 4.24,1.08 1.04001,1.04 1.44,2.32 1.52,4.68 h 1.88 v -13.12 h -1.88 c -0.2,3.92 -1.79999,5.48 -5.59999,5.48 h -0.96001 v -9.12 c 0,-1.72 0.36,-2 2.52001,-2 h 2.07999 c 3.52,0 5.24,0.36 6.60001,1.48 1.32,1.04 2.27999,3.28 2.88,6.88 h 1.71999 z"
                 inkscape:connector-curvature="0" />
              <path
                 id="path4378"
                 style="font-style:normal;font-variant:normal;font-weight:normal;font-stretch:normal;font-family:'Century Schoolbook L';-inkscape-font-specification:'Century Schoolbook L';fill:#ffffff;fill-opacity:1"
                 d="m 402.80063,181.75566 c -0.52001,4.84 -0.72001,6.04 -1.44,8.08 -1.04001,2.96 -3.24,4.68 -5.92001,4.68 -1.31999,0 -2.24,-0.4 -2.24,-1 0,-0.16 0.08,-0.36 0.24,-0.68 0.48,-0.96 0.56001,-1.2 0.56001,-1.76 0,-1.32 -1.04001,-2.36 -2.36001,-2.36 -1.51999,0 -2.72,1.28 -2.72,2.88 0,2.64 2.8,4.64 6.48,4.64 3.64,0 6.76,-1.64 8.72001,-4.6 1.95999,-2.96 3.03999,-6.84 3.03999,-10.96 0,-8.04 -3.84,-13.2 -9.79999,-13.2 -5.12,0 -9.16001,4.24 -9.16001,9.64 0,4.76 3.36001,8.28 7.92001,8.28 2.83999,0 4.51999,-0.92 6.68,-3.64 z m -5.28001,-12.56 c 2.96,0 4.92,2.96 4.92,7.44 0,1.64 -0.31999,3.12 -0.92,4.04 -0.92,1.44 -2.48,2.32 -4.2,2.32 -3.04,0 -4.75999,-2.36 -4.75999,-6.6 0,-1.92 0.44,-3.8 1.19999,-5 0.92001,-1.56 2,-2.2 3.76,-2.2 z"
                 inkscape:connector-curvature="0" />
            </g>
            <rect
               y="-475.5809"
               x="230.01341"
               height="70"
               width="250"
               id="rect4364"
               style="fill:none;fill-opacity:1;stroke:#ffffff;stroke-width:10.97196865;stroke-linecap:round;stroke-linejoin:bevel;stroke-miterlimit:4;stroke-dasharray:none;stroke-opacity:1;paint-order:stroke fill markers" />
          </g>
        </g>
      </g>
    </g>
  </g>
</svg>
