<?xml version="1.0" encoding="UTF-8" standalone="no"?>
<!-- Created with Inkscape (http://www.inkscape.org/) -->

<svg
   xmlns:dc="http://purl.org/dc/elements/1.1/"
   xmlns:cc="http://creativecommons.org/ns#"
   xmlns:rdf="http://www.w3.org/1999/02/22-rdf-syntax-ns#"
   xmlns:svg="http://www.w3.org/2000/svg"
   xmlns="http://www.w3.org/2000/svg"
   xmlns:sodipodi="http://sodipodi.sourceforge.net/DTD/sodipodi-0.dtd"
   xmlns:inkscape="http://www.inkscape.org/namespaces/inkscape"
   width="1920"
   height="1080"
   viewBox="0 0 507.99999 285.75001"
   version="1.1"
   id="svg8"
   inkscape:version="0.92+devel unknown"
   sodipodi:docname="10pm.svg">
  <defs
     id="defs2" />
  <sodipodi:namedview
     id="base"
     pagecolor="#ffffff"
     bordercolor="#666666"
     borderopacity="1.0"
     inkscape:pageopacity="0.0"
     inkscape:pageshadow="2"
     inkscape:zoom="0.70000002"
     inkscape:cx="825.90248"
     inkscape:cy="299.94553"
     inkscape:document-units="mm"
     inkscape:current-layer="g4292"
     inkscape:document-rotation="0"
     showgrid="true"
     units="px"
     inkscape:window-width="1920"
     inkscape:window-height="1016"
     inkscape:window-x="0"
     inkscape:window-y="0"
     inkscape:window-maximized="1">
    <inkscape:grid
       type="xygrid"
       id="grid4306" />
  </sodipodi:namedview>
  <metadata
     id="metadata5">
    <rdf:RDF>
      <cc:Work
         rdf:about="">
        <dc:format>image/svg+xml</dc:format>
        <dc:type
           rdf:resource="http://purl.org/dc/dcmitype/StillImage" />
        <dc:title />
        <cc:license
           rdf:resource="http://creativecommons.org/licenses/by/4.0/" />
      </cc:Work>
      <cc:License
         rdf:about="http://creativecommons.org/licenses/by/4.0/">
        <cc:permits
           rdf:resource="http://creativecommons.org/ns#Reproduction" />
        <cc:permits
           rdf:resource="http://creativecommons.org/ns#Distribution" />
        <cc:requires
           rdf:resource="http://creativecommons.org/ns#Notice" />
        <cc:requires
           rdf:resource="http://creativecommons.org/ns#Attribution" />
        <cc:permits
           rdf:resource="http://creativecommons.org/ns#DerivativeWorks" />
      </cc:License>
    </rdf:RDF>
  </metadata>
  <g
     inkscape:label="Layer 1"
     inkscape:groupmode="layer"
     id="layer1"
     transform="translate(0,-11.249983)">
    <rect
       style="fill:#ffffff;fill-opacity:1;stroke:none;stroke-width:3.65399981;stroke-linecap:round;stroke-linejoin:round;stroke-miterlimit:4;stroke-dasharray:none;stroke-dashoffset:0;stroke-opacity:1;paint-order:stroke fill markers"
       id="rect4286"
       width="516.21436"
       height="312.42136"
       x="1201.625"
       y="-231.88341"
       ry="0.55484182" />
    <g
       id="g4278"
       transform="matrix(1.3114381,0,0,1.3114381,200.00434,109.67752)">
      <g
         id="g4292"
         transform="translate(-4.2168064,-0.49670792)">
        <g
           style="font-style:normal;font-weight:normal;font-size:40px;line-height:1.25;font-family:sans-serif;letter-spacing:0px;word-spacing:0px;fill:#000000;fill-opacity:1;stroke:none"
           id="flowRoot4385" />
        <rect
           style="fill:#3771c8;fill-opacity:1;stroke:none;stroke-width:13.34641647;stroke-linecap:round;stroke-linejoin:bevel;paint-order:stroke fill markers"
           id="rect4691"
           width="517.64099"
           height="284.80374"
           x="-304.21017"
           y="-108.01301"
           transform="scale(-1,1)" />
        <g
           id="g4689"
           transform="matrix(2.1139927,-0.93004933,0.93004933,2.1139927,-244.20484,99.449032)">
          <g
             id="flowRoot4646"
             style="font-style:normal;font-weight:normal;font-size:40px;line-height:1.25;font-family:sans-serif;letter-spacing:0px;word-spacing:0px;fill:#ff6600;fill-opacity:1;stroke:none"
             transform="matrix(0.51983947,0,0,0.51983947,-437.10295,-203.2356)"
             aria-label="7:00PM" />
          <g
             id="flowRoot4632"
             style="font-style:normal;font-weight:normal;font-size:40px;line-height:1.25;font-family:sans-serif;letter-spacing:0px;word-spacing:0px;fill:#ffffff;fill-opacity:1;stroke:none"
             transform="matrix(0.51983947,0,0,0.51983947,-437.12165,-204.90705)"
             aria-label="7:00PM" />
        </g>
        <g
           id="g4293"
           transform="matrix(0.81295902,0,0,0.81295902,-1.8925723,-42.047503)">
          <g
             aria-label="10"
             transform="matrix(1.3938531,0,0,1.3938531,-684.03126,-429.78391)"
             style="font-style:normal;font-weight:normal;font-size:40px;line-height:1.25;font-family:sans-serif;letter-spacing:0px;word-spacing:0px;fill:#000000;fill-opacity:1;stroke:none"
             id="flowRoot4277">
            <path
               d="M 493.952,408 V 299.52 h -17.088 l -27.456,20.736 10.368,11.904 17.088,-14.4 V 408 Z"
               style="font-style:normal;font-variant:normal;font-weight:bold;font-stretch:normal;font-size:192px;font-family:Junction;-inkscape-font-specification:'Junction Bold';fill:#ffffff;fill-opacity:1"
               id="path4295"
               inkscape:connector-curvature="0" />
            <path
               d="m 521.078,354.432 c 0,43.2 24.576,56.448 47.232,56.448 22.656,0 47.232,-13.248 47.232,-56.448 0,-43.2 -24.576,-56.448 -47.232,-56.448 -22.656,0 -47.232,13.248 -47.232,56.448 z m 78.336,0 c 0,32.448 -16.128,42.24 -31.104,42.24 -14.976,0 -31.104,-9.792 -31.104,-42.24 0,-32.448 16.128,-42.24 31.104,-42.24 14.976,0 31.104,9.792 31.104,42.24 z"
               style="font-style:normal;font-variant:normal;font-weight:bold;font-stretch:normal;font-size:192px;font-family:Junction;-inkscape-font-specification:'Junction Bold';fill:#ffffff;fill-opacity:1"
               id="path4297"
               inkscape:connector-curvature="0" />
          </g>
          <path
             style="fill:#ffffff;fill-opacity:1;stroke-width:92.20765686;stroke-linecap:round;stroke-linejoin:bevel;paint-order:stroke fill markers"
             d="M 159.24985,65.033936 A 48.784855,62.723385 0 0 1 110.465,127.75732 48.784855,62.723385 0 0 1 61.680141,65.033936 48.784855,62.723385 0 0 1 110.465,2.3105507 48.784855,62.723385 0 0 1 159.24985,65.033936"
             id="path4285"
             inkscape:connector-curvature="0" />
        </g>
        <g
           aria-label="HOLY TOLEDO ITS LATE
BRUSH YOUR TEETH"
           transform="matrix(0.61438673,0,0,0.61438673,-706.07757,-117.497)"
           style="font-style:normal;font-variant:normal;font-weight:normal;font-stretch:normal;font-size:40px;line-height:1.25;font-family:Knewave;-inkscape-font-specification:Knewave;text-align:center;letter-spacing:0px;word-spacing:0px;text-anchor:middle;fill:#ffffff;fill-opacity:1;stroke:none"
           id="flowRoot4278">
          <path
             d="m 1018.8162,344.10655 c 2,-1.08 2.64,-1 4.2001,-1.72 l 0.6799,-0.32 1.1601,-0.28 c -1.72,3.48 -4.8001,8.04 -6.24,12.28 -0.2001,0.44 -0.2801,0.76 -0.3201,1.08 -0.04,1.16 1,1.64 2.24,1.64 1.28,0 2.8,-0.52 3.4401,-1.36 v 0.04 c 1.04,-1.92 2.36,-0.4 3.56,-3.4 4.4,-11.04 9.44,-20.44 11.92,-24.92 l 1.24,-2.24 c 0.28,-0.48 0.4,-0.88 0.44,-1.24 0.04,-1.08 -1.08,-1.56 -2.48,-1.6 -5.08,0.16 -6,3.2 -10.04,12.52 v -0.04 c -0.04,0.04 -0.08,0.12 -0.08,0.16 l -0.4,0.72 c -0.28,-0.04 -0.56,-0.04 -0.84,-0.04 -1.72,0 -3.12,0.68 -4.7601,0.68 -0.12,0 -0.2799,-0.04 -0.4399,-0.04 2.44,-3.92 4.2,-6.84 6.52,-11 h -0.04 c 0.24,-0.52 0.4,-0.92 0.4,-1.24 0.08,-1 -0.8,-1.44 -2.04,-1.44 -2.6,0 -6.6001,1.84 -7.3601,4.44 l -1.1999,2.12 c -4.12,7.32 -7.64,13.12 -12.4,24.88 -0.12,0.36 -0.24,0.64 -0.24,0.92 -0.08,1.24 1.1599,1.84 2.64,1.84 1.76,0 3.8399,-0.76 4.64,-2.2 0.5599,-0.84 0.96,-1.76 1.4399,-2.72 l 0.9201,-1.88 3.0399,-5.12 z"
             id="path4389"
             inkscape:connector-curvature="0" />
          <path
             d="m 1046.9625,325.30655 c -2.68,1.92 -6,5.88 -7.72,8.48 v -0.04 c -2.6,4.2 -5.6,9.96 -5.84,14.68 -0.2,3.88 1.84,8.2 8.04,8.2 5.6,0 10.2,-4.32 13.48,-8.52 3.64,-4.72 7.76,-12.48 8.08,-18.32 0.04,-1 -0.04,-2 -0.24,-2.88 l -0.16,-0.92 c -0.12,-0.48 -0.28,-0.96 -0.28,-1.2 -0.88,-1.48 -2.36,-2.44 -4,-2.44 -1,0 -2.08,0.4 -3.12,1.32 -0.72,-0.28 -1.52,-0.4 -2.24,-0.4 -1.96,0 -4.12,0.72 -6,2.04 z m -2.8,25.36 c -0.32,0.36 -0.84,0.68 -1.2,0.92 l -0.72,0.52 c -1.16,-0.52 -1.4,-2.44 -1.48,-3 l 0.12,-0.76 c 1.88,-6.24 8.48,-13.28 12.52,-17.44 -0.64,6.52 -4.72,15.28 -9.24,19.76 z"
             id="path4391"
             inkscape:connector-curvature="0" />
          <path
             d="m 1059.5806,353.30655 c 0.08,2.12 1.24,2.48 2.6,2.48 0.32,0 0.68,0 1,-0.04 h 0.6 c 1.76,0 2.92,0.08 3.88,0.08 0.92,0 1.68,-0.08 2.48,-0.08 1.36,0 4,-0.12 5.68,-2.52 0.48,-0.68 0.68,-1.16 0.72,-1.6 0.04,-1.08 -1.32,-1.44 -1.28,-2.64 0.04,-0.08 0.04,-0.2 0.08,-0.36 -0.4,-0.2 -1.04,-0.4 -1.6,-0.4 -1.92,0 -4.2,1.04 -5.68,1.04 -0.08,-0.12 -0.12,-0.2 -0.08,-0.36 0,-0.04 0,-0.08 0.04,-0.16 6.12,-9.64 12.12,-16.04 14.88,-22.84 v 0.04 c 0.08,-0.32 0.12,-0.64 0.16,-0.92 0.08,-1.52 -1.16,-2.12 -2.8,-2.12 -2.6,0 -6.24,1.48 -7,3.16 l 0.04,-0.04 c -0.2,0.36 -3.64,5.6 -3.64,5.6 -4.04,5.76 -10.52,17.4 -10.56,19.2 0,0.28 0.04,0.48 0.12,0.68 h -0.04 c 0.16,0.36 0.4,0.88 0.4,1.8 z"
             id="path4393"
             inkscape:connector-curvature="0" />
          <path
             d="m 1093.4581,325.74655 c -0.08,-1.2 -0.68,-1.72 -1.48,-1.72 -1.92,0 -4.92,2.48 -5.28,4.8 -0.8,3.48 -1.04,6.76 -1.28,9.56 -0.08,0.44 -0.16,0.92 -0.16,1.28 -0.08,1 0.2,1.8 0.96,1.8 0.08,0 0.16,0 0.24,-0.04 l -3.52,4.72 c -1.84,2.48 -3.8,5 -5.08,7.52 -0.16,0.28 -0.24,0.56 -0.28,0.84 -0.04,1.44 1.96,2.56 4.48,2.56 1.88,0 4.08,-0.64 5.88,-2.24 h -0.04 c 0.36,-0.36 0.56,-0.76 0.56,-1.08 0.04,-0.72 -0.36,-1.48 -0.48,-1.48 0,0 0,0 0,0 l -0.32,-0.24 c 3.64,-6.76 7.52,-11.08 12,-17.24 2,-2.64 7.24,-7.64 7.4,-10.88 0.08,-1.24 -0.96,-1.64 -2.04,-1.64 -0.68,0 -1.48,0.16 -2.04,0.4 l 0.04,-0.04 c -2.2,1.44 -4.8,4.44 -6.8,6.88 l -1.76,2.12 -0.36,0.36 c -0.16,-1.76 -0.36,-3.96 -0.52,-5.32 z"
             id="path4395"
             inkscape:connector-curvature="0" />
          <path
             d="m 1124.0475,354.10655 c 2.72,-3.92 7.12,-12.48 10.44,-18.56 l 2.04,-3.76 c 0.36,-0.68 2.04,-0.24 3.32,-0.92 2.72,-0.32 2.52,-4 4.28,-4.96 0.8,-0.44 1.16,-0.92 1.2,-1.44 0.04,-1.12 -1.4,-2.28 -2.92,-2.28 -4.8,0 -12.92,2.36 -15.88,4.04 -2.12,1.52 -3.24,2.68 -3.36,4.64 -0.08,1.36 1.2,2.04 2.8,2.04 0.36,0 0.72,-0.04 1.08,-0.08 -4.24,7.64 -2.84,4.96 -8.96,19.16 -0.52,1 -0.8,1.84 -0.84,2.52 -0.08,1.48 1.2,2.16 3,2.16 1.12,0 2.32,-0.36 3.8,-2.56 z"
             id="path4397"
             inkscape:connector-curvature="0" />
          <path
             d="m 1150.5563,325.30655 c -2.68,1.92 -6,5.88 -7.72,8.48 v -0.04 c -2.6,4.2 -5.6,9.96 -5.84,14.68 -0.2,3.88 1.84,8.2 8.04,8.2 5.6,0 10.2,-4.32 13.48,-8.52 3.64,-4.72 7.7599,-12.48 8.08,-18.32 0.04,-1 -0.04,-2 -0.24,-2.88 l -0.16,-0.92 c -0.12,-0.48 -0.28,-0.96 -0.28,-1.2 -0.88,-1.48 -2.36,-2.44 -4,-2.44 -1,0 -2.08,0.4 -3.12,1.32 -0.72,-0.28 -1.5201,-0.4 -2.24,-0.4 -1.96,0 -4.12,0.72 -6,2.04 z m -2.8,25.36 c -0.32,0.36 -0.84,0.68 -1.2,0.92 l -0.72,0.52 c -1.16,-0.52 -1.4,-2.44 -1.48,-3 l 0.12,-0.76 c 1.88,-6.24 8.48,-13.28 12.52,-17.44 -0.64,6.52 -4.7201,15.28 -9.24,19.76 z"
             id="path4399"
             inkscape:connector-curvature="0" />
          <path
             d="m 1163.1744,353.30655 c 0.08,2.12 1.24,2.48 2.6,2.48 0.32,0 0.68,0 1,-0.04 h 0.6 c 1.76,0 2.92,0.08 3.88,0.08 0.92,0 1.68,-0.08 2.48,-0.08 1.36,0 4,-0.12 5.68,-2.52 0.48,-0.68 0.68,-1.16 0.72,-1.6 0.04,-1.08 -1.32,-1.44 -1.28,-2.64 0.04,-0.08 0.04,-0.2 0.08,-0.36 -0.4,-0.2 -1.04,-0.4 -1.6,-0.4 -1.92,0 -4.2,1.04 -5.68,1.04 -0.08,-0.12 -0.12,-0.2 -0.08,-0.36 0,-0.04 0,-0.08 0.04,-0.16 6.12,-9.64 12.12,-16.04 14.88,-22.84 v 0.04 c 0.08,-0.32 0.12,-0.64 0.16,-0.92 0.08,-1.52 -1.16,-2.12 -2.8,-2.12 -2.6,0 -6.24,1.48 -7,3.16 l 0.04,-0.04 c -0.2,0.36 -3.64,5.6 -3.64,5.6 -4.04,5.76 -10.52,17.4 -10.56,19.2 0,0.28 0.04,0.48 0.12,0.68 h -0.04 c 0.16,0.36 0.4,0.88 0.4,1.8 z"
             id="path4401"
             inkscape:connector-curvature="0" />
          <path
             d="m 1209.2769,322.70655 c -0.64,-0.08 -1.32,-0.16 -1.96,-0.16 -3.28,0 -7.68,1.28 -11.8,2.76 -1.64,0.76 -1.24,3.48 -2.44,5.2 -5.72,8.16 -9.32,14.56 -10.88,22.88 -0.04,0.12 -0.08,0.24 -0.08,0.36 -0.16,2.92 5.28,2.64 6.96,2.64 2.12,0 3.92,-0.28 6.44,-0.92 h -0.04 c 2.28,-0.8 4.48,-3 4.52,-3.8 0,-0.12 -0.04,-0.2 -0.08,-0.24 -0.6,-0.28 -0.8,-0.68 -0.76,-1.08 0,-0.28 0.12,-0.56 0.16,-0.84 0,-0.28 -0.12,-0.56 -0.56,-0.76 -1.64,0.2 -2.6,0.32 -3.68,0.32 -0.52,0 -3.68,0.04 -3.64,-0.64 0.08,-1.16 2.52,-4.6 3.48,-5.76 2.8,-0.16 1.68,-0.2 3.76,-0.6 h -0.04 c 2.32,-0.76 3.84,-2.76 4.64,-4.4 0.08,-0.16 0.16,-0.32 0.16,-0.4 0,-0.32 -0.28,-0.4 -0.68,-0.4 -0.92,0 -2.36,0.36 -3.68,0.36 -0.44,0 -0.92,-0.08 -1.48,-0.32 l 0.48,-1.04 c 0.48,-1.12 1.16,-2.12 2.12,-3.24 l 0.24,-0.28 c 1,-1.2 2.04,-1.56 4.96,-2.28 3.28,-0.48 5.8,-3.44 5.88,-5.52 0.08,-1 -0.52,-1.8 -1.96,-1.84 z"
             id="path4403"
             inkscape:connector-curvature="0" />
          <path
             d="m 1229.765,340.86655 c 1.12,-2.6 1.88,-4.96 1.96,-7.04 0.12,-2.04 -0.4,-4 -1.72,-5.64 -2,-2.44 -5.2,-5.44 -8.96,-5.44 -1.4,0 -3.64,0.48 -5.04,1.76 -1.28,1.2 -1.96,3.72 -2.44,5.08 -3.28,6.64 -8.16,13.4 -10.08,22.6 0,0.12 0,0.2 0,0.32 -0.12,2.28 1.76,4.08 3.88,4.08 1.4,0 2.8,-0.68 3.84,-2.28 0.68,0.12 1.2,0.16 1.56,0.16 6.48,0 14.08,-7.36 17,-13.6 z m -16.44,6.96 c 0.52,-1.48 0.84,-1.96 1.12,-3.2 l 1.64,-3.8 1.8,-3.56 c 0.84,-1.72 1.28,-3.32 2.76,-5.68 2.36,1.72 3.84,3.12 3.72,5.56 -0.08,1.24 -0.56,2.72 -1.44,4.28 h 0.04 c -1.6,3.24 -4.84,5.48 -7.96,7.16 l -2.24,1.2 z"
             id="path4405"
             inkscape:connector-curvature="0" />
          <path
             d="m 1244.2281,325.30655 c -2.68,1.92 -6,5.88 -7.72,8.48 v -0.04 c -2.6,4.2 -5.6,9.96 -5.84,14.68 -0.2,3.88 1.84,8.2 8.04,8.2 5.6,0 10.2,-4.32 13.48,-8.52 3.64,-4.72 7.76,-12.48 8.08,-18.32 0.04,-1 -0.04,-2 -0.24,-2.88 l -0.16,-0.92 c -0.12,-0.48 -0.28,-0.96 -0.28,-1.2 -0.88,-1.48 -2.36,-2.44 -4,-2.44 -1,0 -2.08,0.4 -3.12,1.32 -0.72,-0.28 -1.52,-0.4 -2.24,-0.4 -1.96,0 -4.12,0.72 -6,2.04 z m -2.8,25.36 c -0.32,0.36 -0.84,0.68 -1.2,0.92 l -0.72,0.52 c -1.16,-0.52 -1.4,-2.44 -1.48,-3 l 0.12,-0.76 c 1.88,-6.24 8.48,-13.28 12.52,-17.44 -0.64,6.52 -4.72,15.28 -9.24,19.76 z"
             id="path4407"
             inkscape:connector-curvature="0" />
          <path
             d="m 1295.5175,326.22655 c 0.44,-0.8 0.68,-1.48 0.72,-2.04 0.08,-1.24 -0.84,-1.8 -1.88,-1.8 -0.92,0 -2,0.52 -2.6,1.48 -1.56,2.56 -2.92,0.72 -5.04,3.72 -3.48,5 -9.08,16.36 -12.52,22.52 -0.76,1.48 -1.36,2.76 -1.4,3.6 -0.04,1.08 0.76,1.72 3.36,1.72 1.08,0 4.92,-0.2 6.36,-4.36 3.16,-6.12 6.92,-13.08 12.96,-24.84 z"
             id="path4409"
             inkscape:connector-curvature="0" />
          <path
             d="m 1297.8756,354.10655 c 2.72,-3.92 7.12,-12.48 10.44,-18.56 l 2.04,-3.76 c 0.36,-0.68 2.04,-0.24 3.32,-0.92 2.72,-0.32 2.52,-4 4.28,-4.96 0.8,-0.44 1.16,-0.92 1.2,-1.44 0.04,-1.12 -1.4,-2.28 -2.92,-2.28 -4.8,0 -12.92,2.36 -15.88,4.04 -2.12,1.52 -3.24,2.68 -3.36,4.64 -0.08,1.36 1.2,2.04 2.8,2.04 0.36,0 0.72,-0.04 1.08,-0.08 -4.24,7.64 -2.84,4.96 -8.96,19.16 -0.52,1 -0.8,1.84 -0.84,2.52 -0.08,1.48 1.2,2.16 3,2.16 1.12,0 2.32,-0.36 3.8,-2.56 z"
             id="path4411"
             inkscape:connector-curvature="0" />
          <path
             d="m 1315.0644,355.86655 c 10.76,0 15.84,-8.76 16.04,-12.32 0.24,-4.76 -4.72,-6.4 -4.6,-8.4 0.16,-3.04 1.44,-3.8 4.44,-3.8 0.56,0 1.16,0.04 1.84,0.08 3.04,-0.4 4,-1.6 4.04,-2.84 1.4,-0.08 2.88,-1.2 2.92,-2.52 0.04,-0.48 -0.12,-0.96 -0.52,-1.48 l -0.36,-0.32 c -0.8,-0.68 -1.48,-1.4 -2.72,-1.6 -1.08,-0.16 -2.12,-0.28 -3,-0.28 -3.28,0 -5.92,1.04 -8.36,2.2 -2.96,1.44 -6.24,4.44 -7.72,9.36 -0.2,0.72 -0.32,1.36 -0.32,1.96 -0.16,3.08 1.76,5.16 3.92,7.16 0.88,0.8 1.68,1.6 1.64,2.48 -0.04,0.84 -1.2,1.84 -3.96,2.72 -0.4,0.16 -0.96,0.24 -1.48,0.24 -1.6,0 -3.56,-0.72 -5.12,-0.72 -1.96,0 -3.32,1.92 -3.4,3.6 -0.12,2.48 2.36,4.48 6.16,4.48 0.2,0 0.36,0 0.56,0 z"
             id="path4413"
             inkscape:connector-curvature="0" />
          <path
             d="m 1348.9556,353.30655 c 0.08,2.12 1.24,2.48 2.6,2.48 0.32,0 0.68,0 1,-0.04 h 0.6 c 1.76,0 2.92,0.08 3.88,0.08 0.92,0 1.68,-0.08 2.48,-0.08 1.36,0 4,-0.12 5.68,-2.52 0.48,-0.68 0.68,-1.16 0.72,-1.6 0.04,-1.08 -1.32,-1.44 -1.28,-2.64 0.04,-0.08 0.04,-0.2 0.08,-0.36 -0.4,-0.2 -1.04,-0.4 -1.6,-0.4 -1.92,0 -4.2,1.04 -5.68,1.04 -0.08,-0.12 -0.12,-0.2 -0.08,-0.36 0,-0.04 0,-0.08 0.04,-0.16 6.12,-9.64 12.12,-16.04 14.88,-22.84 v 0.04 c 0.08,-0.32 0.12,-0.64 0.16,-0.92 0.08,-1.52 -1.16,-2.12 -2.8,-2.12 -2.6,0 -6.24,1.48 -7,3.16 l 0.04,-0.04 c -0.2,0.36 -3.64,5.6 -3.64,5.6 -4.04,5.76 -10.52,17.4 -10.56,19.2 0,0.28 0.04,0.48 0.12,0.68 h -0.04 c 0.16,0.36 0.4,0.88 0.4,1.8 z"
             id="path4415"
             inkscape:connector-curvature="0" />
          <path
             d="m 1388.3781,323.86655 0.04,-0.04 c -7.84,6.24 -14.12,14.84 -19.28,23.28 -0.48,0.8 -2.72,4.84 -2.84,6.92 -0.08,1.68 1.24,2.36 2.28,2.36 2.44,0 4.56,-2.12 6.56,-4.92 0.76,-0.56 1.48,-0.04 2.96,-0.88 0.52,-0.28 2.08,-1.48 3.88,-1.92 l -0.56,1.88 c -0.32,1.52 -1.16,3.04 -1.2,3.76 -0.04,1.16 1.72,1.72 3.08,1.72 1.12,0 2.4,-0.44 3.24,-1.2 0.24,-0.56 0.4,-1.04 0.6,-1.6 l 0.4,-0.88 c 3.2,-8.08 5.6,-15.96 8.72,-24.04 -0.16,-0.88 -0.68,-1.64 -1.44,-2.04 0.52,-0.64 0.76,-1.16 0.76,-1.52 0.08,-1.32 -1.64,-2.12 -3.36,-2.12 -0.8,0 -1.84,0.4 -2.84,0.84 z m -5.72,15.76 c 0.48,-0.84 1.08,-1.92 1.52,-2.76 l 2.12,-2.48 0.32,0.16 -1.16,3.32 c -0.84,2.32 -1.64,4.84 -2.36,7.16 l -3.76,0.12 z"
             id="path4417"
             inkscape:connector-curvature="0" />
          <path
             d="m 1399.9069,354.10655 c 2.72,-3.92 7.12,-12.48 10.44,-18.56 l 2.04,-3.76 c 0.36,-0.68 2.04,-0.24 3.32,-0.92 2.72,-0.32 2.52,-4 4.28,-4.96 0.8,-0.44 1.16,-0.92 1.2,-1.44 0.04,-1.12 -1.4,-2.28 -2.92,-2.28 -4.8,0 -12.92,2.36 -15.88,4.04 -2.12,1.52 -3.24,2.68 -3.36,4.64 -0.08,1.36 1.2,2.04 2.8,2.04 0.36,0 0.72,-0.04 1.08,-0.08 -4.24,7.64 -2.84,4.96 -8.96,19.16 -0.52,1 -0.8,1.84 -0.84,2.52 -0.08,1.48 1.2,2.16 3,2.16 1.12,0 2.32,-0.36 3.8,-2.56 z"
             id="path4419"
             inkscape:connector-curvature="0" />
          <path
             d="m 1438.4956,322.70655 c -0.64,-0.08 -1.32,-0.16 -1.96,-0.16 -3.28,0 -7.68,1.28 -11.8,2.76 -1.64,0.76 -1.24,3.48 -2.44,5.2 -5.72,8.16 -9.32,14.56 -10.88,22.88 -0.04,0.12 -0.08,0.24 -0.08,0.36 -0.16,2.92 5.28,2.64 6.96,2.64 2.12,0 3.92,-0.28 6.44,-0.92 h -0.04 c 2.28,-0.8 4.48,-3 4.52,-3.8 0,-0.12 -0.04,-0.2 -0.08,-0.24 -0.6,-0.28 -0.8,-0.68 -0.76,-1.08 0,-0.28 0.12,-0.56 0.16,-0.84 0,-0.28 -0.12,-0.56 -0.56,-0.76 -1.64,0.2 -2.6,0.32 -3.68,0.32 -0.52,0 -3.68,0.04 -3.64,-0.64 0.08,-1.16 2.52,-4.6 3.48,-5.76 2.8,-0.16 1.68,-0.2 3.76,-0.6 h -0.04 c 2.32,-0.76 3.84,-2.76 4.64,-4.4 0.08,-0.16 0.16,-0.32 0.16,-0.4 0,-0.32 -0.28,-0.4 -0.68,-0.4 -0.92,0 -2.36,0.36 -3.68,0.36 -0.44,0 -0.92,-0.08 -1.48,-0.32 l 0.48,-1.04 c 0.48,-1.12 1.16,-2.12 2.12,-3.24 l 0.24,-0.28 c 1,-1.2 2.04,-1.56 4.96,-2.28 3.28,-0.48 5.8,-3.44 5.88,-5.52 0.08,-1 -0.52,-1.8 -1.96,-1.84 z"
             id="path4421"
             inkscape:connector-curvature="0" />
          <path
             d="m 1047.4578,405.46655 c 0.48,0.04 0.92,0.08 1.36,0.08 8.48,0 14.64,-8.08 14.88,-12.36 0.04,-0.96 -0.28,-1.84 -0.88,-2.2 l -0.96,-0.56 c -0.52,-0.28 -0.96,-0.4 -1.4,-0.8 4.16,-2.4 9,-6.48 9.2,-10.32 0.12,-2.4 -1.64,-4.88 -3.28,-5.92 h -0.08 c -1.24,-0.76 -2.76,-1.12 -4.36,-1.12 -3.32,0 -7.08,1.52 -9.8,4.52 -5.4,5.84 -9.44,15.24 -12.24,22.8 -0.08,0.2 -0.12,0.4 -0.12,0.56 0,0.12 0,0.2 0.04,0.28 -0.32,0.52 -0.64,1.36 -0.72,2.32 -0.08,2.12 1.44,3.32 3.32,3.32 1.04,0 2.24,-0.36 3.32,-1.08 1.04,0.08 0.16,0.48 1.72,0.48 z m 0.36,-3.84 c 0.6,-1.72 1.16,-2.8 1.64,-3.84 l 0.92,-1.96 c 1.52,-0.08 2.68,-0.52 3.72,-0.52 0.96,0 1.6,0.32 1.56,1.32 -0.24,4.12 -6.12,4.92 -6.04,4.92 -0.68,0 -0.96,0 -1.8,0.08 z m 10.08,-20.64 c 0.52,-0.48 1.16,-0.76 1.92,-0.76 0.28,0 0.56,-0.04 0.84,-0.28 0.72,0.36 1.68,0.96 1.64,1.56 -0.12,2.28 -3.52,3.52 -5.56,4.24 l -2.36,0.84 c 1.08,-2.68 1.72,-3.96 3.56,-5.6 z"
             id="path4423"
             inkscape:connector-curvature="0" />
          <path
             d="m 1069.7659,403.74655 1.24,-2.52 c 0.72,-1.44 1.68,-3.08 2.76,-5 1.76,2.44 1.4,8.08 4.44,8.08 0.4,0 0.84,-0.08 1.28,-0.2 1.04,0.44 1.12,1.16 1.88,1.16 1.16,0 2.88,-1.16 2.96,-2.6 0.12,-2.36 -2.36,-5.88 -3.52,-8.24 v 0.04 l -0.44,-0.92 c 7.16,-1.96 13,-10.36 13.32,-16.04 0.12,-3 -1.44,-5.2 -5.04,-5.2 -0.8,0 -6.04,1 -8.32,2.04 -5.56,2.96 -17.52,24.72 -17.88,28.68 -0.04,0.16 -0.08,0.32 -0.12,0.48 -0.04,1.36 1.76,2.2 3.68,2.2 1.56,0 3.2,-0.56 3.76,-1.96 z m 12.96,-23.68 0.52,-0.4 h -0.04 c 0.52,-0.56 1.24,-1.24 2.08,-1.24 0.76,0 1,0.68 1,1.04 -0.04,0.76 -0.84,1.48 -0.88,2.12 -1.48,3.08 -2.76,3.6 -5.24,4.8 l -1.24,0.8 -0.24,-0.2 c 0,0 0.2,-0.52 1.92,-3.64 0.48,-0.76 0.56,-1.08 1.96,-3.16 z"
             id="path4425"
             inkscape:connector-curvature="0" />
          <path
             d="m 1103.7578,372.82655 c -2.52,0 -4.4,2.64 -5.48,4.64 -3.52,5.72 -8.88,14.64 -9.2,21.32 -0.24,4.24 2.6,6.64 6.8,6.64 1.4,0 5.48,-0.84 5.76,-3 h 0.4 c -0.04,0.24 -0.08,0.48 -0.08,0.72 -0.08,1.6 0.44,2.24 2.12,2.24 2,0 4.68,-1.28 5.12,-3.32 5.2,-13.72 12.64,-25.72 12.96,-27.84 0,-0.12 0,-0.2 0,-0.32 0.08,-1.32 -0.76,-1.96 -1.92,-1.96 -0.88,0 -1.88,0.36 -2.8,1.28 -0.48,-0.24 -0.88,-0.32 -1.2,-0.32 -1.96,0 -3.28,2.32 -4.44,4.24 -3.48,5.24 -11.28,16.48 -13.12,16.48 -0.4,0 -0.56,-0.32 -0.52,-0.92 0.88,-6.04 7.76,-14.72 7.88,-17.28 0.08,-1.4 -0.92,-2.6 -2.28,-2.6 z"
             id="path4427"
             inkscape:connector-curvature="0" />
          <path
             d="m 1120.6503,405.86655 c 10.76,0 15.84,-8.76 16.04,-12.32 0.24,-4.76 -4.72,-6.4 -4.6,-8.4 0.16,-3.04 1.44,-3.8 4.44,-3.8 0.56,0 1.16,0.04 1.84,0.08 3.04,-0.4 4,-1.6 4.04,-2.84 1.4,-0.08 2.88,-1.2 2.92,-2.52 0.04,-0.48 -0.12,-0.96 -0.52,-1.48 l -0.36,-0.32 c -0.8,-0.68 -1.48,-1.4 -2.72,-1.6 -1.08,-0.16 -2.12,-0.28 -3,-0.28 -3.28,0 -5.92,1.04 -8.36,2.2 -2.96,1.44 -6.24,4.44 -7.72,9.36 -0.2,0.72 -0.32,1.36 -0.32,1.96 -0.16,3.08 1.76,5.16 3.92,7.16 0.88,0.8 1.68,1.6 1.64,2.48 -0.04,0.84 -1.2,1.84 -3.96,2.72 -0.4,0.16 -0.96,0.24 -1.48,0.24 -1.6,0 -3.56,-0.72 -5.12,-0.72 -1.96,0 -3.32,1.92 -3.4,3.6 -0.12,2.48 2.36,4.48 6.16,4.48 0.2,0 0.36,0 0.56,0 z"
             id="path4429"
             inkscape:connector-curvature="0" />
          <path
             d="m 1148.2303,394.10655 c 2,-1.08 2.64,-1 4.2,-1.72 l 0.68,-0.32 1.16,-0.28 c -1.72,3.48 -4.8,8.04 -6.24,12.28 -0.2,0.44 -0.28,0.76 -0.32,1.08 -0.04,1.16 1,1.64 2.24,1.64 1.28,0 2.8,-0.52 3.44,-1.36 v 0.04 c 1.04,-1.92 2.36,-0.4 3.56,-3.4 4.4,-11.04 9.44,-20.44 11.92,-24.92 l 1.24,-2.24 c 0.28,-0.48 0.4,-0.88 0.44,-1.24 0.04,-1.08 -1.08,-1.56 -2.48,-1.6 -5.08,0.16 -6,3.2 -10.04,12.52 v -0.04 c -0.04,0.04 -0.08,0.12 -0.08,0.16 l -0.4,0.72 c -0.28,-0.04 -0.56,-0.04 -0.84,-0.04 -1.72,0 -3.12,0.68 -4.76,0.68 -0.12,0 -0.28,-0.04 -0.44,-0.04 2.44,-3.92 4.2,-6.84 6.52,-11 h -0.04 c 0.24,-0.52 0.4,-0.92 0.4,-1.24 0.08,-1 -0.8,-1.44 -2.04,-1.44 -2.6,0 -6.6,1.84 -7.36,4.44 l -1.2,2.12 c -4.12,7.32 -7.64,13.12 -12.4,24.88 -0.12,0.36 -0.24,0.64 -0.24,0.92 -0.08,1.24 1.16,1.84 2.64,1.84 1.76,0 3.84,-0.76 4.64,-2.2 0.56,-0.84 0.96,-1.76 1.44,-2.72 l 0.92,-1.88 3.04,-5.12 z"
             id="path4431"
             inkscape:connector-curvature="0" />
          <path
             d="m 1193.8878,375.74655 c -0.08,-1.2 -0.68,-1.72 -1.48,-1.72 -1.92,0 -4.92,2.48 -5.28,4.8 -0.8,3.48 -1.04,6.76 -1.28,9.56 -0.08,0.44 -0.16,0.92 -0.16,1.28 -0.08,1 0.2,1.8 0.96,1.8 0.08,0 0.16,0 0.24,-0.04 l -3.52,4.72 c -1.84,2.48 -3.8,5 -5.08,7.52 -0.16,0.28 -0.24,0.56 -0.28,0.84 -0.04,1.44 1.96,2.56 4.48,2.56 1.88,0 4.08,-0.64 5.88,-2.24 h -0.04 c 0.36,-0.36 0.56,-0.76 0.56,-1.08 0.04,-0.72 -0.36,-1.48 -0.48,-1.48 0,0 0,0 0,0 l -0.32,-0.24 c 3.64,-6.76 7.52,-11.08 12,-17.24 2,-2.64 7.24,-7.64 7.4,-10.88 0.08,-1.24 -0.96,-1.64 -2.04,-1.64 -0.68,0 -1.48,0.16 -2.04,0.4 l 0.04,-0.04 c -2.2,1.44 -4.8,4.44 -6.8,6.88 l -1.76,2.12 -0.36,0.36 c -0.16,-1.76 -0.36,-3.96 -0.52,-5.32 z"
             id="path4433"
             inkscape:connector-curvature="0" />
          <path
             d="m 1213.4859,375.30655 c -2.68,1.92 -6,5.88 -7.72,8.48 v -0.04 c -2.6,4.2 -5.6,9.96 -5.84,14.68 -0.2,3.88 1.84,8.2 8.04,8.2 5.6,0 10.2,-4.32 13.48,-8.52 3.64,-4.72 7.76,-12.48 8.08,-18.32 0.04,-1 -0.04,-2 -0.24,-2.88 l -0.16,-0.92 c -0.12,-0.48 -0.28,-0.96 -0.28,-1.2 -0.88,-1.48 -2.36,-2.44 -4,-2.44 -1,0 -2.08,0.4 -3.12,1.32 -0.72,-0.28 -1.52,-0.4 -2.24,-0.4 -1.96,0 -4.12,0.72 -6,2.04 z m -2.8,25.36 c -0.32,0.36 -0.84,0.68 -1.2,0.92 l -0.72,0.52 c -1.16,-0.52 -1.4,-2.44 -1.48,-3 l 0.12,-0.76 c 1.88,-6.24 8.48,-13.28 12.52,-17.44 -0.64,6.52 -4.72,15.28 -9.24,19.76 z"
             id="path4435"
             inkscape:connector-curvature="0" />
          <path
             d="m 1242.6641,372.82655 c -2.52,0 -4.4,2.64 -5.48,4.64 -3.52,5.72 -8.88,14.64 -9.2,21.32 -0.24,4.24 2.6,6.64 6.8,6.64 1.4,0 5.48,-0.84 5.76,-3 h 0.4 c -0.04,0.24 -0.08,0.48 -0.08,0.72 -0.08,1.6 0.44,2.24 2.12,2.24 2,0 4.68,-1.28 5.12,-3.32 5.2,-13.72 12.64,-25.72 12.96,-27.84 0,-0.12 0,-0.2 0,-0.32 0.08,-1.32 -0.76,-1.96 -1.92,-1.96 -0.88,0 -1.88,0.36 -2.8,1.28 -0.48,-0.24 -0.88,-0.32 -1.2,-0.32 -1.96,0 -3.28,2.32 -4.44,4.24 -3.48,5.24 -11.28,16.48 -13.12,16.48 -0.4,0 -0.56,-0.32 -0.52,-0.92 0.88,-6.04 7.76,-14.72 7.88,-17.28 0.08,-1.4 -0.92,-2.6 -2.28,-2.6 z"
             id="path4437"
             inkscape:connector-curvature="0" />
          <path
             d="m 1260.1566,403.74655 1.24,-2.52 c 0.72,-1.44 1.68,-3.08 2.76,-5 1.76,2.44 1.4,8.08 4.44,8.08 0.4,0 0.84,-0.08 1.28,-0.2 1.04,0.44 1.12,1.16 1.88,1.16 1.16,0 2.88,-1.16 2.96,-2.6 0.12,-2.36 -2.36,-5.88 -3.52,-8.24 v 0.04 l -0.44,-0.92 c 7.16,-1.96 13,-10.36 13.32,-16.04 0.12,-3 -1.44,-5.2 -5.04,-5.2 -0.8,0 -6.04,1 -8.32,2.04 -5.56,2.96 -17.52,24.72 -17.88,28.68 -0.04,0.16 -0.08,0.32 -0.12,0.48 -0.04,1.36 1.76,2.2 3.68,2.2 1.56,0 3.2,-0.56 3.76,-1.96 z m 12.96,-23.68 0.52,-0.4 h -0.04 c 0.52,-0.56 1.24,-1.24 2.08,-1.24 0.76,0 1,0.68 1,1.04 -0.04,0.76 -0.84,1.48 -0.88,2.12 -1.48,3.08 -2.76,3.6 -5.24,4.8 l -1.24,0.8 -0.24,-0.2 c 0,0 0.2,-0.52 1.92,-3.64 0.48,-0.76 0.56,-1.08 1.96,-3.16 z"
             id="path4439"
             inkscape:connector-curvature="0" />
          <path
             d="m 1303.5397,404.10655 c 2.72,-3.92 7.12,-12.48 10.44,-18.56 l 2.04,-3.76 c 0.36,-0.68 2.04,-0.24 3.32,-0.92 2.72,-0.32 2.52,-4 4.28,-4.96 0.8,-0.44 1.16,-0.92 1.2,-1.44 0.04,-1.12 -1.4,-2.28 -2.92,-2.28 -4.8,0 -12.92,2.36 -15.88,4.04 -2.12,1.52 -3.24,2.68 -3.36,4.64 -0.08,1.36 1.2,2.04 2.8,2.04 0.36,0 0.72,-0.04 1.08,-0.08 -4.24,7.64 -2.84,4.96 -8.96,19.16 -0.52,1 -0.8,1.84 -0.84,2.52 -0.08,1.48 1.2,2.16 3,2.16 1.12,0 2.32,-0.36 3.8,-2.56 z"
             id="path4441"
             inkscape:connector-curvature="0" />
          <path
             d="m 1342.1284,372.70655 c -0.64,-0.08 -1.32,-0.16 -1.96,-0.16 -3.28,0 -7.68,1.28 -11.8,2.76 -1.64,0.76 -1.24,3.48 -2.44,5.2 -5.72,8.16 -9.32,14.56 -10.88,22.88 -0.04,0.12 -0.08,0.24 -0.08,0.36 -0.16,2.92 5.28,2.64 6.96,2.64 2.12,0 3.92,-0.28 6.44,-0.92 h -0.04 c 2.28,-0.8 4.48,-3 4.52,-3.8 0,-0.12 -0.04,-0.2 -0.08,-0.24 -0.6,-0.28 -0.8,-0.68 -0.76,-1.08 0,-0.28 0.12,-0.56 0.16,-0.84 0,-0.28 -0.12,-0.56 -0.56,-0.76 -1.64,0.2 -2.6,0.32 -3.68,0.32 -0.52,0 -3.68,0.04 -3.64,-0.64 0.08,-1.16 2.52,-4.6 3.48,-5.76 2.8,-0.16 1.68,-0.2 3.76,-0.6 h -0.04 c 2.32,-0.76 3.84,-2.76 4.64,-4.4 0.08,-0.16 0.16,-0.32 0.16,-0.4 0,-0.32 -0.28,-0.4 -0.68,-0.4 -0.92,0 -2.36,0.36 -3.68,0.36 -0.44,0 -0.92,-0.08 -1.48,-0.32 l 0.48,-1.04 c 0.48,-1.12 1.16,-2.12 2.12,-3.24 l 0.24,-0.28 c 1,-1.2 2.04,-1.56 4.96,-2.28 3.28,-0.48 5.8,-3.44 5.88,-5.52 0.08,-1 -0.52,-1.8 -1.96,-1.84 z"
             id="path4443"
             inkscape:connector-curvature="0" />
          <path
             d="m 1363.4566,372.70655 c -0.64,-0.08 -1.32,-0.16 -1.96,-0.16 -3.28,0 -7.68,1.28 -11.8,2.76 -1.64,0.76 -1.24,3.48 -2.44,5.2 -5.72,8.16 -9.32,14.56 -10.88,22.88 -0.04,0.12 -0.08,0.24 -0.08,0.36 -0.16,2.92 5.28,2.64 6.96,2.64 2.12,0 3.92,-0.28 6.44,-0.92 h -0.04 c 2.28,-0.8 4.48,-3 4.52,-3.8 0,-0.12 -0.04,-0.2 -0.08,-0.24 -0.6,-0.28 -0.8,-0.68 -0.76,-1.08 0,-0.28 0.12,-0.56 0.16,-0.84 0,-0.28 -0.12,-0.56 -0.56,-0.76 -1.64,0.2 -2.6,0.32 -3.68,0.32 -0.52,0 -3.68,0.04 -3.64,-0.64 0.08,-1.16 2.52,-4.6 3.48,-5.76 2.8,-0.16 1.68,-0.2 3.76,-0.6 h -0.04 c 2.32,-0.76 3.84,-2.76 4.64,-4.4 0.08,-0.16 0.16,-0.32 0.16,-0.4 0,-0.32 -0.28,-0.4 -0.68,-0.4 -0.92,0 -2.36,0.36 -3.68,0.36 -0.44,0 -0.92,-0.08 -1.48,-0.32 l 0.48,-1.04 c 0.48,-1.12 1.16,-2.12 2.12,-3.24 l 0.24,-0.28 c 1,-1.2 2.04,-1.56 4.96,-2.28 3.28,-0.48 5.8,-3.44 5.88,-5.52 0.08,-1 -0.52,-1.8 -1.96,-1.84 z"
             id="path4445"
             inkscape:connector-curvature="0" />
          <path
             d="m 1366.6647,404.10655 c 2.72,-3.92 7.12,-12.48 10.44,-18.56 l 2.04,-3.76 c 0.36,-0.68 2.04,-0.24 3.32,-0.92 2.72,-0.32 2.52,-4 4.28,-4.96 0.8,-0.44 1.16,-0.92 1.2,-1.44 0.04,-1.12 -1.4,-2.28 -2.92,-2.28 -4.8,0 -12.92,2.36 -15.88,4.04 -2.12,1.52 -3.24,2.68 -3.36,4.64 -0.08,1.36 1.2,2.04 2.8,2.04 0.36,0 0.72,-0.04 1.08,-0.08 -4.24,7.64 -2.84,4.96 -8.96,19.16 -0.52,1 -0.8,1.84 -0.84,2.52 -0.08,1.48 1.2,2.16 3,2.16 1.12,0 2.32,-0.36 3.8,-2.56 z"
             id="path4447"
             inkscape:connector-curvature="0" />
          <path
             d="m 1387.9959,394.10655 c 2,-1.08 2.64,-1 4.2,-1.72 l 0.68,-0.32 1.16,-0.28 c -1.72,3.48 -4.8,8.04 -6.24,12.28 -0.2,0.44 -0.28,0.76 -0.32,1.08 -0.04,1.16 1,1.64 2.24,1.64 1.28,0 2.8,-0.52 3.44,-1.36 v 0.04 c 1.04,-1.92 2.36,-0.4 3.56,-3.4 4.4,-11.04 9.44,-20.44 11.92,-24.92 l 1.24,-2.24 c 0.28,-0.48 0.4,-0.88 0.44,-1.24 0.04,-1.08 -1.08,-1.56 -2.48,-1.6 -5.08,0.16 -6,3.2 -10.04,12.52 v -0.04 c -0.04,0.04 -0.08,0.12 -0.08,0.16 l -0.4,0.72 c -0.28,-0.04 -0.56,-0.04 -0.84,-0.04 -1.72,0 -3.12,0.68 -4.76,0.68 -0.12,0 -0.28,-0.04 -0.44,-0.04 2.44,-3.92 4.2,-6.84 6.52,-11 h -0.04 c 0.24,-0.52 0.4,-0.92 0.4,-1.24 0.08,-1 -0.8,-1.44 -2.04,-1.44 -2.6,0 -6.6,1.84 -7.36,4.44 l -1.2,2.12 c -4.12,7.32 -7.64,13.12 -12.4,24.88 -0.12,0.36 -0.24,0.64 -0.24,0.92 -0.08,1.24 1.16,1.84 2.64,1.84 1.76,0 3.84,-0.76 4.64,-2.2 0.56,-0.84 0.96,-1.76 1.44,-2.72 l 0.92,-1.88 3.04,-5.12 z"
             id="path4449"
             inkscape:connector-curvature="0" />
        </g>
      </g>
    </g>
  </g>
</svg>
