<?xml version="1.0" encoding="UTF-8" standalone="no"?>
<!-- Created with Inkscape (http://www.inkscape.org/) -->

<svg
   xmlns:dc="http://purl.org/dc/elements/1.1/"
   xmlns:cc="http://creativecommons.org/ns#"
   xmlns:rdf="http://www.w3.org/1999/02/22-rdf-syntax-ns#"
   xmlns:svg="http://www.w3.org/2000/svg"
   xmlns="http://www.w3.org/2000/svg"
   xmlns:sodipodi="http://sodipodi.sourceforge.net/DTD/sodipodi-0.dtd"
   xmlns:inkscape="http://www.inkscape.org/namespaces/inkscape"
   width="1920"
   height="1080"
   viewBox="0 0 507.99999 285.75001"
   version="1.1"
   id="svg8"
   inkscape:version="0.92+devel unknown"
   sodipodi:docname="11pm.svg">
  <defs
     id="defs2" />
  <sodipodi:namedview
     id="base"
     pagecolor="#ffffff"
     bordercolor="#666666"
     borderopacity="1.0"
     inkscape:pageopacity="0.0"
     inkscape:pageshadow="2"
     inkscape:zoom="0.9899495"
     inkscape:cx="273.24303"
     inkscape:cy="516.60824"
     inkscape:document-units="mm"
     inkscape:current-layer="g4421"
     inkscape:document-rotation="0"
     showgrid="false"
     units="px"
     inkscape:window-width="1920"
     inkscape:window-height="1016"
     inkscape:window-x="0"
     inkscape:window-y="0"
     inkscape:window-maximized="1" />
  <metadata
     id="metadata5">
    <rdf:RDF>
      <cc:Work
         rdf:about="">
        <dc:format>image/svg+xml</dc:format>
        <dc:type
           rdf:resource="http://purl.org/dc/dcmitype/StillImage" />
        <dc:title />
        <cc:license
           rdf:resource="http://creativecommons.org/licenses/by/4.0/" />
      </cc:Work>
      <cc:License
         rdf:about="http://creativecommons.org/licenses/by/4.0/">
        <cc:permits
           rdf:resource="http://creativecommons.org/ns#Reproduction" />
        <cc:permits
           rdf:resource="http://creativecommons.org/ns#Distribution" />
        <cc:requires
           rdf:resource="http://creativecommons.org/ns#Notice" />
        <cc:requires
           rdf:resource="http://creativecommons.org/ns#Attribution" />
        <cc:permits
           rdf:resource="http://creativecommons.org/ns#DerivativeWorks" />
      </cc:License>
    </rdf:RDF>
  </metadata>
  <g
     inkscape:label="Layer 1"
     inkscape:groupmode="layer"
     id="layer1"
     transform="translate(0,-11.249983)">
    <rect
       style="fill:#ffcc00;fill-opacity:1;stroke:none;stroke-width:4.52094126;stroke-linecap:round;stroke-linejoin:round;stroke-miterlimit:4;stroke-dasharray:none;stroke-dashoffset:0;stroke-opacity:1;paint-order:stroke fill markers"
       id="rect4286"
       width="638.69043"
       height="386.5459"
       x="-87.612709"
       y="-52.52351"
       ry="0.68648261" />
    <g
       aria-label="10AM"
       transform="matrix(1.8464327,0,0,1.8464327,-203.98135,-424.77393)"
       style="font-style:normal;font-weight:normal;font-size:40px;line-height:1.25;font-family:sans-serif;letter-spacing:0px;word-spacing:0px;fill:#000000;fill-opacity:1;stroke:none"
       id="flowRoot4272" />
    <g
       aria-label="11 In the morning"
       transform="matrix(1.1111184,0,0,1.1111184,-28.552813,-38.706771)"
       style="font-style:normal;font-weight:normal;font-size:40px;line-height:1.25;font-family:sans-serif;text-align:start;letter-spacing:0px;word-spacing:0px;text-anchor:start;fill:#ffffff;fill-opacity:1;stroke:none"
       id="flowRoot4270">
      <path
         d="M 84.847443,-3.143859 52.818028,12.16774 C 68.098919,77.939659 59.815341,97.358177 0.80363,131.18991 l 19.139506,40.03678 76.641841,-36.63848 136.437333,285.40507 44.04045,-21.05345 z"
         style="font-style:normal;font-variant:normal;font-weight:normal;font-stretch:condensed;font-size:266.66665649px;font-family:'Nimbus Sans L';-inkscape-font-specification:'Nimbus Sans L Condensed';text-align:start;text-anchor:start;fill:#ffffff;stroke-width:2.37730718"
         id="path4284"
         inkscape:connector-curvature="0" />
      <path
         d="M 454.28038,-12.878993 485.1685,4.6211048 C 465.35449,69.17229 472.2688,89.11945 528.78715,126.96974 L 506.91202,165.57988 433.00117,123.70464 277.06276,398.93983 234.5916,374.87719 Z"
         style="font-style:normal;font-variant:normal;font-weight:normal;font-stretch:condensed;font-size:266.66665649px;font-family:'Nimbus Sans L';-inkscape-font-specification:'Nimbus Sans L Condensed';text-align:start;text-anchor:start;fill:#ffffff;stroke-width:2.37730718"
         id="path4286"
         inkscape:connector-curvature="0" />
      <g
         aria-label="ITS 11 PM TIME TO PARTY"
         transform="matrix(0.74293901,0,0,0.74293901,-394.71416,46.426761)"
         style="font-style:normal;font-weight:normal;font-size:40px;line-height:1.25;font-family:sans-serif;letter-spacing:0px;word-spacing:0px;fill:#ffffff;fill-opacity:1;stroke:none"
         id="flowRoot4280">
        <path
           d="m 767.60639,15.436088 c 0.80912,-3.291496 1.01638,-5.9605162 0.62175,-8.0070582 -0.9046,-4.523394 -4.74171,-5.647529 -8.47104,-4.648253 -3.29903,0.883973 -6.67216,3.786354 -7.9013,7.8053312 -3.13427,10.678837 -9.77907,5.38751 -14.49865,18.182218 -7.67477,21.27327 -16.84069,67.389897 -23.25744,92.784384 -1.30324,6.03738 -2.22492,11.20385 -1.56125,14.25445 0.89428,3.91121 4.37796,5.43752 13.7013,2.93934 3.87278,-1.03771 17.4505,-5.44453 18.61712,-21.74552 5.45111,-24.982011 12.24667,-53.552693 22.60606,-101.526458 z"
           style="font-style:normal;font-variant:normal;font-weight:normal;font-stretch:normal;font-family:Knewave;-inkscape-font-specification:Knewave;text-align:center;text-anchor:middle;fill:#ffffff;fill-opacity:1;stroke-width:3.71240544"
           id="path4328"
           inkscape:connector-curvature="0" />
        <path
           d="m 802.85063,113.14543 c 5.98718,-16.670245 13.54036,-51.593321 19.60369,-76.585639 l 3.70249,-15.44313 c 0.63753,-2.784321 7.08464,-2.820734 11.02124,-6.489028 9.44618,-3.760979 5.1931,-16.7649522 10.58192,-21.8985022 2.44595,-2.34648 3.27567,-4.4136198 2.91947,-6.3167198 -0.93271,-4.05465 -7.21098,-6.83069 -12.66157,-5.37022 -17.21238,4.61204 -44.06235,20.8768198 -53.06241,29.745232 -6.14166,7.487564 -9.04331,12.72336 -7.59035,19.867041 1.01984,4.953702 6.2632,6.162244 12.00065,4.624897 1.29091,-0.345903 2.54341,-0.835242 3.7959,-1.324581 -7.86343,31.470307 -5.41818,20.514895 -13.72001,77.31514 -0.90383,4.08554 -1.10077,7.36674 -0.59083,9.8436 1.13514,5.38401 6.3785,6.59255 12.83311,4.86303 4.01623,-1.07614 7.97343,-3.52007 11.1667,-12.83112 z"
           style="font-style:normal;font-variant:normal;font-weight:normal;font-stretch:normal;font-family:Knewave;-inkscape-font-specification:Knewave;text-align:center;text-anchor:middle;fill:#ffffff;fill-opacity:1;stroke-width:3.71240544"
           id="path4330"
           inkscape:connector-curvature="0" />
        <path
           d="M 866.17899,102.94097 C 904.76339,92.602318 914.56281,56.308689 911.8594,43.35069 908.14643,26.051164 888.78453,24.936047 887.29315,17.648929 884.94594,6.5940318 888.80569,2.6388648 899.56339,-0.24365915 c 2.00811,-0.53807 4.1981,-0.97114005 6.67494,-1.48107005 10.51684,-4.35532 12.80628,-9.5808198 11.7583,-14.0657798 4.94341,-1.63205 9.1744,-7.07031 8.04954,-11.84215 -0.31778,-1.75967 -1.35273,-3.32717 -3.28674,-4.8075 l -1.59838,-0.80159 c -3.52211,-1.66975 -6.65233,-3.59823 -11.29102,-3.12397 -4.02651,0.46397 -7.87115,1.03293 -11.02677,1.87847 -11.76179,3.15156 -20.22931,9.41753 -27.86435,15.92163 -9.23067,8.0078 -18.10993,21.9170848 -18.68974,40.981798 -0.026,2.774022 0.15927,5.184306 0.73577,7.335851 2.38566,11.19833 11.26915,16.812207 20.93637,21.908605 3.92427,2.023187 7.56168,4.123239 8.26377,7.317273 0.66367,3.050595 -2.53512,7.75108 -11.58667,13.558603 -1.28063,0.958079 -3.2119,1.783024 -5.07657,2.282662 -5.73745,1.537344 -13.45762,0.83874 -19.05166,2.337653 -7.02836,1.883248 -10.06039,10.074937 -8.73306,16.176131 1.95258,9.008353 12.76734,13.797283 26.39379,10.146083 0.71717,-0.19215 1.29092,-0.34588 2.00808,-0.53807 z"
           style="font-style:normal;font-variant:normal;font-weight:normal;font-stretch:normal;font-family:Knewave;-inkscape-font-specification:Knewave;text-align:center;text-anchor:middle;fill:#ffffff;fill-opacity:1;stroke-width:3.71240544"
           id="path4332"
           inkscape:connector-curvature="0" />
        <path
           d="m 965.97593,-5.6296518 c -13.3214,0 -23.50836,15.358793 -34.47892,23.1949118 -5.79873,4.231505 -19.27686,6.112173 -19.74702,15.202072 -0.15673,3.604614 3.76133,8.776453 12.53779,10.030232 -11.28401,23.508358 -21.15752,46.389826 -29.46381,68.487686 v -0.15673 l -2.35084,6.73907 c -1.25378,3.44789 -3.91806,7.83612 -3.91806,11.75418 -0.31344,4.54494 4.54495,7.0525 9.71679,7.0525 4.8584,0 10.03023,-2.35083 12.69451,-6.11217 v -0.31345 c 5.17184,-7.67939 9.24663,-15.82896 13.32141,-24.44869 l 2.821,-6.112171 c 5.01512,-9.24662 13.94829,-23.194912 20.21719,-33.852034 l 3.44789,-5.798728 c 4.54495,-7.522675 10.03023,-14.888627 14.88863,-22.411302 l 7.99284,-11.440734 c 0.31344,-0.940334 0.47017,-1.723946 0.47017,-2.507558 0.15672,-2.977725 -1.41051,-5.171838 -1.72395,-7.836119 2.97772,-4.074782 5.32856,-7.6793968 6.26889,-10.8138438 -0.15672,-7.20923 -5.79872,-10.657122 -12.69451,-10.657122 z"
           style="font-style:normal;font-variant:normal;font-weight:normal;font-stretch:normal;font-family:Knewave;-inkscape-font-specification:Knewave;text-align:center;text-anchor:middle;fill:#ffffff;fill-opacity:1;stroke-width:3.91805959"
           id="path4334"
           inkscape:connector-curvature="0" />
        <path
           d="m 1030.2566,-5.6296518 c -13.3214,0 -23.5084,15.358793 -34.47893,23.1949118 -5.79873,4.231505 -19.27685,6.112173 -19.74702,15.202072 -0.15672,3.604614 3.76134,8.776453 12.53779,10.030232 -11.28401,23.508358 -21.15752,46.389826 -29.46381,68.487686 v -0.15673 l -2.35083,6.73907 c -1.25378,3.44789 -3.91806,7.83612 -3.91806,11.75418 -0.31345,4.54494 4.54495,7.0525 9.71679,7.0525 4.85839,0 10.03023,-2.35083 12.69451,-6.11217 v -0.31345 c 5.17184,-7.67939 9.24662,-15.82896 13.3214,-24.44869 l 2.82101,-6.112171 c 5.01511,-9.24662 13.94825,-23.194912 20.21715,-33.852034 l 3.4479,-5.798728 c 4.545,-7.522675 10.0302,-14.888627 14.8886,-22.411302 l 7.9929,-11.440734 c 0.3134,-0.940334 0.4701,-1.723946 0.4701,-2.507558 0.1568,-2.977725 -1.4105,-5.171838 -1.7239,-7.836119 2.9777,-4.074782 5.3286,-7.6793968 6.2689,-10.8138438 -0.1567,-7.20923 -5.7987,-10.657122 -12.6945,-10.657122 z"
           style="font-style:normal;font-variant:normal;font-weight:normal;font-stretch:normal;font-family:Knewave;-inkscape-font-specification:Knewave;text-align:center;text-anchor:middle;fill:#ffffff;fill-opacity:1;stroke-width:3.91805959"
           id="path4336"
           inkscape:connector-curvature="0" />
        <path
           d="m 876.56076,200.27327 c 6.712,-15.8343 10.87636,-42.45428 7.09611,-59.75643 -3.40659,-16.54641 -15.84439,-23.99737 -29.41908,-20.36003 -8.14484,2.1824 -13.62285,7.92945 -21.87846,15.44776 -9.98938,9.35225 -12.44449,13.60461 -22.71503,37.2392 -4.36541,9.8993 -5.2579,11.67899 -10.10464,28.7252 -6.60883,21.96874 -12.06225,48.24944 -16.22967,72.30269 l -0.043,-0.15953 c 0.0541,0.8413 0.0658,1.5229 0.23685,2.16172 1.74607,8.43294 10.32191,10.41425 18.94584,8.10346 10.85979,-2.90984 17.85766,-11.28932 20.94234,-23.41302 l 0.043,0.15955 c 0.33852,-10.87434 1.67787,-21.8457 3.81583,-33.03102 5.47883,3.8382 11.46499,4.45936 17.53372,2.83328 12.13742,-3.2522 25.32923,-15.3454 31.7761,-30.25283 z m -44.99641,9.6604 c 2.12115,-7.41513 4.96674,-14.682 6.72572,-22.17124 l 1.2516,-4.27225 c 2.42911,-8.18228 5.71939,-17.62236 9.98775,-28.5227 0.17112,0.63882 0.18271,1.32041 0.35383,1.95923 4.09125,19.10169 2.02289,43.96187 -17.22085,53.91093 z"
           style="font-style:normal;font-variant:normal;font-weight:normal;font-stretch:normal;font-family:Knewave;-inkscape-font-specification:Knewave;text-align:center;text-anchor:middle;fill:#ffffff;fill-opacity:1;stroke-width:4.13340855"
           id="path4338"
           inkscape:connector-curvature="0" />
        <path
           d="m 915.16157,162.48206 c -5.31376,1.42382 -11.14134,5.35835 -13.84903,12.9657 -4.40586,7.46909 -8.74386,22.27643 -10.54211,31.0639 -2.74474,13.66853 -9.22416,46.61013 -7.85753,53.48171 0.83851,3.57219 4.96635,4.36457 9.28381,3.20771 11.29177,-3.02562 14.13983,-10.55191 17.54397,-34.60117 l 1.08532,0.065 c 1.18652,4.42815 0.54769,1.15841 3.24859,6.36733 0.23724,0.88561 2.20826,0.71347 4.20094,0.17965 1.54986,-0.41529 3.23212,-1.22202 4.08807,-1.57003 l 1.01805,-0.62874 c 3.05415,-1.88621 4.59607,-2.77397 9.7154,-12.45132 l 1.22568,0.14612 c -1.06884,7.52417 -2.3787,17.24865 -2.35699,16.88686 l 0.0542,8.17251 c -0.0229,0.36176 0.0673,0.69387 0.0172,0.94495 0.6902,3.01866 4.28623,3.59758 8.27156,2.52971 4.98168,-1.33482 10.03435,-5.06171 11.12125,-9.86173 5.8751,-25.89788 8.5731,-53.91075 10.3299,-84.99368 -0.038,-0.58318 -0.186,-1.1367 -0.3343,-1.69022 -0.8167,-3.93396 -4.221,-4.68291 -8.0956,-3.64471 -2.989,0.80091 -6.32399,2.52505 -8.51423,4.53574 l 0.1106,-0.0297 c -9.20955,9.46816 -15.82099,24.64735 -21.14369,37.10821 l -1.03395,-0.31623 c 0.73886,-5.65596 1.24838,-11.72507 -0.11031,-18.12418 -0.0673,-0.6939 -0.24526,-1.35812 -0.42325,-2.02233 1.40737,-2.27554 1.92328,-3.00703 1.58902,-4.69725 -0.15615,-1.026 -0.70395,-2.18442 -1.22199,-3.23213 -1.89786,-0.44068 -4.54098,-0.56303 -7.41929,0.20822 z m 7.55967,-0.12716 c -0.1106,0.0297 -0.25099,-0.0514 -0.31039,-0.2728 z"
           style="font-style:normal;font-variant:normal;font-weight:normal;font-stretch:normal;font-family:Knewave;-inkscape-font-specification:Knewave;text-align:center;text-anchor:middle;fill:#ffffff;fill-opacity:1;stroke-width:2.8652246"
           id="path4340"
           inkscape:connector-curvature="0" />
      </g>
      <g
         id="g4421"
         transform="translate(-444.70017,-5.5286845)">
        <path
           id="path4342"
           style="font-style:normal;font-variant:normal;font-weight:normal;font-stretch:normal;font-size:40px;line-height:1.25;font-family:Knewave;-inkscape-font-specification:Knewave;text-align:center;letter-spacing:0px;word-spacing:0px;text-anchor:middle;fill:#ffffff;fill-opacity:1;stroke:none;stroke-width:1.09071767"
           d="m 502.07644,236.4526 c -0.91982,-5.12213 -4.1171,-15.12117 -6.23771,-22.3733 l -1.32158,-4.47475 c -0.24591,-0.80237 1.3902,-1.75691 1.85463,-3.26806 1.85362,-2.34257 -1.13586,-5.02984 -0.51649,-7.12696 0.27869,-0.95605 0.18686,-1.60403 -0.18286,-2.03631 -0.832,-0.89558 -2.83746,-0.68187 -4.01108,0.48913 -3.70614,3.69791 -8.15753,11.77569 -9.14872,15.35322 -0.46586,2.80684 -0.43698,4.56533 0.98034,6.17113 0.986,1.11166 2.49815,0.65062 3.73352,-0.582 0.27796,-0.27735 0.52513,-0.58555 0.77228,-0.89377 2.61209,9.16539 1.62839,6.0176 7.84267,21.69639 0.36891,1.1727 0.79985,2.03701 1.29283,2.59286 1.07847,1.20431 2.5906,0.74328 3.98039,-0.64343 0.86476,-0.86285 1.51395,-2.06528 0.9618,-4.90412 z"
           inkscape:connector-curvature="0" />
        <path
           id="path4344"
           style="font-style:normal;font-variant:normal;font-weight:normal;font-stretch:normal;font-size:40px;line-height:1.25;font-family:Knewave;-inkscape-font-specification:Knewave;text-align:center;letter-spacing:0px;word-spacing:0px;text-anchor:middle;fill:#ffffff;fill-opacity:1;stroke:none;stroke-width:0.65740168"
           d="m 506.7852,202.9763 c -0.16671,-0.57659 -0.37077,-1.00449 -0.61218,-1.28366 -0.53857,-0.61419 -1.22671,-0.44764 -1.71071,0.0353 -0.42814,0.4272 -0.68927,1.17068 -0.52273,1.89602 0.46271,1.91572 -1.02457,1.69093 -0.61815,4.07142 0.70221,3.94275 3.37098,11.82964 4.63042,16.29363 0.33354,1.04163 0.64866,1.91592 1.0201,2.3254 0.48288,0.52116 1.15234,0.44754 2.36231,-0.75973 0.50258,-0.50148 2.19673,-2.37761 0.93523,-4.98219 -1.37116,-4.31537 -2.85314,-9.30024 -5.50291,-17.57758 z"
           inkscape:connector-curvature="0" />
        <path
           id="path4346"
           style="font-style:normal;font-variant:normal;font-weight:normal;font-stretch:normal;font-size:40px;line-height:1.25;font-family:Knewave;-inkscape-font-specification:Knewave;text-align:center;letter-spacing:0px;word-spacing:0px;text-anchor:middle;fill:#ffffff;fill-opacity:1;stroke:none;stroke-width:1.31499779"
           d="m 507.802,170.3679 c -1.78728,1.78332 -3.20386,4.68285 -2.53844,8.32857 -0.0416,3.97969 1.62445,10.86239 2.9219,14.76916 2.03893,6.06488 7.00668,20.65035 9.12402,23.07031 1.15166,1.22864 2.97483,0.5984 4.427,-0.85055 3.79796,-3.78953 3.20693,-7.43516 -0.94726,-17.77967 l 0.44657,-0.22266 c 1.48612,1.48942 0.48312,0.33535 2.75038,1.78837 0.29718,0.2979 1.04167,-0.22202 1.71186,-0.8908 0.52132,-0.52013 1.00556,-1.22632 1.26635,-1.56072 l 0.26084,-0.4833 c 0.78265,-1.44969 1.19259,-2.15591 1.01221,-7.17726 l 0.52093,-0.22264 c 1.29818,3.23731 3.00446,7.4049 2.93022,7.25606 l 1.8932,3.23801 c 0.0735,0.14944 0.18576,0.26051 0.22268,0.3722 0.9659,1.04247 2.52868,0.44913 3.86914,-0.88835 1.67558,-1.67184 2.83154,-4.31133 2.16444,-6.46932 -3.59485,-11.64565 -8.93768,-23.40481 -15.358,-36.16941 -0.14893,-0.22309 -0.33421,-0.40954 -0.5201,-0.59563 -1.2259,-1.37751 -2.75136,-0.89572 -4.0546,0.40464 -1.00534,1.00309 -1.93679,2.45261 -2.34738,3.75395 l 0.0371,-0.0373 c -1.49425,5.87496 -0.64719,13.42621 0.0898,19.60121 l -0.48365,0.11104 c -1.00153,-2.41871 -2.18893,-4.94921 -4.19483,-7.18312 -0.18575,-0.26049 -0.40862,-0.48394 -0.63153,-0.70734 0.0386,-1.22734 0.0762,-1.63644 -0.44385,-2.23213 -0.29704,-0.37231 -0.78026,-0.70758 -1.22634,-1.00552 -0.85575,0.25939 -1.93499,0.81609 -2.90306,1.78211 z m 2.97751,-1.78199 c -0.0371,0.0373 -0.11164,0.0371 -0.18604,-0.0375 z"
           inkscape:connector-curvature="0" />
        <path
           id="path4348"
           style="font-style:normal;font-variant:normal;font-weight:normal;font-stretch:normal;font-size:40px;line-height:1.25;font-family:Knewave;-inkscape-font-specification:Knewave;text-align:center;letter-spacing:0px;word-spacing:0px;text-anchor:middle;fill:#ffffff;fill-opacity:1;stroke:none;stroke-width:1.27240288"
           d="m 542.43426,149.38843 c -0.64835,0.50314 -1.33275,1.0422 -1.90922,1.61739 -2.95438,2.94783 -5.76722,8.0551 -8.14807,13.09093 -0.79417,2.15847 2.01067,4.24892 2.47561,6.87665 2.18143,12.49063 4.69065,21.49066 10.7629,30.38669 0.071,0.1443 0.14367,0.28804 0.25154,0.39611 2.48016,2.77391 7.12847,-2.36734 8.64168,-3.87719 1.90954,-1.9053 3.27919,-3.7752 4.97384,-6.61646 l -0.036,0.036 c 1.33468,-2.76967 1.33909,-6.72844 0.65613,-7.48495 -0.10803,-0.10814 -0.21557,-0.14433 -0.28772,-0.14433 -0.79211,0.28694 -1.3317,0.10651 -1.65515,-0.28976 -0.2516,-0.25224 -0.39516,-0.61232 -0.61086,-0.90039 -0.2515,-0.25229 -0.61142,-0.39651 -1.18745,-0.18128 -1.29742,1.65405 -2.05428,2.62493 -3.02705,3.59554 -0.46838,0.46736 -3.27878,3.34332 -3.85384,2.69488 -0.97051,-1.11668 -1.86429,-6.40812 -2.04211,-8.3157 2.37823,-2.66056 1.33349,-1.69002 2.84749,-3.91964 l -0.0361,0.036 c 1.40667,-2.76958 0.97832,-5.93711 0.22498,-8.13327 -0.0719,-0.21592 -0.1435,-0.43199 -0.21542,-0.50406 -0.28746,-0.28831 -0.61169,-0.10861 -0.97199,0.25087 -0.82866,0.82682 -1.80216,2.44525 -2.99112,3.63157 -0.39633,0.39539 -0.90051,0.75479 -1.6207,1.0418 l -0.50232,-1.36814 c -0.57424,-1.44018 -0.86046,-2.95204 -1.00232,-4.82366 l -0.0355,-0.46787 c -0.17773,-1.97961 0.4355,-3.23853 2.41853,-6.51133 2.52299,-3.38016 2.13258,-8.31109 0.3353,-10.2565 -0.82671,-0.97259 -2.08607,-1.15396 -3.41907,0.10418 z"
           inkscape:connector-curvature="0" />
        <path
           id="path4350"
           style="font-style:normal;font-variant:normal;font-weight:normal;font-stretch:normal;font-size:40px;line-height:1.25;font-family:Knewave;-inkscape-font-specification:Knewave;text-align:center;letter-spacing:0px;word-spacing:0px;text-anchor:middle;fill:#ffffff;fill-opacity:1;stroke:none;stroke-width:2.46248817"
           d="m 514.01379,316.15749 c 6.69796,-9.65295 17.5329,-30.73182 25.70837,-45.70375 l 5.02349,-9.25896 c 0.8865,-1.67449 5.02346,-0.59101 8.17544,-2.2655 6.69798,-0.788 6.20548,-9.84994 10.53945,-12.21395 1.96999,-1.08349 2.85649,-2.26548 2.955,-3.54598 0.0984,-2.75798 -3.44747,-5.61447 -7.19046,-5.61447 -11.81996,0 -31.81534,5.81149 -39.10431,9.94844 -5.22047,3.74299 -7.97849,6.59948 -8.27398,11.42596 -0.19688,3.34899 2.955,5.02349 6.89497,5.02349 0.8865,0 1.77301,-0.0985 2.65948,-0.19689 -10.44095,18.8134 -6.99345,12.21395 -22.06389,47.18127 -1.2805,2.46249 -1.96998,4.53095 -2.06849,6.20545 -0.19688,3.64448 2.955,5.31898 7.38747,5.31898 2.75798,0 5.71298,-0.8865 9.35746,-6.30396 z"
           inkscape:connector-curvature="0" />
        <path
           id="path4352"
           style="font-style:normal;font-variant:normal;font-weight:normal;font-stretch:normal;font-size:40px;line-height:1.25;font-family:Knewave;-inkscape-font-specification:Knewave;text-align:center;letter-spacing:0px;word-spacing:0px;text-anchor:middle;fill:#ffffff;fill-opacity:1;stroke:none;stroke-width:2.46248817"
           d="m 579.29126,245.23784 c -6.59944,4.72797 -14.77491,14.47943 -19.01041,20.88189 v -0.0984 c -6.40246,10.34247 -13.78994,24.52638 -14.38092,36.14935 -0.4925,9.55444 4.53099,20.1924 19.79841,20.1924 13.78994,0 25.11739,-10.63796 33.19435,-20.9804 8.96346,-11.62297 19.10888,-30.73185 19.89691,-45.11281 0.0984,-2.46245 -0.0984,-4.92494 -0.59101,-7.09195 l -0.394,-2.26547 c -0.29566,-1.18199 -0.68952,-2.36402 -0.68952,-2.955 -2.16697,-3.64448 -5.81145,-6.00847 -9.84993,-6.00847 -2.46249,0 -5.12197,0.98498 -7.68297,3.25049 -1.773,-0.68949 -3.74299,-0.98501 -5.51596,-0.98501 -4.82647,0 -10.14545,1.773 -14.77495,5.02349 z m -6.89497,62.44869 c -0.78799,0.8865 -2.06849,1.6745 -2.95496,2.26551 l -1.773,1.2805 c -2.85649,-1.2805 -3.44747,-6.0085 -3.64449,-7.38747 l 0.29566,-1.87151 c 4.62949,-15.3659 20.88192,-32.70181 30.83036,-42.94578 -1.57599,16.05542 -11.62294,37.62683 -22.7534,48.65875 z"
           inkscape:connector-curvature="0" />
        <path
           id="path4354"
           style="font-style:normal;font-variant:normal;font-weight:normal;font-stretch:normal;font-size:40px;line-height:1.25;font-family:Knewave;-inkscape-font-specification:Knewave;text-align:center;letter-spacing:0px;word-spacing:0px;text-anchor:middle;fill:#ffffff;fill-opacity:1;stroke:none;stroke-width:2.10607767"
           d="m 839.20943,258.32871 c -2.85624,-8.28438 -10.35402,-19.78461 -17.68387,-25.04799 -6.9307,-5.10456 -14.18076,-3.6861 -18.08134,2.31895 -2.34036,3.60303 -2.45562,7.64682 -3.0189,13.30822 -0.59465,6.94695 -0.0747,9.39424 4.09302,21.84552 1.7216,5.23693 1.99031,6.21511 5.96595,14.32251 4.98652,10.5722 11.88053,22.3834 18.50215,32.91272 l -0.0707,-0.0458 c 0.30745,0.30006 0.54414,0.5542 0.82672,0.73776 3.53595,2.59833 7.45899,0.42499 9.93701,-3.39 3.12046,-4.804 2.91388,-10.36277 -0.051,-16.00542 l 0.0707,0.0458 c -3.57891,-4.23335 -6.81184,-8.84464 -9.81531,-13.80923 3.38322,-0.41429 5.86183,-2.21974 7.60562,-4.90435 3.48757,-5.36921 4.3606,-14.44581 1.71997,-22.28878 z m -13.74629,18.99759 c -1.72457,-3.53114 -3.12426,-7.25305 -5.01126,-10.68874 l -0.98243,-2.04451 c -1.86951,-3.92662 -3.84168,-8.6231 -5.94123,-14.20601 0.28253,0.18365 0.5193,0.43772 0.80192,0.62128 8.06108,5.83885 15.75268,15.95813 11.85699,26.28592 z"
           inkscape:connector-curvature="0" />
        <path
           id="path4356"
           style="font-style:normal;font-variant:normal;font-weight:normal;font-stretch:normal;font-size:40px;line-height:1.25;font-family:Knewave;-inkscape-font-specification:Knewave;text-align:center;letter-spacing:0px;word-spacing:0px;text-anchor:middle;fill:#ffffff;fill-opacity:1;stroke:none;stroke-width:1.63009679"
           d="m 827.93973,228.21214 -0.0418,-0.082 c 5.7232,15.29829 15.89107,29.36733 26.37526,41.61946 0.99833,1.14723 6.13269,6.65554 9.29679,7.88963 2.56413,0.97046 4.28341,-0.73317 4.80747,-2.34541 1.22947,-3.78264 -0.98886,-8.13743 -4.3218,-12.64885 -0.48524,-1.46034 0.68376,-2.31452 0.12719,-5.0322 -0.17205,-0.94722 -1.2463,-3.97027 -1.02143,-6.98248 l 2.63234,1.81543 c 2.19514,1.26201 4.12828,3.33014 5.22431,3.75495 1.7782,0.64648 3.53278,-1.80043 4.21842,-3.90815 0.56433,-1.73628 0.52721,-3.94232 -0.22772,-5.62751 -0.74724,-0.65423 -1.41073,-1.14413 -2.1781,-1.73637 l -1.16267,-1.06349 c -10.91369,-9.03226 -21.92048,-16.72348 -32.87448,-25.63168 -1.44484,-0.19539 -2.88508,0.22782 -3.88811,1.20445 -0.73023,-1.12859 -1.41537,-1.7627 -1.97348,-1.94408 -2.00604,-0.7891 -4.11293,1.47417 -4.97958,4.14062 -0.40311,1.2402 -0.30703,3.05405 -0.12885,4.82601 z m 21.54993,16.8087 c -1.06033,-1.16738 -2.43231,-2.6417 -3.51281,-3.74711 l -2.77645,-4.53619 0.40928,-0.41549 4.56236,3.4712 c 3.17337,2.47121 6.67691,4.9812 9.91076,7.26644 l -1.70868,5.88941 z"
           inkscape:connector-curvature="0" />
        <path
           id="path4358"
           style="font-style:normal;font-variant:normal;font-weight:normal;font-stretch:normal;font-size:40px;line-height:1.25;font-family:Knewave;-inkscape-font-specification:Knewave;text-align:center;letter-spacing:0px;word-spacing:0px;text-anchor:middle;fill:#ffffff;fill-opacity:1;stroke:none;stroke-width:1.91785252"
           d="m 874.43062,243.34145 -2.75756,-4.627 c -1.56387,-2.6624 -3.19861,-5.91968 -5.15834,-9.66253 5.76301,-0.28162 14.45797,6.1895 17.63385,1.30014 0.41789,-0.64332 0.74896,-1.43454 1.01555,-2.26763 1.79416,-1.213 3.03576,-0.58933 3.8297,-1.81181 1.21184,-1.86568 1.14307,-5.84389 -1.08936,-7.47692 -3.67027,-2.65858 -11.92254,-2.34714 -16.9301,-2.94696 l 0.0644,0.0417 -1.93934,-0.25346 c 4.3277,-13.56335 -3.08132,-31.73149 -11.88239,-38.18007 -4.69959,-3.32719 -9.86773,-3.11643 -13.62868,2.6735 -0.83577,1.28668 -4.70164,10.75909 -5.41089,15.51259 -1.04784,12.03467 21.45508,54.0031 27.44802,58.71912 0.21557,0.23144 0.43113,0.4629 0.64657,0.69456 2.14557,1.48508 5.37701,-0.53234 7.38283,-3.62038 1.62974,-2.50901 2.44239,-5.73172 0.77573,-8.09497 z m -24.54619,-45.5826 -0.10025,-1.25421 -0.0417,0.0644 c -0.3575,-1.42136 -0.69759,-3.29003 0.17863,-4.64076 0.79399,-1.22235 2.13837,-0.89795 2.71739,-0.5218 1.18058,0.8583 1.50278,2.89718 2.49035,3.6301 3.40755,5.59802 2.90667,8.19997 2.24582,13.44228 l -0.008,2.83012 -0.57239,0.17707 c 0,0 -0.62741,-0.86488 -3.84852,-6.8907 -0.72091,-1.56597 -1.152,-2.02895 -3.03478,-6.45359 z"
           inkscape:connector-curvature="0" />
        <path
           id="path4360"
           style="font-style:normal;font-variant:normal;font-weight:normal;font-stretch:normal;font-size:40px;line-height:1.25;font-family:Knewave;-inkscape-font-specification:Knewave;text-align:center;letter-spacing:0px;word-spacing:0px;text-anchor:middle;fill:#ffffff;fill-opacity:1;stroke:none;stroke-width:1.96895468"
           d="m 917.08389,255.86153 c -3.55537,-8.69557 -12.97047,-25.14176 -19.44893,-37.14474 l -4.02052,-7.40117 c -0.73668,-1.32376 1.79169,-3.62583 2.04174,-6.46871 2.38889,-4.83444 -3.90201,-8.45118 -3.59949,-12.38691 0.13153,-1.79285 -0.27498,-2.90209 -1.09068,-3.52587 -1.80647,-1.26723 -5.26627,-0.13371 -6.89653,2.37614 -5.14818,7.92572 -9.96035,23.8646 -10.36104,30.55401 0.23602,5.1308 0.95017,8.22427 4.05782,10.52459 2.15985,1.59066 4.65549,0.20655 6.37153,-2.43537 0.38611,-0.59443 0.70622,-1.23174 1.02633,-1.86907 8.06757,15.19525 5.14393,10.0092 22.02699,35.34453 1.09349,1.93114 2.18017,3.29442 3.26008,4.08979 2.35802,1.71933 4.85364,0.33524 6.7842,-2.63691 1.20126,-1.84933 1.89386,-4.21687 -0.15145,-9.02024 z"
           inkscape:connector-curvature="0" />
        <path
           id="path4362"
           style="font-style:normal;font-variant:normal;font-weight:normal;font-stretch:normal;font-size:40px;line-height:1.25;font-family:Knewave;-inkscape-font-specification:Knewave;text-align:center;letter-spacing:0px;word-spacing:0px;text-anchor:middle;fill:#ffffff;fill-opacity:1;stroke:none;stroke-width:2.26799107"
           d="m 873.66775,162.02286 c -2.38119,-1.33044 -4.11147,-0.83162 -5.09982,0.68998 -2.37205,3.65181 -1.36143,12.42156 2.60637,15.97246 5.63053,5.82089 11.57251,10.32955 16.60157,14.24523 0.73805,0.69565 1.55209,1.44091 2.23681,1.8857 1.80317,1.38746 3.67066,1.84333 4.60955,0.39782 0.0991,-0.15209 0.19777,-0.30423 0.22048,-0.50582 l 4.62861,12.52615 c 2.4437,6.56351 4.81525,13.40461 8.02688,18.95243 0.33488,0.65026 0.76858,1.14832 1.25173,1.57037 2.68945,1.85501 7.2905,-0.56523 10.40378,-5.35819 2.32259,-3.57573 3.82327,-8.5507 3.00389,-13.95092 l -0.0493,0.0761 c -0.23999,-1.12945 -0.75369,-2.00406 -1.3623,-2.39939 -1.32005,-0.96551 -3.25971,-1.14369 -3.40796,-0.91548 0,0 0,0 0,0 l -0.85178,0.31213 c -8.36038,-15.27472 -11.78345,-27.99143 -17.96487,-44.12247 -2.55037,-7.06547 -5.58659,-23.20899 -11.55133,-27.51606 -2.25965,-1.684 -4.30525,-0.2002 -5.6395,1.85391 -0.84012,1.29333 -1.52413,3.01261 -1.75948,4.37421 l -0.0266,-0.12548 c 0.021,5.96335 2.51472,14.61478 4.68465,21.43316 l 1.85782,5.96659 0.24001,1.12945 c -3.54514,-1.87005 -7.9766,-4.20759 -10.76095,-5.58346 z"
           inkscape:connector-curvature="0" />
      </g>
    </g>
  </g>
</svg>
