<?xml version="1.0" encoding="UTF-8" standalone="no"?>
<!-- Created with Inkscape (http://www.inkscape.org/) -->

<svg
   xmlns:dc="http://purl.org/dc/elements/1.1/"
   xmlns:cc="http://creativecommons.org/ns#"
   xmlns:rdf="http://www.w3.org/1999/02/22-rdf-syntax-ns#"
   xmlns:svg="http://www.w3.org/2000/svg"
   xmlns="http://www.w3.org/2000/svg"
   xmlns:sodipodi="http://sodipodi.sourceforge.net/DTD/sodipodi-0.dtd"
   xmlns:inkscape="http://www.inkscape.org/namespaces/inkscape"
   width="1920"
   height="1080"
   viewBox="0 0 507.99999 285.75001"
   version="1.1"
   id="svg8"
   inkscape:version="0.92+devel unknown"
   sodipodi:docname="12 midnight.svg">
  <defs
     id="defs2" />
  <sodipodi:namedview
     id="base"
     pagecolor="#ffffff"
     bordercolor="#666666"
     borderopacity="1.0"
     inkscape:pageopacity="0.0"
     inkscape:pageshadow="2"
     inkscape:zoom="0.70000002"
     inkscape:cx="568.94223"
     inkscape:cy="413.04244"
     inkscape:document-units="mm"
     inkscape:current-layer="g4292"
     inkscape:document-rotation="0"
     showgrid="false"
     units="px"
     inkscape:window-width="1920"
     inkscape:window-height="1016"
     inkscape:window-x="0"
     inkscape:window-y="0"
     inkscape:window-maximized="1">
    <inkscape:grid
       type="xygrid"
       id="grid4306" />
  </sodipodi:namedview>
  <metadata
     id="metadata5">
    <rdf:RDF>
      <cc:Work
         rdf:about="">
        <dc:format>image/svg+xml</dc:format>
        <dc:type
           rdf:resource="http://purl.org/dc/dcmitype/StillImage" />
        <dc:title />
        <cc:license
           rdf:resource="http://creativecommons.org/licenses/by/4.0/" />
      </cc:Work>
      <cc:License
         rdf:about="http://creativecommons.org/licenses/by/4.0/">
        <cc:permits
           rdf:resource="http://creativecommons.org/ns#Reproduction" />
        <cc:permits
           rdf:resource="http://creativecommons.org/ns#Distribution" />
        <cc:requires
           rdf:resource="http://creativecommons.org/ns#Notice" />
        <cc:requires
           rdf:resource="http://creativecommons.org/ns#Attribution" />
        <cc:permits
           rdf:resource="http://creativecommons.org/ns#DerivativeWorks" />
      </cc:License>
    </rdf:RDF>
  </metadata>
  <g
     inkscape:label="Layer 1"
     inkscape:groupmode="layer"
     id="layer1"
     transform="translate(0,-11.249983)">
    <rect
       style="fill:#ffffff;fill-opacity:1;stroke:none;stroke-width:3.65399981;stroke-linecap:round;stroke-linejoin:round;stroke-miterlimit:4;stroke-dasharray:none;stroke-dashoffset:0;stroke-opacity:1;paint-order:stroke fill markers"
       id="rect4286"
       width="516.21436"
       height="312.42136"
       x="1201.625"
       y="-231.88341"
       ry="0.55484182" />
    <g
       id="g4278"
       transform="matrix(1.3114381,0,0,1.3114381,200.00434,109.67752)">
      <g
         id="g4292"
         transform="translate(-4.2168064,-0.49670792)">
        <g
           style="font-style:normal;font-weight:normal;font-size:40px;line-height:1.25;font-family:sans-serif;letter-spacing:0px;word-spacing:0px;fill:#000000;fill-opacity:1;stroke:none"
           id="flowRoot4385" />
        <rect
           style="fill:#000000;fill-opacity:1;stroke:none;stroke-width:13.34641647;stroke-linecap:round;stroke-linejoin:bevel;paint-order:stroke fill markers"
           id="rect4691"
           width="517.64099"
           height="284.80374"
           x="-304.21017"
           y="-108.01301"
           transform="scale(-1,1)" />
        <g
           id="g4689"
           transform="matrix(2.1139927,-0.93004933,0.93004933,2.1139927,-244.20484,99.449032)">
          <g
             id="flowRoot4646"
             style="font-style:normal;font-weight:normal;font-size:40px;line-height:1.25;font-family:sans-serif;letter-spacing:0px;word-spacing:0px;fill:#ff6600;fill-opacity:1;stroke:none"
             transform="matrix(0.51983947,0,0,0.51983947,-437.10295,-203.2356)"
             aria-label="7:00PM" />
          <g
             id="flowRoot4632"
             style="font-style:normal;font-weight:normal;font-size:40px;line-height:1.25;font-family:sans-serif;letter-spacing:0px;word-spacing:0px;fill:#ffffff;fill-opacity:1;stroke:none"
             transform="matrix(0.51983947,0,0,0.51983947,-437.12165,-204.90705)"
             aria-label="7:00PM" />
        </g>
        <g
           aria-label="MIDNIGHT"
           transform="matrix(0,-0.33672478,0.33672478,0,-80.733965,209.83813)"
           style="font-style:normal;font-weight:normal;font-size:40px;line-height:1.25;font-family:sans-serif;letter-spacing:0px;word-spacing:0px;fill:#ffffff;fill-opacity:1;stroke:none"
           id="flowRoot4310">
          <path
             d="m 310.88,445.12 13.248,-88.704 0.768,-5.952 h 1.152 v 5.952 88.704 h 19.2 V 304 h -25.344 l -12.288,64.512 -0.96,7.488 h -0.384 l -0.96,-7.488 L 293.024,304 H 267.68 v 141.12 h 19.2 v -88.704 -5.952 h 1.152 l 0.768,5.952 13.248,88.704 z"
             style="font-style:normal;font-variant:normal;font-weight:normal;font-stretch:normal;font-size:192px;font-family:'League Gothic';-inkscape-font-specification:'League Gothic';fill:#ffffff"
             id="path4277" />
          <path
             d="m 360.68,445.12 h 20.736 V 304 H 360.68 Z"
             style="font-style:normal;font-variant:normal;font-weight:normal;font-stretch:normal;font-size:192px;font-family:'League Gothic';-inkscape-font-specification:'League Gothic';fill:#ffffff"
             id="path4279" />
          <path
             d="M 454.28,374.656 C 454.28,319.36 451.4,304.192 413,304 H 396.68 V 445.12 H 413 c 38.4,-0.192 41.28,-15.36 41.28,-70.464 z m -36.864,-49.92 c 14.592,0 15.552,3.648 15.36,49.728 0.192,46.272 -0.768,49.92 -15.36,49.92 z"
             style="font-style:normal;font-variant:normal;font-weight:normal;font-stretch:normal;font-size:192px;font-family:'League Gothic';-inkscape-font-specification:'League Gothic';fill:#ffffff"
             id="path4281" />
          <path
             d="m 509.978,445.12 c 0,0 18.432,0 18.432,0 0,0 0,-141.12 0,-141.12 h -19.008 v 73.536 6.528 h -1.152 l -1.728,-6.528 c 0,0 -20.16,-73.536 -20.16,-73.536 0,0 -18.432,0 -18.432,0 0,0 0,141.12 0,141.12 h 19.008 v -73.536 -6.528 h 1.152 l 1.728,6.528 z"
             style="font-style:normal;font-variant:normal;font-weight:normal;font-stretch:normal;font-size:192px;font-family:'League Gothic';-inkscape-font-specification:'League Gothic';fill:#ffffff"
             id="path4283" />
          <path
             d="m 543.68,445.12 h 20.736 V 304 H 543.68 Z"
             style="font-style:normal;font-variant:normal;font-weight:normal;font-stretch:normal;font-size:192px;font-family:'League Gothic';-inkscape-font-specification:'League Gothic';fill:#ffffff"
             id="path4285" />
          <path
             d="m 633.632,354.688 v -21.696 c 0,0 0.192,-30.528 -27.648,-30.528 -27.84,0 -27.648,30.528 -27.648,30.528 v 83.136 c 0,0 -1.92,30.528 24.384,30.528 6.528,0 12.288,-3.456 16.128,-8.256 l 2.496,6.72 h 12.288 V 374.848 H 604.64 v 17.472 h 8.256 v 25.536 c 0,0 0.384,10.368 -6.912,10.368 -7.296,0 -6.912,-10.368 -6.912,-10.368 v -84.864 c 0,0 -0.384,-10.368 6.912,-10.368 7.296,0 6.912,10.368 6.912,10.368 v 21.696 z"
             style="font-style:normal;font-variant:normal;font-weight:normal;font-stretch:normal;font-size:192px;font-family:'League Gothic';-inkscape-font-specification:'League Gothic';fill:#ffffff"
             id="path4287" />
          <path
             d="M 685.544,445.12 H 706.28 V 304 h -20.736 v 58.368 H 669.416 V 304 H 648.68 c 0,0.96 0,141.12 0,141.12 h 20.736 v -61.44 h 16.128 z"
             style="font-style:normal;font-variant:normal;font-weight:normal;font-stretch:normal;font-size:192px;font-family:'League Gothic';-inkscape-font-specification:'League Gothic';fill:#ffffff"
             id="path4289" />
          <path
             d="M 734.093,325.312 V 445.12 h 20.736 V 325.312 h 19.584 V 304 h -59.904 v 21.312 z"
             style="font-style:normal;font-variant:normal;font-weight:normal;font-stretch:normal;font-size:192px;font-family:'League Gothic';-inkscape-font-specification:'League Gothic';fill:#ffffff"
             id="path4291" />
        </g>
      </g>
    </g>
  </g>
</svg>
