<?xml version="1.0" encoding="UTF-8" standalone="no"?>
<!-- Created with Inkscape (http://www.inkscape.org/) -->

<svg
   xmlns:dc="http://purl.org/dc/elements/1.1/"
   xmlns:cc="http://creativecommons.org/ns#"
   xmlns:rdf="http://www.w3.org/1999/02/22-rdf-syntax-ns#"
   xmlns:svg="http://www.w3.org/2000/svg"
   xmlns="http://www.w3.org/2000/svg"
   xmlns:sodipodi="http://sodipodi.sourceforge.net/DTD/sodipodi-0.dtd"
   xmlns:inkscape="http://www.inkscape.org/namespaces/inkscape"
   width="1920"
   height="1080"
   viewBox="0 0 507.99999 285.75001"
   version="1.1"
   id="svg8"
   inkscape:version="0.92+devel unknown"
   sodipodi:docname="9am.svg">
  <defs
     id="defs2" />
  <sodipodi:namedview
     id="base"
     pagecolor="#ffffff"
     bordercolor="#666666"
     borderopacity="1.0"
     inkscape:pageopacity="0.0"
     inkscape:pageshadow="2"
     inkscape:zoom="0.49497475"
     inkscape:cx="1069.2611"
     inkscape:cy="626.69515"
     inkscape:document-units="mm"
     inkscape:current-layer="flowRoot4288"
     inkscape:document-rotation="0"
     showgrid="false"
     units="px"
     inkscape:window-width="1920"
     inkscape:window-height="1016"
     inkscape:window-x="0"
     inkscape:window-y="0"
     inkscape:window-maximized="1" />
  <metadata
     id="metadata5">
    <rdf:RDF>
      <cc:Work
         rdf:about="">
        <dc:format>image/svg+xml</dc:format>
        <dc:type
           rdf:resource="http://purl.org/dc/dcmitype/StillImage" />
        <dc:title></dc:title>
        <cc:license
           rdf:resource="http://creativecommons.org/licenses/by/4.0/" />
      </cc:Work>
      <cc:License
         rdf:about="http://creativecommons.org/licenses/by/4.0/">
        <cc:permits
           rdf:resource="http://creativecommons.org/ns#Reproduction" />
        <cc:permits
           rdf:resource="http://creativecommons.org/ns#Distribution" />
        <cc:requires
           rdf:resource="http://creativecommons.org/ns#Notice" />
        <cc:requires
           rdf:resource="http://creativecommons.org/ns#Attribution" />
        <cc:permits
           rdf:resource="http://creativecommons.org/ns#DerivativeWorks" />
      </cc:License>
    </rdf:RDF>
  </metadata>
  <g
     inkscape:label="Layer 1"
     inkscape:groupmode="layer"
     id="layer1"
     transform="translate(0,-11.249983)">
    <rect
       style="fill:#ff6600;fill-opacity:1;stroke:none;stroke-width:3.65399981;stroke-linecap:round;stroke-linejoin:round;stroke-miterlimit:4;stroke-dasharray:none;stroke-dashoffset:0;stroke-opacity:1;paint-order:stroke fill markers"
       id="rect4286"
       width="516.21436"
       height="312.42136"
       x="-4.1071777"
       y="-2.085695"
       ry="0.55484182" />
    <g
       aria-label="9:00AM"
       transform="matrix(0.67614555,0,0,0.67614555,-60.120425,46.873793)"
       style="font-style:normal;font-weight:normal;font-size:40px;line-height:1.25;font-family:sans-serif;letter-spacing:0px;word-spacing:0px;fill:#ffffff;fill-opacity:1;stroke:none"
       id="flowRoot4288">
      <path
         d="m 175.44566,164.76545 c 0,8.448 0,10.368 -0.384,14.976 -2.112,27.456 -10.56,40.896 -25.92,40.896 -4.224,0 -6.528,-1.536 -6.528,-3.84 0,-1.152 0.384,-2.304 1.152,-3.456 3.456,-5.568 3.84,-6.72 3.84,-10.944 0,-9.216 -6.528,-15.552 -16.128,-15.552 -10.56,0 -18.24,8.064 -18.24,19.2 0,14.976 14.016,24.576 35.712,24.576 19.776,0 35.712,-8.064 45.696,-23.232 9.6,-14.208 14.592,-32.64 14.592,-53.568 0,-17.472 -3.84,-30.72 -11.904,-41.664 -9.792,-13.055997 -23.808,-20.159997 -39.936,-20.159997 -27.84,0 -48,19.391997 -48,46.079997 0,22.656 16.128,39.36 38.016,39.36 11.904,0 19.968,-3.648 28.032,-12.672 z m -16.512,-62.784 c 4.992,0 9.216,3.072 11.52,8.64 2.496,5.568 4.224,15.936 4.224,24.768 0,16.896 -6.144,27.648 -15.936,27.648 -5.376,0 -10.56,-3.456 -12.864,-8.256 -2.112,-4.608 -3.264,-11.52 -3.264,-21.12 0,-20.928 5.568,-31.68 16.32,-31.68 z"
         style="font-style:normal;font-variant:normal;font-weight:bold;font-stretch:normal;font-size:192px;font-family:'Century Schoolbook L';-inkscape-font-specification:'Century Schoolbook L Bold';fill:#ffffff"
         id="path4296" />
      <path
         d="m 243.64766,194.90945 c -9.792,0 -17.856,8.064 -17.856,17.856 0,9.792 8.064,18.048 17.664,18.048 10.176,0 18.24,-8.064 18.24,-18.048 0,-9.792 -8.064,-17.856 -18.048,-17.856 z m 0,-59.328 c -9.792,0 -17.856,8.064 -17.856,17.856 0,9.792 8.064,18.048 17.664,18.048 10.176,0 18.24,-8.064 18.24,-18.048 0,-9.792 -8.064,-17.856 -18.048,-17.856 z"
         style="font-style:normal;font-variant:normal;font-weight:bold;font-stretch:normal;font-size:192px;font-family:'Century Schoolbook L';-inkscape-font-specification:'Century Schoolbook L Bold';fill:#ffffff"
         id="path4298" />
      <path
         d="m 323.20166,91.997453 c -28.8,0 -49.92,29.375997 -49.92,69.311997 0,39.936 21.12,69.312 49.92,69.312 28.224,0 49.728,-29.376 49.728,-68.352 0,-22.656 -5.184,-39.36 -16.512,-53.568 -9.024,-10.943997 -20.352,-16.703997 -33.216,-16.703997 z m -0.192,9.983997 c 5.76,0 10.368,3.456 12.48,9.6 2.496,6.336 4.032,27.072 4.032,50.112 0,19.584 -1.536,40.704 -3.264,47.232 -2.112,7.68 -6.72,11.712 -13.248,11.712 -5.952,0 -10.368,-3.456 -12.672,-9.6 -2.304,-6.336 -4.032,-27.072 -4.032,-49.728 0,-19.584 1.536,-41.088 3.264,-47.616 2.112,-7.68 6.72,-11.712 13.44,-11.712 z"
         style="font-style:normal;font-variant:normal;font-weight:bold;font-stretch:normal;font-size:192px;font-family:'Century Schoolbook L';-inkscape-font-specification:'Century Schoolbook L Bold';fill:#ffffff"
         id="path4300" />
      <path
         d="m 433.45166,91.997453 c -28.8,0 -49.92,29.375997 -49.92,69.311997 0,39.936 21.12,69.312 49.92,69.312 28.224,0 49.728,-29.376 49.728,-68.352 0,-22.656 -5.184,-39.36 -16.512,-53.568 -9.024,-10.943997 -20.352,-16.703997 -33.216,-16.703997 z m -0.192,9.983997 c 5.76,0 10.368,3.456 12.48,9.6 2.496,6.336 4.032,27.072 4.032,50.112 0,19.584 -1.536,40.704 -3.264,47.232 -2.112,7.68 -6.72,11.712 -13.248,11.712 -5.952,0 -10.368,-3.456 -12.672,-9.6 -2.304,-6.336 -4.032,-27.072 -4.032,-49.728 0,-19.584 1.536,-41.088 3.264,-47.616 2.112,-7.68 6.72,-11.712 13.44,-11.712 z"
         style="font-style:normal;font-variant:normal;font-weight:bold;font-stretch:normal;font-size:192px;font-family:'Century Schoolbook L';-inkscape-font-specification:'Century Schoolbook L Bold';fill:#ffffff"
         id="path4302" />
      <path
         d="m 555.98966,86.429453 -43.584,101.759997 c -8.832,20.736 -15.936,28.224 -27.264,29.376 v 10.368 h 55.488 v -10.368 c -13.824,-0.768 -19.2,-4.416 -19.2,-13.248 0,-3.264 0.576,-5.376 3.072,-10.944 l 3.072,-7.296 h 47.808 l 7.296,18.816 c 1.536,3.456 2.304,6.336 2.304,7.872 0,3.456 -2.496,4.608 -11.136,4.608 l -3.264,0.192 v 10.368 h 67.392 v -10.368 c -10.944,-0.384 -14.016,-2.304 -18.048,-12.096 l -49.344,-119.039997 z m -4.032,40.895997 18.624,45.888 h -38.016 z"
         style="font-style:normal;font-variant:normal;font-weight:bold;font-stretch:normal;font-size:192px;font-family:'Century Schoolbook L';-inkscape-font-specification:'Century Schoolbook L Bold';fill:#ffffff"
         id="path4304" />
      <path
         d="m 699.36866,89.309453 h -61.824 v 10.368 h 2.112 c 10.176,0 14.208,0.767997 15.936,2.879997 1.344,1.536 1.344,2.304 1.344,14.4 v 69.312 c 0,16.896 -0.96,21.888 -4.992,26.112 -3.072,3.264 -8.256,4.992 -15.744,5.184 v 10.368 h 54.72 v -10.368 c -7.68,-0.192 -13.056,-1.92 -16.128,-5.184 -4.032,-4.224 -4.992,-9.024 -4.992,-26.112 v -79.872 l 43.584,121.536 h 9.984 l 42.432,-123.456 v 95.808 c 0,12.096 0,12.864 -1.344,14.4 -1.728,2.112 -5.76,2.88 -15.936,2.88 h -2.112 v 10.368 h 73.344 v -10.368 h -2.112 c -10.176,0 -14.208,-0.768 -15.936,-2.88 -1.344,-1.536 -1.344,-2.496 -1.344,-14.4 v -83.328 c 0,-11.904 0,-12.864 1.344,-14.4 1.728,-2.112 5.76,-2.879997 15.936,-2.879997 h 2.112 v -10.368 h -62.592 l -28.032,82.559997 z"
         style="font-style:normal;font-variant:normal;font-weight:bold;font-stretch:normal;font-size:192px;font-family:'Century Schoolbook L';-inkscape-font-specification:'Century Schoolbook L Bold';fill:#ffffff"
         id="path4306" />
    </g>
  </g>
</svg>
