<?xml version="1.0" encoding="UTF-8" standalone="no"?>
<!-- Created with Inkscape (http://www.inkscape.org/) -->

<svg
   xmlns:dc="http://purl.org/dc/elements/1.1/"
   xmlns:cc="http://creativecommons.org/ns#"
   xmlns:rdf="http://www.w3.org/1999/02/22-rdf-syntax-ns#"
   xmlns:svg="http://www.w3.org/2000/svg"
   xmlns="http://www.w3.org/2000/svg"
   xmlns:xlink="http://www.w3.org/1999/xlink"
   xmlns:sodipodi="http://sodipodi.sourceforge.net/DTD/sodipodi-0.dtd"
   xmlns:inkscape="http://www.inkscape.org/namespaces/inkscape"
   width="445.44769"
   height="1673.2839"
   viewBox="0 0 117.85804 442.72306"
   version="1.1"
   id="svg8"
   inkscape:version="0.92+devel unknown"
   sodipodi:docname="geraldo gonzo template.svg"
   inkscape:export-filename="/home/mbrickn/Projects/Operation-Ohio/game/images/characters/geraldo gonzo/geraldo gonzo.png"
   inkscape:export-xdpi="90"
   inkscape:export-ydpi="90">
  <title
     id="title57">Geraldo Gonzo</title>
  <defs
     id="defs2">
    <linearGradient
       inkscape:collect="always"
       id="linearGradient4480">
      <stop
         style="stop-color:#004a5d;stop-opacity:1"
         offset="0"
         id="stop4476" />
      <stop
         style="stop-color:#0088aa;stop-opacity:1"
         offset="1"
         id="stop4478" />
    </linearGradient>
    <linearGradient
       inkscape:collect="always"
       id="linearGradient4458">
      <stop
         style="stop-color:#747474;stop-opacity:1"
         offset="0"
         id="stop4454" />
      <stop
         style="stop-color:#c7c7c7;stop-opacity:1"
         offset="1"
         id="stop4456" />
    </linearGradient>
    <linearGradient
       inkscape:collect="always"
       id="linearGradient4446">
      <stop
         style="stop-color:#f9f9f9;stop-opacity:1;"
         offset="0"
         id="stop4442" />
      <stop
         style="stop-color:#dedede;stop-opacity:1"
         offset="1"
         id="stop4444" />
    </linearGradient>
    <linearGradient
       inkscape:collect="always"
       id="linearGradient4438">
      <stop
         style="stop-color:#f9f9f9;stop-opacity:1;"
         offset="0"
         id="stop4434" />
      <stop
         style="stop-color:#e5e5e5;stop-opacity:1"
         offset="1"
         id="stop4436" />
    </linearGradient>
    <linearGradient
       inkscape:collect="always"
       id="linearGradient4430">
      <stop
         style="stop-color:#0088aa;stop-opacity:1;"
         offset="0"
         id="stop4426" />
      <stop
         style="stop-color:#00495c;stop-opacity:1"
         offset="1"
         id="stop4428" />
    </linearGradient>
    <linearGradient
       inkscape:collect="always"
       id="linearGradient4422">
      <stop
         style="stop-color:#b69b89;stop-opacity:1;"
         offset="0"
         id="stop4418" />
      <stop
         style="stop-color:#e9c6af;stop-opacity:1"
         offset="1"
         id="stop4420" />
    </linearGradient>
    <linearGradient
       inkscape:collect="always"
       id="linearGradient4403">
      <stop
         style="stop-color:#ff5248;stop-opacity:1;"
         offset="0"
         id="stop4399" />
      <stop
         style="stop-color:#ff5200;stop-opacity:1"
         offset="1"
         id="stop4401" />
    </linearGradient>
    <linearGradient
       inkscape:collect="always"
       id="linearGradient4395">
      <stop
         style="stop-color:#ff5248;stop-opacity:1"
         offset="0"
         id="stop4391" />
      <stop
         style="stop-color:#e9c6af;stop-opacity:1"
         offset="1"
         id="stop4393" />
    </linearGradient>
    <linearGradient
       inkscape:collect="always"
       id="linearGradient4387">
      <stop
         style="stop-color:#ffffff;stop-opacity:1;"
         offset="0"
         id="stop4383" />
      <stop
         style="stop-color:#e6e6e6;stop-opacity:1"
         offset="1"
         id="stop4385" />
    </linearGradient>
    <linearGradient
       inkscape:collect="always"
       id="linearGradient4379">
      <stop
         style="stop-color:#ffffff;stop-opacity:1;"
         offset="0"
         id="stop4375" />
      <stop
         style="stop-color:#ededed;stop-opacity:1"
         offset="1"
         id="stop4377" />
    </linearGradient>
    <linearGradient
       inkscape:collect="always"
       id="linearGradient4371">
      <stop
         style="stop-color:#f9f9f9;stop-opacity:1;"
         offset="0"
         id="stop4367" />
      <stop
         style="stop-color:#e5e5e5;stop-opacity:1"
         offset="1"
         id="stop4369" />
    </linearGradient>
    <linearGradient
       inkscape:collect="always"
       xlink:href="#linearGradient4371"
       id="linearGradient4373"
       x1="487.74347"
       y1="223.17365"
       x2="500.60074"
       y2="283.04855"
       gradientUnits="userSpaceOnUse" />
    <linearGradient
       inkscape:collect="always"
       xlink:href="#linearGradient4379"
       id="linearGradient4381"
       x1="425.56918"
       y1="226.82327"
       x2="441.72913"
       y2="269.22934"
       gradientUnits="userSpaceOnUse" />
    <linearGradient
       inkscape:collect="always"
       xlink:href="#linearGradient4387"
       id="linearGradient4389"
       x1="460.05048"
       y1="232.92635"
       x2="446.83917"
       y2="269.14709"
       gradientUnits="userSpaceOnUse" />
    <linearGradient
       inkscape:collect="always"
       xlink:href="#linearGradient4395"
       id="linearGradient4397"
       x1="437.77426"
       y1="140.05174"
       x2="444.46191"
       y2="135.05206"
       gradientUnits="userSpaceOnUse" />
    <linearGradient
       inkscape:collect="always"
       xlink:href="#linearGradient4403"
       id="linearGradient4405"
       x1="1662.1902"
       y1="403.673"
       x2="1528.7969"
       y2="24.228516"
       gradientUnits="userSpaceOnUse"
       gradientTransform="matrix(0.26458333,0,0,0.26458333,-2.1895844e-4,11.249912)" />
    <linearGradient
       inkscape:collect="always"
       xlink:href="#linearGradient4422"
       id="linearGradient4424"
       x1="1687.2942"
       y1="651.35297"
       x2="1691.6487"
       y2="692.66571"
       gradientUnits="userSpaceOnUse" />
    <linearGradient
       inkscape:collect="always"
       xlink:href="#linearGradient4430"
       id="linearGradient4432"
       x1="1675.085"
       y1="765.9809"
       x2="1677.8234"
       y2="1077.2365"
       gradientUnits="userSpaceOnUse" />
    <linearGradient
       inkscape:collect="always"
       xlink:href="#linearGradient4438"
       id="linearGradient4440"
       x1="411.17557"
       y1="239.8195"
       x2="405.37936"
       y2="282.39755"
       gradientUnits="userSpaceOnUse" />
    <linearGradient
       inkscape:collect="always"
       xlink:href="#linearGradient4446"
       id="linearGradient4448"
       x1="434.76837"
       y1="310.34445"
       x2="433.50916"
       y2="437.39194"
       gradientUnits="userSpaceOnUse" />
    <linearGradient
       inkscape:collect="always"
       xlink:href="#linearGradient4458"
       id="linearGradient4460"
       x1="441.81689"
       y1="436.573"
       x2="436.78937"
       y2="386.08588"
       gradientUnits="userSpaceOnUse" />
    <linearGradient
       inkscape:collect="always"
       xlink:href="#linearGradient4480"
       id="linearGradient4482"
       x1="439.05988"
       y1="458.27011"
       x2="438.65341"
       y2="433.85077"
       gradientUnits="userSpaceOnUse" />
    <linearGradient
       inkscape:collect="always"
       xlink:href="#linearGradient4458"
       id="linearGradient4353"
       gradientUnits="userSpaceOnUse"
       x1="441.81689"
       y1="436.573"
       x2="436.78937"
       y2="386.08588" />
    <linearGradient
       inkscape:collect="always"
       xlink:href="#linearGradient4458"
       id="linearGradient4355"
       gradientUnits="userSpaceOnUse"
       x1="441.81689"
       y1="436.573"
       x2="436.78937"
       y2="386.08588" />
    <linearGradient
       inkscape:collect="always"
       xlink:href="#linearGradient4480"
       id="linearGradient4357"
       gradientUnits="userSpaceOnUse"
       x1="439.05988"
       y1="458.27011"
       x2="438.65341"
       y2="433.85077" />
    <linearGradient
       inkscape:collect="always"
       xlink:href="#linearGradient4480"
       id="linearGradient4359"
       gradientUnits="userSpaceOnUse"
       x1="439.05988"
       y1="458.27011"
       x2="438.65341"
       y2="433.85077" />
  </defs>
  <sodipodi:namedview
     id="base"
     pagecolor="#ffffff"
     bordercolor="#666666"
     borderopacity="1.0"
     inkscape:pageopacity="0.0"
     inkscape:pageshadow="2"
     inkscape:zoom="1.4"
     inkscape:cx="65.964494"
     inkscape:cy="776.95913"
     inkscape:document-units="mm"
     inkscape:current-layer="layer1"
     showgrid="false"
     inkscape:window-width="1920"
     inkscape:window-height="1016"
     inkscape:window-x="0"
     inkscape:window-y="0"
     inkscape:window-maximized="1"
     units="px"
     inkscape:pagecheckerboard="true"
     inkscape:document-rotation="0"
     fit-margin-top="0"
     fit-margin-left="0"
     fit-margin-right="0"
     fit-margin-bottom="0">
    <inkscape:grid
       type="xygrid"
       id="grid4485"
       originx="-384.97354"
       originy="163.38343" />
  </sodipodi:namedview>
  <metadata
     id="metadata5">
    <rdf:RDF>
      <cc:Work
         rdf:about="">
        <dc:format>image/svg+xml</dc:format>
        <dc:type
           rdf:resource="http://purl.org/dc/dcmitype/StillImage" />
        <dc:title>Geraldo Gonzo</dc:title>
        <cc:license
           rdf:resource="http://creativecommons.org/licenses/by/4.0/" />
        <dc:creator>
          <cc:Agent>
            <dc:title>Maxwell Paul Brickner</dc:title>
          </cc:Agent>
        </dc:creator>
      </cc:Work>
      <cc:License
         rdf:about="http://creativecommons.org/licenses/by/4.0/">
        <cc:permits
           rdf:resource="http://creativecommons.org/ns#Reproduction" />
        <cc:permits
           rdf:resource="http://creativecommons.org/ns#Distribution" />
        <cc:requires
           rdf:resource="http://creativecommons.org/ns#Notice" />
        <cc:requires
           rdf:resource="http://creativecommons.org/ns#Attribution" />
        <cc:permits
           rdf:resource="http://creativecommons.org/ns#DerivativeWorks" />
      </cc:License>
    </rdf:RDF>
  </metadata>
  <g
     inkscape:label="Head"
     inkscape:groupmode="layer"
     id="layer1"
     transform="translate(-384.97353,-17.660373)">
    <path
       sodipodi:nodetypes="ccccccc"
       inkscape:connector-curvature="0"
       id="path4359"
       d="m 500.60073,283.04855 c 0,0 -2.32915,7.88614 -2.475,10.20099 0.27198,5.57721 0.56127,8.46255 -2.57847,12.68246 -7.56057,9.54838 -21.00902,-2.99152 -12.73414,-10.68955 1.78354,-1.34582 4.08074,-3.24568 5.25415,-4.89291 2.08406,-2.92559 3.37058,-9.01816 3.37058,-9.01816 z"
       style="display:inline;fill:#e9c6af;fill-opacity:1;stroke:none;stroke-width:0.26458332px;stroke-linecap:butt;stroke-linejoin:miter;stroke-opacity:1" />
    <path
       style="fill:#0088aa;fill-opacity:1;stroke:none;stroke-width:0.3259891px;stroke-linecap:butt;stroke-linejoin:miter;stroke-opacity:1"
       d="m 433.51373,185.57839 2.17159,4.37691 24.18642,-0.65091 2.47145,-6.86253 c 0,0 -16.74498,4.47647 -28.82946,3.13653 z"
       id="path4502"
       inkscape:connector-curvature="0" />
    <path
       style="display:inline;fill:url(#linearGradient4424);fill-opacity:1;stroke:none;stroke-width:3.41931939px;stroke-linecap:butt;stroke-linejoin:miter;stroke-opacity:1"
       d="m 1702.1445,611.20508 c -16.4528,-0.0805 -28.9699,12.9475 -38.0527,11.70898 l 0.5742,33.90821 c 1.7048,6.71946 0.4061,7.14416 -0.8476,7.97265 -46.0829,6.52682 -96.249,29.86362 -121.4395,71.39063 -22.3929,40.90299 82.7776,79.29678 124.8125,88.86718 42.0349,9.57045 91.1832,-11.66464 183.1152,-66.02929 -40.6631,-36.31406 -78.0518,-77.18075 -123.9941,-91.09571 0.1522,-1.38654 0.1929,-2.08239 0.068,-0.85742 0,0 -3.0867,-40.87147 -6.4532,-50.40234 -6.3776,-3.95379 -12.2989,-5.43607 -17.7832,-5.46289 z"
       transform="matrix(0.26458333,0,0,0.26458333,0,11.249983)"
       id="path4612-3"
       inkscape:connector-curvature="0" />
    <path
       style="display:inline;fill:#e9c6af;fill-opacity:1;stroke:none;stroke-width:0.26458332px;stroke-linecap:butt;stroke-linejoin:miter;stroke-opacity:1"
       d="m 397.69539,277.11896 c 0,0 -3.94223,7.2163 -5.47904,8.95354 -4.14267,3.74401 -6.39073,5.5757 -7.16378,10.77839 -1.42711,12.09533 16.94825,12.77046 16.56045,1.4752 -0.30558,-2.21334 -0.58126,-5.1816 -0.24267,-7.1755 0.60135,-3.54129 4.00902,-8.75304 4.00902,-8.75304 z"
       id="path4565"
       inkscape:connector-curvature="0"
       sodipodi:nodetypes="ccccccc" />
    <path
       sodipodi:nodetypes="cccccc"
       inkscape:connector-curvature="0"
       id="path4642"
       d="m 407.05662,216.53698 c 0,0 -8.58232,48.62381 -11.38018,55.27316 -2.79788,6.6494 9.05578,18.01141 8.97137,12.85763 -0.0844,-5.15388 21.36482,-39.83531 13.34834,-77.60546 -10.57245,-14.49445 -10.93952,9.47467 -10.93952,9.47467 z"
       style="display:inline;fill:url(#linearGradient4440);fill-opacity:1;stroke:none;stroke-width:0.90469491px;stroke-linecap:butt;stroke-linejoin:miter;stroke-opacity:1" />
    <path
       style="display:inline;fill:url(#linearGradient4432);fill-opacity:1;stroke:none;stroke-width:3.41931939px;stroke-linecap:butt;stroke-linejoin:miter;stroke-opacity:1"
       d="m 1663.1289,664.52539 c -5.8544,0.20032 -11.9884,1.67544 -17.8437,2.66016 -37.6032,6.32481 -74.2203,28.37881 -97.1465,60.31445 -2.3925,1.86619 -4.6127,4.49835 -6.6641,8.04297 -6.6737,11.53077 -9.2399,41.63659 -6.6348,53.21094 41.2847,128.85792 55.4114,148.9678 23.1778,293.74219 l 213.5701,9.2279 c 36.2347,-121.1829 21.3387,-214.94323 80.8598,-330.99366 -40.4468,-36.12083 -79.0039,-81.20453 -124.6116,-95.32995 -45.1969,23.02821 -77.2064,42.13104 -64.707,-0.875 z"
       transform="matrix(0.26458333,0,0,0.26458333,0,11.249983)"
       id="path4617"
       inkscape:connector-curvature="0"
       sodipodi:nodetypes="cccccccccc" />
    <path
       style="display:inline;fill:url(#linearGradient4373);fill-opacity:1;stroke:none;stroke-width:0.90469491px;stroke-linecap:butt;stroke-linejoin:miter;stroke-opacity:1"
       d="m 482.20628,224.53931 c 0,0 7.34441,48.82612 6.80906,56.02024 -0.53535,7.19417 14.31882,14.19118 12.59801,9.33244 -1.6973,-4.79241 8.76015,-48.93155 -11.48663,-77.36544 -6.08278,0.34016 -8.35606,7.82867 -7.92043,12.01276 z"
       id="path4363"
       inkscape:connector-curvature="0"
       sodipodi:nodetypes="cccccc" />
    <path
       sodipodi:nodetypes="ccccc"
       inkscape:connector-curvature="0"
       id="path4547"
       d="m 424.06851,144.34598 c -3.0536,-17.88433 3.46879,-21.81924 3.46879,-21.81924 -1.04435,-6.17688 -0.94609,-6.35657 -5.33345,-12.98233 0,0 -6.70822,5.45791 -8.8014,11.06265 -2.37996,8.09894 4.6052,20.12297 10.66606,23.73892 z"
       style="fill:#ff5248;fill-opacity:1;stroke:none;stroke-width:1.65942967;stroke-linecap:butt;stroke-linejoin:miter;stroke-miterlimit:4;stroke-dasharray:none;stroke-opacity:1" />
    <path
       style="fill:#e9c6af;stroke:none;stroke-width:1.09022915px;stroke-linecap:butt;stroke-linejoin:miter;stroke-opacity:1"
       d="m 417.61119,128.51525 c 0,0 -2.91152,23.76178 5.659,36.57845 8.57053,12.81661 8.00133,17.26308 8.00133,17.26308 0,0 14.24394,2.20128 22.32713,-0.75508 4.03727,-1.47659 8.39046,-6.36216 13.01321,-10.99795 13.87816,-13.91732 18.55743,-38.31326 18.55743,-38.31326 0,0 -4.41089,-35.684966 -37.46668,-35.226177 -29.18986,0.405115 -30.09142,31.450937 -30.09142,31.450937 z"
       id="path4487"
       inkscape:connector-curvature="0"
       sodipodi:nodetypes="cccsscsc" />
    <path
       d="m 125.22138,436.89294 a 5.4526138,6.328536 0 0 1 -4.58831,6.24853 5.4526138,6.328536 0 0 1 -6.04291,-4.2676 5.4526138,6.328536 0 0 1 2.67256,-7.60145 l 2.50605,5.62052 z"
       sodipodi:end="4.2348394"
       sodipodi:start="0"
       sodipodi:ry="6.328536"
       sodipodi:rx="5.4526138"
       sodipodi:cy="436.89294"
       sodipodi:cx="119.76877"
       sodipodi:type="arc"
       transform="rotate(-61.233201)"
       id="path4549"
       style="fill:#d6ada7;fill-opacity:1;stroke:none;stroke-width:0.39458668;stroke-linecap:round;stroke-linejoin:round;stroke-miterlimit:4;stroke-dasharray:none;stroke-dashoffset:0;stroke-opacity:1;paint-order:stroke fill markers"
       sodipodi:arc-type="slice" />
    <path
       sodipodi:nodetypes="ccc"
       style="fill:url(#linearGradient4397);fill-opacity:1;stroke:none;stroke-width:0.7252171;stroke-linecap:butt;stroke-linejoin:miter;stroke-miterlimit:4;stroke-dasharray:none;stroke-opacity:1"
       d="m 443.50388,122.47063 c -6.57302,4.37489 -3.31982,13.25546 -5.72961,17.58112 8.53987,-1.48705 10.80405,1.27696 10.80405,1.27696"
       id="path4489"
       inkscape:connector-curvature="0" />
    <path
       style="fill:#ff5248;fill-opacity:1;stroke:none;stroke-width:1.21913075px;stroke-linecap:butt;stroke-linejoin:miter;stroke-opacity:1"
       d="m 425.863,114.77019 c 8.13035,-0.18137 9.4861,1.31408 15.80647,6.59607 0,0 -1.25072,-7.12325 -7.32886,-9.46924 -6.07813,-2.34599 -8.47761,2.87321 -8.47761,2.87321 z"
       id="path4513"
       inkscape:connector-curvature="0"
       sodipodi:nodetypes="ccscc" />
    <path
       sodipodi:nodetypes="ccccccc"
       inkscape:connector-curvature="0"
       id="path4561"
       d="m 450.45138,127.42759 c 1.92657,0.0129 9.77085,-5.24148 14.24258,-2.8118 4.47174,2.42972 6.62532,1.09262 6.62532,1.09262 0,0 -4.45638,-4.35082 -4.45812,-5.58251 -4.73726,0.0856 -10.81043,-2.91482 -15.45046,4.53715 -1.60816,0.89192 -1.65494,0.86983 -3.63298,-0.72162 0.53574,1.94846 1.7178,3.41068 2.67364,3.48631 z"
       style="fill:#ff5248;fill-opacity:1;stroke:#ff5248;stroke-width:0.31884393px;stroke-linecap:butt;stroke-linejoin:miter;stroke-opacity:1" />
    <path
       style="fill:#ff5248;fill-opacity:1;stroke:none;stroke-width:2.3197763px;stroke-linecap:butt;stroke-linejoin:miter;stroke-opacity:1"
       d="m 431.50444,164.39372 c 15.24536,2.65205 18.22128,0.22323 31.61402,-7.91779 0,0 -3.95058,10.46086 -16.34521,10.71095 -11.10682,0.2241 -15.26881,-2.7932 -15.26881,-2.7932 z"
       id="path4545"
       inkscape:connector-curvature="0"
       sodipodi:nodetypes="ccscc" />
    <path
       style="fill:#d6ada7;fill-opacity:1;stroke:none;stroke-width:0.39458668;stroke-linecap:round;stroke-linejoin:round;stroke-miterlimit:4;stroke-dasharray:none;stroke-dashoffset:0;stroke-opacity:1;paint-order:stroke fill markers"
       id="path4557"
       transform="rotate(133.7668)"
       sodipodi:type="arc"
       sodipodi:cx="-232.96408"
       sodipodi:cy="-394.7449"
       sodipodi:rx="5.4526138"
       sodipodi:ry="6.328536"
       sodipodi:start="0"
       sodipodi:end="4.2348394"
       d="m -227.51147,-394.7449 a 5.4526138,6.328536 0 0 1 -4.58831,6.24852 5.4526138,6.328536 0 0 1 -6.04291,-4.26759 5.4526138,6.328536 0 0 1 2.67256,-7.60146 l 2.50605,5.62053 z"
       sodipodi:arc-type="slice" />
    <path
       d="m 387.40646,255.05977 a 1.1392529,1.3222656 0 0 1 -0.95866,1.30555 1.1392529,1.3222656 0 0 1 -1.26259,-0.89166 1.1392529,1.3222656 0 0 1 0.5584,-1.58823 l 0.5236,1.17434 z"
       sodipodi:end="4.2348394"
       sodipodi:start="0"
       sodipodi:ry="1.3222656"
       sodipodi:rx="1.1392529"
       sodipodi:cy="255.05977"
       sodipodi:cx="386.26721"
       sodipodi:type="arc"
       transform="rotate(-19.801629)"
       id="path4559"
       style="fill:#d6ada7;fill-opacity:1;stroke:none;stroke-width:0.08244376;stroke-linecap:round;stroke-linejoin:round;stroke-miterlimit:4;stroke-dasharray:none;stroke-dashoffset:0;stroke-opacity:1;paint-order:stroke fill markers"
       sodipodi:arc-type="slice" />
    <path
       style="fill:#d6ada7;fill-opacity:1;stroke:none;stroke-width:0.13307898;stroke-linecap:round;stroke-linejoin:round;stroke-miterlimit:4;stroke-dasharray:none;stroke-dashoffset:0;stroke-opacity:1;paint-order:stroke fill markers"
       id="path4562"
       transform="rotate(-49.801629)"
       sodipodi:type="arc"
       sodipodi:cx="208.2597"
       sodipodi:cy="409.28088"
       sodipodi:rx="1.8389571"
       sodipodi:ry="2.134372"
       sodipodi:start="0"
       sodipodi:end="4.2348394"
       d="m 210.09866,409.28088 a 1.8389571,2.134372 0 0 1 -1.54746,2.10739 1.8389571,2.134372 0 0 1 -2.03804,-1.43929 1.8389571,2.134372 0 0 1 0.90135,-2.56368 l 0.84519,1.89558 z"
       sodipodi:arc-type="slice" />
    <ellipse
       transform="rotate(-0.19227686)"
       style="fill:#ffffff;fill-opacity:1;stroke:none;stroke-width:4.01510239;stroke-linecap:round;stroke-linejoin:round;stroke-miterlimit:4;stroke-dasharray:none;stroke-opacity:1;paint-order:stroke fill markers"
       id="ellipse4499"
       cx="429.69476"
       cy="134.8324"
       rx="5.5776796"
       ry="10.116602" />
    <ellipse
       transform="rotate(-0.19227686)"
       ry="7.8811269"
       rx="4.2279816"
       cy="133.53331"
       cx="428.23666"
       id="path4491"
       style="fill:#80ffeb;fill-opacity:1;stroke:none;stroke-width:3.0854125;stroke-linecap:round;stroke-linejoin:round;stroke-miterlimit:4;stroke-dasharray:none;stroke-opacity:1;paint-order:stroke fill markers" />
    <path
       inkscape:connector-curvature="0"
       id="path4575"
       d="m 429.08987,133.6085 c -0.48871,-0.13015 -0.97747,-0.25992 -1.46618,-0.39006 -0.38419,0.32883 -0.76836,0.65782 -1.15254,0.98669 -0.0273,-0.50502 -0.0547,-1.01003 -0.0821,-1.51498 -0.43149,-0.26392 -0.863,-0.52753 -1.29452,-0.79125 0.47177,-0.1818 0.94362,-0.36413 1.41545,-0.54623 0.11751,-0.49187 0.23501,-0.98375 0.35245,-1.47567 0.31898,0.3923 0.63793,0.78491 0.95689,1.17737 0.50409,-0.0401 1.00826,-0.0807 1.51236,-0.1208 -0.2747,0.42467 -0.54936,0.84927 -0.82408,1.27393 0.19411,0.46699 0.38815,0.93401 0.58223,1.40103 z"
       style="opacity:0.18600003;fill:#803e80;fill-opacity:1;stroke:#803e80;stroke-width:0.6018002;stroke-linecap:round;stroke-linejoin:round;stroke-miterlimit:4;stroke-dasharray:none;stroke-opacity:1;paint-order:stroke fill markers" />
    <path
       sodipodi:nodetypes="ccccc"
       style="fill:#ff5248;fill-opacity:1;stroke:#ff5248;stroke-width:0.83854401px;stroke-linecap:butt;stroke-linejoin:miter;stroke-opacity:1"
       d="m 423.93157,132.86457 c 0,0 0.66102,-8.34645 5.78634,-8.47699 5.12531,-0.13039 5.64188,8.40664 5.64188,8.40664 0,0 -0.46248,-10.07745 -5.77957,-9.61474 -5.31712,0.46263 -5.64865,9.68509 -5.64865,9.68509 z"
       id="path4509"
       inkscape:connector-curvature="0" />
    <path
       style="fill:#ff5248;fill-opacity:1;stroke:#ff5248;stroke-width:0.31884393px;stroke-linecap:butt;stroke-linejoin:miter;stroke-opacity:1"
       d="m 435.99186,128.13013 c -1.89564,-0.34418 -8.63161,-6.95976 -13.47586,-5.39995 -4.84425,1.55992 -3.23844,-0.0158 -3.23844,-0.0158 0,0 1.71018,-3.58744 1.9399,-4.79755 4.63953,0.96114 11.16316,-0.86348 14.34345,7.31902 1.41524,1.17422 1.4653,1.16119 3.70378,-0.0367 -0.88719,1.81563 -2.31953,3.03372 -3.27284,2.93114 z"
       id="path4563"
       inkscape:connector-curvature="0"
       sodipodi:nodetypes="cccccccc" />
    <path
       style="fill:#ff5248;fill-opacity:1;stroke:#ff5248;stroke-width:0.83854401px;stroke-linecap:butt;stroke-linejoin:miter;stroke-opacity:1"
       d="m 422.79545,132.16096 0.90303,0.33582"
       id="path4511"
       inkscape:connector-curvature="0"
       sodipodi:nodetypes="cc" />
    <path
       style="fill:#ff5248;fill-opacity:1;stroke:none;stroke-width:1.65942967;stroke-linecap:butt;stroke-linejoin:miter;stroke-miterlimit:4;stroke-dasharray:none;stroke-opacity:1"
       d="m 487.18237,162.06441 c -3.0536,-17.88433 1.91351,-21.5329 1.91351,-21.5329 -1.04434,-6.17687 -0.94608,-6.35656 -5.33346,-12.98232 0,0 -6.70822,5.45791 -8.80138,11.06265 -2.37996,8.09894 6.16048,19.8366 12.22133,23.45257 z"
       id="path4543"
       inkscape:connector-curvature="0"
       sodipodi:nodetypes="ccccc" />
    <path
       style="fill:url(#linearGradient4405);fill-opacity:1;stroke:none;stroke-width:5.11653042;stroke-linecap:butt;stroke-linejoin:miter;stroke-miterlimit:4;stroke-dasharray:none;stroke-opacity:1"
       d="m 404.49396,17.660373 c -2.0964,2.307883 -4.09388,5.142397 -5.93556,8.368482 -0.77753,1.362002 4.38317,-0.300505 3.6654,1.191141 -1.10273,2.291705 -8.0406,7.818685 -8.9767,10.355957 -7.08401,19.200852 -8.95337,44.384637 1.0976,59.683179 6.07957,7.949688 17.67226,12.569758 27.01126,15.137578 -2.03886,1.5576 -2.11574,7.70138 -4.43834,4.33899 0,0 4.66183,-0.82287 -3.51517,3.87136 0.58489,7.52821 4.42193,10.07381 8.98602,5.03948 1.84031,-2.34765 3.82389,-7.88513 5.06894,-11.76362 4.77467,1.01674 8.04756,1.38648 8.04756,1.38648 6.64912,1.48608 15.4449,-3.28384 20.27886,-8.48424 4.61579,2.31144 6.51589,3.17759 6.51589,3.17759 16.90691,9.34052 -0.34448,26.6454 24.06418,28.78274 0,0 -0.28718,-26.66319 -9.78959,-42.474413 -9.75447,-13.874914 -31.165,-21.353722 -50.53285,-22.757267 -5.8185,-5.532724 -13.42535,-16.516517 -18.4092,-37.999746 -0.32142,-1.385445 -7.95123,1.839974 -8.24963,0.365869 -0.27033,-1.335493 6.78873,-7.362209 6.53915,-8.772591 -0.52684,-2.976716 -1.00558,-6.122726 -1.42782,-9.446969 z"
       id="path4293"
       inkscape:connector-curvature="0"
       sodipodi:nodetypes="cscccccccccccccccccc" />
    <path
       sodipodi:nodetypes="ccccc"
       inkscape:connector-curvature="0"
       id="path4297"
       d="m 487.18237,162.06441 c -3.74997,-17.75138 -11.26328,-19.00661 -11.26328,-19.00661 -1.30474,-6.12715 -1.46228,-6.258 0.17549,-14.03409 0,0 8.24713,2.60263 12.25793,7.042 5.1963,6.65248 3.13225,20.40418 -1.17014,25.9987 z"
       style="fill:#ff5248;fill-opacity:1;stroke:none;stroke-width:1.65942967;stroke-linecap:butt;stroke-linejoin:miter;stroke-miterlimit:4;stroke-dasharray:none;stroke-opacity:1" />
    <ellipse
       ry="9.0469494"
       rx="7.8353043"
       cy="124.84121"
       cx="460.91003"
       id="ellipse4497"
       style="fill:#ffffff;fill-opacity:1;stroke:none;stroke-width:3.67439532;stroke-linecap:round;stroke-linejoin:round;stroke-miterlimit:4;stroke-dasharray:none;stroke-opacity:1;paint-order:stroke fill markers"
       transform="rotate(1.1125782)" />
    <ellipse
       transform="rotate(-3.3759804)"
       ry="7.3008127"
       rx="5.4756093"
       cy="160.62656"
       cx="447.37836"
       id="path4493"
       style="fill:#80ffeb;fill-opacity:1;stroke:none;stroke-width:2.75936222;stroke-linecap:round;stroke-linejoin:round;stroke-miterlimit:4;stroke-dasharray:none;stroke-opacity:1;paint-order:stroke fill markers" />
    <path
       style="opacity:0.18600003;fill:#803e80;fill-opacity:1;stroke:none;stroke-width:0.60180026;stroke-linecap:round;stroke-linejoin:round;stroke-miterlimit:4;stroke-dasharray:none;stroke-opacity:1;paint-order:stroke fill markers"
       d="m 455.19783,134.11382 c -0.4952,-0.10263 -0.9904,-0.20525 -1.48559,-0.30798 -0.36531,0.34972 -0.73064,0.69946 -1.09596,1.04917 -0.0554,-0.50272 -0.11074,-1.0054 -0.1661,-1.50808 -0.44548,-0.2395 -0.89098,-0.47876 -1.33648,-0.71812 0.46099,-0.20787 0.92196,-0.41599 1.38294,-0.62399 0.0899,-0.49766 0.18,-0.99532 0.26995,-1.49298 0.34026,0.37415 0.68054,0.7483 1.0208,1.12243 0.50111,-0.0683 1.00223,-0.13651 1.50332,-0.20475 -0.25069,0.43927 -0.50135,0.87848 -0.75205,1.31772 0.21973,0.45549 0.43944,0.91099 0.65916,1.36653 z"
       id="path4556"
       inkscape:connector-curvature="0" />
    <path
       inkscape:connector-curvature="0"
       id="path4505"
       d="m 450.02531,134.13272 c 0,0 0.73482,-8.52923 8.18513,-8.84228 7.45032,-0.31292 8.06151,8.45951 8.06151,8.45951 0,0 0.18328,-10.19398 -7.55747,-9.54103 -7.74076,0.65292 -8.68917,9.9238 -8.68917,9.9238 z"
       style="fill:#ff5248;fill-opacity:1;stroke:#ff5248;stroke-width:1.0116601px;stroke-linecap:butt;stroke-linejoin:miter;stroke-opacity:1"
       sodipodi:nodetypes="ccccc" />
    <path
       sodipodi:nodetypes="cc"
       inkscape:connector-curvature="0"
       id="path4507"
       d="m 448.55869,133.30194 1.29993,0.30474"
       style="fill:#ff5248;fill-opacity:1;stroke:#ff5248;stroke-width:1.0116601px;stroke-linecap:butt;stroke-linejoin:miter;stroke-opacity:1" />
    <path
       inkscape:connector-curvature="0"
       id="path4314"
       style="font-style:normal;font-variant:normal;font-weight:normal;font-stretch:normal;font-size:medium;line-height:1.25;font-family:'League Gothic';-inkscape-font-specification:'League Gothic';letter-spacing:0px;word-spacing:0px;fill:url(#linearGradient4381);fill-opacity:1;stroke:none;stroke-width:1.33924997"
       d="m 433.14084,241.94408 0.11709,-2.72956 c 0.1079,-2.51548 0.52774,-4.80309 2.13337,-4.73422 1.71266,0.0735 1.81196,2.75869 1.72012,4.89952 -0.68084,9.62226 -10.81822,23.45014 -10.81822,23.45014 l -0.24565,5.72672 15.68159,0.67267 0.24565,-5.72672 -9.15206,-0.39259 c 3.15945,-4.90468 9.74064,-15.8288 10.08501,-23.85692 0.23188,-5.4056 -1.39958,-9.87236 -7.28686,-10.1249 -6.31546,-0.2709 -7.91591,4.5398 -8.1432,9.83835 l -0.11708,2.72956 z" />
    <path
       inkscape:connector-curvature="0"
       id="path4316"
       style="font-style:normal;font-variant:normal;font-weight:normal;font-stretch:normal;font-size:medium;line-height:1.25;font-family:'League Gothic';-inkscape-font-specification:'League Gothic';letter-spacing:0px;word-spacing:0px;fill:url(#linearGradient4389);fill-opacity:1;stroke:none;stroke-width:1.33924997"
       d="m 461.27433,256.83158 c 0.049,-2.89237 -0.91811,-5.90907 -2.86816,-7.81725 1.79733,-1.73769 2.75502,-4.50753 2.80033,-7.18565 l 0.0566,-3.32084 c 0.0168,-1.01769 -0.0177,-8.46556 -7.24864,-8.5878 -7.23081,-0.12222 -7.51735,7.32023 -7.53459,8.33792 l -0.0567,3.32084 c -0.0452,2.67812 0.8182,5.47875 2.55584,7.27618 -2.01342,1.84119 -3.08183,4.82348 -3.1307,7.71585 l -0.0783,4.60634 c -0.0178,1.07126 0.0113,8.84051 7.56356,8.96816 7.55229,0.12766 7.84431,-7.63616 7.86238,-8.70741 z m -5.66294,2.20811 c -0.0611,3.64226 -0.20612,5.83647 -2.18766,5.80298 -1.66046,-0.0281 -2.00815,-1.64127 -1.99027,-5.8736 0.0802,-4.71347 0.22488,-6.9613 2.20668,-6.92779 1.98181,0.0335 2.05092,2.28492 1.97125,6.99841 z m -0.0608,-18.59247 c -0.0697,4.1243 -0.3152,5.94177 -1.81451,5.91644 -1.49972,-0.0253 -1.68324,-1.85008 -1.61356,-5.97438 0.12229,-4.06985 0.51994,-5.40256 1.80547,-5.38084 1.49972,0.0253 1.68324,1.8501 1.6226,5.43878 z" />
    <path
       inkscape:connector-curvature="0"
       style="fill:url(#linearGradient4448);fill-opacity:1;stroke:none;stroke-width:0.27243966px;stroke-linecap:butt;stroke-linejoin:miter;stroke-opacity:1"
       d="m 468.73258,300.10195 -56.50723,-2.4417 c 0,0 -10.64784,68.69829 -9.54773,76.12457 1.21777,8.22041 12.96617,66.26243 18.58182,67.82064 5.61565,1.55821 12.00451,1.53268 11.7698,-2.73058 -0.23474,-4.26325 -5.10273,-58.35634 -7.05125,-66.3117 -1.67677,-6.84623 4.12107,-38.69806 6.40273,-47.01574 0.0486,-0.17722 0.73769,-0.8177 1.85105,-1.76218 l 1.00354,1.19168 c 0,0 1.73929,37.07543 2.17609,44.47635 0.44016,7.45816 8.83124,71.38853 14.37018,72.69684 5.53903,1.30832 11.89842,0.98788 11.80137,-3.29125 -0.097,-4.27916 0.38524,-55.47366 -1.29915,-63.38891 -1.02124,-4.79909 4.56311,-30.53413 6.72052,-51.64129 1.40086,-13.70532 -0.27174,-23.72673 -0.27174,-23.72673 z"
       id="path4300"
       sodipodi:nodetypes="cccscccccccccsc" />
    <g
       id="g4452"
       style="fill:url(#linearGradient4460);fill-opacity:1">
      <path
         sodipodi:nodetypes="ccccsc"
         inkscape:connector-curvature="0"
         id="path4355"
         d="m 407.93117,401.56281 c 0,0 11.32784,-5.62941 21.46972,-3.69155 4.35337,42.96601 3.82775,44.71009 3.82775,44.71009 l -13.92814,-4.13851 c 0,0 -0.84685,-0.14583 -1.50257,-1.76731 -2.3006,-5.68894 -7.32061,-20.8613 -9.86676,-35.11272 z"
         style="fill:url(#linearGradient4353);fill-opacity:1;stroke:none;stroke-width:0.26458332px;stroke-linecap:butt;stroke-linejoin:miter;stroke-opacity:1" />
      <path
         style="fill:url(#linearGradient4355);fill-opacity:1;stroke:none;stroke-width:0.26458332px;stroke-linecap:butt;stroke-linejoin:miter;stroke-opacity:1"
         d="m 441.36011,400.82017 c 0,0 12.55999,-4.85334 22.5637,-2.29622 1.70617,43.15227 0.16664,44.79109 0.16664,44.79109 l -13.64765,-4.98617 c 0,0 -1.42541,-0.0854 -1.9803,-1.74405 -1.94684,-5.8195 -5.43637,-21.38376 -7.10239,-35.76465 z"
         id="path4357"
         inkscape:connector-curvature="0"
         sodipodi:nodetypes="ccccsc" />
    </g>
    <g
       id="g4474"
       style="fill:url(#linearGradient4482);fill-opacity:1">
      <path
         sodipodi:nodetypes="cccccccc"
         inkscape:connector-curvature="0"
         id="path4302"
         d="m 393.65897,459.317 c 4.26587,0.17614 33.77668,-0.45032 41.49166,-0.70091 0.1044,-1.19483 -0.26274,-18.89291 -1.64147,-21.22415 -5.26623,-3.40565 -10.35226,-1.69625 -15.17046,0.6366 0.38303,1.30455 0.15749,2.43837 0.15749,2.43837 -4.25511,11.20385 -14.04272,10.23433 -24.26025,9.89992 -2.12617,4.95577 -3.02134,8.61402 -0.57697,8.95021 z"
         style="fill:url(#linearGradient4357);fill-opacity:1;stroke:none;stroke-width:0.19592509px;stroke-linecap:butt;stroke-linejoin:miter;stroke-opacity:1" />
      <path
         style="fill:url(#linearGradient4359);fill-opacity:1;stroke:none;stroke-width:0.19592509px;stroke-linecap:butt;stroke-linejoin:miter;stroke-opacity:1"
         d="m 456.4138,460.38341 c 0.93894,-0.16962 10.28394,-0.57261 10.38821,-1.76743 0.10441,-1.19479 2.01679,-18.07488 0.63801,-20.40614 -0.20523,-0.347 0.60936,-1.81457 -1.30234,-2.60297 -12.60044,-5.19654 -16.17272,-1.0618 -17.90467,2.06098 -0.97953,1.76612 -0.30037,1.32338 0.24509,3.29141 -10.55684,20.79792 -10.62182,18.40681 7.9357,19.42415 z"
         id="path4306"
         inkscape:connector-curvature="0"
         sodipodi:nodetypes="cccsscc" />
    </g>
    <path
       sodipodi:nodetypes="ccsscc"
       inkscape:connector-curvature="0"
       id="path4365"
       d="m 462.29994,109.96282 c -8.13035,-0.18137 -9.4861,1.31408 -15.80647,6.59607 0,0 1.25072,-7.12325 7.32886,-9.46924 2.15816,-0.83299 8.09664,-2.15693 9.3845,-1.65466 2.33919,0.91229 3.95106,4.67847 3.95106,4.67847 z"
       style="fill:#ff5248;fill-opacity:1;stroke:none;stroke-width:1.21913075px;stroke-linecap:butt;stroke-linejoin:miter;stroke-opacity:1" />
  </g>
  <g
     inkscape:groupmode="layer"
     id="layer3"
     inkscape:label="Body"
     style="display:inline"
     transform="translate(-384.97353,-6.41039)" />
  <g
     inkscape:groupmode="layer"
     id="layer2"
     inkscape:label="Decor"
     style="opacity:0.18600003"
     transform="translate(-384.97353,-17.660373)" />
</svg>
