<?xml version="1.0" encoding="UTF-8" standalone="no"?>
<!-- Created with Inkscape (http://www.inkscape.org/) -->

<svg
   xmlns:dc="http://purl.org/dc/elements/1.1/"
   xmlns:cc="http://creativecommons.org/ns#"
   xmlns:rdf="http://www.w3.org/1999/02/22-rdf-syntax-ns#"
   xmlns:svg="http://www.w3.org/2000/svg"
   xmlns="http://www.w3.org/2000/svg"
   xmlns:sodipodi="http://sodipodi.sourceforge.net/DTD/sodipodi-0.dtd"
   xmlns:inkscape="http://www.inkscape.org/namespaces/inkscape"
   width="3351.502"
   height="3005.2354"
   viewBox="0 0 886.75159 795.13516"
   version="1.1"
   id="svg8"
   inkscape:version="0.92.2 (5c3e80d, 2017-08-06)"
   sodipodi:docname="ann pointer.svg"
   inkscape:export-filename="/home/mbrickn/Projects/aXVI/game/images/particles/pointer.png"
   inkscape:export-xdpi="1.833208"
   inkscape:export-ydpi="1.833208">
  <title
     id="title4300">Ann Pointer</title>
  <defs
     id="defs2" />
  <sodipodi:namedview
     id="base"
     pagecolor="#ffffff"
     bordercolor="#666666"
     borderopacity="1.0"
     inkscape:pageopacity="0.0"
     inkscape:pageshadow="2"
     inkscape:zoom="0.1425685"
     inkscape:cx="-352.75457"
     inkscape:cy="2218.4141"
     inkscape:document-units="mm"
     inkscape:current-layer="layer1"
     showgrid="false"
     inkscape:window-width="1920"
     inkscape:window-height="1016"
     inkscape:window-x="0"
     inkscape:window-y="27"
     inkscape:window-maximized="1"
     fit-margin-top="0"
     fit-margin-left="0"
     fit-margin-right="0"
     fit-margin-bottom="0"
     units="px"
     inkscape:document-rotation="0">
    <inkscape:grid
       type="xygrid"
       id="grid10"
       originx="531.38488"
       originy="-331.03197" />
  </sodipodi:namedview>
  <metadata
     id="metadata5">
    <rdf:RDF>
      <cc:Work
         rdf:about="">
        <dc:format>image/svg+xml</dc:format>
        <dc:type
           rdf:resource="http://purl.org/dc/dcmitype/StillImage" />
        <dc:title>Ann Pointer</dc:title>
        <cc:license
           rdf:resource="http://creativecommons.org/licenses/by/4.0/" />
        <dc:creator>
          <cc:Agent>
            <dc:title>Maxwell Paul Brickner</dc:title>
          </cc:Agent>
        </dc:creator>
      </cc:Work>
      <cc:License
         rdf:about="http://creativecommons.org/licenses/by/4.0/">
        <cc:permits
           rdf:resource="http://creativecommons.org/ns#Reproduction" />
        <cc:permits
           rdf:resource="http://creativecommons.org/ns#Distribution" />
        <cc:requires
           rdf:resource="http://creativecommons.org/ns#Notice" />
        <cc:requires
           rdf:resource="http://creativecommons.org/ns#Attribution" />
        <cc:permits
           rdf:resource="http://creativecommons.org/ns#DerivativeWorks" />
      </cc:License>
    </rdf:RDF>
  </metadata>
  <g
     inkscape:label="Head"
     inkscape:groupmode="layer"
     id="layer1"
     transform="translate(531.38485,829.16713)">
    <path
       style="fill:#8800aa;stroke:none;stroke-width:6.33393812px;stroke-linecap:butt;stroke-linejoin:miter;stroke-opacity:1"
       d="m -88.008981,-829.16713 c 0,0 380.036301,0 380.036301,380.03631 2.26203,159.47951 0,158.34838 0,158.34838 0,0 0,63.3393 63.33937,63.3393 0,0 0,95.00907 -95.00907,95.00907 h -31.66968 -633.39385 -31.66977 c -95.00893,0 -95.00917,-95.00907 -95.00917,-95.00907 63.33964,0 63.33964,-63.3393 63.33964,-63.3393 0,0 -2.26226,1.12993 0,-158.34838 0,-380.03631 380.036229,-380.03631 380.036229,-380.03631 z"
       id="path4498"
       inkscape:connector-curvature="0" />
    <circle
       id="path14"
       cx="88.009018"
       cy="-398.2334"
       r="364.20145"
       style="fill:#deaa87;stroke-width:6.33393812"
       transform="scale(-1,1)" />
    <path
       style="fill:#cd9d7d;fill-opacity:1;stroke:none;stroke-width:5.40160036px;stroke-linecap:butt;stroke-linejoin:miter;stroke-opacity:1"
       d="m 276.1925,-475.04272 c 0,0 -665.0635,46.06495 -728.4029,23.03272 95.85251,-164.20656 316.69693,-276.39017 316.69693,-276.39017 l 190.01815,23.03248 190.01814,161.22756 z"
       id="path4517"
       inkscape:connector-curvature="0" />
    <path
       style="fill:#ffffff;fill-opacity:1;stroke:none;stroke-width:6.33393812px;stroke-linecap:butt;stroke-linejoin:miter;stroke-opacity:1"
       d="m 181.1834,-322.45221 c 0,0 3e-5,-18.09716 -95.00905,-18.09716 -95.00907,0 -95.0091,18.09716 -95.0091,18.09716 0,0 1.4e-4,-190.01815 95.00923,-190.01815 95.00907,0 95.00892,190.01815 95.00892,190.01815 z"
       id="path4507"
       inkscape:connector-curvature="0"
       sodipodi:nodetypes="cscsc" />
    <path
       style="fill:#8800aa;fill-opacity:1;stroke:none;stroke-width:5.41010666;stroke-linecap:butt;stroke-linejoin:miter;stroke-miterlimit:4;stroke-dasharray:none;stroke-opacity:1"
       d="m 276.1925,-475.04272 c 0,0 -400.3954,2.4e-4 -411.70597,-253.35745 13.64539,-11.99144 14.87341,-33.49993 27.345,-47.83645 12.338738,-14.18427 35.99437,-21.26097 35.99437,-21.26097 0,0 248.11423,13.49914 316.69692,138.19509 63.33935,115.16237 31.66968,184.25978 31.66968,184.25978 z"
       id="path4501"
       inkscape:connector-curvature="0"
       sodipodi:nodetypes="ccscsc" />
    <path
       sodipodi:nodetypes="cscsc"
       inkscape:connector-curvature="0"
       id="path4533"
       d="m -198.85289,-322.45221 c 0,0 1e-5,-18.09716 -95.00906,-18.09716 -95.00907,0 -95.00909,18.09716 -95.00909,18.09716 0,0 1.4e-4,-190.01815 95.00921,-190.01815 95.00908,0 95.00894,190.01815 95.00894,190.01815 z"
       style="fill:#ffffff;fill-opacity:1;stroke:none;stroke-width:6.33393812px;stroke-linecap:butt;stroke-linejoin:miter;stroke-opacity:1" />
    <path
       sodipodi:nodetypes="cccsc"
       inkscape:connector-curvature="0"
       id="path4503"
       d="m -452.21042,-442.7972 c 0,0 368.725725,-55.27775 380.03631,-308.63544 -27.145452,-23.85502 -31.66971,-23.03248 -31.66971,-23.03248 0,0 -248.11422,13.49913 -316.69692,138.19509 -63.33945,115.16236 -31.66968,193.47283 -31.66968,193.47283 z"
       style="fill:#8800aa;fill-opacity:1;stroke:none;stroke-width:5.41010666;stroke-linecap:butt;stroke-linejoin:miter;stroke-miterlimit:4;stroke-dasharray:none;stroke-opacity:1" />
    <path
       style="fill:#ff5555;stroke:none;stroke-width:6.33393812px;stroke-linecap:butt;stroke-linejoin:miter;stroke-opacity:1"
       d="m -293.86195,-290.78268 c 0,0 0,31.66976 221.68785,31.66976 221.68785,0 221.68785,-31.66976 221.68785,-31.66976 0,0 -63.33941,190.01815 -221.68785,190.01815 -158.34845,0 -221.68785,-190.01815 -221.68785,-190.01815 z"
       id="path4511"
       inkscape:connector-curvature="0" />
    <ellipse
       style="fill:#55d400;fill-opacity:1;stroke:none;stroke-width:6.34391308;stroke-miterlimit:4;stroke-dasharray:none"
       id="path4513"
       cx="-86.174408"
       cy="-401.62653"
       rx="31.669689"
       ry="47.504539"
       transform="scale(-1,1)" />
    <path
       style="fill:#ffffff;fill-opacity:1;stroke:none;stroke-width:5.27840424px;stroke-linecap:butt;stroke-linejoin:miter;stroke-opacity:1"
       d="m -190.4914,-263.59914 c 0,0 -3.62338,9.69447 3.58052,21.88841 -31.59221,2.21439 -27.08553,-24.06832 -27.08553,-24.06832 z"
       id="path4525"
       inkscape:connector-curvature="0"
       sodipodi:nodetypes="cccc" />
    <ellipse
       ry="47.504539"
       rx="31.669689"
       cy="-401.62653"
       cx="293.86188"
       id="ellipse4535"
       style="fill:#55d400;fill-opacity:1;stroke:none;stroke-width:6.34391308;stroke-miterlimit:4;stroke-dasharray:none"
       transform="scale(-1,1)" />
    <path
       style="fill:#2b0000;stroke:none;stroke-width:6.33393764px;stroke-linecap:butt;stroke-linejoin:miter;stroke-opacity:1"
       d="m -293.8613,-290.78366 c 0,0 0.0506,0.61123 0.59349,1.60826 -0.0772,-0.22423 -0.59349,-1.60826 -0.59349,-1.60826 z m 0.59349,1.60826 c 2.37928,6.91958 41.2031,116.54091 131.21894,165.48648 a 59.583644,140.36146 78.459244 0 1 121.80461,-65.83831 59.583644,140.36146 78.459244 0 1 128.20036,6.45764 c 40.77758,-49.02025 59.33298,-101.36195 60.96416,-106.10581 -3.48911,6.39404 -29.30764,30.06143 -221.09403,30.06143 -191.7864,0 -217.60492,-23.66739 -221.09404,-30.06143 z m 442.18807,0 c 0.54409,-0.9969 0.59349,-1.60826 0.59349,-1.60826 0,0 -0.51685,1.38384 -0.59349,1.60826 z"
       id="path4542"
       inkscape:connector-curvature="0" />
    <path
       style="fill:#8800aa;fill-opacity:1;stroke:none;stroke-width:6.33393812px;stroke-linecap:butt;stroke-linejoin:miter;stroke-opacity:1"
       d="m 276.1925,-475.04272 c 0,0 -15.44029,82.28151 -57.55547,103.80271 16.67527,-118.02743 -7.22005,-159.79528 -7.22005,-159.79528 z"
       id="path4495"
       inkscape:connector-curvature="0" />
    <path
       inkscape:connector-curvature="0"
       id="path4497"
       d="m 40.4982,-574.32136 c 0,0 -61.55942,56.73708 -57.46189,103.85441 91.20612,-76.74603 139.2886,-78.64681 139.2886,-78.64681 z"
       style="fill:#8800aa;fill-opacity:1;stroke:none;stroke-width:6.33393812px;stroke-linecap:butt;stroke-linejoin:miter;stroke-opacity:1" />
    <path
       style="fill:#8800aa;fill-opacity:1;stroke:none;stroke-width:6.33393812px;stroke-linecap:butt;stroke-linejoin:miter;stroke-opacity:1"
       d="m -247.24723,-574.32136 c 0,0 61.55941,56.73708 57.46189,103.85441 -91.20612,-76.74603 -139.2886,-78.64681 -139.2886,-78.64681 z"
       id="path4499"
       inkscape:connector-curvature="0" />
    <path
       style="fill:none;stroke:#cd9d7d;stroke-width:6.33393812px;stroke-linecap:butt;stroke-linejoin:miter;stroke-opacity:1"
       d="m -101.01614,-434.99276 c 0,0 5.089789,87.09163 -15.83484,96.13997 32.235196,24.31778 49.76664,20.92462 49.76664,20.92462"
       id="path4509"
       inkscape:connector-curvature="0" />
    <circle
       style="fill:#8800aa;fill-opacity:0.1;stroke:none;stroke-width:6.34391308;stroke-miterlimit:4;stroke-dasharray:none;stroke-opacity:1"
       id="path4512"
       cx="356.07043"
       cy="-243.84366"
       r="28.27651"
       transform="scale(-1,1)" />
    <circle
       r="28.27651"
       cy="-243.84366"
       cx="-185.70752"
       id="circle4514"
       style="fill:#8800aa;fill-opacity:0.1;stroke:none;stroke-width:6.34391308;stroke-miterlimit:4;stroke-dasharray:none;stroke-opacity:1"
       transform="scale(-1,1)" />
    <path
       style="fill:#2b0000;fill-opacity:1;stroke:none;stroke-width:6.33393812px;stroke-linecap:butt;stroke-linejoin:miter;stroke-opacity:1"
       d="m -51.46505,-223.1762 c 0,0 -18.08717,28.91867 -24.32059,27.79448 -6.233234,-1.12276 -13.07982,-34.5389 -13.07982,-34.5389 0,0 4.078372,-13.96522 10.311824,-12.84128 6.233226,1.12275 8.388376,16.21337 8.388376,16.21337 0,0 8.59649,-12.74432 14.82989,-11.62013 6.23327,1.12275 3.87032,14.99246 3.87032,14.99246 z"
       id="path4538"
       inkscape:connector-curvature="0"
       sodipodi:nodetypes="cscscsc" />
  </g>
</svg>
