<?xml version="1.0" encoding="UTF-8" standalone="no"?>
<!-- Created with Inkscape (http://www.inkscape.org/) -->

<svg
   xmlns:dc="http://purl.org/dc/elements/1.1/"
   xmlns:cc="http://creativecommons.org/ns#"
   xmlns:rdf="http://www.w3.org/1999/02/22-rdf-syntax-ns#"
   xmlns:svg="http://www.w3.org/2000/svg"
   xmlns="http://www.w3.org/2000/svg"
   xmlns:xlink="http://www.w3.org/1999/xlink"
   xmlns:sodipodi="http://sodipodi.sourceforge.net/DTD/sodipodi-0.dtd"
   xmlns:inkscape="http://www.inkscape.org/namespaces/inkscape"
   width="610.38312"
   height="1981.0988"
   viewBox="0 0 161.4972 524.16573"
   version="1.1"
   id="svg8"
   inkscape:version="0.92+devel unknown"
   sodipodi:docname="adorina broken.svg">
  <title
     id="title4301">Adorina</title>
  <defs
     id="defs2">
    <linearGradient
       inkscape:collect="always"
       id="linearGradient4424">
      <stop
         style="stop-color:#999999;stop-opacity:1;"
         offset="0"
         id="stop4420" />
      <stop
         style="stop-color:#949494;stop-opacity:1"
         offset="1"
         id="stop4422" />
    </linearGradient>
    <linearGradient
       inkscape:collect="always"
       id="linearGradient4416">
      <stop
         style="stop-color:#b3b3b3;stop-opacity:1;"
         offset="0"
         id="stop4412" />
      <stop
         style="stop-color:#bdbdbd;stop-opacity:1"
         offset="1"
         id="stop4414" />
    </linearGradient>
    <linearGradient
       inkscape:collect="always"
       id="linearGradient4408">
      <stop
         style="stop-color:#999999;stop-opacity:1;"
         offset="0"
         id="stop4404" />
      <stop
         style="stop-color:#939393;stop-opacity:1"
         offset="1"
         id="stop4406" />
    </linearGradient>
    <linearGradient
       inkscape:collect="always"
       id="linearGradient4400">
      <stop
         style="stop-color:#a7a7a7;stop-opacity:1;"
         offset="0"
         id="stop4396" />
      <stop
         style="stop-color:#a7a7a7;stop-opacity:0;"
         offset="1"
         id="stop4398" />
    </linearGradient>
    <linearGradient
       inkscape:collect="always"
       id="linearGradient4392">
      <stop
         style="stop-color:#b3b3b3;stop-opacity:1;"
         offset="0"
         id="stop4388" />
      <stop
         style="stop-color:#a7a7a7;stop-opacity:1"
         offset="1"
         id="stop4390" />
    </linearGradient>
    <linearGradient
       inkscape:collect="always"
       id="linearGradient4393">
      <stop
         style="stop-color:#b3cdff;stop-opacity:1;"
         offset="0"
         id="stop4389" />
      <stop
         style="stop-color:#9eb5e1;stop-opacity:1"
         offset="1"
         id="stop4391" />
    </linearGradient>
    <linearGradient
       inkscape:collect="always"
       id="linearGradient4384">
      <stop
         style="stop-color:#dcb3ff;stop-opacity:1;"
         offset="0"
         id="stop4380" />
      <stop
         style="stop-color:#b290ce;stop-opacity:1"
         offset="1"
         id="stop4382" />
    </linearGradient>
    <linearGradient
       inkscape:collect="always"
       id="linearGradient4376">
      <stop
         style="stop-color:#b290cf;stop-opacity:1;"
         offset="0"
         id="stop4372" />
      <stop
         style="stop-color:#dcb3ff;stop-opacity:1"
         offset="1"
         id="stop4374" />
    </linearGradient>
    <linearGradient
       inkscape:collect="always"
       id="linearGradient4368">
      <stop
         style="stop-color:#b290cf;stop-opacity:1"
         offset="0"
         id="stop4364" />
      <stop
         style="stop-color:#dcb3ff;stop-opacity:1"
         offset="1"
         id="stop4366" />
    </linearGradient>
    <linearGradient
       inkscape:collect="always"
       id="linearGradient4330">
      <stop
         style="stop-color:#b290ce;stop-opacity:1;"
         offset="0"
         id="stop4326" />
      <stop
         style="stop-color:#dcb3ff;stop-opacity:1"
         offset="1"
         id="stop4328" />
    </linearGradient>
    <linearGradient
       inkscape:collect="always"
       id="linearGradient4322">
      <stop
         style="stop-color:#e8e8e8;stop-opacity:1"
         offset="0"
         id="stop4318" />
      <stop
         style="stop-color:#ffffff;stop-opacity:1"
         offset="1"
         id="stop4320" />
    </linearGradient>
    <linearGradient
       inkscape:collect="always"
       xlink:href="#linearGradient4322"
       id="linearGradient4324"
       x1="423.33145"
       y1="121.36621"
       x2="425.24454"
       y2="129.23283"
       gradientUnits="userSpaceOnUse" />
    <linearGradient
       inkscape:collect="always"
       xlink:href="#linearGradient4330"
       id="linearGradient4332"
       x1="426.44077"
       y1="123.0491"
       x2="427.72519"
       y2="136.96118"
       gradientUnits="userSpaceOnUse" />
    <linearGradient
       inkscape:collect="always"
       xlink:href="#linearGradient4368"
       id="linearGradient4370"
       x1="416.9252"
       y1="524.57263"
       x2="410.16122"
       y2="326.77371"
       gradientUnits="userSpaceOnUse" />
    <linearGradient
       inkscape:collect="always"
       xlink:href="#linearGradient4376"
       id="linearGradient4378"
       x1="389.82132"
       y1="292.12491"
       x2="385.05139"
       y2="187.88092"
       gradientUnits="userSpaceOnUse"
       gradientTransform="matrix(-0.98697369,-0.16088177,-0.16088177,0.98697369,799.5932,64.741659)" />
    <linearGradient
       inkscape:collect="always"
       xlink:href="#linearGradient4384"
       id="linearGradient4386"
       x1="485.6199"
       y1="216.31833"
       x2="442.14325"
       y2="272.82401"
       gradientUnits="userSpaceOnUse"
       gradientTransform="matrix(-0.95954488,-0.28155573,-0.28155573,0.95954488,994.91334,142.51565)" />
    <linearGradient
       inkscape:collect="always"
       xlink:href="#linearGradient4393"
       id="linearGradient4395"
       x1="1567.5306"
       y1="1131.1255"
       x2="1595.6777"
       y2="1831.2677"
       gradientUnits="userSpaceOnUse" />
    <radialGradient
       inkscape:collect="always"
       xlink:href="#linearGradient4392"
       id="radialGradient4394"
       cx="60.978584"
       cy="246.32639"
       fx="60.978584"
       fy="246.32639"
       r="0.73407245"
       gradientTransform="matrix(1,0,0,1.6477663,0,-159.56193)"
       gradientUnits="userSpaceOnUse" />
    <linearGradient
       inkscape:collect="always"
       xlink:href="#linearGradient4400"
       id="linearGradient4402"
       x1="66.444138"
       y1="248.70355"
       x2="67.693077"
       y2="247.96925"
       gradientUnits="userSpaceOnUse"
       gradientTransform="matrix(2.106656,0,0,2.106656,-75.000313,-273.15223)" />
    <radialGradient
       inkscape:collect="always"
       xlink:href="#linearGradient4408"
       id="radialGradient4410"
       cx="69.27372"
       cy="246.21779"
       fx="69.27372"
       fy="246.21779"
       r="0.73407245"
       gradientTransform="matrix(1,0,0,1.6477663,0,-159.49158)"
       gradientUnits="userSpaceOnUse" />
    <radialGradient
       inkscape:collect="always"
       xlink:href="#linearGradient4416"
       id="radialGradient4418"
       cx="71.788658"
       cy="246.46478"
       fx="71.788658"
       fy="246.46478"
       r="1.6502881"
       gradientTransform="matrix(1,0,0,1.3333333,0,-82.154928)"
       gradientUnits="userSpaceOnUse" />
    <radialGradient
       inkscape:collect="always"
       xlink:href="#linearGradient4424"
       id="radialGradient4426"
       cx="61.077126"
       cy="246.20302"
       fx="61.077126"
       fy="246.20302"
       r="1.5486915"
       gradientTransform="matrix(1,0,0,1.6477662,0,-159.482)"
       gradientUnits="userSpaceOnUse" />
    <linearGradient
       inkscape:collect="always"
       xlink:href="#linearGradient4322-3"
       id="linearGradient4510"
       gradientUnits="userSpaceOnUse"
       gradientTransform="matrix(-0.40238261,-1.1111594,1.1241627,-0.45266922,408.03795,773.69379)"
       x1="413.11963"
       y1="113.63715"
       x2="408.65634"
       y2="103.51543" />
    <linearGradient
       inkscape:collect="always"
       id="linearGradient4322-3">
      <stop
         style="stop-color:#cbcbcb;stop-opacity:1"
         offset="0"
         id="stop4318-6" />
      <stop
         style="stop-color:#e9e9e9;stop-opacity:1"
         offset="1"
         id="stop4320-7" />
    </linearGradient>
    <linearGradient
       inkscape:collect="always"
       xlink:href="#linearGradient4322-3"
       id="linearGradient4471"
       gradientUnits="userSpaceOnUse"
       gradientTransform="matrix(0.64529387,-0.99004182,-0.99122861,-0.69722094,331.98191,756.83719)"
       x1="413.11963"
       y1="113.63715"
       x2="408.65634"
       y2="103.51543" />
    <linearGradient
       inkscape:collect="always"
       xlink:href="#linearGradient4368"
       id="linearGradient4354"
       gradientUnits="userSpaceOnUse"
       x1="416.9252"
       y1="524.57263"
       x2="410.16122"
       y2="326.77371" />
    <linearGradient
       gradientTransform="matrix(-1,0,0,1,846.81075,6.0322008e-6)"
       inkscape:collect="always"
       xlink:href="#linearGradient4376"
       id="linearGradient4354-3"
       gradientUnits="userSpaceOnUse"
       x1="416.9252"
       y1="524.57263"
       x2="410.16122"
       y2="326.77371" />
  </defs>
  <sodipodi:namedview
     id="base"
     pagecolor="#ffffff"
     bordercolor="#666666"
     borderopacity="1.0"
     inkscape:pageopacity="0.0"
     inkscape:pageshadow="2"
     inkscape:zoom="1.4"
     inkscape:cx="318.96158"
     inkscape:cy="1513.3003"
     inkscape:document-units="mm"
     inkscape:current-layer="g4552"
     showgrid="false"
     inkscape:window-width="1920"
     inkscape:window-height="1016"
     inkscape:window-x="0"
     inkscape:window-y="0"
     inkscape:window-maximized="1"
     units="px"
     inkscape:pagecheckerboard="true"
     inkscape:document-rotation="0"
     fit-margin-top="0"
     fit-margin-left="0"
     fit-margin-right="0"
     fit-margin-bottom="0">
    <inkscape:grid
       type="xygrid"
       id="grid4485"
       originx="-342.98761"
       originy="240.53168" />
  </sodipodi:namedview>
  <metadata
     id="metadata5">
    <rdf:RDF>
      <cc:Work
         rdf:about="">
        <dc:format>image/svg+xml</dc:format>
        <dc:type
           rdf:resource="http://purl.org/dc/dcmitype/StillImage" />
        <dc:title>Adorina</dc:title>
        <cc:license
           rdf:resource="http://creativecommons.org/licenses/by/4.0/" />
        <dc:creator>
          <cc:Agent>
            <dc:title>Maxwell Paul Brickner</dc:title>
          </cc:Agent>
        </dc:creator>
      </cc:Work>
      <cc:License
         rdf:about="http://creativecommons.org/licenses/by/4.0/">
        <cc:permits
           rdf:resource="http://creativecommons.org/ns#Reproduction" />
        <cc:permits
           rdf:resource="http://creativecommons.org/ns#Distribution" />
        <cc:requires
           rdf:resource="http://creativecommons.org/ns#Notice" />
        <cc:requires
           rdf:resource="http://creativecommons.org/ns#Attribution" />
        <cc:permits
           rdf:resource="http://creativecommons.org/ns#DerivativeWorks" />
      </cc:License>
    </rdf:RDF>
  </metadata>
  <g
     inkscape:label="Head"
     inkscape:groupmode="layer"
     id="layer1"
     transform="translate(-342.98759,-13.36593)">
    <path
       style="fill:url(#linearGradient4324);fill-opacity:1;stroke:none;stroke-width:1.28707409px;stroke-linecap:butt;stroke-linejoin:miter;stroke-opacity:1"
       d="m 413.6912,121.61964 c 0,0 5.68811,14.7891 4.71301,21.9399 22.58994,-5.20056 23.56505,-2.27523 23.56505,-2.27523 0,0 -7.80085,-21.61487 -8.61343,-25.67782 -0.8126,-4.06296 -19.66463,6.01315 -19.66463,6.01315 z"
       id="path4612"
       inkscape:connector-curvature="0" />
  </g>
  <g
     inkscape:groupmode="layer"
     id="layer3"
     inkscape:label="Body"
     transform="translate(-342.98759,-2.1159469)">
    <path
       style="fill:url(#linearGradient4471);fill-opacity:1;stroke:none;stroke-width:0.31653613px;stroke-linecap:butt;stroke-linejoin:miter;stroke-opacity:1"
       d="m 489.46188,258.97587 c -0.91925,6.0256 17.71482,25.88693 14.69055,29.85428 -0.92149,0.82022 -4.63251,-5.52342 -6.32565,-4.26053 -2.16164,1.49323 6.37452,7.2239 3.10731,9.2746 -1.94717,1.79418 -6.11265,-6.80626 -6.9656,-6.46342 -0.90961,0.36621 5.6936,6.95665 3.01454,8.86106 -1.87829,1.33543 -5.94089,-5.84342 -6.68808,-5.75225 -0.63637,0.0772 3.04984,5.26141 1.19454,6.44506 -1.1868,0.75846 -2.85352,-1.63104 -4.19212,-3.32617 -4.26076,-5.39475 -5.83807,-11.2468 -5.83807,-11.2468 0,0 0.63967,6.31314 -1.59413,6.90683 -2.23389,0.59366 -1.70011,-6.82463 -1.77916,-10.34299 -0.0791,-3.51826 -3.09436,-20.56253 -3.09436,-20.56253 z"
       id="path4469"
       inkscape:connector-curvature="0"
       sodipodi:nodetypes="ccccsssscccscc" />
    <path
       sodipodi:nodetypes="ccccsssscccscc"
       inkscape:connector-curvature="0"
       id="path4508"
       d="m 368.30508,253.03351 c -0.47981,6.0764 -23.15398,21.16225 -21.11468,25.71498 0.71004,1.00883 5.77055,-4.32077 7.13089,-2.70488 1.76392,1.94705 -7.8546,5.57893 -5.14147,8.321 1.48645,2.19112 7.50436,-5.23206 8.25658,-4.70365 0.80207,0.56409 -7.13066,5.47409 -4.95678,7.93953 1.52405,1.72876 7.11743,-4.3338 7.82411,-4.07456 0.60196,0.2204 -4.16985,4.42678 -2.63355,6.00251 0.98244,1.00924 3.1504,-0.93695 4.84045,-2.28195 5.37926,-4.2803 8.25018,-9.61811 8.25018,-9.61811 0,0 -2.06322,6.00067 -0.0238,7.08837 2.03952,1.08769 3.21239,-6.25672 4.09212,-9.66424 0.87975,-3.40741 11.09897,-18.7796 11.09897,-18.7796 z"
       style="fill:url(#linearGradient4510);fill-opacity:1;stroke:none;stroke-width:0.31653613px;stroke-linecap:butt;stroke-linejoin:miter;stroke-opacity:1" />
    <path
       style="fill:url(#linearGradient4386);fill-opacity:1;stroke:none;stroke-width:1.05241191px;stroke-linecap:butt;stroke-linejoin:miter;stroke-opacity:1"
       d="m 489.09203,183.58486 c -13.64155,31.47166 -5.81276,44.81191 0.36985,75.39101 -3.2174,11.69884 -3.10784,15.6474 -11.95008,15.16167 -13.36952,-34.99804 -29.93264,-82.86625 0.50187,-110.71469 13.77297,-11.73114 13.73357,15.42532 11.07836,20.16201 z"
       id="path4640"
       inkscape:connector-curvature="0"
       sodipodi:nodetypes="ccccc" />
    <path
       sodipodi:nodetypes="cccccc"
       inkscape:connector-curvature="0"
       id="path4642"
       d="m 380.55789,172.20239 c 0,0 -9.04951,69.65912 -12.59536,79.29021 -3.54589,9.63114 14.0359,25.01136 13.58231,17.69234 -0.45356,-7.31917 27.78475,-57.99644 13.94684,-111.15599 -15.9637,-19.91494 -14.93377,14.17344 -14.93377,14.17344 z"
       style="fill:url(#linearGradient4378);fill-opacity:1;stroke:none;stroke-width:1.28707409px;stroke-linecap:butt;stroke-linejoin:miter;stroke-opacity:1" />
    <path
       style="fill:#dcb3ff;fill-opacity:1;stroke:none;stroke-width:4.86453199px;stroke-linecap:butt;stroke-linejoin:miter;stroke-opacity:1"
       d="m 1577.9668,481.97461 c -60.0331,14.71561 -141.3896,82.47332 -135.3809,144.30273 23.4172,101.10391 62.7072,195.77145 30.5059,269.90625 -29.4835,65.10981 -54.0078,178.00781 -54.0078,178.00781 l 334.6269,1.6094 c 0,0 -36.5432,-147.65283 -42.6855,-174.67971 -16.4413,-99.98755 92.4702,-201.7598 133.0332,-286.10351 -57.5422,-51.38771 -110.4732,-109.19144 -175.3574,-129.28711 -63.5417,30.52146 -105.8214,49.03265 -90.7344,-3.75586 z"
       transform="scale(0.26458333)"
       id="path4617"
       inkscape:connector-curvature="0"
       sodipodi:nodetypes="ccccccccc" />
    <path
       style="fill:#d6ada7;fill-opacity:1;stroke:none;stroke-width:1.28707409px;stroke-linecap:butt;stroke-linejoin:miter;stroke-opacity:1"
       d="m 418.02952,124.25382 c 0.96927,3.82032 -0.8332,4.38207 -1.0663,6.09175 1.09338,5.49695 1.13717,5.4633 3.8178,7.18707 2.9283,1.88306 10.69653,-0.70461 12.50696,-0.90049 7.62576,-0.82511 7.97163,-8.5212 7.97163,-8.5212 0,0 -0.94571,-2.62043 -2.21286,-6.20797 -9.60253,-5.95302 -16.45869,2.97243 -21.01722,2.35084 z"
       id="path4612-3"
       inkscape:connector-curvature="0"
       sodipodi:nodetypes="ccsscccc" />
    <path
       style="fill:url(#linearGradient4332);fill-opacity:1;stroke:none;stroke-width:0.37641236px;stroke-linecap:butt;stroke-linejoin:miter;stroke-opacity:1"
       d="m 410.61446,119.15703 c 0.94104,1.88206 1.20991,2.82309 0,5.24288 -1.2099,2.41981 -1.88204,1.88206 -0.80655,3.2264 1.07544,1.34433 1.34431,3.62969 0.26882,5.64618 -1.07544,2.0165 1.88207,9.94805 10.62021,10.48578 8.73815,0.53773 20.56826,-2.4198 23.2569,-7.79712 2.68868,-5.37731 2.55426,-7.39381 1.07549,-8.73814 -1.47876,-1.34433 -0.53774,-1.88206 0,-3.89856 0.53774,-2.01649 -1.2099,-1.74763 -1.2099,-2.95751 0,-1.20991 1.47878,-0.94104 1.07545,-3.09197 -0.40329,-2.15093 -1.6132,-3.89856 -3.09193,-2.0165 -1.47877,1.88207 -1.61322,2.68866 -3.09197,2.41979 -1.47877,-0.26885 -3.62971,-1.07545 -4.57073,0.40332 -0.94104,1.47875 -3.89854,1.61318 -4.43629,1.07545 -0.53774,-0.53773 -3.36083,-1.2099 -5.10843,0.26887 -1.74766,1.47876 -2.28539,2.28536 -4.43629,1.20989 -2.15094,-1.07546 -2.01652,-2.55421 -4.57074,-1.34433 -2.55423,1.20991 -4.97404,-0.13444 -4.97404,-0.13444 z"
       id="path4523"
       inkscape:connector-curvature="0" />
    <path
       style="fill:url(#linearGradient4395);fill-opacity:1;stroke:none;stroke-width:1.53067648px;stroke-linecap:butt;stroke-linejoin:miter;stroke-opacity:1"
       d="m 1419.084,1074.1914 c 0,0 -41.9309,390.1514 -35.75,431.875 6.8418,46.1857 72.8475,372.2903 104.3984,381.0449 31.5511,8.7546 67.4457,8.6127 66.127,-15.3398 -1.3189,-23.9527 -28.6679,-327.8717 -39.6153,-372.5684 -9.4209,-38.4646 23.1517,-217.4201 35.9707,-264.1523 2.4839,-1.8623 4.9873,-3.7607 7.4844,-5.6465 2.7982,1.0524 5.6471,1.8788 8.5567,2.4395 0,0 45.0217,218.0931 47.4757,259.6746 2.4729,41.9029 14.367,391.3048 45.4872,398.6554 31.1204,7.3506 66.8499,5.5458 66.3046,-18.4961 -0.5453,-24.042 29.648,-306.4408 20.1845,-350.9118 -5.7378,-26.9633 -1.8468,-176.7829 10.2745,-295.3714 7.8707,-77.0021 -2.2715,-149.5937 -2.2715,-149.5937 z"
       transform="scale(0.26458333)"
       id="path4300"
       inkscape:connector-curvature="0"
       sodipodi:nodetypes="ccccccccccscscc" />
    <g
       id="g4346"
       style="fill:url(#linearGradient4370);fill-opacity:1;stroke:none">
      <path
         sodipodi:nodetypes="cccccsscccc"
         inkscape:connector-curvature="0"
         id="path4302"
         d="m 352.60021,525.62704 c 4.99136,0.37052 36.72646,1.19539 38.34911,0.128 4.87915,-8.22892 8.16114,0.5951 9.12015,0.46575 1.39575,-0.25217 14.05461,0.14026 14.20963,-1.63583 0.15503,-1.77614 2.99799,-26.869 0.94844,-30.33448 -0.30507,-0.51584 1.00084,-8.63989 -3.46718,-11.66878 -10.06046,-6.82002 -21.06131,-0.71945 -26.14015,0.82438 -2.65833,0.80804 3.0906,11.27388 3.90145,14.19944 -6.32537,16.65496 -31.77462,18.25677 -45.83957,12.54803 -3.16063,7.36695 5.28449,14.97366 8.91812,15.47341 z"
         style="fill:url(#linearGradient4354);fill-opacity:1;stroke:none;stroke-width:0.29124978px;stroke-linecap:butt;stroke-linejoin:miter;stroke-opacity:1" />
      <path
         sodipodi:nodetypes="cccccsscccc"
         inkscape:connector-curvature="0"
         id="path4302-5"
         d="m 494.21053,525.62704 c -4.99136,0.37052 -36.72645,1.19539 -38.3491,0.128 -4.87916,-8.22892 -8.16115,0.5951 -9.12016,0.46575 -1.39575,-0.25217 -14.05461,0.14026 -14.20963,-1.63583 -0.15503,-1.77614 -2.99799,-26.869 -0.94844,-30.33448 0.30507,-0.51584 -1.00084,-8.63989 3.46719,-11.66878 10.06045,-6.82002 21.0613,-0.71945 26.14014,0.82438 2.65834,0.80804 -3.09059,11.27388 -3.90144,14.19944 6.32537,16.65496 31.77461,18.25677 45.83956,12.54803 3.16063,7.36695 -5.28449,14.97366 -8.91812,15.47341 z"
         style="fill:url(#linearGradient4354-3);fill-opacity:1;stroke:none;stroke-width:0.29124978px;stroke-linecap:butt;stroke-linejoin:miter;stroke-opacity:1" />
    </g>
    <path
       style="fill:none;stroke:#ffffff;stroke-width:0.76499999;stroke-linecap:butt;stroke-linejoin:miter;stroke-miterlimit:4;stroke-dasharray:0.765, 0.765;stroke-dashoffset:0;stroke-opacity:1"
       d="m 440.40131,295.55707 c 0,0 -2.41403,15.30178 13.47501,15.30472"
       id="path4309"
       inkscape:connector-curvature="0" />
    <path
       inkscape:connector-curvature="0"
       id="path4313"
       d="m 391.80987,295.55707 c 0,0 2.41403,15.30178 -13.47501,15.30472"
       style="fill:none;stroke:#ffffff;stroke-width:0.76499999;stroke-linecap:butt;stroke-linejoin:miter;stroke-miterlimit:4;stroke-dasharray:0.765, 0.765;stroke-dashoffset:0;stroke-opacity:1" />
    <path
       style="fill:#000000;fill-opacity:1;stroke:#070808;stroke-width:0.3656261px;stroke-linecap:butt;stroke-linejoin:miter;stroke-opacity:1"
       d="m 453.46164,63.255771 c 0,0 6.09409,5.586249 9.74131,5.124557 1.98517,-2.308344 21.67225,-56.989934 -27.68727,-65.0859533 -49.35953,-8.0960068 -64.50686,35.5180023 -65.29037,44.6586193 -0.78346,9.140663 16.97549,23.765685 44.13629,7.834842 37.86841,6.790225 39.10004,7.467935 39.10004,7.467935 z"
       id="path4522"
       inkscape:connector-curvature="0" />
    <path
       style="fill:#ffffff;stroke:none;stroke-width:1.25019228px;stroke-linecap:butt;stroke-linejoin:miter;stroke-opacity:1"
       d="m 381.50334,56.146562 c 0,0 0,31.254792 12.50192,43.756742 12.50193,12.501906 25.00385,12.501906 25.00385,12.501906 0,0 8.04527,0.39173 19.63312,-10.13455 16.68272,-15.15441 24.12362,-58.62601 24.12362,-58.62601 0,0 0,-31.254898 -50.00769,-31.254843 -31.25481,4.2e-5 -31.25482,43.756755 -31.25482,43.756755 z"
       id="path4487"
       inkscape:connector-curvature="0"
       sodipodi:nodetypes="cccscsc" />
    <ellipse
       ry="12.501923"
       rx="10.827558"
       cy="49.895638"
       cx="436.08771"
       id="ellipse4497"
       style="fill:#ffffff;fill-opacity:1;stroke:none;stroke-width:5.07762432;stroke-linecap:round;stroke-linejoin:round;stroke-miterlimit:4;stroke-dasharray:none;stroke-opacity:1;paint-order:stroke fill markers" />
    <g
       id="g4552"
       transform="matrix(5.2676003,-0.41351072,0.41351072,5.2676003,-46.084391,-1217.9755)">
      <ellipse
         ry="2.8287587"
         rx="1.5175418"
         cy="247.2708"
         cx="63.509869"
         id="path4491"
         style="fill:#b3b3b3;fill-opacity:1;stroke:none;stroke-width:1.10744154;stroke-linecap:round;stroke-linejoin:round;stroke-miterlimit:4;stroke-dasharray:none;stroke-opacity:1;paint-order:stroke fill markers" />
      <path
         inkscape:connector-curvature="0"
         id="path4489"
         d="m 66.154509,246.6997 c 0,0 0.478125,0.7649 -1.179872,4.08091 3.797635,-1.13347 4.973991,0 4.973991,0"
         style="fill:url(#linearGradient4402);fill-opacity:1;stroke:none;stroke-width:0.33156896;stroke-linecap:butt;stroke-linejoin:miter;stroke-miterlimit:4;stroke-dasharray:none;stroke-opacity:1"
         sodipodi:nodetypes="ccc" />
      <ellipse
         ry="2.953352"
         rx="1.5843822"
         cy="247.06468"
         cx="63.689255"
         id="ellipse4537"
         style="fill:#808080;fill-opacity:1;stroke:none;stroke-width:1.15621901;stroke-linecap:round;stroke-linejoin:round;stroke-miterlimit:4;stroke-dasharray:none;stroke-opacity:1;paint-order:stroke fill markers" />
      <ellipse
         ry="2.5998526"
         rx="1.9498893"
         cy="246.90018"
         cx="72.014168"
         id="ellipse4539"
         style="fill:#808080;fill-opacity:1;stroke:none;stroke-width:0.98262137;stroke-linecap:round;stroke-linejoin:round;stroke-miterlimit:4;stroke-dasharray:none;stroke-opacity:1;paint-order:stroke fill markers" />
      <ellipse
         style="fill:url(#radialGradient4426);fill-opacity:1;stroke:none;stroke-width:1.06258881;stroke-linecap:round;stroke-linejoin:round;stroke-miterlimit:4;stroke-dasharray:none;stroke-opacity:1;paint-order:stroke fill markers"
         id="ellipse4533"
         cx="61.077126"
         cy="246.20302"
         rx="1.5486915"
         ry="2.5518816"
         transform="matrix(0.999958,0.0091649,0.01036782,0.99994625,0,0)" />
      <ellipse
         style="fill:#999999;fill-opacity:1;stroke:none;stroke-width:0.92097515;stroke-linecap:round;stroke-linejoin:round;stroke-miterlimit:4;stroke-dasharray:none;stroke-opacity:1;paint-order:stroke fill markers"
         id="ellipse4535"
         cx="71.92131"
         cy="246.74702"
         rx="1.8275601"
         ry="2.4367468" />
      <ellipse
         ry="2.2003841"
         rx="1.6502881"
         cy="246.46478"
         cx="71.788658"
         id="path4493"
         style="fill:url(#radialGradient4418);fill-opacity:1;stroke:none;stroke-width:0.83164126;stroke-linecap:round;stroke-linejoin:round;stroke-miterlimit:4;stroke-dasharray:none;stroke-opacity:1;paint-order:stroke fill markers" />
      <path
         inkscape:connector-curvature="0"
         id="path4505"
         d="m 70.102771,246.17401 c 0,0 0.366165,-2.2088 2.315105,-2.13793 1.948939,0.0709 1.921667,2.46877 1.921667,2.46877 0,0 0.263511,-2.75225 -1.768114,-2.74044 -2.031624,0.0118 -2.468658,2.4096 -2.468658,2.4096 z"
         style="fill:#000000;fill-opacity:1;stroke:#000000;stroke-width:0.26458332px;stroke-linecap:butt;stroke-linejoin:miter;stroke-opacity:1"
         sodipodi:nodetypes="ccccc" />
      <path
         sodipodi:nodetypes="cc"
         inkscape:connector-curvature="0"
         id="path4507"
         d="m 74.422221,246.34482 0.332695,0.10606"
         style="fill:#d5f6ff;fill-opacity:1;stroke:#d5f6ff;stroke-width:0.26458332px;stroke-linecap:butt;stroke-linejoin:miter;stroke-opacity:1" />
      <path
         sodipodi:nodetypes="ccccc"
         style="fill:#d5f6ff;fill-opacity:1;stroke:#000000;stroke-width:0.21930759px;stroke-linecap:butt;stroke-linejoin:miter;stroke-opacity:1"
         d="m 62.159714,246.34501 c 0,0 0.343183,-2.16265 1.682184,-2.09178 1.339,0.0709 1.298954,2.30735 1.298954,2.30735 0,0 0.08568,-2.63698 -1.310127,-2.62517 -1.395808,0.0118 -1.671011,2.4096 -1.671011,2.4096 z"
         id="path4509"
         inkscape:connector-curvature="0" />
      <path
         style="fill:#d5f6ff;fill-opacity:1;stroke:#000000;stroke-width:0.21930759px;stroke-linecap:butt;stroke-linejoin:miter;stroke-opacity:1"
         d="m 61.877892,246.1383 0.228575,0.10606"
         id="path4511"
         inkscape:connector-curvature="0"
         sodipodi:nodetypes="cc" />
      <ellipse
         transform="matrix(0.999958,0.0091649,0.01036782,0.99994625,0,0)"
         ry="1.2095798"
         rx="0.73407245"
         cy="246.32639"
         cx="60.978584"
         id="ellipse4541"
         style="fill:url(#radialGradient4394);fill-opacity:1;stroke:none;stroke-width:0.50366205;stroke-linecap:round;stroke-linejoin:round;stroke-miterlimit:4;stroke-dasharray:none;stroke-opacity:1;paint-order:stroke fill markers" />
      <ellipse
         style="fill:url(#radialGradient4410);fill-opacity:1;stroke:none;stroke-width:0.50366205;stroke-linecap:round;stroke-linejoin:round;stroke-miterlimit:4;stroke-dasharray:none;stroke-opacity:1;paint-order:stroke fill markers"
         id="ellipse4543"
         cx="69.27372"
         cy="246.21779"
         rx="0.73407245"
         ry="1.2095798"
         transform="matrix(0.999958,0.0091649,0.01036782,0.99994625,0,0)" />
    </g>
    <path
       style="fill:none;fill-opacity:1;stroke:#e6e6e6;stroke-width:2.02447462;stroke-linecap:round;stroke-linejoin:miter;stroke-miterlimit:4;stroke-dasharray:none;stroke-opacity:1;paint-order:stroke fill markers"
       d="m 442.59828,88.023658 c -8.62292,3.086104 -40.5043,5.096206 -50.40719,4.099485"
       id="path4520"
       inkscape:connector-curvature="0"
       sodipodi:nodetypes="cc" />
    <path
       style="fill:#000000;fill-opacity:1;stroke:#070808;stroke-width:0.3656261px;stroke-linecap:butt;stroke-linejoin:miter;stroke-opacity:1"
       d="m 373.12614,48.575869 c 0,0 8.45132,6.388703 29.5818,-5.084236 21.13047,-11.472952 24.92847,-21.348019 23.94748,-32.138178 -8.56197,-3.0434816 -33.5035,0.214042 -42.10436,11.283508 -8.60087,11.06944 -11.42492,25.938906 -11.42492,25.938906 z"
       id="path4580"
       inkscape:connector-curvature="0" />
    <path
       inkscape:connector-curvature="0"
       id="path4582"
       d="m 465.38245,51.496366 c 0,0 -8.79734,5.903159 -29.24895,-6.740313 -20.4516,-12.64347 -23.68805,-22.716564 -22.10164,-33.434451 8.71965,-2.5570139 33.43841,2.098462 41.40296,13.634221 7.96453,11.535759 9.94763,26.540543 9.94763,26.540543 z"
       style="fill:#000000;fill-opacity:1;stroke:#070808;stroke-width:0.3656261px;stroke-linecap:butt;stroke-linejoin:miter;stroke-opacity:1" />
    <path
       style="fill:none;stroke:#808080;stroke-width:1.19533801;stroke-linecap:round;stroke-linejoin:miter;stroke-miterlimit:4;stroke-dasharray:none;stroke-opacity:1"
       d="m 421.04665,27.220393 c 0,0 16.19205,17.758977 40.7412,22.329316"
       id="path4540"
       inkscape:connector-curvature="0" />
    <path
       inkscape:connector-curvature="0"
       id="path4542"
       d="m 422.87479,24.41291 c 0,0 16.19205,17.75898 40.7412,22.329315"
       style="fill:none;fill-opacity:1;stroke:#999999;stroke-width:1.19533801;stroke-linecap:round;stroke-linejoin:miter;stroke-miterlimit:4;stroke-dasharray:none;stroke-opacity:1" />
    <path
       style="fill:none;fill-opacity:1;stroke:#b3b3b3;stroke-width:1.19533801;stroke-linecap:round;stroke-linejoin:miter;stroke-miterlimit:4;stroke-dasharray:none;stroke-opacity:1"
       d="m 424.70291,21.605427 c 0,0 16.19204,17.758978 40.7412,22.329315"
       id="path4544"
       inkscape:connector-curvature="0" />
  </g>
  <g
     inkscape:groupmode="layer"
     id="layer2"
     inkscape:label="Decor"
     style="display:inline;opacity:0.18600003"
     transform="translate(-342.98759,-13.36593)" />
</svg>
