<?xml version="1.0" encoding="UTF-8" standalone="no"?>
<!-- Created with Inkscape (http://www.inkscape.org/) -->

<svg
   xmlns:dc="http://purl.org/dc/elements/1.1/"
   xmlns:cc="http://creativecommons.org/ns#"
   xmlns:rdf="http://www.w3.org/1999/02/22-rdf-syntax-ns#"
   xmlns:svg="http://www.w3.org/2000/svg"
   xmlns="http://www.w3.org/2000/svg"
   xmlns:sodipodi="http://sodipodi.sourceforge.net/DTD/sodipodi-0.dtd"
   xmlns:inkscape="http://www.inkscape.org/namespaces/inkscape"
   width="1920"
   height="1080"
   viewBox="0 0 507.99998 285.75"
   version="1.1"
   id="svg8"
   inkscape:version="0.92+devel unknown"
   sodipodi:docname="moe.svg"
   inkscape:export-filename="/home/mbrickn/moe mech.png"
   inkscape:export-xdpi="90"
   inkscape:export-ydpi="90">
  <defs
     id="defs2" />
  <sodipodi:namedview
     id="base"
     pagecolor="#ffffff"
     bordercolor="#666666"
     borderopacity="1.0"
     inkscape:pageopacity="0.0"
     inkscape:pageshadow="2"
     inkscape:zoom="0.24748737"
     inkscape:cx="-241.98796"
     inkscape:cy="330.69558"
     inkscape:document-units="mm"
     inkscape:current-layer="g4543"
     showgrid="true"
     inkscape:window-width="1920"
     inkscape:window-height="1016"
     inkscape:window-x="0"
     inkscape:window-y="0"
     inkscape:window-maximized="1"
     fit-margin-top="0"
     fit-margin-left="0"
     fit-margin-right="0"
     fit-margin-bottom="0"
     inkscape:document-rotation="0"
     units="px">
    <inkscape:grid
       type="xygrid"
       id="grid4485"
       originx="-42.478317"
       originy="-117.88453" />
  </sodipodi:namedview>
  <metadata
     id="metadata5">
    <rdf:RDF>
      <cc:Work
         rdf:about="">
        <dc:format>image/svg+xml</dc:format>
        <dc:type
           rdf:resource="http://purl.org/dc/dcmitype/StillImage" />
        <dc:title></dc:title>
        <cc:license
           rdf:resource="http://creativecommons.org/licenses/by/4.0/" />
      </cc:Work>
      <cc:License
         rdf:about="http://creativecommons.org/licenses/by/4.0/">
        <cc:permits
           rdf:resource="http://creativecommons.org/ns#Reproduction" />
        <cc:permits
           rdf:resource="http://creativecommons.org/ns#Distribution" />
        <cc:requires
           rdf:resource="http://creativecommons.org/ns#Notice" />
        <cc:requires
           rdf:resource="http://creativecommons.org/ns#Attribution" />
        <cc:permits
           rdf:resource="http://creativecommons.org/ns#DerivativeWorks" />
      </cc:License>
    </rdf:RDF>
  </metadata>
  <g
     inkscape:label="Layer 1"
     inkscape:groupmode="layer"
     id="layer1"
     transform="translate(-42.478319,106.63454)">
    <g
       id="g4543"
       transform="matrix(33.333359,0,0,33.333359,-1321.7271,-5843.143)">
      <g
         id="g4299"
         transform="translate(8.5768433,0.08428469)">
        <path
           inkscape:connector-curvature="0"
           id="path4279"
           d="m 45.761667,175.0896 v -2.52809 c 0,0 0,-0.38894 0.291703,-0.38894 0.291702,0 0.583407,0 0.583407,0 v 0.2917 h -0.291705 c 0,0 -0.291702,0 -0.291702,0.38894 0,0.38894 0,2.23639 0,2.23639 z"
           style="fill:#808080;stroke:none;stroke-width:0.0194469px;stroke-linecap:butt;stroke-linejoin:miter;stroke-opacity:1" />
        <path
           inkscape:connector-curvature="0"
           id="path4492"
           d="m 46.714166,176.87553 v -2.52809 c 0,0 0,-0.38893 0.291702,-0.38893 0.291703,0 0.583408,0 0.583408,0 v 0.2917 h -0.291705 c 0,0 -0.291703,0 -0.291703,0.38894 0,0.38893 0,2.23638 0,2.23638 z"
           style="fill:#808080;stroke:none;stroke-width:0.0194469px;stroke-linecap:butt;stroke-linejoin:miter;stroke-opacity:1" />
        <path
           style="fill:#bc9a13;fill-opacity:1;stroke:none;stroke-width:0.12642734;stroke-linecap:butt;stroke-linejoin:miter;stroke-miterlimit:4;stroke-dasharray:none;stroke-opacity:1"
           d="m 42.655133,180.58333 h 1.984374 v -1.98437 c 0,0 -1.984374,0 -1.984374,1.98437 z"
           id="path4487"
           inkscape:connector-curvature="0" />
        <path
           inkscape:connector-curvature="0"
           id="path4489"
           d="m 45.433258,180.58333 h 1.984374 v -1.98437 c 0,0 -1.984374,0 -1.984374,1.98437 z"
           style="fill:#ffd42a;fill-opacity:1;stroke:none;stroke-width:0.12642734;stroke-linecap:butt;stroke-linejoin:miter;stroke-miterlimit:4;stroke-dasharray:none;stroke-opacity:1" />
        <path
           style="fill:#808080;stroke:none;stroke-width:0.0194469px;stroke-linecap:butt;stroke-linejoin:miter;stroke-opacity:1"
           d="m 46.237917,175.98257 v -2.52809 c 0,0 0,-0.38894 0.291702,-0.38894 0.291703,0 0.583408,0 0.583408,0 v 0.2917 h -0.291705 c 0,0 -0.291703,0 -0.291703,0.38894 0,0.38894 0,2.23639 0,2.23639 z"
           id="path4277"
           inkscape:connector-curvature="0" />
        <path
           style="fill:#ffd42a;stroke:none;stroke-width:0.12642734;stroke-linecap:butt;stroke-linejoin:miter;stroke-miterlimit:4;stroke-dasharray:none;stroke-opacity:1"
           d="m 43.250445,178.59896 c 0,0 0,0.39688 0.396875,0.39688 0.396875,0 3.373436,0 3.373436,0 0,0 0.396875,0 0.396875,-0.39688 0,-0.39688 0,-3.77031 0,-3.77031 h -2.778124 c 0,0 -1.389062,0 -1.389062,0.99218 0,0.99219 0,2.77813 0,2.77813 z"
           id="path4495"
           inkscape:connector-curvature="0" />
        <g
           transform="matrix(0.74999969,-0.07357035,0,0.74999969,11.897334,48.496944)"
           id="text4511"
           style="font-style:normal;font-weight:normal;font-size:10.58333302px;line-height:1.25;font-family:sans-serif;letter-spacing:0px;word-spacing:0px;fill:#000000;fill-opacity:1;stroke:none;stroke-width:0.26458332"
           aria-label="mo-e">
          <path
             inkscape:connector-curvature="0"
             id="path4274"
             style="font-style:normal;font-variant:normal;font-weight:normal;font-stretch:normal;font-size:1.41111112px;font-family:'Nimbus Sans L';-inkscape-font-specification:'Nimbus Sans L';stroke-width:0.26458332"
             d="m 44.019611,177.19808 v 0.73942 h 0.118534 v -0.46426 c 0,-0.10724 0.07761,-0.19332 0.173566,-0.19332 0.08749,0 0.136878,0.0536 0.136878,0.14817 v 0.50941 h 0.118533 v -0.46426 c 0,-0.10724 0.07761,-0.19332 0.173567,-0.19332 0.08608,0 0.136878,0.055 0.136878,0.14817 v 0.50941 H 44.9961 v -0.55457 c 0,-0.13264 -0.0762,-0.20602 -0.214489,-0.20602 -0.09878,0 -0.158044,0.0296 -0.227189,0.11289 -0.04374,-0.079 -0.103011,-0.11289 -0.198966,-0.11289 -0.09878,0 -0.163689,0.0367 -0.227189,0.12559 v -0.10442 z" />
          <path
             inkscape:connector-curvature="0"
             id="path4276"
             style="font-style:normal;font-variant:normal;font-weight:normal;font-stretch:normal;font-size:1.41111112px;font-family:'Nimbus Sans L';-inkscape-font-specification:'Nimbus Sans L';stroke-width:0.26458332"
             d="m 45.4815,177.17691 c -0.207433,0 -0.333022,0.14817 -0.333022,0.39652 0,0.24836 0.124178,0.39653 0.334434,0.39653 0.207433,0 0.334433,-0.14817 0.334433,-0.39088 0,-0.25541 -0.122767,-0.40217 -0.335845,-0.40217 z m 0.0014,0.10866 c 0.132644,0 0.211666,0.10865 0.211666,0.2921 0,0.17356 -0.08184,0.28363 -0.211666,0.28363 -0.131234,0 -0.211667,-0.10866 -0.211667,-0.28787 0,-0.1778 0.08043,-0.28786 0.211667,-0.28786 z" />
          <path
             inkscape:connector-curvature="0"
             id="path4278"
             style="font-style:normal;font-variant:normal;font-weight:normal;font-stretch:normal;font-size:1.41111112px;font-family:'Nimbus Sans L';-inkscape-font-specification:'Nimbus Sans L';stroke-width:0.26458332"
             d="m 46.283915,177.49723 h -0.335844 v 0.1016 h 0.335844 z" />
          <path
             inkscape:connector-curvature="0"
             id="path4280"
             style="font-style:normal;font-variant:normal;font-weight:normal;font-stretch:normal;font-size:1.41111112px;font-family:'Nimbus Sans L';-inkscape-font-specification:'Nimbus Sans L';stroke-width:0.26458332"
             d="m 47.078349,177.6073 c 0,-0.11289 -0.0085,-0.18062 -0.02963,-0.23566 -0.04798,-0.12135 -0.160867,-0.19473 -0.299156,-0.19473 -0.206022,0 -0.338667,0.15805 -0.338667,0.40076 0,0.24271 0.128412,0.39229 0.335845,0.39229 0.169333,0 0.286455,-0.096 0.316089,-0.25683 h -0.118534 c -0.03245,0.0974 -0.09878,0.14817 -0.193322,0.14817 -0.07479,0 -0.138289,-0.0339 -0.1778,-0.096 -0.02822,-0.0423 -0.0381,-0.0847 -0.03951,-0.15804 z m -0.541867,-0.096 c 0.0099,-0.13687 0.09313,-0.22577 0.211667,-0.22577 0.115711,0 0.204611,0.0959 0.204611,0.21731 0,0.003 0,0.006 -0.0014,0.008 z" />
        </g>
        <path
           sodipodi:nodetypes="cccc"
           inkscape:connector-curvature="0"
           id="path4496"
           d="m 43.249466,176.9887 c 0,0 3.177643,0.0341 2.981831,-1.60253 -2.692906,0.77803 -2.981844,0.41185 -2.981844,0.41185 -0.0024,0.41667 0.0088,0.77402 1.3e-5,1.19068 z"
           style="fill:#000000;fill-opacity:1;stroke:#000000;stroke-width:0.00595311px;stroke-linecap:butt;stroke-linejoin:miter;stroke-opacity:1" />
        <circle
           style="fill:#8080ff;fill-opacity:1;stroke:none;stroke-width:0.1509542;stroke-opacity:1"
           id="path4497"
           cx="43.766914"
           cy="176.4257"
           r="0.37738553" />
        <path
           inkscape:connector-curvature="0"
           id="path4283"
           d="m 46.398651,177.46488 h 0.714374 v -1.66687 c 0,0 0,-0.11906 -0.119063,-0.11906 -0.119062,0 -0.476249,0 -0.476249,0 0,0 -0.119062,0 -0.119062,0.11906 0,0.11906 0,1.66687 0,1.66687 z"
           style="fill:#bc9a13;fill-opacity:1;stroke:#bc9a13;stroke-width:0.00595311px;stroke-linecap:butt;stroke-linejoin:miter;stroke-opacity:1" />
      </g>
    </g>
  </g>
</svg>
