<?xml version="1.0" encoding="UTF-8" standalone="no"?>
<!-- Created with Inkscape (http://www.inkscape.org/) -->

<svg
   xmlns:dc="http://purl.org/dc/elements/1.1/"
   xmlns:cc="http://creativecommons.org/ns#"
   xmlns:rdf="http://www.w3.org/1999/02/22-rdf-syntax-ns#"
   xmlns:svg="http://www.w3.org/2000/svg"
   xmlns="http://www.w3.org/2000/svg"
   xmlns:xlink="http://www.w3.org/1999/xlink"
   xmlns:sodipodi="http://sodipodi.sourceforge.net/DTD/sodipodi-0.dtd"
   xmlns:inkscape="http://www.inkscape.org/namespaces/inkscape"
   width="693.00879"
   height="1686.0297"
   viewBox="0 0 183.35858 446.09536"
   version="1.1"
   id="svg8"
   inkscape:version="0.92+devel unknown"
   sodipodi:docname="pachinko jester template.svg"
   inkscape:export-filename="/home/mbrickn/Projects/Operation-Ohio/game/images/characters/pachinko jester/pachinko jester.png"
   inkscape:export-xdpi="90"
   inkscape:export-ydpi="90">
  <defs
     id="defs2">
    <linearGradient
       inkscape:collect="always"
       id="linearGradient4382">
      <stop
         style="stop-color:#d6ada7;stop-opacity:1;"
         offset="0"
         id="stop4378" />
      <stop
         style="stop-color:#e9c6af;stop-opacity:1"
         offset="1"
         id="stop4380" />
    </linearGradient>
    <linearGradient
       inkscape:collect="always"
       id="linearGradient4360">
      <stop
         style="stop-color:#445500;stop-opacity:1;"
         offset="0"
         id="stop4356" />
      <stop
         style="stop-color:#668000;stop-opacity:1"
         offset="1"
         id="stop4358" />
    </linearGradient>
    <linearGradient
       inkscape:collect="always"
       id="linearGradient4352">
      <stop
         style="stop-color:#668000;stop-opacity:1;"
         offset="0"
         id="stop4348" />
      <stop
         style="stop-color:#445500;stop-opacity:1"
         offset="1"
         id="stop4350" />
    </linearGradient>
    <linearGradient
       inkscape:collect="always"
       id="linearGradient4330">
      <stop
         style="stop-color:#d45500;stop-opacity:1;"
         offset="0"
         id="stop4326" />
      <stop
         style="stop-color:#b14b06;stop-opacity:1"
         offset="1"
         id="stop4328" />
    </linearGradient>
    <linearGradient
       inkscape:collect="always"
       xlink:href="#linearGradient4330"
       id="linearGradient4332"
       x1="1552.3251"
       y1="1078.2906"
       x2="1582.1796"
       y2="1415.0187"
       gradientUnits="userSpaceOnUse" />
    <linearGradient
       inkscape:collect="always"
       xlink:href="#linearGradient4352"
       id="linearGradient4354"
       x1="1476.5703"
       y1="630.61853"
       x2="1902.3433"
       y2="925.85138"
       gradientUnits="userSpaceOnUse" />
    <linearGradient
       inkscape:collect="always"
       xlink:href="#linearGradient4360"
       id="linearGradient4362"
       x1="390.46796"
       y1="177.8956"
       x2="366.75803"
       y2="263.81024"
       gradientUnits="userSpaceOnUse" />
    <linearGradient
       inkscape:collect="always"
       xlink:href="#linearGradient4360"
       id="linearGradient4374"
       x1="397.86292"
       y1="448.94968"
       x2="423.76776"
       y2="429.9339"
       gradientUnits="userSpaceOnUse" />
    <linearGradient
       inkscape:collect="always"
       xlink:href="#linearGradient4360"
       id="linearGradient4376"
       x1="423.76776"
       y1="429.9339"
       x2="442.40588"
       y2="416.93927"
       gradientUnits="userSpaceOnUse" />
    <linearGradient
       inkscape:collect="always"
       xlink:href="#linearGradient4382"
       id="linearGradient4384"
       x1="1574.1895"
       y1="440.52652"
       x2="1581.1041"
       y2="490.69394"
       gradientUnits="userSpaceOnUse" />
    <linearGradient
       inkscape:collect="always"
       xlink:href="#linearGradient4382"
       id="linearGradient4397"
       gradientUnits="userSpaceOnUse"
       gradientTransform="matrix(0.97383668,-0.22724901,-0.22724901,-0.97383668,-9.5808401,464.90213)"
       x1="395.59546"
       y1="109.93046"
       x2="421.50854"
       y2="109.93046" />
    <linearGradient
       inkscape:collect="always"
       xlink:href="#linearGradient4382"
       id="linearGradient4397-3"
       gradientUnits="userSpaceOnUse"
       gradientTransform="matrix(-0.80162575,-0.18706279,0.18706279,-0.80162575,818.8771,425.20815)"
       x1="395.59546"
       y1="109.93046"
       x2="421.50854"
       y2="109.93046" />
  </defs>
  <sodipodi:namedview
     id="base"
     pagecolor="#ffffff"
     bordercolor="#666666"
     borderopacity="1.0"
     inkscape:pageopacity="0.0"
     inkscape:pageshadow="2"
     inkscape:zoom="1.4"
     inkscape:cx="324.5421"
     inkscape:cy="711.46566"
     inkscape:document-units="mm"
     inkscape:current-layer="layer3"
     showgrid="false"
     inkscape:window-width="1440"
     inkscape:window-height="863"
     inkscape:window-x="0"
     inkscape:window-y="0"
     inkscape:window-maximized="1"
     units="px"
     inkscape:pagecheckerboard="true"
     inkscape:document-rotation="0"
     fit-margin-top="0"
     fit-margin-left="0"
     fit-margin-right="0"
     fit-margin-bottom="0">
    <inkscape:grid
       type="xygrid"
       id="grid4485"
       originx="-344.70067"
       originy="163.55568" />
  </sodipodi:namedview>
  <metadata
     id="metadata5">
    <rdf:RDF>
      <cc:Work
         rdf:about="">
        <dc:format>image/svg+xml</dc:format>
        <dc:type
           rdf:resource="http://purl.org/dc/dcmitype/StillImage" />
        <dc:title />
        <cc:license
           rdf:resource="http://creativecommons.org/licenses/by/4.0/" />
      </cc:Work>
      <cc:License
         rdf:about="http://creativecommons.org/licenses/by/4.0/">
        <cc:permits
           rdf:resource="http://creativecommons.org/ns#Reproduction" />
        <cc:permits
           rdf:resource="http://creativecommons.org/ns#Distribution" />
        <cc:requires
           rdf:resource="http://creativecommons.org/ns#Notice" />
        <cc:requires
           rdf:resource="http://creativecommons.org/ns#Attribution" />
        <cc:permits
           rdf:resource="http://creativecommons.org/ns#DerivativeWorks" />
      </cc:License>
    </rdf:RDF>
  </metadata>
  <g
     inkscape:label="Head"
     inkscape:groupmode="layer"
     id="layer1"
     transform="translate(-344.70067,-14.460303)"
     style="display:inline">
    <path
       style="fill:url(#linearGradient4384);fill-opacity:1;stroke:none;stroke-width:4.65420771px;stroke-linecap:butt;stroke-linejoin:miter;stroke-opacity:1"
       d="m 1600.0469,421.19531 c -17.7395,0.24557 -64.4922,25.23242 -64.4922,25.23242 0,0 12.5664,32.67169 16.3711,59.28907 -0.4393,0.91582 -1.1531,1.29913 -1.8613,1.76953 -62.7186,8.88909 -130.9882,40.65713 -165.2715,97.17383 -30.4801,55.67508 112.6728,107.93415 169.8886,120.96093 57.2159,13.02679 124.1128,-15.87852 249.2461,-89.87695 -55.1551,-49.25603 -105.8825,-104.66752 -168.1172,-123.79687 -0.1671,-0.46548 -0.3209,-0.89848 -0.5253,-1.46875 0.069,-0.76233 0.081,-1.01414 -0.02,-0.0605 -5.9781,-16.67918 -30.717,-91.14513 -33.2351,-103.73561 -0.505,-2.5252 1.6982,14.46199 -1.9836,14.51295 z"
       transform="matrix(0.26458333,0,0,0.26458333,0,11.249983)"
       id="path4612"
       inkscape:connector-curvature="0"
       sodipodi:nodetypes="cccccscccccc" />
    <ellipse
       style="fill:#e9c6af;fill-opacity:1;stroke:none;stroke-width:1.72185504;stroke-linecap:round;stroke-linejoin:round;stroke-miterlimit:4;stroke-dasharray:none;stroke-dashoffset:0;stroke-opacity:1;paint-order:stroke fill markers"
       id="path4560"
       cx="409.6922"
       cy="101.66045"
       rx="20.064814"
       ry="29.711359" />
  </g>
  <g
     inkscape:groupmode="layer"
     id="layer3"
     inkscape:label="Body"
     style="display:inline"
     transform="translate(-344.70067,-3.2103196)">
    <path
       style="display:inline;fill:url(#linearGradient4397-3);fill-opacity:1;stroke:none;stroke-width:0.21779504px;stroke-linecap:butt;stroke-linejoin:miter;stroke-opacity:1"
       d="m 502.5964,253.74754 c 0,0 4.19376,11.24703 4.15313,16.07739 -0.0101,1.16451 0.43499,5.44532 1.18679,5.42368 0.86524,-0.0242 0.88663,-4.89476 2.36147,-5.0593 1.82692,-0.26854 0.0871,6.50052 2.75133,5.99339 1.85702,-0.0215 -0.0267,-6.17414 0.57819,-6.40103 0.64516,-0.24177 0.3153,6.05377 2.60474,5.74735 1.60528,-0.21471 0.33741,-5.62179 0.76878,-5.92325 0.36738,-0.25691 0.89162,3.99638 2.41356,3.7178 0.97407,-0.17763 0.71555,-2.12307 0.6134,-3.57554 -0.32489,-4.62303 -2.26014,-8.22706 -2.26014,-8.22706 0,0 2.64008,3.39572 4.08069,2.65234 1.44093,-0.74368 -2.32934,-4.13845 -3.94476,-5.90249 -1.61539,-1.76403 -6.41064,-13.24214 -6.41064,-13.24214 z"
       id="path4352-5"
       inkscape:connector-curvature="0"
       sodipodi:nodetypes="ccsccsssscccscc" />
    <path
       style="fill:url(#linearGradient4397);fill-opacity:1;stroke:none;stroke-width:0.26458332px;stroke-linecap:butt;stroke-linejoin:miter;stroke-opacity:1"
       d="m 374.64553,256.60709 c 0,0 -5.0947,13.6632 -5.04534,19.53125 0.0123,1.41468 -0.52843,6.61513 -1.44175,6.58883 -1.05111,-0.0294 -1.0771,-5.94628 -2.86878,-6.14617 -2.21939,-0.32623 -0.10588,7.89701 -3.34239,7.28094 -2.25596,-0.0261 0.0324,-7.50052 -0.70239,-7.77615 -0.78376,-0.29372 -0.38304,7.35428 -3.16431,6.98203 -1.95014,-0.26083 -0.40989,-6.82949 -0.93394,-7.19573 -0.4463,-0.3121 -1.08317,4.85492 -2.93205,4.51649 -1.18334,-0.21578 -0.86928,-2.57916 -0.74519,-4.34366 0.39469,-5.61618 2.74569,-9.99445 2.74569,-9.99445 0,0 -3.20725,4.12521 -4.95733,3.22213 -1.75049,-0.90344 2.82974,-5.02751 4.7922,-7.17051 1.96242,-2.14299 7.78781,-16.08691 7.78781,-16.08691 z"
       id="path4352"
       inkscape:connector-curvature="0"
       sodipodi:nodetypes="ccsccsssscccscc" />
    <path
       sodipodi:nodetypes="cccccc"
       inkscape:connector-curvature="0"
       id="path4642"
       d="m 376.54975,172.87941 c 0,0 -11.68182,66.18431 -15.49013,75.23507 -3.80834,9.05082 12.32628,24.51622 12.21138,17.50116 -0.11488,-7.01521 29.08073,-54.22183 18.1691,-105.63268 -14.39069,-19.72913 -14.89033,12.89645 -14.89033,12.89645 z"
       style="fill:url(#linearGradient4362);fill-opacity:1;stroke:none;stroke-width:1.23142576px;stroke-linecap:butt;stroke-linejoin:miter;stroke-opacity:1" />
    <path
       style="fill:url(#linearGradient4332);fill-opacity:1;stroke:none;stroke-width:3.64206219px;stroke-linecap:butt;stroke-linejoin:miter;stroke-opacity:1"
       d="m 1485.0234,601.83008 c -1.962,-0.11955 -3.813,0.75042 -5.5644,2.83008 -12.6945,200.58614 1.3606,326.77458 31.5625,491.72264 0,0 -17.3687,255.4533 -14.2871,282.8067 3.4112,30.2786 36.3183,244.0691 52.0488,249.8085 15.7305,5.7394 33.6282,5.6443 32.9707,-10.0585 -0.6574,-15.7031 -14.2939,-214.9456 -19.7519,-244.2481 -4.6971,-25.2169 11.5441,-142.5388 17.9355,-173.1758 0.1342,-0.6441 1.9675,-2.9051 5.0117,-6.3066 l 2.9844,4.2051 c 0,0 4.8723,136.562 6.0957,163.8222 1.233,27.471 24.7381,262.9486 40.2539,267.7676 15.5158,4.8188 33.3285,3.6385 33.0566,-12.123 -0.2717,-15.7616 1.0796,-204.328 -3.6386,-233.4825 -2.8608,-17.6767 10.6996,-119.2521 28.3769,-193.8652 11.1558,-47.0868 -2.8672,-96.6895 -2.8672,-96.6894 -26.8668,-197.05967 -15.0927,-224.43124 19.3184,-399.82622 2.1714,-15.75443 0.03,-56.73261 -5.5313,-72.42774 -18.7903,-53.02034 -54.1583,42.16882 -118.9316,60.00196 -50.7043,13.95973 -80.0767,-79.60611 -99.043,-80.76172 z"
       transform="scale(0.26458333)"
       id="path4617"
       inkscape:connector-curvature="0" />
    <g
       transform="matrix(24.180063,0,0,25.724227,-1649.8011,-6119.1022)"
       id="g4590">
      <path
         style="fill:#ffcc00;fill-opacity:1;stroke:none;stroke-width:0.26458332px;stroke-linecap:butt;stroke-linejoin:miter;stroke-opacity:1"
         d="m 83.551236,239.58542 1.058333,-1.5875 0.529167,1.05833 -0.529167,-0.26458 -0.529167,0.79375 z"
         id="path4526"
         inkscape:connector-curvature="0" />
      <path
         inkscape:connector-curvature="0"
         id="path4524"
         d="m 84.505826,239.58542 1.058333,-1.5875 0.529167,1.05833 -0.529167,-0.26458 -0.529167,0.79375 z"
         style="fill:#ffcc00;fill-opacity:1;stroke:none;stroke-width:0.26458332px;stroke-linecap:butt;stroke-linejoin:miter;stroke-opacity:1" />
      <path
         style="fill:#445500;fill-opacity:1;stroke:none;stroke-width:0.26458332px;stroke-linecap:butt;stroke-linejoin:miter;stroke-opacity:1"
         d="m 83.343749,240.11458 c 0,0 1.058333,-1.32292 1.852083,-1.32292 0.79375,0 0.79375,0 0.79375,0 v 1.32292 z"
         id="path4539-3"
         inkscape:connector-curvature="0" />
      <path
         style="fill:#cc8000;fill-opacity:1;stroke:none;stroke-width:0.26458332px;stroke-linecap:butt;stroke-linejoin:miter;stroke-opacity:1"
         d="m 83.343749,240.11458 c 0,0 0,2.64583 1.322917,2.64583 1.322916,0 1.322916,-2.64583 1.322916,-2.64583 z"
         id="path4519"
         inkscape:connector-curvature="0" />
      <path
         style="fill:#ffcc00;fill-opacity:1;stroke:none;stroke-width:0.26458332px;stroke-linecap:butt;stroke-linejoin:miter;stroke-opacity:1"
         d="M 83.872916,240.11458 V 239.85 l 0.264583,-0.26459 0.264583,0.26459 0.264584,-0.26459 0.264583,0.26459 0.264583,-0.26459 0.264584,0.26459 v 0.26458 z"
         id="path4572"
         inkscape:connector-curvature="0" />
      <g
         id="g4543">
        <path
           inkscape:connector-curvature="0"
           id="path4523"
           d="m 82.814584,240.11458 c 0,0 0,-0.52917 0.264583,-0.52917 0.264583,0 0.79375,0 0.79375,0 0,0 0.264583,0 0.264583,0.52917 0,0.52917 0.529167,0.52917 0.529167,0.52917 v 0.79375 H 83.34375 c 0,0 -0.529166,0 -0.529166,-1.32292 z"
           style="fill:#d4aa00;stroke:none;stroke-width:0.26458332px;stroke-linecap:butt;stroke-linejoin:miter;stroke-opacity:1" />
        <path
           style="fill:#ffcc00;stroke:none;stroke-width:0.26458332px;stroke-linecap:butt;stroke-linejoin:miter;stroke-opacity:1"
           d="m 86.51875,240.11458 c 0,0 0,-0.52917 -0.264583,-0.52917 -0.264583,0 -0.79375,0 -0.79375,0 0,0 -0.264583,0 -0.264583,0.52917 0,0.52917 -0.529167,0.52917 -0.529167,0.52917 v 0.79375 h 1.322917 c 0,0 0.529166,0 0.529166,-1.32292 z"
           id="path4525"
           inkscape:connector-curvature="0" />
      </g>
      <g
         id="g4547"
         transform="translate(-0.0610094)">
        <path
           inkscape:transform-center-y="-0.050533968"
           inkscape:transform-center-x="1.0133333e-06"
           d="m 83.621284,240.03283 0.155519,0.31511 0.347749,0.0505 -0.251634,0.24529 0.0594,0.34634 -0.311037,-0.16352 -0.311036,0.16352 0.0594,-0.34634 -0.251634,-0.24529 0.347749,-0.0505 z"
           inkscape:randomized="0"
           inkscape:rounded="0"
           inkscape:flatsided="false"
           sodipodi:arg2="-0.9424778"
           sodipodi:arg1="-1.5707963"
           sodipodi:r2="0.26458332"
           sodipodi:r1="0.52916664"
           sodipodi:cy="240.562"
           sodipodi:cx="83.621284"
           sodipodi:sides="5"
           id="path4533-6"
           style="opacity:0.97000002;fill:#ffd42a;fill-opacity:1;stroke:none;stroke-width:0.116;stroke-linecap:round;stroke-linejoin:round;stroke-miterlimit:4;stroke-dasharray:none;stroke-opacity:1"
           sodipodi:type="star" />
        <path
           sodipodi:type="star"
           style="opacity:0.97000002;fill:#d4aa00;fill-opacity:1;stroke:none;stroke-width:0.116;stroke-linecap:round;stroke-linejoin:round;stroke-miterlimit:4;stroke-dasharray:none;stroke-opacity:1"
           id="path4535-7"
           sodipodi:sides="5"
           sodipodi:cx="85.834068"
           sodipodi:cy="240.59322"
           sodipodi:r1="0.52916664"
           sodipodi:r2="0.26458332"
           sodipodi:arg1="-1.5707963"
           sodipodi:arg2="-0.9424778"
           inkscape:flatsided="false"
           inkscape:rounded="0"
           inkscape:randomized="0"
           d="m 85.834068,240.06405 0.155518,0.31511 0.34775,0.0505 -0.251634,0.24529 0.0594,0.34634 -0.311037,-0.16352 -0.311036,0.16352 0.0594,-0.34634 -0.251634,-0.24529 0.347749,-0.0505 z"
           inkscape:transform-center-x="1.0133333e-06"
           inkscape:transform-center-y="-0.050533968" />
      </g>
      <path
         style="fill:#ffcc00;fill-opacity:1;stroke:none;stroke-width:0.26458332px;stroke-linecap:butt;stroke-linejoin:miter;stroke-opacity:1"
         d="m 85.460417,239.58542 1.058333,-1.5875 0.529167,1.05833 -0.529167,-0.26458 -0.529167,0.79375 z"
         id="path4568"
         inkscape:connector-curvature="0" />
      <circle
         style="opacity:0.98999999;fill:#b3b3b3;fill-opacity:1;stroke:none;stroke-width:0.16500001;stroke-linecap:round;stroke-linejoin:round;stroke-miterlimit:4;stroke-dasharray:none;stroke-opacity:1"
         id="path4570"
         cx="87.047913"
         cy="239.05626"
         r="0.26458332" />
      <path
         inkscape:connector-curvature="0"
         id="path4574"
         d="m 84.232059,241.69851 v 0.14487 l 0.144869,0.14487 0.144868,-0.14487 0.14487,0.14487 0.144868,-0.14487 0.144869,0.14487 0.144869,-0.14487 v -0.14487 z"
         style="fill:#ffcc00;fill-opacity:1;stroke:none;stroke-width:0.14486885px;stroke-linecap:butt;stroke-linejoin:miter;stroke-opacity:1" />
    </g>
    <path
       style="display:inline;fill:url(#linearGradient4374);fill-opacity:1;stroke:none;stroke-width:0.16651188px;stroke-linecap:butt;stroke-linejoin:miter;stroke-opacity:1"
       d="m 389.32651,448.26641 c 2.48856,0.2429 18.31085,0.78368 19.11986,0.0839 2.43262,-5.39476 4.06894,0.39015 4.54707,0.30534 0.69588,-0.16531 7.00726,0.0919 7.08455,-1.07243 0.0773,-1.1644 1.49472,-17.61493 0.47288,-19.88684 -0.1521,-0.33819 0.49898,-5.6642 -1.72866,-7.6499 -5.01588,-4.47111 -10.50062,-0.47165 -13.03279,0.54045 -1.32537,0.52975 1.54089,7.391 1.94516,9.30896 -3.15367,10.91876 -15.842,11.96888 -22.85441,8.22631 -1.57581,4.82967 2.63471,9.81653 4.44634,10.14415 z"
       id="path4302"
       inkscape:connector-curvature="0"
       sodipodi:nodetypes="cccccsscccc" />
    <path
       sodipodi:nodetypes="cccsscc"
       inkscape:connector-curvature="0"
       id="path4306"
       d="m 435.83715,449.30568 c 0.69589,-0.16532 7.62193,-0.55806 7.69921,-1.72243 0.0773,-1.16441 1.49471,-17.61495 0.47286,-19.88686 -0.15211,-0.33818 0.36736,-5.06492 -1.03253,-8.08729 -5.25457,-11.34467 -12.01651,-0.78061 -14.54868,0.2315 -1.32537,0.52976 1.12336,8.61728 1.52761,10.53524 -7.64664,22.86297 -7.89232,16.22213 5.88153,18.92984 z"
       style="display:inline;fill:url(#linearGradient4376);fill-opacity:1;stroke:none;stroke-width:0.16651188px;stroke-linecap:butt;stroke-linejoin:miter;stroke-opacity:1" />
    <path
       style="fill:url(#linearGradient4354);fill-opacity:1;stroke:none;stroke-width:4.65420771px;stroke-linecap:butt;stroke-linejoin:miter;stroke-opacity:1"
       d="m 1550.3848,507.67188 c -7.9688,0.27249 -17.5496,1.72607 -25.5196,3.0664 -55.7065,9.36979 -109.8437,44.08952 -140.0722,93.92188 -25.676,46.89981 71.8555,91.37167 137.4414,112.01367 -9.1663,27.68137 -15.7574,57.08755 -19.7422,74.58984 -10.0619,44.19322 12.2638,95.86508 69.4199,192.51758 37.9756,-42.52369 66.9364,-91.19897 81.7871,-139.14844 -24.2106,-47.51762 -44.2944,-81.17048 0.9199,-68.02929 -0.2105,-6.15508 1.127,-11.77176 0.092,-17.92774 -2.3576,-14.01701 -6.8048,-27.90128 -13.0449,-41.06445 20.0131,-6.65247 42.2292,-16.33463 67.5449,-29.1211 60.0494,81.24211 176.7176,240.88534 185.6387,266.875 12.0492,35.10229 67.5642,16.55313 49.5801,-2.93359 -13.3559,-14.47194 -67.51,-197.45303 -156.3652,-307.37695 5.1945,-3.02995 10.4551,-6.1124 15.8632,-9.31055 -2.2297,-1.99128 -4.4418,-4.00506 -6.6582,-6.01367 6.4605,-5.15226 12.8143,-10.50678 19.0332,-16.06055 -14.5777,-8.62066 -28.1154,-16.43417 -40.7754,-23.47851 11.6042,-11.97159 22.677,-24.79441 33.0567,-38.3125 -105.5942,-38.18892 -160.5146,-50.51736 -202.0664,-32.41407 -12.6603,5.51579 -31.9652,13.86255 -51.8047,23.85938 -8.7491,-2.45643 -10.9369,-12.9139 -4.3281,-35.65234 z"
       transform="scale(0.26458333)"
       id="path4640"
       inkscape:connector-curvature="0" />
  </g>
  <g
     inkscape:groupmode="layer"
     id="layer2"
     inkscape:label="Decor"
     style="opacity:0.18600003"
     transform="translate(-344.70067,-14.460303)" />
</svg>
