<?xml version="1.0" encoding="UTF-8" standalone="no"?>
<!-- Created with Inkscape (http://www.inkscape.org/) -->

<svg
   xmlns:dc="http://purl.org/dc/elements/1.1/"
   xmlns:cc="http://creativecommons.org/ns#"
   xmlns:rdf="http://www.w3.org/1999/02/22-rdf-syntax-ns#"
   xmlns:svg="http://www.w3.org/2000/svg"
   xmlns="http://www.w3.org/2000/svg"
   xmlns:sodipodi="http://sodipodi.sourceforge.net/DTD/sodipodi-0.dtd"
   xmlns:inkscape="http://www.inkscape.org/namespaces/inkscape"
   width="85.750679mm"
   height="158.75mm"
   viewBox="0 0 85.750679 158.75"
   version="1.1"
   id="svg8"
   inkscape:version="0.92.1 r"
   sodipodi:docname="pachinko_jester.svg">
  <defs
     id="defs2" />
  <sodipodi:namedview
     id="base"
     pagecolor="#ffffff"
     bordercolor="#666666"
     borderopacity="1.0"
     inkscape:pageopacity="0.0"
     inkscape:pageshadow="2"
     inkscape:zoom="0.9899495"
     inkscape:cx="27.076576"
     inkscape:cy="246.67181"
     inkscape:document-units="mm"
     inkscape:current-layer="g4521"
     showgrid="false"
     inkscape:window-width="1920"
     inkscape:window-height="1016"
     inkscape:window-x="0"
     inkscape:window-y="27"
     inkscape:window-maximized="1"
     fit-margin-top="0"
     fit-margin-left="0"
     fit-margin-right="0"
     fit-margin-bottom="0">
    <inkscape:grid
       type="xygrid"
       id="grid4485"
       originx="-87.312448"
       originy="-53.27244" />
  </sodipodi:namedview>
  <metadata
     id="metadata5">
    <rdf:RDF>
      <cc:Work
         rdf:about="">
        <dc:format>image/svg+xml</dc:format>
        <dc:type
           rdf:resource="http://purl.org/dc/dcmitype/StillImage" />
        <dc:title></dc:title>
        <cc:license
           rdf:resource="http://creativecommons.org/licenses/by/4.0/" />
      </cc:Work>
      <cc:License
         rdf:about="http://creativecommons.org/licenses/by/4.0/">
        <cc:permits
           rdf:resource="http://creativecommons.org/ns#Reproduction" />
        <cc:permits
           rdf:resource="http://creativecommons.org/ns#Distribution" />
        <cc:requires
           rdf:resource="http://creativecommons.org/ns#Notice" />
        <cc:requires
           rdf:resource="http://creativecommons.org/ns#Attribution" />
        <cc:permits
           rdf:resource="http://creativecommons.org/ns#DerivativeWorks" />
      </cc:License>
    </rdf:RDF>
  </metadata>
  <g
     inkscape:label="Layer 1"
     inkscape:groupmode="layer"
     id="layer1"
     transform="translate(-87.312448,-84.977556)">
    <g
       id="g4521"
       transform="matrix(27.021669,0,0,27.021669,-2272.017,-6342.2054)">
      <path
         inkscape:connector-curvature="0"
         id="path4499"
         d="m 88.443317,243.1837 h -0.264584 v 0.26458 c 0,0 -0.529166,0 -0.529166,0.26458 -0.05198,0.0337 0.79375,0 0.79375,0 z"
         style="fill:#666666;fill-opacity:1;stroke:none;stroke-width:0.26458332px;stroke-linecap:butt;stroke-linejoin:miter;stroke-opacity:1" />
      <path
         style="fill:#999999;fill-opacity:1;stroke:none;stroke-width:0.26458332px;stroke-linecap:butt;stroke-linejoin:miter;stroke-opacity:1"
         d="m 89.237066,243.1837 h -0.264584 v 0.26458 c 0,0 -0.529166,0 -0.529166,0.26458 -0.05198,0.0337 0.79375,0 0.79375,0 z"
         id="path4509"
         inkscape:connector-curvature="0" />
      <path
         inkscape:connector-curvature="0"
         id="path4513"
         d="m 88.635416,241.4375 -1.322917,1.32292 c 0,0 0.264583,0.52916 1.322917,0.52916 0.0062,0.009 0,-1.85208 0,-1.85208 z"
         style="fill:#d45500;fill-opacity:1;stroke:none;stroke-width:0.26458332px;stroke-linecap:butt;stroke-linejoin:miter;stroke-opacity:1" />
      <path
         style="fill:#ff7f2a;fill-opacity:1;stroke:none;stroke-width:0.26458332px;stroke-linecap:butt;stroke-linejoin:miter;stroke-opacity:1"
         d="m 88.635417,241.4375 1.322916,1.32292 c 0,0 -0.264584,0.52916 -1.322918,0.52916 -0.0062,0.009 2e-6,-1.85208 2e-6,-1.85208 z"
         id="path4515"
         inkscape:connector-curvature="0" />
      <path
         inkscape:connector-curvature="0"
         id="path4489"
         d="m 87.312499,242.23125 c 0,0 0,0.52916 1.322917,0.52916 0.01455,0.009 0,-2.64583 0,-2.64583 z"
         style="fill:#668000;fill-opacity:1;stroke:none;stroke-width:0.26458332px;stroke-linecap:butt;stroke-linejoin:miter;stroke-opacity:1" />
      <path
         style="fill:#445500;fill-opacity:1;stroke:none;stroke-width:0.26458332px;stroke-linecap:butt;stroke-linejoin:miter;stroke-opacity:1"
         d="m 89.958333,242.23125 c 0,0 0,0.52916 -1.322917,0.52916 -0.01455,0.009 0,-2.64583 0,-2.64583 z"
         id="path4491"
         inkscape:connector-curvature="0" />
      <g
         transform="matrix(0.69939752,0,0,0.69939752,29.41976,71.397768)"
         id="g4590">
        <path
           style="fill:#ffcc00;fill-opacity:1;stroke:none;stroke-width:0.26458332px;stroke-linecap:butt;stroke-linejoin:miter;stroke-opacity:1"
           d="m 83.551236,239.58542 1.058333,-1.5875 0.529167,1.05833 -0.529167,-0.26458 -0.529167,0.79375 z"
           id="path4526"
           inkscape:connector-curvature="0" />
        <path
           inkscape:connector-curvature="0"
           id="path4524"
           d="m 84.505826,239.58542 1.058333,-1.5875 0.529167,1.05833 -0.529167,-0.26458 -0.529167,0.79375 z"
           style="fill:#ffcc00;fill-opacity:1;stroke:none;stroke-width:0.26458332px;stroke-linecap:butt;stroke-linejoin:miter;stroke-opacity:1" />
        <path
           style="fill:#445500;fill-opacity:1;stroke:none;stroke-width:0.26458332px;stroke-linecap:butt;stroke-linejoin:miter;stroke-opacity:1"
           d="m 83.343749,240.11458 c 0,0 1.058333,-1.32292 1.852083,-1.32292 0.79375,0 0.79375,0 0.79375,0 v 1.32292 z"
           id="path4539"
           inkscape:connector-curvature="0" />
        <path
           style="fill:#cc8000;fill-opacity:1;stroke:none;stroke-width:0.26458332px;stroke-linecap:butt;stroke-linejoin:miter;stroke-opacity:1"
           d="m 83.343749,240.11458 c 0,0 0,2.64583 1.322917,2.64583 1.322916,0 1.322916,-2.64583 1.322916,-2.64583 z"
           id="path4519"
           inkscape:connector-curvature="0" />
        <path
           style="fill:#ffcc00;fill-opacity:1;stroke:none;stroke-width:0.26458332px;stroke-linecap:butt;stroke-linejoin:miter;stroke-opacity:1"
           d="M 83.872916,240.11458 V 239.85 l 0.264583,-0.26459 0.264583,0.26459 0.264584,-0.26459 0.264583,0.26459 0.264583,-0.26459 0.264584,0.26459 v 0.26458 z"
           id="path4572"
           inkscape:connector-curvature="0" />
        <g
           id="g4543">
          <path
             inkscape:connector-curvature="0"
             id="path4523"
             d="m 82.814584,240.11458 c 0,0 0,-0.52917 0.264583,-0.52917 0.264583,0 0.79375,0 0.79375,0 0,0 0.264583,0 0.264583,0.52917 0,0.52917 0.529167,0.52917 0.529167,0.52917 v 0.79375 H 83.34375 c 0,0 -0.529166,0 -0.529166,-1.32292 z"
             style="fill:#d4aa00;stroke:none;stroke-width:0.26458332px;stroke-linecap:butt;stroke-linejoin:miter;stroke-opacity:1" />
          <path
             style="fill:#ffcc00;stroke:none;stroke-width:0.26458332px;stroke-linecap:butt;stroke-linejoin:miter;stroke-opacity:1"
             d="m 86.51875,240.11458 c 0,0 0,-0.52917 -0.264583,-0.52917 -0.264583,0 -0.79375,0 -0.79375,0 0,0 -0.264583,0 -0.264583,0.52917 0,0.52917 -0.529167,0.52917 -0.529167,0.52917 v 0.79375 h 1.322917 c 0,0 0.529166,0 0.529166,-1.32292 z"
             id="path4525"
             inkscape:connector-curvature="0" />
        </g>
        <g
           id="g4547"
           transform="translate(-0.0610094)">
          <path
             inkscape:transform-center-y="-0.050533968"
             inkscape:transform-center-x="1.0133333e-06"
             d="m 83.621284,240.03283 0.155519,0.31511 0.347749,0.0505 -0.251634,0.24529 0.0594,0.34634 -0.311037,-0.16352 -0.311036,0.16352 0.0594,-0.34634 -0.251634,-0.24529 0.347749,-0.0505 z"
             inkscape:randomized="0"
             inkscape:rounded="0"
             inkscape:flatsided="false"
             sodipodi:arg2="-0.9424778"
             sodipodi:arg1="-1.5707963"
             sodipodi:r2="0.26458332"
             sodipodi:r1="0.52916664"
             sodipodi:cy="240.562"
             sodipodi:cx="83.621284"
             sodipodi:sides="5"
             id="path4533"
             style="opacity:0.97000002;fill:#ffd42a;fill-opacity:1;stroke:none;stroke-width:0.116;stroke-linecap:round;stroke-linejoin:round;stroke-miterlimit:4;stroke-dasharray:none;stroke-opacity:1"
             sodipodi:type="star" />
          <path
             sodipodi:type="star"
             style="opacity:0.97000002;fill:#d4aa00;fill-opacity:1;stroke:none;stroke-width:0.116;stroke-linecap:round;stroke-linejoin:round;stroke-miterlimit:4;stroke-dasharray:none;stroke-opacity:1"
             id="path4535"
             sodipodi:sides="5"
             sodipodi:cx="85.834068"
             sodipodi:cy="240.59322"
             sodipodi:r1="0.52916664"
             sodipodi:r2="0.26458332"
             sodipodi:arg1="-1.5707963"
             sodipodi:arg2="-0.9424778"
             inkscape:flatsided="false"
             inkscape:rounded="0"
             inkscape:randomized="0"
             d="m 85.834068,240.06405 0.155518,0.31511 0.34775,0.0505 -0.251634,0.24529 0.0594,0.34634 -0.311037,-0.16352 -0.311036,0.16352 0.0594,-0.34634 -0.251634,-0.24529 0.347749,-0.0505 z"
             inkscape:transform-center-x="1.0133333e-06"
             inkscape:transform-center-y="-0.050533968" />
        </g>
        <path
           style="fill:#ffcc00;fill-opacity:1;stroke:none;stroke-width:0.26458332px;stroke-linecap:butt;stroke-linejoin:miter;stroke-opacity:1"
           d="m 85.460417,239.58542 1.058333,-1.5875 0.529167,1.05833 -0.529167,-0.26458 -0.529167,0.79375 z"
           id="path4568"
           inkscape:connector-curvature="0" />
        <circle
           style="opacity:0.98999999;fill:#b3b3b3;fill-opacity:1;stroke:none;stroke-width:0.16500001;stroke-linecap:round;stroke-linejoin:round;stroke-miterlimit:4;stroke-dasharray:none;stroke-opacity:1"
           id="path4570"
           cx="87.047913"
           cy="239.05626"
           r="0.26458332" />
        <path
           inkscape:connector-curvature="0"
           id="path4574"
           d="m 84.232059,241.69851 v 0.14487 l 0.144869,0.14487 0.144868,-0.14487 0.14487,0.14487 0.144868,-0.14487 0.144869,0.14487 0.144869,-0.14487 v -0.14487 z"
           style="fill:#ffcc00;fill-opacity:1;stroke:none;stroke-width:0.14486885px;stroke-linecap:butt;stroke-linejoin:miter;stroke-opacity:1" />
      </g>
    </g>
  </g>
</svg>
