<?xml version="1.0" encoding="UTF-8" standalone="no"?>
<!-- Created with Inkscape (http://www.inkscape.org/) -->

<svg
   xmlns:dc="http://purl.org/dc/elements/1.1/"
   xmlns:cc="http://creativecommons.org/ns#"
   xmlns:rdf="http://www.w3.org/1999/02/22-rdf-syntax-ns#"
   xmlns:svg="http://www.w3.org/2000/svg"
   xmlns="http://www.w3.org/2000/svg"
   xmlns:xlink="http://www.w3.org/1999/xlink"
   xmlns:sodipodi="http://sodipodi.sourceforge.net/DTD/sodipodi-0.dtd"
   xmlns:inkscape="http://www.inkscape.org/namespaces/inkscape"
   width="540.66235"
   height="1878.4449"
   viewBox="0 0 143.05025 497.00524"
   version="1.1"
   id="svg8"
   inkscape:version="0.92+devel unknown"
   sodipodi:docname="moe template.svg"
   inkscape:export-filename="/home/mbrickn/Projects/Operation-Ohio/game/images/characters/moe/moe happy.png"
   inkscape:export-xdpi="90"
   inkscape:export-ydpi="90">
  <title
     id="title4345">Moe</title>
  <defs
     id="defs2">
    <linearGradient
       inkscape:collect="always"
       id="linearGradient4426">
      <stop
         style="stop-color:#ffff73;stop-opacity:1;"
         offset="0"
         id="stop4422" />
      <stop
         style="stop-color:#e6e664;stop-opacity:1"
         offset="1"
         id="stop4424" />
    </linearGradient>
    <linearGradient
       inkscape:collect="always"
       id="linearGradient4416">
      <stop
         style="stop-color:#803e80;stop-opacity:1;"
         offset="0"
         id="stop4412" />
      <stop
         style="stop-color:#803e80;stop-opacity:0;"
         offset="1"
         id="stop4414" />
    </linearGradient>
    <linearGradient
       inkscape:collect="always"
       id="linearGradient4406">
      <stop
         style="stop-color:#d6ada7;stop-opacity:1;"
         offset="0"
         id="stop4402" />
      <stop
         style="stop-color:#e9c6af;stop-opacity:1"
         offset="1"
         id="stop4404" />
    </linearGradient>
    <linearGradient
       inkscape:collect="always"
       id="linearGradient4397">
      <stop
         style="stop-color:#00ccff;stop-opacity:1;"
         offset="0"
         id="stop4393" />
      <stop
         style="stop-color:#00aad5;stop-opacity:1"
         offset="1"
         id="stop4395" />
    </linearGradient>
    <linearGradient
       inkscape:collect="always"
       id="linearGradient4389">
      <stop
         style="stop-color:#00ccff;stop-opacity:1;"
         offset="0"
         id="stop4385" />
      <stop
         style="stop-color:#00b8e6;stop-opacity:1"
         offset="1"
         id="stop4387" />
    </linearGradient>
    <linearGradient
       inkscape:collect="always"
       id="linearGradient4381">
      <stop
         style="stop-color:#e6e664;stop-opacity:1;"
         offset="0"
         id="stop4377" />
      <stop
         style="stop-color:#ffff73;stop-opacity:1"
         offset="1"
         id="stop4379" />
    </linearGradient>
    <linearGradient
       inkscape:collect="always"
       id="linearGradient4373">
      <stop
         style="stop-color:#ffff73;stop-opacity:1;"
         offset="0"
         id="stop4369" />
      <stop
         style="stop-color:#e6e664;stop-opacity:1"
         offset="1"
         id="stop4371" />
    </linearGradient>
    <linearGradient
       inkscape:collect="always"
       id="linearGradient4360">
      <stop
         style="stop-color:#000000;stop-opacity:1;"
         offset="0"
         id="stop4356" />
      <stop
         style="stop-color:#a7a7a7;stop-opacity:1"
         offset="1"
         id="stop4358" />
    </linearGradient>
    <linearGradient
       inkscape:collect="always"
       id="linearGradient4322">
      <stop
         style="stop-color:#e6e664;stop-opacity:1"
         offset="0"
         id="stop4318" />
      <stop
         style="stop-color:#ffff73;stop-opacity:1"
         offset="1"
         id="stop4320" />
    </linearGradient>
    <linearGradient
       inkscape:collect="always"
       xlink:href="#linearGradient4322"
       id="linearGradient4324"
       x1="464.80429"
       y1="283.46051"
       x2="459.63431"
       y2="190.31139"
       gradientUnits="userSpaceOnUse" />
    <linearGradient
       inkscape:collect="always"
       xlink:href="#linearGradient4322"
       id="linearGradient4326"
       gradientUnits="userSpaceOnUse"
       x1="464.80429"
       y1="283.46051"
       x2="461.9718"
       y2="230.12929" />
    <linearGradient
       inkscape:collect="always"
       xlink:href="#linearGradient4360"
       id="linearGradient4362"
       x1="460.36725"
       y1="169.98161"
       x2="463.9552"
       y2="262.19843"
       gradientUnits="userSpaceOnUse" />
    <linearGradient
       inkscape:collect="always"
       xlink:href="#linearGradient4373"
       id="linearGradient4375"
       x1="1612.801"
       y1="978.54004"
       x2="1683.8962"
       y2="1281.6316"
       gradientUnits="userSpaceOnUse" />
    <linearGradient
       inkscape:collect="always"
       xlink:href="#linearGradient4381"
       id="linearGradient4383"
       x1="388.37427"
       y1="240.34639"
       x2="371.46881"
       y2="203.27888"
       gradientUnits="userSpaceOnUse" />
    <radialGradient
       inkscape:collect="always"
       xlink:href="#linearGradient4389"
       id="radialGradient4391"
       cx="57.964909"
       cy="496.3768"
       fx="57.964909"
       fy="496.3768"
       r="8.9171534"
       gradientTransform="matrix(1,0,0,0.94880059,0,25.414197)"
       gradientUnits="userSpaceOnUse" />
    <linearGradient
       inkscape:collect="always"
       xlink:href="#linearGradient4397"
       id="linearGradient4399"
       x1="431.0282"
       y1="138.2774"
       x2="424.05679"
       y2="159.33911"
       gradientUnits="userSpaceOnUse" />
    <linearGradient
       inkscape:collect="always"
       xlink:href="#linearGradient4406"
       id="linearGradient4410"
       gradientUnits="userSpaceOnUse"
       x1="1641.6254"
       y1="440.19073"
       x2="1652.3176"
       y2="474.26303" />
    <radialGradient
       inkscape:collect="always"
       xlink:href="#linearGradient4416"
       id="radialGradient4418"
       cx="384.7756"
       cy="148.02016"
       fx="384.7756"
       fy="148.02016"
       r="5.99998"
       gradientTransform="matrix(1,0,0,0.58666663,0,61.18167)"
       gradientUnits="userSpaceOnUse" />
    <radialGradient
       inkscape:collect="always"
       xlink:href="#linearGradient4416"
       id="radialGradient4420"
       cx="418.53088"
       cy="172.25691"
       fx="418.53088"
       fy="172.25691"
       r="8.6399708"
       gradientTransform="matrix(1,0,0,0.45370365,0,94.103323)"
       gradientUnits="userSpaceOnUse" />
    <linearGradient
       inkscape:collect="always"
       xlink:href="#linearGradient4426"
       id="linearGradient4428"
       x1="427.55487"
       y1="104.62255"
       x2="427.63281"
       y2="143.67342"
       gradientUnits="userSpaceOnUse" />
    <linearGradient
       inkscape:collect="always"
       xlink:href="#linearGradient4360"
       id="linearGradient4339"
       gradientUnits="userSpaceOnUse"
       x1="460.36725"
       y1="169.98161"
       x2="463.9552"
       y2="262.19843" />
    <linearGradient
       inkscape:collect="always"
       xlink:href="#linearGradient4360"
       id="linearGradient4341"
       gradientUnits="userSpaceOnUse"
       x1="460.36725"
       y1="169.98161"
       x2="463.9552"
       y2="262.19843" />
    <linearGradient
       inkscape:collect="always"
       xlink:href="#linearGradient4322"
       id="linearGradient4343"
       gradientUnits="userSpaceOnUse"
       x1="464.80429"
       y1="283.46051"
       x2="459.63431"
       y2="190.31139" />
  </defs>
  <sodipodi:namedview
     id="base"
     pagecolor="#ffffff"
     bordercolor="#666666"
     borderopacity="1.0"
     inkscape:pageopacity="0.0"
     inkscape:pageshadow="2"
     inkscape:zoom="0.35"
     inkscape:cx="670.37618"
     inkscape:cy="884.76372"
     inkscape:document-units="mm"
     inkscape:current-layer="layer1"
     showgrid="false"
     inkscape:window-width="1920"
     inkscape:window-height="1016"
     inkscape:window-x="0"
     inkscape:window-y="0"
     inkscape:window-maximized="1"
     units="px"
     inkscape:pagecheckerboard="true"
     inkscape:document-rotation="0"
     showguides="false"
     fit-margin-top="0"
     fit-margin-left="0"
     fit-margin-right="0"
     fit-margin-bottom="0">
    <inkscape:grid
       type="xygrid"
       id="grid4485"
       originx="-359.85834"
       originy="213.21697" />
  </sodipodi:namedview>
  <metadata
     id="metadata5">
    <rdf:RDF>
      <cc:Work
         rdf:about="">
        <dc:format>image/svg+xml</dc:format>
        <dc:type
           rdf:resource="http://purl.org/dc/dcmitype/StillImage" />
        <dc:title>Moe</dc:title>
        <cc:license
           rdf:resource="http://creativecommons.org/licenses/by/4.0/" />
        <dc:creator>
          <cc:Agent>
            <dc:title>Maxwell Paul Brickner</dc:title>
          </cc:Agent>
        </dc:creator>
      </cc:Work>
      <cc:License
         rdf:about="http://creativecommons.org/licenses/by/4.0/">
        <cc:permits
           rdf:resource="http://creativecommons.org/ns#Reproduction" />
        <cc:permits
           rdf:resource="http://creativecommons.org/ns#Distribution" />
        <cc:requires
           rdf:resource="http://creativecommons.org/ns#Notice" />
        <cc:requires
           rdf:resource="http://creativecommons.org/ns#Attribution" />
        <cc:permits
           rdf:resource="http://creativecommons.org/ns#DerivativeWorks" />
      </cc:License>
    </rdf:RDF>
  </metadata>
  <g
     inkscape:label="Head"
     inkscape:groupmode="layer"
     id="layer1"
     transform="translate(-359.85833,-13.211721)">
    <path
       style="fill:url(#linearGradient4428);fill-opacity:1;stroke:none;stroke-width:0.37057984px;stroke-linecap:butt;stroke-linejoin:miter;stroke-opacity:1"
       d="m 385.248,110.79104 c 0,0 3.57347,29.24932 48.04305,25.14646 44.4696,-4.10282 43.94019,-27.26407 43.94019,-27.26407 0,0 18.79655,-98.389444 -42.96989,-95.394706 -61.76648,2.994737 -53.10559,61.384421 -49.01335,97.512316 z"
       id="path4539"
       inkscape:connector-curvature="0" />
    <path
       style="fill:url(#linearGradient4410);fill-opacity:1;stroke:none;stroke-width:4.12449074px;stroke-linecap:butt;stroke-linejoin:miter;stroke-opacity:1"
       d="m 1663.7773,414.13477 c -15.0042,-0.63725 -58.0117,22.3496 -58.0117,22.34961 0,0 11.407,29.67623 14.6211,53.41796 -0.7663,4.82011 -3.626,6.84971 -4.1367,10.59571 -55.66,147.58467 45.6994,87.41491 76.4531,-2.85157 3.3119,0.77526 3.6797,1.85547 3.6797,1.85547 0,0 -24.9976,-69.26713 -27.6016,-82.28711 -0.4068,-2.03436 -2.2253,-2.96207 -5.0039,-3.08007 z"
       transform="matrix(0.26458333,0,0,0.26458333,0,11.249983)"
       id="path4612"
       inkscape:connector-curvature="0" />
    <path
       style="fill:#e9c6af;stroke:none;stroke-width:1.26713097px;stroke-linecap:butt;stroke-linejoin:miter;stroke-opacity:1"
       d="m 388.6543,72.308301 c 0,0 0,31.678269 12.67132,44.349599 12.67133,12.67131 25.34262,12.67131 25.34262,12.67131 0,0 19.00696,0 31.67827,-19.00698 12.67133,-19.006991 12.67133,-50.685238 12.67133,-50.685238 0,0 0,-31.678362 -50.68523,-31.678306 -31.67829,3.9e-5 -31.67831,44.349615 -31.67831,44.349615 z"
       id="path4487"
       inkscape:connector-curvature="0"
       sodipodi:nodetypes="cccscsc" />
    <ellipse
       ry="13.515395"
       rx="11.705296"
       cy="66.046028"
       cx="446.76703"
       id="ellipse4497"
       style="fill:#ffffff;fill-opacity:1;stroke:none;stroke-width:5.48924303;stroke-linecap:round;stroke-linejoin:round;stroke-miterlimit:4;stroke-dasharray:none;stroke-opacity:1;paint-order:stroke fill markers" />
    <ellipse
       ry="15.113365"
       rx="8.332592"
       cy="103.06422"
       cx="393.20358"
       id="ellipse4499"
       style="fill:#ffffff;fill-opacity:1;stroke:none;stroke-width:5.99823141;stroke-linecap:round;stroke-linejoin:round;stroke-miterlimit:4;stroke-dasharray:none;stroke-opacity:1;paint-order:stroke fill markers"
       transform="rotate(-4.4885585)" />
    <ellipse
       style="fill:#00ccff;fill-opacity:1;stroke:none;stroke-width:4.60935116;stroke-linecap:round;stroke-linejoin:round;stroke-miterlimit:4;stroke-dasharray:none;stroke-opacity:1;paint-order:stroke fill markers"
       id="path4491"
       cx="391.12686"
       cy="102.84031"
       rx="6.3162546"
       ry="11.773751"
       transform="rotate(-4.4885585)" />
    <ellipse
       style="fill:#00ccff;fill-opacity:1;stroke:none;stroke-width:4.55010319;stroke-linecap:round;stroke-linejoin:round;stroke-miterlimit:4;stroke-dasharray:none;stroke-opacity:1;paint-order:stroke fill markers"
       id="path4493"
       cx="437.36707"
       cy="101.00912"
       rx="9.0291109"
       ry="12.038814"
       transform="rotate(-4.4885585)" />
    <path
       style="fill:#ffff73;fill-opacity:1;stroke:none;stroke-width:5.71213818px;stroke-linecap:butt;stroke-linejoin:miter;stroke-opacity:1"
       d="m 1694.8223,149.5625 c -26.4782,-0.54173 -56.1477,25.58915 -51.086,61.12695 0,0 3.615,-52.20707 45.6817,-53.97461 26.6303,0.7359 41.4101,25.7265 43.5527,50.64063 0.1001,-3.67879 0.023,-7.13715 -0.1855,-10.42774 l 8.0546,-0.49218 -0.5527,-9.0586 -8.4922,0.51758 c -4.3931,-26.7138 -20.0294,-37.98538 -36.9726,-38.33203 z"
       transform="matrix(0.26458333,0,0,0.26458333,0,11.249983)"
       id="path4505"
       inkscape:connector-curvature="0" />
    <path
       style="fill:#ffff73;fill-opacity:1;stroke:none;stroke-width:1.25271523px;stroke-linecap:butt;stroke-linejoin:miter;stroke-opacity:1"
       d="m 399.99395,56.636359 c -3.6586,-0.04212 -7.31395,3.182665 -8.27548,9.56324 l -2.31457,-0.141076 -0.14676,2.396752 2.23758,0.136427 c -0.0241,0.597445 0.10345,1.391753 0.12335,2.033371 0,0 0.855,-12.645983 8.51177,-12.840981 6.51928,1.454724 7.8123,9.644594 8.26876,15.269353 0.95933,-10.96504 -3.72353,-16.363188 -8.40465,-16.417086 z"
       id="path4509"
       inkscape:connector-curvature="0"
       sodipodi:nodetypes="scccccccs" />
    <path
       style="fill:#ffff73;fill-opacity:1;stroke:none;stroke-width:1.51133657px;stroke-linecap:butt;stroke-linejoin:miter;stroke-opacity:1"
       d="m 390.99229,51.718308 c 9.84232,-2.183285 11.85187,-0.692025 20.81225,4.204683 -3.81455,-6.844305 -17.22407,-16.910213 -20.81224,-4.204626 z"
       id="path4513"
       inkscape:connector-curvature="0"
       sodipodi:nodetypes="cccc" />
    <path
       sodipodi:nodetypes="ccscc"
       inkscape:connector-curvature="0"
       id="path4515"
       d="m 454.15521,46.759969 c -10.06244,-0.620746 -11.81468,1.165818 -19.9012,7.400722 0,0 1.8963,-8.762853 9.53974,-11.372794 7.64342,-2.60994 10.36147,3.972129 10.36147,3.972129 z"
       style="fill:#ffff73;fill-opacity:1;stroke:none;stroke-width:1.51133657px;stroke-linecap:butt;stroke-linejoin:miter;stroke-opacity:1" />
    <path
       style="fill:#ffff73;fill-opacity:1;stroke:none;stroke-width:1.4169482px;stroke-linecap:butt;stroke-linejoin:miter;stroke-opacity:1"
       d="m 474.20651,50.205571 c -0.33039,5.355799 -2.89703,24.580312 -6.39276,41.733093 -2.66185,13.061156 -2.82288,5.595132 -3.49988,9.215846 0,0 -0.91361,-39.362485 -3.36055,-46.528571 -2.44694,-7.166034 -32.01044,-26.390453 -32.01044,-26.390453 l 32.39219,2.442875 z"
       id="path4541"
       inkscape:connector-curvature="0"
       sodipodi:nodetypes="cscsccc" />
    <path
       style="fill:#ffff73;fill-opacity:1;stroke:none;stroke-width:0.37116346;stroke-linecap:butt;stroke-linejoin:miter;stroke-miterlimit:4;stroke-dasharray:none;stroke-opacity:1"
       d="m 392.77783,34.516499 c 0,0 8.86744,10.323296 25.27887,10.323296 16.41137,0 43.27841,-14.161441 43.27841,-14.161441 l -39.44029,-4.896953 z"
       id="path4522"
       inkscape:connector-curvature="0" />
    <path
       style="fill:none;stroke:#fefe73;stroke-width:1;stroke-linecap:round;stroke-linejoin:miter;stroke-miterlimit:4;stroke-dasharray:none;stroke-opacity:1"
       d="m 435.71442,107.59643 c -2.29992,2.26118 -14.11521,3.94338 -20.36886,3.66441"
       id="path4432"
       inkscape:connector-curvature="0"
       sodipodi:nodetypes="cc" />
    <path
       sodipodi:nodetypes="cc"
       inkscape:connector-curvature="0"
       id="path4434"
       d="m 438.89071,108.95575 c -3.17629,-1.35932 -3.17629,-1.35932 -3.41468,-5.22448"
       style="fill:none;stroke:#fefe73;stroke-width:1;stroke-linecap:round;stroke-linejoin:miter;stroke-miterlimit:4;stroke-dasharray:none;stroke-opacity:1" />
  </g>
  <g
     inkscape:groupmode="layer"
     id="layer3"
     inkscape:label="Body"
     transform="translate(-359.85833,-1.9617379)">
    <path
       sodipodi:nodetypes="ccsscccc"
       inkscape:connector-curvature="0"
       id="path4642"
       d="m 392.85876,157.55183 c 0,0 -11.41517,52.36275 -12.22175,61.02705 -0.241,2.58875 22.76062,10.56835 19.82018,14.09836 -3.9323,4.72075 0.36218,18.8767 -9.74425,18.68999 -7.62982,-0.14095 -27.50595,-11.35489 -30.01417,-15.48768 -1.58509,-7.38371 -4.09925,-59.01422 25.9138,-94.62874 19.49095,-9.40295 6.24617,16.30102 6.24617,16.30102 z"
       style="fill:url(#linearGradient4383);fill-opacity:1;stroke:none;stroke-width:1.09127152px;stroke-linecap:butt;stroke-linejoin:miter;stroke-opacity:1" />
    <path
       style="fill:url(#linearGradient4399);fill-opacity:1;stroke:none;stroke-width:0.31914875px;stroke-linecap:butt;stroke-linejoin:miter;stroke-opacity:1"
       d="m 405.4429,160.98914 c 0,0 -2.55482,-19.36174 25.58531,-22.71174 23.32528,22.84799 -25.58531,22.71174 -25.58531,22.71174 z"
       id="path4308"
       inkscape:connector-curvature="0" />
    <path
       style="fill:#e9c6af;fill-opacity:1;stroke:none;stroke-width:0.31914875px;stroke-linecap:butt;stroke-linejoin:miter;stroke-opacity:1"
       d="m 475.39191,251.88686 c 0,0 -7.02583,7.72097 -13.63012,8.90974 -6.60427,1.18878 -9.3375,19.34803 4.3888,17.30025 13.72624,-2.04777 26.8641,-25.54999 26.8641,-25.54999 z"
       id="path4710"
       inkscape:connector-curvature="0" />
    <path
       style="fill:#ffff73;fill-opacity:1;stroke:none;stroke-width:1.09127152px;stroke-linecap:butt;stroke-linejoin:miter;stroke-opacity:1"
       d="m 476.15412,159.39599 c 0,0 4.57842,15.64522 3.62885,28.36611 -1.85004,24.78459 -5.20966,53.99803 -7.33097,59.3428 -3.21008,8.08805 20.71692,16.53278 20.48795,10.31952 -0.22896,-6.2134 21.78339,-81.3952 1.10271,-111.6952 -13.10785,-17.21912 -17.88854,13.66677 -17.88854,13.66677 z"
       id="path4640"
       inkscape:connector-curvature="0"
       sodipodi:nodetypes="cscccc" />
    <g
       id="g4378"
       transform="matrix(1.7508343,0,0,1.7508343,-378.0209,0.67062891)"
       style="stroke:none">
      <g
         id="g4344"
         style="fill:url(#linearGradient4362);fill-opacity:1">
        <path
           sodipodi:nodetypes="csccscc"
           inkscape:connector-curvature="0"
           id="path4300"
           d="m 462.35067,176.62025 c 0,0 1.38686,29.56721 1.73518,35.46936 0.35099,5.94778 7.04284,56.93152 11.4601,57.97489 4.41728,1.04335 9.48869,0.78741 9.4113,-2.62513 -0.0774,-3.41257 0.30742,-44.23912 -1.03585,-50.5514 -1.34327,-6.3123 6.4264,-43.57136 6.4264,-43.57136 z"
           style="fill:url(#linearGradient4339);fill-opacity:1;stroke:none;stroke-width:0.21726681px;stroke-linecap:butt;stroke-linejoin:miter;stroke-opacity:1" />
        <path
           style="fill:url(#linearGradient4341);fill-opacity:1;stroke:none;stroke-width:0.21726681px;stroke-linecap:butt;stroke-linejoin:miter;stroke-opacity:1"
           d="m 439.95752,174.81856 c 0,0 -4.44848,34.8029 -3.57115,40.72521 0.97114,6.55568 10.34006,52.84351 14.81845,54.08617 4.47841,1.24263 9.57345,1.22241 9.38627,-2.17746 -0.1872,-3.39989 -4.06919,-46.53849 -5.62304,-52.88282 -1.55388,-6.34435 7.38262,-37.94941 7.38262,-37.94941 z"
           id="path4298"
           inkscape:connector-curvature="0"
           sodipodi:nodetypes="csccscc" />
      </g>
      <g
         id="g4316"
         style="fill:url(#linearGradient4324);fill-opacity:1;stroke:none">
        <path
           style="fill:url(#linearGradient4343);fill-opacity:1;stroke:none;stroke-width:0.15624751px;stroke-linecap:butt;stroke-linejoin:miter;stroke-opacity:1"
           d="m 429.19397,283.75463 c 2.67772,0.19878 19.70274,0.6413 20.57324,0.0687 2.61753,-4.41459 4.37824,0.31925 4.89271,0.24986 0.74878,-0.13528 7.53992,0.0752 7.62308,-0.87758 0.0832,-0.95285 1.60834,-14.41448 0.50881,-16.27361 -0.16367,-0.27673 -3.59644,-32.92463 -5.10273,-35.39786 -5.65401,-9.28346 -16.03381,1.24463 -18.75846,2.07285 -1.42612,0.4335 9.6357,33.55541 10.07069,35.1249 -3.39338,8.93492 -17.04621,9.79425 -24.59166,6.73167 -1.6956,3.95217 2.83498,8.03296 4.78432,8.30105 z"
           id="path4302"
           inkscape:connector-curvature="0"
           sodipodi:nodetypes="cccccsscccc" />
        <path
           sodipodi:nodetypes="cccsscc"
           inkscape:connector-curvature="0"
           id="path4306"
           d="m 479.24007,284.60508 c 0.74879,-0.13527 8.2013,-0.45666 8.28446,-1.40948 0.0832,-0.95285 1.60834,-14.41448 0.5088,-16.27361 -0.16366,-0.27673 -0.97539,-32.11688 -2.48169,-34.59011 -5.654,-9.28346 -16.03381,1.24463 -18.75846,2.07285 -1.42611,0.4335 5.68329,33.14039 6.11828,34.70988 -8.22788,18.70899 -8.49224,13.27473 6.32861,15.49047 z"
           style="fill:url(#linearGradient4326);fill-opacity:1;stroke:none;stroke-width:0.15624751px;stroke-linecap:butt;stroke-linejoin:miter;stroke-opacity:1" />
      </g>
    </g>
    <g
       id="g4366">
      <path
         style="fill:url(#linearGradient4375);fill-opacity:1;stroke:none;stroke-width:4.12449074px;stroke-linecap:butt;stroke-linejoin:miter;stroke-opacity:1"
         d="m 1461.7109,532.89453 c -0.1753,0.31975 -0.3367,0.64335 -0.498,0.9668 -2.3684,1.76439 -4.5401,4.25879 -6.4961,7.63867 -8.0501,13.90874 -10.9178,54.11482 -7.7754,68.07617 l 40.4629,113.98438 c 31.3366,84.88539 -31.7813,226.42927 -39.668,281.82425 v 0 c 0,0 -34.5072,175.5125 -22.3223,205.9746 6.2963,15.7409 99.6319,23.7552 199.0391,14.6015 92.9666,-8.5605 192.0388,-33.7637 207.9375,-36.1191 32.8989,-4.8739 -51.3516,-230.85157 -51.3516,-230.85157 0,0 -31.4639,-87.10042 -36.6719,-110.01562 -13.9401,-84.7765 66.9693,-246.42115 101.3614,-317.93359 -1.009,-0.73372 -2.1139,-1.25175 -3.3067,-1.58008 -56.2412,-26.77206 -84.825,-34.80335 -145.9656,-44.32617 -10.5609,-1.64493 -93.7199,117.09179 -93.7199,117.09179 -5.8134,-35.93862 6.8795,-74.91341 18.5104,-113.86802 -64.9498,8.57987 -132.6321,3.99423 -159.5358,44.53599 z"
         transform="scale(0.26458333)"
         id="path4617"
         inkscape:connector-curvature="0"
         sodipodi:nodetypes="cccccccccccccccccc" />
    </g>
    <path
       style="fill:#808080;fill-opacity:1;stroke:#808080;stroke-width:1.88775265;stroke-linecap:round;stroke-linejoin:miter;stroke-miterlimit:4;stroke-dasharray:none;stroke-opacity:1"
       d="m 383.04654,266.0079 88.18625,-12.27515"
       id="path4310"
       inkscape:connector-curvature="0"
       sodipodi:nodetypes="cc" />
    <rect
       style="fill:url(#radialGradient4391);fill-opacity:1;stroke:#808080;stroke-width:2.49127197;stroke-linecap:round;stroke-linejoin:bevel;stroke-miterlimit:4;stroke-dasharray:none;stroke-opacity:1;paint-order:markers fill stroke"
       id="rect4314"
       width="15.343036"
       height="14.42993"
       x="50.293392"
       y="489.16183"
       transform="rotate(-51.962862)" />
  </g>
  <g
     inkscape:groupmode="layer"
     id="layer2"
     inkscape:label="Decor"
     style="opacity:0.18600003"
     transform="translate(-359.85833,-13.211721)">
    <ellipse
       style="fill:url(#radialGradient4420);fill-opacity:1;stroke:none;stroke-width:0.84289157;stroke-linecap:round;stroke-linejoin:round;stroke-miterlimit:4;stroke-dasharray:none;stroke-opacity:0.52173911;paint-order:stroke fill markers"
       id="path4577"
       cx="418.53088"
       cy="172.25691"
       rx="8.6399708"
       ry="3.9199862"
       transform="rotate(-11.085754)" />
    <ellipse
       style="fill:url(#radialGradient4418);fill-opacity:1;stroke:none;stroke-width:0.84289157;stroke-linecap:round;stroke-linejoin:round;stroke-miterlimit:4;stroke-dasharray:none;stroke-opacity:0.52173911;paint-order:stroke fill markers"
       id="path4579"
       cx="384.7756"
       cy="148.02016"
       rx="5.99998"
       ry="3.5199881"
       transform="rotate(-8.0315364)" />
    <path
       sodipodi:type="star"
       style="fill:#ffff98;fill-opacity:1;stroke:none;stroke-width:0.69467157;stroke-linecap:round;stroke-linejoin:round;stroke-miterlimit:4;stroke-dasharray:none;stroke-dashoffset:0;stroke-opacity:1;paint-order:stroke fill markers"
       id="path4514"
       sodipodi:sides="5"
       sodipodi:cx="396.98148"
       sodipodi:cy="72.02961"
       sodipodi:r1="3.2590766"
       sodipodi:r2="2.6366487"
       sodipodi:arg1="-0.69865982"
       sodipodi:arg2="-0.070341294"
       inkscape:flatsided="true"
       inkscape:rounded="0.71"
       inkscape:randomized="0"
       d="m 399.47697,69.933397 c 1.74961,2.082874 1.70954,1.514175 0.26927,3.8218 -1.44027,2.307626 -0.91179,2.09378 -3.55154,1.437097 -2.63975,-0.656683 -2.27306,-0.220148 -2.46424,-2.933626 -0.19119,-2.713478 -0.49304,-2.229838 2.02855,-3.250176 2.52159,-1.020339 1.96834,-1.157969 3.71796,0.924905 z"
       inkscape:transform-center-x="-0.22703104"
       inkscape:transform-center-y="-0.067880101" />
    <path
       inkscape:transform-center-y="-0.067914738"
       inkscape:transform-center-x="-0.22712141"
       d="m 443.41608,66.140223 c 1.74962,2.082874 1.70955,1.514174 0.26928,3.8218 -1.44027,2.307625 -0.91179,2.093779 -3.55154,1.437096 -2.63975,-0.656683 -2.27306,-0.220148 -2.46424,-2.933625 -0.19119,-2.713478 -0.49305,-2.229839 2.02855,-3.250177 2.52159,-1.020339 1.96834,-1.157968 3.71795,0.924906 z"
       inkscape:randomized="0"
       inkscape:rounded="0.71"
       inkscape:flatsided="true"
       sodipodi:arg2="-0.070341294"
       sodipodi:arg1="-0.69865982"
       sodipodi:r2="2.6366487"
       sodipodi:r1="3.2590766"
       sodipodi:cy="68.236435"
       sodipodi:cx="440.92059"
       sodipodi:sides="5"
       id="path4516"
       style="fill:#ffff98;fill-opacity:1;stroke:none;stroke-width:0.69467157;stroke-linecap:round;stroke-linejoin:round;stroke-miterlimit:4;stroke-dasharray:none;stroke-dashoffset:0;stroke-opacity:1;paint-order:stroke fill markers"
       sodipodi:type="star" />
  </g>
</svg>
