<?xml version="1.0" encoding="UTF-8" standalone="no"?>
<!-- Created with Inkscape (http://www.inkscape.org/) -->

<svg
   xmlns:dc="http://purl.org/dc/elements/1.1/"
   xmlns:cc="http://creativecommons.org/ns#"
   xmlns:rdf="http://www.w3.org/1999/02/22-rdf-syntax-ns#"
   xmlns:svg="http://www.w3.org/2000/svg"
   xmlns="http://www.w3.org/2000/svg"
   xmlns:xlink="http://www.w3.org/1999/xlink"
   xmlns:sodipodi="http://sodipodi.sourceforge.net/DTD/sodipodi-0.dtd"
   xmlns:inkscape="http://www.inkscape.org/namespaces/inkscape"
   width="833.27527"
   height="1546.3427"
   viewBox="0 0 220.47075 409.13651"
   version="1.1"
   id="svg8"
   inkscape:version="0.92+devel unknown"
   sodipodi:docname="karen kopi pour.svg"
   inkscape:export-filename="/home/mbrickn/Projects/Operation-Ohio/game/images/characters/karen kopi/karen kopi pour.png"
   inkscape:export-xdpi="90"
   inkscape:export-ydpi="90">
  <title
     id="title56">Karen Kopi</title>
  <defs
     id="defs2">
    <linearGradient
       inkscape:collect="always"
       id="linearGradient4614">
      <stop
         style="stop-color:#d6ada7;stop-opacity:1;"
         offset="0"
         id="stop4610" />
      <stop
         style="stop-color:#e9c6af;stop-opacity:1"
         offset="1"
         id="stop4612" />
    </linearGradient>
    <linearGradient
       inkscape:collect="always"
       id="linearGradient4606">
      <stop
         style="stop-color:#d5f6ff;stop-opacity:1;"
         offset="0"
         id="stop4602" />
      <stop
         style="stop-color:#b7efff;stop-opacity:1"
         offset="1"
         id="stop4604" />
    </linearGradient>
    <linearGradient
       inkscape:collect="always"
       id="linearGradient4582">
      <stop
         style="stop-color:#d5f6ff;stop-opacity:1;"
         offset="0"
         id="stop4578" />
      <stop
         style="stop-color:#b1eeff;stop-opacity:1"
         offset="1"
         id="stop4580" />
    </linearGradient>
    <linearGradient
       inkscape:collect="always"
       id="linearGradient4574">
      <stop
         style="stop-color:#d5f6ff;stop-opacity:1;"
         offset="0"
         id="stop4570" />
      <stop
         style="stop-color:#b1eeff;stop-opacity:1"
         offset="1"
         id="stop4572" />
    </linearGradient>
    <linearGradient
       inkscape:collect="always"
       id="linearGradient4565">
      <stop
         style="stop-color:#d40000;stop-opacity:1;"
         offset="0"
         id="stop4561" />
      <stop
         style="stop-color:#b20000;stop-opacity:1"
         offset="1"
         id="stop4563" />
    </linearGradient>
    <linearGradient
       inkscape:collect="always"
       id="linearGradient4557">
      <stop
         style="stop-color:#2e7df5;stop-opacity:1;"
         offset="0"
         id="stop4553" />
      <stop
         style="stop-color:#e9c6af;stop-opacity:1"
         offset="1"
         id="stop4555" />
    </linearGradient>
    <linearGradient
       inkscape:collect="always"
       id="linearGradient4541">
      <stop
         style="stop-color:#803e80;stop-opacity:1;"
         offset="0"
         id="stop4537" />
      <stop
         style="stop-color:#803e80;stop-opacity:0;"
         offset="1"
         id="stop4539" />
    </linearGradient>
    <linearGradient
       inkscape:collect="always"
       id="linearGradient4531">
      <stop
         style="stop-color:#803e80;stop-opacity:1;"
         offset="0"
         id="stop4527" />
      <stop
         style="stop-color:#803e80;stop-opacity:0;"
         offset="1"
         id="stop4529" />
    </linearGradient>
    <linearGradient
       inkscape:collect="always"
       id="linearGradient4523">
      <stop
         style="stop-color:#2e7df5;stop-opacity:1"
         offset="0"
         id="stop4519" />
      <stop
         style="stop-color:#80b3ff;stop-opacity:1"
         offset="1"
         id="stop4521" />
    </linearGradient>
    <linearGradient
       inkscape:collect="always"
       id="linearGradient4388">
      <stop
         style="stop-color:#80b3ff;stop-opacity:1;"
         offset="0"
         id="stop4384" />
      <stop
         style="stop-color:#3384ff;stop-opacity:1"
         offset="1"
         id="stop4386" />
    </linearGradient>
    <linearGradient
       inkscape:collect="always"
       id="linearGradient4380">
      <stop
         style="stop-color:#7f7f7f;stop-opacity:1;"
         offset="0"
         id="stop4376" />
      <stop
         style="stop-color:#645f5f;stop-opacity:1"
         offset="1"
         id="stop4378" />
    </linearGradient>
    <linearGradient
       inkscape:collect="always"
       id="linearGradient4364">
      <stop
         style="stop-color:#6c6c6c;stop-opacity:1;"
         offset="0"
         id="stop4360" />
      <stop
         style="stop-color:#4c4a4a;stop-opacity:1"
         offset="1"
         id="stop4362" />
    </linearGradient>
    <linearGradient
       inkscape:collect="always"
       id="linearGradient4356">
      <stop
         style="stop-color:#6c6c6c;stop-opacity:1;"
         offset="0"
         id="stop4352" />
      <stop
         style="stop-color:#494747;stop-opacity:1"
         offset="1"
         id="stop4354" />
    </linearGradient>
    <linearGradient
       inkscape:collect="always"
       id="linearGradient4348">
      <stop
         style="stop-color:#7f7f7f;stop-opacity:1"
         offset="0"
         id="stop4344" />
      <stop
         style="stop-color:#686868;stop-opacity:1"
         offset="1"
         id="stop4346" />
    </linearGradient>
    <linearGradient
       inkscape:collect="always"
       xlink:href="#linearGradient4348"
       id="linearGradient4350"
       x1="440.70444"
       y1="204.33443"
       x2="445.85645"
       y2="291.92053"
       gradientUnits="userSpaceOnUse" />
    <linearGradient
       inkscape:collect="always"
       xlink:href="#linearGradient4356"
       id="linearGradient4358"
       x1="456.90619"
       y1="410.2692"
       x2="451.92142"
       y2="287.57397"
       gradientUnits="userSpaceOnUse" />
    <linearGradient
       inkscape:collect="always"
       xlink:href="#linearGradient4364"
       id="linearGradient4366"
       x1="476.2326"
       y1="374.56717"
       x2="417.55493"
       y2="290.84637"
       gradientUnits="userSpaceOnUse" />
    <linearGradient
       inkscape:collect="always"
       xlink:href="#linearGradient4380"
       id="linearGradient4382"
       x1="489.55771"
       y1="211.03044"
       x2="480.9592"
       y2="273.25632"
       gradientUnits="userSpaceOnUse" />
    <linearGradient
       inkscape:collect="always"
       xlink:href="#linearGradient4388"
       id="linearGradient4390"
       x1="443.15198"
       y1="145.76378"
       x2="430.36557"
       y2="180.09747"
       gradientUnits="userSpaceOnUse" />
    <linearGradient
       inkscape:collect="always"
       xlink:href="#linearGradient4523"
       id="linearGradient4525"
       x1="431.79007"
       y1="443.16553"
       x2="433.41565"
       y2="392.24506"
       gradientUnits="userSpaceOnUse" />
    <radialGradient
       inkscape:collect="always"
       xlink:href="#linearGradient4531"
       id="radialGradient4535"
       cx="397.85687"
       cy="177.80641"
       fx="397.85687"
       fy="177.80641"
       r="4.7521315"
       gradientTransform="matrix(1,0,0,0.58666662,-392.77162,326.22622)"
       gradientUnits="userSpaceOnUse" />
    <radialGradient
       inkscape:collect="always"
       xlink:href="#linearGradient4541"
       id="radialGradient4543"
       cx="420.75699"
       cy="206.48399"
       fx="420.75699"
       fy="206.48399"
       r="6.8430681"
       gradientTransform="matrix(1,0,0,0.45370374,-405.3215,339.96914)"
       gradientUnits="userSpaceOnUse" />
    <linearGradient
       inkscape:collect="always"
       xlink:href="#linearGradient4557"
       id="linearGradient4559"
       x1="428.10745"
       y1="110.00358"
       x2="433.6265"
       y2="107.42054"
       gradientUnits="userSpaceOnUse"
       gradientTransform="rotate(-61.609767,432.68547,143.96812)" />
    <radialGradient
       inkscape:collect="always"
       xlink:href="#linearGradient4565"
       id="radialGradient4567"
       cx="445.56946"
       cy="46.004551"
       fx="445.56946"
       fy="46.004551"
       r="5.0350928"
       gradientTransform="matrix(1.1992001,-2.218778,1.7524406,0.9471551,-262.0394,1030.9811)"
       gradientUnits="userSpaceOnUse" />
    <linearGradient
       inkscape:collect="always"
       xlink:href="#linearGradient4574"
       id="linearGradient4576"
       x1="470.12561"
       y1="110.77975"
       x2="468.32205"
       y2="116.66282"
       gradientUnits="userSpaceOnUse"
       gradientTransform="rotate(-61.609767,432.68547,143.96812)" />
    <linearGradient
       inkscape:collect="always"
       xlink:href="#linearGradient4582"
       id="linearGradient4584"
       x1="456.87192"
       y1="92.593269"
       x2="456.2648"
       y2="98.026878"
       gradientUnits="userSpaceOnUse"
       gradientTransform="rotate(-61.609767,432.68547,143.96812)" />
    <linearGradient
       inkscape:collect="always"
       xlink:href="#linearGradient4606"
       id="linearGradient4608"
       x1="406.27243"
       y1="91.552765"
       x2="396.45401"
       y2="114.30109"
       gradientUnits="userSpaceOnUse"
       gradientTransform="rotate(-61.609767,432.68547,143.96812)" />
    <linearGradient
       inkscape:collect="always"
       xlink:href="#linearGradient4614"
       id="linearGradient4616"
       x1="436.23621"
       y1="133.10905"
       x2="441.98767"
       y2="138.02507"
       gradientUnits="userSpaceOnUse" />
    <linearGradient
       inkscape:collect="always"
       xlink:href="#linearGradient4388"
       id="linearGradient4377"
       x1="477.55325"
       y1="271.97659"
       x2="468.14243"
       y2="277.91019"
       gradientUnits="userSpaceOnUse" />
    <linearGradient
       inkscape:collect="always"
       xlink:href="#linearGradient4397"
       id="linearGradient4399"
       x1="256.85468"
       y1="152.91217"
       x2="275.00153"
       y2="152.91217"
       gradientUnits="userSpaceOnUse"
       gradientTransform="translate(21.98501,2.2655292)" />
    <linearGradient
       inkscape:collect="always"
       id="linearGradient4397">
      <stop
         style="stop-color:#d45500;stop-opacity:1;"
         offset="0"
         id="stop4393" />
      <stop
         style="stop-color:#c85000;stop-opacity:1"
         offset="1"
         id="stop4395" />
    </linearGradient>
    <linearGradient
       inkscape:collect="always"
       xlink:href="#linearGradient4388"
       id="linearGradient4407"
       x1="249.11299"
       y1="169.25575"
       x2="336.20129"
       y2="169.25575"
       gradientUnits="userSpaceOnUse"
       gradientTransform="translate(21.98501,2.2655292)" />
    <linearGradient
       inkscape:collect="always"
       xlink:href="#linearGradient4389"
       id="linearGradient4391"
       x1="402.42712"
       y1="163.84808"
       x2="372.76929"
       y2="174.14667"
       gradientUnits="userSpaceOnUse" />
    <linearGradient
       inkscape:collect="always"
       id="linearGradient4389">
      <stop
         style="stop-color:#6c6c6c;stop-opacity:1;"
         offset="0"
         id="stop4385" />
      <stop
         style="stop-color:#7f7f7f;stop-opacity:1"
         offset="1"
         id="stop4387" />
    </linearGradient>
    <linearGradient
       inkscape:collect="always"
       xlink:href="#linearGradient4523"
       id="linearGradient4381"
       gradientUnits="userSpaceOnUse"
       x1="431.79007"
       y1="443.16553"
       x2="433.41565"
       y2="392.24506"
       gradientTransform="rotate(-83.363893,407.37466,362.01788)" />
    <linearGradient
       inkscape:collect="always"
       xlink:href="#linearGradient4523"
       id="linearGradient4383"
       gradientUnits="userSpaceOnUse"
       x1="431.79007"
       y1="443.16553"
       x2="433.41565"
       y2="392.24506" />
  </defs>
  <sodipodi:namedview
     id="base"
     pagecolor="#ffffff"
     bordercolor="#666666"
     borderopacity="1.0"
     inkscape:pageopacity="0.0"
     inkscape:pageshadow="2"
     inkscape:zoom="0.35000001"
     inkscape:cx="747.91621"
     inkscape:cy="324.90532"
     inkscape:document-units="mm"
     inkscape:current-layer="layer3"
     showgrid="false"
     inkscape:window-width="1920"
     inkscape:window-height="1016"
     inkscape:window-x="0"
     inkscape:window-y="0"
     inkscape:window-maximized="1"
     units="px"
     inkscape:pagecheckerboard="true"
     inkscape:document-rotation="0"
     fit-margin-top="0"
     fit-margin-left="0"
     fit-margin-right="0"
     fit-margin-bottom="0">
    <inkscape:grid
       type="xygrid"
       id="grid4485"
       originx="-271.26348"
       originy="159.57383" />
  </sodipodi:namedview>
  <metadata
     id="metadata5">
    <rdf:RDF>
      <cc:Work
         rdf:about="">
        <dc:format>image/svg+xml</dc:format>
        <dc:type
           rdf:resource="http://purl.org/dc/dcmitype/StillImage" />
        <dc:title>Karen Kopi</dc:title>
        <cc:license
           rdf:resource="http://creativecommons.org/licenses/by/4.0/" />
        <dc:creator>
          <cc:Agent>
            <dc:title>Maxwell Paul Brickner</dc:title>
          </cc:Agent>
        </dc:creator>
      </cc:Work>
      <cc:License
         rdf:about="http://creativecommons.org/licenses/by/4.0/">
        <cc:permits
           rdf:resource="http://creativecommons.org/ns#Reproduction" />
        <cc:permits
           rdf:resource="http://creativecommons.org/ns#Distribution" />
        <cc:requires
           rdf:resource="http://creativecommons.org/ns#Notice" />
        <cc:requires
           rdf:resource="http://creativecommons.org/ns#Attribution" />
        <cc:permits
           rdf:resource="http://creativecommons.org/ns#DerivativeWorks" />
      </cc:License>
    </rdf:RDF>
  </metadata>
  <g
     inkscape:groupmode="layer"
     id="layer3"
     inkscape:label="Body"
     transform="translate(-271.26348,-36.187296)">
    <path
       style="fill:#552200;stroke:none;stroke-width:0.3320998px;stroke-linecap:butt;stroke-linejoin:miter;stroke-opacity:1"
       d="m 323.4206,84.747134 c 0,0 -0.94884,-3.558211 -7.94664,-0.593035 -1.1264,0.477282 -4.01429,2.066579 -5.59768,5.040053 -0.84699,1.590602 -0.13537,4.000609 -1.22513,5.904091 -1.18042,2.061825 -3.74663,3.411497 -4.74851,5.870997 -0.65576,1.60981 0.47077,3.74775 -0.17014,5.43828 -0.92743,2.44629 -3.18477,4.4977 -3.86938,7.03227 -0.93455,3.45988 0.28895,2.30866 -0.19578,5.59758 -0.32844,2.22836 -2.31379,4.57487 -2.62214,6.89204 -0.22356,1.68 0.57184,3.70041 0.46976,5.29335 -0.11849,1.85018 -1.545,3.69515 -1.65915,5.22462 -0.2986,4.0007 0.75963,6.53583 0.75963,6.53583 l -11.97934,0.23721 c 0,0 0.15255,-2.85412 1.3287,-7.17445 0.4715,-1.73199 1.80433,-3.60007 2.28711,-5.76731 0.4347,-1.95137 -0.25398,-4.04913 0.30957,-6.23914 0.50259,-1.95321 2.43358,-3.86515 2.93146,-5.9361 0.54404,-2.26298 -0.88251,-4.80465 -0.24706,-7.10009 0.60994,-2.20334 3.58851,-4.28204 4.17873,-6.42931 0.55229,-2.00928 -0.43148,-3.85769 0.12661,-5.746712 0.83394,-2.822728 2.71036,-2.691235 3.46722,-5.199844 2.12789,-7.05285 5.05985,-9.920309 7.79721,-11.015241 10.08158,-4.032644 17.43521,-5.337328 19.33292,-3.676825 1.89773,1.660491 -2.72797,5.811736 -2.72797,5.811736 z"
       id="path4581"
       inkscape:connector-curvature="0"
       sodipodi:nodetypes="ccsssssssssccssssssssccc" />
    <path
       style="fill:#d45500;fill-opacity:1;stroke:#d45500;stroke-width:0.3320998px;stroke-linecap:butt;stroke-linejoin:miter;stroke-opacity:1"
       d="m 296.15629,147.40892 c 0,0 6.642,-0.59302 8.42112,0.11862 1.77909,0.71163 1.54188,1.66048 1.30466,2.25353 -0.23719,0.59303 -0.59304,13.52121 -0.59304,14.35144 0,0.83026 -0.11862,2.9652 -2.01631,3.08379 -1.89771,0.11862 -7.94668,0.23722 -7.94668,0.23722 l 0.23722,-2.25354 c 0,0 4.5071,0.47443 6.04896,0 1.54192,-0.47442 1.77913,-1.18607 1.6605,-2.13492 -0.11862,-0.94885 1.06747,-11.7421 0.71166,-12.57235 -0.35583,-0.83025 -1.54191,-1.30469 -2.37216,-1.18607 -0.83024,0.11861 -6.16756,0.11861 -6.16756,0.11861 z"
       id="path4578"
       inkscape:connector-curvature="0" />
    <path
       style="fill:url(#linearGradient4399);fill-opacity:1;stroke:none;stroke-width:0.3320998px;stroke-linecap:butt;stroke-linejoin:miter;stroke-opacity:1"
       d="m 278.83968,173.62109 17.90967,0.11861 0.23719,-36.64958 -17.79105,-0.47442 z"
       id="path4575"
       inkscape:connector-curvature="0" />
    <path
       style="fill:url(#linearGradient4407);fill-opacity:1;stroke:none;stroke-width:0.3320998px;stroke-linecap:butt;stroke-linejoin:miter;stroke-opacity:1"
       d="m 350.03905,177.94524 c 0,0 -37.47986,-5.93035 -46.01957,-4.50707 -8.53967,1.42329 -23.24698,5.93036 -31.78666,-0.11862 -2.37216,-3.91403 0.35581,-3.91403 0.35581,-3.91403 0,0 23.6028,2.37215 32.97275,-1.30468 10.43745,-1.54189 25.73775,-5.45592 52.42433,-0.83025 -2.60935,11.50489 -7.94666,10.67464 -7.94666,10.67464 z"
       id="path4573"
       inkscape:connector-curvature="0" />
    <path
       sodipodi:nodetypes="ccccc"
       inkscape:connector-curvature="0"
       id="path4642"
       d="m 338.18504,163.62534 c -8.88995,-1.72063 -19.78721,15.7724 -13.47831,14.33855 6.30904,-1.43385 59.26318,9.90552 103.58946,-9.68989 15.07567,-16.7277 1.79714,-18.2746 1.79714,-18.2746 -22.44249,13.21092 -66.53237,17.36243 -91.90829,13.62594 z"
       style="fill:url(#linearGradient4391);fill-opacity:1;stroke:none;stroke-width:1.13555539px;stroke-linecap:butt;stroke-linejoin:miter;stroke-opacity:1" />
    <path
       style="display:inline;fill:url(#linearGradient4377);fill-opacity:1;stroke:none;stroke-width:0.25264218px;stroke-linecap:butt;stroke-linejoin:miter;stroke-opacity:1"
       d="m 464.25878,284.99203 c -2.07803,0.76611 -5.69911,3.73878 -8.54671,3.31551 -1.4401,-0.21405 -2.79906,-0.5016 -3.79064,-0.73357 -2.94275,-2.42353 -2.9739,-17.35644 1.26703,-15.72989 2.62052,1.0041 7.36344,2.75901 9.72064,3.24377 7.4505,0.84515 7.54799,0.66911 8.47368,-6.07613 l 10.93958,1.96715 c -5.19158,7.43692 -7.21145,9.38426 -18.06358,14.01316 z"
       id="path4565"
       inkscape:connector-curvature="0"
       sodipodi:nodetypes="cccccccc" />
    <path
       style="fill:url(#linearGradient4358);fill-opacity:1;stroke:none;stroke-width:0.32028097px;stroke-linecap:butt;stroke-linejoin:miter;stroke-opacity:1"
       d="m 433.10561,275.92026 c 0,0 0.8969,49.1505 1.41035,57.85107 0.51743,8.76784 10.38213,83.92486 16.89376,85.46293 6.51169,1.53804 13.98765,1.16074 13.87358,-3.86982 -0.11406,-5.03058 0.45316,-65.2145 -1.52699,-74.51967 -1.98017,-9.30521 4.38612,-62.93458 4.38612,-62.93458 z"
       id="path4300"
       inkscape:connector-curvature="0"
       sodipodi:nodetypes="csccscc" />
    <path
       sodipodi:nodetypes="ccccccc"
       inkscape:connector-curvature="0"
       id="path4298"
       d="m 400.39817,293.79073 c -0.22073,15.60318 -14.7677,48.25128 -2.77079,60.6156 15.25728,14.28791 47.36591,10.05375 69.59434,15.41952 6.6018,1.83183 5.76313,-15.67201 5.48721,-20.68388 -11.27108,-11.38488 -50.82141,4.47026 -54.16819,-12.05976 -2.29059,-9.35244 14.56487,-61.16195 14.56487,-61.16195 z"
       style="fill:url(#linearGradient4366);fill-opacity:1;stroke:none;stroke-width:0.32028097px;stroke-linecap:butt;stroke-linejoin:miter;stroke-opacity:1" />
    <g
       id="g4517"
       style="fill:url(#linearGradient4525);fill-opacity:1">
      <path
         style="fill:url(#linearGradient4381);fill-opacity:1;stroke:none;stroke-width:0.26809183px;stroke-linecap:butt;stroke-linejoin:miter;stroke-opacity:1"
         d="m 484.84189,405.46786 c 0.86973,-4.52428 4.99973,-33.45259 4.19639,-35.04976 -7.00486,-5.33646 1.41225,-7.3986 1.39599,-8.28921 -0.0821,-1.30298 1.62329,-12.8355 0.0159,-13.16616 -1.60747,-0.33068 -24.24798,-5.59931 -27.63455,-4.09398 -0.50411,0.22405 -7.79318,-1.83415 -11.03783,1.92885 -7.30587,8.47299 -2.89818,19.18025 -2.0269,23.98817 0.45603,2.51652 10.63671,-1.62656 13.39786,-2.05673 14.55511,7.55508 13.31254,30.99425 6.59677,43.24685 6.39954,3.67351 14.25286,-3.2389 15.0963,-6.50804 z"
         id="path4302"
         inkscape:connector-curvature="0"
         sodipodi:nodetypes="cccccsscccc" />
      <path
         sodipodi:nodetypes="cccsscc"
         inkscape:connector-curvature="0"
         id="path4306"
         d="m 453.2046,445.3238 c 1.26303,-0.22817 13.83371,-0.77028 13.974,-2.37747 0.14027,-1.60723 2.71289,-24.31392 0.85823,-27.44986 -0.27608,-0.46679 0.66673,-6.99111 -1.87404,-11.16289 -9.53701,-15.65906 -21.80985,-1.07748 -26.40571,0.31955 -2.40552,0.7312 2.03889,11.89442 2.77261,14.54179 -13.87855,31.5578 -14.32448,22.39143 10.67491,26.12888 z"
         style="fill:url(#linearGradient4383);fill-opacity:1;stroke:none;stroke-width:0.26355368px;stroke-linecap:butt;stroke-linejoin:miter;stroke-opacity:1" />
    </g>
    <path
       style="fill:url(#linearGradient4390);fill-opacity:1;stroke:none;stroke-width:1.00359881px;stroke-linecap:butt;stroke-linejoin:miter;stroke-opacity:1"
       d="m 417.67256,170.59941 c -6.57251,12.00537 6.26612,19.91963 18.60372,22.72862 17.72296,-21.55825 23.45335,-46.62274 9.83832,-47.49942 -15.59229,-1.02176 -18.99121,9.19094 -28.44204,24.7708 z"
       id="path4615"
       inkscape:connector-curvature="0"
       sodipodi:nodetypes="cccc" />
    <path
       inkscape:connector-curvature="0"
       style="fill:url(#linearGradient4616);fill-opacity:1;stroke:none;stroke-width:1.00359881px;stroke-linecap:butt;stroke-linejoin:miter;stroke-opacity:1"
       d="m 438.80213,126.32479 c -3.65093,-0.15507 -7.65343,10.55988 -7.65343,10.55988 0,0 2.53712,5.25879 3.31931,11.03567 -0.68132,1.20661 -1.16981,3.2161 -1.29411,4.12773 1.8488,8.6084 5.83031,6.33586 13.25552,5.31442 4.34361,-0.46999 5.65357,-3.79137 6.04666,-5.5516 0.64651,0.18293 0.72294,0.40721 0.72294,0.40721 -3.64881,-7.63005 -5.1085,-19.60074 -14.39689,-25.89331 z"
       id="path4612"
       sodipodi:nodetypes="cccccccc" />
    <path
       style="fill:url(#linearGradient4350);fill-opacity:1;stroke:none;stroke-width:1.00359881px;stroke-linecap:butt;stroke-linejoin:miter;stroke-opacity:1"
       d="m 407.19447,176.27056 c 1.47832,10.93834 7.1813,23.23429 9.08156,34.39494 0,0 3.29496,7.857 -2.78777,21.28968 -6.08272,13.43276 -11.14243,36.72464 -11.14243,36.72464 0,0 -1.94014,15.47458 -1.94792,25.11102 1.73901,2.04766 33.96428,4.32966 69.28575,0.0705 4.69171,-3.67889 1.69912,-24.84962 1.69912,-24.84962 0,0 -7.53917,-30.46199 -8.80639,-36.03789 -3.39199,-20.62837 13.95902,-48.17751 22.32753,-65.57842 -11.87147,-10.60176 -20.04311,-16.21023 -33.42932,-20.35616 -2.48432,-0.76944 -19.3833,26.41487 -19.3833,26.41487 -1.41454,-8.74484 -0.45342,-16.0551 2.37671,-25.53378 -13.26768,3.21777 -27.73089,18.32694 -27.27354,28.35022 z"
       id="path4617"
       inkscape:connector-curvature="0"
       sodipodi:nodetypes="ccccccccccccc" />
    <path
       style="fill:url(#linearGradient4382);fill-opacity:1;stroke:none;stroke-width:0.82062042px;stroke-linecap:butt;stroke-linejoin:miter;stroke-opacity:1"
       d="m 473.29263,185.56531 c 6.92288,21.55318 7.44518,57.12419 -1.90995,83.4464 -2.58953,6.00946 14.39408,5.01086 14.35763,0.33554 -0.0365,-4.67541 14.04703,-78.72472 -0.83639,-101.95184 -9.47677,-13.22928 -11.61129,18.1699 -11.61129,18.1699 z"
       id="path4640"
       inkscape:connector-curvature="0"
       sodipodi:nodetypes="ccccc" />
  </g>
  <g
     inkscape:label="Head"
     inkscape:groupmode="layer"
     id="layer1"
     transform="translate(-271.26348,-47.437279)">
    <path
       style="fill:url(#linearGradient4608);fill-opacity:1;stroke:none;stroke-width:0.29350835px;stroke-linecap:butt;stroke-linejoin:miter;stroke-opacity:1"
       d="m 418.73648,98.220701 c 0,0 6.27109,-2.17147 7.33716,-4.92339 -0.87246,-2.283018 -31.97468,-37.057571 -56.53216,-5.289662 -24.55748,31.767921 0.4615,59.112101 6.61762,63.154301 6.15616,4.04218 23.26288,-2.91712 22.37939,-28.17893 19.24928,-24.151199 20.19799,-24.762319 20.19799,-24.762319 z"
       id="path4522"
       inkscape:connector-curvature="0" />
    <path
       style="fill:#e9c6af;stroke:none;stroke-width:1.00359881px;stroke-linecap:butt;stroke-linejoin:miter;stroke-opacity:1"
       d="m 386.25016,146.32471 c 0,0 22.07238,11.92963 35.67321,7.87253 13.60081,-4.05711 18.37266,-12.88606 18.37266,-12.88606 0,0 3.34744,-5.5321 0.33666,-17.73331 -4.33456,-17.56576 -32.19442,-39.413221 -32.19442,-39.413221 0,0 -22.07246,-11.929671 -41.15983,23.386161 -11.9296,22.07241 18.97172,38.7739 18.97172,38.7739 z"
       id="path4487"
       inkscape:connector-curvature="0"
       sodipodi:nodetypes="cccscsc" />
    <ellipse
       ry="10.035988"
       rx="8.6918821"
       cy="404.35138"
       cx="98.743729"
       id="ellipse4497"
       style="fill:#ffffff;fill-opacity:1;stroke:none;stroke-width:4.07609129;stroke-linecap:round;stroke-linejoin:round;stroke-miterlimit:4;stroke-dasharray:none;stroke-opacity:1;paint-order:stroke fill markers"
       transform="rotate(-61.609767)" />
    <path
       sodipodi:nodetypes="ccc"
       style="fill:url(#linearGradient4559);fill-opacity:1;stroke:none;stroke-width:0.66759086;stroke-linecap:butt;stroke-linejoin:miter;stroke-miterlimit:4;stroke-dasharray:none;stroke-opacity:1"
       d="m 395.30751,125.15023 c 0,0 1.81304,0.10742 5.32161,6.69605 2.56894,-7.55475 5.80121,-8.16345 5.80121,-8.16345"
       id="path4489"
       inkscape:connector-curvature="0" />
    <ellipse
       ry="11.222578"
       rx="6.187448"
       cy="412.40558"
       cx="30.487455"
       id="ellipse4499"
       style="fill:#ffffff;fill-opacity:1;stroke:none;stroke-width:4.4540453;stroke-linecap:round;stroke-linejoin:round;stroke-miterlimit:4;stroke-dasharray:none;stroke-opacity:1;paint-order:stroke fill markers"
       transform="rotate(-66.098325)" />
    <ellipse
       style="fill:#80b3ff;fill-opacity:1;stroke:none;stroke-width:3.42271876;stroke-linecap:round;stroke-linejoin:round;stroke-miterlimit:4;stroke-dasharray:none;stroke-opacity:1;paint-order:stroke fill markers"
       id="path4491"
       cx="28.970625"
       cy="412.78348"
       rx="4.690197"
       ry="8.7427149"
       transform="rotate(-66.098325)" />
    <ellipse
       style="fill:#80b3ff;fill-opacity:1;stroke:none;stroke-width:3.52749324;stroke-linecap:round;stroke-linejoin:round;stroke-miterlimit:4;stroke-dasharray:none;stroke-opacity:1;paint-order:stroke fill markers"
       id="path4493"
       cx="65.06852"
       cy="411.28412"
       rx="6.9998693"
       ry="9.3331594"
       transform="rotate(-66.098325)" />
    <path
       sodipodi:nodetypes="ccccc"
       style="fill:#d5f6ff;fill-opacity:1;stroke:#d5f6ff;stroke-width:1.12225771px;stroke-linecap:butt;stroke-linejoin:miter;stroke-opacity:1"
       d="m 398.3521,113.1888 c 0,0 -7.93612,-5.2159 -4.31192,-12.65181 3.62432,-7.435849 12.87604,-3.209189 12.87604,-3.209189 0,0 -10.21997,-5.751781 -13.66564,2.14689 -3.44572,7.898619 5.10153,13.714139 5.10153,13.714139 z"
       id="path4505"
       inkscape:connector-curvature="0" />
    <path
       style="fill:#d5f6ff;fill-opacity:1;stroke:#d5f6ff;stroke-width:1.12225771px;stroke-linecap:butt;stroke-linejoin:miter;stroke-opacity:1"
       d="m 406.43772,96.732161 0.98305,-1.10787"
       id="path4507"
       inkscape:connector-curvature="0"
       sodipodi:nodetypes="cc" />
    <path
       inkscape:connector-curvature="0"
       id="path4509"
       d="m 385.36456,144.28469 c 0,0 -7.79666,-5.04747 -5.22068,-10.11812 2.57611,-5.07061 11.17991,-1.07182 11.17991,-1.07182 0,0 -10.07858,-4.86409 -12.43156,0.56894 -2.35303,5.43303 6.47233,10.621 6.47233,10.621 z"
       style="fill:#d5f6ff;fill-opacity:1;stroke:#d5f6ff;stroke-width:0.93021601px;stroke-linecap:butt;stroke-linejoin:miter;stroke-opacity:1"
       sodipodi:nodetypes="ccccc" />
    <path
       sodipodi:nodetypes="cc"
       inkscape:connector-curvature="0"
       id="path4511"
       d="m 384.07864,145.0223 0.80411,-0.70411"
       style="fill:#d5f6ff;fill-opacity:1;stroke:#d5f6ff;stroke-width:0.93021601px;stroke-linecap:butt;stroke-linejoin:miter;stroke-opacity:1" />
    <path
       style="fill:#d5f6ff;fill-opacity:1;stroke:none;stroke-width:1.12225771px;stroke-linecap:butt;stroke-linejoin:miter;stroke-opacity:1"
       d="m 384.11985,120.0313 c 0,0 -1.10268,4.93628 -2.73388,6.69334 -1.63123,1.75707 -7.36097,5.41775 -7.36097,5.41775 0,0 6.60506,0.83472 10.31938,-3.87415 3.7143,-4.70887 -0.22453,-8.23694 -0.22453,-8.23694 z"
       id="path4513"
       inkscape:connector-curvature="0"
       sodipodi:nodetypes="cccsc" />
    <path
       sodipodi:nodetypes="cccsc"
       inkscape:connector-curvature="0"
       id="path4515"
       d="m 387.37115,117.27958 c 0,0 2.91625,-4.13257 3.12244,-6.52115 0.20609,-2.38865 -0.9305,-9.09231 -0.9305,-9.09231 0,0 5.05483,4.33265 4.06113,10.24722 -0.9937,5.91457 -6.2531,5.36621 -6.2531,5.36621 z"
       style="fill:#d5f6ff;fill-opacity:1;stroke:none;stroke-width:1.12225771px;stroke-linecap:butt;stroke-linejoin:miter;stroke-opacity:1" />
    <path
       style="fill:none;fill-opacity:1;stroke:#d6ada7;stroke-width:1.62515807;stroke-linecap:round;stroke-linejoin:miter;stroke-miterlimit:4;stroke-dasharray:none;stroke-opacity:1;paint-order:stroke fill markers"
       d="m 429.73407,136.25621 c 0,0 1.89277,-2.73042 1.23209,-7.01962"
       id="path4520"
       inkscape:connector-curvature="0"
       sodipodi:nodetypes="cc" />
    <path
       style="fill:#d5f6ff;fill-opacity:1;stroke:#d5f6ff;stroke-width:0.29350835px;stroke-linecap:butt;stroke-linejoin:miter;stroke-opacity:1"
       d="m 368.64204,135.91584 c 0,0 8.49963,-0.29295 15.867,-18.13324 7.36737,-17.840269 4.73936,-25.916826 -1.33036,-32.146297 -6.87641,2.434065 -20.77509,17.081357 -20.53662,28.331957 0.23846,11.2506 5.99998,21.94758 5.99998,21.94758 z"
       id="path4580"
       inkscape:connector-curvature="0" />
    <path
       inkscape:connector-curvature="0"
       id="path4582"
       d="m 405.16459,79.409488 c 0,0 4.41146,7.271078 -6.47713,23.208242 -10.88857,15.93715 -19.08499,18.16334 -27.62172,16.49835 -1.73094,-7.08615 2.90829,-26.737969 12.45092,-32.702102 9.54264,-5.964121 21.64793,-7.00449 21.64793,-7.00449 z"
       style="fill:url(#linearGradient4584);fill-opacity:1;stroke:none;stroke-width:0.29350835px;stroke-linecap:butt;stroke-linejoin:miter;stroke-opacity:1" />
    <path
       style="fill:url(#linearGradient4576);fill-opacity:1;stroke:none;stroke-width:0.29350835px;stroke-linecap:butt;stroke-linejoin:miter;stroke-opacity:1"
       d="m 405.17065,86.569254 c 0,0 14.02178,9.796227 13.71002,13.334967 -0.31177,3.538759 -3.30146,5.571569 -3.30146,5.571569 0,0 5.9591,2.40961 7.85168,-0.78025 1.89257,-3.1899 2.84019,-6.424409 2.64274,-11.398219 -4.65608,-4.518919 -22.6485,-17.486626 -20.90298,-6.728067 z"
       id="path4514"
       inkscape:connector-curvature="0"
       sodipodi:nodetypes="cscccc" />
    <path
       style="fill:#ffffff;stroke:none;stroke-width:0.29350835px;stroke-linecap:butt;stroke-linejoin:miter;stroke-opacity:1"
       d="m 314.79959,97.884331 c 44.2637,28.473299 44.48571,27.750689 44.48571,27.750689 0,0 28.42866,-22.04463 32.81185,-51.355627 -8.92209,-4.789407 -3.37867,-1.814493 -9.27739,-4.981355 1.40793,-6.017466 1.51844,-14.925418 -7.84273,-19.774703 -9.98469,-5.172285 -16.81326,0.381646 -20.26888,4.68029 -0.59333,-0.318995 -10.28266,-5.521134 -10.28266,-5.521134 0,0 -20.53657,34.567117 -29.6259,49.20184 z m 43.24307,-41.890245 c 2.30143,-2.333936 6.30569,-4.18692 12.77914,-0.965066 6.11874,3.045325 7.02862,7.611759 6.48721,11.309977 -9.1319,-4.903187 -17.45342,-9.370599 -19.26635,-10.344911 z"
       id="path4518"
       inkscape:connector-curvature="0" />
    <path
       inkscape:connector-curvature="0"
       id="path4523"
       style="font-style:normal;font-variant:normal;font-weight:normal;font-stretch:normal;font-size:medium;line-height:1.25;font-family:Sniglet;-inkscape-font-specification:Sniglet;text-align:center;letter-spacing:0px;word-spacing:0px;text-anchor:middle;fill:#28170b;fill-opacity:1;stroke:none;stroke-width:0.34535471"
       d="m 328.97109,86.085695 q -0.18461,-0.171693 -0.3235,-0.41249 -0.12363,-0.213961 -0.23953,-0.489447 -0.12,-0.294518 -0.16743,-0.673663 -0.087,-0.670137 0.11827,-1.080925 0.21286,-0.422307 0.49547,-0.649494 0.33613,-0.258046 0.78009,-0.378602 0.45178,-0.08223 0.79692,-0.0032 0.35276,0.06755 0.62171,0.261914 0.26896,0.194357 0.46549,0.473235 0.19262,0.259761 0.3317,0.550396 0.32079,0.692193 0.41265,1.630525 0.94574,-0.153243 1.64305,-0.156007 0.70491,-0.01431 1.22253,0.0794 0.50609,0.08609 0.84011,0.257168 0.34163,0.159534 0.56082,0.354039 0.49225,0.457792 0.48352,1.14748 -0.0246,0.563309 -0.20306,0.958661 -0.17088,0.383824 -0.4572,0.641678 -0.2748,0.26547 -0.62285,0.416293 -0.34043,0.139292 -0.70411,0.213537 -0.84222,0.17196 -1.9003,0.01911 0.50299,0.266169 0.80713,0.63278 0.26568,0.324591 0.39403,0.806844 0.12837,0.482244 -0.14483,1.146166 -0.14412,0.368401 -0.36539,0.603001 -0.22129,0.2346 -0.46211,0.3735 -0.25234,0.13128 -0.52032,0.18599 -0.27189,0.0355 -0.52092,0.0366 -0.59769,0.002 -1.26533,-0.24014 -0.63699,-0.23879 -1.33197,-0.61532 -0.60281,-0.31557 -1.35579,-0.829849 -0.75304,-0.514188 -1.54902,-1.239004 -0.796,-0.724777 -1.07048,-1.3367 -0.26691,-0.623425 -0.27258,-1.090854 -0.01,-0.536349 0.24896,-0.978006 0.28551,-0.457074 0.57946,-0.726454 0.28241,-0.276994 0.55781,-0.393033 0.28301,-0.127561 0.55118,-0.13247 0.27581,-0.01643 0.5059,0.03629 0.55609,0.135704 1.05986,0.601135 z" />
    <path
       inkscape:connector-curvature="0"
       id="path4525"
       style="font-style:normal;font-variant:normal;font-weight:normal;font-stretch:normal;font-size:medium;line-height:1.25;font-family:Sniglet;-inkscape-font-specification:Sniglet;text-align:center;letter-spacing:0px;word-spacing:0px;text-anchor:middle;fill:#28170b;fill-opacity:1;stroke:none;stroke-width:0.34535471"
       d="m 332.77017,76.253413 q 0.45699,-0.691482 0.97261,-1.095843 0.51171,-0.423508 1.04727,-0.632512 0.53557,-0.209044 1.06802,-0.238002 0.52091,-0.03657 1.00395,0.0343 1.13094,0.167875 2.25234,0.826219 0.81825,0.540798 1.33397,1.113416 0.50417,0.565029 0.78999,1.134757 0.2819,0.550586 0.37218,1.090455 0.0979,0.528338 0.0768,1.011187 -0.0606,1.119008 -0.677,2.201941 -0.51793,0.783672 -1.06773,1.264799 -0.56132,0.473525 -1.11581,0.736268 -0.56603,0.255146 -1.10979,0.32628 -0.55531,0.06353 -1.05357,0.01572 -1.1575,-0.10264 -2.29043,-0.768595 -0.89894,-0.594071 -1.44159,-1.201114 -0.53504,-0.618542 -0.81711,-1.218959 -0.28601,-0.619543 -0.34193,-1.186345 -0.0675,-0.574441 0.007,-1.08816 0.1753,-1.192264 0.99069,-2.325796 z m 3.58517,2.617808 q -0.12948,0.195917 -0.0787,0.44475 0.0584,0.237318 0.25801,0.336153 0.25731,0.136799 0.42562,0.08258 0.17598,-0.06584 0.30546,-0.261751 0.12948,-0.195922 0.098,-0.398859 -0.0312,-0.202976 -0.22742,-0.332409 -0.18441,-0.121836 -0.41039,-0.105629 -0.22598,0.01623 -0.3707,0.235199 z" />
    <path
       inkscape:connector-curvature="0"
       id="path4527"
       style="font-style:normal;font-variant:normal;font-weight:normal;font-stretch:normal;font-size:medium;line-height:1.25;font-family:Sniglet;-inkscape-font-specification:Sniglet;text-align:center;letter-spacing:0px;word-spacing:0px;text-anchor:middle;fill:#28170b;fill-opacity:1;stroke:none;stroke-width:0.34535471"
       d="m 343.5302,66.010586 q 0.6491,0.39584 1.03021,0.846437 0.36963,0.442942 0.54401,0.905769 0.16267,0.455318 0.15703,0.915058 0.002,0.448266 -0.10384,0.858647 -0.22981,0.974096 -0.96161,1.931052 0.48734,0.189627 0.81003,0.402902 0.32268,0.213281 0.519,0.442373 0.19628,0.229121 0.29307,0.458572 0.0852,0.221871 0.10899,0.436346 0.0518,0.497872 -0.20286,1.008467 -0.38023,0.725652 -0.9193,1.015172 -0.53907,0.289516 -1.03693,0.34131 -0.58597,0.05982 -1.19578,-0.09482 -1.07411,-0.329026 -1.91521,-0.835232 -0.83348,-0.517761 -1.41403,-1.017316 -0.66513,-0.572048 -1.18103,-1.194492 -0.35044,-0.446882 -0.52099,-0.890524 -0.17434,-0.462874 -0.22957,-0.880295 -0.0592,-0.436557 5.3e-4,-0.827589 0.0482,-0.398661 0.14643,-0.747713 0.24193,-0.817051 0.79073,-1.547219 0.44959,-0.630157 0.90777,-1.022787 0.46582,-0.404167 0.9209,-0.616708 0.45118,-0.231686 0.88382,-0.310046 0.43263,-0.07839 0.82347,-0.06845 0.88522,0.0386 1.74526,0.491085 z m -2.55356,3.362699 q -0.12948,0.195919 -0.0787,0.444751 0.0584,0.237312 0.25801,0.336158 0.2573,0.136795 0.42561,0.08258 0.17599,-0.06584 0.30547,-0.261751 0.12949,-0.195931 0.098,-0.398872 -0.0312,-0.202966 -0.2274,-0.332405 -0.18442,-0.121836 -0.41039,-0.10563 -0.22599,0.01624 -0.3707,0.2352 z" />
    <path
       inkscape:connector-curvature="0"
       id="path4529"
       style="font-style:normal;font-variant:normal;font-weight:normal;font-stretch:normal;font-size:medium;line-height:1.25;font-family:Sniglet;-inkscape-font-specification:Sniglet;text-align:center;letter-spacing:0px;word-spacing:0px;text-anchor:middle;fill:#28170b;fill-opacity:1;stroke:none;stroke-width:0.34535471"
       d="m 347.15368,67.042102 q -0.51821,-0.243138 -1.08643,-0.586054 -0.5723,-0.361726 -1.04875,-0.693115 -0.55708,-0.384757 -1.11048,-0.800149 -0.67645,-0.52985 -1.08881,-1.133563 -0.17344,-0.263695 -0.30493,-0.565841 -0.13149,-0.302146 -0.16728,-0.623837 -0.0396,-0.340847 0.0355,-0.705124 0.0752,-0.364279 0.32651,-0.744601 0.33925,-0.438135 0.83261,-0.658498 0.21035,-0.0928 0.47834,-0.147519 0.27559,-0.06624 0.60901,-0.04458 0.34103,0.01012 0.73228,0.11967 0.39885,0.09802 0.85182,0.31459 0.86766,0.440983 1.60136,0.909259 0.72216,0.460674 1.2601,0.849349 0.61101,0.453487 1.12611,0.876708 0.51139,0.453896 0.80461,0.96229 0.1159,0.225567 0.20884,0.485755 0.0814,0.252572 0.10177,0.547491 0.009,0.287325 -0.0781,0.594177 -0.0869,0.306861 -0.30015,0.629549 -0.23612,0.357269 -0.52264,0.565312 -0.29805,0.20043 -0.61564,0.305152 -0.30997,0.09319 -0.62794,0.09833 -0.31037,-0.0064 -0.60941,-0.05503 -0.694,-0.127485 -1.40813,-0.500104 z" />
    <path
       inkscape:connector-curvature="0"
       id="path4531"
       style="font-style:normal;font-variant:normal;font-weight:normal;font-stretch:normal;font-size:medium;line-height:1.25;font-family:Sniglet;-inkscape-font-specification:Sniglet;text-align:center;letter-spacing:0px;word-spacing:0px;text-anchor:middle;fill:url(#radialGradient4567);fill-opacity:1;stroke:none;stroke-width:0.87102377"
       d="m 361.17837,91.727253 q -4.67711,-0.297375 -12.02313,3.351018 -3.42348,1.69348 -5.94978,0.0239 -1.06445,-0.70351 -1.79047,-1.73395 -0.71664,-1.0446 -0.96716,-2.331734 -0.24087,-1.239935 -0.0195,-2.500634 0.2123,-1.18516 0.93453,-2.277973 0.72225,-1.092834 1.72932,-1.752679 1.04946,-0.693172 2.30818,-0.962428 1.23513,-0.26441 2.47709,-0.01465 1.2371,0.226279 2.34413,0.957924 -1.10703,-0.731645 -1.80949,-1.766902 -0.70728,-1.058787 -0.94818,-2.29873 -0.24565,-1.263545 -0.0195,-2.500617 0.21235,-1.185235 0.93461,-2.278071 0.72222,-1.09282 1.7293,-1.752684 1.07302,-0.697928 2.30815,-0.96236 1.28229,-0.274063 2.51487,-0.01009 1.24194,0.249779 2.3064,0.95327 2.55467,1.688391 2.31035,5.482965 -0.47679,8.188278 1.63023,12.37446 z" />
    <path
       inkscape:connector-curvature="0"
       id="path4533"
       style="font-style:normal;font-variant:normal;font-weight:normal;font-stretch:normal;font-size:medium;line-height:1.25;font-family:Sniglet;-inkscape-font-specification:Sniglet;text-align:center;letter-spacing:0px;word-spacing:0px;text-anchor:middle;fill:#28170b;fill-opacity:1;stroke:none;stroke-width:0.34535471"
       d="m 357.61157,108.78796 q -0.38803,0.68737 -0.86908,1.11459 -0.20235,0.18089 -0.44317,0.31977 -0.25233,0.13134 -0.52794,0.19753 -0.27953,0.0468 -0.59006,-0.009 -0.30294,-0.0678 -0.63715,-0.28867 -0.57621,-0.38088 -0.75812,-0.8322 -0.18581,-0.47051 -0.16826,-0.87289 0.0135,-0.47131 0.22611,-0.94343 0.41341,-1.05145 0.96923,-1.94257 0.54428,-0.89872 1.055,-1.57127 0.57925,-0.77626 1.20111,-1.44158 0.46561,-0.45397 0.8828,-0.55909 0.42482,-0.11663 0.76216,-0.0758 0.39103,0.0597 0.72526,0.2806 0.36119,0.25524 0.5577,0.53416 0.20412,0.26739 0.2934,0.55821 0.0854,0.27171 0.0712,0.54377 -0.0142,0.27209 -0.0746,0.51371 -0.15484,0.56001 -0.58937,1.11731 0.97489,0.42903 1.66244,0.86692 0.68367,0.41872 1.13333,0.76557 0.52272,0.4117 0.84601,0.77438 0.47702,0.48085 0.56687,0.92112 0.0975,0.42873 0.0491,0.77759 -0.0674,0.40256 -0.30347,0.75982 -0.25506,0.41099 -0.61033,0.67294 -0.31328,0.22348 -0.77267,0.31727 -0.45939,0.0938 -1.10788,-0.15264 -0.67155,-0.26169 -1.30912,-0.64993 -0.64146,-0.4074 -1.13724,-0.7847 -0.58034,-0.44978 -1.10326,-0.91129 z" />
    <path
       inkscape:connector-curvature="0"
       id="path4535"
       style="font-style:normal;font-variant:normal;font-weight:normal;font-stretch:normal;font-size:medium;line-height:1.25;font-family:Sniglet;-inkscape-font-specification:Sniglet;text-align:center;letter-spacing:0px;word-spacing:0px;text-anchor:middle;fill:#28170b;fill-opacity:1;stroke:none;stroke-width:0.34535471"
       d="m 364.13982,104.22166 q -0.5182,-0.24313 -1.08643,-0.58605 -0.5723,-0.36172 -1.04874,-0.6931 -0.55709,-0.38476 -1.11048,-0.80016 -0.67645,-0.52986 -1.08883,-1.13356 -0.17343,-0.26369 -0.30492,-0.56584 -0.13149,-0.30215 -0.16728,-0.623839 -0.0396,-0.34084 0.0355,-0.70512 0.0752,-0.36428 0.32653,-0.7446 0.33923,-0.43814 0.8326,-0.65851 0.21036,-0.0928 0.47834,-0.1475 0.27559,-0.0662 0.609,-0.0446 0.34105,0.0101 0.73229,0.11967 0.39885,0.098 0.85183,0.31459 0.86764,0.44099 1.60134,0.90926 0.72218,0.46068 1.26011,0.84936 0.61101,0.453489 1.1261,0.876709 0.5114,0.45389 0.80462,0.96229 0.1159,0.22556 0.20884,0.48576 0.0814,0.25257 0.10176,0.54749 0.009,0.28732 -0.0781,0.59417 -0.0869,0.30686 -0.30017,0.62955 -0.23612,0.35727 -0.52263,0.56531 -0.29806,0.20043 -0.61564,0.30516 -0.30997,0.0931 -0.62803,0.0978 -0.31036,-0.006 -0.60941,-0.055 -0.694,-0.12748 -1.40812,-0.5001 z" />
    <path
       inkscape:connector-curvature="0"
       id="path4537"
       style="font-style:normal;font-variant:normal;font-weight:normal;font-stretch:normal;font-size:medium;line-height:1.25;font-family:Sniglet;-inkscape-font-specification:Sniglet;text-align:center;letter-spacing:0px;word-spacing:0px;text-anchor:middle;fill:#28170b;fill-opacity:1;stroke:none;stroke-width:0.34535471"
       d="m 372.90888,81.643287 q -0.64969,-0.545281 -1.02768,-1.175955 -0.15434,-0.267577 -0.26665,-0.573656 -0.12395,-0.313644 -0.15201,-0.646895 -0.0397,-0.340829 0.047,-0.697502 0.0752,-0.364287 0.31891,-0.73307 0.37321,-0.564713 0.92401,-0.796801 0.5584,-0.243624 1.07543,-0.299334 0.59358,-0.07134 1.24147,0.02568 0.93171,0.168676 1.76439,0.487187 0.82878,0.299359 1.46987,0.607129 0.75239,0.364826 1.39387,0.772224 0.49165,0.30836 0.81474,0.621258 0.3307,0.301352 0.51961,0.591786 0.18886,0.290449 0.26664,0.573651 0.0739,0.264071 0.075,0.513094 0.006,0.567024 -0.3175,1.081726 -0.29704,0.449458 -0.67537,0.696189 -0.38223,0.227582 -0.80334,0.313557 -0.42502,0.06681 -0.86195,0.02644 -0.44085,-0.05953 -0.85514,-0.184307 -0.9743,-0.279621 -2.00761,-0.945976 0.64187,0.507005 0.86575,0.9199 0.2315,0.401362 0.2403,0.688686 0.0205,0.344751 -0.18531,0.606105 -0.29704,0.449463 -0.71815,0.535441 -0.43263,0.07839 -0.83911,-0.0081 -0.46781,-0.09391 -0.96318,-0.371612 0.703,0.464634 1.18374,0.914785 0.47682,0.43104 0.77726,0.828301 0.28888,0.389665 0.43214,0.749207 0.15087,0.348037 0.20183,0.646697 0.10244,0.696908 -0.21709,1.28056 -0.28943,0.437941 -0.60642,0.692082 -0.30937,0.242611 -0.62304,0.36648 -0.3252,0.116245 -0.6432,0.121363 -0.31798,0.0051 -0.60941,-0.05503 -0.67876,-0.150535 -1.35871,-0.599917 -0.9335,-0.616954 -1.62188,-1.254033 -0.69228,-0.656225 -1.15036,-1.19079 -0.52742,-0.630069 -0.8976,-1.222451 -0.49344,-0.756645 -0.55348,-1.39241 -0.0716,-0.643383 0.0339,-1.103576 0.12808,-0.54457 0.44819,-0.978799 0.25896,-0.391843 0.57223,-0.615312 0.30938,-0.242625 0.62697,-0.347347 0.31758,-0.104722 0.64709,-0.10218 0.31799,-0.0051 0.60942,0.05503 0.6979,0.146628 1.40462,0.580574 z" />
    <g
       id="flowRoot4320"
       style="font-style:normal;font-weight:normal;font-size:40px;line-height:1.25;font-family:'Noto Sans Tagalog';-inkscape-font-specification:'Noto Sans Tagalog';text-align:center;letter-spacing:0px;word-spacing:0px;text-anchor:middle;fill:#28170b;fill-opacity:1;stroke:none"
       transform="matrix(0.15501399,-0.28680923,0.28680923,0.15501399,-5.8803412,652.48241)"
       aria-label="A">
      <path
         inkscape:connector-curvature="0"
         id="path4328"
         style="font-style:normal;font-variant:normal;font-weight:normal;font-stretch:normal;font-family:Sniglet;-inkscape-font-specification:Sniglet;fill:#28170b;fill-opacity:1"
         d="m 2063.9777,209.71445 q -0.96,0.32 -2,0.4 -0.88,0.08 -1.96,-0.08 -1.04,-0.16 -2.08,-0.76 -1.2,-0.72 -1.96,-1.64 -0.72,-0.96 -1.16,-1.84 -0.44,-0.92 -0.6,-1.64 -0.16,-0.76 -0.2,-1 -0.04,0.24 -0.2,1 -0.16,0.72 -0.6,1.64 -0.44,0.88 -1.2,1.84 -0.72,0.92 -1.92,1.64 -1.04,0.6 -2.12,0.76 -1.04,0.16 -1.92,0.08 -1.04,-0.08 -2,-0.4 -0.8,-0.28 -1.4,-0.72 -0.56,-0.48 -0.96,-1.04 -0.36,-0.6 -0.64,-1.24 -0.24,-0.68 -0.36,-1.32 -0.32,-1.52 -0.24,-3.24 0.12,-2.84 0.64,-5.2 0.52,-2.4 1.28,-4.36 0.8,-2 1.72,-3.56 0.92,-1.6 1.8,-2.88 1.32,-1.92 2.68,-2.92 1.4,-1 2.56,-1.44 1.2,-0.48 1.96,-0.52 0.8,-0.08 0.92,-0.08 0.12,0 0.88,0.08 0.8,0.04 1.96,0.52 1.2,0.44 2.6,1.44 1.4,1 2.72,2.92 0.88,1.28 1.76,2.88 0.92,1.56 1.68,3.56 0.8,1.96 1.32,4.36 0.52,2.36 0.64,5.2 0.12,1.72 -0.2,3.24 -0.12,0.64 -0.4,1.32 -0.24,0.64 -0.64,1.24 -0.4,0.56 -1,1.04 -0.56,0.44 -1.36,0.72 z m -9.8,-14.4 q -0.68,0 -1.2,0.52 -0.48,0.52 -0.4,1.16 0.08,0.84 0.48,1.16 0.44,0.32 1.12,0.32 0.68,0 1.12,-0.4 0.44,-0.4 0.44,-1.08 0,-0.64 -0.4,-1.16 -0.4,-0.52 -1.16,-0.52 z" />
    </g>
  </g>
  <g
     inkscape:groupmode="layer"
     id="layer2"
     inkscape:label="Decor"
     style="display:inline;opacity:0.18600003"
     transform="translate(-271.26348,-47.437279)">
    <ellipse
       style="fill:url(#radialGradient4543);fill-opacity:1;stroke:none;stroke-width:0.6675908;stroke-linecap:round;stroke-linejoin:round;stroke-miterlimit:4;stroke-dasharray:none;stroke-opacity:0.52173911;paint-order:stroke fill markers"
       id="path4577"
       cx="15.435496"
       cy="433.65167"
       rx="6.8430681"
       ry="3.1047256"
       transform="rotate(-72.695521)" />
    <ellipse
       style="fill:url(#radialGradient4535);fill-opacity:1;stroke:none;stroke-width:0.6675908;stroke-linecap:round;stroke-linejoin:round;stroke-miterlimit:4;stroke-dasharray:none;stroke-opacity:0.52173911;paint-order:stroke fill markers"
       id="path4579"
       cx="5.0852399"
       cy="430.53931"
       rx="4.7521315"
       ry="2.7879169"
       transform="rotate(-69.641303)" />
    <path
       sodipodi:type="star"
       style="fill:#d5f6ff;fill-opacity:1;stroke:#d5f6ff;stroke-width:3.1022737;stroke-linecap:round;stroke-linejoin:round;stroke-miterlimit:4;stroke-dasharray:none;stroke-dashoffset:0;stroke-opacity:1;paint-order:stroke fill markers"
       id="path4559"
       sodipodi:sides="5"
       sodipodi:cx="414.06119"
       sodipodi:cy="105.05618"
       sodipodi:r1="1.8448302"
       sodipodi:r2="1.492499"
       sodipodi:arg1="1.0040671"
       sodipodi:arg2="1.6323856"
       inkscape:flatsided="true"
       inkscape:rounded="0"
       inkscape:randomized="0"
       d="m 415.05163,106.6126 -2.16461,-0.13349 -0.54195,-2.09992 1.82967,-1.16434 1.67275,1.38032 z"
       inkscape:transform-center-x="-0.13711218"
       inkscape:transform-center-y="-0.040530863"
       transform="rotate(-61.609767,432.68547,143.96812)" />
    <path
       sodipodi:type="star"
       style="fill:#d5f6ff;fill-opacity:1;stroke:#d5f6ff;stroke-width:3.57047558;stroke-linecap:round;stroke-linejoin:round;stroke-miterlimit:4;stroke-dasharray:none;stroke-dashoffset:0;stroke-opacity:1;paint-order:stroke fill markers"
       id="path4561"
       sodipodi:sides="5"
       sodipodi:cx="449.2085"
       sodipodi:cy="101.35939"
       sodipodi:r1="2.8486469"
       sodipodi:r2="2.3046038"
       sodipodi:arg1="1.0303768"
       sodipodi:arg2="1.6586954"
       inkscape:flatsided="true"
       inkscape:rounded="0"
       inkscape:randomized="0"
       d="m 450.67411,103.80208 -3.33585,-0.29397 -0.75125,-3.26343 2.87156,-1.722939 2.52597,2.198599 z"
       inkscape:transform-center-x="-0.2341344"
       inkscape:transform-center-y="-0.039493652"
       transform="rotate(-61.609767,432.68547,143.96812)" />
  </g>
</svg>
