<?xml version="1.0" encoding="UTF-8" standalone="no"?>
<!-- Created with Inkscape (http://www.inkscape.org/) -->

<svg
   xmlns:dc="http://purl.org/dc/elements/1.1/"
   xmlns:cc="http://creativecommons.org/ns#"
   xmlns:rdf="http://www.w3.org/1999/02/22-rdf-syntax-ns#"
   xmlns:svg="http://www.w3.org/2000/svg"
   xmlns="http://www.w3.org/2000/svg"
   xmlns:xlink="http://www.w3.org/1999/xlink"
   xmlns:sodipodi="http://sodipodi.sourceforge.net/DTD/sodipodi-0.dtd"
   xmlns:inkscape="http://www.inkscape.org/namespaces/inkscape"
   width="427.11771"
   height="1587.5492"
   viewBox="0 0 113.00823 420.03907"
   version="1.1"
   id="svg8"
   inkscape:version="0.92+devel unknown"
   sodipodi:docname="guest otaku.svg"
   inkscape:export-filename="/home/mbrickn/Projects/Operation-Ohio/game/images/characters/guests/guest otaku.png"
   inkscape:export-xdpi="90"
   inkscape:export-ydpi="90">
  <title
     id="title4344">Otaku Guest</title>
  <defs
     id="defs2">
    <linearGradient
       inkscape:collect="always"
       id="linearGradient4401">
      <stop
         style="stop-color:#fff500;stop-opacity:1"
         offset="0"
         id="stop4397" />
      <stop
         style="stop-color:#fffcb8;stop-opacity:1"
         offset="1"
         id="stop4399" />
    </linearGradient>
    <linearGradient
       inkscape:collect="always"
       id="linearGradient4388">
      <stop
         style="stop-color:#e2e23a;stop-opacity:1"
         offset="0"
         id="stop4384" />
      <stop
         style="stop-color:#e9c6af;stop-opacity:1"
         offset="1"
         id="stop4386" />
    </linearGradient>
    <linearGradient
       inkscape:collect="always"
       id="linearGradient4370">
      <stop
         style="stop-color:#803e80;stop-opacity:1;"
         offset="0"
         id="stop4366" />
      <stop
         style="stop-color:#803e80;stop-opacity:0;"
         offset="1"
         id="stop4368" />
    </linearGradient>
    <linearGradient
       inkscape:collect="always"
       id="linearGradient4362">
      <stop
         style="stop-color:#803e80;stop-opacity:1;"
         offset="0"
         id="stop4358" />
      <stop
         style="stop-color:#803e80;stop-opacity:0;"
         offset="1"
         id="stop4360" />
    </linearGradient>
    <linearGradient
       inkscape:collect="always"
       id="linearGradient4335">
      <stop
         style="stop-color:#d6ada7;stop-opacity:1;"
         offset="0"
         id="stop4331" />
      <stop
         style="stop-color:#e9c6af;stop-opacity:1"
         offset="1"
         id="stop4333" />
    </linearGradient>
    <linearGradient
       inkscape:collect="always"
       id="linearGradient4326">
      <stop
         style="stop-color:#000000;stop-opacity:1;"
         offset="0"
         id="stop4322" />
      <stop
         style="stop-color:#5f0140;stop-opacity:1"
         offset="1"
         id="stop4324" />
    </linearGradient>
    <linearGradient
       inkscape:collect="always"
       id="linearGradient4318">
      <stop
         style="stop-color:#000000;stop-opacity:1;"
         offset="0"
         id="stop4314" />
      <stop
         style="stop-color:#5f0140;stop-opacity:1"
         offset="1"
         id="stop4316" />
    </linearGradient>
    <linearGradient
       inkscape:collect="always"
       id="linearGradient4310">
      <stop
         style="stop-color:#5f0140;stop-opacity:1"
         offset="0"
         id="stop4306" />
      <stop
         style="stop-color:#000000;stop-opacity:1"
         offset="1"
         id="stop4308" />
    </linearGradient>
    <linearGradient
       inkscape:collect="always"
       xlink:href="#linearGradient4310"
       id="linearGradient4312"
       x1="1685.9763"
       y1="828.1864"
       x2="1683.8884"
       y2="1587.0703"
       gradientUnits="userSpaceOnUse" />
    <linearGradient
       inkscape:collect="always"
       xlink:href="#linearGradient4318"
       id="linearGradient4320"
       x1="444.39545"
       y1="246.04831"
       x2="419.23517"
       y2="235.43692"
       gradientUnits="userSpaceOnUse" />
    <linearGradient
       inkscape:collect="always"
       xlink:href="#linearGradient4326"
       id="linearGradient4328"
       x1="445.88309"
       y1="246.41537"
       x2="477.81412"
       y2="241.80836"
       gradientUnits="userSpaceOnUse" />
    <linearGradient
       inkscape:collect="always"
       xlink:href="#linearGradient4335"
       id="linearGradient4337"
       x1="1697.2698"
       y1="631.51434"
       x2="1709.5909"
       y2="687.62714"
       gradientUnits="userSpaceOnUse" />
    <radialGradient
       inkscape:collect="always"
       xlink:href="#linearGradient4362"
       id="radialGradient4364"
       cx="418.75455"
       cy="239.7178"
       fx="418.75455"
       fy="239.7178"
       r="6.1686893"
       gradientTransform="matrix(1,0,0,0.45370373,0,130.95694)"
       gradientUnits="userSpaceOnUse" />
    <radialGradient
       inkscape:collect="always"
       xlink:href="#linearGradient4370"
       id="radialGradient4372"
       cx="400.82227"
       cy="215.01532"
       fx="400.82227"
       fy="215.01532"
       r="4.2838125"
       gradientTransform="matrix(1,0,0,0.58666661,0,88.873011)"
       gradientUnits="userSpaceOnUse" />
    <linearGradient
       inkscape:collect="always"
       xlink:href="#linearGradient4388"
       id="linearGradient4390"
       x1="435.57776"
       y1="148.64842"
       x2="439.3942"
       y2="144.9799"
       gradientUnits="userSpaceOnUse" />
    <radialGradient
       inkscape:collect="always"
       xlink:href="#linearGradient4401"
       id="radialGradient4403"
       cx="447.38812"
       cy="81.971642"
       fx="447.38812"
       fy="81.971642"
       r="56.312134"
       gradientTransform="matrix(1,0,0,0.73434724,0,17.69988)"
       gradientUnits="userSpaceOnUse" />
    <radialGradient
       inkscape:collect="always"
       xlink:href="#linearGradient4401"
       id="radialGradient4405"
       gradientUnits="userSpaceOnUse"
       gradientTransform="matrix(1,0,0,0.73434724,0,17.69988)"
       cx="453.02991"
       cy="-0.67482334"
       fx="453.02991"
       fy="-0.67482334"
       r="56.312134" />
    <radialGradient
       inkscape:collect="always"
       xlink:href="#linearGradient4401"
       id="radialGradient4333"
       gradientUnits="userSpaceOnUse"
       gradientTransform="matrix(1,0,0,0.73434724,0,17.69988)"
       cx="447.38812"
       cy="81.971642"
       fx="447.38812"
       fy="81.971642"
       r="56.312134" />
  </defs>
  <sodipodi:namedview
     id="base"
     pagecolor="#ffffff"
     bordercolor="#666666"
     borderopacity="1.0"
     inkscape:pageopacity="0.0"
     inkscape:pageshadow="2"
     inkscape:zoom="0.17500001"
     inkscape:cx="1053.1754"
     inkscape:cy="-1214.0923"
     inkscape:document-units="mm"
     inkscape:current-layer="layer3"
     showgrid="false"
     inkscape:window-width="1920"
     inkscape:window-height="1016"
     inkscape:window-x="0"
     inkscape:window-y="0"
     inkscape:window-maximized="1"
     units="px"
     inkscape:pagecheckerboard="true"
     inkscape:document-rotation="0"
     fit-margin-top="0"
     fit-margin-left="0"
     fit-margin-right="0"
     fit-margin-bottom="0">
    <inkscape:grid
       type="xygrid"
       id="grid4485"
       originx="-397.63828"
       originy="148.31428" />
  </sodipodi:namedview>
  <metadata
     id="metadata5">
    <rdf:RDF>
      <cc:Work
         rdf:about="">
        <dc:format>image/svg+xml</dc:format>
        <dc:type
           rdf:resource="http://purl.org/dc/dcmitype/StillImage" />
        <dc:title>Otaku Guest</dc:title>
        <cc:license
           rdf:resource="http://creativecommons.org/licenses/by/4.0/" />
        <dc:creator>
          <cc:Agent>
            <dc:title>Maxwell Paul Brickner</dc:title>
          </cc:Agent>
        </dc:creator>
      </cc:Work>
      <cc:License
         rdf:about="http://creativecommons.org/licenses/by/4.0/">
        <cc:permits
           rdf:resource="http://creativecommons.org/ns#Reproduction" />
        <cc:permits
           rdf:resource="http://creativecommons.org/ns#Distribution" />
        <cc:requires
           rdf:resource="http://creativecommons.org/ns#Notice" />
        <cc:requires
           rdf:resource="http://creativecommons.org/ns#Attribution" />
        <cc:permits
           rdf:resource="http://creativecommons.org/ns#DerivativeWorks" />
      </cc:License>
    </rdf:RDF>
  </metadata>
  <g
     inkscape:label="Head"
     inkscape:groupmode="layer"
     id="layer1"
     transform="translate(-397.63826,-25.275218)">
    <path
       style="fill:url(#linearGradient4337);fill-opacity:1;stroke:none;stroke-width:3.41931939px;stroke-linecap:butt;stroke-linejoin:miter;stroke-opacity:1"
       d="m 1705.7695,600.90625 c -12.4389,-0.52832 -48.0937,18.52734 -48.0937,18.52734 0,0 8.6418,22.48016 11.7324,41.6543 -1.2425,6.96717 -9.1493,10.79328 -9.6621,14.55469 2.9047,14.60353 -28.0649,111.36389 -20.9434,115.94336 7.7795,5.00266 66.1239,-101.86046 70.9336,-102.38086 14.7985,-1.60121 19.2641,-12.91869 20.6035,-18.91602 2.2007,0.62313 2.461,1.38672 2.461,1.38672 0,0 -20.7241,-57.42292 -22.8828,-68.2168 -0.3373,-1.68654 -1.845,-2.45489 -4.1485,-2.55273 z"
       transform="matrix(0.26458333,0,0,0.26458333,0,11.249983)"
       id="path4612"
       inkscape:connector-curvature="0" />
    <path
       style="fill:#e9c6af;stroke:none;stroke-width:0.90469491px;stroke-linecap:butt;stroke-linejoin:miter;stroke-opacity:1"
       d="m 417.30209,138.96052 c 0,0 0,22.61736 9.04695,31.66433 9.04695,9.04694 18.0939,9.04694 18.0939,9.04694 0,0 5.82191,0.28348 14.2074,-7.33381 12.07236,-10.96641 11.58349,-49.34137 11.58349,-49.34137 0,0 -2.6233,-2.47384 -2.97966,-4.64357 -0.76288,-4.64488 -2.66891,-11.05689 -27.3347,-11.05686 -22.61737,3e-5 -22.61738,31.66434 -22.61738,31.66434 z"
       id="path4487"
       inkscape:connector-curvature="0"
       sodipodi:nodetypes="cccscssc" />
    <ellipse
       ry="9.0469494"
       rx="7.8353043"
       cy="137.99327"
       cx="456.80176"
       id="ellipse4497"
       style="fill:#ffffff;fill-opacity:1;stroke:none;stroke-width:3.67439556;stroke-linecap:round;stroke-linejoin:round;stroke-miterlimit:4;stroke-dasharray:none;stroke-opacity:1;paint-order:stroke fill markers" />
    <path
       sodipodi:nodetypes="ccc"
       style="fill:url(#linearGradient4390);fill-opacity:1;stroke:none;stroke-width:0.60180026;stroke-linecap:butt;stroke-linejoin:miter;stroke-miterlimit:4;stroke-dasharray:none;stroke-opacity:1"
       d="m 437.133,141.09666 c 0,0 0.97379,1.31614 -1.55525,7.55176 6.7106,-2.59037 9.00015,-0.70652 9.00015,-0.70652"
       id="path4489"
       inkscape:connector-curvature="0" />
    <ellipse
       ry="10.116602"
       rx="5.5776796"
       cy="174.7316"
       cx="411.87076"
       id="ellipse4499"
       style="fill:#ffffff;fill-opacity:1;stroke:none;stroke-width:4.01510286;stroke-linecap:round;stroke-linejoin:round;stroke-miterlimit:4;stroke-dasharray:none;stroke-opacity:1;paint-order:stroke fill markers"
       transform="rotate(-4.4885585)" />
    <ellipse
       style="fill:#e2e23a;fill-opacity:1;stroke:none;stroke-width:3.0854125;stroke-linecap:round;stroke-linejoin:round;stroke-miterlimit:4;stroke-dasharray:none;stroke-opacity:1;paint-order:stroke fill markers"
       id="path4491"
       cx="410.50339"
       cy="175.07227"
       rx="4.2279816"
       ry="7.8811269"
       transform="rotate(-4.4885585)" />
    <ellipse
       style="fill:#e2e23a;fill-opacity:1;stroke:none;stroke-width:3.17986155;stroke-linecap:round;stroke-linejoin:round;stroke-miterlimit:4;stroke-dasharray:none;stroke-opacity:1;paint-order:stroke fill markers"
       id="path4493"
       cx="443.04388"
       cy="173.72069"
       rx="6.3100376"
       ry="8.4133835"
       transform="rotate(-4.4885585)" />
    <path
       sodipodi:nodetypes="ccccc"
       style="fill:#aa5800;fill-opacity:1;stroke:#aa5800;stroke-width:1.0116601px;stroke-linecap:butt;stroke-linejoin:miter;stroke-opacity:1"
       d="m 448.76705,137.91135 c 0,0 0.73482,-8.52923 8.18514,-8.84228 7.45031,-0.31292 8.06388,8.83561 8.06388,8.83561 0,0 0.1809,-10.57008 -7.55985,-9.91712 -7.74076,0.65291 -8.68917,9.92379 -8.68917,9.92379 z"
       id="path4505"
       inkscape:connector-curvature="0" />
    <path
       style="fill:#aa5800;fill-opacity:1;stroke:#aa5800;stroke-width:1.0116601px;stroke-linecap:butt;stroke-linejoin:miter;stroke-opacity:1"
       d="m 465.28334,137.26992 1.29993,0.30474"
       id="path4507"
       inkscape:connector-curvature="0"
       sodipodi:nodetypes="cc" />
    <path
       inkscape:connector-curvature="0"
       id="path4509"
       d="m 418.54031,140.94002 c 0,0 0.66103,-8.34644 5.78634,-8.47697 5.12531,-0.13041 5.64188,8.40663 5.64188,8.40663 0,0 -0.46247,-10.07746 -5.77958,-9.61477 -5.3171,0.46265 -5.64864,9.68511 -5.64864,9.68511 z"
       style="fill:#aa5800;fill-opacity:1;stroke:#aa5800;stroke-width:0.83854395px;stroke-linecap:butt;stroke-linejoin:miter;stroke-opacity:1"
       sodipodi:nodetypes="ccccc" />
    <path
       sodipodi:nodetypes="cc"
       inkscape:connector-curvature="0"
       id="path4511"
       d="m 417.40419,140.2364 0.90303,0.33588"
       style="fill:#aa5800;fill-opacity:1;stroke:#aa5800;stroke-width:0.83854395px;stroke-linecap:butt;stroke-linejoin:miter;stroke-opacity:1" />
    <path
       style="fill:#aa5800;fill-opacity:1;stroke:none;stroke-width:1.0116601px;stroke-linecap:butt;stroke-linejoin:miter;stroke-opacity:1"
       d="m 435.25285,133.33639 c -4.65465,-4.88621 -4.4948,-6.55364 -4.78657,-13.38253 0,0 -3.6709,4.74788 -1.71347,9.78753 1.95745,5.03961 6.50004,3.595 6.50004,3.595 z"
       id="path4513"
       inkscape:connector-curvature="0"
       sodipodi:nodetypes="ccscc" />
    <path
       sodipodi:nodetypes="ccscc"
       inkscape:connector-curvature="0"
       id="path4515"
       d="m 441.62053,132.99485 c 6.045,-2.99974 6.46514,-4.62133 9.07468,-10.93863 0,0 1.82579,5.71699 -1.73714,9.78333 -3.5629,4.06634 -7.33756,1.15526 -7.33756,1.15526 z"
       style="fill:#aa5800;fill-opacity:1;stroke:none;stroke-width:1.0116601px;stroke-linecap:butt;stroke-linejoin:miter;stroke-opacity:1" />
    <path
       style="fill:none;fill-opacity:1;stroke:#d6ada7;stroke-width:1.46500003;stroke-linecap:round;stroke-linejoin:miter;stroke-miterlimit:4;stroke-dasharray:none;stroke-opacity:1;paint-order:stroke fill markers"
       d="m 442.34281,170.07321 c 0,0 2.89257,0.77619 6.3317,-1.08846"
       id="path4520"
       inkscape:connector-curvature="0"
       sodipodi:nodetypes="cc" />
    <path
       style="fill:#e2e2e4;fill-opacity:1;stroke:none;stroke-width:10.22743702px;stroke-linecap:butt;stroke-linejoin:miter;stroke-opacity:1"
       d="m 1695.2852,283.29492 c -3.0778,0.03 -5.6013,0.28258 -7.3848,0.44727 -12.08,1.11387 -56.7085,0.724 -78.0742,71.85742 -78.9089,35.09368 -77.2706,30.99331 -73.7657,38.83789 3.5443,7.93527 14.7511,42.35447 84.7481,26.93555 0,0 0.6818,-0.0657 1.7441,-0.27735 21.5361,14.00129 60.0396,27.97888 119.7032,12.75586 3.3937,1.33945 6.2031,1.58985 6.2031,1.58985 69.997,15.41892 81.2019,-19.00028 84.7461,-26.93555 3.3388,-7.47281 5.0545,-4.07133 -62.9981,-34.06641 -17.972,-83.44999 -56.435,-91.32485 -74.9218,-91.14453 z"
       transform="matrix(0.26458333,0,0,0.26458333,0,11.249983)"
       id="path4296"
       inkscape:connector-curvature="0" />
    <g
       id="g4395"
       style="fill:url(#radialGradient4403);fill-opacity:1">
      <circle
         transform="rotate(7.8349854)"
         r="12.501925"
         cy="15.469052"
         cx="454.91049"
         id="path4298"
         style="fill:url(#radialGradient4405);fill-opacity:1;stroke:none;stroke-width:9.16188049" />
      <path
         inkscape:connector-curvature="0"
         id="path4300"
         d="m 398.02317,25.275394 c 0.71972,43.263264 35.18223,76.035056 44.29354,81.736316 0.15443,0.29757 0.56047,0.50574 1.32843,0.86198 0.0689,0.0341 0.27903,-0.0106 0.394,-0.007 0.10712,0.0248 0.3006,0.12726 0.3714,0.11238 0.83661,-0.13545 1.28292,-0.22633 1.5119,-0.47114 10.31267,-3.02842 52.34572,-25.274034 64.72405,-66.73494 0,0 -11.11447,7.457449 -28.79592,4.339188 C 452.82931,98.900647 458.24242,95.44798 445.49263,97.255769 433.70494,92.071498 437.99077,96.858447 424.57614,37.230825 406.70936,35.457592 398.02222,25.275218 398.02222,25.275218 Z"
         style="fill:url(#radialGradient4333);fill-opacity:1;stroke:none;stroke-width:3.21923065px;stroke-linecap:butt;stroke-linejoin:miter;stroke-opacity:1" />
    </g>
  </g>
  <g
     inkscape:groupmode="layer"
     id="layer3"
     inkscape:label="Body"
     transform="translate(-397.63826,-14.025235)">
    <path
       sodipodi:nodetypes="cccsscc"
       inkscape:connector-curvature="0"
       id="path4306"
       d="m 460.43306,434.06428 c 0.91172,-0.1795 9.98567,-0.60597 10.08693,-1.87035 0.10126,-1.26441 1.95826,-19.12767 0.6195,-21.59469 -0.19927,-0.36722 -1.18762,-42.61834 -3.02164,-45.90025 -6.88415,-12.31891 -19.52231,1.65159 -22.83977,2.75063 -1.73641,0.57523 6.91981,43.9765 7.44945,46.05917 -10.01805,24.82639 -10.33991,17.61526 7.70553,20.55549 z"
       style="fill:#aa5800;fill-opacity:1;stroke:none;stroke-width:0.19860585px;stroke-linecap:butt;stroke-linejoin:miter;stroke-opacity:1" />
    <path
       style="fill:#aa5800;fill-opacity:1;stroke:none;stroke-width:0.19860585px;stroke-linecap:butt;stroke-linejoin:miter;stroke-opacity:1"
       d="m 422.70138,434.06428 c -0.91172,-0.1795 -9.98567,-0.60597 -10.08693,-1.87035 -0.10126,-1.26441 -1.95826,-19.12767 -0.6195,-21.59469 0.19927,-0.36722 1.18762,-42.61834 3.02164,-45.90025 6.88415,-12.31891 19.52231,1.65159 22.83977,2.75063 1.73641,0.57523 -6.91981,43.9765 -7.44945,46.05917 10.01805,24.82639 10.33991,17.61526 -7.70553,20.55549 z"
       id="path4345"
       inkscape:connector-curvature="0"
       sodipodi:nodetypes="cccsscc" />
    <path
       sodipodi:nodetypes="ccccc"
       inkscape:connector-curvature="0"
       id="path4301"
       d="m 479.62551,393.15817 c 0.94538,9.7431 1.78708,19.76176 2.56434,30.19561 -25.28652,3.1726 -50.24644,1.34622 -75.50632,-0.39803 1.42969,-9.79334 2.31019,-19.49048 2.99896,-29.13318 44.36103,3.52475 50.73751,-4.05569 69.94302,-0.6644 z"
       style="fill:#000000;fill-opacity:1;stroke:none;stroke-width:0.74595219px;stroke-linecap:butt;stroke-linejoin:miter;stroke-opacity:1" />
    <path
       style="fill:url(#linearGradient4328);fill-opacity:1;stroke:none;stroke-width:0.7397489px;stroke-linecap:butt;stroke-linejoin:miter;stroke-opacity:1"
       d="m 483.2916,210.38223 c 0,0 1.03533,0.46718 -0.93514,18.25066 -2.07946,18.76719 -29.75048,4.42803 -30.94906,7.20952 -2.33433,5.41723 -4.91519,17.60927 0.78324,19.19095 1.17582,0.14375 23.41859,-0.95372 31.79191,-7.1614 14.63405,-10.84915 15.31094,-33.86246 6.77714,-47.18034 -39.74656,-38.91872 -7.46809,9.69061 -7.46809,9.69061 z"
       id="path4640"
       inkscape:connector-curvature="0"
       sodipodi:nodetypes="csccscc" />
    <path
       sodipodi:nodetypes="csccscc"
       inkscape:connector-curvature="0"
       id="path4294"
       d="m 425.10074,202.1909 c 0,0 -1.13556,0.0261 -6.26107,17.16858 -5.40904,18.09071 25.66374,15.68666 25.68185,18.71534 0.0353,5.89867 -2.34628,18.13121 -8.21013,17.36375 -1.13869,-0.32649 -22.61151,-12.56304 -27.8985,-21.54612 -9.24006,-15.6997 5.77586,-44.1125 18.83017,-53.04428 12.51929,-7.6463 -2.14232,21.34273 -2.14232,21.34273 z"
       style="fill:url(#linearGradient4320);fill-opacity:1;stroke:none;stroke-width:0.7397489px;stroke-linecap:butt;stroke-linejoin:miter;stroke-opacity:1" />
    <g
       id="g4303">
      <path
         style="fill:url(#linearGradient4312);fill-opacity:1;stroke:none;stroke-width:3.41931939px;stroke-linecap:butt;stroke-linejoin:miter;stroke-opacity:1"
         d="m 1667.8047,665.00391 c -46.7746,1.60146 -91.3626,42.32216 -89.4629,78.53711 -1.7539,3.20372 -2.9169,6.34263 -3.5527,9.41406 -1.9452,3.88 -2.8912,7.73125 -2.1465,13.47851 5.0367,37.26754 24.4671,79.16056 30.9414,117.18555 0,0 11.2261,26.76924 -9.4981,72.53516 -84.3764,207.4347 -60.9261,405.4078 -91.2011,612.791 115.787,7.9954 230.1983,16.3668 346.1074,1.8242 -16.6496,-223.5038 -39.7486,-405.4448 -87.6602,-611.1445 -11.5567,-70.28205 64.9958,-141.81957 93.5078,-201.10547 -40.4468,-36.12083 -77.6521,-76.74958 -123.2597,-90.875 -8.4642,-2.62152 -76.418,89.19336 -76.418,89.19336 -4.8194,-29.79417 3.0002,-59.53955 12.6426,-91.83398 z"
         transform="scale(0.26458333)"
         id="path4617"
         inkscape:connector-curvature="0" />
    </g>
    <path
       style="fill:#aa6bd0;fill-opacity:1;stroke:none;stroke-width:0.26458332px;stroke-linecap:butt;stroke-linejoin:miter;stroke-opacity:1"
       d="m 424.16346,245.10353 40.55642,2.51148 c 0,0 1.63759,4.1709 1.84557,8.35275 -11.70144,1.01477 -37.31599,3.11126 -44.9417,-2.78562 0.48664,-1.38112 2.14539,-4.23537 2.53971,-8.07861 z"
       id="path4347"
       inkscape:connector-curvature="0"
       sodipodi:nodetypes="ccccc" />
    <path
       style="fill:#aa6bd0;fill-opacity:1;stroke:none;stroke-width:0.26458332px;stroke-linecap:butt;stroke-linejoin:miter;stroke-opacity:1"
       d="m 440.59001,254.63914 c 0,0 -10.97275,4.20923 -12.58763,7.93011 3.08896,-0.0696 4.09517,0.45014 4.09517,0.45014 0,0 0.56086,2.44484 -0.9765,4.0553 5.14511,-4.74868 8.96162,-7.74278 14.01556,-10.47443 -2.12259,-1.48146 -4.5466,-1.96112 -4.5466,-1.96112 z"
       id="path4339"
       inkscape:connector-curvature="0" />
    <path
       inkscape:connector-curvature="0"
       id="path4356"
       d="m 442.86101,254.63914 c 0,0 10.97275,4.20923 12.58763,7.93011 -3.08896,-0.0696 -4.09517,0.45014 -4.09517,0.45014 0,0 -0.56086,2.44484 0.9765,4.0553 -5.14511,-4.74868 -8.96162,-7.74278 -14.01556,-10.47443 2.12259,-1.48146 4.5466,-1.96112 4.5466,-1.96112 z"
       style="fill:#aa6bd0;fill-opacity:1;stroke:none;stroke-width:0.26458332px;stroke-linecap:butt;stroke-linejoin:miter;stroke-opacity:1" />
  </g>
  <g
     inkscape:groupmode="layer"
     id="layer2"
     inkscape:label="Decor"
     style="display:inline;opacity:0.18600003"
     transform="translate(-397.63826,-25.275218)">
    <ellipse
       style="fill:url(#radialGradient4364);fill-opacity:1;stroke:none;stroke-width:0.60180026;stroke-linecap:round;stroke-linejoin:round;stroke-miterlimit:4;stroke-dasharray:none;stroke-opacity:0.52173911;paint-order:stroke fill markers"
       id="path4577"
       cx="418.75455"
       cy="239.7178"
       rx="6.1686893"
       ry="2.7987573"
       transform="rotate(-11.085754)" />
    <ellipse
       style="fill:url(#radialGradient4372);fill-opacity:1;stroke:none;stroke-width:0.60180026;stroke-linecap:round;stroke-linejoin:round;stroke-miterlimit:4;stroke-dasharray:none;stroke-opacity:0.52173911;paint-order:stroke fill markers"
       id="path4579"
       cx="400.82227"
       cy="215.01532"
       rx="4.2838125"
       ry="2.5131698"
       transform="rotate(-8.0315364)" />
    <path
       sodipodi:type="star"
       style="fill:#d5f6ff;fill-opacity:1;stroke:#d5f6ff;stroke-width:2.79654694;stroke-linecap:round;stroke-linejoin:round;stroke-miterlimit:4;stroke-dasharray:none;stroke-dashoffset:0;stroke-opacity:1;paint-order:stroke fill markers"
       id="path4559"
       sodipodi:sides="5"
       sodipodi:cx="422.28503"
       sodipodi:cy="143.25417"
       sodipodi:r1="1.6630236"
       sodipodi:r2="1.3454144"
       sodipodi:arg1="1.0040671"
       sodipodi:arg2="1.6323856"
       inkscape:flatsided="true"
       inkscape:rounded="0"
       inkscape:randomized="0"
       d="m 423.17787,144.65719 -1.95129,-0.12033 -0.48855,-1.89297 1.64936,-1.04959 1.50791,1.24429 z"
       inkscape:transform-center-x="-0.031613096"
       inkscape:transform-center-y="-0.12842675" />
    <path
       sodipodi:type="star"
       style="fill:#d5f6ff;fill-opacity:1;stroke:#d5f6ff;stroke-width:3.2186079;stroke-linecap:round;stroke-linejoin:round;stroke-miterlimit:4;stroke-dasharray:none;stroke-dashoffset:0;stroke-opacity:1;paint-order:stroke fill markers"
       id="path4561"
       sodipodi:sides="5"
       sodipodi:cx="453.9686"
       sodipodi:cy="139.92169"
       sodipodi:r1="2.567915"
       sodipodi:r2="2.077487"
       sodipodi:arg1="1.0303768"
       sodipodi:arg2="1.6586954"
       inkscape:flatsided="true"
       inkscape:rounded="0"
       inkscape:randomized="0"
       d="m 455.28978,142.12366 -3.00711,-0.265 -0.67722,-2.94183 2.58857,-1.55314 2.27704,1.98193 z"
       inkscape:transform-center-x="-0.069643878"
       inkscape:transform-center-y="-0.17802219" />
  </g>
</svg>
