<?xml version="1.0" encoding="UTF-8" standalone="no"?>
<!-- Created with Inkscape (http://www.inkscape.org/) -->

<svg
   xmlns:dc="http://purl.org/dc/elements/1.1/"
   xmlns:cc="http://creativecommons.org/ns#"
   xmlns:rdf="http://www.w3.org/1999/02/22-rdf-syntax-ns#"
   xmlns:svg="http://www.w3.org/2000/svg"
   xmlns="http://www.w3.org/2000/svg"
   xmlns:xlink="http://www.w3.org/1999/xlink"
   xmlns:sodipodi="http://sodipodi.sourceforge.net/DTD/sodipodi-0.dtd"
   xmlns:inkscape="http://www.inkscape.org/namespaces/inkscape"
   width="664.05756"
   height="1798.2983"
   viewBox="0 0 175.69856 475.79979"
   version="1.1"
   id="svg8"
   inkscape:version="0.92+devel unknown"
   sodipodi:docname="guest gamer.svg"
   inkscape:export-filename="/home/mbrickn/Projects/Operation-Ohio/game/images/characters/guests/guest gamer.png"
   inkscape:export-xdpi="90"
   inkscape:export-ydpi="90">
  <title
     id="title4330">Gamer Guest</title>
  <defs
     id="defs2">
    <linearGradient
       id="linearGradient4310"
       inkscape:collect="always">
      <stop
         id="stop4306"
         offset="0"
         style="stop-color:#cf7066;stop-opacity:1" />
      <stop
         id="stop4308"
         offset="1"
         style="stop-color:#cfbc66;stop-opacity:1" />
    </linearGradient>
    <linearGradient
       inkscape:collect="always"
       xlink:href="#linearGradient4310"
       id="linearGradient4309"
       x1="369.6207"
       y1="71.195007"
       x2="447.4368"
       y2="84.953125"
       gradientUnits="userSpaceOnUse" />
    <linearGradient
       inkscape:collect="always"
       xlink:href="#linearGradient4310"
       id="linearGradient4317"
       x1="1308.839"
       y1="743.19458"
       x2="1994.9778"
       y2="812.63391"
       gradientUnits="userSpaceOnUse" />
    <linearGradient
       inkscape:collect="always"
       xlink:href="#linearGradient4322"
       id="linearGradient4397"
       gradientUnits="userSpaceOnUse"
       gradientTransform="matrix(-0.63029848,-0.58986766,0.58986766,-0.63029848,682.61429,586.65828)"
       x1="395.59546"
       y1="109.93046"
       x2="421.50854"
       y2="109.93046" />
    <linearGradient
       inkscape:collect="always"
       id="linearGradient4322">
      <stop
         style="stop-color:#d6ada7;stop-opacity:1;"
         offset="0"
         id="stop4318" />
      <stop
         style="stop-color:#e9c6af;stop-opacity:1"
         offset="1"
         id="stop4320" />
    </linearGradient>
    <linearGradient
       inkscape:collect="always"
       xlink:href="#linearGradient4322"
       id="linearGradient4397-3"
       gradientUnits="userSpaceOnUse"
       gradientTransform="matrix(1.0017144,-0.18175363,-0.18175363,-1.0017144,-44.286118,462.85871)"
       x1="395.59546"
       y1="109.93046"
       x2="421.50854"
       y2="109.93046" />
  </defs>
  <sodipodi:namedview
     id="base"
     pagecolor="#ffffff"
     bordercolor="#666666"
     borderopacity="1.0"
     inkscape:pageopacity="0.0"
     inkscape:pageshadow="2"
     inkscape:zoom="0.49497475"
     inkscape:cx="-359.98068"
     inkscape:cy="1403.9173"
     inkscape:document-units="mm"
     inkscape:current-layer="layer1"
     showgrid="false"
     inkscape:window-width="1920"
     inkscape:window-height="1016"
     inkscape:window-x="0"
     inkscape:window-y="0"
     inkscape:window-maximized="1"
     units="px"
     inkscape:pagecheckerboard="true"
     inkscape:document-rotation="0"
     fit-margin-top="0"
     fit-margin-left="0"
     fit-margin-right="0"
     fit-margin-bottom="0">
    <inkscape:grid
       type="xygrid"
       id="grid4485"
       originx="-326.31254"
       originy="196.07332" />
  </sodipodi:namedview>
  <metadata
     id="metadata5">
    <rdf:RDF>
      <cc:Work
         rdf:about="">
        <dc:format>image/svg+xml</dc:format>
        <dc:type
           rdf:resource="http://purl.org/dc/dcmitype/StillImage" />
        <dc:title>Gamer Guest</dc:title>
        <cc:license
           rdf:resource="http://creativecommons.org/licenses/by/4.0/" />
        <dc:creator>
          <cc:Agent>
            <dc:title>Maxwell Paul Brickner</dc:title>
          </cc:Agent>
        </dc:creator>
      </cc:Work>
      <cc:License
         rdf:about="http://creativecommons.org/licenses/by/4.0/">
        <cc:permits
           rdf:resource="http://creativecommons.org/ns#Reproduction" />
        <cc:permits
           rdf:resource="http://creativecommons.org/ns#Distribution" />
        <cc:requires
           rdf:resource="http://creativecommons.org/ns#Notice" />
        <cc:requires
           rdf:resource="http://creativecommons.org/ns#Attribution" />
        <cc:permits
           rdf:resource="http://creativecommons.org/ns#DerivativeWorks" />
      </cc:License>
    </rdf:RDF>
  </metadata>
  <g
     inkscape:label="Head"
     inkscape:groupmode="layer"
     id="layer1"
     transform="translate(-326.31254,-17.273539)">
    <circle
       r="7.3716431"
       cy="158.23868"
       cx="485.70987"
       id="circle4294"
       style="fill:#ffffff;stroke-width:1.46499991;stroke-linecap:round;stroke-linejoin:bevel;paint-order:stroke fill markers" />
    <circle
       style="fill:#ffffff;stroke-width:1.46499991;stroke-linecap:round;stroke-linejoin:bevel;paint-order:stroke fill markers"
       id="path4292"
       cx="365.92953"
       cy="158.46288"
       r="7.3716431" />
    <circle
       style="fill:#ffffff;stroke-width:1.46500003;stroke-linecap:round;stroke-linejoin:bevel;paint-order:stroke fill markers"
       id="circle4300-3"
       cx="346.61032"
       cy="256.03793"
       r="7.3716431" />
    <circle
       r="7.3716431"
       cy="268.01578"
       cx="498.38177"
       id="circle4317"
       style="fill:#ffffff;stroke-width:1.46500003;stroke-linecap:round;stroke-linejoin:bevel;paint-order:stroke fill markers" />
    <circle
       style="fill:#ffffff;stroke-width:1.46500003;stroke-linecap:round;stroke-linejoin:bevel;paint-order:stroke fill markers"
       id="circle4300-7"
       cx="418.56021"
       cy="467.46136"
       r="7.3716431" />
    <circle
       style="fill:#ffffff;stroke-width:1.46500003;stroke-linecap:round;stroke-linejoin:bevel;paint-order:stroke fill markers"
       id="circle4300-6"
       cx="460.07468"
       cy="468.55344"
       r="7.3716431" />
    <path
       style="fill:url(#linearGradient4397-3);fill-opacity:1;stroke:none;stroke-width:0.2693643px;stroke-linecap:butt;stroke-linejoin:miter;stroke-opacity:1"
       d="m 356.94702,270.51963 c 0,0 -5.87225,13.63487 -6.11923,19.60406 -0.0592,1.43909 -0.8723,6.69957 -1.79964,6.62659 -1.06729,-0.0832 -0.79408,-6.10078 -2.60576,-6.39477 -2.24017,-0.4441 -0.50757,8.02439 -3.76727,7.23408 -2.29257,-0.14074 0.41282,-7.62497 -0.32041,-7.94244 -0.78206,-0.33835 -0.76191,7.45849 -3.57109,6.93915 -1.9697,-0.36396 -0.071,-6.96505 -0.58524,-7.36397 -0.43798,-0.33999 -1.34723,4.88167 -3.21004,4.44393 -1.19231,-0.27934 -0.7533,-2.66655 -0.53777,-4.45441 0.68574,-5.6906 3.29797,-10.02342 3.29797,-10.02342 0,0 -3.47007,4.03214 -5.20382,3.02525 -1.73419,-1.00724 3.13192,-4.96868 5.23586,-7.04837 2.10394,-2.07963 8.73336,-15.96294 8.73336,-15.96294 z"
       id="path4352-5"
       inkscape:connector-curvature="0"
       sodipodi:nodetypes="ccsccsssscccscc" />
    <path
       style="fill:url(#linearGradient4397);fill-opacity:1;stroke:none;stroke-width:0.22840454px;stroke-linecap:butt;stroke-linejoin:miter;stroke-opacity:1"
       d="m 485.08567,265.20545 c 0,0 -2.08148,12.41492 -4.64869,16.78209 -0.61919,1.05268 -2.45726,5.17501 -1.76289,5.54917 0.79877,0.43122 3.36955,-3.98251 4.79566,-3.35943 1.80044,0.71303 -3.32601,5.95147 -0.63993,6.88633 1.69837,0.95328 3.20996,-5.6233 3.87836,-5.51257 0.7128,0.1183 -2.8847,5.6651 -0.6442,6.586 1.57089,0.64584 3.25142,-4.93072 3.80125,-4.97864 0.46835,-0.041 -1.28339,4.09783 0.24523,4.64197 0.97802,0.34889 1.76224,-1.554 2.43029,-2.92709 2.12652,-4.37028 2.25623,-8.65835 2.25623,-8.65835 0,0 0.61977,4.46803 2.31797,4.54729 1.69868,0.0792 0.0516,-4.98002 -0.49193,-7.4289 -0.54356,-2.44884 1.11252,-15.38877 1.11252,-15.38877 z"
       id="path4352"
       inkscape:connector-curvature="0"
       sodipodi:nodetypes="ccsccsssscccscc" />
    <path
       style="fill:url(#linearGradient4317);fill-opacity:1;stroke:none;stroke-width:5.09274197px;stroke-linecap:butt;stroke-linejoin:miter;stroke-opacity:1"
       d="m 1605.8027,358.13086 c -19.4109,0.2687 -70.5664,27.61133 -70.5664,27.61133 0,0 13.7494,35.75114 17.9121,64.87695 -0.4845,1.00844 -1.2838,1.41536 -2.0625,1.93945 -5.858,0.83078 -11.76,1.8461 -17.6797,3.04297 -3.2343,-0.11707 -6.4947,-0.0557 -9.8691,0.51172 -59.4108,9.99285 -117.1778,46.34202 -150.6933,98.66406 -0.8123,1.25781 -1.608,2.52751 -2.3887,3.8086 -0.061,0.1 -0.1268,0.19677 -0.1875,0.29687 -3e-4,4.8e-4 3e-4,0.001 0,0.002 -1.8653,3.40713 -3.133,6.80084 -3.8594,10.17773 -0.8561,0.43372 -1.6999,0.92462 -2.5234,1.52344 -3.1397,30.37944 -5.237,58.96962 -6.3848,86.17187 -13.8651,76.41706 -44.9992,243.6467 -57.0996,272.4043 -15.7499,37.431 50.9771,101.38875 50.5019,72.37695 -0.1578,-9.63703 13.0786,-37.69262 29.1485,-78.55468 11.9779,55.5724 27.9486,111.52488 46.6152,173.95308 0,0 -9.7541,235.0923 -4.5039,273.7168 2.0136,14.8142 10.064,60.7531 20.8359,114.7871 -2.2176,1.4178 -4.1113,2.4582 -5.6113,2.9551 -8.5341,2.8273 57.6607,218.8441 60.2637,229.0801 -20.3065,58.2725 -102.0069,63.876 -147.1602,43.9023 -10.1467,25.7755 16.9658,52.3902 28.6309,54.1387 16.024,1.2963 117.904,4.1819 123.1133,0.4472 15.6637,-28.7913 26.2006,2.0834 29.2793,1.6309 4.4808,-0.8823 45.1196,0.4895 45.6172,-5.7246 0.4977,-6.2143 9.6246,-94.0097 3.0449,-106.1348 -0.9795,-1.8048 -21.5213,-214.7293 -30.5352,-230.8593 -1.1302,-2.0226 -2.2938,-3.8896 -3.4844,-5.6309 -4.928,-49.4619 -9.6596,-90.9748 -12.7988,-104.9434 -5.7347,-25.5178 12.407,-113.6976 27.1563,-177.5429 1.6483,-7.1353 8.691,-14.6621 19.1035,-22.211 2.5518,58.6984 6.8237,156.2638 8.3027,183.5782 0.8293,15.3145 7.5853,76.4449 17.0703,145.205 -0.3021,0.1269 -0.5929,0.2406 -0.8691,0.3321 -8.5342,2.8271 34.0102,216.137 36.6133,226.373 -49.2371,122.0177 -50.8193,86.5766 37.8711,101.0274 4.4809,-0.8823 49.0785,-2.9792 49.5761,-9.1934 0.4977,-6.2144 9.6228,-94.0078 3.043,-106.1328 -0.9794,-1.8048 -5.8357,-209.4637 -14.8496,-225.5938 -1.5418,-2.7589 -3.1447,-5.2418 -4.7969,-7.4824 -0.8844,-43.8389 -2.3894,-80.0806 -4.959,-93.2402 -5.0119,-25.6685 28.9921,-130.6422 41.8926,-205.4141 7.7897,-45.1498 -3.4355,-78.7519 -3.4355,-78.7519 -48.0089,-215.62723 -26.968,-245.57869 34.5215,-437.5 0,0 34.4197,66.22079 43.4668,150.95508 11.6696,109.29624 14.3745,124.32869 9.9882,146.77929 -7.7868,39.856 54.9708,52.65303 48.5899,24.34766 10.2533,-285.23723 62.8429,-381.64863 -106.9121,-479.49219 -22.6477,-19.6871 -64.3484,-35.97759 -130.7617,-45.62109 -6.8407,-19.09717 -28.2036,-79.17377 -30.9239,-92.77539 -0.5526,-2.76315 -3.2135,-3.87413 -7.2422,-3.81836 z"
       id="path4612"
       transform="matrix(0.26458333,0,0,0.26458333,0,11.249983)"
       inkscape:connector-curvature="0" />
    <path
       style="fill:#e9c6af;stroke:none;stroke-width:1.34745467px;stroke-linecap:butt;stroke-linejoin:miter;stroke-opacity:1"
       d="m 369.62067,56.641469 c 0.2211,47.239971 23.73378,85.042411 58.39429,54.440631 17.83842,-16.488545 24.7443,-64.023401 24.7443,-64.023401 0,0 -3.55205,-26.646317 -44.39615,-27.742636 -36.06731,-0.968126 -38.74244,37.325406 -38.74244,37.325406 z"
       id="path4487"
       inkscape:connector-curvature="0"
       sodipodi:nodetypes="cccsc" />
    <path
       style="fill:url(#linearGradient4309);fill-opacity:1.0;stroke:none;stroke-width:0.39407101px;stroke-linecap:butt;stroke-linejoin:miter;stroke-opacity:1"
       d="m 369.62069,56.641469 c 0,0 0.76028,-42.047452 39.88589,-39.23266 39.12562,2.814807 46.02187,22.799831 46.44411,29.696076 0.4222,6.896246 -11.96289,44.473733 -16.04433,50.525532 -4.08147,6.051803 -18.01468,33.777513 -42.50339,26.177573 -24.48868,-7.59995 -12.24435,-11.68138 -10.6962,-11.3999 1.54816,0.28147 35.60713,17.45171 48.69592,-18.296163 13.08879,-35.747875 14.91842,-31.666436 7.88141,-39.125631 -7.03696,-7.45921 -65.11263,-32.420908 -73.66341,1.655173 z"
       id="path4505"
       inkscape:connector-curvature="0"
       sodipodi:nodetypes="csccscscc" />
    <path
       style="fill:#000000;fill-opacity:1;stroke:#000000;stroke-width:0.26458332px;stroke-linecap:butt;stroke-linejoin:miter;stroke-opacity:1"
       d="m 371.70033,39.858315 c -24.37129,46.568727 35.06134,44.040768 70.39316,40.974715 16.127,-14.71966 9.14876,-28.888076 4.22098,-31.410434 -4.92778,-2.522354 -47.13862,-21.517284 -74.61414,-9.564281 z"
       id="path4312"
       inkscape:connector-curvature="0"
       sodipodi:nodetypes="ccsc" />
    <path
       style="fill:none;stroke:#000000;stroke-width:1.465;stroke-linecap:butt;stroke-linejoin:miter;stroke-opacity:1;stroke-miterlimit:4;stroke-dasharray:none"
       d="m 392.9493,102.98564 c 0,0 17.49026,5.29462 24.86522,-1.69794"
       id="path4314"
       inkscape:connector-curvature="0" />
    <circle
       style="fill:#3f3f3f;fill-opacity:1;stroke-width:1.46499991;stroke-linecap:round;stroke-linejoin:bevel;stroke-miterlimit:4;stroke-dasharray:none;paint-order:stroke fill markers"
       id="path4318"
       cx="382.39438"
       cy="47.855377"
       r="2.4867439" />
    <circle
       r="2.4867439"
       cy="54.162117"
       cx="387.16263"
       id="circle4329"
       style="fill:#3f3f3f;fill-opacity:1;stroke-width:1.46499991;stroke-linecap:round;stroke-linejoin:bevel;stroke-miterlimit:4;stroke-dasharray:none;paint-order:stroke fill markers" />
    <circle
       style="fill:#3f3f3f;fill-opacity:1;stroke-width:1.46499991;stroke-linecap:round;stroke-linejoin:bevel;stroke-miterlimit:4;stroke-dasharray:none;paint-order:stroke fill markers"
       id="circle4331"
       cx="390.50388"
       cy="46.951038"
       r="2.4867439" />
    <circle
       r="2.4867439"
       cy="51.314007"
       cx="427.81943"
       id="circle4333"
       style="fill:#3f3f3f;fill-opacity:1;stroke-width:1.46499991;stroke-linecap:round;stroke-linejoin:bevel;stroke-miterlimit:4;stroke-dasharray:none;paint-order:stroke fill markers" />
    <circle
       style="fill:#3f3f3f;fill-opacity:1;stroke-width:1.46499991;stroke-linecap:round;stroke-linejoin:bevel;stroke-miterlimit:4;stroke-dasharray:none;paint-order:stroke fill markers"
       id="circle4335"
       cx="433.74747"
       cy="55.939785"
       r="2.4867439" />
    <circle
       r="2.4867439"
       cy="57.617794"
       cx="425.38547"
       id="circle4337"
       style="fill:#3f3f3f;fill-opacity:1;stroke-width:1.46499991;stroke-linecap:round;stroke-linejoin:bevel;stroke-miterlimit:4;stroke-dasharray:none;paint-order:stroke fill markers" />
    <circle
       style="fill:#3f3f3f;fill-opacity:1;stroke-width:1.46500003;stroke-linecap:round;stroke-linejoin:bevel;stroke-miterlimit:4;stroke-dasharray:none;paint-order:stroke fill markers"
       id="path4318-3"
       cx="404.62817"
       cy="62.812378"
       r="2.4867439" />
    <circle
       style="fill:#ffffff;stroke-width:1.46499991;stroke-linecap:round;stroke-linejoin:bevel;paint-order:stroke fill markers"
       id="circle4296"
       cx="412.41394"
       cy="168.87569"
       r="7.3716431" />
    <circle
       r="7.3716431"
       cy="188.80507"
       cx="409.10516"
       id="circle4298"
       style="fill:#ffffff;stroke-width:1.46499991;stroke-linecap:round;stroke-linejoin:bevel;paint-order:stroke fill markers" />
    <circle
       style="fill:#ffffff;stroke-width:1.46499991;stroke-linecap:round;stroke-linejoin:bevel;paint-order:stroke fill markers"
       id="circle4300"
       cx="406.53021"
       cy="209.63437"
       r="7.3716431" />
    <circle
       style="fill:#ffffff;stroke-width:1.46500003;stroke-linecap:round;stroke-linejoin:bevel;paint-order:stroke fill markers"
       id="circle4300-5"
       cx="395.46436"
       cy="404.04541"
       r="7.3716431" />
    <circle
       style="fill:#ffffff;stroke-width:1.46500003;stroke-linecap:round;stroke-linejoin:bevel;paint-order:stroke fill markers"
       id="circle4300-35"
       cx="439.50119"
       cy="404.19992"
       r="7.3716431" />
    <circle
       style="fill:#ffffff;stroke-width:1.46500003;stroke-linecap:round;stroke-linejoin:bevel;paint-order:stroke fill markers"
       id="circle4300-62"
       cx="439.68076"
       cy="319.75735"
       r="7.3716431" />
    <circle
       style="fill:#ffffff;stroke-width:1.46500003;stroke-linecap:round;stroke-linejoin:bevel;paint-order:stroke fill markers"
       id="circle4300-9"
       cx="394.62079"
       cy="318.85953"
       r="7.3716431" />
    <circle
       style="fill:#ffffff;stroke-width:1.46500003;stroke-linecap:round;stroke-linejoin:bevel;paint-order:stroke fill markers"
       id="circle4300-1"
       cx="417.11945"
       cy="295.84512"
       r="7.3716431" />
  </g>
  <g
     inkscape:groupmode="layer"
     id="layer3"
     inkscape:label="Body"
     style="display:inline"
     transform="translate(-326.31254,-6.023556)" />
  <g
     inkscape:groupmode="layer"
     id="layer2"
     inkscape:label="Decor"
     style="opacity:0.18600003"
     transform="translate(-326.31254,-17.273539)" />
</svg>
