<?xml version="1.0" encoding="UTF-8" standalone="no"?>
<!-- Created with Inkscape (http://www.inkscape.org/) -->

<svg
   xmlns:dc="http://purl.org/dc/elements/1.1/"
   xmlns:cc="http://creativecommons.org/ns#"
   xmlns:rdf="http://www.w3.org/1999/02/22-rdf-syntax-ns#"
   xmlns:svg="http://www.w3.org/2000/svg"
   xmlns="http://www.w3.org/2000/svg"
   xmlns:xlink="http://www.w3.org/1999/xlink"
   xmlns:sodipodi="http://sodipodi.sourceforge.net/DTD/sodipodi-0.dtd"
   xmlns:inkscape="http://www.inkscape.org/namespaces/inkscape"
   width="960.46545"
   height="1428.4125"
   viewBox="0 0 254.12315 377.93415"
   version="1.1"
   id="svg8"
   inkscape:version="0.92+devel unknown"
   sodipodi:docname="guest welchertaku.svg"
   inkscape:export-filename="/home/mbrickn/Projects/Operation-Ohio/game/images/characters/guests/guest welchertaku.png"
   inkscape:export-xdpi="90"
   inkscape:export-ydpi="90">
  <title
     id="title4359">Welchertaku Guest</title>
  <defs
     id="defs2">
    <linearGradient
       id="linearGradient4356"
       inkscape:collect="always">
      <stop
         id="stop4352"
         offset="0"
         style="stop-color:#f79191;stop-opacity:1" />
      <stop
         id="stop4354"
         offset="1"
         style="stop-color:#858585;stop-opacity:1" />
    </linearGradient>
    <linearGradient
       id="linearGradient4388"
       inkscape:collect="always">
      <stop
         id="stop4384"
         offset="0"
         style="stop-color:#ccff00;stop-opacity:1" />
      <stop
         id="stop4386"
         offset="1"
         style="stop-color:#37abc8;stop-opacity:1" />
    </linearGradient>
    <linearGradient
       inkscape:collect="always"
       id="linearGradient4454">
      <stop
         style="stop-color:#ff00fb;stop-opacity:1"
         offset="0"
         id="stop4450" />
      <stop
         style="stop-color:#fffe00;stop-opacity:1"
         offset="1"
         id="stop4452" />
    </linearGradient>
    <linearGradient
       inkscape:collect="always"
       id="linearGradient4438">
      <stop
         style="stop-color:#37abc8;stop-opacity:1;"
         offset="0"
         id="stop4434" />
      <stop
         style="stop-color:#aad400;stop-opacity:1"
         offset="1"
         id="stop4436" />
    </linearGradient>
    <linearGradient
       inkscape:collect="always"
       id="linearGradient4429">
      <stop
         style="stop-color:#ccff00;stop-opacity:1"
         offset="0"
         id="stop4425" />
      <stop
         style="stop-color:#37abc8;stop-opacity:1"
         offset="1"
         id="stop4427" />
    </linearGradient>
    <linearGradient
       inkscape:collect="always"
       id="linearGradient4405">
      <stop
         style="stop-color:#ffcc00;stop-opacity:1;"
         offset="0"
         id="stop4401" />
      <stop
         style="stop-color:#ff5400;stop-opacity:1"
         offset="1"
         id="stop4403" />
    </linearGradient>
    <linearGradient
       inkscape:collect="always"
       id="linearGradient4385">
      <stop
         style="stop-color:#c47d4d;stop-opacity:1;"
         offset="0"
         id="stop4381" />
      <stop
         style="stop-color:#ffb380;stop-opacity:1"
         offset="1"
         id="stop4383" />
    </linearGradient>
    <linearGradient
       inkscape:collect="always"
       id="linearGradient4376">
      <stop
         style="stop-color:#ff6600;stop-opacity:1"
         offset="0"
         id="stop4372" />
      <stop
         style="stop-color:#ffb380;stop-opacity:1"
         offset="1"
         id="stop4374" />
    </linearGradient>
    <linearGradient
       inkscape:collect="always"
       id="linearGradient4328">
      <stop
         style="stop-color:#cccccc;stop-opacity:1;"
         offset="0"
         id="stop4324" />
      <stop
         style="stop-color:#858585;stop-opacity:1"
         offset="1"
         id="stop4326" />
    </linearGradient>
    <linearGradient
       inkscape:collect="always"
       xlink:href="#linearGradient4328"
       id="linearGradient4330"
       x1="447.35455"
       y1="288.88724"
       x2="447.15027"
       y2="304.71881"
       gradientUnits="userSpaceOnUse"
       gradientTransform="translate(163.69322,93.584542)" />
    <linearGradient
       inkscape:collect="always"
       xlink:href="#linearGradient4376"
       id="linearGradient4347"
       x1="1690.0168"
       y1="1151.6932"
       x2="1677.4143"
       y2="1494.8531"
       gradientUnits="userSpaceOnUse"
       gradientTransform="matrix(0.26458333,0,0,0.26458333,163.69322,93.584542)" />
    <linearGradient
       inkscape:collect="always"
       xlink:href="#linearGradient4376"
       id="linearGradient4378"
       x1="439.38412"
       y1="140.8439"
       x2="442.79581"
       y2="137.75354"
       gradientUnits="userSpaceOnUse"
       gradientTransform="translate(163.69322,93.584542)" />
    <linearGradient
       inkscape:collect="always"
       xlink:href="#linearGradient4385"
       id="linearGradient4387"
       x1="1687.839"
       y1="633.58673"
       x2="1692.7548"
       y2="655.36127"
       gradientUnits="userSpaceOnUse"
       gradientTransform="matrix(0.26458333,0,0,0.26458333,163.69322,104.83452)" />
    <radialGradient
       inkscape:collect="always"
       xlink:href="#linearGradient4405"
       id="radialGradient4407"
       cx="438.64359"
       cy="101.57557"
       fx="438.64359"
       fy="101.57557"
       r="20.880627"
       gradientUnits="userSpaceOnUse" />
    <radialGradient
       inkscape:collect="always"
       xlink:href="#linearGradient4405"
       id="radialGradient4415"
       cx="425.70001"
       cy="205.71153"
       fx="425.70001"
       fy="205.71153"
       r="12.6477"
       gradientTransform="matrix(1,0,0,1.1428161,163.69322,64.205626)"
       gradientUnits="userSpaceOnUse" />
    <linearGradient
       inkscape:collect="always"
       xlink:href="#linearGradient4388"
       id="linearGradient4431"
       x1="494.85635"
       y1="266.52127"
       x2="487.75537"
       y2="224.18515"
       gradientUnits="userSpaceOnUse"
       gradientTransform="translate(163.69322,93.584542)" />
    <linearGradient
       inkscape:collect="always"
       xlink:href="#linearGradient4438"
       id="linearGradient4440"
       x1="1674.3693"
       y1="838.30524"
       x2="1688.7936"
       y2="1094.6769"
       gradientUnits="userSpaceOnUse"
       gradientTransform="matrix(0.26458333,0,0,0.26458333,163.69322,93.584542)" />
    <radialGradient
       inkscape:collect="always"
       xlink:href="#linearGradient4454"
       id="radialGradient4456"
       cx="444.04739"
       cy="97.27861"
       fx="444.04739"
       fy="97.27861"
       r="11.350587"
       gradientTransform="matrix(0.65824344,-0.66206623,0.69011685,0.6861321,84.622501,324.52141)"
       gradientUnits="userSpaceOnUse" />
    <radialGradient
       inkscape:collect="always"
       xlink:href="#linearGradient4405"
       id="radialGradient4476"
       gradientUnits="userSpaceOnUse"
       cx="438.64359"
       cy="101.57557"
       fx="438.64359"
       fy="101.57557"
       r="20.880627" />
    <radialGradient
       inkscape:collect="always"
       xlink:href="#linearGradient4405"
       id="radialGradient4480"
       gradientUnits="userSpaceOnUse"
       cx="438.64359"
       cy="101.57557"
       fx="438.64359"
       fy="101.57557"
       r="20.880627" />
    <linearGradient
       inkscape:collect="always"
       xlink:href="#linearGradient4429"
       id="linearGradient4382"
       gradientUnits="userSpaceOnUse"
       gradientTransform="matrix(-1,0,0,1,1054.1064,93.584542)"
       x1="494.85635"
       y1="266.52127"
       x2="487.75537"
       y2="224.18515" />
    <radialGradient
       inkscape:collect="always"
       xlink:href="#linearGradient4405"
       id="radialGradient4476-6"
       gradientUnits="userSpaceOnUse"
       cx="438.64359"
       cy="101.57557"
       fx="438.64359"
       fy="101.57557"
       r="20.880627" />
    <radialGradient
       inkscape:collect="always"
       xlink:href="#linearGradient4405"
       id="radialGradient4480-5"
       gradientUnits="userSpaceOnUse"
       cx="438.64359"
       cy="101.57557"
       fx="438.64359"
       fy="101.57557"
       r="20.880627" />
    <radialGradient
       inkscape:collect="always"
       xlink:href="#linearGradient4405"
       id="radialGradient4480-5-1"
       gradientUnits="userSpaceOnUse"
       cx="438.64359"
       cy="101.57557"
       fx="438.64359"
       fy="101.57557"
       r="20.880627" />
    <linearGradient
       inkscape:collect="always"
       xlink:href="#linearGradient4356"
       id="linearGradient4350"
       x1="483.4856"
       y1="357.65741"
       x2="539.83386"
       y2="381.57031"
       gradientUnits="userSpaceOnUse" />
  </defs>
  <sodipodi:namedview
     id="base"
     pagecolor="#ffffff"
     bordercolor="#666666"
     borderopacity="1.0"
     inkscape:pageopacity="0.0"
     inkscape:pageshadow="2"
     inkscape:zoom="0.49497475"
     inkscape:cx="-840.7483"
     inkscape:cy="783.93201"
     inkscape:document-units="mm"
     inkscape:current-layer="layer3"
     showgrid="false"
     inkscape:window-width="1920"
     inkscape:window-height="1016"
     inkscape:window-x="0"
     inkscape:window-y="0"
     inkscape:window-maximized="1"
     units="px"
     inkscape:pagecheckerboard="true"
     inkscape:document-rotation="0"
     fit-margin-top="0"
     fit-margin-left="0"
     fit-margin-right="0"
     fit-margin-bottom="0">
    <inkscape:grid
       type="xygrid"
       id="grid4485"
       originx="-472.92884"
       originy="254.20406" />
  </sodipodi:namedview>
  <metadata
     id="metadata5">
    <rdf:RDF>
      <cc:Work
         rdf:about="">
        <dc:format>image/svg+xml</dc:format>
        <dc:type
           rdf:resource="http://purl.org/dc/dcmitype/StillImage" />
        <dc:title>Welchertaku Guest</dc:title>
        <cc:license
           rdf:resource="http://creativecommons.org/licenses/by/4.0/" />
        <dc:creator>
          <cc:Agent>
            <dc:title>Maxwell Paul Brickner</dc:title>
          </cc:Agent>
        </dc:creator>
      </cc:Work>
      <cc:License
         rdf:about="http://creativecommons.org/licenses/by/4.0/">
        <cc:permits
           rdf:resource="http://creativecommons.org/ns#Reproduction" />
        <cc:permits
           rdf:resource="http://creativecommons.org/ns#Distribution" />
        <cc:requires
           rdf:resource="http://creativecommons.org/ns#Notice" />
        <cc:requires
           rdf:resource="http://creativecommons.org/ns#Attribution" />
        <cc:permits
           rdf:resource="http://creativecommons.org/ns#DerivativeWorks" />
      </cc:License>
    </rdf:RDF>
  </metadata>
  <g
     inkscape:label="Head"
     inkscape:groupmode="layer"
     id="layer1"
     transform="translate(-472.92884,-173.2699)"
     style="display:inline">
    <path
       style="display:inline;fill:#ffcc00;fill-opacity:1;stroke:none;stroke-width:2.91898012px;stroke-linecap:butt;stroke-linejoin:miter;stroke-opacity:1"
       d="m 727.05199,173.2699 c -0.16936,0.16423 -0.359,0.33179 -0.53394,0.49716 l 0.0171,-0.002 -0.0228,0.008 c -16.70511,15.78473 -58.38255,36.83334 -87.38255,55.21036 l -8.12793,-17.57536 -43.59377,17.30894 -1.6015,-9.71781 -5.77018,-9.97538 37.90562,-24.17365 6.40852,10.51077 100.5468,-21.25104 z"
       id="path4376"
       inkscape:connector-curvature="0"
       sodipodi:nodetypes="ccccccccccccc" />
    <path
       sodipodi:nodetypes="ccccccccccccc"
       inkscape:connector-curvature="0"
       id="path4511-3"
       d="m 495.02383,173.2699 c 0.16936,0.16423 0.359,0.33179 0.53394,0.49716 l -0.0171,-0.002 0.0228,0.008 c 16.70511,15.78473 58.38255,36.83334 87.38255,55.21036 l 8.12793,-17.57536 43.59377,17.30894 1.6015,-9.71781 5.77018,-9.97538 -37.90562,-24.17365 -6.40852,10.51077 -100.5468,-21.25104 z"
       style="display:inline;fill:#ffcc00;fill-opacity:1;stroke:none;stroke-width:2.91898012px;stroke-linecap:butt;stroke-linejoin:miter;stroke-opacity:1" />
    <path
       style="fill:url(#linearGradient4387);fill-opacity:1;stroke:none;stroke-width:0.90469491px;stroke-linecap:butt;stroke-linejoin:miter;stroke-opacity:1"
       d="m 602.2866,268.72633 c 0,0 2.44224,6.35135 3.18172,11.52539 -0.18968,0.39417 -0.64841,0.26584 -0.74829,0.99839 -5.4405,12.70912 16.09042,5.79698 16.82326,0.94154 0.55073,0.16296 0.62013,0.35709 0.62013,0.35709 0,0 -0.30038,-0.83949 -0.49143,-1.37253 0.0119,-0.13312 0.0111,-0.14107 -0.004,-0.009 -1.16096,-3.23908 -5.06978,-15.6167 -5.55934,-18.06462 -2.12666,-9.18988 -12.25626,3.26887 -13.82205,5.62374 z"
       id="path4612"
       inkscape:connector-curvature="0"
       sodipodi:nodetypes="ccccccccc" />
    <path
       style="fill:#ffb380;fill-opacity:1;stroke:#ffb380;stroke-width:0.32358456px;stroke-linecap:butt;stroke-linejoin:miter;stroke-opacity:1"
       d="m 632.9292,249.28523 c -35.07258,24.8728 -39.52791,29.97911 -46.07591,5.27402 -1.19549,-5.13619 -4.25255,-32.56643 -2.25359,-36.16108 8.4357,-15.16966 42.21533,-5.59129 46.51299,-2.97534 5.31602,3.23583 16.8401,13.75392 1.81651,33.8624 z"
       id="path4538"
       inkscape:connector-curvature="0"
       sodipodi:nodetypes="ccssc" />
    <ellipse
       style="fill:#ffffff;fill-opacity:1;stroke:none;stroke-width:4.49377441;stroke-linecap:round;stroke-linejoin:round;stroke-miterlimit:4;stroke-dasharray:none;stroke-opacity:1;paint-order:stroke fill markers"
       id="ellipse4497"
       cx="621.02399"
       cy="232.50461"
       rx="9.582552"
       ry="11.06439" />
    <ellipse
       transform="rotate(-4.4885586)"
       ry="10.28954"
       rx="7.7171555"
       cy="280.88367"
       cx="599.01862"
       id="path4493"
       style="fill:#d40000;fill-opacity:1;stroke:none;stroke-width:3.88896036;stroke-linecap:round;stroke-linejoin:round;stroke-miterlimit:4;stroke-dasharray:none;stroke-opacity:1;paint-order:stroke fill markers" />
    <path
       inkscape:connector-curvature="0"
       id="path4505"
       d="m 611.19754,232.40441 c 0,0 1.35683,-9.03167 10.46853,-9.41453 9.11172,-0.3827 9.40398,9.40637 9.40398,9.40637 0,0 0.22124,-12.92716 -9.24569,-12.1286 -9.46691,0.79851 -10.62682,12.13676 -10.62682,12.13676 z"
       style="fill:#ffcc00;fill-opacity:1;stroke:none;stroke-width:1.23725712px;stroke-linecap:butt;stroke-linejoin:miter;stroke-opacity:1"
       sodipodi:nodetypes="ccccc" />
    <ellipse
       transform="rotate(-4.4885586)"
       style="fill:#ffffff;fill-opacity:1;stroke:none;stroke-width:4.91045761;stroke-linecap:round;stroke-linejoin:round;stroke-miterlimit:4;stroke-dasharray:none;stroke-opacity:1;paint-order:stroke fill markers"
       id="ellipse4499"
       cx="573.5675"
       cy="277.54327"
       rx="6.8214846"
       ry="12.372571" />
    <ellipse
       transform="rotate(-4.4885586)"
       ry="9.6385927"
       rx="5.1708078"
       cy="277.9599"
       cx="571.8952"
       id="path4491"
       style="fill:#d40000;fill-opacity:1;stroke:none;stroke-width:3.77344942;stroke-linecap:round;stroke-linejoin:round;stroke-miterlimit:4;stroke-dasharray:none;stroke-opacity:1;paint-order:stroke fill markers" />
    <path
       sodipodi:nodetypes="ccccc"
       style="fill:#ffcc00;fill-opacity:1;stroke:none;stroke-width:1.02553654px;stroke-linecap:butt;stroke-linejoin:miter;stroke-opacity:1"
       d="m 586.50679,230.55392 c 0,0 0.56039,-7.80987 6.82862,-7.9695 6.26824,-0.1595 7.14806,7.88349 7.14806,7.88349 0,0 -0.56561,-12.32472 -7.06841,-11.75885 -6.50281,0.56583 -6.90827,11.84486 -6.90827,11.84486 z"
       id="path4509"
       inkscape:connector-curvature="0" />
    <path
       sodipodi:nodetypes="ccccccccccccc"
       inkscape:connector-curvature="0"
       id="path4511"
       d="m 537.4456,211.07352 c 0.0595,0.0577 0.12613,0.11657 0.18759,0.17467 l -0.006,-0.001 0.008,0.003 c 5.86907,5.54571 20.51177,12.9408 30.70045,19.39727 l 2.85562,-6.17482 15.31597,6.08122 0.56266,-3.4142 2.02726,-3.50469 -13.31753,-8.49302 -2.25153,3.69279 -35.3255,-7.46621 z"
       style="fill:#ffcc00;fill-opacity:1;stroke:none;stroke-width:1.02553666px;stroke-linecap:butt;stroke-linejoin:miter;stroke-opacity:1" />
    <path
       sodipodi:nodetypes="ccccccccccccc"
       inkscape:connector-curvature="0"
       style="fill:#ffcc00;fill-opacity:1;stroke:none;stroke-width:1.02553654px;stroke-linecap:butt;stroke-linejoin:miter;stroke-opacity:1"
       d="m 679.84606,213.3648 c -0.0596,0.0577 -0.12613,0.11655 -0.18759,0.17467 l 0.006,-0.001 -0.007,0.004 c -5.86906,5.54571 -20.51177,12.9408 -30.70045,19.39726 l -2.85562,-6.17481 -15.03113,5.63169 -0.84749,-2.96467 -1.06468,-3.77197 12.35494,-8.22574 2.25153,3.69279 35.3255,-7.46622 z"
       id="path4350" />
    <path
       style="display:inline;fill:#150075;fill-opacity:1;stroke:none;stroke-width:0.26458332px;stroke-linecap:butt;stroke-linejoin:miter;stroke-opacity:1"
       d="m 583.7496,224.07168 c 0,0 28.99176,-3.13031 56.26253,1.40356 0.049,-3.48118 1.43343,-7.20563 -1.72532,-9.57493 -5.37974,-4.03522 -18.00445,-5.60607 -29.82923,-5.98225 -18.76779,-0.59705 -25.99361,0.90101 -24.70798,14.15362 z"
       id="path4345"
       inkscape:connector-curvature="0"
       sodipodi:nodetypes="ccssc" />
  </g>
  <g
     inkscape:groupmode="layer"
     id="layer3"
     inkscape:label="Body"
     style="display:inline"
     transform="translate(-472.92884,-162.01991)">
    <path
       style="fill:url(#linearGradient4350);fill-opacity:1;stroke:none;stroke-width:0.26458332px;stroke-linecap:butt;stroke-linejoin:miter;stroke-opacity:1"
       d="m 559.77478,377.63396 c 0,0 -70.09909,-7.96039 -86.84594,-38.56908 8.95022,40.6778 55.69592,56.40704 85.17086,44.32731 4.0005,-3.54574 1.67508,-5.75823 1.67508,-5.75823 z"
       id="path4342"
       inkscape:connector-curvature="0"
       sodipodi:nodetypes="cccc" />
    <path
       style="fill:#63ff00;fill-opacity:1;stroke:none;stroke-width:0.26458332px;stroke-linecap:butt;stroke-linejoin:miter;stroke-opacity:1"
       d="m 601.05449,488.47074 -19.90428,1.0409 c 0,0 7.90797,29.62979 -3.79897,35.34076 -11.70691,5.71101 -16.23378,8.30662 -19.99583,3.40329 -2.14826,9.56013 0.75596,11.36732 7.07083,11.12962 6.31486,-0.23771 34.33085,1.07635 37.3458,-1.99621 3.2512,-11.00264 -0.71755,-48.91836 -0.71755,-48.91836 z"
       id="path4348"
       inkscape:connector-curvature="0" />
    <path
       sodipodi:nodetypes="cccccc"
       inkscape:connector-curvature="0"
       id="path4327"
       d="m 653.39392,362.56881 c 0,0 0.14598,7.85044 -0.30633,10.01852 -1.77831,5.23862 -2.6321,7.84025 -0.67378,12.7494 16.30704,4.5729 15.53434,-0.0111 10.66877,-12.87046 -1.17732,-3.22148 -0.81788,-9.15648 -0.81788,-9.15648 z"
       style="fill:#000000;fill-opacity:1;stroke:none;stroke-width:0.25264218px;stroke-linecap:butt;stroke-linejoin:miter;stroke-opacity:1" />
    <path
       style="fill:url(#linearGradient4440);fill-opacity:1;stroke:none;stroke-width:0.90469491px;stroke-linecap:butt;stroke-linejoin:miter;stroke-opacity:1"
       d="m 580.46616,222.14289 c -6.69944,18.94512 -18.14617,59.82175 -6.83002,65.26548 -0.37914,0.0765 -0.74369,0.23362 -1.09397,0.48834 -0.40346,3.90379 -0.28326,8.00005 -0.51988,11.63598 -2.12648,32.67909 2.34987,55.43048 10.97711,84.28323 l 56.564,-0.29869 c -8.5285,-38.30488 3.96629,-55.1474 14.88951,-89.24107 0.40058,-1.77974 -2.39236,-5.15833 -5.14953,-8.27701 11.52527,-6.70346 8.86383,-44.75774 -5.18605,-60.87258 2.21362,49.4177 -13.88774,52.11756 -13.88774,52.11756 l 3.78426,6.19084 c -6.65303,6.75905 -15.74178,17.91012 -27.82724,19.94762 -13.07063,2.20359 -21.90948,-9.54962 -28.03186,-14.19655 2.54788,0.77657 4.08914,0.84801 4.08914,0.84801 l 7.81814,-12.78992 c 0,0 -15.34405,-4.24451 -9.59587,-55.10124 z"
       id="path4617"
       inkscape:connector-curvature="0"
       sodipodi:nodetypes="cccccccccccscccc" />
    <path
       sodipodi:nodetypes="csccccc"
       inkscape:connector-curvature="0"
       id="path4623"
       d="m 572.98073,288.23402 c 0.521,14.59743 21.90158,20.98037 33.02332,23.51254 11.12173,2.53218 28.43542,-20.95865 40.3269,-37.20229 -9.2462,-1.50311 -19.83657,-2.88499 -24.49026,-4.31235 -11.95835,6.09288 -20.07539,10.61256 -16.76826,-0.76612 -10.17539,0.6391 -21.04479,1.8438 -30.35445,3.53382 z"
       style="fill:#37abc8;fill-opacity:1;stroke:none;stroke-width:0.90469491px;stroke-linecap:butt;stroke-linejoin:miter;stroke-opacity:1" />
    <path
       style="fill:url(#linearGradient4431);fill-opacity:1;stroke:none;stroke-width:0.90469491px;stroke-linecap:butt;stroke-linejoin:miter;stroke-opacity:1"
       d="m 640.50815,290.18326 c 0,0 13.69091,66.3939 12.91245,73.56579 -0.77845,7.17193 10.52246,8.49244 8.96702,3.57826 -1.55545,-4.91429 9.11008,-69.70932 -14.10806,-89.35255 -14.27752,-10.86362 -7.77141,12.2085 -7.77141,12.2085 z"
       id="path4640"
       inkscape:connector-curvature="0"
       sodipodi:nodetypes="ccccc" />
    <path
       sodipodi:nodetypes="cc"
       style="fill:none;stroke:#c47d4d;stroke-width:1.0207119;stroke-linecap:butt;stroke-linejoin:miter;stroke-miterlimit:4;stroke-dasharray:none;stroke-opacity:1"
       d="m 594.20949,245.69089 c 5.57209,0.30661 16.58861,2.16251 24.90427,-8.69377"
       id="path4519"
       inkscape:connector-curvature="0" />
    <path
       style="fill:none;stroke:#c47d4d;stroke-width:1.0207119;stroke-linecap:butt;stroke-linejoin:miter;stroke-miterlimit:4;stroke-dasharray:none;stroke-opacity:1"
       d="m 622.11525,237.07669 c 0,0 -3.93545,0.98425 -5.08737,-0.96609"
       id="path4521"
       inkscape:connector-curvature="0" />
    <path
       sodipodi:nodetypes="ccc"
       style="fill:url(#linearGradient4378);fill-opacity:1;stroke:none;stroke-width:0.73599988;stroke-linecap:butt;stroke-linejoin:miter;stroke-miterlimit:4;stroke-dasharray:none;stroke-opacity:1"
       d="m 605.39336,225.4725 c 0,0 -1.02079,6.06939 -2.316,8.95594 3.87601,-1.86053 5.77724,-0.86395 5.77724,-0.86395"
       id="path4489"
       inkscape:connector-curvature="0" />
    <path
       sodipodi:type="star"
       style="fill:#ff6600;fill-opacity:1;stroke:none;stroke-width:0.52720863;stroke-linecap:round;stroke-linejoin:bevel;paint-order:markers fill stroke"
       id="path4310"
       sodipodi:sides="5"
       sodipodi:cx="429.04584"
       sodipodi:cy="137.26784"
       sodipodi:r1="3.3899159"
       sodipodi:r2="2.3970325"
       sodipodi:arg1="-0.29253745"
       sodipodi:arg2="0.33578108"
       inkscape:flatsided="true"
       inkscape:rounded="0"
       inkscape:randomized="0"
       d="m 432.29173,136.29024 -1.31311,3.76254 -3.98415,-0.0862 -1.14923,-3.81578 3.27389,-2.27213 z"
       inkscape:transform-center-x="0.1791933"
       inkscape:transform-center-y="0.19169285"
       transform="matrix(1.1991127,-0.24052027,0.24052027,1.1991127,43.895719,161.06924)" />
    <path
       transform="matrix(1.4754403,-0.2959466,0.2959466,1.4754403,-55.980831,147.85934)"
       inkscape:transform-center-y="0.23585366"
       inkscape:transform-center-x="0.22053157"
       d="m 432.29173,136.29024 -1.31311,3.76254 -3.98415,-0.0862 -1.14923,-3.81578 3.27389,-2.27213 z"
       inkscape:randomized="0"
       inkscape:rounded="0"
       inkscape:flatsided="true"
       sodipodi:arg2="0.33578108"
       sodipodi:arg1="-0.29253745"
       sodipodi:r2="2.3970325"
       sodipodi:r1="3.3899159"
       sodipodi:cy="137.26784"
       sodipodi:cx="429.04584"
       sodipodi:sides="5"
       id="path4314"
       style="fill:#ff6600;fill-opacity:1;stroke:none;stroke-width:0.52720863;stroke-linecap:round;stroke-linejoin:bevel;paint-order:markers fill stroke"
       sodipodi:type="star" />
    <path
       sodipodi:type="star"
       style="fill:url(#radialGradient4456);fill-opacity:1;stroke:none;stroke-width:1.04495263;stroke-linejoin:bevel;stroke-opacity:1;paint-order:markers fill stroke"
       id="path4364"
       sodipodi:sides="5"
       sodipodi:cx="443.7836"
       sodipodi:cy="98.167397"
       sodipodi:r1="11.965202"
       sodipodi:r2="4.0681686"
       sodipodi:arg1="1.0138815"
       sodipodi:arg2="1.6422"
       inkscape:flatsided="false"
       inkscape:rounded="0"
       inkscape:randomized="0"
       d="m 450.10804,108.32454 -6.61468,-6.09934 -7.41541,5.09583 3.75676,-8.175734 -7.13791,-5.477783 8.93649,1.046456 3.00394,-8.481286 1.76629,8.822479 8.99445,0.23606 -7.84486,4.406135 z"
       inkscape:transform-center-x="0.26583312"
       inkscape:transform-center-y="-0.14910153"
       transform="rotate(-5.4489655,1598.2872,-1573.4548)" />
    <path
       style="fill:url(#linearGradient4347);fill-opacity:1;stroke:none;stroke-width:0.26458332px;stroke-linecap:butt;stroke-linejoin:miter;stroke-opacity:1"
       d="m 604.45338,382.98187 c -18.17552,0.048 -21.45398,0.83405 -21.45398,0.83405 0,0 8.85688,58.42524 -1.84898,105.69588 9.83771,3.43278 19.9042,-1.04129 19.9042,-1.04129 0,0 0.78849,-22.54068 2.47325,-45.77446 3.32744,-12.75498 4.2479,-30.24922 2.12235,-43.57772 3.04721,-0.12824 6.37458,-0.29906 9.72807,-0.48162 0.58724,31.13395 4.18812,60.38025 -1.85671,90.87509 9.83771,3.43278 19.90471,-1.04129 19.90471,-1.04129 -10.37764,-31.57719 17.76739,-78.23478 6.13711,-104.95328 -15.50871,-0.42632 -26.8484,-0.55719 -35.11002,-0.53536 z"
       id="path4329"
       inkscape:connector-curvature="0"
       sodipodi:nodetypes="ccccccccccc" />
    <path
       inkscape:connector-curvature="0"
       id="path4351"
       d="m 633.42608,488.47074 -19.90428,1.0409 c 2.78005,20.95468 4.23083,26.78394 -1.90601,37.07972 -2.14826,9.56013 -5.10575,13.59049 1.20912,13.35279 6.31486,-0.23771 18.30377,0.51751 21.31872,-2.55505 3.2512,-11.00264 -0.71755,-48.91836 -0.71755,-48.91836 z"
       style="fill:#63ff00;fill-opacity:1;stroke:none;stroke-width:0.26458332px;stroke-linecap:butt;stroke-linejoin:miter;stroke-opacity:1"
       sodipodi:nodetypes="cccccc" />
    <path
       style="opacity:0.98999999;fill:url(#linearGradient4330);fill-opacity:1;stroke:none;stroke-width:0.26458332px;stroke-linecap:butt;stroke-linejoin:miter;stroke-opacity:1"
       d="m 599.57119,382.50783 20.23834,0.39099 -8.96604,15.40454 z"
       id="path4353"
       inkscape:connector-curvature="0"
       sodipodi:nodetypes="cccc" />
    <path
       inkscape:transform-center-y="6.8622991e-06"
       sodipodi:type="star"
       style="fill:url(#radialGradient4480);fill-opacity:1;stroke:none;stroke-width:1.26499999;stroke-linejoin:bevel;stroke-opacity:1;paint-order:markers fill stroke"
       id="path4478"
       sodipodi:sides="4"
       sodipodi:cx="438.64359"
       sodipodi:cy="101.57557"
       sodipodi:r1="1.8792564"
       sodipodi:r2="20.880627"
       sodipodi:arg1="0.78539816"
       sodipodi:arg2="1.5707963"
       inkscape:flatsided="false"
       inkscape:rounded="0"
       inkscape:randomized="0"
       d="m 439.97242,102.9044 -1.32883,19.5518 -1.32884,-19.5518 -19.55179,-1.32883 19.55179,-1.32884 1.32883,-19.551788 1.32884,19.551788 19.55179,1.32884 z"
       inkscape:transform-center-x="9.7331765e-06"
       transform="matrix(0.06053316,-0.45795554,-0.45795554,-0.06053316,652.42601,525.14486)" />
    <path
       style="fill:#000000;fill-opacity:1;stroke:none;stroke-width:0.25264218px;stroke-linecap:butt;stroke-linejoin:miter;stroke-opacity:1"
       d="m 564.40575,362.56881 c 0,0 -0.14598,7.85044 0.30633,10.01852 1.77831,5.23862 2.6321,7.84025 0.67378,12.7494 -16.30704,4.5729 -15.53434,-0.0111 -10.66877,-12.87046 1.17732,-3.22148 0.81788,-9.15648 0.81788,-9.15648 z"
       id="path4378"
       inkscape:connector-curvature="0"
       sodipodi:nodetypes="cccccc" />
    <path
       sodipodi:nodetypes="ccccc"
       inkscape:connector-curvature="0"
       id="path4380"
       d="m 577.29152,290.18326 c 0,0 -13.69091,66.3939 -12.91245,73.56579 0.77845,7.17193 -10.52246,8.49244 -8.96702,3.57826 1.55545,-4.91429 -9.11008,-69.70932 14.10806,-89.35255 14.27752,-10.86362 7.77141,12.2085 7.77141,12.2085 z"
       style="fill:url(#linearGradient4382);fill-opacity:1;stroke:none;stroke-width:0.90469491px;stroke-linecap:butt;stroke-linejoin:miter;stroke-opacity:1" />
    <path
       transform="matrix(-0.06053316,-0.45795554,0.45795554,-0.06053316,565.01575,529.05284)"
       inkscape:transform-center-x="-4.8588239e-06"
       d="m 439.97242,102.9044 -1.32883,19.5518 -1.32884,-19.5518 -19.55179,-1.32883 19.55179,-1.32884 1.32883,-19.551788 1.32884,19.551788 19.55179,1.32884 z"
       inkscape:randomized="0"
       inkscape:rounded="0"
       inkscape:flatsided="false"
       sodipodi:arg2="1.5707963"
       sodipodi:arg1="0.78539816"
       sodipodi:r2="20.880627"
       sodipodi:r1="1.8792564"
       sodipodi:cy="101.57557"
       sodipodi:cx="438.64359"
       sodipodi:sides="4"
       id="path4474"
       style="fill:url(#radialGradient4476);fill-opacity:1;stroke:none;stroke-width:1.26499999;stroke-linejoin:bevel;stroke-opacity:1;paint-order:markers fill stroke"
       sodipodi:type="star"
       inkscape:transform-center-y="6.8622991e-06" />
    <path
       sodipodi:type="star"
       style="fill:url(#radialGradient4407);fill-opacity:1;stroke:none;stroke-width:1.26499999;stroke-linejoin:bevel;stroke-opacity:1;paint-order:markers fill stroke"
       id="path4362"
       sodipodi:sides="4"
       sodipodi:cx="438.64359"
       sodipodi:cy="101.57557"
       sodipodi:r1="1.8792564"
       sodipodi:r2="20.880627"
       sodipodi:arg1="0.78539816"
       sodipodi:arg2="1.5707963"
       inkscape:flatsided="false"
       inkscape:rounded="0"
       inkscape:randomized="0"
       d="m 439.97242,102.9044 -1.32883,19.5518 -1.32884,-19.5518 -19.55179,-1.32883 19.55179,-1.32884 1.32883,-19.551788 1.32884,19.551788 19.55179,1.32884 z"
       inkscape:transform-center-x="7.4247122e-06"
       transform="matrix(0.84833411,-1.073591,1.073591,0.84833411,124.83651,707.26608)" />
    <path
       transform="matrix(-0.06053316,-0.45795554,0.45795554,-0.06053316,577.20839,501.52413)"
       inkscape:transform-center-x="-4.8588239e-06"
       d="m 439.97242,102.9044 -1.32883,19.5518 -1.32884,-19.5518 -19.55179,-1.32883 19.55179,-1.32884 1.32883,-19.551788 1.32884,19.551788 19.55179,1.32884 z"
       inkscape:randomized="0"
       inkscape:rounded="0"
       inkscape:flatsided="false"
       sodipodi:arg2="1.5707963"
       sodipodi:arg1="0.78539816"
       sodipodi:r2="20.880627"
       sodipodi:r1="1.8792564"
       sodipodi:cy="101.57557"
       sodipodi:cx="438.64359"
       sodipodi:sides="4"
       id="path4474-3"
       style="display:inline;fill:url(#radialGradient4476-6);fill-opacity:1;stroke:none;stroke-width:1.26499999;stroke-linejoin:bevel;stroke-opacity:1;paint-order:markers fill stroke"
       sodipodi:type="star"
       inkscape:transform-center-y="6.8622991e-06" />
    <path
       inkscape:transform-center-y="6.8622991e-06"
       sodipodi:type="star"
       style="display:inline;fill:url(#radialGradient4480-5);fill-opacity:1;stroke:none;stroke-width:1.26499999;stroke-linejoin:bevel;stroke-opacity:1;paint-order:markers fill stroke"
       id="path4478-9"
       sodipodi:sides="4"
       sodipodi:cx="438.64359"
       sodipodi:cy="101.57557"
       sodipodi:r1="1.8792564"
       sodipodi:r2="20.880627"
       sodipodi:arg1="0.78539816"
       sodipodi:arg2="1.5707963"
       inkscape:flatsided="false"
       inkscape:rounded="0"
       inkscape:randomized="0"
       d="m 439.97242,102.9044 -1.32883,19.5518 -1.32884,-19.5518 -19.55179,-1.32883 19.55179,-1.32884 1.32883,-19.551788 1.32884,19.551788 19.55179,1.32884 z"
       inkscape:transform-center-x="9.7331765e-06"
       transform="matrix(0.06053316,-0.45795554,-0.45795554,-0.06053316,636.26241,501.52413)" />
    <path
       inkscape:transform-center-y="-0.47689006"
       sodipodi:type="star"
       style="display:inline;fill:url(#radialGradient4480-5-1);fill-opacity:1;stroke:none;stroke-width:1.26499999;stroke-linejoin:bevel;stroke-opacity:1;paint-order:markers fill stroke"
       id="path4478-9-0"
       sodipodi:sides="4"
       sodipodi:cx="438.64359"
       sodipodi:cy="101.57557"
       sodipodi:r1="1.8792564"
       sodipodi:r2="20.880627"
       sodipodi:arg1="0.78539816"
       sodipodi:arg2="1.5707963"
       inkscape:flatsided="false"
       inkscape:rounded="0"
       inkscape:randomized="0"
       d="m 439.97242,102.9044 -1.32883,19.5518 -1.32884,-19.5518 -19.55179,-1.32883 19.55179,-1.32884 1.32883,-19.551788 1.32884,19.551788 19.55179,1.32884 z"
       inkscape:transform-center-x="-5.45481"
       transform="matrix(-0.02661084,-0.46117177,-0.46117177,0.02661084,665.0388,486.86028)" />
    <path
       style="fill:#000000;fill-opacity:1;stroke:none;stroke-width:0.26458332px;stroke-linecap:butt;stroke-linejoin:miter;stroke-opacity:1"
       d="m 649.87665,378.39014 24.4797,-3.78301 2.70192,20.83032 -8.96762,0.4484 -2.49207,-13.76333 -14.40592,1.48199 z"
       id="path4358"
       inkscape:connector-curvature="0"
       sodipodi:nodetypes="ccccccc" />
  </g>
  <g
     inkscape:groupmode="layer"
     id="layer2"
     inkscape:label="Decor"
     style="opacity:0.18600003"
     transform="translate(-472.92884,-173.2699)" />
</svg>
