<?xml version="1.0" encoding="UTF-8" standalone="no"?>
<!-- Created with Inkscape (http://www.inkscape.org/) -->

<svg
   xmlns:dc="http://purl.org/dc/elements/1.1/"
   xmlns:cc="http://creativecommons.org/ns#"
   xmlns:rdf="http://www.w3.org/1999/02/22-rdf-syntax-ns#"
   xmlns:svg="http://www.w3.org/2000/svg"
   xmlns="http://www.w3.org/2000/svg"
   xmlns:xlink="http://www.w3.org/1999/xlink"
   xmlns:sodipodi="http://sodipodi.sourceforge.net/DTD/sodipodi-0.dtd"
   xmlns:inkscape="http://www.inkscape.org/namespaces/inkscape"
   width="629.98242"
   height="1619.5051"
   viewBox="0 0 166.68285 428.49408"
   version="1.1"
   id="svg8"
   inkscape:version="0.92+devel unknown"
   sodipodi:docname="guest funky.svg"
   inkscape:export-filename="/home/mbrickn/Projects/Operation-Ohio/game/images/characters/guests/guest funky.png"
   inkscape:export-xdpi="90"
   inkscape:export-ydpi="90">
  <title
     id="title4360">Funky Guest</title>
  <defs
     id="defs2">
    <linearGradient
       inkscape:collect="always"
       id="linearGradient4430">
      <stop
         style="stop-color:#803e80;stop-opacity:1;"
         offset="0"
         id="stop4426" />
      <stop
         style="stop-color:#803e80;stop-opacity:0;"
         offset="1"
         id="stop4428" />
    </linearGradient>
    <linearGradient
       inkscape:collect="always"
       id="linearGradient4422">
      <stop
         style="stop-color:#803e80;stop-opacity:1;"
         offset="0"
         id="stop4418" />
      <stop
         style="stop-color:#803e80;stop-opacity:0;"
         offset="1"
         id="stop4420" />
    </linearGradient>
    <linearGradient
       inkscape:collect="always"
       id="linearGradient4484">
      <stop
         style="stop-color:#ff6600;stop-opacity:1;"
         offset="0"
         id="stop4480" />
      <stop
         style="stop-color:#eb5e00;stop-opacity:1"
         offset="1"
         id="stop4482" />
    </linearGradient>
    <linearGradient
       inkscape:collect="always"
       id="linearGradient4476">
      <stop
         style="stop-color:#ff6600;stop-opacity:1;"
         offset="0"
         id="stop4472" />
      <stop
         style="stop-color:#bd4c00;stop-opacity:1"
         offset="1"
         id="stop4474" />
    </linearGradient>
    <linearGradient
       inkscape:collect="always"
       id="linearGradient4466">
      <stop
         style="stop-color:#d6ada7;stop-opacity:1;"
         offset="0"
         id="stop4462" />
      <stop
         style="stop-color:#e9c6af;stop-opacity:1"
         offset="1"
         id="stop4464" />
    </linearGradient>
    <linearGradient
       inkscape:collect="always"
       id="linearGradient4456">
      <stop
         style="stop-color:#aad400;stop-opacity:1;"
         offset="0"
         id="stop4452" />
      <stop
         style="stop-color:#7f9e00;stop-opacity:1"
         offset="1"
         id="stop4454" />
    </linearGradient>
    <linearGradient
       inkscape:collect="always"
       id="linearGradient4389">
      <stop
         style="stop-color:#9f0202;stop-opacity:1;"
         offset="0"
         id="stop4385" />
      <stop
         style="stop-color:#7b0202;stop-opacity:1"
         offset="1"
         id="stop4387" />
    </linearGradient>
    <linearGradient
       inkscape:collect="always"
       id="linearGradient4379">
      <stop
         style="stop-color:#aad400;stop-opacity:1"
         offset="0"
         id="stop4375" />
      <stop
         style="stop-color:#95b900;stop-opacity:1"
         offset="1"
         id="stop4377" />
    </linearGradient>
    <linearGradient
       inkscape:collect="always"
       id="linearGradient4367">
      <stop
         style="stop-color:#ffcc00;stop-opacity:1"
         offset="0"
         id="stop4363" />
      <stop
         style="stop-color:#e3b700;stop-opacity:1"
         offset="1"
         id="stop4365" />
    </linearGradient>
    <linearGradient
       inkscape:collect="always"
       xlink:href="#linearGradient4367"
       id="linearGradient4369"
       x1="1671.1534"
       y1="835.2663"
       x2="1676.0977"
       y2="1445.8411"
       gradientUnits="userSpaceOnUse" />
    <linearGradient
       inkscape:collect="always"
       xlink:href="#linearGradient4379"
       id="linearGradient4381"
       x1="442.98972"
       y1="371.26086"
       x2="442.05197"
       y2="429.88113"
       gradientUnits="userSpaceOnUse" />
    <linearGradient
       inkscape:collect="always"
       xlink:href="#linearGradient4389"
       id="linearGradient4391"
       x1="1681.3961"
       y1="442.38126"
       x2="1666.3674"
       y2="672.50348"
       gradientUnits="userSpaceOnUse" />
    <radialGradient
       inkscape:collect="always"
       xlink:href="#linearGradient4456"
       id="radialGradient4460"
       cx="1696.4629"
       cy="601.60394"
       fx="1696.4629"
       fy="601.60394"
       r="166.01955"
       gradientTransform="matrix(3.1605119,-0.04541909,0.00826107,0.57485123,-3670.1981,387.96551)"
       gradientUnits="userSpaceOnUse" />
    <linearGradient
       inkscape:collect="always"
       xlink:href="#linearGradient4466"
       id="linearGradient4468"
       x1="446.25851"
       y1="178.26588"
       x2="447.0459"
       y2="187.38228"
       gradientUnits="userSpaceOnUse" />
    <linearGradient
       inkscape:collect="always"
       xlink:href="#linearGradient4476"
       id="linearGradient4478"
       x1="1583.8906"
       y1="915.38708"
       x2="1639.2762"
       y2="935.31451"
       gradientUnits="userSpaceOnUse" />
    <linearGradient
       inkscape:collect="always"
       xlink:href="#linearGradient4484"
       id="linearGradient4486"
       x1="1894.1119"
       y1="999.30792"
       x2="1809.6465"
       y2="953.92847"
       gradientUnits="userSpaceOnUse" />
    <linearGradient
       inkscape:collect="always"
       xlink:href="#linearGradient4379"
       id="linearGradient4331"
       gradientUnits="userSpaceOnUse"
       x1="442.98972"
       y1="371.26086"
       x2="442.05197"
       y2="429.88113" />
    <linearGradient
       inkscape:collect="always"
       xlink:href="#linearGradient4379"
       id="linearGradient4333"
       gradientUnits="userSpaceOnUse"
       x1="442.98972"
       y1="371.26086"
       x2="442.05197"
       y2="429.88113" />
    <radialGradient
       inkscape:collect="always"
       xlink:href="#linearGradient4422"
       id="radialGradient4424"
       cx="418.75455"
       cy="239.7178"
       fx="418.75455"
       fy="239.7178"
       r="6.1686893"
       gradientTransform="matrix(1,0,0,0.45370373,2.2407072,128.20182)"
       gradientUnits="userSpaceOnUse" />
    <radialGradient
       inkscape:collect="always"
       xlink:href="#linearGradient4430"
       id="radialGradient4432"
       cx="400.9101"
       cy="211.68765"
       fx="400.9101"
       fy="211.68765"
       r="4.2838125"
       gradientTransform="matrix(1,0,0,0.58666661,0.56458797,90.095699)"
       gradientUnits="userSpaceOnUse" />
  </defs>
  <sodipodi:namedview
     id="base"
     pagecolor="#ffffff"
     bordercolor="#666666"
     borderopacity="1.0"
     inkscape:pageopacity="0.0"
     inkscape:pageshadow="2"
     inkscape:zoom="2.8"
     inkscape:cx="264.76134"
     inkscape:cy="1039.3531"
     inkscape:document-units="mm"
     inkscape:current-layer="layer1"
     showgrid="false"
     inkscape:window-width="1920"
     inkscape:window-height="1016"
     inkscape:window-x="0"
     inkscape:window-y="0"
     inkscape:window-maximized="1"
     units="px"
     inkscape:pagecheckerboard="true"
     inkscape:document-rotation="0"
     fit-margin-top="0"
     fit-margin-left="0"
     fit-margin-right="0"
     fit-margin-bottom="0">
    <inkscape:grid
       type="xygrid"
       id="grid4485"
       originx="-373.7348"
       originy="148.31429" />
  </sodipodi:namedview>
  <metadata
     id="metadata5">
    <rdf:RDF>
      <cc:Work
         rdf:about="">
        <dc:format>image/svg+xml</dc:format>
        <dc:type
           rdf:resource="http://purl.org/dc/dcmitype/StillImage" />
        <dc:title>Funky Guest</dc:title>
        <cc:license
           rdf:resource="http://creativecommons.org/licenses/by/4.0/" />
        <dc:creator>
          <cc:Agent>
            <dc:title>Maxwell Paul Brickner</dc:title>
          </cc:Agent>
        </dc:creator>
      </cc:Work>
      <cc:License
         rdf:about="http://creativecommons.org/licenses/by/4.0/">
        <cc:permits
           rdf:resource="http://creativecommons.org/ns#Reproduction" />
        <cc:permits
           rdf:resource="http://creativecommons.org/ns#Distribution" />
        <cc:requires
           rdf:resource="http://creativecommons.org/ns#Notice" />
        <cc:requires
           rdf:resource="http://creativecommons.org/ns#Attribution" />
        <cc:permits
           rdf:resource="http://creativecommons.org/ns#DerivativeWorks" />
      </cc:License>
    </rdf:RDF>
  </metadata>
  <g
     inkscape:label="Head"
     inkscape:groupmode="layer"
     id="layer1"
     transform="translate(-373.7348,-16.820185)">
    <path
       style="fill:url(#linearGradient4391);fill-opacity:1;stroke:none;stroke-width:4.78110218;stroke-linejoin:bevel;paint-order:markers fill stroke"
       d="M 1727.6504,21.052734 A 34.520777,34.520777 0 0 0 1693.1699,54.75 a 34.520777,34.520777 0 0 0 -31.7324,-21.023438 34.520777,34.520777 0 0 0 -34.4082,32.292969 34.520777,34.520777 0 0 0 -25.9746,-11.849609 34.520777,34.520777 0 0 0 -34.5215,34.521484 34.520777,34.520777 0 0 0 0.8867,7.582032 34.520777,34.520777 0 0 0 -22.3789,-8.248047 34.520777,34.520777 0 0 0 -34.5195,34.521489 34.520777,34.520777 0 0 0 1.2597,9.23828 34.520777,34.520777 0 0 0 -10.8183,-1.76563 34.520777,34.520777 0 0 0 -34.5215,34.51953 34.520777,34.520777 0 0 0 2.3828,12.58985 34.520777,34.520777 0 0 0 -27.9726,33.86523 34.520777,34.520777 0 0 0 1.705,10.58008 34.520777,34.520777 0 0 0 -18.8066,30.73437 34.520777,34.520777 0 0 0 10.4531,24.69922 34.520777,34.520777 0 0 0 -21.6621,32.01953 34.520777,34.520777 0 0 0 15.4453,28.7461 34.520777,34.520777 0 0 0 -14.4668,28.04687 34.520777,34.520777 0 0 0 16.3653,29.31055 34.520777,34.520777 0 0 0 -9.9102,24.16406 34.520777,34.520777 0 0 0 22.1035,32.16992 34.520777,34.520777 0 0 0 -5.9414,19.34766 34.520777,34.520777 0 0 0 33.4883,34.4707 34.520777,34.520777 0 0 0 -4.9434,17.71875 34.520777,34.520777 0 0 0 34.5215,34.51953 34.520777,34.520777 0 0 0 0.5137,-0.0176 34.520777,34.520777 0 0 0 -0.043,0.84961 34.520777,34.520777 0 0 0 34.5215,34.51953 34.520777,34.520777 0 0 0 9.4258,-1.32227 34.520777,34.520777 0 0 0 32.2773,22.32227 34.520777,34.520777 0 0 0 16.9727,-4.50977 34.520777,34.520777 0 0 0 30.3906,18.21094 34.520777,34.520777 0 0 0 30.7207,-18.78125 277.48325,277.48325 0 0 0 41.0762,5.29101 34.520777,34.520777 0 0 0 30.3555,18.09571 34.520777,34.520777 0 0 0 27.0918,-13.19141 34.520777,34.520777 0 0 0 25.3964,11.18945 34.520777,34.520777 0 0 0 33.0567,-24.62695 34.520777,34.520777 0 0 0 18.4648,5.39844 34.520777,34.520777 0 0 0 34.4707,-33.53125 34.520777,34.520777 0 0 0 20.3418,6.67578 34.520777,34.520777 0 0 0 34.5215,-34.52148 34.520777,34.520777 0 0 0 -0.3574,-4.66797 34.520777,34.520777 0 0 0 12.9336,2.54101 34.520777,34.520777 0 0 0 34.5215,-34.52148 34.520777,34.520777 0 0 0 -1.416,-9.70899 34.520777,34.520777 0 0 0 8.3515,1.06836 34.520777,34.520777 0 0 0 34.5195,-34.51953 34.520777,34.520777 0 0 0 -11.0957,-25.29687 34.520777,34.520777 0 0 0 30.1739,-34.20313 34.520777,34.520777 0 0 0 -6.5547,-20.16601 34.520777,34.520777 0 0 0 13.1933,-27.13477 34.520777,34.520777 0 0 0 -7.4785,-21.45508 34.520777,34.520777 0 0 0 16.9746,-29.68359 34.520777,34.520777 0 0 0 -20.6523,-31.58984 34.520777,34.520777 0 0 0 5.6113,-18.81055 34.520777,34.520777 0 0 0 -34.5215,-34.52149 34.520777,34.520777 0 0 0 -4.623,0.35157 34.520777,34.520777 0 0 0 12.0683,-26.16797 34.520777,34.520777 0 0 0 -34.5214,-34.51953 34.520777,34.520777 0 0 0 -0.8457,0.0293 34.520777,34.520777 0 0 0 2.8593,-13.7207 34.520777,34.520777 0 0 0 -30.6738,-34.28711 34.520777,34.520777 0 0 0 1.9199,-11.23633 34.520777,34.520777 0 0 0 -34.5195,-34.521482 34.520777,34.520777 0 0 0 -22.8086,8.666016 34.520777,34.520777 0 0 0 -34.3887,-31.689453 34.520777,34.520777 0 0 0 -23.4336,9.214843 34.520777,34.520777 0 0 0 -34.0937,-29.255859 34.520777,34.520777 0 0 0 -29.1445,16.095703 34.520777,34.520777 0 0 0 -33.1055,-24.808594 z m 242.8594,214.203126 a 34.520777,34.520777 0 0 0 -0.8692,0.82422 277.48325,277.48325 0 0 0 -0.3027,-0.67578 34.520777,34.520777 0 0 0 1.1719,-0.14844 z"
       transform="matrix(0.26458333,0,0,0.26458333,0,11.249983)"
       id="circle4371"
       inkscape:connector-curvature="0" />
    <path
       style="fill:url(#radialGradient4460);fill-opacity:1;stroke:none;stroke-width:0.99999994px;stroke-linecap:butt;stroke-linejoin:miter;stroke-opacity:1"
       d="m 1690.4219,635.88672 c -46.6169,0.22474 -89.2769,4.50954 -154.1485,14.39062 0,0 41.1211,7.28761 87.3946,71.61524 -5.2865,8.15765 -10.267,16.69779 -15.3262,25.21875 -22.3929,40.90299 21.3498,67.86709 63.3848,77.4375 42.0348,9.57044 91.1812,-11.66465 183.1132,-66.0293 -25.8243,-23.06225 -48.8504,-47.15266 -74.1503,-64.78515 29.0046,-20.07149 51.8611,-34.83854 87.623,-47.87891 -80.6992,-6.35781 -131.2737,-10.19349 -177.8906,-9.96875 z"
       transform="matrix(0.26458333,0,0,0.26458333,0,11.249983)"
       id="path4348"
       inkscape:connector-curvature="0" />
    <path
       inkscape:connector-curvature="0"
       style="fill:url(#linearGradient4468);fill-opacity:1;stroke:none;stroke-width:0.90469491px;stroke-linecap:butt;stroke-linejoin:miter;stroke-opacity:1"
       d="m 451.46921,172.62363 c -3.29112,-0.13978 -12.72479,4.90203 -12.72479,4.90203 0,0 2.50204,6.50944 3.20704,11.71711 -0.16803,1.05744 -0.79541,1.50268 -0.90744,2.32441 0.76854,3.86385 0.79934,3.84024 2.68357,5.05189 2.05832,1.32362 7.51861,-0.49535 8.79117,-0.63304 3.91544,-0.42365 5.09696,-3.41807 5.45135,-5.00486 0.58227,0.16487 0.65114,0.3669 0.65114,0.3669 0,0 -5.48326,-15.19315 -6.05441,-18.04903 -0.0892,-0.44623 -0.48816,-0.64952 -1.09763,-0.67541 z"
       id="path4612" />
    <path
       style="fill:#e9c6af;stroke:none;stroke-width:0.90469491px;stroke-linecap:butt;stroke-linejoin:miter;stroke-opacity:1"
       d="m 417.30209,138.96052 c 0,0 0,22.61736 9.04695,31.66433 9.04695,9.04694 18.0939,9.04694 18.0939,9.04694 0,0 5.82191,0.28348 14.2074,-7.33381 12.07236,-10.96641 17.45692,-42.4244 17.45692,-42.4244 0,0 0,-22.61744 -36.18779,-22.6174 -22.61737,3e-5 -22.61738,31.66434 -22.61738,31.66434 z"
       id="path4487"
       inkscape:connector-curvature="0"
       sodipodi:nodetypes="cccscsc" />
    <ellipse
       ry="9.0469494"
       rx="7.8353043"
       cy="134.43707"
       cx="456.80176"
       id="ellipse4497"
       style="fill:#ffffff;fill-opacity:1;stroke:none;stroke-width:3.67439556;stroke-linecap:round;stroke-linejoin:round;stroke-miterlimit:4;stroke-dasharray:none;stroke-opacity:1;paint-order:stroke fill markers" />
    <path
       sodipodi:nodetypes="ccc"
       style="fill:none;fill-opacity:1;stroke:#d6ada7;stroke-width:0.60180026;stroke-linecap:butt;stroke-linejoin:miter;stroke-miterlimit:4;stroke-dasharray:none;stroke-opacity:1"
       d="m 437.133,137.54046 c 0,0 0.97379,1.31614 -1.55525,7.55176 6.7106,-2.59037 9.00015,-0.70652 9.00015,-0.70652"
       id="path4489"
       inkscape:connector-curvature="0" />
    <ellipse
       ry="10.116602"
       rx="5.5776796"
       cy="171.18631"
       cx="412.14908"
       id="ellipse4499"
       style="fill:#ffffff;fill-opacity:1;stroke:none;stroke-width:4.01510286;stroke-linecap:round;stroke-linejoin:round;stroke-miterlimit:4;stroke-dasharray:none;stroke-opacity:1;paint-order:stroke fill markers"
       transform="rotate(-4.4885585)" />
    <ellipse
       style="fill:#aad400;fill-opacity:1;stroke:none;stroke-width:3.0854125;stroke-linecap:round;stroke-linejoin:round;stroke-miterlimit:4;stroke-dasharray:none;stroke-opacity:1;paint-order:stroke fill markers"
       id="path4491"
       cx="410.78171"
       cy="171.52698"
       rx="4.2279816"
       ry="7.8811269"
       transform="rotate(-4.4885585)" />
    <ellipse
       style="fill:#aad400;fill-opacity:1;stroke:none;stroke-width:3.17986155;stroke-linecap:round;stroke-linejoin:round;stroke-miterlimit:4;stroke-dasharray:none;stroke-opacity:1;paint-order:stroke fill markers"
       id="path4493"
       cx="443.32217"
       cy="170.1754"
       rx="6.3100376"
       ry="8.4133835"
       transform="rotate(-4.4885585)" />
    <path
       sodipodi:nodetypes="ccccc"
       style="fill:#9f0202;fill-opacity:1;stroke:#9f0202;stroke-width:1.0116601px;stroke-linecap:butt;stroke-linejoin:miter;stroke-opacity:1"
       d="m 448.76705,134.35515 c 0,0 0.73482,-8.52923 8.18514,-8.84228 7.45031,-0.31292 8.06388,8.83561 8.06388,8.83561 0,0 0.1809,-10.57008 -7.55985,-9.91712 -7.74076,0.65291 -8.68917,9.92379 -8.68917,9.92379 z"
       id="path4505"
       inkscape:connector-curvature="0" />
    <path
       style="fill:#d5f6ff;fill-opacity:1;stroke:#9f0202;stroke-width:1.0116601px;stroke-linecap:butt;stroke-linejoin:miter;stroke-opacity:1"
       d="m 465.28334,133.71372 1.29993,0.30474"
       id="path4507"
       inkscape:connector-curvature="0"
       sodipodi:nodetypes="cc" />
    <path
       inkscape:connector-curvature="0"
       id="path4509"
       d="m 418.54031,137.38382 c 0,0 0.66103,-8.34644 5.78634,-8.47697 5.12531,-0.13041 5.64188,8.40663 5.64188,8.40663 0,0 -0.46247,-10.07746 -5.77958,-9.61477 -5.3171,0.46265 -5.64864,9.68511 -5.64864,9.68511 z"
       style="fill:#9f0202;fill-opacity:1;stroke:#9f0202;stroke-width:0.83854395px;stroke-linecap:butt;stroke-linejoin:miter;stroke-opacity:1"
       sodipodi:nodetypes="ccccc" />
    <path
       sodipodi:nodetypes="cc"
       inkscape:connector-curvature="0"
       id="path4511"
       d="m 417.40419,136.6802 0.90303,0.33588"
       style="fill:#d5f6ff;fill-opacity:1;stroke:#9f0202;stroke-width:0.83854395px;stroke-linecap:butt;stroke-linejoin:miter;stroke-opacity:1" />
    <path
       style="fill:#9f0202;fill-opacity:1;stroke:none;stroke-width:1.0116601px;stroke-linecap:butt;stroke-linejoin:miter;stroke-opacity:1"
       d="m 433.60944,120.51498 c -6.58826,1.46145 -7.93343,0.46323 -13.93133,-2.81453 0,0 2.16909,5.5958 7.4954,6.52309 5.3263,0.92725 6.43592,-3.70856 6.43592,-3.70856 z"
       id="path4513"
       inkscape:connector-curvature="0"
       sodipodi:nodetypes="ccscc" />
    <path
       sodipodi:nodetypes="ccscc"
       inkscape:connector-curvature="0"
       id="path4515"
       d="m 445.77189,120.71758 c 6.73557,0.41548 7.90859,-0.78038 13.3215,-4.95391 0,0 -1.26935,5.86569 -6.38573,7.61274 -5.11636,1.74704 -6.93577,-2.65887 -6.93577,-2.65887 z"
       style="fill:#9f0202;fill-opacity:1;stroke:none;stroke-width:1.0116601px;stroke-linecap:butt;stroke-linejoin:miter;stroke-opacity:1" />
    <path
       style="fill:none;fill-opacity:1;stroke:#d6ada7;stroke-width:1.46500003;stroke-linecap:round;stroke-linejoin:miter;stroke-miterlimit:4;stroke-dasharray:none;stroke-opacity:1;paint-order:stroke fill markers"
       d="m 443.92467,169.12916 c 0,0 2.97658,0.33073 6.09488,-2.03163"
       id="path4520"
       inkscape:connector-curvature="0"
       sodipodi:nodetypes="cc" />
    <circle
       style="fill:#9f0202;stroke:#9f0202;stroke-width:1.26499999;stroke-linejoin:bevel;paint-order:markers fill stroke"
       id="path4310"
       cx="421.98361"
       cy="106.86382"
       r="11.683645" />
    <circle
       style="fill:#9f0202;stroke:#9f0202;stroke-width:1.26499999;stroke-linejoin:bevel;paint-order:markers fill stroke"
       id="path4312"
       cx="434.85587"
       cy="107.02563"
       r="8.1277084" />
    <circle
       style="fill:#9f0202;stroke:#9f0202;stroke-width:1.26499999;stroke-linejoin:bevel;paint-order:markers fill stroke"
       id="path4314"
       cx="478.21173"
       cy="128.74207"
       r="6.3562641" />
    <circle
       style="fill:#9f0202;stroke:#9f0202;stroke-width:1.26499999;stroke-linejoin:bevel;paint-order:markers fill stroke"
       id="path4316"
       cx="462.54279"
       cy="112.56365"
       r="9.1336222" />
    <circle
       style="fill:#9f0202;stroke:#9f0202;stroke-width:1.26499999;stroke-linejoin:bevel;paint-order:markers fill stroke"
       id="path4318"
       cx="474.68893"
       cy="118.48638"
       r="7.5242634" />
    <circle
       style="fill:#9f0202;stroke:#9f0202;stroke-width:1.26499999;stroke-linejoin:bevel;paint-order:markers fill stroke"
       id="path4320"
       cx="448.28644"
       cy="109.22304"
       r="6.4450064" />
  </g>
  <g
     inkscape:groupmode="layer"
     id="layer3"
     inkscape:label="Body"
     transform="translate(-373.7348,-5.5702025)">
    <path
       style="display:inline;fill:#ffcc00;fill-opacity:1;stroke:none;stroke-width:0.32034388px;stroke-linecap:butt;stroke-linejoin:miter;stroke-opacity:1"
       d="m 406.32831,268.13041 c 0,0 -8.29833,18.73036 -11.85885,21.22763 -0.27488,0.1928 -0.57635,0.38253 -0.89763,0.56846 -0.7747,0.17311 -3.63183,0.76443 -5.48751,0.43873 -1.34766,-0.23654 -3.23249,-1.15681 -4.4478,-1.80816 -6.39075,2.73608 -4.18272,9.53251 0.81444,9.69242 -0.54478,12.33578 17.51726,15.17336 20.32743,-1.51825 1.10159,-2.58318 6.94582,-10.64329 6.94582,-10.64329 z"
       id="path4357"
       inkscape:connector-curvature="0"
       sodipodi:nodetypes="ccccccccc" />
    <path
       id="path4360"
       d="m 476.23196,281.16565 c 0,0 -1.48668,7.39095 -3.97582,10.95716 -0.19216,0.27533 -0.41036,0.55688 -0.64847,0.84164 -0.66847,0.42812 -3.14996,1.96274 -5.00489,2.29268 -1.34712,0.23962 -3.43319,0.021 -4.79812,-0.17446 -5.06616,4.76044 -0.66277,10.38867 4.08661,8.82644 3.71554,11.77551 21.65631,8.25161 18.5763,-8.39231 0.14966,-2.80427 2.8779,-12.37909 2.8779,-12.37909 z"
       style="display:inline;fill:#ffcc00;fill-opacity:1;stroke:none;stroke-width:0.32034388px;stroke-linecap:butt;stroke-linejoin:miter;stroke-opacity:1"
       inkscape:connector-curvature="0" />
    <path
       style="fill:url(#linearGradient4486);fill-opacity:1;stroke:none;stroke-width:2.7959013px;stroke-linecap:butt;stroke-linejoin:miter;stroke-opacity:1"
       d="m 1842.6289,751.60938 c -14.977,0.12186 -34.9944,50.29017 -34.9944,50.29017 14.6464,89.86281 19.6329,186.54712 -16.2986,280.50865 -8.8226,20.4746 49.0402,17.0717 48.9161,1.1426 -0.034,-4.3182 5.1917,-23.8757 11.7968,-51.5645 l 39.6094,29.6016 -26.5977,-89.1172 c 14.1494,-72.74279 24.0152,-161.98731 -4.3886,-206.31445 -7.5675,-10.56396 -13.4582,-14.58418 -18.043,-14.54687 z"
       transform="scale(0.26458333)"
       id="path4640"
       inkscape:connector-curvature="0"
       sodipodi:nodetypes="ccccccccc" />
    <path
       style="fill:url(#linearGradient4478);fill-opacity:1;stroke:none;stroke-width:1.12027133px;stroke-linecap:butt;stroke-linejoin:miter;stroke-opacity:1"
       d="m 1627.8613,783.37109 c -5.1889,-0.0449 -12.4824,2.37254 -22.5312,8.27539 -37.4349,52.58897 -53.9645,111.75192 -61.4629,162.92579 l -43.0625,103.16403 36.75,-21.8515 c -0.5719,23.3491 -0.4127,39.8134 -2.7246,44.9101 -8.048,17.7414 50.1458,-3.8141 50.4511,-31.0781 C 1585.5867,1022.453 1629,840.95703 1629,840.95703 c 0,0 23.8628,-57.36973 -1.1387,-57.58594 z"
       transform="scale(0.26458333)"
       id="path4344"
       inkscape:connector-curvature="0" />
    <path
       style="fill:url(#linearGradient4369);fill-opacity:1;stroke:none;stroke-width:3.41931939px;stroke-linecap:butt;stroke-linejoin:miter;stroke-opacity:1"
       d="m 1670.3677,672.72865 c -46.7746,1.60146 -66.6405,28.96404 -92.0259,70.81237 -1.0452,1.90924 -1.8783,3.79521 -2.5176,5.6582 -3.035,1.95139 -4.8926,3.30273 -4.8926,3.30273 l -59.7168,110.98438 25.1719,-11.79688 -11.4414,21.26563 27.3106,-12.79883 -11.8887,37.11523 56.9043,-40.7832 c 2.5722,9.18075 4.8026,18.26312 6.3125,27.13086 0,0 11.2261,26.76924 -9.4981,72.53516 -20.7242,45.7662 -37.9629,125.123 -37.9629,125.123 0,0 -17.1467,183.2117 -13.1093,212.9141 4.469,32.8789 47.5824,265.0294 68.1914,271.2617 20.6089,6.2322 44.0566,6.1297 43.1953,-10.9219 -0.8615,-17.0515 -18.7263,-233.4056 -25.877,-265.2246 -4.41,-19.6233 9.5407,-87.4339 20.8828,-136.5312 1.2676,-5.487 6.6843,-11.275 14.6915,-17.0801 1.9623,45.1393 5.2473,120.1671 6.3847,141.1719 1.6153,29.8301 32.4088,285.5327 52.7364,290.7656 20.3275,5.2327 43.6666,3.949 43.3105,-13.166 -0.3564,-17.1152 1.4139,-221.8749 -4.7676,-253.5332 -6.1815,-31.6583 29.5742,-218.5254 29.5742,-218.5254 0,0 -25.6864,-103.78578 -30.0039,-122.7832 -7.0518,-42.88529 18.706,-86.23309 46.334,-126.98438 l 56.8301,73.90821 -0.5762,-34.78516 20.0332,17.98828 -4.2871,-21.12109 18.4629,16.57617 -22.3711,-110.25391 c -45.1107,-36.22653 -93.7729,-90.62762 -144.1777,-107.30859 -8.4642,-2.62152 -76.418,89.19336 -76.418,89.19336 -4.8194,-29.79417 5.5632,-51.81481 15.2056,-84.10924 z"
       transform="scale(0.26458333)"
       id="path4617"
       inkscape:connector-curvature="0"
       sodipodi:nodetypes="cccccccccccccccccccsccscccccccccccc" />
    <g
       id="g4373"
       style="fill:url(#linearGradient4381);fill-opacity:1">
      <path
         sodipodi:nodetypes="cccccsscccc"
         inkscape:connector-curvature="0"
         id="path4302"
         d="m 399.4983,432.93576 c 3.26033,0.26376 23.98952,0.85098 25.04943,0.0911 3.18703,-5.85805 5.33082,0.42364 5.95722,0.33157 0.9117,-0.17952 9.18041,0.0998 9.28165,-1.16455 0.10128,-1.2644 1.95828,-19.12766 0.61953,-21.59468 -0.19929,-0.36723 -4.37894,-43.6902 -6.21295,-46.97211 -6.88416,-12.31892 -19.52234,1.65159 -22.8398,2.75062 -1.7364,0.57525 11.73217,44.52723 12.2618,46.60989 -4.13168,11.85644 -20.75499,12.99674 -29.94212,8.93278 -2.06452,5.24443 3.45179,10.65953 5.82524,11.01529 z"
         style="fill:url(#linearGradient4331);fill-opacity:1;stroke:none;stroke-width:0.19860585px;stroke-linecap:butt;stroke-linejoin:miter;stroke-opacity:1" />
      <path
         style="fill:url(#linearGradient4333);fill-opacity:1;stroke:none;stroke-width:0.19860585px;stroke-linecap:butt;stroke-linejoin:miter;stroke-opacity:1"
         d="m 460.43306,434.06428 c 0.91172,-0.1795 9.98567,-0.60597 10.08693,-1.87035 0.10126,-1.26441 1.95826,-19.12767 0.6195,-21.59469 -0.19927,-0.36722 -1.18762,-42.61834 -3.02164,-45.90025 -6.88415,-12.31891 -19.52231,1.65159 -22.83977,2.75063 -1.73641,0.57523 6.91981,43.9765 7.44945,46.05917 -10.01805,24.82639 -10.33991,17.61526 7.70553,20.55549 z"
         id="path4306"
         inkscape:connector-curvature="0"
         sodipodi:nodetypes="cccsscc" />
    </g>
  </g>
  <g
     inkscape:groupmode="layer"
     id="layer2"
     inkscape:label="Decor"
     style="display:inline;opacity:0.18600003"
     transform="translate(-373.7348,-16.820185)">
    <ellipse
       style="fill:url(#radialGradient4424);fill-opacity:1;stroke:none;stroke-width:0.60180026;stroke-linecap:round;stroke-linejoin:round;stroke-miterlimit:4;stroke-dasharray:none;stroke-opacity:0.52173911;paint-order:stroke fill markers"
       id="path4577"
       cx="420.99524"
       cy="236.96269"
       rx="6.1686893"
       ry="2.7987573"
       transform="rotate(-11.085754)" />
    <ellipse
       style="fill:url(#radialGradient4432);fill-opacity:1;stroke:none;stroke-width:0.60180026;stroke-linecap:round;stroke-linejoin:round;stroke-miterlimit:4;stroke-dasharray:none;stroke-opacity:0.52173911;paint-order:stroke fill markers"
       id="path4579"
       cx="401.47467"
       cy="214.28578"
       rx="4.2838125"
       ry="2.5131698"
       transform="rotate(-8.0315364)" />
    <path
       sodipodi:type="star"
       style="fill:#d5f6ff;fill-opacity:1;stroke:#d5f6ff;stroke-width:2.79654694;stroke-linecap:round;stroke-linejoin:round;stroke-miterlimit:4;stroke-dasharray:none;stroke-dashoffset:0;stroke-opacity:1;paint-order:stroke fill markers"
       id="path4559"
       sodipodi:sides="5"
       sodipodi:cx="422.28503"
       sodipodi:cy="139.69797"
       sodipodi:r1="1.6630236"
       sodipodi:r2="1.3454144"
       sodipodi:arg1="1.0040671"
       sodipodi:arg2="1.6323856"
       inkscape:flatsided="true"
       inkscape:rounded="0"
       inkscape:randomized="0"
       d="m 423.17787,141.101 -1.95129,-0.12033 -0.48855,-1.89298 1.64936,-1.04959 1.50791,1.24429 z"
       inkscape:transform-center-x="-0.031613096"
       inkscape:transform-center-y="-0.12842675" />
    <path
       sodipodi:type="star"
       style="fill:#d5f6ff;fill-opacity:1;stroke:#d5f6ff;stroke-width:3.2186079;stroke-linecap:round;stroke-linejoin:round;stroke-miterlimit:4;stroke-dasharray:none;stroke-dashoffset:0;stroke-opacity:1;paint-order:stroke fill markers"
       id="path4561"
       sodipodi:sides="5"
       sodipodi:cx="453.9686"
       sodipodi:cy="136.36549"
       sodipodi:r1="2.567915"
       sodipodi:r2="2.077487"
       sodipodi:arg1="1.0303768"
       sodipodi:arg2="1.6586954"
       inkscape:flatsided="true"
       inkscape:rounded="0"
       inkscape:randomized="0"
       d="m 455.28978,138.56746 -3.00711,-0.265 -0.67722,-2.94183 2.58857,-1.55314 2.27704,1.98193 z"
       inkscape:transform-center-x="-0.069643878"
       inkscape:transform-center-y="-0.17802219" />
  </g>
</svg>
