<?xml version="1.0" encoding="UTF-8" standalone="no"?>
<!-- Created with Inkscape (http://www.inkscape.org/) -->

<svg
   xmlns:dc="http://purl.org/dc/elements/1.1/"
   xmlns:cc="http://creativecommons.org/ns#"
   xmlns:rdf="http://www.w3.org/1999/02/22-rdf-syntax-ns#"
   xmlns:svg="http://www.w3.org/2000/svg"
   xmlns="http://www.w3.org/2000/svg"
   xmlns:sodipodi="http://sodipodi.sourceforge.net/DTD/sodipodi-0.dtd"
   xmlns:inkscape="http://www.inkscape.org/namespaces/inkscape"
   width="431.60144"
   height="952.15955"
   viewBox="0 0 114.19455 251.92555"
   version="1.1"
   id="svg8"
   inkscape:version="0.92+devel unknown"
   sodipodi:docname="matt visual machine.svg"
   inkscape:export-filename="/home/mbrickn/Projects/Operation-Ohio/game/images/characters/matt visual/matt visual machine.png"
   inkscape:export-xdpi="90"
   inkscape:export-ydpi="90">
  <title
     id="title4338">Matt Visual Machine</title>
  <defs
     id="defs2" />
  <sodipodi:namedview
     id="base"
     pagecolor="#ffffff"
     bordercolor="#666666"
     borderopacity="1.0"
     inkscape:pageopacity="0.0"
     inkscape:pageshadow="2"
     inkscape:zoom="0.49497475"
     inkscape:cx="113.61994"
     inkscape:cy="619.40781"
     inkscape:document-units="mm"
     inkscape:current-layer="g4585"
     showgrid="false"
     inkscape:window-width="1440"
     inkscape:window-height="863"
     inkscape:window-x="0"
     inkscape:window-y="0"
     inkscape:window-maximized="1"
     fit-margin-top="0"
     fit-margin-left="0"
     fit-margin-right="0"
     fit-margin-bottom="0"
     units="px"
     inkscape:document-rotation="0">
    <inkscape:grid
       type="xygrid"
       id="grid4485"
       originx="-468.4916"
       originy="-50.374927" />
  </sodipodi:namedview>
  <metadata
     id="metadata5">
    <rdf:RDF>
      <cc:Work
         rdf:about="">
        <dc:format>image/svg+xml</dc:format>
        <dc:type
           rdf:resource="http://purl.org/dc/dcmitype/StillImage" />
        <dc:title>Matt Visual Machine</dc:title>
        <cc:license
           rdf:resource="http://creativecommons.org/licenses/by/4.0/" />
        <dc:creator>
          <cc:Agent>
            <dc:title>Maxwell Paul Brickner</dc:title>
          </cc:Agent>
        </dc:creator>
      </cc:Work>
      <cc:License
         rdf:about="http://creativecommons.org/licenses/by/4.0/">
        <cc:permits
           rdf:resource="http://creativecommons.org/ns#Reproduction" />
        <cc:permits
           rdf:resource="http://creativecommons.org/ns#Distribution" />
        <cc:requires
           rdf:resource="http://creativecommons.org/ns#Notice" />
        <cc:requires
           rdf:resource="http://creativecommons.org/ns#Attribution" />
        <cc:permits
           rdf:resource="http://creativecommons.org/ns#DerivativeWorks" />
      </cc:License>
    </rdf:RDF>
  </metadata>
  <g
     inkscape:label="Layer 1"
     inkscape:groupmode="layer"
     id="layer1"
     transform="translate(-468.49159,5.3004777)">
    <flowRoot
       xml:space="preserve"
       id="flowRoot4535"
       style="font-style:normal;font-weight:normal;font-size:2.66666675px;line-height:25px;font-family:sans-serif;letter-spacing:0px;word-spacing:0px;fill:#000000;fill-opacity:1;stroke:none;stroke-width:1px;stroke-linecap:butt;stroke-linejoin:miter;stroke-opacity:1"
       transform="scale(0.26458333)"><flowRegion
         id="flowRegion4537"><rect
           id="rect4539"
           width="20"
           height="10"
           x="140"
           y="732.51971" /></flowRegion><flowPara
         id="flowPara4541">MA</flowPara></flowRoot>    <g
       id="g4591"
       transform="matrix(10.708396,0,0,10.708396,-653.72898,-2126.9569)">
      <g
         id="g4585"
         transform="matrix(1.6920219,0,0,1.6179125,-8.9603125,-132.93945)">
        <path
           sodipodi:nodetypes="cccccccc"
           style="fill:#ff6600;stroke:#000000;stroke-width:0.26458332px;stroke-linecap:butt;stroke-linejoin:miter;stroke-opacity:1"
           d="m 67.468749,217.71227 c 0,0 0.02967,1.04054 2.76229,1.32292 -0.01299,0.0261 3.171238,-0.49408 3.171238,-0.49408 l -0.02707,-12.08209 -3.008572,-1.43537 c 0,0 -1.90699,-0.95993 -2.897885,0.78237 -0.234373,-0.56422 0,11.90625 0,11.90625 z"
           id="path4487"
           inkscape:connector-curvature="0" />
        <path
           sodipodi:nodetypes="ccc"
           style="fill:none;stroke:#000000;stroke-width:0.26458332px;stroke-linecap:butt;stroke-linejoin:miter;stroke-opacity:1"
           d="m 67.46875,205.71875 c 1.039075,-1.06366 1.548481,-0.97759 2.897885,-0.78237 l 3.008572,1.43537"
           id="path4489"
           inkscape:connector-curvature="0" />
        <path
           style="fill:none;stroke:#000000;stroke-width:0.19116166px;stroke-linecap:butt;stroke-linejoin:miter;stroke-opacity:1"
           d="m 70.366635,204.93638 v 0 l -0.135596,14.01154"
           id="path4491"
           inkscape:connector-curvature="0"
           sodipodi:nodetypes="ccc" />
        <g
           transform="matrix(-0.42240511,-0.12886979,0,0.80919366,88.546328,60.164441)"
           id="g4571">
          <path
             inkscape:connector-curvature="0"
             id="path4539"
             d="m 36.644767,199.23647 c 0,0 0,1.19061 1.190625,1.19061 1.190625,0 3.571879,0 3.571879,0 0,0 1.190625,0 1.190625,-1.19061 0,-1.19066 0,-9.52503 0,-9.52503 0,0 0,-1.19061 -1.190625,-1.19061 -1.190625,0 -3.571879,0 -3.571879,0 0,0 -1.190625,0 -1.190625,1.19061 0,1.19062 0,9.52503 0,9.52503 z"
             style="fill:#d38d5f;stroke:none;stroke-width:1.19062626px;stroke-linecap:butt;stroke-linejoin:miter;stroke-opacity:1" />
          <path
             inkscape:connector-curvature="0"
             id="path4541"
             d="m 36.644767,193.28332 c 0,0 1.190625,0 1.190625,-1.19061 0,-1.19065 0,-2.38127 1.190625,-2.38127 1.190629,0 1.190629,0 1.190629,0 v -1.19061 h -2.381254 c 0,0 -1.190625,0 -1.190625,1.19061 0,1.19062 0,3.57188 0,3.57188 z"
             style="fill:#232323;fill-opacity:1;stroke:none;stroke-width:1.19062626px;stroke-linecap:butt;stroke-linejoin:miter;stroke-opacity:1" />
          <path
             style="fill:#232323;fill-opacity:1;stroke:none;stroke-width:1.19062626px;stroke-linecap:butt;stroke-linejoin:miter;stroke-opacity:1"
             d="m 42.5979,193.28332 c 0,0 -1.190625,0 -1.190625,-1.19061 0,-1.19065 0,-2.38127 -1.190624,-2.38127 -1.19063,0 -1.19063,0 -1.19063,0 v -1.19061 h 2.381254 c 0,0 1.190625,0 1.190625,1.19061 0,1.19062 0,3.57188 0,3.57188 z"
             id="path4543"
             inkscape:connector-curvature="0" />
          <path
             inkscape:connector-curvature="0"
             id="path4545"
             d="m 37.835392,196.8552 c 0,0 0,2.38127 1.190625,2.38127 1.190629,0 1.190629,0 1.190629,0 0,0 1.190625,0 1.190625,-2.38127"
             style="fill:none;stroke:#232323;stroke-width:0.74250084;stroke-linecap:butt;stroke-linejoin:miter;stroke-miterlimit:4;stroke-dasharray:none;stroke-opacity:1" />
          <g
             style="fill:#ff6600"
             transform="matrix(4.500005,0,0,4.500005,-207.07913,-743.16773)"
             id="g4551">
            <path
               sodipodi:type="star"
               style="opacity:0.98999999;fill:#ff6600;fill-opacity:1;stroke:none;stroke-width:0.05;stroke-linecap:round;stroke-linejoin:round;stroke-miterlimit:4;stroke-dasharray:none;stroke-dashoffset:0;stroke-opacity:1;paint-order:stroke markers fill"
               id="path4547"
               sodipodi:sides="5"
               sodipodi:cx="54.504166"
               sodipodi:cy="207.91318"
               sodipodi:r1="0.26458332"
               sodipodi:r2="0.13229167"
               sodipodi:arg1="0"
               sodipodi:arg2="0.62831853"
               inkscape:flatsided="false"
               inkscape:rounded="0"
               inkscape:randomized="0"
               d="m 54.768749,207.91318 -0.157557,0.0778 -0.02527,0.17387 -0.122641,-0.12582 -0.173172,0.0297 0.08176,-0.15552 -0.08176,-0.15552 0.173172,0.0297 0.122641,-0.12582 0.02527,0.17388 z"
               inkscape:transform-center-x="-0.025264773"
               inkscape:transform-center-y="-2.6183989e-06" />
            <path
               sodipodi:type="star"
               style="opacity:0.98999999;fill:#ff6600;fill-opacity:1;stroke:none;stroke-width:0.05;stroke-linecap:round;stroke-linejoin:round;stroke-miterlimit:4;stroke-dasharray:none;stroke-dashoffset:0;stroke-opacity:1;paint-order:stroke markers fill"
               id="path4549"
               sodipodi:sides="5"
               sodipodi:cx="55.140362"
               sodipodi:cy="207.91318"
               sodipodi:r1="0.26458332"
               sodipodi:r2="0.13229167"
               sodipodi:arg1="3.1415927"
               sodipodi:arg2="3.7699112"
               inkscape:flatsided="false"
               inkscape:rounded="0"
               inkscape:randomized="0"
               d="m 54.875778,207.91318 0.157558,-0.0778 0.02527,-0.17388 0.122641,0.12582 0.173172,-0.0297 -0.08176,0.15552 0.08176,0.15552 -0.173172,-0.0297 -0.122641,0.12582 -0.02527,-0.17387 z"
               inkscape:transform-center-x="0.025266156"
               inkscape:transform-center-y="-2.6217322e-06" />
          </g>
        </g>
        <g
           aria-label="The Honorary Matt Visual  Ginger Ale Machine    Refresh Yourself "
           transform="matrix(0.01460266,-0.00332566,0,0.01527155,44.974063,206.34482)"
           style="font-style:normal;font-weight:normal;font-size:40px;line-height:1.25;font-family:sans-serif;text-align:center;letter-spacing:0px;word-spacing:0px;text-anchor:middle;fill:#232323;fill-opacity:1;stroke:none"
           id="flowRoot4587">
          <path
             d="m 1613.0807,360.39688 c 2.72,-3.92001 7.12,-12.48001 10.44,-18.56 l 2.04,-3.76001 c 0.36,-0.67999 2.04,-0.23999 3.32,-0.91999 2.72,-0.32 2.52,-4 4.28,-4.96001 0.8,-0.44 1.16,-0.91999 1.2,-1.44 0.04,-1.12 -1.4,-2.28 -2.92,-2.28 -4.8,0 -12.92,2.36001 -15.88,4.04001 -2.12,1.51999 -3.24,2.67999 -3.36,4.64 -0.08,1.36 1.2,2.03999 2.8,2.03999 0.36,0 0.72,-0.04 1.08,-0.08 -4.24,7.64 -2.84,4.96 -8.96,19.16001 -0.52,1 -0.8,1.83999 -0.84,2.51999 -0.08,1.48001 1.2,2.16001 3,2.16001 1.12,0 2.32,-0.36001 3.8,-2.56 z"
             style="font-style:normal;font-variant:normal;font-weight:normal;font-stretch:normal;font-family:Knewave;-inkscape-font-specification:Knewave;text-align:center;text-anchor:middle;fill:#232323;fill-opacity:1"
             id="path4522"
             inkscape:connector-curvature="0" />
          <path
             d="m 1637.947,343.55687 h -0.04 c 0.48,-0.96 3.24,-6.32 3.84,-7.27999 0.8,-1.28001 3.2,-5.08001 4.28,-7.04001 -0.04,-1.16 -1.48,-1.8 -3.08,-1.8 -2.24,0 -4.84,1.04 -4.96,3.12 0,0.2 0,0.40001 0.04,0.64 l -2.24,2.72 c -3.44,4.12 -9.72,15 -13.16,23.56 -0.16,0.36001 -0.24,0.68001 -0.28,1 -0.08,1.84 1.64,3.24001 3.68,3.24001 0.84,0 1.88,-0.16001 3.44,-1.12001 l 0.36,-0.12 h -0.04 c 1.44,-0.92 1.2,0.6 2.32,-2.24 2.12,-3.44 4.08,-4.71999 6.88,-6 -0.6,1.48001 -0.8,2.52 -0.84,3.56 -0.04,0.8 0.08,1.68 0,2.72001 l 0.24,0.51999 c 0.36,1 2.16,2.6 4.12,2.6 1.12,0 2.16,-0.56 2.48,-2.2 -0.08,-0.64 -0.08,-1.24 -0.08,-1.71999 0.08,-1.56 0.52,-3.52001 1.44,-5.64001 0.6,-1.44 1.24,-2.96 1.32,-4.23999 0.12,-2.16001 -2.28,-3.88 -4.12,-3.88 -1.88,0 -3.88,1.07999 -5.52,2.51999 h 0.04 l -0.76,0.80001 v -0.04 c -0.4,0.4 -0.8,0.84 -1.88,1.60001 0.44,-1.20001 1.4,-3 1.72,-3.80001 z"
             style="font-style:normal;font-variant:normal;font-weight:normal;font-stretch:normal;font-family:Knewave;-inkscape-font-specification:Knewave;text-align:center;text-anchor:middle;fill:#232323;fill-opacity:1"
             id="path4524"
             inkscape:connector-curvature="0" />
          <path
             d="m 1661.2495,353.99687 c 3.76,-1.76 5.08,-2.92 6.76,-7.27999 v 0.04 c 0.32,-1.08 0.48,-1.91999 0.52,-2.64 0.16,-3.08 -1.96,-3.88 -4.2,-3.88 -5.6,0 -9.16,3.08 -12.4,6.68 -2.4,2.68 -4.48,6.64 -4.68,9.92001 -0.16,3.15999 1.44,5.15999 6.68,5.15999 4.32,0 10.08,-1.32 10.2,-3.52 0.08,-1.28 -0.64,-1.28 -0.56,-1.28 -0.32,0 -0.6,0.04 -0.88,-1.03999 -0.4,-0.36001 -1.04,-0.64 -1.56,-0.64 -1.56,0 -3.68,1.27999 -5.16,1.27999 -0.52,0 -1.48,-0.44 -1.52,-1.44 2.16,-0.16 6.2,-1.04 6.8,-1.32 z m -0.28,-6.4 c -0.04,1.2 -2.88,4.16 -5.04,4.16 -0.04,0 -0.12,0 -0.16,0 0.96,-2.2 2.56,-4.52 4.48,-4.52 0.28,0 0.76,0.12 0.72,0.36 z"
             style="font-style:normal;font-variant:normal;font-weight:normal;font-stretch:normal;font-family:Knewave;-inkscape-font-specification:Knewave;text-align:center;text-anchor:middle;fill:#232323;fill-opacity:1"
             id="path4526"
             inkscape:connector-curvature="0" />
          <path
             d="m 1561.9901,402.28094 c 2,-1.08 2.64,-1 4.2,-1.72 l 0.68,-0.32 1.16,-0.28 c -1.72,3.48 -4.8,8.04 -6.24,12.28 -0.2,0.44 -0.28,0.76 -0.32,1.08 -0.04,1.16 1,1.64 2.24,1.64 1.28,0 2.8,-0.52 3.44,-1.36 v 0.04 c 1.04,-1.92 2.36,-0.4 3.56,-3.4 4.4,-11.04 9.44,-20.44 11.92,-24.92 l 1.24,-2.24 c 0.28,-0.48 0.4,-0.88 0.44,-1.24 0.04,-1.08 -1.08,-1.56 -2.48,-1.6 -5.08,0.16 -6,3.2 -10.04,12.52 v -0.04 c -0.04,0.04 -0.08,0.12 -0.08,0.16 l -0.4,0.72 c -0.28,-0.04 -0.56,-0.04 -0.84,-0.04 -1.72,0 -3.12,0.68 -4.76,0.68 -0.12,0 -0.28,-0.04 -0.44,-0.04 2.44,-3.92 4.2,-6.84 6.52,-11 h -0.04 c 0.24,-0.52 0.4,-0.92 0.4,-1.24 0.08,-1 -0.8,-1.44 -2.04,-1.44 -2.6,0 -6.6,1.84 -7.36,4.44 l -1.2,2.12 c -4.12,7.32 -7.64,13.12 -12.4,24.88 -0.12,0.36 -0.24,0.64 -0.24,0.92 -0.08,1.24 1.16,1.84 2.64,1.84 1.76,0 3.84,-0.76 4.64,-2.2 0.56,-0.84 0.96,-1.76 1.44,-2.72 l 0.92,-1.88 3.04,-5.12 z"
             style="font-style:normal;font-variant:normal;font-weight:normal;font-stretch:normal;font-family:Knewave;-inkscape-font-specification:Knewave;text-align:center;text-anchor:middle;fill:#232323;fill-opacity:1"
             id="path4528"
             inkscape:connector-curvature="0" />
          <path
             d="m 1583.7363,394.64094 c -3.44,2 -7.48,9.12 -7.72,13.96 -0.32,5.56 4.56,5.4 8,5.4 1.88,-0.08 4.28,-0.52 6.44,-2.04 4.52,-3.6 7.52,-9.64 7.72,-13.88 0.2,-3.36 -1.44,-5.8 -5.8,-5.8 -0.64,0 -1.52,0.16 -2.24,0.16 -1.12,0 -2.6,0.24 -3.8,2 -0.56,0 -0.8,-0.12 -1.32,-0.12 -0.4,0 -0.84,0.08 -1.28,0.32 z m 5.64,8.04 c -0.2,2.8 -1.84,6.92 -5.52,6.92 -0.92,0 -1.56,0.16 -1.52,-0.84 0.16,-2.64 4.04,-5.08 4.88,-6 0.08,0 0.16,0 0.24,0 0.52,0 1.08,-0.12 1.68,-0.28 z"
             style="font-style:normal;font-variant:normal;font-weight:normal;font-stretch:normal;font-family:Knewave;-inkscape-font-specification:Knewave;text-align:center;text-anchor:middle;fill:#232323;fill-opacity:1"
             id="path4530"
             inkscape:connector-curvature="0" />
          <path
             d="m 1603.6645,396.16094 c -0.84,1.04 -8.08,13.44 -8.24,16.6 -0.08,1.4 2.76,1.68 3.64,1.68 1.92,0 3.92,-0.6 4.28,-1.52 0.52,-1.32 0.68,-0.08 1.96,-1.76 3.72,-4.84 7.84,-11 10,-11 0.4,0 0.64,0.2 0.64,0.8 -0.12,1.12 -1.2,3 -2.88,6.12 l -2.32,4.28 c -0.12,0.24 -0.24,0.48 -0.24,0.64 -0.04,0.76 0.84,1.12 1.96,1.12 4.2,0 7.12,-4.48 8.32,-6.36 0.36,-0.6 0.8,-1.36 1.4,-2.28 v 0.04 c 1.6,-2.92 2.72,-5.76 2.84,-8 0.16,-2.52 -1.04,-4.12 -4.24,-4.12 -3.56,0 -9,2.04 -11.2,4.04 0.04,-0.16 0.08,-0.44 0.08,-0.76 0.04,-0.76 -0.08,-1.76 -1.24,-1.76 -0.52,0 -1.24,0.12 -2.4,0.56 -0.16,-0.12 -0.28,-0.2 -0.4,-0.2 -0.32,0 -0.76,0.4 -1.96,1.88 z"
             style="font-style:normal;font-variant:normal;font-weight:normal;font-stretch:normal;font-family:Knewave;-inkscape-font-specification:Knewave;text-align:center;text-anchor:middle;fill:#232323;fill-opacity:1"
             id="path4532"
             inkscape:connector-curvature="0" />
          <path
             d="m 1631.5488,394.64094 c -3.44,2 -7.48,9.12 -7.72,13.96 -0.32,5.56 4.56,5.4 8,5.4 1.88,-0.08 4.28,-0.52 6.44,-2.04 4.52,-3.6 7.52,-9.64 7.72,-13.88 0.2,-3.36 -1.44,-5.8 -5.8,-5.8 -0.64,0 -1.52,0.16 -2.24,0.16 -1.12,0 -2.6,0.24 -3.8,2 -0.56,0 -0.8,-0.12 -1.32,-0.12 -0.4,0 -0.84,0.08 -1.28,0.32 z m 5.64,8.04 c -0.2,2.8 -1.84,6.92 -5.52,6.92 -0.92,0 -1.56,0.16 -1.52,-0.84 0.16,-2.64 4.04,-5.08 4.88,-6 0.08,0 0.16,0 0.24,0 0.52,0 1.08,-0.12 1.68,-0.28 z"
             style="font-style:normal;font-variant:normal;font-weight:normal;font-stretch:normal;font-family:Knewave;-inkscape-font-specification:Knewave;text-align:center;text-anchor:middle;fill:#232323;fill-opacity:1"
             id="path4534"
             inkscape:connector-curvature="0" />
          <path
             d="m 1649.077,400.12094 c -1.24,2.6 -5.4,10 -5.52,12.28 -0.08,1.36 0.8,1.92 2.08,1.92 2.16,0 5.24,-1.76 6.2,-3.96 2.2,-5.64 5.24,-11.6 8.68,-12.64 2.84,-0.68 4.24,-2.64 4.32,-4 0.04,-0.68 -0.28,-1.2 -0.92,-1.32 0.24,-0.36 0.36,-0.64 0.36,-0.88 0,-0.36 -0.24,-0.52 -0.68,-0.52 -1.6,0 -5.4,1.72 -7,3 0.12,-0.36 0.24,-0.68 0.24,-0.96 0.04,-0.68 -0.32,-1.04 -0.92,-1.04 -1.32,0 -3.32,0.96 -4.56,3.08 z"
             style="font-style:normal;font-variant:normal;font-weight:normal;font-stretch:normal;font-family:Knewave;-inkscape-font-specification:Knewave;text-align:center;text-anchor:middle;fill:#232323;fill-opacity:1"
             id="path4536"
             inkscape:connector-curvature="0" />
          <path
             d="m 1678.647,392.36094 c -0.28,-0.04 -0.6,-0.08 -0.84,-0.08 -3.96,0 -10.88,4.44 -13.84,8.28 -1.84,2.72 -3.12,6.6 -3.2,8.76 -0.2,3.2 2.04,4.24 5.36,4.24 3.48,0 6.48,-1.16 7.44,-2.56 l 0.32,0.2 -0.12,0.4 c -0.08,0.88 1.2,1.4 2.6,1.4 1.6,0 3.28,-0.68 3.44,-2.04 0.88,-3.16 3.56,-10.48 4.12,-13.8 0.04,-1.08 -0.12,-2.6 -1.16,-2.6 -0.08,0 -0.32,0.04 -0.6,0.08 -0.28,0 -0.4,-0.2 -0.4,-0.4 0.08,-1.32 -2.12,-1.68 -3.12,-1.88 z m -9.72,16.32 c -1.28,0 -2.12,-0.96 -2.08,-1.68 0.2,-1.64 3.92,-4.08 7.52,-5.48 l -0.6,1.28 c -1.04,2.24 -2.52,5.92 -4.84,5.88 z"
             style="font-style:normal;font-variant:normal;font-weight:normal;font-stretch:normal;font-family:Knewave;-inkscape-font-specification:Knewave;text-align:center;text-anchor:middle;fill:#232323;fill-opacity:1"
             id="path4538"
             inkscape:connector-curvature="0" />
          <path
             d="m 1687.202,400.12094 c -1.24,2.6 -5.4,10 -5.52,12.28 -0.08,1.36 0.8,1.92 2.08,1.92 2.16,0 5.24,-1.76 6.2,-3.96 2.2,-5.64 5.24,-11.6 8.68,-12.64 2.84,-0.68 4.24,-2.64 4.32,-4 0.04,-0.68 -0.28,-1.2 -0.92,-1.32 0.24,-0.36 0.36,-0.64 0.36,-0.88 0,-0.36 -0.24,-0.52 -0.68,-0.52 -1.6,0 -5.4,1.72 -7,3 0.12,-0.36 0.24,-0.68 0.24,-0.96 0.04,-0.68 -0.32,-1.04 -0.92,-1.04 -1.32,0 -3.32,0.96 -4.56,3.08 z"
             style="font-style:normal;font-variant:normal;font-weight:normal;font-stretch:normal;font-family:Knewave;-inkscape-font-specification:Knewave;text-align:center;text-anchor:middle;fill:#232323;fill-opacity:1"
             id="path4540"
             inkscape:connector-curvature="0" />
          <path
             d="m 1702.372,396.76094 c 0.04,0.28 0.04,0.64 0.04,0.96 -0.16,3.08 -2.36,8.04 -2.52,11.32 -0.16,2.96 1.88,3.92 3.56,3.92 1.16,0 2.28,-0.44 3.52,-1.04 l 0.2,0.24 -0.68,1.04 c -0.84,1.08 -1.56,2.2 -2.28,3.28 l -0.8,1.08 c -0.96,1.24 -1.84,2.48 -1.92,3.68 -0.08,1.84 1.88,3.36 3.52,3.36 2.2,0 3.28,-2.08 3.68,-3.08 0.48,-1.36 1.2,-3.12 5.04,-5.84 0.28,-0.48 0.48,-1 0.48,-1.48 0.04,-0.96 -0.56,-1.84 -1.48,-2.48 l 0.8,-1.28 c 2.64,-4.32 6.84,-10.52 10.16,-13.6 0.88,-0.56 1.44,-1.04 1.48,-1.68 0.08,-1.2 -1.2,-1.96 -2.44,-1.96 -0.4,0 -0.8,0.08 -1.76,0.64 -0.12,0.08 -0.32,0.12 -0.6,0.12 -0.92,0 -2.6,-0.56 -3.32,-0.56 -1.04,0 -3.04,2.72 -3.56,3.48 -2.56,3.04 -4.52,8.32 -8.2,10.4 0.28,-3.32 3.92,-7.64 4.08,-10.16 -0.68,-1.92 -2.76,-3.2 -4.48,-3.2 -1.28,0 -2.44,0.68 -2.52,2.36 -0.04,0.16 -0.04,0.32 0,0.48 z"
             style="font-style:normal;font-variant:normal;font-weight:normal;font-stretch:normal;font-family:Knewave;-inkscape-font-specification:Knewave;text-align:center;text-anchor:middle;fill:#232323;fill-opacity:1"
             id="path4542"
             inkscape:connector-curvature="0" />
          <path
             d="m 1610.9954,433.725 c -1.92,0 -4.24,0.8 -5.84,3.12 -2.16,2.12 -4.96,6.72 -6.36,9.52 -2.16,4.36 -7.32,14.88 -7.48,17.32 -0.04,1.28 1.28,1.92 2.84,1.92 4.08,0 5.72,-2.28 9.04,-10.08 l 0.36,0.12 c 0,1.6 0.08,0.44 0.52,2.44 0,0.32 0.68,0.44 1.4,0.44 0.56,0 1.2,-0.12 1.52,-0.16 l 0.4,-0.12 c 1.2,-0.36 1.8,-0.52 4.4,-3.32 l 0.4,0.16 c -1.04,2.44 -2.36,5.6 -2.32,5.48 l -0.72,2.76 c -0.04,0.12 -0.04,0.24 -0.08,0.32 -0.04,1.08 1.12,1.6 2.56,1.6 1.8,0 3.84,-0.8 4.64,-2.32 4.32,-8.2 7.76,-17.4 11.16,-27.72 0.04,-0.2 0.04,-0.4 0.04,-0.6 0.08,-1.4 -1,-1.96 -2.4,-1.96 -1.08,0 -2.36,0.28 -3.28,0.76 h 0.04 c -3.96,2.36 -7.56,6.88 -10.48,10.6 l -0.32,-0.2 c 0.76,-1.84 1.48,-3.84 1.6,-6.12 0.04,-0.24 0.04,-0.48 0.04,-0.72 0.68,-0.64 0.92,-0.84 0.96,-1.44 0.04,-0.36 -0.04,-0.8 -0.12,-1.2 -0.6,-0.32 -1.48,-0.6 -2.52,-0.6 z m 2.56,0.64 c -0.04,0 -0.08,-0.04 -0.08,-0.12 z"
             style="font-style:normal;font-variant:normal;font-weight:normal;font-stretch:normal;font-family:Knewave;-inkscape-font-specification:Knewave;text-align:center;text-anchor:middle;fill:#232323;fill-opacity:1"
             id="path4544"
             inkscape:connector-curvature="0" />
          <path
             d="m 1638.8423,444.245 c -0.28,-0.04 -0.6,-0.08 -0.84,-0.08 -3.96,0 -10.88,4.44 -13.84,8.28 -1.84,2.72 -3.12,6.6 -3.2,8.76 -0.2,3.2 2.04,4.24 5.36,4.24 3.48,0 6.48,-1.16 7.44,-2.56 l 0.32,0.2 -0.12,0.4 c -0.08,0.88 1.2,1.4 2.6,1.4 1.6,0 3.28,-0.68 3.44,-2.04 0.88,-3.16 3.56,-10.48 4.12,-13.8 0.04,-1.08 -0.12,-2.6 -1.16,-2.6 -0.08,0 -0.32,0.04 -0.6,0.08 -0.28,0 -0.4,-0.2 -0.4,-0.4 0.08,-1.32 -2.12,-1.68 -3.12,-1.88 z m -9.72,16.32 c -1.28,0 -2.12,-0.96 -2.08,-1.68 0.2,-1.64 3.92,-4.08 7.52,-5.48 l -0.6,1.28 c -1.04,2.24 -2.52,5.92 -4.84,5.88 z"
             style="font-style:normal;font-variant:normal;font-weight:normal;font-stretch:normal;font-family:Knewave;-inkscape-font-specification:Knewave;text-align:center;text-anchor:middle;fill:#232323;fill-opacity:1"
             id="path4546"
             inkscape:connector-curvature="0" />
          <path
             d="m 1666.5173,434.045 c 0.08,-0.16 0.2,-0.52 0.2,-0.88 0.08,-1.64 -1.56,-2.84 -2.84,-2.84 -0.4,0 -0.8,0.2 -1.04,0.52 -2.24,1.28 -2.08,0.2 -3.32,2.12 -2.36,2.56 -3.92,6.08 -5.16,9.2 l -0.52,1.28 c -0.52,0 -0.64,0.04 -0.76,0.12 l -0.6,0.16 c -2.68,0.64 -1.2,0.56 -4.64,1.44 h 0.04 c -1.52,0.64 -2.08,1.64 -2.12,2.48 -0.04,0.96 0.52,1.68 1.32,1.76 1.44,-0.08 0.64,-0.52 3,-0.52 -2.48,5.44 -5.08,11.88 -6.2,15.68 -0.12,0.24 -0.12,0.36 -0.16,0.6 -0.04,1.04 1.76,1.68 3.16,1.8 0.84,-0.4 1.24,-0.2 1.84,-1 2.68,-3.44 7.72,-14.48 10.04,-18.48 l 0.32,-0.28 c 1.48,-0.04 2.76,-0.44 4.28,-0.8 l 1,-0.24 c 1.32,-0.08 2.24,-1.52 2.32,-2.56 0.08,-1.6 -2,-1.28 -3,-1.48 -1.12,0.12 -1.52,0.16 -3.16,0.52 l 0.72,-0.68 c 0.2,-0.16 0.4,-0.4 0.64,-0.68 l 2.84,-4.24 c 0.68,-0.96 0.88,-1.28 1.76,-3 z"
             style="font-style:normal;font-variant:normal;font-weight:normal;font-stretch:normal;font-family:Knewave;-inkscape-font-specification:Knewave;text-align:center;text-anchor:middle;fill:#232323;fill-opacity:1"
             id="path4548"
             inkscape:connector-curvature="0" />
          <path
             d="m 1684.3298,434.045 c 0.08,-0.16 0.2,-0.52 0.2,-0.88 0.08,-1.64 -1.56,-2.84 -2.84,-2.84 -0.4,0 -0.8,0.2 -1.04,0.52 -2.24,1.28 -2.08,0.2 -3.32,2.12 -2.36,2.56 -3.92,6.08 -5.16,9.2 l -0.52,1.28 c -0.52,0 -0.64,0.04 -0.76,0.12 l -0.6,0.16 c -2.68,0.64 -1.2,0.56 -4.64,1.44 h 0.04 c -1.52,0.64 -2.08,1.64 -2.12,2.48 -0.04,0.96 0.52,1.68 1.32,1.76 1.44,-0.08 0.64,-0.52 3,-0.52 -2.48,5.44 -5.08,11.88 -6.2,15.68 -0.12,0.24 -0.12,0.36 -0.16,0.6 -0.04,1.04 1.76,1.68 3.16,1.8 0.84,-0.4 1.24,-0.2 1.84,-1 2.68,-3.44 7.72,-14.48 10.04,-18.48 l 0.32,-0.28 c 1.48,-0.04 2.76,-0.44 4.28,-0.8 l 1,-0.24 c 1.32,-0.08 2.24,-1.52 2.32,-2.56 0.08,-1.6 -2,-1.28 -3,-1.48 -1.12,0.12 -1.52,0.16 -3.16,0.52 l 0.72,-0.68 c 0.2,-0.16 0.4,-0.4 0.64,-0.68 l 2.84,-4.24 c 0.68,-0.96 0.88,-1.28 1.76,-3 z"
             style="font-style:normal;font-variant:normal;font-weight:normal;font-stretch:normal;font-family:Knewave;-inkscape-font-specification:Knewave;text-align:center;text-anchor:middle;fill:#232323;fill-opacity:1"
             id="path4550"
             inkscape:connector-curvature="0" />
          <path
             d="m 1592.051,486.44907 c 0,-0.68 -0.6,-0.96 -1.4,-0.96 -1.6,0 -3.84,1.12 -4.12,2.68 -1.56,8.16 -3.12,17.92 -4.8,26.2 -0.08,1.2 0.4,2.96 3.92,2.96 2.44,0 4.16,-1.96 5.6,-3.8 l 0.28,-0.36 c 5.28,-6.6 10.76,-15.08 16.44,-21.92 1.44,-1.28 2.04,-2.44 2.12,-3.36 0.12,-2.36 -2.52,-3.04 -4.2,-3.04 -1.52,0 -3.2,0.64 -4.2,1.8 l -0.84,1.2 c -2.68,3.72 -6.28,8.6 -8.48,12.4 -0.08,0 -0.16,0 -0.2,0 -0.56,0 -0.84,-0.28 -1.08,-0.76 0.64,-3.2 1.04,-6.52 1.16,-9.12 0.12,-1.68 0.04,-3.08 -0.2,-3.84 z"
             style="font-style:normal;font-variant:normal;font-weight:normal;font-stretch:normal;font-family:Knewave;-inkscape-font-specification:Knewave;text-align:center;text-anchor:middle;fill:#232323;fill-opacity:1"
             id="path4552"
             inkscape:connector-curvature="0" />
          <path
             d="m 1608.0666,498.12907 c -3.16,3.72 -7.84,13.16 -8.76,16.48 -0.36,0.8 -0.56,1.44 -0.6,2.04 -0.08,1.76 1.24,2.56 2.56,2.56 0.76,0 1.52,-0.28 1.84,-0.8 1.2,-1.56 2.68,1.24 4.84,-4.52 1.36,-4.12 5.32,-11.8 7.28,-15.56 v 0.04 c 0.04,-0.16 0.04,-0.28 0.04,-0.4 0.08,-1.2 -1.28,-1.8 -2.88,-1.8 -1.6,0 -3.56,0.64 -4.32,1.92 z m 11.84,-9.56 c 0.04,-0.64 -0.16,-1.84 -2.4,-1.84 -0.24,0 -0.52,0.04 -0.96,0.08 -2.56,0.68 -3.84,2.04 -3.88,3.12 -0.04,1.04 0.92,1.84 2.92,1.84 1.8,0 4.2,-1.44 4.32,-3.2 z"
             style="font-style:normal;font-variant:normal;font-weight:normal;font-stretch:normal;font-family:Knewave;-inkscape-font-specification:Knewave;text-align:center;text-anchor:middle;fill:#232323;fill-opacity:1"
             id="path4554"
             inkscape:connector-curvature="0" />
          <path
             d="m 1626.7098,516.44907 0.64,-0.4 c 1.2,-0.76 2.92,-2 3,-3.08 0.72,-1.4 1.04,-2.56 1.12,-3.68 0.12,-2.92 -1.92,-5.12 -4.2,-6.92 1.32,-0.44 -0.24,-0.48 4.16,-1.24 2.2,-0.6 3.48,-1.92 3.52,-3.2 0.08,-1.16 -0.16,-2.68 -3,-2.68 -5.2,0 -12.44,3.04 -12.92,6.68 -0.36,0.6 -0.56,1.36 -0.6,2.12 -0.12,2.6 1.48,3.52 3.32,4.4 0.76,0.36 1.48,0.68 2.04,1.36 -0.48,1.24 -3.48,1.52 -6.64,1.52 h -1.36 c -1.04,0 -1,2.04 -2.4,2.04 -0.16,0 -0.36,-0.04 -0.52,-0.04 -0.88,0 -1.56,0.8 -1.6,1.84 -0.12,2.48 3.04,3.96 6.6,3.96 3,0 6.36,-0.92 8.84,-2.68 z"
             style="font-style:normal;font-variant:normal;font-weight:normal;font-stretch:normal;font-family:Knewave;-inkscape-font-specification:Knewave;text-align:center;text-anchor:middle;fill:#232323;fill-opacity:1"
             id="path4556"
             inkscape:connector-curvature="0" />
          <path
             d="m 1633.8948,512.76907 v -0.04 c 0,0.16 -0.04,0.32 -0.08,0.44 -0.12,2.76 2.24,4 4.92,4 2.72,0 5.04,-1.32 7.16,-2.84 l 0.24,0.24 c -0.24,0.32 -0.32,0.6 -0.32,0.88 -0.08,1.12 1.28,1.8 2.96,1.8 1.6,0 3.48,-0.56 4.84,-1.96 v 0.04 c 2.32,-3.96 5.96,-12.28 9.32,-17.44 0.12,-0.2 0.16,-0.4 0.16,-0.6 0.08,-0.96 -1.08,-1.96 -2.32,-1.96 -0.96,0 -2.12,0.68 -3.56,0.68 -0.16,0 -0.36,0 -0.52,0 -0.92,0 -1.76,0.12 -2.24,1.04 l -1.64,2.04 -1.96,2.68 c -2.44,3.2 -4.6,6.12 -9.24,8.72 1.56,-3.36 3.48,-7.16 5.8,-9.8 0.36,-0.56 0.56,-1.2 0.6,-1.68 0.08,-1.4 -1.2,-2.4 -2.84,-2.4 -1.08,0 -2.24,0.4 -3.4,1.32 -4.48,5.44 -7.2,10.6 -7.88,14.84 z"
             style="font-style:normal;font-variant:normal;font-weight:normal;font-stretch:normal;font-family:Knewave;-inkscape-font-specification:Knewave;text-align:center;text-anchor:middle;fill:#232323;fill-opacity:1"
             id="path4558"
             inkscape:connector-curvature="0" />
          <path
             d="m 1676.2641,496.12907 c -0.28,-0.04 -0.6,-0.08 -0.84,-0.08 -3.96,0 -10.88,4.44 -13.84,8.28 -1.84,2.72 -3.12,6.6 -3.2,8.76 -0.2,3.2 2.04,4.24 5.36,4.24 3.48,0 6.48,-1.16 7.44,-2.56 l 0.32,0.2 -0.12,0.4 c -0.08,0.88 1.2,1.4 2.6,1.4 1.6,0 3.28,-0.68 3.44,-2.04 0.88,-3.16 3.56,-10.48 4.12,-13.8 0.04,-1.08 -0.12,-2.6 -1.16,-2.6 -0.08,0 -0.32,0.04 -0.6,0.08 -0.28,0 -0.4,-0.2 -0.4,-0.4 0.08,-1.32 -2.12,-1.68 -3.12,-1.88 z m -9.72,16.32 c -1.28,0 -2.12,-0.96 -2.08,-1.68 0.2,-1.64 3.92,-4.08 7.52,-5.48 l -0.6,1.28 c -1.04,2.24 -2.52,5.92 -4.84,5.88 z"
             style="font-style:normal;font-variant:normal;font-weight:normal;font-stretch:normal;font-family:Knewave;-inkscape-font-specification:Knewave;text-align:center;text-anchor:middle;fill:#232323;fill-opacity:1"
             id="path4560"
             inkscape:connector-curvature="0" />
          <path
             d="m 1685.5791,516.60907 c 1.76,-1.32 2.2,-3.36 4,-7.16 3.52,-7.4 7.56,-15.12 12.24,-22.84 l -0.04,0.04 c 0.04,-0.12 0.08,-0.24 0.08,-0.36 0.04,-1.16 -1.24,-1.92 -1.16,-2.96 0,-0.08 0.04,-0.2 0.04,-0.28 -0.44,-0.12 -0.8,-0.16 -1.12,-0.16 -2.52,0 -4,2.6 -4.32,3 -7.24,9.64 -11.76,19.56 -14.56,25.96 l -1.28,3.04 c -0.2,0.48 -0.36,0.96 -0.36,1.16 -0.08,1.08 1.48,0.32 1.44,1.52 -0.04,0.64 0.32,0.88 0.88,0.88 1.08,0 2.92,-0.84 4.16,-1.84 z"
             style="font-style:normal;font-variant:normal;font-weight:normal;font-stretch:normal;font-family:Knewave;-inkscape-font-specification:Knewave;text-align:center;text-anchor:middle;fill:#232323;fill-opacity:1"
             id="path4562"
             inkscape:connector-curvature="0" />
          <path
             d="m 1603.5729,588.49313 c -1.08,-1.04 -2.76,-1.72 -5.12,-1.72 -0.84,0 -2.36,0.12 -3.4,0.4 -4.92,1.24 -7.08,2.72 -10.56,5.72 -5.72,5.12 -10.32,13.8 -10.6,19.8 -0.24,4.64 1.84,7.24 7.96,7.24 7.4,0 13.36,-5.12 15.56,-7.44 1.56,-1.68 3.16,-4.72 3.28,-6.92 0.12,-2.04 -0.96,-3.2 -4.04,-3.2 -3.04,0 -7.96,1.36 -8.08,3.76 -0.04,0.76 0.92,0.8 1.6,1.4 0.56,0.52 1.12,1.08 2.04,1.04 0.44,0 0.96,-0.12 1.6,-0.44 l 0.2,0.32 -0.12,0.16 c -0.56,1 -3.84,3.6 -7.08,3.6 -1.88,0 -4.12,-0.96 -3.96,-3.28 0.04,-1.16 0.68,-2.24 1.4,-3.64 1.8,-3.4 7.56,-8.24 10.52,-8.24 0.72,0 1.28,0.28 1.68,0.88 l 0.2,0.88 c -0.04,0.76 0.88,1.28 2.08,1.28 1.64,0 3.64,-0.84 4.68,-2.76 0.92,-1.8 1.4,-3.4 1.48,-4.84 0.08,-1.68 -0.36,-3.08 -1.32,-4 z"
             style="font-style:normal;font-variant:normal;font-weight:normal;font-stretch:normal;font-family:Knewave;-inkscape-font-specification:Knewave;text-align:center;text-anchor:middle;fill:#232323;fill-opacity:1"
             id="path4564"
             inkscape:connector-curvature="0" />
          <path
             d="m 1607.9104,600.01313 c -3.16,3.72 -7.84,13.16 -8.76,16.48 -0.36,0.8 -0.56,1.44 -0.6,2.04 -0.08,1.76 1.24,2.56 2.56,2.56 0.76,0 1.52,-0.28 1.84,-0.8 1.2,-1.56 2.68,1.24 4.84,-4.52 1.36,-4.12 5.32,-11.8 7.28,-15.56 v 0.04 c 0.04,-0.16 0.04,-0.28 0.04,-0.4 0.08,-1.2 -1.28,-1.8 -2.88,-1.8 -1.6,0 -3.56,0.64 -4.32,1.92 z m 11.84,-9.56 c 0.04,-0.64 -0.16,-1.84 -2.4,-1.84 -0.24,0 -0.52,0.04 -0.96,0.08 -2.56,0.68 -3.84,2.04 -3.88,3.12 -0.04,1.04 0.92,1.84 2.92,1.84 1.8,0 4.2,-1.44 4.32,-3.2 z"
             style="font-style:normal;font-variant:normal;font-weight:normal;font-stretch:normal;font-family:Knewave;-inkscape-font-specification:Knewave;text-align:center;text-anchor:middle;fill:#232323;fill-opacity:1"
             id="path4566"
             inkscape:connector-curvature="0" />
          <path
             d="m 1619.9535,601.81313 c -0.84,1.04 -8.08,13.44 -8.24,16.6 -0.08,1.4 2.76,1.68 3.64,1.68 1.92,0 3.92,-0.6 4.28,-1.52 0.52,-1.32 0.68,-0.08 1.96,-1.76 3.72,-4.84 7.84,-11 10,-11 0.4,0 0.64,0.2 0.64,0.8 -0.12,1.12 -1.2,3 -2.88,6.12 l -2.32,4.28 c -0.12,0.24 -0.24,0.48 -0.24,0.64 -0.04,0.76 0.84,1.12 1.96,1.12 4.2,0 7.12,-4.48 8.32,-6.36 0.36,-0.6 0.8,-1.36 1.4,-2.28 v 0.04 c 1.6,-2.92 2.72,-5.76 2.84,-8 0.16,-2.52 -1.04,-4.12 -4.24,-4.12 -3.56,0 -9,2.04 -11.2,4.04 0.04,-0.16 0.08,-0.44 0.08,-0.76 0.04,-0.76 -0.08,-1.76 -1.24,-1.76 -0.52,0 -1.24,0.12 -2.4,0.56 -0.16,-0.12 -0.28,-0.2 -0.4,-0.2 -0.32,0 -0.76,0.4 -1.96,1.88 z"
             style="font-style:normal;font-variant:normal;font-weight:normal;font-stretch:normal;font-family:Knewave;-inkscape-font-specification:Knewave;text-align:center;text-anchor:middle;fill:#232323;fill-opacity:1"
             id="path4568"
             inkscape:connector-curvature="0" />
          <path
             d="m 1656.4379,599.21313 c -0.64,-0.28 -1.36,-0.36 -2.16,-0.36 -3,0 -6.72,1.64 -9.68,5.08 -2.24,2.6 -3.68,6.24 -3.84,9.2 -0.16,2.76 0.84,4.92 3.28,5 0.96,0 1.44,0.04 1.92,0.04 1.88,0 3.56,-0.28 5.08,-1.76 l 0.32,0.24 c -1.48,2.2 -3.68,5.52 -6.6,6.88 l -0.84,0.4 c -1.04,0.48 -1.92,0.92 -3.16,0.92 -1.16,0 -2.08,-0.72 -2.8,-0.72 -1.36,0 -2.28,1.4 -2.36,2.6 -0.08,1.68 1.48,2.56 2.24,2.96 l 0.32,0.16 -0.04,-0.04 c 1.16,0.32 2.36,0.44 3.44,0.44 5.2,0 10.04,-3.56 13.56,-8.76 l 0.8,-1.2 c 2,-3.08 6.12,-12.08 6.4,-16.8 0.04,-1.4 0.84,-3.04 -1.4,-3.28 -0.88,0.04 -2.56,1.12 -2.96,1.72 -0.52,-1.16 -0.44,-2.28 -1.52,-2.72 z m -2.64,10.12 c -1.4,1.56 -2.68,4.6 -6.08,4.6 -0.4,0 -0.92,-0.2 -0.88,-0.72 0.04,-1.08 3.4,-4.8 5.52,-4.8 0.44,0 1.52,0.32 1.48,0.8 z"
             style="font-style:normal;font-variant:normal;font-weight:normal;font-stretch:normal;font-family:Knewave;-inkscape-font-specification:Knewave;text-align:center;text-anchor:middle;fill:#232323;fill-opacity:1"
             id="path4570"
             inkscape:connector-curvature="0" />
          <path
             d="m 1675.5073,611.53313 c 3.76,-1.76 5.08,-2.92 6.76,-7.28 v 0.04 c 0.32,-1.08 0.48,-1.92 0.52,-2.64 0.16,-3.08 -1.96,-3.88 -4.2,-3.88 -5.6,0 -9.16,3.08 -12.4,6.68 -2.4,2.68 -4.48,6.64 -4.68,9.92 -0.16,3.16 1.44,5.16 6.68,5.16 4.32,0 10.08,-1.32 10.2,-3.52 0.08,-1.28 -0.64,-1.28 -0.56,-1.28 -0.32,0 -0.6,0.04 -0.88,-1.04 -0.4,-0.36 -1.04,-0.64 -1.56,-0.64 -1.56,0 -3.68,1.28 -5.16,1.28 -0.52,0 -1.48,-0.44 -1.52,-1.44 2.16,-0.16 6.2,-1.04 6.8,-1.32 z m -0.28,-6.4 c -0.04,1.2 -2.88,4.16 -5.04,4.16 -0.04,0 -0.12,0 -0.16,0 0.96,-2.2 2.56,-4.52 4.48,-4.52 0.28,0 0.76,0.12 0.72,0.36 z"
             style="font-style:normal;font-variant:normal;font-weight:normal;font-stretch:normal;font-family:Knewave;-inkscape-font-specification:Knewave;text-align:center;text-anchor:middle;fill:#232323;fill-opacity:1"
             id="path4572"
             inkscape:connector-curvature="0" />
          <path
             d="m 1685.8348,605.77313 c -1.24,2.6 -5.4,10 -5.52,12.28 -0.08,1.36 0.8,1.92 2.08,1.92 2.16,0 5.24,-1.76 6.2,-3.96 2.2,-5.64 5.24,-11.6 8.68,-12.64 2.84,-0.68 4.24,-2.64 4.32,-4 0.04,-0.68 -0.28,-1.2 -0.92,-1.32 0.24,-0.36 0.36,-0.64 0.36,-0.88 0,-0.36 -0.24,-0.52 -0.68,-0.52 -1.6,0 -5.4,1.72 -7,3 0.12,-0.36 0.24,-0.68 0.24,-0.96 0.04,-0.68 -0.32,-1.04 -0.92,-1.04 -1.32,0 -3.32,0.96 -4.56,3.08 z"
             style="font-style:normal;font-variant:normal;font-weight:normal;font-stretch:normal;font-family:Knewave;-inkscape-font-specification:Knewave;text-align:center;text-anchor:middle;fill:#232323;fill-opacity:1"
             id="path4574"
             inkscape:connector-curvature="0" />
          <path
             d="m 1628.427,639.57722 0.04,-0.04 c -7.84,6.24 -14.12,14.84 -19.28,23.28 -0.48,0.8 -2.72,4.84 -2.84,6.92 -0.08,1.68 1.24,2.36 2.28,2.36 2.44,0 4.56,-2.12 6.56,-4.92 0.76,-0.56 1.48,-0.04 2.96,-0.88 0.52,-0.28 2.08,-1.48 3.88,-1.92 l -0.56,1.88 c -0.32,1.52 -1.16,3.04 -1.2,3.76 -0.04,1.16 1.72,1.72 3.08,1.72 1.12,0 2.4,-0.44 3.24,-1.2 0.24,-0.56 0.4,-1.04 0.6,-1.6 l 0.4,-0.88 c 3.2,-8.08 5.6,-15.96 8.72,-24.04 -0.16,-0.88 -0.68,-1.64 -1.44,-2.04 0.52,-0.64 0.76,-1.16 0.76,-1.52 0.08,-1.32 -1.64,-2.12 -3.36,-2.12 -0.8,0 -1.84,0.4 -2.84,0.84 z m -5.72,15.76 c 0.48,-0.84 1.08,-1.92 1.52,-2.76 l 2.12,-2.48 0.32,0.16 -1.16,3.32 c -0.84,2.32 -1.64,4.84 -2.36,7.16 l -3.76,0.12 z"
             style="font-style:normal;font-variant:normal;font-weight:normal;font-stretch:normal;font-family:Knewave;-inkscape-font-specification:Knewave;text-align:center;text-anchor:middle;fill:#232323;fill-opacity:1"
             id="path4576"
             inkscape:connector-curvature="0" />
          <path
             d="m 1636.5557,670.37722 c 1.76,-1.32 2.2,-3.36 4,-7.16 3.52,-7.4 7.56,-15.12 12.24,-22.84 l -0.04,0.04 c 0.04,-0.12 0.08,-0.24 0.08,-0.36 0.04,-1.16 -1.24,-1.92 -1.16,-2.96 0,-0.08 0.04,-0.2 0.04,-0.28 -0.44,-0.12 -0.8,-0.16 -1.12,-0.16 -2.52,0 -4,2.6 -4.32,3 -7.24,9.64 -11.76,19.56 -14.56,25.96 l -1.28,3.04 c -0.2,0.48 -0.36,0.96 -0.36,1.16 -0.08,1.08 1.48,0.32 1.44,1.52 -0.04,0.64 0.32,0.88 0.88,0.88 1.08,0 2.92,-0.84 4.16,-1.84 z"
             style="font-style:normal;font-variant:normal;font-weight:normal;font-stretch:normal;font-family:Knewave;-inkscape-font-specification:Knewave;text-align:center;text-anchor:middle;fill:#232323;fill-opacity:1"
             id="path4578"
             inkscape:connector-curvature="0" />
          <path
             d="m 1657.3432,663.41722 c 3.76,-1.76 5.08,-2.92 6.76,-7.28 v 0.04 c 0.32,-1.08 0.48,-1.92 0.52,-2.64 0.16,-3.08 -1.96,-3.88 -4.2,-3.88 -5.6,0 -9.16,3.08 -12.4,6.68 -2.4,2.68 -4.48,6.64 -4.68,9.92 -0.16,3.16 1.44,5.16 6.68,5.16 4.32,0 10.08,-1.32 10.2,-3.52 0.08,-1.28 -0.64,-1.28 -0.56,-1.28 -0.32,0 -0.6,0.04 -0.88,-1.04 -0.4,-0.36 -1.04,-0.64 -1.56,-0.64 -1.56,0 -3.68,1.28 -5.16,1.28 -0.52,0 -1.48,-0.44 -1.52,-1.44 2.16,-0.16 6.2,-1.04 6.8,-1.32 z m -0.28,-6.4 c -0.04,1.2 -2.88,4.16 -5.04,4.16 -0.04,0 -0.12,0 -0.16,0 0.96,-2.2 2.56,-4.52 4.48,-4.52 0.28,0 0.76,0.12 0.72,0.36 z"
             style="font-style:normal;font-variant:normal;font-weight:normal;font-stretch:normal;font-family:Knewave;-inkscape-font-specification:Knewave;text-align:center;text-anchor:middle;fill:#232323;fill-opacity:1"
             id="path4580"
             inkscape:connector-curvature="0" />
          <path
             d="m 1577.9876,691.26132 c -1.92,0 -4.24,0.8 -5.84,3.12 -2.16,2.12 -4.96,6.72 -6.36,9.52 -2.16,4.36 -7.32,14.88 -7.48,17.32 -0.04,1.28 1.28,1.92 2.84,1.92 4.08,0 5.72,-2.28 9.04,-10.08 l 0.36,0.12 c 0,1.6 0.08,0.44 0.52,2.44 0,0.32 0.68,0.44 1.4,0.44 0.56,0 1.2,-0.12 1.52,-0.16 l 0.4,-0.12 c 1.2,-0.36 1.8,-0.52 4.4,-3.32 l 0.4,0.16 c -1.04,2.44 -2.36,5.6 -2.32,5.48 l -0.72,2.76 c -0.04,0.12 -0.04,0.24 -0.08,0.32 -0.04,1.08 1.12,1.6 2.56,1.6 1.8,0 3.84,-0.8 4.64,-2.32 4.32,-8.2 7.76,-17.4 11.16,-27.72 0.04,-0.2 0.04,-0.4 0.04,-0.6 0.08,-1.4 -1,-1.96 -2.4,-1.96 -1.08,0 -2.36,0.28 -3.28,0.76 h 0.04 c -3.96,2.36 -7.56,6.88 -10.48,10.6 l -0.32,-0.2 c 0.76,-1.84 1.48,-3.84 1.6,-6.12 0.04,-0.24 0.04,-0.48 0.04,-0.72 0.68,-0.64 0.92,-0.84 0.96,-1.44 0.04,-0.36 -0.04,-0.8 -0.12,-1.2 -0.6,-0.32 -1.48,-0.6 -2.52,-0.6 z m 2.56,0.64 c -0.04,0 -0.08,-0.04 -0.08,-0.12 z"
             style="font-style:normal;font-variant:normal;font-weight:normal;font-stretch:normal;font-family:Knewave;-inkscape-font-specification:Knewave;text-align:center;text-anchor:middle;fill:#232323;fill-opacity:1"
             id="path4582"
             inkscape:connector-curvature="0" />
          <path
             d="m 1605.8345,701.78132 c -0.28,-0.04 -0.6,-0.08 -0.84,-0.08 -3.96,0 -10.88,4.44 -13.84,8.28 -1.84,2.72 -3.12,6.6 -3.2,8.76 -0.2,3.2 2.04,4.24 5.36,4.24 3.48,0 6.48,-1.16 7.44,-2.56 l 0.32,0.2 -0.12,0.4 c -0.08,0.88 1.2,1.4 2.6,1.4 1.6,0 3.28,-0.68 3.44,-2.04 0.88,-3.16 3.56,-10.48 4.12,-13.8 0.04,-1.08 -0.12,-2.6 -1.16,-2.6 -0.08,0 -0.32,0.04 -0.6,0.08 -0.28,0 -0.4,-0.2 -0.4,-0.4 0.08,-1.32 -2.12,-1.68 -3.12,-1.88 z m -9.72,16.32 c -1.28,0 -2.12,-0.96 -2.08,-1.68 0.2,-1.64 3.92,-4.08 7.52,-5.48 l -0.6,1.28 c -1.04,2.24 -2.52,5.92 -4.84,5.88 z"
             style="font-style:normal;font-variant:normal;font-weight:normal;font-stretch:normal;font-family:Knewave;-inkscape-font-specification:Knewave;text-align:center;text-anchor:middle;fill:#232323;fill-opacity:1"
             id="path4584"
             inkscape:connector-curvature="0" />
          <path
             d="m 1629.4695,701.50132 c -0.68,-0.08 -1.36,-0.12 -2.04,-0.12 -8.88,0 -16.8,8.64 -17.2,15.92 -0.16,3.76 2.04,5.96 4.88,5.96 3.24,0 7.48,-1.32 9.72,-4.08 0.36,-0.36 0.6,-0.76 0.6,-1.12 0.04,-0.76 -0.72,-1.32 -2.28,-1.32 -0.28,0 -0.64,0.04 -0.96,0.04 -1.92,0 -2.96,-1.28 -2.92,-2.4 0,-0.12 0.04,-0.28 0.08,-0.4 0.72,-1.56 2.36,-4.84 6.44,-5.36 1.16,-0.16 2.24,-0.32 2.96,-1.72 1.24,-0.08 2.64,-1.8 2.76,-3.36 0.04,-1 -0.48,-1.88 -2.04,-2.04 z"
             style="font-style:normal;font-variant:normal;font-weight:normal;font-stretch:normal;font-family:Knewave;-inkscape-font-specification:Knewave;text-align:center;text-anchor:middle;fill:#232323;fill-opacity:1"
             id="path4586"
             inkscape:connector-curvature="0" />
          <path
             d="m 1642.7126,704.86132 h -0.04 c 0.48,-0.96 3.24,-6.32 3.84,-7.28 0.8,-1.28 3.2,-5.08 4.28,-7.04 -0.04,-1.16 -1.48,-1.8 -3.08,-1.8 -2.24,0 -4.84,1.04 -4.96,3.12 0,0.2 0,0.4 0.04,0.64 l -2.24,2.72 c -3.44,4.12 -9.72,15 -13.16,23.56 -0.16,0.36 -0.24,0.68 -0.28,1 -0.08,1.84 1.64,3.24 3.68,3.24 0.84,0 1.88,-0.16 3.44,-1.12 l 0.36,-0.12 h -0.04 c 1.44,-0.92 1.2,0.6 2.32,-2.24 2.12,-3.44 4.08,-4.72 6.88,-6 -0.6,1.48 -0.8,2.52 -0.84,3.56 -0.04,0.8 0.08,1.68 0,2.72 l 0.24,0.52 c 0.36,1 2.16,2.6 4.12,2.6 1.12,0 2.16,-0.56 2.48,-2.2 -0.08,-0.64 -0.08,-1.24 -0.08,-1.72 0.08,-1.56 0.52,-3.52 1.44,-5.64 0.6,-1.44 1.24,-2.96 1.32,-4.24 0.12,-2.16 -2.28,-3.88 -4.12,-3.88 -1.88,0 -3.88,1.08 -5.52,2.52 h 0.04 l -0.76,0.8 v -0.04 c -0.4,0.4 -0.8,0.84 -1.88,1.6 0.44,-1.2 1.4,-3 1.72,-3.8 z"
             style="font-style:normal;font-variant:normal;font-weight:normal;font-stretch:normal;font-family:Knewave;-inkscape-font-specification:Knewave;text-align:center;text-anchor:middle;fill:#232323;fill-opacity:1"
             id="path4588"
             inkscape:connector-curvature="0" />
          <path
             d="m 1660.2151,703.78132 c -3.16,3.72 -7.84,13.16 -8.76,16.48 -0.36,0.8 -0.56,1.44 -0.6,2.04 -0.08,1.76 1.24,2.56 2.56,2.56 0.76,0 1.52,-0.28 1.84,-0.8 1.2,-1.56 2.68,1.24 4.84,-4.52 1.36,-4.12 5.32,-11.8 7.28,-15.56 v 0.04 c 0.04,-0.16 0.04,-0.28 0.04,-0.4 0.08,-1.2 -1.28,-1.8 -2.88,-1.8 -1.6,0 -3.56,0.64 -4.32,1.92 z m 11.84,-9.56 c 0.04,-0.64 -0.16,-1.84 -2.4,-1.84 -0.24,0 -0.52,0.04 -0.96,0.08 -2.56,0.68 -3.84,2.04 -3.88,3.12 -0.04,1.04 0.92,1.84 2.92,1.84 1.8,0 4.2,-1.44 4.32,-3.2 z"
             style="font-style:normal;font-variant:normal;font-weight:normal;font-stretch:normal;font-family:Knewave;-inkscape-font-specification:Knewave;text-align:center;text-anchor:middle;fill:#232323;fill-opacity:1"
             id="path4590"
             inkscape:connector-curvature="0" />
          <path
             d="m 1672.2582,705.58132 c -0.84,1.04 -8.08,13.44 -8.24,16.6 -0.08,1.4 2.76,1.68 3.64,1.68 1.92,0 3.92,-0.6 4.28,-1.52 0.52,-1.32 0.68,-0.08 1.96,-1.76 3.72,-4.84 7.84,-11 10,-11 0.4,0 0.64,0.2 0.64,0.8 -0.12,1.12 -1.2,3 -2.88,6.12 l -2.32,4.28 c -0.12,0.24 -0.24,0.48 -0.24,0.64 -0.04,0.76 0.84,1.12 1.96,1.12 4.2,0 7.12,-4.48 8.32,-6.36 0.36,-0.6 0.8,-1.36 1.4,-2.28 v 0.04 c 1.6,-2.92 2.72,-5.76 2.84,-8 0.16,-2.52 -1.04,-4.12 -4.24,-4.12 -3.56,0 -9,2.04 -11.2,4.04 0.04,-0.16 0.08,-0.44 0.08,-0.76 0.04,-0.76 -0.08,-1.76 -1.24,-1.76 -0.52,0 -1.24,0.12 -2.4,0.56 -0.16,-0.12 -0.28,-0.2 -0.4,-0.2 -0.32,0 -0.76,0.4 -1.96,1.88 z"
             style="font-style:normal;font-variant:normal;font-weight:normal;font-stretch:normal;font-family:Knewave;-inkscape-font-specification:Knewave;text-align:center;text-anchor:middle;fill:#232323;fill-opacity:1"
             id="path4592"
             inkscape:connector-curvature="0" />
          <path
             d="m 1705.7026,715.30132 c 3.76,-1.76 5.08,-2.92 6.76,-7.28 v 0.04 c 0.32,-1.08 0.48,-1.92 0.52,-2.64 0.16,-3.08 -1.96,-3.88 -4.2,-3.88 -5.6,0 -9.16,3.08 -12.4,6.68 -2.4,2.68 -4.48,6.64 -4.68,9.92 -0.16,3.16 1.44,5.16 6.68,5.16 4.32,0 10.08,-1.32 10.2,-3.52 0.08,-1.28 -0.64,-1.28 -0.56,-1.28 -0.32,0 -0.6,0.04 -0.88,-1.04 -0.4,-0.36 -1.04,-0.64 -1.56,-0.64 -1.56,0 -3.68,1.28 -5.16,1.28 -0.52,0 -1.48,-0.44 -1.52,-1.44 2.16,-0.16 6.2,-1.04 6.8,-1.32 z m -0.28,-6.4 c -0.04,1.2 -2.88,4.16 -5.04,4.16 -0.04,0 -0.12,0 -0.16,0 0.96,-2.2 2.56,-4.52 4.48,-4.52 0.28,0 0.76,0.12 0.72,0.36 z"
             style="font-style:normal;font-variant:normal;font-weight:normal;font-stretch:normal;font-family:Knewave;-inkscape-font-specification:Knewave;text-align:center;text-anchor:middle;fill:#232323;fill-opacity:1"
             id="path4594"
             inkscape:connector-curvature="0" />
          <path
             d="m 1570.8304,923.22541 1.24,-2.52 c 0.72,-1.44 1.68,-3.08 2.76,-5 1.76,2.44 1.4,8.08 4.44,8.08 0.4,0 0.84,-0.08 1.28,-0.2 1.04,0.44 1.12,1.16 1.88,1.16 1.16,0 2.88,-1.16 2.96,-2.6 0.12,-2.36 -2.36,-5.88 -3.52,-8.24 v 0.04 l -0.44,-0.92 c 7.16,-1.96 13,-10.36 13.32,-16.04 0.12,-3 -1.44,-5.2 -5.04,-5.2 -0.8,0 -6.04,1 -8.32,2.04 -5.56,2.96 -17.52,24.72 -17.88,28.68 -0.04,0.16 -0.08,0.32 -0.12,0.48 -0.04,1.36 1.76,2.2 3.68,2.2 1.56,0 3.2,-0.56 3.76,-1.96 z m 12.96,-23.68 0.52,-0.4 h -0.04 c 0.52,-0.56 1.24,-1.24 2.08,-1.24 0.76,0 1,0.68 1,1.04 -0.04,0.76 -0.84,1.48 -0.88,2.12 -1.48,3.08 -2.76,3.6 -5.24,4.8 l -1.24,0.8 -0.24,-0.2 c 0,0 0.2,-0.52 1.92,-3.64 0.48,-0.76 0.56,-1.08 1.96,-3.16 z"
             style="font-style:normal;font-variant:normal;font-weight:normal;font-stretch:normal;font-family:Knewave;-inkscape-font-specification:Knewave;text-align:center;text-anchor:middle;fill:#232323;fill-opacity:1"
             id="path4596"
             inkscape:connector-curvature="0" />
          <path
             d="m 1602.3823,917.18541 c 3.76,-1.76 5.08,-2.92 6.76,-7.28 v 0.04 c 0.32,-1.08 0.48,-1.92 0.52,-2.64 0.16,-3.08 -1.96,-3.88 -4.2,-3.88 -5.6,0 -9.16,3.08 -12.4,6.68 -2.4,2.68 -4.48,6.64 -4.68,9.92 -0.16,3.16 1.44,5.16 6.68,5.16 4.32,0 10.08,-1.32 10.2,-3.52 0.08,-1.28 -0.64,-1.28 -0.56,-1.28 -0.32,0 -0.6,0.04 -0.88,-1.04 -0.4,-0.36 -1.04,-0.64 -1.56,-0.64 -1.56,0 -3.68,1.28 -5.16,1.28 -0.52,0 -1.48,-0.44 -1.52,-1.44 2.16,-0.16 6.2,-1.04 6.8,-1.32 z m -0.28,-6.4 c -0.04,1.2 -2.88,4.16 -5.04,4.16 -0.04,0 -0.12,0 -0.16,0 0.96,-2.2 2.56,-4.52 4.48,-4.52 0.28,0 0.76,0.12 0.72,0.36 z"
             style="font-style:normal;font-variant:normal;font-weight:normal;font-stretch:normal;font-family:Knewave;-inkscape-font-specification:Knewave;text-align:center;text-anchor:middle;fill:#232323;fill-opacity:1"
             id="path4598"
             inkscape:connector-curvature="0" />
          <path
             d="m 1609.7498,923.86541 c -0.16,0.32 -0.24,0.64 -0.28,0.92 -0.04,1.16 0.88,2.08 2.16,2.08 0.96,0 2.2,-0.56 3.36,-2 0.96,-0.32 5.36,-10.88 7.36,-14.6 l 1.12,-0.24 c 2.56,-0.64 3.64,-1 5.16,-2.8 0.8,-0.56 1.36,-1.64 1.4,-2.44 0.04,-0.36 -0.08,-0.64 -0.28,-0.8 -0.92,0.04 -2,0.08 -2.88,0.24 2.16,-1.4 5.16,-4.88 5.32,-6.52 0.16,0.72 0.6,1.08 1.16,1.08 1.68,0 3.32,-1.48 3.44,-3.32 0.04,-1.44 -0.32,-3.88 -4.6,-3.88 -2.76,0 -6.88,1.76 -9.6,4.8 l -0.68,0.84 c -1.68,2.08 -4.08,5.04 -5.32,8.48 l -4.48,1.36 h 0.04 c -1.68,0.56 -2.48,1.68 -2.52,2.6 -0.04,0.64 0.32,1.16 1,1.16 0.08,0 0.12,0 0.16,0 1.16,0.68 0.44,0.96 1.44,1.48 0.16,0.08 0.44,0.2 0.56,0.32 -0.36,1.64 -2.84,9.44 -3.04,11.16 z"
             style="font-style:normal;font-variant:normal;font-weight:normal;font-stretch:normal;font-family:Knewave;-inkscape-font-specification:Knewave;text-align:center;text-anchor:middle;fill:#232323;fill-opacity:1"
             id="path4600"
             inkscape:connector-curvature="0" />
          <path
             d="m 1630.5223,911.42541 c -1.24,2.6 -5.4,10 -5.52,12.28 -0.08,1.36 0.8,1.92 2.08,1.92 2.16,0 5.24,-1.76 6.2,-3.96 2.2,-5.64 5.24,-11.6 8.68,-12.64 2.84,-0.68 4.24,-2.64 4.32,-4 0.04,-0.68 -0.28,-1.2 -0.92,-1.32 0.24,-0.36 0.36,-0.64 0.36,-0.88 0,-0.36 -0.24,-0.52 -0.68,-0.52 -1.6,0 -5.4,1.72 -7,3 0.12,-0.36 0.24,-0.68 0.24,-0.96 0.04,-0.68 -0.32,-1.04 -0.92,-1.04 -1.32,0 -3.32,0.96 -4.56,3.08 z"
             style="font-style:normal;font-variant:normal;font-weight:normal;font-stretch:normal;font-family:Knewave;-inkscape-font-specification:Knewave;text-align:center;text-anchor:middle;fill:#232323;fill-opacity:1"
             id="path4602"
             inkscape:connector-curvature="0" />
          <path
             d="m 1656.1323,917.18541 c 3.76,-1.76 5.08,-2.92 6.76,-7.28 v 0.04 c 0.32,-1.08 0.48,-1.92 0.52,-2.64 0.16,-3.08 -1.96,-3.88 -4.2,-3.88 -5.6,0 -9.16,3.08 -12.4,6.68 -2.4,2.68 -4.48,6.64 -4.68,9.92 -0.16,3.16 1.44,5.16 6.68,5.16 4.32,0 10.08,-1.32 10.2,-3.52 0.08,-1.28 -0.64,-1.28 -0.56,-1.28 -0.32,0 -0.6,0.04 -0.88,-1.04 -0.4,-0.36 -1.04,-0.64 -1.56,-0.64 -1.56,0 -3.68,1.28 -5.16,1.28 -0.52,0 -1.48,-0.44 -1.52,-1.44 2.16,-0.16 6.2,-1.04 6.8,-1.32 z m -0.28,-6.4 c -0.04,1.2 -2.88,4.16 -5.04,4.16 -0.04,0 -0.12,0 -0.16,0 0.96,-2.2 2.56,-4.52 4.48,-4.52 0.28,0 0.76,0.12 0.72,0.36 z"
             style="font-style:normal;font-variant:normal;font-weight:normal;font-stretch:normal;font-family:Knewave;-inkscape-font-specification:Knewave;text-align:center;text-anchor:middle;fill:#232323;fill-opacity:1"
             id="path4604"
             inkscape:connector-curvature="0" />
          <path
             d="m 1675.4598,923.98541 0.64,-0.4 c 1.2,-0.76 2.92,-2 3,-3.08 0.72,-1.4 1.04,-2.56 1.12,-3.68 0.12,-2.92 -1.92,-5.12 -4.2,-6.92 1.32,-0.44 -0.24,-0.48 4.16,-1.24 2.2,-0.6 3.48,-1.92 3.52,-3.2 0.08,-1.16 -0.16,-2.68 -3,-2.68 -5.2,0 -12.44,3.04 -12.92,6.68 -0.36,0.6 -0.56,1.36 -0.6,2.12 -0.12,2.6 1.48,3.52 3.32,4.4 0.76,0.36 1.48,0.68 2.04,1.36 -0.48,1.24 -3.48,1.52 -6.64,1.52 h -1.36 c -1.04,0 -1,2.04 -2.4,2.04 -0.16,0 -0.36,-0.04 -0.52,-0.04 -0.88,0 -1.56,0.8 -1.6,1.84 -0.12,2.48 3.04,3.96 6.6,3.96 3,0 6.36,-0.92 8.84,-2.68 z"
             style="font-style:normal;font-variant:normal;font-weight:normal;font-stretch:normal;font-family:Knewave;-inkscape-font-specification:Knewave;text-align:center;text-anchor:middle;fill:#232323;fill-opacity:1"
             id="path4606"
             inkscape:connector-curvature="0" />
          <path
             d="m 1697.2048,906.74541 h -0.04 c 0.48,-0.96 3.24,-6.32 3.84,-7.28 0.8,-1.28 3.2,-5.08 4.28,-7.04 -0.04,-1.16 -1.48,-1.8 -3.08,-1.8 -2.24,0 -4.84,1.04 -4.96,3.12 0,0.2 0,0.4 0.04,0.64 l -2.24,2.72 c -3.44,4.12 -9.72,15 -13.16,23.56 -0.16,0.36 -0.24,0.68 -0.28,1 -0.08,1.84 1.64,3.24 3.68,3.24 0.84,0 1.88,-0.16 3.44,-1.12 l 0.36,-0.12 h -0.04 c 1.44,-0.92 1.2,0.6 2.32,-2.24 2.12,-3.44 4.08,-4.72 6.88,-6 -0.6,1.48 -0.8,2.52 -0.84,3.56 -0.04,0.8 0.08,1.68 0,2.72 l 0.24,0.52 c 0.36,1 2.16,2.6 4.12,2.6 1.12,0 2.16,-0.56 2.48,-2.2 -0.08,-0.64 -0.08,-1.24 -0.08,-1.72 0.08,-1.56 0.52,-3.52 1.44,-5.64 0.6,-1.44 1.24,-2.96 1.32,-4.24 0.12,-2.16 -2.28,-3.88 -4.12,-3.88 -1.88,0 -3.88,1.08 -5.52,2.52 h 0.04 l -0.76,0.8 v -0.04 c -0.4,0.4 -0.8,0.84 -1.88,1.6 0.44,-1.2 1.4,-3 1.72,-3.8 z"
             style="font-style:normal;font-variant:normal;font-weight:normal;font-stretch:normal;font-family:Knewave;-inkscape-font-specification:Knewave;text-align:center;text-anchor:middle;fill:#232323;fill-opacity:1"
             id="path4608"
             inkscape:connector-curvature="0" />
          <path
             d="m 1574.6398,947.10951 c -0.08,-1.2 -0.68,-1.72 -1.48,-1.72 -1.92,0 -4.92,2.48 -5.28,4.8 -0.8,3.48 -1.04,6.76 -1.28,9.56 -0.08,0.44 -0.16,0.92 -0.16,1.28 -0.08,1 0.2,1.8 0.96,1.8 0.08,0 0.16,0 0.24,-0.04 l -3.52,4.72 c -1.84,2.48 -3.8,5 -5.08,7.52 -0.16,0.28 -0.24,0.56 -0.28,0.84 -0.04,1.44 1.96,2.56 4.48,2.56 1.88,0 4.08,-0.64 5.88,-2.24 h -0.04 c 0.36,-0.36 0.56,-0.76 0.56,-1.08 0.04,-0.72 -0.36,-1.48 -0.48,-1.48 0,0 0,0 0,0 l -0.32,-0.24 c 3.64,-6.76 7.52,-11.08 12,-17.24 2,-2.64 7.24,-7.64 7.4,-10.88 0.08,-1.24 -0.96,-1.64 -2.04,-1.64 -0.68,0 -1.48,0.16 -2.04,0.4 l 0.04,-0.04 c -2.2,1.44 -4.8,4.44 -6.8,6.88 l -1.76,2.12 -0.36,0.36 c -0.16,-1.76 -0.36,-3.96 -0.52,-5.32 z"
             style="font-style:normal;font-variant:normal;font-weight:normal;font-stretch:normal;font-family:Knewave;-inkscape-font-specification:Knewave;text-align:center;text-anchor:middle;fill:#232323;fill-opacity:1"
             id="path4610"
             inkscape:connector-curvature="0" />
          <path
             d="m 1587.8379,957.82951 c -3.44,2 -7.48,9.12 -7.72,13.96 -0.32,5.56 4.56,5.4 8,5.4 1.88,-0.08 4.28,-0.52 6.44,-2.04 4.52,-3.6 7.52,-9.64 7.72,-13.88 0.2,-3.36 -1.44,-5.8 -5.8,-5.8 -0.64,0 -1.52,0.16 -2.24,0.16 -1.12,0 -2.6,0.24 -3.8,2 -0.56,0 -0.8,-0.12 -1.32,-0.12 -0.4,0 -0.84,0.08 -1.28,0.32 z m 5.64,8.04 c -0.2,2.8 -1.84,6.92 -5.52,6.92 -0.92,0 -1.56,0.16 -1.52,-0.84 0.16,-2.64 4.04,-5.08 4.88,-6 0.08,0 0.16,0 0.24,0 0.52,0 1.08,-0.12 1.68,-0.28 z"
             style="font-style:normal;font-variant:normal;font-weight:normal;font-stretch:normal;font-family:Knewave;-inkscape-font-specification:Knewave;text-align:center;text-anchor:middle;fill:#232323;fill-opacity:1"
             id="path4612"
             inkscape:connector-curvature="0" />
          <path
             d="m 1600.926,972.18951 v -0.04 c 0,0.16 -0.04,0.32 -0.08,0.44 -0.12,2.76 2.24,4 4.92,4 2.72,0 5.04,-1.32 7.16,-2.84 l 0.24,0.24 c -0.24,0.32 -0.32,0.6 -0.32,0.88 -0.08,1.12 1.28,1.8 2.96,1.8 1.6,0 3.48,-0.56 4.84,-1.96 v 0.04 c 2.32,-3.96 5.96,-12.28 9.32,-17.44 0.12,-0.2 0.16,-0.4 0.16,-0.6 0.08,-0.96 -1.08,-1.96 -2.32,-1.96 -0.96,0 -2.12,0.68 -3.56,0.68 -0.16,0 -0.36,0 -0.52,0 -0.92,0 -1.76,0.12 -2.24,1.04 l -1.64,2.04 -1.96,2.68 c -2.44,3.2 -4.6,6.12 -9.24,8.72 1.56,-3.36 3.48,-7.16 5.8,-9.8 0.36,-0.56 0.56,-1.2 0.6,-1.68 0.08,-1.4 -1.2,-2.4 -2.84,-2.4 -1.08,0 -2.24,0.4 -3.4,1.32 -4.48,5.44 -7.2,10.6 -7.88,14.84 z"
             style="font-style:normal;font-variant:normal;font-weight:normal;font-stretch:normal;font-family:Knewave;-inkscape-font-specification:Knewave;text-align:center;text-anchor:middle;fill:#232323;fill-opacity:1"
             id="path4614"
             inkscape:connector-curvature="0" />
          <path
             d="m 1629.9754,963.30951 c -1.24,2.6 -5.4,10 -5.52,12.28 -0.08,1.36 0.8,1.92 2.08,1.92 2.16,0 5.24,-1.76 6.2,-3.96 2.2,-5.64 5.24,-11.6 8.68,-12.64 2.84,-0.68 4.24,-2.64 4.32,-4 0.04,-0.68 -0.28,-1.2 -0.92,-1.32 0.24,-0.36 0.36,-0.64 0.36,-0.88 0,-0.36 -0.24,-0.52 -0.68,-0.52 -1.6,0 -5.4,1.72 -7,3 0.12,-0.36 0.24,-0.68 0.24,-0.96 0.04,-0.68 -0.32,-1.04 -0.92,-1.04 -1.32,0 -3.32,0.96 -4.56,3.08 z"
             style="font-style:normal;font-variant:normal;font-weight:normal;font-stretch:normal;font-family:Knewave;-inkscape-font-specification:Knewave;text-align:center;text-anchor:middle;fill:#232323;fill-opacity:1"
             id="path4616"
             inkscape:connector-curvature="0" />
          <path
             d="m 1655.2254,975.86951 0.64,-0.4 c 1.2,-0.76 2.92,-2 3,-3.08 0.72,-1.4 1.04,-2.56 1.12,-3.68 0.12,-2.92 -1.92,-5.12 -4.2,-6.92 1.32,-0.44 -0.24,-0.48 4.16,-1.24 2.2,-0.6 3.48,-1.92 3.52,-3.2 0.08,-1.16 -0.16,-2.68 -3,-2.68 -5.2,0 -12.44,3.04 -12.92,6.68 -0.36,0.6 -0.56,1.36 -0.6,2.12 -0.12,2.6 1.48,3.52 3.32,4.4 0.76,0.36 1.48,0.68 2.04,1.36 -0.48,1.24 -3.48,1.52 -6.64,1.52 h -1.36 c -1.04,0 -1,2.04 -2.4,2.04 -0.16,0 -0.36,-0.04 -0.52,-0.04 -0.88,0 -1.56,0.8 -1.6,1.84 -0.12,2.48 3.04,3.96 6.6,3.96 3,0 6.36,-0.92 8.84,-2.68 z"
             style="font-style:normal;font-variant:normal;font-weight:normal;font-stretch:normal;font-family:Knewave;-inkscape-font-specification:Knewave;text-align:center;text-anchor:middle;fill:#232323;fill-opacity:1"
             id="path4618"
             inkscape:connector-curvature="0" />
          <path
             d="m 1676.2104,969.06951 c 3.76,-1.76 5.08,-2.92 6.76,-7.28 v 0.04 c 0.32,-1.08 0.48,-1.92 0.52,-2.64 0.16,-3.08 -1.96,-3.88 -4.2,-3.88 -5.6,0 -9.16,3.08 -12.4,6.68 -2.4,2.68 -4.48,6.64 -4.68,9.92 -0.16,3.16 1.44,5.16 6.68,5.16 4.32,0 10.08,-1.32 10.2,-3.52 0.08,-1.28 -0.64,-1.28 -0.56,-1.28 -0.32,0 -0.6,0.04 -0.88,-1.04 -0.4,-0.36 -1.04,-0.64 -1.56,-0.64 -1.56,0 -3.68,1.28 -5.16,1.28 -0.52,0 -1.48,-0.44 -1.52,-1.44 2.16,-0.16 6.2,-1.04 6.8,-1.32 z m -0.28,-6.4 c -0.04,1.2 -2.88,4.16 -5.04,4.16 -0.04,0 -0.12,0 -0.16,0 0.96,-2.2 2.56,-4.52 4.48,-4.52 0.28,0 0.76,0.12 0.72,0.36 z"
             style="font-style:normal;font-variant:normal;font-weight:normal;font-stretch:normal;font-family:Knewave;-inkscape-font-specification:Knewave;text-align:center;text-anchor:middle;fill:#232323;fill-opacity:1"
             id="path4620"
             inkscape:connector-curvature="0" />
          <path
             d="m 1687.2979,976.02951 c 1.76,-1.32 2.2,-3.36 4,-7.16 3.52,-7.4 7.56,-15.12 12.24,-22.84 l -0.04,0.04 c 0.04,-0.12 0.08,-0.24 0.08,-0.36 0.04,-1.16 -1.24,-1.92 -1.16,-2.96 0,-0.08 0.04,-0.2 0.04,-0.28 -0.44,-0.12 -0.8,-0.16 -1.12,-0.16 -2.52,0 -4,2.6 -4.32,3 -7.24,9.64 -11.76,19.56 -14.56,25.96 l -1.28,3.04 c -0.2,0.48 -0.36,0.96 -0.36,1.16 -0.08,1.08 1.48,0.32 1.44,1.52 -0.04,0.64 0.32,0.88 0.88,0.88 1.08,0 2.92,-0.84 4.16,-1.84 z"
             style="font-style:normal;font-variant:normal;font-weight:normal;font-stretch:normal;font-family:Knewave;-inkscape-font-specification:Knewave;text-align:center;text-anchor:middle;fill:#232323;fill-opacity:1"
             id="path4622"
             inkscape:connector-curvature="0" />
          <path
             d="m 1695.7654,975.74951 c -0.16,0.32 -0.24,0.64 -0.28,0.92 -0.04,1.16 0.88,2.08 2.16,2.08 0.96,0 2.2,-0.56 3.36,-2 0.96,-0.32 5.36,-10.88 7.36,-14.6 l 1.12,-0.24 c 2.56,-0.64 3.64,-1 5.16,-2.8 0.8,-0.56 1.36,-1.64 1.4,-2.44 0.04,-0.36 -0.08,-0.64 -0.28,-0.8 -0.92,0.04 -2,0.08 -2.88,0.24 2.16,-1.4 5.16,-4.88 5.32,-6.52 0.16,0.72 0.6,1.08 1.16,1.08 1.68,0 3.32,-1.48 3.44,-3.32 0.04,-1.44 -0.32,-3.88 -4.6,-3.88 -2.76,0 -6.88,1.76 -9.6,4.8 l -0.68,0.84 c -1.68,2.08 -4.08,5.04 -5.32,8.48 l -4.48,1.36 h 0.04 c -1.68,0.56 -2.48,1.68 -2.52,2.6 -0.04,0.64 0.32,1.16 1,1.16 0.08,0 0.12,0 0.16,0 1.16,0.68 0.44,0.96 1.44,1.48 0.16,0.08 0.44,0.2 0.56,0.32 -0.36,1.64 -2.84,9.44 -3.04,11.16 z"
             style="font-style:normal;font-variant:normal;font-weight:normal;font-stretch:normal;font-family:Knewave;-inkscape-font-specification:Knewave;text-align:center;text-anchor:middle;fill:#232323;fill-opacity:1"
             id="path4624"
             inkscape:connector-curvature="0" />
        </g>
        <ellipse
           transform="matrix(0.99975771,0.02201163,0,1,0,0)"
           ry="0.32452044"
           rx="0.31038174"
           cy="211.99638"
           cx="68.898064"
           id="ellipse4649"
           style="fill:#aa0000;fill-opacity:1;stroke:none;stroke-width:0.03287942;stroke-linecap:round;stroke-linejoin:round;stroke-miterlimit:4;stroke-dasharray:none;stroke-dashoffset:0;stroke-opacity:1;paint-order:stroke fill markers" />
        <ellipse
           style="fill:#d40000;fill-opacity:1;stroke:none;stroke-width:0.02624827;stroke-linecap:round;stroke-linejoin:round;stroke-miterlimit:4;stroke-dasharray:none;stroke-dashoffset:0;stroke-opacity:1;paint-order:stroke fill markers"
           id="path4647"
           cx="68.877197"
           cy="211.98592"
           rx="0.24778372"
           ry="0.25907093"
           transform="matrix(0.99975771,0.02201163,0,1,0,0)" />
      </g>
    </g>
  </g>
</svg>
