<?xml version="1.0" encoding="UTF-8" standalone="no"?>
<!-- Created with Inkscape (http://www.inkscape.org/) -->

<svg
   xmlns:dc="http://purl.org/dc/elements/1.1/"
   xmlns:cc="http://creativecommons.org/ns#"
   xmlns:rdf="http://www.w3.org/1999/02/22-rdf-syntax-ns#"
   xmlns:svg="http://www.w3.org/2000/svg"
   xmlns="http://www.w3.org/2000/svg"
   xmlns:sodipodi="http://sodipodi.sourceforge.net/DTD/sodipodi-0.dtd"
   xmlns:inkscape="http://www.inkscape.org/namespaces/inkscape"
   width="1920"
   height="1080"
   viewBox="0 0 507.99999 285.75001"
   version="1.1"
   id="svg8"
   inkscape:version="0.92.1 r"
   sodipodi:docname="new_textbox.svg">
  <defs
     id="defs2">
    <inkscape:perspective
       sodipodi:type="inkscape:persp3d"
       inkscape:vp_x="0 : 142.875 : 1"
       inkscape:vp_y="0 : 1000 : 0"
       inkscape:vp_z="507.99999 : 142.875 : 1"
       inkscape:persp3d-origin="254 : 95.250003 : 1"
       id="perspective4595" />
  </defs>
  <sodipodi:namedview
     id="base"
     pagecolor="#ffffff"
     bordercolor="#666666"
     borderopacity="1.0"
     inkscape:pageopacity="0.0"
     inkscape:pageshadow="2"
     inkscape:zoom="0.45254834"
     inkscape:cx="1413.2652"
     inkscape:cy="727.11509"
     inkscape:document-units="mm"
     inkscape:current-layer="g4636"
     showgrid="true"
     units="px"
     inkscape:window-width="1920"
     inkscape:window-height="1016"
     inkscape:window-x="0"
     inkscape:window-y="27"
     inkscape:window-maximized="1">
    <inkscape:grid
       type="xygrid"
       id="grid4485" />
  </sodipodi:namedview>
  <metadata
     id="metadata5">
    <rdf:RDF>
      <cc:Work
         rdf:about="">
        <dc:format>image/svg+xml</dc:format>
        <dc:type
           rdf:resource="http://purl.org/dc/dcmitype/StillImage" />
        <dc:title />
        <cc:license
           rdf:resource="http://creativecommons.org/licenses/by/4.0/" />
      </cc:Work>
      <cc:License
         rdf:about="http://creativecommons.org/licenses/by/4.0/">
        <cc:permits
           rdf:resource="http://creativecommons.org/ns#Reproduction" />
        <cc:permits
           rdf:resource="http://creativecommons.org/ns#Distribution" />
        <cc:requires
           rdf:resource="http://creativecommons.org/ns#Notice" />
        <cc:requires
           rdf:resource="http://creativecommons.org/ns#Attribution" />
        <cc:permits
           rdf:resource="http://creativecommons.org/ns#DerivativeWorks" />
      </cc:License>
    </rdf:RDF>
  </metadata>
  <g
     inkscape:label="Layer 1"
     inkscape:groupmode="layer"
     id="layer1"
     transform="translate(0,-11.249983)">
    <path
       inkscape:connector-curvature="0"
       id="path4685"
       d="m 66.145833,164.70832 10.583333,26.45834 63.500004,-26.45834 z"
       style="fill:#ff7300;fill-opacity:1;stroke:none;stroke-width:0.34157562px;stroke-linecap:butt;stroke-linejoin:miter;stroke-opacity:1" />
    <flowRoot
       xml:space="preserve"
       id="flowRoot4491"
       style="fill:black;fill-opacity:1;stroke:none;font-family:sans-serif;font-style:normal;font-weight:normal;font-size:40px;line-height:1.25;letter-spacing:0px;word-spacing:0px"><flowRegion
         id="flowRegion4493"><rect
           id="rect4495"
           width="980"
           height="480"
           x="400"
           y="180" /></flowRegion><flowPara
         id="flowPara4497" /></flowRoot>    <g
       id="g4636"
       transform="matrix(1.1833689,0,0,1.1833689,-40.399263,-53.892266)">
      <path
         inkscape:connector-curvature="0"
         id="path4499"
         d="M 87.931957,293.90077 H 422.31691 c 0,0 12.38465,0 12.38465,-12.38458 0,-12.38464 0,-74.30775 0,-74.30775 0,0 0,-12.38466 -12.38465,-12.38466 -12.38457,0 -334.384953,0 -334.384953,0 0,0 -12.38456,0 -12.38456,12.38466 0,12.38456 0,74.30775 0,74.30775 0,0 0,12.38458 12.38456,12.38458 z"
         style="fill:#a947ba;fill-opacity:1;stroke:none;stroke-width:2.47692537px;stroke-linecap:butt;stroke-linejoin:miter;stroke-opacity:1" />
      <g
         transform="matrix(1.9619688,0,0,1.9619688,-477.82872,-270.00596)"
         id="g4516">
        <path
           style="fill:#ff7300;fill-opacity:1;stroke:#ffffff;stroke-width:0.26458332px;stroke-linecap:butt;stroke-linejoin:miter;stroke-opacity:1"
           d="m 460.37499,249.37498 v -6.61458 c 0,0 0,-2.64584 2.64584,-2.64584 2.64583,0 3.96875,0 3.96875,0 0,0 2.64583,0 2.64583,2.64584 0,2.64583 0,6.61458 0,6.61458 z"
           id="path4502"
           inkscape:connector-curvature="0" />
        <path
           style="fill:#ff7300;fill-opacity:1;stroke:#ffffff;stroke-width:0.36500001;stroke-linecap:butt;stroke-linejoin:miter;stroke-miterlimit:4;stroke-dasharray:none;stroke-opacity:1"
           d="m 469.63542,246.72915 c 0,0 -0.40619,-1.25901 0.85282,-1.6652 1.25901,-0.4062 2.58676,0.0777 2.58676,0.0777 0,0 0.37789,-3.81431 -4.65816,-2.18954 -5.03605,1.62478 1.21858,3.77704 1.21858,3.77704 z"
           id="path4504"
           inkscape:connector-curvature="0"
           sodipodi:nodetypes="ccccc" />
        <path
           style="fill:#ff7300;fill-opacity:1;stroke:#ffffff;stroke-width:1;stroke-linecap:round;stroke-linejoin:round;stroke-miterlimit:4;stroke-dasharray:none;stroke-opacity:1;paint-order:stroke fill markers"
           d="m 433.91667,278.47915 c 0,0 16.81782,-3.36355 28.59031,-15.13604 11.77249,-11.77249 6.72714,-16.81784 6.72714,-16.81784 0,0 -5.04535,-5.04534 -16.81784,6.72715 -11.77249,11.77249 -18.49961,25.22673 -18.49961,25.22673 z"
           id="path4506"
           inkscape:connector-curvature="0" />
        <path
           inkscape:connector-curvature="0"
           id="path4508"
           d="m 432.4185,281.62166 c 0,0 16.81782,-3.36355 28.59031,-15.13604 11.77249,-11.77249 6.72714,-16.81784 6.72714,-16.81784 0,0 -5.04535,-5.04534 -16.81784,6.72715 -11.77249,11.77249 -18.49961,25.22673 -18.49961,25.22673 z"
           style="fill:#ff7300;fill-opacity:1;stroke:#ffffff;stroke-width:1;stroke-linecap:round;stroke-linejoin:round;stroke-miterlimit:4;stroke-dasharray:none;stroke-opacity:1;paint-order:stroke fill markers" />
        <circle
           style="fill:#ff7300;fill-opacity:1;stroke:#ffffff;stroke-width:0.36500001;stroke-linecap:round;stroke-linejoin:round;stroke-miterlimit:4;stroke-dasharray:none;stroke-opacity:1;paint-order:stroke fill markers"
           id="circle4510"
           cx="465.13748"
           cy="242.49582"
           r="1.3229166" />
        <circle
           style="fill:#ff7300;fill-opacity:1;stroke:#ffffff;stroke-width:0.36500001;stroke-linecap:round;stroke-linejoin:round;stroke-miterlimit:4;stroke-dasharray:none;stroke-opacity:1;paint-order:stroke fill markers"
           id="circle4512"
           cx="465.18579"
           cy="242.02184"
           r="0.66145831" />
        <path
           style="fill:#ff7300;fill-opacity:1;stroke:#ff7300;stroke-width:0.26458332px;stroke-linecap:butt;stroke-linejoin:miter;stroke-opacity:1"
           d="m 466.98958,240.64373 c 0,0 0.65127,1.62312 0.39244,1.62901 -0.44658,0.0102 -1.23951,-0.0682 -2.24453,-0.57068 -1.5875,-0.79375 -3.175,-0.52916 -3.175,-0.52916"
           id="path4514"
           inkscape:connector-curvature="0"
           sodipodi:nodetypes="cssc" />
      </g>
      <g
         id="g4574"
         transform="matrix(-1.9619688,0,0,1.9619688,978.29544,-270.00596)">
        <path
           inkscape:connector-curvature="0"
           id="path4560"
           d="m 460.37499,249.37498 v -6.61458 c 0,0 0,-2.64584 2.64584,-2.64584 2.64583,0 3.96875,0 3.96875,0 0,0 2.64583,0 2.64583,2.64584 0,2.64583 0,6.61458 0,6.61458 z"
           style="fill:#ff7300;fill-opacity:1;stroke:#ffffff;stroke-width:0.26458332px;stroke-linecap:butt;stroke-linejoin:miter;stroke-opacity:1" />
        <path
           sodipodi:nodetypes="ccccc"
           inkscape:connector-curvature="0"
           id="path4562"
           d="m 469.63542,246.72915 c 0,0 -0.40619,-1.25901 0.85282,-1.6652 1.25901,-0.4062 2.58676,0.0777 2.58676,0.0777 0,0 0.37789,-3.81431 -4.65816,-2.18954 -5.03605,1.62478 1.21858,3.77704 1.21858,3.77704 z"
           style="fill:#ff7300;fill-opacity:1;stroke:#ffffff;stroke-width:0.36500001;stroke-linecap:butt;stroke-linejoin:miter;stroke-miterlimit:4;stroke-dasharray:none;stroke-opacity:1" />
        <path
           inkscape:connector-curvature="0"
           id="path4564"
           d="m 433.91667,278.47915 c 0,0 16.81782,-3.36355 28.59031,-15.13604 11.77249,-11.77249 6.72714,-16.81784 6.72714,-16.81784 0,0 -5.04535,-5.04534 -16.81784,6.72715 -11.77249,11.77249 -18.49961,25.22673 -18.49961,25.22673 z"
           style="fill:#ff7300;fill-opacity:1;stroke:#ffffff;stroke-width:1;stroke-linecap:round;stroke-linejoin:round;stroke-miterlimit:4;stroke-dasharray:none;stroke-opacity:1;paint-order:stroke fill markers" />
        <path
           style="fill:#ff7300;fill-opacity:1;stroke:#ffffff;stroke-width:1;stroke-linecap:round;stroke-linejoin:round;stroke-miterlimit:4;stroke-dasharray:none;stroke-opacity:1;paint-order:stroke fill markers"
           d="m 432.4185,281.62166 c 0,0 16.81782,-3.36355 28.59031,-15.13604 11.77249,-11.77249 6.72714,-16.81784 6.72714,-16.81784 0,0 -5.04535,-5.04534 -16.81784,6.72715 -11.77249,11.77249 -18.49961,25.22673 -18.49961,25.22673 z"
           id="path4566"
           inkscape:connector-curvature="0" />
        <circle
           r="1.3229166"
           cy="242.49582"
           cx="465.13748"
           id="circle4568"
           style="fill:#ff7300;fill-opacity:1;stroke:#ffffff;stroke-width:0.36500001;stroke-linecap:round;stroke-linejoin:round;stroke-miterlimit:4;stroke-dasharray:none;stroke-opacity:1;paint-order:stroke fill markers" />
        <circle
           r="0.66145831"
           cy="242.02184"
           cx="465.18579"
           id="circle4570"
           style="fill:#ff7300;fill-opacity:1;stroke:#ffffff;stroke-width:0.36500001;stroke-linecap:round;stroke-linejoin:round;stroke-miterlimit:4;stroke-dasharray:none;stroke-opacity:1;paint-order:stroke fill markers" />
        <path
           sodipodi:nodetypes="cssc"
           inkscape:connector-curvature="0"
           id="path4572"
           d="m 462.52676,240.64373 c 0,0 -0.65127,1.62312 -0.39244,1.62901 0.44658,0.0102 1.23951,-0.0682 2.24453,-0.57068 1.5875,-0.79375 3.175,-0.52916 3.175,-0.52916"
           style="fill:#ff7300;fill-opacity:1;stroke:#ff7300;stroke-width:0.26458332px;stroke-linecap:butt;stroke-linejoin:miter;stroke-opacity:1" />
      </g>
      <path
         style="fill:#ff7300;fill-opacity:1;stroke:none;stroke-width:2.47692537px;stroke-linecap:butt;stroke-linejoin:miter;stroke-opacity:1"
         d="M 83.040833,291.70832 H 417.42579 c 0,0 12.38465,0 12.38465,-12.38458 0,-12.38464 0,-74.30775 0,-74.30775 0,0 0,-12.38466 -12.38465,-12.38466 -12.38457,0 -334.384957,0 -334.384957,0 0,0 -12.38456,0 -12.38456,12.38466 0,12.38456 0,74.30775 0,74.30775 0,0 0,12.38458 12.38456,12.38458 z"
         id="path4615"
         inkscape:connector-curvature="0" />
      <path
         inkscape:transform-center-y="-0.72352516"
         inkscape:transform-center-x="0.72352408"
         d="m 422.16265,284.31691 -9.41265,-3.19192 -7.9656,5.94437 0.12703,-9.93832 -8.11494,-5.73883 9.49116,-2.9503 2.9503,-9.49115 5.73882,8.11493 9.93832,-0.12703 -5.94436,7.96561 z"
         inkscape:randomized="0"
         inkscape:rounded="0"
         inkscape:flatsided="false"
         sodipodi:arg2="1.4137167"
         sodipodi:arg1="0.78539816"
         sodipodi:r2="7.4835467"
         sodipodi:r1="14.967093"
         sodipodi:cy="273.73358"
         sodipodi:cx="411.57932"
         sodipodi:sides="5"
         id="path4613"
         style="fill:#a947ba;fill-opacity:1;stroke:none;stroke-width:0.36500001;stroke-linecap:round;stroke-linejoin:round;stroke-miterlimit:4;stroke-dasharray:none;stroke-opacity:1;paint-order:stroke fill markers"
         sodipodi:type="star" />
    </g>
    <path
       style="fill:#a947ba;fill-opacity:1;stroke:none;stroke-width:0.34157562px;stroke-linecap:butt;stroke-linejoin:miter;stroke-opacity:1"
       d="m 60.854167,164.70831 10.583333,26.45834 63.5,-26.45834 z"
       id="path4683"
       inkscape:connector-curvature="0" />
  </g>
</svg>
