<?xml version="1.0" encoding="UTF-8" standalone="no"?>
<!-- Created with Inkscape (http://www.inkscape.org/) -->

<svg
   xmlns:dc="http://purl.org/dc/elements/1.1/"
   xmlns:cc="http://creativecommons.org/ns#"
   xmlns:rdf="http://www.w3.org/1999/02/22-rdf-syntax-ns#"
   xmlns:svg="http://www.w3.org/2000/svg"
   xmlns="http://www.w3.org/2000/svg"
   xmlns:sodipodi="http://sodipodi.sourceforge.net/DTD/sodipodi-0.dtd"
   xmlns:inkscape="http://www.inkscape.org/namespaces/inkscape"
   width="1793.223"
   height="322.56241"
   viewBox="0 0 474.45692 85.34464"
   version="1.1"
   id="svg8"
   inkscape:version="0.92.1 r"
   sodipodi:docname="textbox_plain.svg"
   inkscape:export-filename="/home/mbrickn/Projects/OO/game/images/textbox_plain.png"
   inkscape:export-xdpi="96"
   inkscape:export-ydpi="96">
  <defs
     id="defs2">
    <inkscape:perspective
       sodipodi:type="inkscape:persp3d"
       inkscape:vp_x="0 : 142.875 : 1"
       inkscape:vp_y="0 : 1000 : 0"
       inkscape:vp_z="507.99999 : 142.875 : 1"
       inkscape:persp3d-origin="254 : 95.250003 : 1"
       id="perspective4595" />
  </defs>
  <sodipodi:namedview
     id="base"
     pagecolor="#ffffff"
     bordercolor="#666666"
     borderopacity="1.0"
     inkscape:pageopacity="0.0"
     inkscape:pageshadow="2"
     inkscape:zoom="0.45254834"
     inkscape:cx="1462.6684"
     inkscape:cy="87.997727"
     inkscape:document-units="mm"
     inkscape:current-layer="g4527"
     showgrid="false"
     units="px"
     inkscape:window-width="1920"
     inkscape:window-height="1016"
     inkscape:window-x="0"
     inkscape:window-y="27"
     inkscape:window-maximized="1"
     fit-margin-top="0"
     fit-margin-left="0"
     fit-margin-right="0"
     fit-margin-bottom="0">
    <inkscape:grid
       type="xygrid"
       id="grid4485"
       originx="-18.490652"
       originy="-37.593689" />
  </sodipodi:namedview>
  <metadata
     id="metadata5">
    <rdf:RDF>
      <cc:Work
         rdf:about="">
        <dc:format>image/svg+xml</dc:format>
        <dc:type
           rdf:resource="http://purl.org/dc/dcmitype/StillImage" />
        <dc:title />
        <cc:license
           rdf:resource="http://creativecommons.org/licenses/by/4.0/" />
      </cc:Work>
      <cc:License
         rdf:about="http://creativecommons.org/licenses/by/4.0/">
        <cc:permits
           rdf:resource="http://creativecommons.org/ns#Reproduction" />
        <cc:permits
           rdf:resource="http://creativecommons.org/ns#Distribution" />
        <cc:requires
           rdf:resource="http://creativecommons.org/ns#Notice" />
        <cc:requires
           rdf:resource="http://creativecommons.org/ns#Attribution" />
        <cc:permits
           rdf:resource="http://creativecommons.org/ns#DerivativeWorks" />
      </cc:License>
    </rdf:RDF>
  </metadata>
  <g
     inkscape:label="Layer 1"
     inkscape:groupmode="layer"
     id="layer1"
     transform="translate(-18.490653,-174.06166)">
    <flowRoot
       xml:space="preserve"
       id="flowRoot4491"
       style="font-style:normal;font-weight:normal;font-size:40px;line-height:1.25;font-family:sans-serif;letter-spacing:0px;word-spacing:0px;fill:#000000;fill-opacity:1;stroke:none"><flowRegion
         id="flowRegion4493"><rect
           id="rect4495"
           width="980"
           height="480"
           x="400"
           y="180" /></flowRegion><flowPara
         id="flowPara4497" /></flowRoot>    <g
       id="g4636"
       transform="matrix(1.1833689,0,0,1.1833689,-40.399263,-53.892266)">
      <g
         id="g4527"
         transform="matrix(-1.9619688,0,0,1.9619688,979.22078,-278.46594)">
        <path
           inkscape:connector-curvature="0"
           id="path4512"
           d="m 460.37499,249.37498 v -6.61458 c 0,0 0,-2.64584 2.64584,-2.64584 2.64583,0 3.96875,0 3.96875,0 0,0 2.64583,0 2.64583,2.64584 0,2.64583 0,6.61458 0,6.61458 z"
           style="fill:#ff7300;fill-opacity:1;stroke:none;stroke-width:0.26458332px;stroke-linecap:butt;stroke-linejoin:miter;stroke-opacity:1" />
        <path
           sodipodi:nodetypes="ccccc"
           inkscape:connector-curvature="0"
           id="path4515"
           d="m 469.63542,246.72915 c 0,0 -0.40619,-1.25901 0.85282,-1.6652 1.25901,-0.4062 2.58676,0.0777 2.58676,0.0777 0,0 0.37789,-3.81431 -4.65816,-2.18954 -5.03605,1.62478 1.21858,3.77704 1.21858,3.77704 z"
           style="fill:#ff7300;fill-opacity:1;stroke:#672b72;stroke-width:0.19252861;stroke-linecap:butt;stroke-linejoin:miter;stroke-miterlimit:4;stroke-dasharray:none;stroke-opacity:1" />
        <path
           sodipodi:nodetypes="cscsc"
           inkscape:connector-curvature="0"
           id="path4517"
           d="m 439.86229,259.12423 c 0,0 10.8722,15.99137 22.64469,4.21888 11.77249,-11.77249 6.72714,-16.81784 6.72714,-16.81784 0,0 -5.04535,-5.04534 -16.81784,6.72715 -11.77249,11.77249 -12.55399,5.87181 -12.55399,5.87181 z"
           style="fill:#ff7300;fill-opacity:1;stroke:#672b72;stroke-width:0.65554482;stroke-linecap:round;stroke-linejoin:round;stroke-miterlimit:4;stroke-dasharray:none;stroke-opacity:1;paint-order:stroke fill markers" />
        <path
           sodipodi:nodetypes="cscsc"
           style="fill:#ff7300;fill-opacity:1;stroke:#672b72;stroke-width:1;stroke-linecap:round;stroke-linejoin:round;stroke-miterlimit:4;stroke-dasharray:none;stroke-opacity:1;paint-order:stroke fill markers"
           d="m 450.11864,260.26382 c 0,0 -0.88232,17.99429 10.89017,6.2218 11.77249,-11.77249 6.72714,-16.81784 6.72714,-16.81784 0,0 -5.04535,-5.04534 -16.81784,6.72715 -11.77249,11.77249 -0.79947,3.86889 -0.79947,3.86889 z"
           id="path4519"
           inkscape:connector-curvature="0" />
        <circle
           r="1.3229166"
           cy="242.49582"
           cx="465.13748"
           id="circle4521"
           style="fill:#ff7300;fill-opacity:1;stroke:#672b72;stroke-width:0.36500001;stroke-linecap:round;stroke-linejoin:round;stroke-miterlimit:4;stroke-dasharray:none;stroke-opacity:1;paint-order:stroke fill markers" />
        <circle
           r="0.66145831"
           cy="242.02184"
           cx="465.18579"
           id="circle4523"
           style="fill:#ff7300;fill-opacity:1;stroke:#672b72;stroke-width:0.14945734;stroke-linecap:round;stroke-linejoin:round;stroke-miterlimit:4;stroke-dasharray:none;stroke-opacity:1;paint-order:stroke fill markers" />
        <path
           sodipodi:nodetypes="cssc"
           inkscape:connector-curvature="0"
           id="path4525"
           d="m 462.52676,240.64373 c 0,0 -0.65127,1.62312 -0.39244,1.62901 0.44658,0.0102 1.23951,-0.0682 2.24453,-0.57068 1.5875,-0.79375 3.175,-0.52916 3.175,-0.52916"
           style="fill:#ff7300;fill-opacity:1;stroke:#ff7300;stroke-width:0.26458332px;stroke-linecap:butt;stroke-linejoin:miter;stroke-opacity:1" />
      </g>
      <path
         inkscape:connector-curvature="0"
         id="path4499"
         d="M 87.931957,264.75139 H 422.31691 c 0,0 12.38465,0 12.38465,-8.81981 0,-8.81984 0,-52.91901 0,-52.91901 0,0 0,-8.81986 -12.38465,-8.81986 -12.38457,0 -334.384953,0 -334.384953,0 0,0 -12.38456,0 -12.38456,8.81986 0,8.81979 0,52.91901 0,52.91901 0,0 0,8.81981 12.38456,8.81981 z"
         style="fill:#672b72;fill-opacity:1;stroke:none;stroke-width:2.09026694px;stroke-linecap:butt;stroke-linejoin:miter;stroke-opacity:1" />
      <g
         transform="matrix(1.9619688,0,0,1.9619688,-478.7075,-278.38505)"
         id="g4516">
        <path
           style="fill:#ff7300;fill-opacity:1;stroke:none;stroke-width:0.26458332px;stroke-linecap:butt;stroke-linejoin:miter;stroke-opacity:1"
           d="m 460.37499,249.37498 v -6.61458 c 0,0 0,-2.64584 2.64584,-2.64584 2.64583,0 3.96875,0 3.96875,0 0,0 2.64583,0 2.64583,2.64584 0,2.64583 0,6.61458 0,6.61458 z"
           id="path4502"
           inkscape:connector-curvature="0" />
        <path
           style="fill:#ff7300;fill-opacity:1;stroke:#672b72;stroke-width:0.19252861;stroke-linecap:butt;stroke-linejoin:miter;stroke-miterlimit:4;stroke-dasharray:none;stroke-opacity:1"
           d="m 469.63542,246.72915 c 0,0 -0.40619,-1.25901 0.85282,-1.6652 1.25901,-0.4062 2.58676,0.0777 2.58676,0.0777 0,0 0.37789,-3.81431 -4.65816,-2.18954 -5.03605,1.62478 1.21858,3.77704 1.21858,3.77704 z"
           id="path4504"
           inkscape:connector-curvature="0"
           sodipodi:nodetypes="ccccc" />
        <path
           style="fill:#ff7300;fill-opacity:1;stroke:#672b72;stroke-width:0.65554484;stroke-linecap:round;stroke-linejoin:round;stroke-miterlimit:4;stroke-dasharray:none;stroke-opacity:1;paint-order:stroke fill markers"
           d="m 439.86229,259.12423 c 0,0 10.8722,15.99137 22.64469,4.21888 11.77249,-11.77249 6.72714,-16.81784 6.72714,-16.81784 0,0 -5.04535,-5.04534 -16.81784,6.72715 -11.77249,11.77249 -12.55399,5.87181 -12.55399,5.87181 z"
           id="path4506"
           inkscape:connector-curvature="0"
           sodipodi:nodetypes="cscsc" />
        <path
           inkscape:connector-curvature="0"
           id="path4508"
           d="m 450.11864,260.26382 c 0,0 -0.88232,17.99429 10.89017,6.2218 11.77249,-11.77249 6.72714,-16.81784 6.72714,-16.81784 0,0 -5.04535,-5.04534 -16.81784,6.72715 -11.77249,11.77249 -0.79947,3.86889 -0.79947,3.86889 z"
           style="fill:#ff7300;fill-opacity:1;stroke:#672b72;stroke-width:1;stroke-linecap:round;stroke-linejoin:round;stroke-miterlimit:4;stroke-dasharray:none;stroke-opacity:1;paint-order:stroke fill markers"
           sodipodi:nodetypes="cscsc" />
        <circle
           style="fill:#ff7300;fill-opacity:1;stroke:#672b72;stroke-width:0.36500001;stroke-linecap:round;stroke-linejoin:round;stroke-miterlimit:4;stroke-dasharray:none;stroke-opacity:1;paint-order:stroke fill markers"
           id="circle4510"
           cx="465.13748"
           cy="242.49582"
           r="1.3229166" />
        <circle
           style="fill:#ff7300;fill-opacity:1;stroke:#672b72;stroke-width:0.14945733;stroke-linecap:round;stroke-linejoin:round;stroke-miterlimit:4;stroke-dasharray:none;stroke-opacity:1;paint-order:stroke fill markers"
           id="circle4512"
           cx="465.18579"
           cy="242.02184"
           r="0.66145831" />
        <path
           style="fill:#ff7300;fill-opacity:1;stroke:#ff7300;stroke-width:0.26458332px;stroke-linecap:butt;stroke-linejoin:miter;stroke-opacity:1"
           d="m 466.98958,240.64373 c 0,0 0.65127,1.62312 0.39244,1.62901 -0.44658,0.0102 -1.23951,-0.0682 -2.24453,-0.57068 -1.5875,-0.79375 -3.175,-0.52916 -3.175,-0.52916"
           id="path4514"
           inkscape:connector-curvature="0"
           sodipodi:nodetypes="cssc" />
      </g>
      <path
         style="fill:#ff7300;fill-opacity:1;stroke:none;stroke-width:2.09026694px;stroke-linecap:butt;stroke-linejoin:miter;stroke-opacity:1"
         d="M 83.040833,263.19001 H 417.42579 c 0,0 12.37407,-10e-6 12.38465,-8.8198 l 0.0739,-61.59382 c -107.09696,-0.30677 -241.61592,-0.0488 -357.735722,0 h -1.117924 l -0.374421,61.59384 c 0,0 0,8.8198 12.38456,8.8198 z"
         id="path4615"
         inkscape:connector-curvature="0"
         sodipodi:nodetypes="ccsccccsc" />
      <path
         style="fill:#672b72;fill-opacity:1;stroke:none;stroke-width:1.94390488px;stroke-linecap:butt;stroke-linejoin:miter;stroke-opacity:1"
         d="M 94.784735,260.71834 H 405.75579 c 0,0 11.51747,0 11.51747,-8.20224 0,-8.20227 0,-49.21358 0,-49.21358 0,0 0,-8.20229 -11.51747,-8.20229 -11.51739,0 -310.971055,0 -310.971055,0 0,0 -11.517384,0 -11.517384,8.20229 0,8.20222 0,49.21358 0,49.21358 0,0 0,8.20224 11.517384,8.20224 z"
         id="path4510"
         inkscape:connector-curvature="0" />
      <path
         sodipodi:type="star"
         style="fill:#672b72;fill-opacity:1;stroke:none;stroke-width:1.28615856;stroke-linecap:round;stroke-linejoin:round;stroke-miterlimit:4;stroke-dasharray:none;stroke-opacity:1;paint-order:stroke fill markers"
         id="path4511"
         sodipodi:sides="5"
         sodipodi:cx="81.816597"
         sodipodi:cy="196.10831"
         sodipodi:r1="2.3862574"
         sodipodi:r2="1.1931286"
         sodipodi:arg1="0.18216831"
         sodipodi:arg2="0.81048684"
         inkscape:flatsided="false"
         inkscape:rounded="0"
         inkscape:randomized="0"
         d="m 84.163369,196.54061 -1.524533,0.43227 -0.508188,1.50093 -0.882218,-1.31634 -1.584511,-0.0195 0.979292,-1.24581 -0.471093,-1.51299 1.487454,0.54639 1.293359,-0.91558 -0.06,1.5835 z"
         inkscape:transform-center-x="-0.11484199"
         inkscape:transform-center-y="0.15808311" />
      <path
         sodipodi:type="star"
         style="fill:#672b72;fill-opacity:1;stroke:none;stroke-width:1.28615856;stroke-linecap:round;stroke-linejoin:round;stroke-miterlimit:4;stroke-dasharray:none;stroke-opacity:1;paint-order:stroke fill markers"
         id="path4513"
         sodipodi:sides="5"
         sodipodi:cx="421.48102"
         sodipodi:cy="195.89215"
         sodipodi:r1="2.5686824"
         sodipodi:r2="1.2843412"
         sodipodi:arg1="0.47439988"
         sodipodi:arg2="1.1027184"
         inkscape:flatsided="false"
         inkscape:rounded="0"
         inkscape:randomized="0"
         d="m 423.76603,197.06554 -1.70555,-0.0272 -0.98931,1.38959 -0.50118,-1.63049 -1.62729,-0.51148 1.39581,-0.9805 -0.0164,-1.7057 1.36384,1.0245 1.61714,-0.54269 -0.5529,1.61368 z"
         inkscape:transform-center-x="0.14987256"
         inkscape:transform-center-y="0.14400757" />
      <path
         sodipodi:type="spiral"
         style="fill:none;fill-rule:evenodd;stroke:#672b72;stroke-width:0.22358483;stroke-opacity:1"
         id="path4516"
         sodipodi:cx="421.78979"
         sodipodi:cy="257.03174"
         sodipodi:expansion="1"
         sodipodi:revolution="3"
         sodipodi:radius="3.9567988"
         sodipodi:argument="-18.896397"
         sodipodi:t0="0"
         d="m 421.78979,257.03174 c 0.19817,-0.009 0.1103,0.26254 0.0154,0.32937 -0.25704,0.18109 -0.58099,-0.0471 -0.67418,-0.29849 -0.1667,-0.44967 0.18149,-0.90623 0.61243,-1.019 0.63241,-0.16549 1.23716,0.31627 1.3638,0.92636 0.16879,0.81316 -0.451,1.5703 -1.24029,1.70862 -0.99324,0.17406 -1.90452,-0.58567 -2.05342,-1.55423 -0.18035,-1.17304 0.72029,-2.23936 1.86815,-2.39823 1.35272,-0.18723 2.57459,0.85488 2.74305,2.18208 0.19449,1.53231 -0.98946,2.91009 -2.49602,3.08786 -1.71185,0.202 -3.24575,-1.12401 -3.43267,-2.80995 -0.20969,-1.89137 1.25856,-3.58156 3.12388,-3.77748 2.07086,-0.21751 3.91746,1.3931 4.12229,3.43782" />
      <path
         sodipodi:type="spiral"
         style="fill:none;fill-rule:evenodd;stroke:#672b72;stroke-width:0.22358483;stroke-opacity:1"
         id="path4518"
         sodipodi:cx="77.188705"
         sodipodi:cy="254.27086"
         sodipodi:expansion="1"
         sodipodi:revolution="3"
         sodipodi:radius="5.1291924"
         sodipodi:argument="-18.100286"
         sodipodi:t0="0"
         d="m 77.188705,254.27086 c 0.188297,0.17516 -0.143212,0.34024 -0.291126,0.31296 -0.400837,-0.0739 -0.48317,-0.58094 -0.334795,-0.89521 0.26541,-0.56216 1.004079,-0.65359 1.4993,-0.35663 0.726756,0.4358 0.828811,1.43286 0.378464,2.10338 -0.600243,0.8937 -1.863649,1.00607 -2.707473,0.4003 -1.061866,-0.76229 -1.184365,-2.29538 -0.422133,-3.31156 0.923165,-1.23073 2.727641,-1.36327 3.915646,-0.44396 1.400024,1.08336 1.542558,3.16023 0.465802,4.51973 -1.243158,1.56959 -3.593052,1.7221 -5.12382,0.48763 -1.739355,-1.40267 -1.901815,-4.02602 -0.50947,-5.7279 1.562002,-1.90926 4.45911,-2.08167 6.331993,-0.53131 2.079254,1.72119 2.261606,4.89228 0.553139,6.93608" />
    </g>
  </g>
</svg>
