<?xml version="1.0" encoding="UTF-8" standalone="no"?>
<!-- Created with Inkscape (http://www.inkscape.org/) -->

<svg
   xmlns:dc="http://purl.org/dc/elements/1.1/"
   xmlns:cc="http://creativecommons.org/ns#"
   xmlns:rdf="http://www.w3.org/1999/02/22-rdf-syntax-ns#"
   xmlns:svg="http://www.w3.org/2000/svg"
   xmlns="http://www.w3.org/2000/svg"
   xmlns:sodipodi="http://sodipodi.sourceforge.net/DTD/sodipodi-0.dtd"
   xmlns:inkscape="http://www.inkscape.org/namespaces/inkscape"
   width="250"
   height="250"
   viewBox="0 0 66.145832 66.145835"
   version="1.1"
   id="svg8"
   inkscape:version="0.92.1 r"
   sodipodi:docname="window_icon.svg"
   inkscape:export-filename="/home/mbrickn/Projects/Operation_Ohio/game/images/source/window_icon.png"
   inkscape:export-xdpi="90"
   inkscape:export-ydpi="90">
  <defs
     id="defs2" />
  <sodipodi:namedview
     id="base"
     pagecolor="#ffffff"
     bordercolor="#666666"
     borderopacity="1.0"
     inkscape:pageopacity="0.0"
     inkscape:pageshadow="2"
     inkscape:zoom="2.8"
     inkscape:cx="91.326321"
     inkscape:cy="132.2084"
     inkscape:document-units="mm"
     inkscape:current-layer="layer1"
     showgrid="false"
     units="px"
     inkscape:window-width="1920"
     inkscape:window-height="1016"
     inkscape:window-x="0"
     inkscape:window-y="27"
     inkscape:window-maximized="1">
    <inkscape:grid
       type="xygrid"
       id="grid4485" />
  </sodipodi:namedview>
  <metadata
     id="metadata5">
    <rdf:RDF>
      <cc:Work
         rdf:about="">
        <dc:format>image/svg+xml</dc:format>
        <dc:type
           rdf:resource="http://purl.org/dc/dcmitype/StillImage" />
        <dc:title></dc:title>
        <cc:license
           rdf:resource="http://creativecommons.org/licenses/by/4.0/" />
      </cc:Work>
      <cc:License
         rdf:about="http://creativecommons.org/licenses/by/4.0/">
        <cc:permits
           rdf:resource="http://creativecommons.org/ns#Reproduction" />
        <cc:permits
           rdf:resource="http://creativecommons.org/ns#Distribution" />
        <cc:requires
           rdf:resource="http://creativecommons.org/ns#Notice" />
        <cc:requires
           rdf:resource="http://creativecommons.org/ns#Attribution" />
        <cc:permits
           rdf:resource="http://creativecommons.org/ns#DerivativeWorks" />
      </cc:License>
    </rdf:RDF>
  </metadata>
  <g
     inkscape:label="Layer 1"
     inkscape:groupmode="layer"
     id="layer1"
     transform="translate(0,-230.85415)">
    <g
       aria-label="VN
XV"
       transform="matrix(1.1138241,0,0,1.1138241,-1.4256966,224.74515)"
       style="font-style:normal;font-weight:normal;font-size:40px;line-height:1.25;font-family:sans-serif;letter-spacing:0px;word-spacing:0px;fill:#b35c9b;fill-opacity:1;stroke:none"
       id="flowRoot4489">
      <path
         d="m 17.32,29.435659 -7.32,-18.6 c -0.1999997,-0.48 -0.3199997,-0.9600001 -0.3199997,-1.2000001 0,-0.72 0.6799997,-1 2.4799997,-1 h 1.6 v -1.88 H 1.2800003 v 1.88 h 0.8 c 1.8,0 2.32,0.4 3.08,2.2400001 L 15.28,36.235659 h 1.6 l 9.2,-23.68 c 1.2,-3.1200001 2.08,-3.9200001 4.36,-3.9200001 h 0.4 v -1.88 H 20 v 1.88 h 0.76 c 2.04,0 3.24,0.8 3.24,2.0800001 0,0.56 -0.2,1.48 -0.48,2.24 z"
         style="font-style:normal;font-variant:normal;font-weight:normal;font-stretch:normal;font-family:'Century Schoolbook L';-inkscape-font-specification:'Century Schoolbook L';fill:#b35c9b;fill-opacity:1"
         id="path4499"
         inkscape:connector-curvature="0" />
      <path
         d="m 37.90625,6.7556589 h -8.24 v 1.88 h 1 c 2.04,0 2.96,0.32 3.68,1.32 V 26.955659 c 0,5.48 -0.8,6.64 -4.64,6.8 v 1.88 h 11.4 v -1.88 c -3.8,-0.16 -4.6,-1.32 -4.6,-6.8 v -14.84 l 17.84,24.08 h 1.68 v -20.76 c 0,-5.4800001 0.8,-6.6400001 4.64,-6.8000001 v -1.88 h -11.4 v 1.88 c 3.8,0.16 4.6,1.32 4.6,6.8000001 v 12.56 z"
         style="font-style:normal;font-variant:normal;font-weight:normal;font-stretch:normal;font-family:'Century Schoolbook L';-inkscape-font-specification:'Century Schoolbook L';fill:#b35c9b;fill-opacity:1"
         id="path4501"
         inkscape:connector-curvature="0" />
      <path
         d="m 27.88,47 5.32,-7.24 c 2.24,-3 3.36,-3.76 5.48,-3.76 h 0.64 v -1.88 h -11 V 36 h 0.56 c 1.92,0 2.76,0.48 2.76,1.56 0,0.44 -0.12,0.72 -0.56,1.36 L 26.76,45.2 21.44,37.52 C 21.16,37.12 21,36.72 21,36.52 21,36.12 21.4,36 22.92,36 h 1.52 V 34.12 H 12.080001 V 36 h 0.68 c 1.96,0 2.44,0.2 3.359999,1.52 l 7.88,11.4 -6.48,9 c -1.56,2.24 -3.199999,3.2 -5.239999,3.2 h -0.16 V 63 H 23.48 v -1.88 h -1 c -1.6,0 -2.6,-0.72 -2.6,-1.92 0,-0.52 0.24,-1.16 0.64,-1.76 l 4.64,-6.72 5.96,8.44 c 0.32,0.48 0.52,0.92 0.52,1.24 0,0.64 -0.16,0.68 -2.68,0.72 H 27.84 V 63 h 13.12 v -1.88 h -0.48 c -2.56,0 -2.84,-0.12 -4.2,-2.08 z"
         style="font-style:normal;font-variant:normal;font-weight:normal;font-stretch:normal;font-family:'Century Schoolbook L';-inkscape-font-specification:'Century Schoolbook L';fill:#b35c9b;fill-opacity:1"
         id="path4503"
         inkscape:connector-curvature="0" />
      <path
         d="m 45.560001,56.8 -7.32,-18.6 c -0.2,-0.48 -0.32,-0.96 -0.32,-1.2 0,-0.72 0.68,-1 2.48,-1 h 1.6 v -1.88 h -12.48 V 36 h 0.8 c 1.8,0 2.32,0.4 3.08,2.24 l 10.12,25.36 h 1.6 l 9.2,-23.68 c 1.2,-3.12 2.08,-3.92 4.36,-3.92 h 0.4 v -1.88 h -10.84 V 36 h 0.76 c 2.04,0 3.24,0.8 3.24,2.08 0,0.56 -0.2,1.48 -0.48,2.24 z"
         style="font-style:normal;font-variant:normal;font-weight:normal;font-stretch:normal;font-family:'Century Schoolbook L';-inkscape-font-specification:'Century Schoolbook L';fill:#b35c9b;fill-opacity:1"
         id="path4505"
         inkscape:connector-curvature="0" />
    </g>
  </g>
</svg>
