<?xml version="1.0" encoding="UTF-8" standalone="no"?>
<!-- Created with Inkscape (http://www.inkscape.org/) -->

<svg
   xmlns:dc="http://purl.org/dc/elements/1.1/"
   xmlns:cc="http://creativecommons.org/ns#"
   xmlns:rdf="http://www.w3.org/1999/02/22-rdf-syntax-ns#"
   xmlns:svg="http://www.w3.org/2000/svg"
   xmlns="http://www.w3.org/2000/svg"
   xmlns:sodipodi="http://sodipodi.sourceforge.net/DTD/sodipodi-0.dtd"
   xmlns:inkscape="http://www.inkscape.org/namespaces/inkscape"
   width="140.00003"
   height="170.51004"
   viewBox="0 0 37.041676 45.114113"
   version="1.1"
   id="svg8"
   inkscape:version="0.92+devel unknown"
   sodipodi:docname="orion chibi.svg"
   inkscape:export-filename="/home/mbrickn/Projects/Operation-Ohio/game/images/characters/orion/orion chibi.png"
   inkscape:export-xdpi="90"
   inkscape:export-ydpi="90">
  <defs
     id="defs2" />
  <sodipodi:namedview
     id="base"
     pagecolor="#ffffff"
     bordercolor="#666666"
     borderopacity="1.0"
     inkscape:pageopacity="0.0"
     inkscape:pageshadow="2"
     inkscape:zoom="1.979899"
     inkscape:cx="61.420305"
     inkscape:cy="97.713959"
     inkscape:document-units="mm"
     inkscape:current-layer="layer1"
     showgrid="false"
     inkscape:window-width="1920"
     inkscape:window-height="1016"
     inkscape:window-x="0"
     inkscape:window-y="0"
     inkscape:window-maximized="1"
     fit-margin-top="0"
     fit-margin-left="0"
     fit-margin-right="0"
     fit-margin-bottom="0"
     units="px"
     showguides="false"
     inkscape:document-rotation="0">
    <inkscape:grid
       type="xygrid"
       id="grid10"
       originx="-65.484378"
       originy="-46.167127" />
  </sodipodi:namedview>
  <metadata
     id="metadata5">
    <rdf:RDF>
      <cc:Work
         rdf:about="">
        <dc:format>image/svg+xml</dc:format>
        <dc:type
           rdf:resource="http://purl.org/dc/dcmitype/StillImage" />
        <dc:title />
        <cc:license
           rdf:resource="http://creativecommons.org/licenses/by/4.0/" />
      </cc:Work>
      <cc:License
         rdf:about="http://creativecommons.org/licenses/by/4.0/">
        <cc:permits
           rdf:resource="http://creativecommons.org/ns#Reproduction" />
        <cc:permits
           rdf:resource="http://creativecommons.org/ns#Distribution" />
        <cc:requires
           rdf:resource="http://creativecommons.org/ns#Notice" />
        <cc:requires
           rdf:resource="http://creativecommons.org/ns#Attribution" />
        <cc:permits
           rdf:resource="http://creativecommons.org/ns#DerivativeWorks" />
      </cc:License>
    </rdf:RDF>
  </metadata>
  <g
     inkscape:groupmode="layer"
     id="layer3"
     inkscape:label="Apendages"
     transform="translate(-65.484376,-205.71876)">
    <path
       inkscape:connector-curvature="0"
       id="path4602"
       d="m 83.958127,249.03764 v -2.58499 h 0.386289 v 2.62676 z"
       style="fill:#ffccaa;stroke:none;stroke-width:0.26458332px;stroke-linecap:butt;stroke-linejoin:miter;stroke-opacity:1" />
    <path
       style="fill:#ffccaa;stroke:none;stroke-width:0.26458332px;stroke-linecap:butt;stroke-linejoin:miter;stroke-opacity:1;fill-opacity:1"
       d="m 83.222044,249.06864 v -2.58499 h 0.386289 v 2.62676 z"
       id="path4600"
       inkscape:connector-curvature="0" />
    <path
       style="fill:#aaccff;stroke:#aaccff;stroke-width:0.26458332px;stroke-linecap:butt;stroke-linejoin:miter;stroke-opacity:1;fill-opacity:1"
       d="m 83.872913,249.11041 0.264583,0.26459 v 0 1.32291 c 0.02298,-0.002 1.322917,0 1.322917,0 0,0 0,-0.52916 -0.529167,-0.52916 -0.529166,0 -0.529166,-1.05834 -0.529166,-1.05834 z"
       id="path4596"
       inkscape:connector-curvature="0"
       sodipodi:nodetypes="cccccscc" />
    <path
       inkscape:connector-curvature="0"
       id="path4598"
       d="m 83.608333,249.11041 -0.176389,0.26459 v 0 1.32291 H 82.55 c 0,0 0,-0.52916 0.352778,-0.52916 0.352777,0 0.352777,-1.05834 0.352777,-1.05834 z"
       style="fill:#aaccff;stroke:#aaccff;stroke-width:0.21603134px;stroke-linecap:butt;stroke-linejoin:miter;stroke-opacity:1;fill-opacity:1"
       sodipodi:nodetypes="cccccscc" />
    <g
       id="g877"
       transform="translate(0.48428199,-0.42522321)">
      <path
         inkscape:connector-curvature="0"
         id="path4604"
         d="m 82.586284,239.87949 c 0,0 -2.488949,1.39481 -2.664344,2.09639 -0.07517,0.45102 0.300678,0.20045 0.476073,-0.0501 0.175398,-0.25056 1.779013,-1.39481 2.129806,-1.57856 0.35079,-0.18375 0.05847,-0.46772 0.05847,-0.46772 z"
         style="fill:#ffeeaa;fill-opacity:1;stroke:none;stroke-width:0.26458332px;stroke-linecap:butt;stroke-linejoin:miter;stroke-opacity:1" />
      <path
         style="fill:#ffeeaa;fill-opacity:1;stroke:none;stroke-width:0.26458332px;stroke-linecap:butt;stroke-linejoin:miter;stroke-opacity:1"
         d="m 82.586284,244.24581 c 0,0 -2.488949,-1.39481 -2.664344,-2.09639 -0.07517,-0.45102 0.300678,-0.20045 0.476073,0.0501 0.175398,0.25056 1.779013,1.39481 2.129806,1.57856 0.35079,0.18375 0.05847,0.46772 0.05847,0.46772 z"
         id="path4606"
         inkscape:connector-curvature="0" />
    </g>
    <g
       id="g881"
       transform="translate(-1.0512463,-0.11811756)">
      <path
         style="fill:#ffeeaa;fill-opacity:1;stroke:none;stroke-width:0.26458332px;stroke-linecap:butt;stroke-linejoin:miter;stroke-opacity:1"
         d="m 85.636623,239.87949 c 0,0 2.488949,1.39481 2.664344,2.09639 0.07517,0.45102 -0.300678,0.20045 -0.476073,-0.0501 -0.175398,-0.25056 -1.779013,-1.39481 -2.129806,-1.57856 -0.35079,-0.18375 -0.05847,-0.46772 -0.05847,-0.46772 z"
         id="path4608"
         inkscape:connector-curvature="0" />
      <path
         inkscape:connector-curvature="0"
         id="path4610"
         d="m 85.636623,244.24581 c 0,0 2.488949,-1.39481 2.664344,-2.09639 0.07517,-0.45102 -0.300678,-0.20045 -0.476073,0.0501 -0.175398,0.25056 -1.779013,1.39481 -2.129806,1.57856 -0.35079,0.18375 -0.05847,0.46772 -0.05847,0.46772 z"
         style="fill:#ffeeaa;fill-opacity:1;stroke:none;stroke-width:0.26458332px;stroke-linecap:butt;stroke-linejoin:miter;stroke-opacity:1" />
    </g>
  </g>
  <g
     inkscape:groupmode="layer"
     id="layer2"
     inkscape:label="Body"
     transform="translate(-65.484376,-205.71876)">
    <path
       style="fill:#aaccff;stroke:none;stroke-width:0.26458332px;stroke-linecap:butt;stroke-linejoin:miter;stroke-opacity:1"
       d="m 82.90081,246.39166 1.71861,-0.18309 -0.106302,1.45875 -0.615447,0.031 -0.0109,-0.2832 -0.188749,0.002 -0.0068,0.29652 -0.743193,0.0184 z"
       id="path43"
       inkscape:connector-curvature="0"
       sodipodi:nodetypes="ccccccccc" />
    <path
       style="fill:#ffeeaa;stroke:none;stroke-width:0.26458332px;stroke-linecap:butt;stroke-linejoin:miter;stroke-opacity:1"
       d="m 82.90081,246.39166 1.71861,-0.18309 1.015811,-7.55362 -3.011998,-0.0236 z"
       id="path45"
       inkscape:connector-curvature="0"
       sodipodi:nodetypes="ccccc" />
  </g>
  <g
     inkscape:label="Head"
     inkscape:groupmode="layer"
     id="layer1"
     transform="translate(-65.484376,-205.71876)">
    <path
       style="fill:#ffeeaa;stroke:none;stroke-width:0.26458332px;stroke-linecap:butt;stroke-linejoin:miter;stroke-opacity:1"
       d="m 84.005209,205.71876 c 0,0 -15.875,0 -15.875,15.875 -0.09449,6.66183 0,6.61458 0,6.61458 0,0 0,2.64583 -2.645833,2.64583 0,0 0,3.96875 3.96875,3.96875 h 1.322916 26.458334 1.32292 c 3.968744,0 3.968754,-3.96875 3.968754,-3.96875 -2.645844,0 -2.645844,-2.64583 -2.645844,-2.64583 0,0 0.0945,0.0472 0,-6.61458 0,-15.875 -15.874997,-15.875 -15.874997,-15.875 z"
       id="path4498"
       inkscape:connector-curvature="0" />
    <circle
       id="path14"
       cx="84.005211"
       cy="223.71986"
       r="15.213541"
       style="fill:#ffccaa;stroke-width:0.26458332;fill-opacity:1" />
    <path
       style="fill:#cd9d7d;fill-opacity:1;stroke:none;stroke-width:0.22563741px;stroke-linecap:butt;stroke-linejoin:miter;stroke-opacity:1"
       d="m 68.791666,220.51136 c 0,0 27.781249,1.92424 30.427083,0.96213 -4.003982,-6.85929 -13.229167,-11.54546 -13.229167,-11.54546 l -7.9375,0.96212 -7.9375,6.73485 z"
       id="path4517"
       inkscape:connector-curvature="0" />
    <path
       style="fill:#ffeeaa;fill-opacity:1;stroke:none;stroke-width:0.22599274;stroke-linecap:butt;stroke-linejoin:miter;stroke-miterlimit:4;stroke-dasharray:none;stroke-opacity:1"
       d="m 68.791666,220.51136 c 0,0 16.725447,1e-5 17.197916,-10.58333 -0.57,-0.50091 -0.621297,-1.39937 -1.142264,-1.99824 -0.515418,-0.59251 -1.503569,-0.88812 -1.503569,-0.88812 0,0 -10.364308,0.56389 -13.229167,5.77273 -2.645832,4.8106 -1.322916,7.69696 -1.322916,7.69696 z"
       id="path4501"
       inkscape:connector-curvature="0"
       sodipodi:nodetypes="ccscsc" />
    <path
       sodipodi:nodetypes="cccsc"
       inkscape:connector-curvature="0"
       id="path4503"
       d="m 99.21875,221.85833 c 0,0 -15.402531,-2.30908 -15.875,-12.89242 1.133928,-0.99648 1.322917,-0.96212 1.322917,-0.96212 0,0 10.364308,0.56389 13.229167,5.77273 2.645836,4.8106 1.322916,8.08181 1.322916,8.08181 z"
       style="fill:#ffeeaa;fill-opacity:1;stroke:none;stroke-width:0.22599274;stroke-linecap:butt;stroke-linejoin:miter;stroke-miterlimit:4;stroke-dasharray:none;stroke-opacity:1" />
    <path
       style="fill:#ffeeaa;fill-opacity:1;stroke:none;stroke-width:0.26458332px;stroke-linecap:butt;stroke-linejoin:miter;stroke-opacity:1"
       d="m 68.791666,220.51136 c 0,0 0.644977,3.43709 2.404226,4.33608 -0.696565,-4.93028 0.301598,-6.67502 0.301598,-6.67502 z"
       id="path4495"
       inkscape:connector-curvature="0" />
    <path
       inkscape:connector-curvature="0"
       id="path4497"
       d="m 78.637165,216.36426 c 0,0 2.57148,2.37004 2.400317,4.33824 -3.809892,-3.20586 -5.818409,-3.28526 -5.818409,-3.28526 z"
       style="fill:#ffeeaa;fill-opacity:1;stroke:none;stroke-width:0.26458332px;stroke-linecap:butt;stroke-linejoin:miter;stroke-opacity:1" />
    <path
       style="fill:#ffeeaa;fill-opacity:1;stroke:none;stroke-width:0.26458332px;stroke-linecap:butt;stroke-linejoin:miter;stroke-opacity:1"
       d="m 90.656961,216.36426 c 0,0 -2.57148,2.37004 -2.400317,4.33824 3.809892,-3.20586 5.818409,-3.28526 5.818409,-3.28526 z"
       id="path4499"
       inkscape:connector-curvature="0" />
    <path
       inkscape:connector-curvature="0"
       id="path852"
       d="m 69.076568,230.17607 c 0,0 -1.615831,0.18005 -3.27039,-0.89955 4.624252,-1.84639 2.75213,-3.07866 2.75213,-3.07866 z"
       style="fill:#ffeeaa;fill-opacity:1;stroke:none;stroke-width:0.26458332px;stroke-linecap:butt;stroke-linejoin:miter;stroke-opacity:1"
       sodipodi:nodetypes="cccc" />
    <path
       style="fill:#ffeeaa;fill-opacity:1;stroke:none;stroke-width:0.17529106px;stroke-linecap:butt;stroke-linejoin:miter;stroke-opacity:1"
       d="m 69.540798,231.48093 c 0,0 1.44977,1.1489 2.176004,0.0693 -2.029719,-1.84639 -2.476431,-3.57979 -2.476431,-3.57979 z"
       id="path854"
       inkscape:connector-curvature="0" />
    <ellipse
       style="fill:#d35f5f;fill-opacity:1;stroke:none;stroke-width:0.26499999;stroke-miterlimit:4;stroke-dasharray:none;stroke-opacity:1"
       id="path856"
       cx="84.402084"
       cy="235.21979"
       rx="2.3812499"
       ry="1.7197917" />
    <path
       style="fill:#2b0000;fill-opacity:1;stroke:none;stroke-width:1.00157475;stroke-miterlimit:4;stroke-dasharray:none;stroke-opacity:1"
       d="M 71.5 105 A 8.9999996 6.4999999 0 0 0 62.5 111.5 A 8.9999996 6.4999999 0 0 0 70.113281 117.91406 A 5.9999999 5.4999999 0 0 1 69.5 115.5 A 5.9999999 5.4999999 0 0 1 75.5 110 A 5.9999999 5.4999999 0 0 1 80.412109 112.35352 A 8.9999996 6.4999999 0 0 0 80.5 111.5 A 8.9999996 6.4999999 0 0 0 71.5 105 z "
       transform="matrix(0.26458333,0,0,0.26458333,65.484376,205.71876)"
       id="ellipse860" />
    <path
       inkscape:connector-curvature="0"
       id="path863"
       d="m 96.837498,232.92881 c 0,0 -1.742373,0.62124 -2.082554,-0.63464 2.515929,-1.09499 3.496698,-2.59243 3.496698,-2.59243 z"
       style="fill:#ffeeaa;fill-opacity:1;stroke:none;stroke-width:0.17529106px;stroke-linecap:butt;stroke-linejoin:miter;stroke-opacity:1" />
    <path
       inkscape:connector-curvature="0"
       id="path867"
       d="m 100.31119,230.16589 c 0,0 1.74238,0.62124 2.08256,-0.63464 -2.51593,-1.09499 -3.496699,-2.59243 -3.496699,-2.59243 z"
       style="fill:#ffeeaa;fill-opacity:1;stroke:none;stroke-width:0.17529106px;stroke-linecap:butt;stroke-linejoin:miter;stroke-opacity:1" />
    <ellipse
       style="fill:#ffffff;fill-opacity:1;stroke:none;stroke-width:0.26499999;stroke-miterlimit:4;stroke-dasharray:none;stroke-opacity:1"
       id="path885"
       cx="77.778099"
       cy="224.74727"
       rx="1.984375"
       ry="3.96875" />
    <ellipse
       style="fill:#ffffff;fill-opacity:1;stroke:none;stroke-width:0.26499999;stroke-miterlimit:4;stroke-dasharray:none;stroke-opacity:1"
       id="path887"
       cx="91.007263"
       cy="224.74727"
       rx="1.984375"
       ry="3.96875" />
    <ellipse
       style="fill:#aaccff;fill-opacity:1;stroke:none;stroke-width:0.26499999;stroke-miterlimit:4;stroke-dasharray:none;stroke-opacity:1"
       id="path889"
       cx="78.052078"
       cy="225.5625"
       rx="1.3229166"
       ry="2.6458333" />
    <ellipse
       ry="2.6458333"
       rx="1.3229166"
       cy="225.5625"
       cx="91.248512"
       id="ellipse891"
       style="fill:#aaccff;fill-opacity:1;stroke:none;stroke-width:0.26499999;stroke-miterlimit:4;stroke-dasharray:none;stroke-opacity:1" />
    <path
       inkscape:connector-curvature="0"
       id="path897"
       d="m 99.628044,227.88721 c 0,0 1.337496,1.27787 2.160316,0.26994 -1.85056,-2.02592 -2.135297,-3.79316 -2.135297,-3.79316 z"
       style="fill:#ffeeaa;fill-opacity:1;stroke:none;stroke-width:0.17529106px;stroke-linecap:butt;stroke-linejoin:miter;stroke-opacity:1" />
    <path
       inkscape:connector-curvature="0"
       id="path901"
       d="m 70.261648,219.5091 c 0,0 0.644977,3.43709 2.404226,4.33608 -0.696565,-4.93028 0.301598,-6.67502 0.301598,-6.67502 z"
       style="fill:#ffeeaa;fill-opacity:1;stroke:none;stroke-width:0.26458332px;stroke-linecap:butt;stroke-linejoin:miter;stroke-opacity:1" />
  </g>
</svg>
