<?xml version="1.0" encoding="UTF-8" standalone="no"?>
<!-- Created with Inkscape (http://www.inkscape.org/) -->

<svg
   xmlns:dc="http://purl.org/dc/elements/1.1/"
   xmlns:cc="http://creativecommons.org/ns#"
   xmlns:rdf="http://www.w3.org/1999/02/22-rdf-syntax-ns#"
   xmlns:svg="http://www.w3.org/2000/svg"
   xmlns="http://www.w3.org/2000/svg"
   xmlns:xlink="http://www.w3.org/1999/xlink"
   xmlns:sodipodi="http://sodipodi.sourceforge.net/DTD/sodipodi-0.dtd"
   xmlns:inkscape="http://www.inkscape.org/namespaces/inkscape"
   width="140.00003"
   height="170.51004"
   viewBox="0 0 37.041676 45.114113"
   version="1.1"
   id="svg8"
   inkscape:version="0.92+devel unknown"
   sodipodi:docname="frog sensei chibi.svg">
  <title
     id="title4307">Frog Sensei Chibi</title>
  <defs
     id="defs2">
    <linearGradient
       id="linearGradient4539"
       inkscape:collect="always">
      <stop
         id="stop4535"
         offset="0"
         style="stop-color:#aa00ff;stop-opacity:1" />
      <stop
         style="stop-color:#aacc74;stop-opacity:1"
         offset="0.43002656"
         id="stop4541" />
      <stop
         id="stop4543"
         offset="0.5885945"
         style="stop-color:#ffff00;stop-opacity:1" />
      <stop
         id="stop4537"
         offset="1"
         style="stop-color:#e10c00;stop-opacity:1" />
    </linearGradient>
    <linearGradient
       inkscape:collect="always"
       xlink:href="#linearGradient4539"
       id="linearGradient4525"
       x1="85.59697"
       y1="250.82854"
       x2="85.592705"
       y2="249.91017"
       gradientUnits="userSpaceOnUse" />
    <linearGradient
       inkscape:collect="always"
       xlink:href="#linearGradient4539"
       id="linearGradient4533"
       x1="85.59697"
       y1="250.82854"
       x2="85.592705"
       y2="249.91017"
       gradientUnits="userSpaceOnUse" />
    <linearGradient
       inkscape:collect="always"
       xlink:href="#linearGradient4539"
       id="linearGradient4559"
       gradientUnits="userSpaceOnUse"
       x1="85.59697"
       y1="250.82854"
       x2="85.592705"
       y2="249.91017"
       gradientTransform="matrix(-1,0,0,1,167.38812,0)" />
    <linearGradient
       inkscape:collect="always"
       xlink:href="#linearGradient4539"
       id="linearGradient4561"
       gradientUnits="userSpaceOnUse"
       x1="85.59697"
       y1="250.82854"
       x2="85.592705"
       y2="249.91017"
       gradientTransform="matrix(-1,0,0,1,167.38812,0)" />
  </defs>
  <sodipodi:namedview
     id="base"
     pagecolor="#ffffff"
     bordercolor="#666666"
     borderopacity="1.0"
     inkscape:pageopacity="0.0"
     inkscape:pageshadow="2"
     inkscape:zoom="2.8"
     inkscape:cx="-66.684183"
     inkscape:cy="106.03657"
     inkscape:document-units="mm"
     inkscape:current-layer="layer1"
     showgrid="true"
     inkscape:window-width="1920"
     inkscape:window-height="1016"
     inkscape:window-x="0"
     inkscape:window-y="0"
     inkscape:window-maximized="1"
     fit-margin-top="0"
     fit-margin-left="0"
     fit-margin-right="0"
     fit-margin-bottom="0"
     units="px"
     showguides="false"
     inkscape:document-rotation="0">
    <inkscape:grid
       type="xygrid"
       id="grid10"
       originx="-65.484378"
       originy="-46.167127" />
  </sodipodi:namedview>
  <metadata
     id="metadata5">
    <rdf:RDF>
      <cc:Work
         rdf:about="">
        <dc:format>image/svg+xml</dc:format>
        <dc:type
           rdf:resource="http://purl.org/dc/dcmitype/StillImage" />
        <dc:title>Frog Sensei Chibi</dc:title>
        <cc:license
           rdf:resource="http://creativecommons.org/licenses/by/4.0/" />
        <dc:creator>
          <cc:Agent>
            <dc:title>Maxwell Paul Brickner</dc:title>
          </cc:Agent>
        </dc:creator>
      </cc:Work>
      <cc:License
         rdf:about="http://creativecommons.org/licenses/by/4.0/">
        <cc:permits
           rdf:resource="http://creativecommons.org/ns#Reproduction" />
        <cc:permits
           rdf:resource="http://creativecommons.org/ns#Distribution" />
        <cc:requires
           rdf:resource="http://creativecommons.org/ns#Notice" />
        <cc:requires
           rdf:resource="http://creativecommons.org/ns#Attribution" />
        <cc:permits
           rdf:resource="http://creativecommons.org/ns#DerivativeWorks" />
      </cc:License>
    </rdf:RDF>
  </metadata>
  <g
     inkscape:groupmode="layer"
     id="layer3"
     inkscape:label="Apendages"
     transform="translate(-65.484376,-205.71876)">
    <path
       style="fill:#660080;stroke:none;stroke-width:0.26458332px;stroke-linecap:butt;stroke-linejoin:miter;stroke-opacity:1"
       d="m 80.702034,238.07076 c 0,0 -1.052373,8.11831 -1.453278,9.17068 2.187595,-0.61031 2.887532,-1.14304 3.241725,-1.43682 0.10831,-0.0898 0.385089,-0.25183 0.461391,-0.29236 0.200048,-0.10627 0.201511,0.0673 0.994445,0.41477 0.246926,-8.04002 -1.239761,-8.10684 -3.244283,-7.85627 z"
       id="path4563"
       inkscape:connector-curvature="0"
       sodipodi:nodetypes="ccsscc" />
    <path
       inkscape:connector-curvature="0"
       id="path4565"
       d="m 87.1906,238.07076 c 0,0 1.052373,8.11831 1.453278,9.17068 -3.399859,-0.94851 -3.537166,-1.79233 -4.037091,-1.76031 -0.178001,0.0114 -0.113173,0.20604 -0.66047,0.4459 -0.246926,-8.04002 1.239761,-8.10684 3.244283,-7.85627 z"
       style="fill:#660080;stroke:none;stroke-width:0.26458332px;stroke-linecap:butt;stroke-linejoin:miter;stroke-opacity:1"
       sodipodi:nodetypes="ccscc" />
    <path
       inkscape:connector-curvature="0"
       id="path4602"
       d="m 83.958127,249.03764 -0.01181,-3.11061 0.404007,0.0177 -0.0059,3.13467 z"
       style="fill:#aade87;stroke:none;stroke-width:0.26458332px;stroke-linecap:butt;stroke-linejoin:miter;stroke-opacity:1"
       sodipodi:nodetypes="ccccc" />
    <path
       style="fill:#aade87;fill-opacity:1;stroke:none;stroke-width:0.26458332px;stroke-linecap:butt;stroke-linejoin:miter;stroke-opacity:1"
       d="m 83.222044,249.06864 -0.02362,-2.85075 0.516219,-0.17718 -0.106306,3.0697 z"
       id="path4600"
       inkscape:connector-curvature="0"
       sodipodi:nodetypes="ccccc" />
    <path
       style="fill:url(#linearGradient4525);stroke:url(#linearGradient4533);stroke-width:0.26458332px;stroke-linecap:butt;stroke-linejoin:miter;stroke-opacity:1;fill-opacity:1.0"
       d="m 83.872913,249.11041 0.264583,0.26459 v 0 1.32291 c 0.02298,-0.002 1.322917,0 1.322917,0 0,0 0,-0.52916 -0.529167,-0.52916 -0.529166,0 -0.529166,-1.05834 -0.529166,-1.05834 z"
       id="path4596"
       inkscape:connector-curvature="0"
       sodipodi:nodetypes="cccccscc" />
    <g
       id="g877"
       transform="translate(0.48428199,-0.42522321)"
       style="fill:#aade87;fill-opacity:1">
      <path
         inkscape:connector-curvature="0"
         id="path4604"
         d="m 82.586284,239.87949 c 0,0 -2.488949,1.39481 -2.664344,2.09639 -0.07517,0.45102 0.300678,0.20045 0.476073,-0.0501 0.175398,-0.25056 1.779013,-1.39481 2.129806,-1.57856 0.35079,-0.18375 0.05847,-0.46772 0.05847,-0.46772 z"
         style="fill:#aade87;fill-opacity:1;stroke:none;stroke-width:0.26458332px;stroke-linecap:butt;stroke-linejoin:miter;stroke-opacity:1" />
      <path
         style="fill:#aade87;fill-opacity:1;stroke:none;stroke-width:0.26458332px;stroke-linecap:butt;stroke-linejoin:miter;stroke-opacity:1"
         d="m 82.586284,244.24581 c 0,0 -2.488949,-1.39481 -2.664344,-2.09639 -0.07517,-0.45102 0.300678,-0.20045 0.476073,0.0501 0.175398,0.25056 1.779013,1.39481 2.129806,1.57856 0.35079,0.18375 0.05847,0.46772 0.05847,0.46772 z"
         id="path4606"
         inkscape:connector-curvature="0" />
    </g>
    <g
       id="g881"
       transform="translate(-1.0512463,-0.11811756)"
       style="fill:#aade87;fill-opacity:1">
      <path
         style="fill:#aade87;fill-opacity:1;stroke:none;stroke-width:0.26458332px;stroke-linecap:butt;stroke-linejoin:miter;stroke-opacity:1"
         d="m 85.636623,239.87949 c 0,0 2.488949,1.39481 2.664344,2.09639 0.07517,0.45102 -0.300678,0.20045 -0.476073,-0.0501 -0.175398,-0.25056 -1.779013,-1.39481 -2.129806,-1.57856 -0.35079,-0.18375 -0.05847,-0.46772 -0.05847,-0.46772 z"
         id="path4608"
         inkscape:connector-curvature="0" />
      <path
         inkscape:connector-curvature="0"
         id="path4610"
         d="m 85.636623,244.24581 c 0,0 2.488949,-1.39481 2.664344,-2.09639 0.07517,-0.45102 -0.300678,-0.20045 -0.476073,0.0501 -0.175398,0.25056 -1.779013,1.39481 -2.129806,1.57856 -0.35079,0.18375 -0.05847,0.46772 -0.05847,0.46772 z"
         style="fill:#aade87;fill-opacity:1;stroke:none;stroke-width:0.26458332px;stroke-linecap:butt;stroke-linejoin:miter;stroke-opacity:1" />
    </g>
    <path
       sodipodi:nodetypes="cccccscc"
       inkscape:connector-curvature="0"
       id="path4557"
       d="m 83.515202,249.11041 -0.264583,0.26459 v 0 1.32291 c -0.02298,-0.002 -1.322917,0 -1.322917,0 0,0 0,-0.52916 0.529167,-0.52916 0.529166,0 0.529166,-1.05834 0.529166,-1.05834 z"
       style="fill:url(#linearGradient4559);fill-opacity:1;stroke:url(#linearGradient4561);stroke-width:0.26458332px;stroke-linecap:butt;stroke-linejoin:miter;stroke-opacity:1" />
    <ellipse
       style="fill:#aade87;fill-opacity:1;stroke:none;stroke-width:0.23813638;stroke-miterlimit:4;stroke-dasharray:none;stroke-opacity:1"
       id="path4567"
       cx="-61.235794"
       cy="254.96683"
       rx="0.70961422"
       ry="0.62768722"
       transform="matrix(0.87494726,-0.48421822,0.54434651,0.83886047,0,0)" />
    <ellipse
       transform="matrix(0.87494726,-0.48421822,0.54434651,0.83886047,0,0)"
       ry="0.62768722"
       rx="0.70961422"
       cy="254.87097"
       cx="-60.297932"
       id="ellipse4584"
       style="fill:#aade87;fill-opacity:1;stroke:none;stroke-width:0.23813638;stroke-miterlimit:4;stroke-dasharray:none;stroke-opacity:1" />
    <ellipse
       style="fill:#aade87;fill-opacity:1;stroke:none;stroke-width:0.23813638;stroke-miterlimit:4;stroke-dasharray:none;stroke-opacity:1"
       id="ellipse4586"
       cx="-59.078686"
       cy="254.59901"
       rx="0.70961422"
       ry="0.62768722"
       transform="matrix(0.87494726,-0.48421822,0.54434651,0.83886047,0,0)" />
    <ellipse
       transform="matrix(0.87494726,-0.48421822,0.54434651,0.83886047,0,0)"
       ry="0.62768722"
       rx="0.70961422"
       cy="251.17001"
       cx="-63.570202"
       id="ellipse4588"
       style="fill:#aade87;fill-opacity:1;stroke:none;stroke-width:0.23813638;stroke-miterlimit:4;stroke-dasharray:none;stroke-opacity:1" />
    <ellipse
       style="fill:#aade87;fill-opacity:1;stroke:none;stroke-width:0.23813638;stroke-miterlimit:4;stroke-dasharray:none;stroke-opacity:1"
       id="ellipse4590"
       cx="-62.529385"
       cy="250.75523"
       rx="0.70961422"
       ry="0.62768722"
       transform="matrix(0.87494726,-0.48421822,0.54434651,0.83886047,0,0)" />
    <ellipse
       transform="matrix(0.87494726,-0.48421822,0.54434651,0.83886047,0,0)"
       ry="0.62768722"
       rx="0.70961422"
       cy="250.61699"
       cx="-61.526966"
       id="ellipse4592"
       style="fill:#aade87;fill-opacity:1;stroke:none;stroke-width:0.23813638;stroke-miterlimit:4;stroke-dasharray:none;stroke-opacity:1" />
    <ellipse
       style="fill:#aade87;fill-opacity:1;stroke:none;stroke-width:0.23813638;stroke-miterlimit:4;stroke-dasharray:none;stroke-opacity:1"
       id="ellipse4594"
       cx="-200.81636"
       cy="173.082"
       rx="0.70961422"
       ry="0.62768722"
       transform="matrix(-0.87494726,-0.48421822,-0.54434651,0.83886047,0,0)" />
    <ellipse
       transform="matrix(-0.87494726,-0.48421822,-0.54434651,0.83886047,0,0)"
       ry="0.62768722"
       rx="0.70961422"
       cy="173.26918"
       cx="-201.90649"
       id="ellipse4596"
       style="fill:#aade87;fill-opacity:1;stroke:none;stroke-width:0.23813638;stroke-miterlimit:4;stroke-dasharray:none;stroke-opacity:1" />
    <ellipse
       style="fill:#aade87;fill-opacity:1;stroke:none;stroke-width:0.23813638;stroke-miterlimit:4;stroke-dasharray:none;stroke-opacity:1"
       id="ellipse4598"
       cx="-203.3676"
       cy="169.4189"
       rx="0.70961422"
       ry="0.62768722"
       transform="matrix(-0.87494726,-0.48421822,-0.54434651,0.83886047,0,0)" />
    <ellipse
       transform="matrix(-0.87494726,-0.48421822,-0.54434651,0.83886047,0,0)"
       ry="0.62768722"
       rx="0.70961422"
       cy="169.71675"
       cx="-204.50749"
       id="ellipse4600"
       style="fill:#aade87;fill-opacity:1;stroke:none;stroke-width:0.23813638;stroke-miterlimit:4;stroke-dasharray:none;stroke-opacity:1" />
  </g>
  <g
     inkscape:groupmode="layer"
     id="layer2"
     inkscape:label="Body"
     transform="translate(-65.484376,-205.71876)">
    <path
       style="fill:#000000;fill-opacity:1;stroke:none;stroke-width:0.26458332px;stroke-linecap:butt;stroke-linejoin:miter;stroke-opacity:1"
       d="m 82.90081,246.39166 1.71861,-0.18309 0.566343,-4.21136 2.004837,-3.92645 h -6.488566 l 2.041021,3.91049 z"
       id="path45"
       inkscape:connector-curvature="0"
       sodipodi:nodetypes="ccccccc" />
  </g>
  <g
     inkscape:label="Head"
     inkscape:groupmode="layer"
     id="layer1"
     transform="translate(-65.484376,-205.71876)">
    <circle
       id="path14"
       cx="83.792603"
       cy="223.71986"
       r="15.213541"
       style="fill:#abdd87;fill-opacity:1;stroke-width:0.26458332" />
    <circle
       r="7.2051711"
       cy="215.70471"
       cx="74.957413"
       id="circle893"
       style="fill:#abdd87;fill-opacity:1;stroke:none;stroke-width:0.07030141;stroke-linecap:round;stroke-linejoin:round;stroke-miterlimit:4;stroke-dasharray:none;stroke-opacity:1;paint-order:stroke markers fill" />
    <circle
       style="fill:#ffffff;fill-opacity:1;stroke:none;stroke-width:0.065;stroke-linecap:round;stroke-linejoin:round;stroke-miterlimit:4;stroke-dasharray:none;stroke-opacity:1;paint-order:stroke markers fill"
       id="path54"
       cx="75.122772"
       cy="216.24805"
       r="6.6618304" />
    <circle
       style="fill:#abdd87;fill-opacity:1;stroke:none;stroke-width:0.07030141;stroke-linecap:round;stroke-linejoin:round;stroke-miterlimit:4;stroke-dasharray:none;stroke-opacity:1;paint-order:stroke markers fill"
       id="circle891"
       cx="92.6278"
       cy="215.70471"
       r="7.2051711" />
    <circle
       r="6.6618304"
       cy="216.24805"
       cx="92.084457"
       id="circle864"
       style="fill:#ffffff;fill-opacity:1;stroke:none;stroke-width:0.065;stroke-linecap:round;stroke-linejoin:round;stroke-miterlimit:4;stroke-dasharray:none;stroke-opacity:1;paint-order:stroke markers fill" />
    <circle
       style="fill:#000000;fill-opacity:1;stroke:none;stroke-width:0.065;stroke-linecap:round;stroke-linejoin:round;stroke-miterlimit:4;stroke-dasharray:none;stroke-opacity:1;paint-order:stroke markers fill"
       id="path885"
       cx="76.327568"
       cy="217.87808"
       r="2.7639508" />
    <circle
       r="2.7639508"
       cy="218.11432"
       cx="90.737907"
       id="circle887"
       style="fill:#000000;fill-opacity:1;stroke:none;stroke-width:0.065;stroke-linecap:round;stroke-linejoin:round;stroke-miterlimit:4;stroke-dasharray:none;stroke-opacity:1;paint-order:stroke markers fill" />
    <path
       style="fill:#000000;fill-opacity:1;stroke:#000000;stroke-width:0.66145837px;stroke-linecap:butt;stroke-linejoin:miter;stroke-opacity:1"
       d="m 76.989032,229.53125 h 13.229166 c 0,0 0,6.61458 -6.614583,6.61458 -6.614583,0 -6.614583,-6.61458 -6.614583,-6.61458 z"
       id="path889"
       inkscape:connector-curvature="0" />
  </g>
</svg>
