<?xml version="1.0" encoding="UTF-8" standalone="no"?>
<!-- Created with Inkscape (http://www.inkscape.org/) -->

<svg
   xmlns:dc="http://purl.org/dc/elements/1.1/"
   xmlns:cc="http://creativecommons.org/ns#"
   xmlns:rdf="http://www.w3.org/1999/02/22-rdf-syntax-ns#"
   xmlns:svg="http://www.w3.org/2000/svg"
   xmlns="http://www.w3.org/2000/svg"
   xmlns:xlink="http://www.w3.org/1999/xlink"
   xmlns:sodipodi="http://sodipodi.sourceforge.net/DTD/sodipodi-0.dtd"
   xmlns:inkscape="http://www.inkscape.org/namespaces/inkscape"
   width="674.51654"
   height="1889.35"
   viewBox="0 0 178.46583 499.89053"
   version="1.1"
   id="svg8"
   inkscape:version="0.92+devel unknown"
   sodipodi:docname="adorina maid yap.svg"
   inkscape:export-filename="/home/mbrickn/Projects/Operation-Ohio/game/images/new characters/adorina/adorina maid yap.png"
   inkscape:export-xdpi="96"
   inkscape:export-ydpi="96">
  <title
     id="title4313">Adroina Maid Normal</title>
  <defs
     id="defs2">
    <linearGradient
       inkscape:collect="always"
       id="linearGradient4372">
      <stop
         style="stop-color:#a1b3ff;stop-opacity:1;"
         offset="0"
         id="stop4368" />
      <stop
         style="stop-color:#9aabf3;stop-opacity:1"
         offset="1"
         id="stop4370" />
    </linearGradient>
    <linearGradient
       inkscape:collect="always"
       id="linearGradient4364">
      <stop
         style="stop-color:#b290ce;stop-opacity:1;"
         offset="0"
         id="stop4360" />
      <stop
         style="stop-color:#9f81b8;stop-opacity:1"
         offset="1"
         id="stop4362" />
    </linearGradient>
    <linearGradient
       inkscape:collect="always"
       id="linearGradient4536">
      <stop
         style="stop-color:#1a1a1a;stop-opacity:1;"
         offset="0"
         id="stop4532" />
      <stop
         style="stop-color:#000000;stop-opacity:1"
         offset="1"
         id="stop4534" />
    </linearGradient>
    <linearGradient
       id="linearGradient4502"
       inkscape:collect="always">
      <stop
         id="stop4498"
         offset="0"
         style="stop-color:#7a635f;stop-opacity:1;" />
      <stop
         id="stop4500"
         offset="1"
         style="stop-color:#2c2422;stop-opacity:0.31446541" />
    </linearGradient>
    <linearGradient
       inkscape:collect="always"
       id="linearGradient4463">
      <stop
         style="stop-color:#7a635f;stop-opacity:1;"
         offset="0"
         id="stop4459" />
      <stop
         style="stop-color:#2c2422;stop-opacity:1"
         offset="1"
         id="stop4461" />
    </linearGradient>
    <linearGradient
       inkscape:collect="always"
       id="linearGradient4455">
      <stop
         style="stop-color:#1a1a1a;stop-opacity:1;"
         offset="0"
         id="stop4451" />
      <stop
         style="stop-color:#000000;stop-opacity:1"
         offset="1"
         id="stop4453" />
    </linearGradient>
    <linearGradient
       gradientTransform="translate(-2.1670496e-5,-11.249995)"
       inkscape:collect="always"
       xlink:href="#linearGradient4322"
       id="linearGradient4324"
       x1="422.20609"
       y1="121.09417"
       x2="426.39865"
       y2="131.56158"
       gradientUnits="userSpaceOnUse" />
    <linearGradient
       inkscape:collect="always"
       id="linearGradient4322">
      <stop
         style="stop-color:#d6ada7;stop-opacity:1;"
         offset="0"
         id="stop4318" />
      <stop
         style="stop-color:#e9c6af;stop-opacity:1"
         offset="1"
         id="stop4320" />
    </linearGradient>
    <linearGradient
       gradientTransform="translate(-13.456416,-11.249995)"
       inkscape:collect="always"
       xlink:href="#linearGradient4409"
       id="linearGradient4411"
       x1="409.40134"
       y1="78.869087"
       x2="416.24048"
       y2="75.33358"
       gradientUnits="userSpaceOnUse" />
    <linearGradient
       inkscape:collect="always"
       id="linearGradient4409">
      <stop
         style="stop-color:#b290ce;stop-opacity:1"
         offset="0"
         id="stop4405" />
      <stop
         style="stop-color:#d5f6ff;stop-opacity:0;"
         offset="1"
         id="stop4407" />
    </linearGradient>
    <radialGradient
       inkscape:collect="always"
       xlink:href="#linearGradient4314"
       id="radialGradient4316"
       cx="419.51166"
       cy="166.65335"
       fx="419.51166"
       fy="166.65335"
       r="8.7759533"
       gradientTransform="matrix(1,-1.2559054e-8,0,0.45370374,-11.042205,77.414659)"
       gradientUnits="userSpaceOnUse" />
    <linearGradient
       inkscape:collect="always"
       id="linearGradient4314">
      <stop
         style="stop-color:#803e80;stop-opacity:1;"
         offset="0"
         id="stop4310" />
      <stop
         style="stop-color:#803e80;stop-opacity:0;"
         offset="1"
         id="stop4312" />
    </linearGradient>
    <radialGradient
       inkscape:collect="always"
       xlink:href="#linearGradient4314"
       id="radialGradient4308"
       cx="379.96432"
       cy="145.48317"
       fx="379.96432"
       fy="145.48317"
       r="6.0944128"
       gradientTransform="matrix(1,0,0,0.58666666,-11.752611,47.113295)"
       gradientUnits="userSpaceOnUse" />
    <linearGradient
       inkscape:collect="always"
       xlink:href="#linearGradient4455"
       id="linearGradient4457"
       x1="420.63138"
       y1="221.10838"
       x2="404.96793"
       y2="331.47076"
       gradientUnits="userSpaceOnUse" />
    <linearGradient
       inkscape:collect="always"
       xlink:href="#linearGradient4463"
       id="linearGradient4465"
       x1="372.7182"
       y1="376.82416"
       x2="427.30991"
       y2="375.85736"
       gradientUnits="userSpaceOnUse" />
    <linearGradient
       inkscape:collect="always"
       xlink:href="#linearGradient4463"
       id="linearGradient4481"
       x1="411.89355"
       y1="369.97772"
       x2="469.80905"
       y2="368.26135"
       gradientUnits="userSpaceOnUse" />
    <linearGradient
       inkscape:collect="always"
       xlink:href="#linearGradient4463"
       id="linearGradient4485"
       gradientUnits="userSpaceOnUse"
       x1="385.71521"
       y1="354.63763"
       x2="396.5593"
       y2="293.37967" />
    <linearGradient
       inkscape:collect="always"
       xlink:href="#linearGradient4502"
       id="linearGradient4496"
       gradientUnits="userSpaceOnUse"
       x1="430.33981"
       y1="351.94339"
       x2="432.56805"
       y2="304.62552" />
    <linearGradient
       inkscape:collect="always"
       xlink:href="#linearGradient4455"
       id="linearGradient4505"
       gradientUnits="userSpaceOnUse"
       x1="420.63138"
       y1="221.10838"
       x2="404.96793"
       y2="331.47076"
       gradientTransform="scale(3.7795276)" />
    <linearGradient
       inkscape:collect="always"
       xlink:href="#linearGradient4536"
       id="linearGradient4538"
       x1="389.79321"
       y1="443.10709"
       x2="390.39435"
       y2="485.39166"
       gradientUnits="userSpaceOnUse" />
    <linearGradient
       inkscape:collect="always"
       xlink:href="#linearGradient4536"
       id="linearGradient4546"
       x1="438.77634"
       y1="439.89682"
       x2="439.35928"
       y2="486.69046"
       gradientUnits="userSpaceOnUse" />
    <linearGradient
       inkscape:collect="always"
       xlink:href="#linearGradient4536"
       id="linearGradient4514"
       x1="481.25369"
       y1="200.04257"
       x2="467.07495"
       y2="281.57285"
       gradientUnits="userSpaceOnUse"
       gradientTransform="matrix(-0.97582819,0.21853909,0.21853909,0.97582819,900.29322,-108.96373)" />
    <linearGradient
       inkscape:collect="always"
       xlink:href="#linearGradient4322"
       id="linearGradient4358"
       gradientUnits="userSpaceOnUse"
       x1="413.11963"
       y1="113.63715"
       x2="408.65634"
       y2="103.51543"
       gradientTransform="matrix(0.47187232,-0.60868272,-0.60668747,-0.50566344,368.15858,574.1458)" />
    <linearGradient
       inkscape:collect="always"
       xlink:href="#linearGradient4536"
       id="linearGradient4506"
       gradientUnits="userSpaceOnUse"
       gradientTransform="rotate(28.620631,445.07628,-0.11982152)"
       x1="481.25369"
       y1="200.04257"
       x2="467.07495"
       y2="281.57285" />
    <linearGradient
       inkscape:collect="always"
       xlink:href="#linearGradient4322"
       id="linearGradient4510"
       gradientUnits="userSpaceOnUse"
       gradientTransform="matrix(-0.26223484,-0.72414849,0.73262278,-0.29500689,366.47547,591.13086)"
       x1="413.11963"
       y1="113.63715"
       x2="408.65634"
       y2="103.51543" />
    <radialGradient
       inkscape:collect="always"
       xlink:href="#linearGradient4364"
       id="radialGradient4366"
       cx="407.98849"
       cy="107.52747"
       fx="407.98849"
       fy="107.52747"
       r="21.223295"
       gradientTransform="matrix(0.63658828,-0.11649918,0.10191472,0.55689419,137.30917,90.780025)"
       gradientUnits="userSpaceOnUse" />
    <radialGradient
       inkscape:collect="always"
       xlink:href="#linearGradient4372"
       id="radialGradient4374"
       cx="408.37497"
       cy="94.862137"
       fx="408.37497"
       fy="94.862137"
       r="21.223295"
       gradientTransform="matrix(0.55531924,-0.02187924,0.01759126,0.4464855,179.92775,61.442502)"
       gradientUnits="userSpaceOnUse" />
  </defs>
  <sodipodi:namedview
     id="base"
     pagecolor="#ffffff"
     bordercolor="#666666"
     borderopacity="1.0"
     inkscape:pageopacity="0.0"
     inkscape:pageshadow="2"
     inkscape:zoom="0.98994949"
     inkscape:cx="-102.04428"
     inkscape:cy="1613.6721"
     inkscape:document-units="mm"
     inkscape:current-layer="layer3"
     showgrid="false"
     inkscape:window-width="1920"
     inkscape:window-height="1016"
     inkscape:window-x="0"
     inkscape:window-y="0"
     inkscape:window-maximized="1"
     units="px"
     inkscape:pagecheckerboard="true"
     inkscape:document-rotation="0"
     fit-margin-top="0"
     fit-margin-left="0"
     fit-margin-right="0"
     fit-margin-bottom="0">
    <inkscape:grid
       type="xygrid"
       id="grid4485"
       originx="-326.73628"
       originy="200.94048" />
  </sodipodi:namedview>
  <metadata
     id="metadata5">
    <rdf:RDF>
      <cc:Work
         rdf:about="">
        <dc:format>image/svg+xml</dc:format>
        <dc:type
           rdf:resource="http://purl.org/dc/dcmitype/StillImage" />
        <dc:title>Adroina Maid Normal</dc:title>
        <cc:license
           rdf:resource="http://creativecommons.org/licenses/by/4.0/" />
        <dc:creator>
          <cc:Agent>
            <dc:title>Maxwell Paul Brickner</dc:title>
          </cc:Agent>
        </dc:creator>
      </cc:Work>
      <cc:License
         rdf:about="http://creativecommons.org/licenses/by/4.0/">
        <cc:permits
           rdf:resource="http://creativecommons.org/ns#Reproduction" />
        <cc:permits
           rdf:resource="http://creativecommons.org/ns#Distribution" />
        <cc:requires
           rdf:resource="http://creativecommons.org/ns#Notice" />
        <cc:requires
           rdf:resource="http://creativecommons.org/ns#Attribution" />
        <cc:permits
           rdf:resource="http://creativecommons.org/ns#DerivativeWorks" />
      </cc:License>
    </rdf:RDF>
  </metadata>
  <g
     inkscape:label="Head"
     inkscape:groupmode="layer"
     id="layer1"
     transform="translate(-326.73629,1.950054)" />
  <g
     inkscape:groupmode="layer"
     id="layer3"
     inkscape:label="Body"
     transform="translate(-326.73629,13.200037)">
    <path
       sodipodi:nodetypes="ccccsssscccscc"
       inkscape:connector-curvature="0"
       id="path4508"
       d="m 340.58137,251.81383 c -0.3127,3.95999 -15.08957,13.79156 -13.76055,16.7586 0.46272,0.65745 3.7607,-2.81587 4.64724,-1.76281 1.14956,1.26893 -5.11889,3.63583 -3.35072,5.42288 0.96872,1.42791 4.89063,-3.4098 5.38085,-3.06542 0.52273,0.36742 -4.64709,3.56748 -3.23036,5.17421 0.99323,1.12665 4.63847,-2.82434 5.09902,-2.6554 0.39231,0.14388 -2.71752,2.88494 -1.7163,3.91189 0.64026,0.65773 2.05313,-0.61065 3.15455,-1.48713 3.50569,-2.78954 5.37668,-6.2682 5.37668,-6.2682 0,0 -1.34461,3.91063 -0.0155,4.6195 1.32917,0.70886 2.09354,-4.07752 2.66686,-6.2982 0.57334,-2.22065 7.23326,-12.23878 7.23326,-12.23878 z"
       style="fill:url(#linearGradient4510);fill-opacity:1;stroke:none;stroke-width:0.20628826px;stroke-linecap:butt;stroke-linejoin:miter;stroke-opacity:1" />
    <path
       sodipodi:nodetypes="ccccc"
       inkscape:connector-curvature="0"
       id="path4503"
       d="m 383.29909,152.17882 c 4.77532,21.54214 -20.31907,75.85378 -42.71772,99.63501 -6.30472,4.9378 10.79021,7.73472 13.49182,2.69076 2.70156,-5.0441 58.13136,-69.56233 51.16794,-100.58646 z"
       style="fill:url(#linearGradient4506);fill-opacity:1;stroke:none;stroke-width:1.00428736px;stroke-linecap:butt;stroke-linejoin:miter;stroke-opacity:1" />
    <path
       style="fill:url(#linearGradient4358);fill-opacity:1;stroke:none;stroke-width:0.20628826px;stroke-linecap:butt;stroke-linejoin:miter;stroke-opacity:1"
       d="m 496.96602,259.16137 c -0.91803,3.86478 10.12725,17.75785 7.95158,20.17364 -0.6422,0.48366 -2.7147,-3.83437 -3.88171,-3.1043 -1.48359,0.85476 3.75561,5.03167 1.52422,6.18964 -1.36029,1.06159 -3.60775,-4.74649 -4.18002,-4.56922 -0.61028,0.18921 3.32757,4.82179 1.48601,5.91603 -1.29113,0.76735 -3.54749,-4.11188 -4.03766,-4.09248 -0.41754,0.0165 1.70068,3.57987 0.43255,4.24988 -0.81125,0.42942 -1.76654,-1.21144 -2.54571,-2.38371 -2.48009,-3.73103 -3.19286,-7.61608 -3.19286,-7.61608 0,0 0.0792,4.13458 -1.40333,4.40121 -1.4826,0.26661 -0.74073,-4.52331 -0.60467,-6.81277 0.13604,-2.28943 -3.12694,-13.8683 -3.12694,-13.8683 z"
       id="path4352-7"
       inkscape:connector-curvature="0"
       sodipodi:nodetypes="ccccsssscccscc" />
    <flowRoot
       xml:space="preserve"
       id="flowRoot4519"
       style="font-style:normal;font-weight:normal;font-size:40px;line-height:1.25;font-family:sans-serif;letter-spacing:0px;word-spacing:0px;fill:#000000;fill-opacity:1;stroke:none"><flowRegion
         id="flowRegion4521"><rect
           id="rect4523"
           width="78.286819"
           height="121.72338"
           x="1653.1146"
           y="794.6319" /></flowRegion><flowPara
         id="flowPara4525" /></flowRoot>    <path
       style="fill:#000000;fill-opacity:1;stroke:#070808;stroke-width:0.37641236px;stroke-linecap:butt;stroke-linejoin:miter;stroke-opacity:1"
       d="m 444.02601,66.214655 c 0,0 6.27386,5.751049 10.02868,5.275738 2.04374,-2.37644 22.31159,-58.671193 -28.50408,-67.0060511 -50.81567,-8.3348456 -66.40987,36.5658151 -67.21649,45.9760921 -0.80658,9.410319 17.4763,24.466796 45.43835,8.065977 38.98557,6.990543 40.25354,7.688244 40.25354,7.688244 z"
       id="path4522"
       inkscape:connector-curvature="0" />
    <path
       style="fill:url(#linearGradient4324);fill-opacity:1;stroke:none;stroke-width:1.28707409px;stroke-linecap:butt;stroke-linejoin:miter;stroke-opacity:1"
       d="m 410.14152,112.8445 c 0,0 7.5438,0.59117 6.5687,7.74197 -17.01815,78.41722 25.25903,9.44785 25.25903,9.44785 0,0 1.50456,-4.21113 -2.10596,-8.35508 -3.10938,-3.56877 -8.92293,-15.84445 -9.36966,-18.07809 -0.8126,-4.06296 -20.35211,9.24335 -20.35211,9.24335 z"
       id="path4612"
       inkscape:connector-curvature="0"
       sodipodi:nodetypes="cccscc" />
    <path
       style="fill:#e9c6af;stroke:none;stroke-width:1.28707409px;stroke-linecap:butt;stroke-linejoin:miter;stroke-opacity:1"
       d="m 369.94486,58.895719 c 0,0 0,32.176836 12.87075,45.047611 12.87075,12.87073 25.23654,11.58694 25.23654,11.58694 0,0 8.78755,1.68709 20.71726,-9.14974 17.17487,-15.601483 24.83528,-60.355539 24.83528,-60.355539 0,0 0,-32.176951 -51.48295,-32.176894 -32.17686,4.3e-5 -32.17688,45.047622 -32.17688,45.047622 z"
       id="path4487"
       inkscape:connector-curvature="0"
       sodipodi:nodetypes="cccscsc" />
    <ellipse
       ry="12.870742"
       rx="11.146981"
       cy="52.460384"
       cx="426.13953"
       id="ellipse4497"
       style="fill:#ffffff;fill-opacity:1;stroke:none;stroke-width:5.22741938;stroke-linecap:round;stroke-linejoin:round;stroke-miterlimit:4;stroke-dasharray:none;stroke-opacity:1;paint-order:stroke fill markers" />
    <path
       sodipodi:nodetypes="ccc"
       style="fill:url(#linearGradient4411);fill-opacity:1;stroke:none;stroke-width:0.85615778;stroke-linecap:butt;stroke-linejoin:miter;stroke-miterlimit:4;stroke-dasharray:none;stroke-opacity:1"
       d="m 399.80317,54.113023 c 0,0 -0.26027,4.634899 -3.85823,13.506072 9.5469,-3.685212 12.80416,-1.005139 12.80416,-1.005139"
       id="path4489"
       inkscape:connector-curvature="0" />
    <ellipse
       ry="14.392494"
       rx="7.9351473"
       cy="87.658363"
       cx="374.16238"
       id="ellipse4499"
       style="fill:#ffffff;fill-opacity:1;stroke:none;stroke-width:5.71213007;stroke-linecap:round;stroke-linejoin:round;stroke-miterlimit:4;stroke-dasharray:none;stroke-opacity:1;paint-order:stroke fill markers"
       transform="rotate(-4.4885584)" />
    <ellipse
       style="fill:#dcb3ff;fill-opacity:1;stroke:none;stroke-width:4.38949585;stroke-linecap:round;stroke-linejoin:round;stroke-miterlimit:4;stroke-dasharray:none;stroke-opacity:1;paint-order:stroke fill markers"
       id="path4491"
       cx="372.21707"
       cy="88.143021"
       rx="6.0149846"
       ry="11.212172"
       transform="rotate(-4.4885584)" />
    <ellipse
       style="fill:#dcb3ff;fill-opacity:1;stroke:none;stroke-width:4.52386475;stroke-linecap:round;stroke-linejoin:round;stroke-miterlimit:4;stroke-dasharray:none;stroke-opacity:1;paint-order:stroke fill markers"
       id="path4493"
       cx="418.51114"
       cy="86.220177"
       rx="8.9770441"
       ry="11.969392"
       transform="rotate(-4.4885584)" />
    <path
       sodipodi:nodetypes="ccccc"
       style="fill:#000000;fill-opacity:1;stroke:#000000;stroke-width:1.4392494px;stroke-linecap:butt;stroke-linejoin:miter;stroke-opacity:1"
       d="m 414.70884,52.343886 c 0,0 1.0454,-12.134201 11.64467,-12.579556 10.59928,-0.445193 11.47218,12.570066 11.47218,12.570066 0,0 0.25736,-15.037628 -10.75511,-14.108703 -11.01247,0.928876 -12.36174,14.118193 -12.36174,14.118193 z"
       id="path4505"
       inkscape:connector-curvature="0" />
    <path
       style="fill:#d5f6ff;fill-opacity:1;stroke:#d5f6ff;stroke-width:1.4392494px;stroke-linecap:butt;stroke-linejoin:miter;stroke-opacity:1"
       d="m 438.20593,51.431357 1.84935,0.43353"
       id="path4507"
       inkscape:connector-curvature="0"
       sodipodi:nodetypes="cc" />
    <path
       inkscape:connector-curvature="0"
       id="path4509"
       d="m 371.70644,56.652655 c 0,0 0.94042,-11.874145 8.23199,-12.059843 7.29158,-0.185537 8.02649,11.959778 8.02649,11.959778 0,0 -0.65794,-14.336813 -8.22238,-13.678559 -7.56444,0.658199 -8.0361,13.778624 -8.0361,13.778624 z"
       style="fill:#d5f6ff;fill-opacity:1;stroke:#000000;stroke-width:1.19296372px;stroke-linecap:butt;stroke-linejoin:miter;stroke-opacity:1"
       sodipodi:nodetypes="ccccc" />
    <path
       sodipodi:nodetypes="cc"
       inkscape:connector-curvature="0"
       id="path4511"
       d="m 370.09012,55.651641 1.28471,0.477856"
       style="fill:#d5f6ff;fill-opacity:1;stroke:#000000;stroke-width:1.19296372px;stroke-linecap:butt;stroke-linejoin:miter;stroke-opacity:1" />
    <path
       style="fill:#000000;fill-opacity:1;stroke:#070808;stroke-width:0.37641236px;stroke-linecap:butt;stroke-linejoin:miter;stroke-opacity:1"
       d="m 361.32052,51.101684 c 0,0 8.70065,6.577176 30.4545,-5.234226 21.75384,-11.811415 25.66389,-21.977806 24.65396,-33.086285 -8.81457,-3.133269 -34.4919,0.220356 -43.34649,11.616383 -8.8546,11.395997 -11.76197,26.704128 -11.76197,26.704128 z"
       id="path4580"
       inkscape:connector-curvature="0" />
    <path
       inkscape:connector-curvature="0"
       id="path4582"
       d="m 456.29848,54.108337 c 0,0 -9.05685,6.07731 -30.11181,-6.939158 -21.05496,-13.016466 -24.38689,-23.386725 -22.75366,-34.420799 8.97688,-2.63245 34.42487,2.160368 42.62437,14.036442 8.19949,11.876077 10.2411,27.323515 10.2411,27.323515 z"
       style="fill:#000000;fill-opacity:1;stroke:#070808;stroke-width:0.37641236px;stroke-linecap:butt;stroke-linejoin:miter;stroke-opacity:1" />
    <path
       style="fill:none;stroke:#dcb3ff;stroke-width:1.23060167;stroke-linecap:round;stroke-linejoin:miter;stroke-miterlimit:4;stroke-dasharray:none;stroke-opacity:1"
       d="m 410.65474,29.116198 c 0,0 16.66973,18.282888 41.94311,22.988055"
       id="path4540"
       inkscape:connector-curvature="0" />
    <path
       inkscape:connector-curvature="0"
       id="path4542"
       d="m 412.5368,26.225893 c 0,0 16.66973,18.282887 41.94311,22.988052"
       style="fill:none;fill-opacity:1;stroke:#c0b3ff;stroke-width:1.23060167;stroke-linecap:round;stroke-linejoin:miter;stroke-miterlimit:4;stroke-dasharray:none;stroke-opacity:1" />
    <path
       style="fill:none;fill-opacity:1;stroke:#a1b3ff;stroke-width:1.23060167;stroke-linecap:round;stroke-linejoin:miter;stroke-miterlimit:4;stroke-dasharray:none;stroke-opacity:1"
       d="m 414.41886,23.335586 c 0,0 16.66973,18.282886 41.9431,22.988053"
       id="path4544"
       inkscape:connector-curvature="0" />
    <ellipse
       style="display:inline;opacity:0.18600003;fill:url(#radialGradient4316);fill-opacity:1;stroke:none;stroke-width:0.85615772;stroke-linecap:round;stroke-linejoin:round;stroke-miterlimit:4;stroke-dasharray:none;stroke-opacity:0.52173911;paint-order:stroke fill markers"
       id="path4577"
       cx="408.46948"
       cy="153.02591"
       rx="8.7759533"
       ry="3.9816828"
       transform="rotate(-11.085754)" />
    <ellipse
       style="display:inline;opacity:0.18600003;fill:url(#radialGradient4308);fill-opacity:1;stroke:none;stroke-width:0.85615772;stroke-linecap:round;stroke-linejoin:round;stroke-miterlimit:4;stroke-dasharray:none;stroke-opacity:0.52173911;paint-order:stroke fill markers"
       id="path4579"
       cx="368.21173"
       cy="132.46342"
       rx="6.0944128"
       ry="3.5753887"
       transform="rotate(-8.0315363)" />
    <path
       sodipodi:type="star"
       style="display:inline;opacity:0.18600003;fill:#d5f6ff;fill-opacity:1;stroke:#d5f6ff;stroke-width:3.97853827;stroke-linecap:round;stroke-linejoin:round;stroke-miterlimit:4;stroke-dasharray:none;stroke-dashoffset:0;stroke-opacity:1;paint-order:stroke fill markers"
       id="path4559"
       sodipodi:sides="5"
       sodipodi:cx="377.03394"
       sodipodi:cy="59.944859"
       sodipodi:r1="2.3659186"
       sodipodi:r2="1.9140686"
       sodipodi:arg1="1.0040671"
       sodipodi:arg2="1.6323856"
       inkscape:flatsided="true"
       inkscape:rounded="0"
       inkscape:randomized="0"
       d="m 378.30414,61.940893 -2.77603,-0.17119 -0.69503,-2.693063 2.34648,-1.493214 2.14523,1.770206 z"
       inkscape:transform-center-x="-0.044993039"
       inkscape:transform-center-y="-0.18270357" />
    <path
       sodipodi:type="star"
       style="display:inline;opacity:0.18600003;fill:#d5f6ff;fill-opacity:1;stroke:#d5f6ff;stroke-width:4.5789876;stroke-linecap:round;stroke-linejoin:round;stroke-miterlimit:4;stroke-dasharray:none;stroke-dashoffset:0;stroke-opacity:1;paint-order:stroke fill markers"
       id="path4561"
       sodipodi:sides="5"
       sodipodi:cx="422.10889"
       sodipodi:cy="55.203876"
       sodipodi:r1="3.6532724"
       sodipodi:r2="2.95556"
       sodipodi:arg1="1.0303768"
       sodipodi:arg2="1.6586954"
       inkscape:flatsided="true"
       inkscape:rounded="0"
       inkscape:randomized="0"
       d="m 423.98848,58.336532 -4.2781,-0.377012 -0.96344,-4.185218 3.68265,-2.209594 3.23946,2.819613 z"
       inkscape:transform-center-x="-0.099080276"
       inkscape:transform-center-y="-0.25326278" />
    <path
       style="fill:#ffffff;fill-opacity:1;stroke:none;stroke-width:0.35919982px;stroke-linecap:butt;stroke-linejoin:miter;stroke-opacity:1"
       d="m 393.92761,-2.9894852 3.99007,12.527812 c 0,0 29.06322,-4.669247 47.68995,8.4934872 9.21836,-10.1243272 10.21643,-11.0491282 10.21643,-11.0491282 0,0 -33.6133,-6.30084798 -31.36388,-20.1827228 -2.54962,14.01165082 -30.53257,10.2105518 -30.53257,10.2105518 z"
       id="path4523"
       inkscape:connector-curvature="0" />
    <path
       inkscape:connector-curvature="0"
       id="path4330"
       d="m 408.70004,256.63469 c 0,0 4.423,8.91002 10.16506,11.72366 5.74204,2.81362 3.50601,20.16903 -8.53869,14.7088 -12.04463,-5.46019 -17.9489,-30.42844 -17.9489,-30.42844 z"
       style="fill:#d6ada7;fill-opacity:1;stroke:#d6ada7;stroke-width:0.30411664px;stroke-linecap:butt;stroke-linejoin:miter;stroke-opacity:1" />
    <path
       sodipodi:nodetypes="csccssccc"
       inkscape:connector-curvature="0"
       id="path4300"
       d="m 411.29994,307.28922 c 0,0 2.30407,49.12166 2.88274,58.92721 0.58315,9.88136 11.70069,94.58356 19.03931,96.31695 7.3387,1.73339 15.76413,1.30815 15.63556,-4.36129 -0.1286,-5.66946 0.51072,-73.49693 -1.72092,-83.98385 -1.35308,-6.35838 6.0455,-40.45517 8.90389,-68.42019 1.85602,-18.15831 -0.53576,-35.27638 -0.53576,-35.27638 l -73.15597,2.49686 z"
       style="fill:url(#linearGradient4481);fill-opacity:1;stroke:none;stroke-width:0.36095753px;stroke-linecap:butt;stroke-linejoin:miter;stroke-opacity:1" />
    <path
       style="fill:url(#linearGradient4465);fill-opacity:1;stroke:none;stroke-width:0.36095753px;stroke-linecap:butt;stroke-linejoin:miter;stroke-opacity:1"
       d="m 382.34879,272.98853 c 0,0 -15.64235,89.12742 -14.18479,98.96651 1.61341,10.89131 17.17852,87.79191 24.61871,89.8564 7.44024,2.06444 15.90493,2.03083 15.59394,-3.61754 -0.311,-5.64843 -6.76031,-77.31704 -9.34186,-87.85721 -2.22161,-9.07056 5.45961,-51.27132 8.48258,-62.2915 0.48979,-1.78556 47.98739,-37.55352 47.98739,-37.55352 z"
       id="path4298"
       inkscape:connector-curvature="0"
       sodipodi:nodetypes="csccsscc" />
    <path
       sodipodi:nodetypes="csccsscc"
       inkscape:connector-curvature="0"
       id="path4483"
       d="m 382.34879,272.98853 c 0,0 -15.64235,89.12742 -14.18479,98.96651 1.61341,10.89131 17.17852,87.79191 24.61871,89.8564 7.44024,2.06444 15.90493,2.03083 15.59394,-3.61754 -0.311,-5.64843 -6.76031,-77.31704 -9.34186,-87.85721 -2.22161,-9.07056 5.45961,-51.27132 8.48258,-62.2915 0.48979,-1.78556 47.98739,-37.55352 47.98739,-37.55352 z"
       style="opacity:0.5550001;fill:url(#linearGradient4485);fill-opacity:1;stroke:none;stroke-width:0.36095753px;stroke-linecap:butt;stroke-linejoin:miter;stroke-opacity:1" />
    <path
       style="opacity:0.50899999;fill:url(#linearGradient4496);fill-opacity:1;stroke:none;stroke-width:0.36095753px;stroke-linecap:butt;stroke-linejoin:miter;stroke-opacity:1"
       d="m 411.29994,307.28922 c 0,0 2.30407,49.12166 2.88274,58.92721 0.58315,9.88136 11.70069,94.58356 19.03931,96.31695 7.3387,1.73339 15.76413,1.30815 15.63556,-4.36129 -0.1286,-5.66946 0.51072,-73.49693 -1.72092,-83.98385 -1.35308,-6.35838 6.0455,-40.45517 8.90389,-68.42019 1.85602,-18.15831 -0.53576,-35.27638 -0.53576,-35.27638 l -73.15597,2.49686 z"
       id="path4494"
       inkscape:connector-curvature="0"
       sodipodi:nodetypes="csccssccc" />
    <path
       style="fill:url(#linearGradient4505);fill-opacity:1;stroke:none;stroke-width:4.64208794px;stroke-linecap:butt;stroke-linejoin:miter;stroke-opacity:1"
       d="m 1574.9668,455.75977 c -63.5014,2.17417 -86.9897,49.80757 -121.4531,106.62109 -2.3811,4.34923 -3.961,8.61356 -4.8242,12.7832 3.7232,1.94345 12.5064,3.90771 13.5173,11.70982 6.8379,50.59465 16.7868,114.05783 25.5764,165.68081 0,0 15.2388,36.34254 -12.8965,98.47461 -23.1796,51.18867 -61.5729,224.4318 -74.3789,283.873 -1.9039,14.772 282.6764,111.8616 343.1113,66.5391 -8.2949,-73.5758 -36.6838,-323.72981 -41.6777,-345.70312 -15.6895,-95.41531 88.2411,-192.53264 126.9492,-273.01953 -54.9109,-49.03786 -105.4207,-104.19813 -167.3379,-123.375 -8.9333,64.62656 -116.7753,103.11231 -86.5859,-3.58398 z"
       transform="scale(0.26458333)"
       id="path4617"
       inkscape:connector-curvature="0"
       sodipodi:nodetypes="cccccccccccc" />
    <path
       style="fill:url(#linearGradient4514);fill-opacity:1;stroke:none;stroke-width:1.00428736px;stroke-linecap:butt;stroke-linejoin:miter;stroke-opacity:1"
       d="m 483.89397,154.17767 c -10.52726,19.39185 -1.90524,75.95049 13.07205,104.9837 4.69974,6.48412 -12.50399,4.46148 -13.71089,-1.1317 -1.20682,-5.59329 -36.70925,-82.8891 -21.46544,-110.79273 z"
       id="path4640"
       inkscape:connector-curvature="0"
       sodipodi:nodetypes="ccccc" />
    <path
       style="fill:#ffffff;fill-opacity:1;stroke:#ffffff;stroke-width:0.35919985px;stroke-linecap:butt;stroke-linejoin:miter;stroke-opacity:1"
       d="m 382.34879,272.98853 c 0,0 27.99919,38.70936 70.07691,4.58538 -11.54573,-56.95886 -8.75639,-52.56422 -6.70382,-64.36649 2.05259,-11.8023 20.01257,-76.71483 20.01257,-76.71483 0,0 -5.94478,-5.60538 -14.56042,-10.32699 -6.92742,11.28913 -11.60984,27.51727 -28.80013,21.10297 -17.19027,-6.41428 -12.572,-26.39571 -12.572,-26.39571 0,0 -13.85484,1.75198 -20.78226,19.96854 6.15769,36.17655 15.90741,54.91915 13.34168,72.36602 -2.56568,17.44685 -20.01253,59.78111 -20.01253,59.78111 z"
       id="path4515"
       inkscape:connector-curvature="0"
       sodipodi:nodetypes="ccsccscccc" />
    <g
       aria-label="â¤"
       transform="matrix(1.3432352,0.19700874,-0.19700874,1.3432352,-182.36471,-118.28274)"
       style="font-style:normal;font-weight:normal;font-size:10.58333302px;line-height:1.25;font-family:sans-serif;letter-spacing:0px;word-spacing:0px;fill:#000000;fill-opacity:1;stroke:none;stroke-width:0.26458332"
       id="text4529">
      <path
         d="m 485.61373,143.21577 q -1.51033,-2.63481 -6.10746,-5.3027 -2.13872,-1.24574 -2.13872,-3.20807 0,-0.82682 0.29766,-1.5875 0.30868,-0.76068 0.91501,-1.35599 0.58429,-0.57326 1.34497,-0.90399 0.71658,-0.30868 1.56545,-0.30868 0.84887,0 1.56545,0.30868 0.74965,0.3197 1.34497,0.90399 0.58429,0.57327 0.89297,1.33394 0.3197,0.74966 0.3197,1.60955 0,-0.85989 0.30868,-1.60955 0.31971,-0.76067 0.90399,-1.33394 0.59532,-0.58429 1.34497,-0.90399 0.71658,-0.30868 1.56545,-0.30868 0.84887,0 1.56545,0.30868 0.76068,0.33073 1.34497,0.90399 0.60633,0.59531 0.90399,1.35599 0.30868,0.76068 0.30868,1.5875 0,1.98438 -2.13871,3.20807 -4.59714,2.66789 -6.10747,5.3027 z"
         style="font-size:22.57777786px;line-height:25.65000534;stroke-width:0.26458332"
         id="path4524"
         inkscape:connector-curvature="0" />
    </g>
    <path
       style="fill:none;stroke:#1a1a1a;stroke-width:3.4822588;stroke-linecap:butt;stroke-linejoin:miter;stroke-miterlimit:4;stroke-dasharray:none;stroke-opacity:1"
       d="m 400.18558,208.69487 c 0,0 15.96524,11.24824 46.80722,8.34547"
       id="path4531"
       inkscape:connector-curvature="0" />
    <path
       style="fill:#1a1a1a;fill-opacity:1;stroke:#1a1a1a;stroke-width:0.35919985px;stroke-linecap:butt;stroke-linejoin:miter;stroke-opacity:1"
       d="m 427.11846,216.45087 c 0,0 -10.33224,1.95994 -11.83195,4.50581 2.14603,3.91776 3.43422,3.86534 3.43422,3.86534 0,0 3.10885,-5.85633 8.39773,-8.37115 z"
       id="path4533"
       inkscape:connector-curvature="0" />
    <path
       inkscape:connector-curvature="0"
       id="path4535"
       d="m 421.80765,216.07294 c 0,0 10.02971,3.16256 11.21931,5.86726 -2.5923,3.63791 -3.86536,3.43422 -3.86536,3.43422 0,0 -2.39786,-6.18157 -7.35395,-9.30148 z"
       style="fill:#1a1a1a;fill-opacity:1;stroke:#1a1a1a;stroke-width:0.35919985px;stroke-linecap:butt;stroke-linejoin:miter;stroke-opacity:1" />
    <path
       style="fill:url(#linearGradient4538);fill-opacity:1;stroke:none;stroke-width:0.25958276px;stroke-linecap:butt;stroke-linejoin:miter;stroke-opacity:1"
       d="m 356.21486,485.2776 c 4.44866,0.3302 32.73326,1.0654 34.17948,0.11406 4.34866,-7.3342 7.2738,0.53038 8.12854,0.41513 1.24399,-0.22476 12.52648,0.12499 12.66464,-1.45798 0.13817,-1.58303 2.67203,-23.94757 0.84533,-27.03627 -0.2719,-0.45974 0.89201,-7.70048 -3.09021,-10.40005 -8.96661,-6.07849 -18.77136,-0.64125 -23.29798,0.73474 -2.3693,0.72017 2.75456,10.04809 3.47725,12.65558 -5.63763,14.84408 -28.31983,16.27172 -40.85552,11.18367 -2.81698,6.56598 4.70991,13.34561 7.94847,13.79104 z"
       id="path4302"
       inkscape:connector-curvature="0"
       sodipodi:nodetypes="cccccsscccc" />
    <path
       sodipodi:nodetypes="cccsscc"
       inkscape:connector-curvature="0"
       id="path4306"
       d="m 439.35927,486.69047 c 1.24399,-0.22473 13.62528,-0.75869 13.76344,-2.34164 0.13818,-1.58303 2.67203,-23.94759 0.8453,-27.03626 -0.27191,-0.45977 0.6567,-6.88581 -1.84579,-10.99474 -9.39332,-15.42311 -21.48125,-1.06124 -26.00786,0.31473 -2.36928,0.72019 2.00816,11.71522 2.73083,14.32271 -13.66945,31.08233 -14.10864,22.05406 10.51408,25.7352 z"
       style="fill:url(#linearGradient4546);fill-opacity:1;stroke:none;stroke-width:0.25958276px;stroke-linecap:butt;stroke-linejoin:miter;stroke-opacity:1" />
    <path
       style="fill:#ffffff;fill-opacity:1;stroke:none;stroke-width:0.28033182px;stroke-linecap:butt;stroke-linejoin:miter;stroke-opacity:1"
       d="m 429.59818,85.379249 c 0,0 -15.58812,46.667771 -42.44616,9.93433 18.24692,-13.09168 36.28957,-0.68135 42.44616,-9.93433 z"
       id="path4514-6"
       inkscape:connector-curvature="0"
       sodipodi:nodetypes="ccc" />
    <path
       inkscape:connector-curvature="0"
       style="fill:url(#radialGradient4366);fill-opacity:1;stroke:none;stroke-width:0.28033182px;stroke-linecap:butt;stroke-linejoin:miter;stroke-opacity:1"
       d="m 429.59826,85.378889 c -2.09864,3.15414 -5.58054,3.79008 -9.97875,3.77794 -0.10648,0.84485 -0.40772,1.89849 -1.00622,3.21935 -15.69116,-0.41842 -22.02823,1.98435 -24.38527,3.41467 -0.59624,0.3618 -2.21249,-1.40377 -3.36148,-2.80515 -1.2349,0.6691 -2.47436,1.43785 -3.71487,2.32787 26.85803,36.733451 42.44659,-9.93468 42.44659,-9.93468 z"
       id="path4518-3" />
    <path
       inkscape:connector-curvature="0"
       style="fill:url(#radialGradient4374);fill-opacity:1;stroke:none;stroke-width:0.28033182px;stroke-linecap:butt;stroke-linejoin:miter;stroke-opacity:1"
       d="m 429.59826,85.378889 c -2.09864,3.15414 -5.58054,3.79008 -9.97875,3.77794 -0.10648,0.84485 -0.40772,1.89849 -1.00622,3.21935 -15.69116,-0.41842 -22.02823,1.98435 -24.38527,3.41467 -0.59624,0.3618 -2.21249,-1.40377 -3.36148,-2.80515 -1.2349,0.6691 -2.47436,1.43785 -3.71487,2.32787 2.85357,3.902772 5.57832,6.855941 8.17226,9.031811 a 15.502471,9.5810541 0 0 1 14.81464,-6.760931 15.502471,9.5810541 0 0 1 11.36043,3.074181 c 5.2885,-6.869821 8.09926,-15.279741 8.09926,-15.279741 z"
       id="path4530-2" />
  </g>
  <g
     inkscape:groupmode="layer"
     id="layer2"
     inkscape:label="Decor"
     style="display:inline;opacity:0.18600003"
     transform="translate(-326.73629,1.950054)" />
</svg>
