<?xml version="1.0" encoding="UTF-8" standalone="no"?>
<!-- Created with Inkscape (http://www.inkscape.org/) -->

<svg
   xmlns:dc="http://purl.org/dc/elements/1.1/"
   xmlns:cc="http://creativecommons.org/ns#"
   xmlns:rdf="http://www.w3.org/1999/02/22-rdf-syntax-ns#"
   xmlns:svg="http://www.w3.org/2000/svg"
   xmlns="http://www.w3.org/2000/svg"
   xmlns:xlink="http://www.w3.org/1999/xlink"
   xmlns:sodipodi="http://sodipodi.sourceforge.net/DTD/sodipodi-0.dtd"
   xmlns:inkscape="http://www.inkscape.org/namespaces/inkscape"
   width="626.79028"
   height="1980.25"
   viewBox="0 0 165.83826 523.94116"
   version="1.1"
   id="svg8"
   inkscape:version="0.92+devel unknown"
   sodipodi:docname="adorina yap.svg"
   inkscape:export-filename="/home/mbrickn/Projects/Operation-Ohio/game/images/characters/adorina/adorina yap.png"
   inkscape:export-xdpi="96"
   inkscape:export-ydpi="96">
  <title
     id="title4301">Adorina</title>
  <defs
     id="defs2">
    <linearGradient
       inkscape:collect="always"
       id="linearGradient4393">
      <stop
         style="stop-color:#b3cdff;stop-opacity:1;"
         offset="0"
         id="stop4389" />
      <stop
         style="stop-color:#9eb5e1;stop-opacity:1"
         offset="1"
         id="stop4391" />
    </linearGradient>
    <linearGradient
       inkscape:collect="always"
       id="linearGradient4384">
      <stop
         style="stop-color:#dcb3ff;stop-opacity:1;"
         offset="0"
         id="stop4380" />
      <stop
         style="stop-color:#b290ce;stop-opacity:1"
         offset="1"
         id="stop4382" />
    </linearGradient>
    <linearGradient
       inkscape:collect="always"
       id="linearGradient4376">
      <stop
         style="stop-color:#b290cf;stop-opacity:1;"
         offset="0"
         id="stop4372" />
      <stop
         style="stop-color:#dcb3ff;stop-opacity:1"
         offset="1"
         id="stop4374" />
    </linearGradient>
    <linearGradient
       inkscape:collect="always"
       id="linearGradient4368">
      <stop
         style="stop-color:#b290cf;stop-opacity:1"
         offset="0"
         id="stop4364" />
      <stop
         style="stop-color:#dcb3ff;stop-opacity:1"
         offset="1"
         id="stop4366" />
    </linearGradient>
    <linearGradient
       inkscape:collect="always"
       id="linearGradient4330">
      <stop
         style="stop-color:#b290ce;stop-opacity:1;"
         offset="0"
         id="stop4326" />
      <stop
         style="stop-color:#dcb3ff;stop-opacity:1"
         offset="1"
         id="stop4328" />
    </linearGradient>
    <linearGradient
       inkscape:collect="always"
       xlink:href="#linearGradient4330"
       id="linearGradient4332"
       x1="426.44077"
       y1="123.0491"
       x2="427.72519"
       y2="136.96118"
       gradientUnits="userSpaceOnUse" />
    <linearGradient
       inkscape:collect="always"
       xlink:href="#linearGradient4368"
       id="linearGradient4370"
       x1="416.9252"
       y1="524.57263"
       x2="410.16122"
       y2="326.77371"
       gradientUnits="userSpaceOnUse" />
    <linearGradient
       inkscape:collect="always"
       xlink:href="#linearGradient4376"
       id="linearGradient4378"
       x1="389.82132"
       y1="292.12491"
       x2="385.05139"
       y2="187.88092"
       gradientUnits="userSpaceOnUse"
       gradientTransform="matrix(-0.98596331,-0.16696215,-0.16696215,0.98596331,798.65286,69.989424)" />
    <linearGradient
       inkscape:collect="always"
       xlink:href="#linearGradient4384"
       id="linearGradient4386"
       x1="485.6199"
       y1="216.31833"
       x2="442.14325"
       y2="272.82401"
       gradientUnits="userSpaceOnUse"
       gradientTransform="matrix(-0.97533478,-0.22073075,-0.22073075,0.97533478,993.29634,104.98839)" />
    <linearGradient
       inkscape:collect="always"
       xlink:href="#linearGradient4393"
       id="linearGradient4395"
       x1="1567.5306"
       y1="1131.1255"
       x2="1595.6777"
       y2="1831.2677"
       gradientUnits="userSpaceOnUse" />
    <linearGradient
       gradientTransform="translate(-13.456413,-1.1041667e-5)"
       inkscape:collect="always"
       xlink:href="#linearGradient4409"
       id="linearGradient4411"
       x1="409.40134"
       y1="78.869087"
       x2="416.24048"
       y2="75.33358"
       gradientUnits="userSpaceOnUse" />
    <linearGradient
       inkscape:collect="always"
       id="linearGradient4409">
      <stop
         style="stop-color:#b290ce;stop-opacity:1"
         offset="0"
         id="stop4405" />
      <stop
         style="stop-color:#d5f6ff;stop-opacity:0;"
         offset="1"
         id="stop4407" />
    </linearGradient>
    <radialGradient
       inkscape:collect="always"
       xlink:href="#linearGradient4314"
       id="radialGradient4316"
       cx="419.51166"
       cy="166.65335"
       fx="419.51166"
       fy="166.65335"
       r="8.7759533"
       gradientTransform="matrix(1,-2.5118109e-8,0,0.45370374,-13.205336,88.454729)"
       gradientUnits="userSpaceOnUse" />
    <linearGradient
       inkscape:collect="always"
       id="linearGradient4314">
      <stop
         style="stop-color:#803e80;stop-opacity:1;"
         offset="0"
         id="stop4310" />
      <stop
         style="stop-color:#803e80;stop-opacity:0;"
         offset="1"
         id="stop4312" />
    </linearGradient>
    <radialGradient
       inkscape:collect="always"
       xlink:href="#linearGradient4314"
       id="radialGradient4308"
       cx="379.96432"
       cy="145.48317"
       fx="379.96432"
       fy="145.48317"
       r="6.0944128"
       gradientTransform="matrix(1,0,0,0.58666666,-13.324424,58.252933)"
       gradientUnits="userSpaceOnUse" />
    <radialGradient
       inkscape:collect="always"
       xlink:href="#linearGradient4364"
       id="radialGradient4366"
       cx="407.98849"
       cy="107.52747"
       fx="407.98849"
       fy="107.52747"
       r="21.223295"
       gradientTransform="matrix(0.63658829,-0.11649918,0.10191472,0.5568942,137.30918,102.03)"
       gradientUnits="userSpaceOnUse" />
    <linearGradient
       inkscape:collect="always"
       id="linearGradient4364">
      <stop
         style="stop-color:#b290ce;stop-opacity:1;"
         offset="0"
         id="stop4360" />
      <stop
         style="stop-color:#9f81b8;stop-opacity:1"
         offset="1"
         id="stop4362" />
    </linearGradient>
    <radialGradient
       inkscape:collect="always"
       xlink:href="#linearGradient4372"
       id="radialGradient4374"
       cx="408.37497"
       cy="94.862137"
       fx="408.37497"
       fy="94.862137"
       r="21.223295"
       gradientTransform="matrix(0.55531924,-0.02187924,0.01759126,0.44648551,179.92776,72.692487)"
       gradientUnits="userSpaceOnUse" />
    <linearGradient
       inkscape:collect="always"
       id="linearGradient4372">
      <stop
         style="stop-color:#a1b3ff;stop-opacity:1;"
         offset="0"
         id="stop4368" />
      <stop
         style="stop-color:#9aabf3;stop-opacity:1"
         offset="1"
         id="stop4370" />
    </linearGradient>
    <linearGradient
       gradientTransform="translate(-2.2503803e-5,-1.1041667e-5)"
       inkscape:collect="always"
       xlink:href="#linearGradient4322"
       id="linearGradient4324"
       x1="422.20609"
       y1="121.09417"
       x2="426.39865"
       y2="131.56158"
       gradientUnits="userSpaceOnUse" />
    <linearGradient
       inkscape:collect="always"
       id="linearGradient4322">
      <stop
         style="stop-color:#d6ada7;stop-opacity:1;"
         offset="0"
         id="stop4318" />
      <stop
         style="stop-color:#e9c6af;stop-opacity:1"
         offset="1"
         id="stop4320" />
    </linearGradient>
    <linearGradient
       inkscape:collect="always"
       xlink:href="#linearGradient4322"
       id="linearGradient4358"
       gradientUnits="userSpaceOnUse"
       x1="413.11963"
       y1="113.63715"
       x2="408.65634"
       y2="103.51543"
       gradientTransform="matrix(0.4299387,-0.77465393,-0.77830107,-0.46870699,404.75522,635.98902)" />
    <linearGradient
       inkscape:collect="always"
       xlink:href="#linearGradient4322"
       id="linearGradient4457"
       gradientUnits="userSpaceOnUse"
       gradientTransform="matrix(-0.41300689,-0.78381203,0.7883006,-0.45168679,451.20767,640.25316)"
       x1="413.11963"
       y1="113.63715"
       x2="408.65634"
       y2="103.51543" />
    <linearGradient
       inkscape:collect="always"
       xlink:href="#linearGradient4368"
       id="linearGradient4348"
       gradientUnits="userSpaceOnUse"
       x1="416.9252"
       y1="524.57263"
       x2="410.16122"
       y2="326.77371" />
    <linearGradient
       inkscape:collect="always"
       xlink:href="#linearGradient4368"
       id="linearGradient4350"
       gradientUnits="userSpaceOnUse"
       x1="416.9252"
       y1="524.57263"
       x2="410.16122"
       y2="326.77371" />
  </defs>
  <sodipodi:namedview
     id="base"
     pagecolor="#ffffff"
     bordercolor="#666666"
     borderopacity="1.0"
     inkscape:pageopacity="0.0"
     inkscape:pageshadow="2"
     inkscape:zoom="0.49497475"
     inkscape:cx="-351.59069"
     inkscape:cy="1264.535"
     inkscape:document-units="mm"
     inkscape:current-layer="layer3"
     showgrid="false"
     inkscape:window-width="1920"
     inkscape:window-height="1016"
     inkscape:window-x="0"
     inkscape:window-y="0"
     inkscape:window-maximized="1"
     units="px"
     inkscape:pagecheckerboard="true"
     inkscape:document-rotation="0"
     fit-margin-top="0"
     fit-margin-left="0"
     fit-margin-right="0"
     fit-margin-bottom="0">
    <inkscape:grid
       type="xygrid"
       id="grid4485"
       originx="-342.98759"
       originy="241.46231" />
  </sodipodi:namedview>
  <metadata
     id="metadata5">
    <rdf:RDF>
      <cc:Work
         rdf:about="">
        <dc:format>image/svg+xml</dc:format>
        <dc:type
           rdf:resource="http://purl.org/dc/dcmitype/StillImage" />
        <dc:title>Adorina</dc:title>
        <cc:license
           rdf:resource="http://creativecommons.org/licenses/by/4.0/" />
        <dc:creator>
          <cc:Agent>
            <dc:title>Maxwell Paul Brickner</dc:title>
          </cc:Agent>
        </dc:creator>
      </cc:Work>
      <cc:License
         rdf:about="http://creativecommons.org/licenses/by/4.0/">
        <cc:permits
           rdf:resource="http://creativecommons.org/ns#Reproduction" />
        <cc:permits
           rdf:resource="http://creativecommons.org/ns#Distribution" />
        <cc:requires
           rdf:resource="http://creativecommons.org/ns#Notice" />
        <cc:requires
           rdf:resource="http://creativecommons.org/ns#Attribution" />
        <cc:permits
           rdf:resource="http://creativecommons.org/ns#DerivativeWorks" />
      </cc:License>
    </rdf:RDF>
  </metadata>
  <g
     inkscape:label="Head"
     inkscape:groupmode="layer"
     id="layer1"
     transform="translate(-342.98759,-14.521134)">
    <path
       style="fill:#000000;fill-opacity:1;stroke:#070808;stroke-width:0.37641236px;stroke-linecap:butt;stroke-linejoin:miter;stroke-opacity:1"
       d="m 444.02601,77.46464 c 0,0 6.27386,5.751049 10.02868,5.275739 2.04374,-2.37644 22.31159,-58.671195 -28.50408,-67.006053 -50.81567,-8.334846 -66.40987,36.565817 -67.21649,45.976093 -0.80658,9.410319 17.4763,24.466797 45.43835,8.065977 38.98557,6.990543 40.25354,7.688244 40.25354,7.688244 z"
       id="path4522"
       inkscape:connector-curvature="0" />
    <path
       style="fill:url(#linearGradient4324);fill-opacity:1;stroke:none;stroke-width:1.28707409px;stroke-linecap:butt;stroke-linejoin:miter;stroke-opacity:1"
       d="m 410.14152,124.09448 c 0,0 7.5438,0.59117 6.5687,7.74197 -17.01815,78.41722 25.25903,9.44785 25.25903,9.44785 0,0 1.50456,-4.21113 -2.10596,-8.35508 -3.10938,-3.56877 -8.92293,-15.84445 -9.36966,-18.07809 -0.8126,-4.06296 -20.35211,9.24335 -20.35211,9.24335 z"
       id="path4612"
       inkscape:connector-curvature="0"
       sodipodi:nodetypes="cccscc" />
    <path
       style="fill:#e9c6af;stroke:none;stroke-width:1.28707409px;stroke-linecap:butt;stroke-linejoin:miter;stroke-opacity:1"
       d="m 369.94486,70.145704 c 0,0 0,32.176836 12.87075,45.047606 12.87075,12.87073 25.23654,11.58694 25.23654,11.58694 0,0 8.78755,1.68709 20.71726,-9.14974 17.17487,-15.60148 24.83528,-60.355534 24.83528,-60.355534 0,0 0,-32.176953 -51.48295,-32.176894 -32.17686,4.2e-5 -32.17688,45.047622 -32.17688,45.047622 z"
       id="path4487"
       inkscape:connector-curvature="0"
       sodipodi:nodetypes="cccscsc" />
    <ellipse
       ry="12.870742"
       rx="11.146981"
       cy="63.710373"
       cx="426.13953"
       id="ellipse4497"
       style="fill:#ffffff;fill-opacity:1;stroke:none;stroke-width:5.22741938;stroke-linecap:round;stroke-linejoin:round;stroke-miterlimit:4;stroke-dasharray:none;stroke-opacity:1;paint-order:stroke fill markers" />
    <path
       sodipodi:nodetypes="ccc"
       style="fill:url(#linearGradient4411);fill-opacity:1;stroke:none;stroke-width:0.85615778;stroke-linecap:butt;stroke-linejoin:miter;stroke-miterlimit:4;stroke-dasharray:none;stroke-opacity:1"
       d="m 399.80317,65.363008 c 0,0 -0.26027,4.6349 -3.85823,13.506072 9.5469,-3.685212 12.80416,-1.005139 12.80416,-1.005139"
       id="path4489"
       inkscape:connector-curvature="0" />
    <ellipse
       ry="14.392494"
       rx="7.9351473"
       cy="98.873848"
       cx="373.28195"
       id="ellipse4499"
       style="fill:#ffffff;fill-opacity:1;stroke:none;stroke-width:5.71213007;stroke-linecap:round;stroke-linejoin:round;stroke-miterlimit:4;stroke-dasharray:none;stroke-opacity:1;paint-order:stroke fill markers"
       transform="rotate(-4.4885584)" />
    <ellipse
       style="fill:#dcb3ff;fill-opacity:1;stroke:none;stroke-width:4.38949585;stroke-linecap:round;stroke-linejoin:round;stroke-miterlimit:4;stroke-dasharray:none;stroke-opacity:1;paint-order:stroke fill markers"
       id="path4491"
       cx="371.33664"
       cy="99.358505"
       rx="6.0149846"
       ry="11.212172"
       transform="rotate(-4.4885584)" />
    <ellipse
       style="fill:#dcb3ff;fill-opacity:1;stroke:none;stroke-width:4.52386475;stroke-linecap:round;stroke-linejoin:round;stroke-miterlimit:4;stroke-dasharray:none;stroke-opacity:1;paint-order:stroke fill markers"
       id="path4493"
       cx="417.63071"
       cy="97.435661"
       rx="8.9770441"
       ry="11.969392"
       transform="rotate(-4.4885584)" />
    <path
       sodipodi:nodetypes="ccccc"
       style="fill:#000000;fill-opacity:1;stroke:#000000;stroke-width:1.4392494px;stroke-linecap:butt;stroke-linejoin:miter;stroke-opacity:1"
       d="m 414.70884,63.593872 c 0,0 1.0454,-12.134202 11.64467,-12.579557 10.59928,-0.445193 11.47218,12.570066 11.47218,12.570066 0,0 0.25736,-15.037628 -10.75511,-14.108702 -11.01247,0.928875 -12.36174,14.118193 -12.36174,14.118193 z"
       id="path4505"
       inkscape:connector-curvature="0" />
    <path
       style="fill:#d5f6ff;fill-opacity:1;stroke:#d5f6ff;stroke-width:1.4392494px;stroke-linecap:butt;stroke-linejoin:miter;stroke-opacity:1"
       d="m 438.20593,62.681342 1.84935,0.433531"
       id="path4507"
       inkscape:connector-curvature="0"
       sodipodi:nodetypes="cc" />
    <path
       inkscape:connector-curvature="0"
       id="path4509"
       d="m 371.70644,67.90264 c 0,0 0.94042,-11.874145 8.23199,-12.059843 7.29158,-0.185536 8.02649,11.959778 8.02649,11.959778 0,0 -0.65794,-14.336813 -8.22238,-13.678559 -7.56444,0.658199 -8.0361,13.778624 -8.0361,13.778624 z"
       style="fill:#d5f6ff;fill-opacity:1;stroke:#000000;stroke-width:1.19296372px;stroke-linecap:butt;stroke-linejoin:miter;stroke-opacity:1"
       sodipodi:nodetypes="ccccc" />
    <path
       sodipodi:nodetypes="cc"
       inkscape:connector-curvature="0"
       id="path4511"
       d="m 370.09012,66.901626 1.28471,0.477856"
       style="fill:#d5f6ff;fill-opacity:1;stroke:#000000;stroke-width:1.19296372px;stroke-linecap:butt;stroke-linejoin:miter;stroke-opacity:1" />
    <path
       style="fill:#000000;fill-opacity:1;stroke:#070808;stroke-width:0.37641236px;stroke-linecap:butt;stroke-linejoin:miter;stroke-opacity:1"
       d="m 361.32052,62.351669 c 0,0 8.70065,6.577176 30.4545,-5.234226 21.75384,-11.811415 25.66389,-21.977807 24.65396,-33.086286 -8.81457,-3.133269 -34.4919,0.220356 -43.34649,11.616383 -8.8546,11.395999 -11.76197,26.704129 -11.76197,26.704129 z"
       id="path4580"
       inkscape:connector-curvature="0" />
    <path
       inkscape:connector-curvature="0"
       id="path4582"
       d="m 456.29848,65.358322 c 0,0 -9.05685,6.07731 -30.11181,-6.939158 -21.05496,-13.016465 -24.38689,-23.386724 -22.75366,-34.4208 8.97688,-2.63245 34.42487,2.160369 42.62437,14.036443 8.19949,11.876077 10.2411,27.323515 10.2411,27.323515 z"
       style="fill:#000000;fill-opacity:1;stroke:#070808;stroke-width:0.37641236px;stroke-linecap:butt;stroke-linejoin:miter;stroke-opacity:1" />
    <path
       style="fill:none;stroke:#dcb3ff;stroke-width:1.23060167;stroke-linecap:round;stroke-linejoin:miter;stroke-miterlimit:4;stroke-dasharray:none;stroke-opacity:1"
       d="m 410.65474,40.366183 c 0,0 16.66973,18.282888 41.94311,22.988056"
       id="path4540"
       inkscape:connector-curvature="0" />
    <path
       inkscape:connector-curvature="0"
       id="path4542"
       d="m 412.5368,37.475877 c 0,0 16.66973,18.282889 41.94311,22.988053"
       style="fill:none;fill-opacity:1;stroke:#c0b3ff;stroke-width:1.23060167;stroke-linecap:round;stroke-linejoin:miter;stroke-miterlimit:4;stroke-dasharray:none;stroke-opacity:1" />
    <path
       style="fill:none;fill-opacity:1;stroke:#a1b3ff;stroke-width:1.23060167;stroke-linecap:round;stroke-linejoin:miter;stroke-miterlimit:4;stroke-dasharray:none;stroke-opacity:1"
       d="m 414.41886,34.585572 c 0,0 16.66973,18.282885 41.9431,22.988053"
       id="path4544"
       inkscape:connector-curvature="0" />
    <ellipse
       style="display:inline;opacity:0.18600003;fill:url(#radialGradient4316);fill-opacity:1;stroke:none;stroke-width:0.85615772;stroke-linecap:round;stroke-linejoin:round;stroke-miterlimit:4;stroke-dasharray:none;stroke-opacity:0.52173911;paint-order:stroke fill markers"
       id="path4577"
       cx="406.30637"
       cy="164.06598"
       rx="8.7759533"
       ry="3.9816828"
       transform="rotate(-11.085754)" />
    <ellipse
       style="display:inline;opacity:0.18600003;fill:url(#radialGradient4308);fill-opacity:1;stroke:none;stroke-width:0.85615772;stroke-linecap:round;stroke-linejoin:round;stroke-miterlimit:4;stroke-dasharray:none;stroke-opacity:0.52173911;paint-order:stroke fill markers"
       id="path4579"
       cx="366.63989"
       cy="143.60306"
       rx="6.0944128"
       ry="3.5753887"
       transform="rotate(-8.0315362)" />
    <path
       sodipodi:type="star"
       style="display:inline;opacity:0.18600003;fill:#d5f6ff;fill-opacity:1;stroke:#d5f6ff;stroke-width:3.97853827;stroke-linecap:round;stroke-linejoin:round;stroke-miterlimit:4;stroke-dasharray:none;stroke-dashoffset:0;stroke-opacity:1;paint-order:stroke fill markers"
       id="path4559"
       sodipodi:sides="5"
       sodipodi:cx="377.03394"
       sodipodi:cy="71.194847"
       sodipodi:r1="2.3659186"
       sodipodi:r2="1.9140686"
       sodipodi:arg1="1.0040671"
       sodipodi:arg2="1.6323856"
       inkscape:flatsided="true"
       inkscape:rounded="0"
       inkscape:randomized="0"
       d="m 378.30414,73.190882 -2.77603,-0.171191 -0.69503,-2.693063 2.34648,-1.493214 2.14523,1.770206 z"
       inkscape:transform-center-x="-0.044993039"
       inkscape:transform-center-y="-0.18270357" />
    <path
       sodipodi:type="star"
       style="display:inline;opacity:0.18600003;fill:#d5f6ff;fill-opacity:1;stroke:#d5f6ff;stroke-width:4.5789876;stroke-linecap:round;stroke-linejoin:round;stroke-miterlimit:4;stroke-dasharray:none;stroke-dashoffset:0;stroke-opacity:1;paint-order:stroke fill markers"
       id="path4561"
       sodipodi:sides="5"
       sodipodi:cx="422.10889"
       sodipodi:cy="66.453865"
       sodipodi:r1="3.6532724"
       sodipodi:r2="2.95556"
       sodipodi:arg1="1.0303768"
       sodipodi:arg2="1.6586954"
       inkscape:flatsided="true"
       inkscape:rounded="0"
       inkscape:randomized="0"
       d="m 423.98848,69.58652 -4.2781,-0.377012 -0.96344,-4.185217 3.68265,-2.209594 3.23946,2.819612 z"
       inkscape:transform-center-x="-0.099080276"
       inkscape:transform-center-y="-0.25326278" />
    <path
       style="fill:#ffffff;fill-opacity:1;stroke:none;stroke-width:0.28033182px;stroke-linecap:butt;stroke-linejoin:miter;stroke-opacity:1"
       d="m 429.59818,96.629234 c 0,0 -15.58812,46.667766 -42.44616,9.934326 18.24692,-13.091676 36.28957,-0.68135 42.44616,-9.934326 z"
       id="path4514-6"
       inkscape:connector-curvature="0"
       sodipodi:nodetypes="ccc" />
    <path
       inkscape:connector-curvature="0"
       style="fill:url(#radialGradient4366);fill-opacity:1;stroke:none;stroke-width:0.28033182px;stroke-linecap:butt;stroke-linejoin:miter;stroke-opacity:1"
       d="m 429.59826,96.628874 c -2.09864,3.15414 -5.58054,3.790076 -9.97875,3.777936 -0.10648,0.84485 -0.40772,1.89849 -1.00622,3.21935 -15.69116,-0.41842 -22.02823,1.98435 -24.38527,3.41467 -0.59624,0.3618 -2.21249,-1.40377 -3.36148,-2.80515 -1.2349,0.6691 -2.47436,1.43785 -3.71487,2.32787 26.85803,36.73345 42.44659,-9.934676 42.44659,-9.934676 z"
       id="path4518-3" />
    <path
       inkscape:connector-curvature="0"
       style="fill:url(#radialGradient4374);fill-opacity:1;stroke:none;stroke-width:0.28033182px;stroke-linecap:butt;stroke-linejoin:miter;stroke-opacity:1"
       d="m 429.59826,96.628874 c -2.09864,3.15414 -5.58054,3.790076 -9.97875,3.777936 -0.10648,0.84485 -0.40772,1.89849 -1.00622,3.21935 -15.69116,-0.41842 -22.02823,1.98435 -24.38527,3.41467 -0.59624,0.3618 -2.21249,-1.40377 -3.36148,-2.80515 -1.2349,0.6691 -2.47436,1.43785 -3.71487,2.32787 2.85357,3.90277 5.57832,6.85594 8.17226,9.03181 a 15.502471,9.5810541 0 0 1 14.81464,-6.76093 15.502471,9.5810541 0 0 1 11.36043,3.07418 c 5.2885,-6.86982 8.09926,-15.279736 8.09926,-15.279736 z"
       id="path4530-2" />
  </g>
  <g
     inkscape:groupmode="layer"
     id="layer3"
     inkscape:label="Body"
     transform="translate(-342.98759,-3.2711507)">
    <path
       sodipodi:nodetypes="ccccsssscccscc"
       inkscape:connector-curvature="0"
       id="path4455"
       d="m 368.19431,257.68614 c 0.26813,4.56169 -15.01969,18.09491 -13.03741,21.26625 0.63095,0.67619 3.84125,-3.80169 5.01753,-2.74153 1.51002,1.26465 -5.25962,4.9502 -2.96299,6.70772 1.32901,1.47435 5.03515,-4.65666 5.64807,-4.34153 0.65357,0.33623 -4.73279,4.79793 -2.86506,6.40537 1.30944,1.1272 4.84013,-3.94975 5.39156,-3.82988 0.46974,0.10213 -2.64166,3.7159 -1.33884,4.72823 0.83329,0.64852 2.24324,-1.0196 3.36008,-2.19201 3.55485,-3.73148 5.13829,-7.99045 5.13829,-7.99045 0,0 -0.91551,4.66819 0.71077,5.26635 1.62635,0.59815 1.74258,-4.97645 2.04571,-7.59731 0.30313,-2.62083 6.3123,-15.08665 6.3123,-15.08665 z"
       style="fill:url(#linearGradient4457);fill-opacity:1;stroke:none;stroke-width:0.23730476px;stroke-linecap:butt;stroke-linejoin:miter;stroke-opacity:1" />
    <path
       style="fill:url(#linearGradient4358);fill-opacity:1;stroke:none;stroke-width:0.23730476px;stroke-linecap:butt;stroke-linejoin:miter;stroke-opacity:1"
       d="m 496.06072,255.31588 c -0.36717,4.55479 14.62302,18.41696 12.57231,21.54448 -0.64549,0.66233 -3.75775,-3.88425 -4.95679,-2.84989 -1.53714,1.23154 5.15083,5.0633 2.81656,6.77051 -1.36073,1.44512 -4.93279,-4.76496 -5.55241,-4.46322 -0.66073,0.32195 4.62743,4.89962 2.72522,6.46611 -1.33362,1.09848 -4.75318,-4.05398 -5.30709,-3.94612 -0.47184,0.0919 2.56031,3.77242 1.2358,4.75621 -0.84718,0.63026 -2.22056,-1.0681 -3.31166,-2.2645 -3.47294,-3.80784 -4.96347,-8.1002 -4.96347,-8.1002 0,0 0.81387,4.68697 -0.82502,5.24966 -1.63897,0.56268 -1.63405,-5.01313 -1.88016,-7.63996 -0.24612,-2.62679 -5.98305,-15.22023 -5.98305,-15.22023 z"
       id="path4352-7"
       inkscape:connector-curvature="0"
       sodipodi:nodetypes="ccccsssscccscc" />
    <path
       style="fill:url(#linearGradient4386);fill-opacity:1;stroke:none;stroke-width:1.05241191px;stroke-linecap:butt;stroke-linejoin:miter;stroke-opacity:1"
       d="m 491.05337,177.74717 c -11.63788,32.26634 -2.98664,45.08852 5.10443,75.21891 -2.47624,11.87783 -2.11888,15.81171 -10.97418,15.88231 -15.54134,-34.08919 -35.07837,-80.82255 -6.45311,-110.52759 17.25706,6.03975 12.71046,12.94134 12.32286,19.42637 z"
       id="path4640"
       inkscape:connector-curvature="0"
       sodipodi:nodetypes="ccccc" />
    <path
       sodipodi:nodetypes="cccccc"
       inkscape:connector-curvature="0"
       id="path4642"
       d="m 378.96314,174.8653 c 0.56513,29.38386 -2.30438,51.83972 -13.08384,79.21106 -3.60518,9.60911 13.88147,25.09741 13.47301,17.77573 -0.40844,-7.32182 28.14169,-57.82407 14.6317,-111.06792 -15.84064,-20.01295 -15.02085,14.08113 -15.02085,14.08113 z"
       style="fill:url(#linearGradient4378);fill-opacity:1;stroke:none;stroke-width:1.28707409px;stroke-linecap:butt;stroke-linejoin:miter;stroke-opacity:1" />
    <path
       style="fill:#dcb3ff;fill-opacity:1;stroke:none;stroke-width:4.86453199px;stroke-linecap:butt;stroke-linejoin:miter;stroke-opacity:1"
       d="m 1577.9668,481.97461 c -60.0331,14.71561 -153.7087,91.04975 -135.3809,144.30273 23.4172,101.10391 62.7072,195.77145 30.5059,269.90625 -29.4835,65.10981 -54.0078,178.00781 -54.0078,178.00781 l 334.6269,1.6094 c 0,0 -36.5432,-147.65283 -42.6855,-174.67971 -16.4413,-99.98755 92.4702,-201.7598 133.0332,-286.10351 -57.5422,-51.38771 -110.4732,-109.19144 -175.3574,-129.28711 -63.5417,30.52146 -105.8214,49.03265 -90.7344,-3.75586 z"
       transform="scale(0.26458333)"
       id="path4617"
       inkscape:connector-curvature="0"
       sodipodi:nodetypes="ccccccccc" />
    <path
       style="fill:#d6ada7;fill-opacity:1;stroke:none;stroke-width:1.28707409px;stroke-linecap:butt;stroke-linejoin:miter;stroke-opacity:1"
       d="m 418.02952,124.25382 c 0.96927,3.82032 -0.8332,4.38207 -1.0663,6.09175 1.09338,5.49695 1.13717,5.4633 3.8178,7.18707 2.9283,1.88306 10.69653,-0.70461 12.50696,-0.90049 7.62576,-0.82511 7.97163,-8.5212 7.97163,-8.5212 0,0 -0.94571,-2.62043 -2.21286,-6.20797 -9.60253,-5.95302 -16.45869,2.97243 -21.01722,2.35084 z"
       id="path4612-3"
       inkscape:connector-curvature="0"
       sodipodi:nodetypes="ccsscccc" />
    <path
       style="fill:url(#linearGradient4332);fill-opacity:1;stroke:none;stroke-width:0.37641236px;stroke-linecap:butt;stroke-linejoin:miter;stroke-opacity:1"
       d="m 410.61446,119.15703 c 0.94104,1.88206 1.20991,2.82309 0,5.24288 -1.2099,2.41981 -1.88204,1.88206 -0.80655,3.2264 1.07544,1.34433 1.34431,3.62969 0.26882,5.64618 -1.07544,2.0165 1.88207,9.94805 10.62021,10.48578 8.73815,0.53773 20.56826,-2.4198 23.2569,-7.79712 2.68868,-5.37731 2.55426,-7.39381 1.07549,-8.73814 -1.47876,-1.34433 -0.53774,-1.88206 0,-3.89856 0.53774,-2.01649 -1.2099,-1.74763 -1.2099,-2.95751 0,-1.20991 1.47878,-0.94104 1.07545,-3.09197 -0.40329,-2.15093 -1.6132,-3.89856 -3.09193,-2.0165 -1.47877,1.88207 -1.61322,2.68866 -3.09197,2.41979 -1.47877,-0.26885 -3.62971,-1.07545 -4.57073,0.40332 -0.94104,1.47875 -3.89854,1.61318 -4.43629,1.07545 -0.53774,-0.53773 -3.36083,-1.2099 -5.10843,0.26887 -1.74766,1.47876 -2.28539,2.28536 -4.43629,1.20989 -2.15094,-1.07546 -2.01652,-2.55421 -4.57074,-1.34433 -2.55423,1.20991 -4.97404,-0.13444 -4.97404,-0.13444 z"
       id="path4523"
       inkscape:connector-curvature="0" />
    <path
       style="fill:url(#linearGradient4395);fill-opacity:1;stroke:none;stroke-width:1.53067648px;stroke-linecap:butt;stroke-linejoin:miter;stroke-opacity:1"
       d="m 1419.084,1074.1914 c 0,0 -41.9309,390.1514 -35.75,431.875 6.8418,46.1857 72.8475,372.2903 104.3984,381.0449 31.5511,8.7546 67.4457,8.6127 66.127,-15.3398 -1.3189,-23.9527 -28.6679,-327.8717 -39.6153,-372.5684 -9.4209,-38.4646 23.1517,-217.4201 35.9707,-264.1523 2.4839,-1.8623 4.9873,-3.7607 7.4844,-5.6465 2.7982,1.0524 5.6471,1.8788 8.5567,2.4395 0,0 9.7706,208.3052 12.2246,249.8867 2.4729,41.9029 49.6181,401.0927 80.7383,408.4433 31.1204,7.3506 66.8499,5.5458 66.3046,-18.4961 -0.5453,-24.042 2.1647,-311.6696 -7.2988,-356.1406 -5.7378,-26.9633 25.6365,-171.5541 37.7578,-290.1426 7.8707,-77.0021 -2.2715,-149.5937 -2.2715,-149.5937 z"
       transform="scale(0.26458333)"
       id="path4300"
       inkscape:connector-curvature="0" />
    <g
       id="g4346"
       style="fill:url(#linearGradient4370);fill-opacity:1;stroke:none">
      <path
         sodipodi:nodetypes="cccccsscccc"
         inkscape:connector-curvature="0"
         id="path4302"
         d="m 352.60021,525.62704 c 4.99136,0.37052 36.72646,1.19539 38.34911,0.128 4.87915,-8.22892 8.16114,0.5951 9.12015,0.46575 1.39575,-0.25217 14.05461,0.14026 14.20963,-1.63583 0.15503,-1.77614 2.99799,-26.869 0.94844,-30.33448 -0.30507,-0.51584 1.00084,-8.63989 -3.46718,-11.66878 -10.06046,-6.82002 -21.06131,-0.71945 -26.14015,0.82438 -2.65833,0.80804 3.0906,11.27388 3.90145,14.19944 -6.32537,16.65496 -31.77462,18.25677 -45.83957,12.54803 -3.16063,7.36695 5.28449,14.97366 8.91812,15.47341 z"
         style="fill:url(#linearGradient4348);fill-opacity:1;stroke:none;stroke-width:0.29124978px;stroke-linecap:butt;stroke-linejoin:miter;stroke-opacity:1" />
      <path
         style="fill:url(#linearGradient4350);fill-opacity:1;stroke:none;stroke-width:0.29124978px;stroke-linecap:butt;stroke-linejoin:miter;stroke-opacity:1"
         d="m 445.88757,527.2123 c 1.39575,-0.25216 15.28745,-0.85123 15.44246,-2.62732 0.15503,-1.77613 2.99799,-26.869 0.94842,-30.33447 -0.30508,-0.51585 0.73682,-7.7258 -2.07096,-12.33598 -10.53922,-17.30462 -24.10177,-1.1907 -29.1806,0.35312 -2.65831,0.80806 2.25314,13.14439 3.06397,16.06995 -15.33701,34.87412 -15.82979,24.74448 11.79671,28.8747 z"
         id="path4306"
         inkscape:connector-curvature="0"
         sodipodi:nodetypes="cccsscc" />
    </g>
    <path
       style="fill:none;stroke:#ffffff;stroke-width:0.76499999;stroke-linecap:butt;stroke-linejoin:miter;stroke-miterlimit:4;stroke-dasharray:0.765, 0.765;stroke-dashoffset:0;stroke-opacity:1"
       d="m 440.40131,295.55707 c 0,0 -2.41403,15.30178 13.47501,15.30472"
       id="path4309"
       inkscape:connector-curvature="0" />
    <path
       inkscape:connector-curvature="0"
       id="path4313"
       d="m 391.80987,295.55707 c 0,0 2.41403,15.30178 -13.47501,15.30472"
       style="fill:none;stroke:#ffffff;stroke-width:0.76499999;stroke-linecap:butt;stroke-linejoin:miter;stroke-miterlimit:4;stroke-dasharray:0.765, 0.765;stroke-dashoffset:0;stroke-opacity:1" />
  </g>
  <g
     inkscape:groupmode="layer"
     id="layer2"
     inkscape:label="Decor"
     style="display:inline;opacity:0.18600003"
     transform="translate(-342.98759,-14.521134)" />
</svg>
