<?xml version="1.0" encoding="UTF-8" standalone="no"?>
<!-- Created with Inkscape (http://www.inkscape.org/) -->

<svg
   xmlns:dc="http://purl.org/dc/elements/1.1/"
   xmlns:cc="http://creativecommons.org/ns#"
   xmlns:rdf="http://www.w3.org/1999/02/22-rdf-syntax-ns#"
   xmlns:svg="http://www.w3.org/2000/svg"
   xmlns="http://www.w3.org/2000/svg"
   xmlns:xlink="http://www.w3.org/1999/xlink"
   xmlns:sodipodi="http://sodipodi.sourceforge.net/DTD/sodipodi-0.dtd"
   xmlns:inkscape="http://www.inkscape.org/namespaces/inkscape"
   width="539.68127"
   height="1889.35"
   viewBox="0 0 142.79067 499.89053"
   version="1.1"
   id="svg8"
   inkscape:version="0.92+devel unknown"
   sodipodi:docname="adorina maid normal.svg"
   inkscape:export-filename="/home/mbrickn/Projects/Operation-Ohio/game/images/new characters/adorina/adorina maid normal.png"
   inkscape:export-xdpi="96"
   inkscape:export-ydpi="96">
  <title
     id="title4313">Adroina Maid Normal</title>
  <defs
     id="defs2">
    <linearGradient
       inkscape:collect="always"
       id="linearGradient4536">
      <stop
         style="stop-color:#1a1a1a;stop-opacity:1;"
         offset="0"
         id="stop4532" />
      <stop
         style="stop-color:#000000;stop-opacity:1"
         offset="1"
         id="stop4534" />
    </linearGradient>
    <linearGradient
       inkscape:collect="always"
       id="linearGradient4528">
      <stop
         style="stop-color:#1a1a1a;stop-opacity:1;"
         offset="0"
         id="stop4524" />
      <stop
         style="stop-color:#000000;stop-opacity:1"
         offset="1"
         id="stop4526" />
    </linearGradient>
    <linearGradient
       inkscape:collect="always"
       id="linearGradient4520">
      <stop
         style="stop-color:#e9c6af;stop-opacity:1;"
         offset="0"
         id="stop4516" />
      <stop
         style="stop-color:#bca18e;stop-opacity:1"
         offset="1"
         id="stop4518" />
    </linearGradient>
    <linearGradient
       id="linearGradient4502"
       inkscape:collect="always">
      <stop
         id="stop4498"
         offset="0"
         style="stop-color:#7a635f;stop-opacity:1;" />
      <stop
         id="stop4500"
         offset="1"
         style="stop-color:#2c2422;stop-opacity:0.31446541" />
    </linearGradient>
    <linearGradient
       inkscape:collect="always"
       id="linearGradient4463">
      <stop
         style="stop-color:#7a635f;stop-opacity:1;"
         offset="0"
         id="stop4459" />
      <stop
         style="stop-color:#2c2422;stop-opacity:1"
         offset="1"
         id="stop4461" />
    </linearGradient>
    <linearGradient
       inkscape:collect="always"
       id="linearGradient4455">
      <stop
         style="stop-color:#1a1a1a;stop-opacity:1;"
         offset="0"
         id="stop4451" />
      <stop
         style="stop-color:#000000;stop-opacity:1"
         offset="1"
         id="stop4453" />
    </linearGradient>
    <linearGradient
       gradientTransform="translate(-2.1670496e-5,-11.249995)"
       inkscape:collect="always"
       xlink:href="#linearGradient4322"
       id="linearGradient4324"
       x1="424.35834"
       y1="126.42755"
       x2="425.00018"
       y2="130.75508"
       gradientUnits="userSpaceOnUse" />
    <linearGradient
       inkscape:collect="always"
       id="linearGradient4322">
      <stop
         style="stop-color:#d6ada7;stop-opacity:1;"
         offset="0"
         id="stop4318" />
      <stop
         style="stop-color:#e9c6af;stop-opacity:1"
         offset="1"
         id="stop4320" />
    </linearGradient>
    <linearGradient
       gradientTransform="translate(-2.1670496e-5,-11.249995)"
       inkscape:collect="always"
       xlink:href="#linearGradient4409"
       id="linearGradient4411"
       x1="409.40134"
       y1="78.869087"
       x2="416.24048"
       y2="75.33358"
       gradientUnits="userSpaceOnUse" />
    <linearGradient
       inkscape:collect="always"
       id="linearGradient4409">
      <stop
         style="stop-color:#b290ce;stop-opacity:1"
         offset="0"
         id="stop4405" />
      <stop
         style="stop-color:#d5f6ff;stop-opacity:0;"
         offset="1"
         id="stop4407" />
    </linearGradient>
    <radialGradient
       inkscape:collect="always"
       xlink:href="#linearGradient4314"
       id="radialGradient4316"
       cx="419.51166"
       cy="166.65335"
       fx="419.51166"
       fy="166.65335"
       r="8.7759533"
       gradientTransform="matrix(1,-1.2559054e-8,0,0.45370374,2.1630995,80.002027)"
       gradientUnits="userSpaceOnUse" />
    <linearGradient
       inkscape:collect="always"
       id="linearGradient4314">
      <stop
         style="stop-color:#803e80;stop-opacity:1;"
         offset="0"
         id="stop4310" />
      <stop
         style="stop-color:#803e80;stop-opacity:0;"
         offset="1"
         id="stop4312" />
    </linearGradient>
    <radialGradient
       inkscape:collect="always"
       xlink:href="#linearGradient4314"
       id="radialGradient4308"
       cx="379.96432"
       cy="145.48317"
       fx="379.96432"
       fy="145.48317"
       r="6.0944128"
       gradientTransform="matrix(1,0,0,0.58666666,1.5717941,48.993397)"
       gradientUnits="userSpaceOnUse" />
    <linearGradient
       inkscape:collect="always"
       xlink:href="#linearGradient4455"
       id="linearGradient4457"
       x1="420.63138"
       y1="221.10838"
       x2="404.96793"
       y2="331.47076"
       gradientUnits="userSpaceOnUse" />
    <linearGradient
       inkscape:collect="always"
       xlink:href="#linearGradient4463"
       id="linearGradient4465"
       x1="372.7182"
       y1="376.82416"
       x2="427.30991"
       y2="375.85736"
       gradientUnits="userSpaceOnUse" />
    <linearGradient
       inkscape:collect="always"
       xlink:href="#linearGradient4463"
       id="linearGradient4481"
       x1="411.89355"
       y1="369.97772"
       x2="469.80905"
       y2="368.26135"
       gradientUnits="userSpaceOnUse" />
    <linearGradient
       inkscape:collect="always"
       xlink:href="#linearGradient4463"
       id="linearGradient4485"
       gradientUnits="userSpaceOnUse"
       x1="385.71521"
       y1="354.63763"
       x2="396.5593"
       y2="293.37967" />
    <linearGradient
       inkscape:collect="always"
       xlink:href="#linearGradient4502"
       id="linearGradient4496"
       gradientUnits="userSpaceOnUse"
       x1="430.33981"
       y1="351.94339"
       x2="432.56805"
       y2="304.62552" />
    <linearGradient
       inkscape:collect="always"
       xlink:href="#linearGradient4455"
       id="linearGradient4505"
       gradientUnits="userSpaceOnUse"
       x1="420.63138"
       y1="221.10838"
       x2="404.96793"
       y2="331.47076"
       gradientTransform="scale(3.7795276)" />
    <linearGradient
       inkscape:collect="always"
       xlink:href="#linearGradient4520"
       id="linearGradient4522"
       x1="463.95819"
       y1="283.11258"
       x2="455.33167"
       y2="290.4093"
       gradientUnits="userSpaceOnUse" />
    <linearGradient
       inkscape:collect="always"
       xlink:href="#linearGradient4528"
       id="linearGradient4530"
       x1="382.61981"
       y1="221.96097"
       x2="397.31097"
       y2="230.74597"
       gradientUnits="userSpaceOnUse" />
    <linearGradient
       inkscape:collect="always"
       xlink:href="#linearGradient4536"
       id="linearGradient4538"
       x1="389.79321"
       y1="443.10709"
       x2="390.39435"
       y2="485.39166"
       gradientUnits="userSpaceOnUse" />
    <linearGradient
       inkscape:collect="always"
       xlink:href="#linearGradient4536"
       id="linearGradient4546"
       x1="438.77634"
       y1="439.89682"
       x2="439.35928"
       y2="486.69046"
       gradientUnits="userSpaceOnUse" />
    <linearGradient
       inkscape:collect="always"
       xlink:href="#linearGradient4536"
       id="linearGradient4359"
       x1="480.62323"
       y1="189.09369"
       x2="469.52609"
       y2="274.86551"
       gradientUnits="userSpaceOnUse" />
  </defs>
  <sodipodi:namedview
     id="base"
     pagecolor="#ffffff"
     bordercolor="#666666"
     borderopacity="1.0"
     inkscape:pageopacity="0.0"
     inkscape:pageshadow="2"
     inkscape:zoom="1.4"
     inkscape:cx="-188.95014"
     inkscape:cy="1019.6799"
     inkscape:document-units="mm"
     inkscape:current-layer="layer3"
     showgrid="false"
     inkscape:window-width="1920"
     inkscape:window-height="1016"
     inkscape:window-x="0"
     inkscape:window-y="0"
     inkscape:window-maximized="1"
     units="px"
     inkscape:pagecheckerboard="true"
     inkscape:document-rotation="0"
     fit-margin-top="0"
     fit-margin-left="0"
     fit-margin-right="0"
     fit-margin-bottom="0">
    <inkscape:grid
       type="xygrid"
       id="grid4485"
       originx="-347.6474"
       originy="200.94048" />
  </sodipodi:namedview>
  <metadata
     id="metadata5">
    <rdf:RDF>
      <cc:Work
         rdf:about="">
        <dc:format>image/svg+xml</dc:format>
        <dc:type
           rdf:resource="http://purl.org/dc/dcmitype/StillImage" />
        <dc:title>Adroina Maid Normal</dc:title>
        <cc:license
           rdf:resource="http://creativecommons.org/licenses/by/4.0/" />
        <dc:creator>
          <cc:Agent>
            <dc:title>Maxwell Paul Brickner</dc:title>
          </cc:Agent>
        </dc:creator>
      </cc:Work>
      <cc:License
         rdf:about="http://creativecommons.org/licenses/by/4.0/">
        <cc:permits
           rdf:resource="http://creativecommons.org/ns#Reproduction" />
        <cc:permits
           rdf:resource="http://creativecommons.org/ns#Distribution" />
        <cc:requires
           rdf:resource="http://creativecommons.org/ns#Notice" />
        <cc:requires
           rdf:resource="http://creativecommons.org/ns#Attribution" />
        <cc:permits
           rdf:resource="http://creativecommons.org/ns#DerivativeWorks" />
      </cc:License>
    </rdf:RDF>
  </metadata>
  <g
     inkscape:label="Head"
     inkscape:groupmode="layer"
     id="layer1"
     transform="translate(-347.64741,1.950054)" />
  <g
     inkscape:groupmode="layer"
     id="layer3"
     inkscape:label="Body"
     transform="translate(-347.64741,13.200037)">
    <flowRoot
       xml:space="preserve"
       id="flowRoot4519"
       style="font-style:normal;font-weight:normal;font-size:40px;line-height:1.25;font-family:sans-serif;letter-spacing:0px;word-spacing:0px;fill:#000000;fill-opacity:1;stroke:none"><flowRegion
         id="flowRegion4521"><rect
           id="rect4523"
           width="78.286819"
           height="121.72338"
           x="1653.1146"
           y="794.6319" /></flowRegion><flowPara
         id="flowPara4525" /></flowRoot>    <path
       style="fill:#000000;fill-opacity:1;stroke:#070808;stroke-width:0.37641236px;stroke-linecap:butt;stroke-linejoin:miter;stroke-opacity:1"
       d="m 457.4824,66.214655 c 0,0 6.27386,5.751049 10.02868,5.275738 C 469.55482,69.113953 489.82267,12.8192 439.007,4.4843419 388.19133,-3.8505037 372.59713,41.050157 371.79051,50.460434 c -0.80658,9.410319 17.4763,24.466796 45.43835,8.065977 38.98557,6.990543 40.25354,7.688244 40.25354,7.688244 z"
       id="path4522"
       inkscape:connector-curvature="0" />
    <path
       style="fill:url(#linearGradient4324);fill-opacity:1;stroke:none;stroke-width:1.28707409px;stroke-linecap:butt;stroke-linejoin:miter;stroke-opacity:1"
       d="m 413.69119,110.36965 c 0,0 3.99413,3.06602 3.01903,10.21682 -17.01815,78.41722 25.25903,9.44785 25.25903,9.44785 0,0 -7.80085,-21.61487 -8.61343,-25.67782 -0.8126,-4.06296 -19.66463,6.01315 -19.66463,6.01315 z"
       id="path4612"
       inkscape:connector-curvature="0"
       sodipodi:nodetypes="ccccc" />
    <path
       style="fill:#e9c6af;stroke:none;stroke-width:1.28707409px;stroke-linecap:butt;stroke-linejoin:miter;stroke-opacity:1"
       d="m 383.40125,58.895719 c 0,0 0,32.176836 12.87075,45.047611 12.87075,12.87073 25.23654,11.58694 25.23654,11.58694 0,0 8.78755,1.68709 20.71726,-9.14974 17.17487,-15.601483 24.83528,-60.355539 24.83528,-60.355539 0,0 0,-32.176951 -51.48295,-32.176894 -32.17686,4.3e-5 -32.17688,45.047622 -32.17688,45.047622 z"
       id="path4487"
       inkscape:connector-curvature="0"
       sodipodi:nodetypes="cccscsc" />
    <ellipse
       ry="12.870742"
       rx="11.146981"
       cy="52.460384"
       cx="439.59592"
       id="ellipse4497"
       style="fill:#ffffff;fill-opacity:1;stroke:none;stroke-width:5.22741938;stroke-linecap:round;stroke-linejoin:round;stroke-miterlimit:4;stroke-dasharray:none;stroke-opacity:1;paint-order:stroke fill markers" />
    <path
       sodipodi:nodetypes="ccc"
       style="fill:url(#linearGradient4411);fill-opacity:1;stroke:none;stroke-width:0.85615778;stroke-linecap:butt;stroke-linejoin:miter;stroke-miterlimit:4;stroke-dasharray:none;stroke-opacity:1"
       d="m 413.25956,54.113023 c 0,0 -0.26027,4.634899 -3.85823,13.506072 9.5469,-3.685212 12.80416,-1.005139 12.80416,-1.005139"
       id="path4489"
       inkscape:connector-curvature="0" />
    <ellipse
       ry="14.392494"
       rx="7.9351473"
       cy="88.711464"
       cx="387.57751"
       id="ellipse4499"
       style="fill:#ffffff;fill-opacity:1;stroke:none;stroke-width:5.71213007;stroke-linecap:round;stroke-linejoin:round;stroke-miterlimit:4;stroke-dasharray:none;stroke-opacity:1;paint-order:stroke fill markers"
       transform="rotate(-4.4885584)" />
    <ellipse
       style="fill:#dcb3ff;fill-opacity:1;stroke:none;stroke-width:4.38949585;stroke-linecap:round;stroke-linejoin:round;stroke-miterlimit:4;stroke-dasharray:none;stroke-opacity:1;paint-order:stroke fill markers"
       id="path4491"
       cx="385.6322"
       cy="89.196121"
       rx="6.0149846"
       ry="11.212172"
       transform="rotate(-4.4885584)" />
    <ellipse
       style="fill:#dcb3ff;fill-opacity:1;stroke:none;stroke-width:4.52386475;stroke-linecap:round;stroke-linejoin:round;stroke-miterlimit:4;stroke-dasharray:none;stroke-opacity:1;paint-order:stroke fill markers"
       id="path4493"
       cx="431.92627"
       cy="87.273277"
       rx="8.9770441"
       ry="11.969392"
       transform="rotate(-4.4885584)" />
    <path
       sodipodi:nodetypes="ccccc"
       style="fill:#000000;fill-opacity:1;stroke:#000000;stroke-width:1.4392494px;stroke-linecap:butt;stroke-linejoin:miter;stroke-opacity:1"
       d="m 428.16523,52.343886 c 0,0 1.0454,-12.134201 11.64467,-12.579556 10.59928,-0.445193 11.47218,12.570066 11.47218,12.570066 0,0 0.25736,-15.037628 -10.75511,-14.108703 -11.01247,0.928876 -12.36174,14.118193 -12.36174,14.118193 z"
       id="path4505"
       inkscape:connector-curvature="0" />
    <path
       style="fill:#d5f6ff;fill-opacity:1;stroke:#d5f6ff;stroke-width:1.4392494px;stroke-linecap:butt;stroke-linejoin:miter;stroke-opacity:1"
       d="m 451.66232,51.431357 1.84935,0.43353"
       id="path4507"
       inkscape:connector-curvature="0"
       sodipodi:nodetypes="cc" />
    <path
       inkscape:connector-curvature="0"
       id="path4509"
       d="m 385.16283,56.652655 c 0,0 0.94042,-11.874145 8.23199,-12.059843 7.29158,-0.185537 8.02649,11.959778 8.02649,11.959778 0,0 -0.65794,-14.336813 -8.22238,-13.678559 -7.56444,0.658199 -8.0361,13.778624 -8.0361,13.778624 z"
       style="fill:#d5f6ff;fill-opacity:1;stroke:#000000;stroke-width:1.19296372px;stroke-linecap:butt;stroke-linejoin:miter;stroke-opacity:1"
       sodipodi:nodetypes="ccccc" />
    <path
       sodipodi:nodetypes="cc"
       inkscape:connector-curvature="0"
       id="path4511"
       d="m 383.54651,55.651641 1.28471,0.477856"
       style="fill:#d5f6ff;fill-opacity:1;stroke:#000000;stroke-width:1.19296372px;stroke-linecap:butt;stroke-linejoin:miter;stroke-opacity:1" />
    <path
       style="fill:none;fill-opacity:1;stroke:#d6ada7;stroke-width:2.08419824;stroke-linecap:round;stroke-linejoin:miter;stroke-miterlimit:4;stroke-dasharray:none;stroke-opacity:1;paint-order:stroke fill markers"
       d="m 430.32873,95.990847 c -3.74427,8.709363 -9.69577,1.126228 -9.69577,1.126228 0,0 -4.61538,10.320425 -9.40329,1.19303"
       id="path4520"
       inkscape:connector-curvature="0"
       sodipodi:nodetypes="ccc" />
    <path
       style="fill:#000000;fill-opacity:1;stroke:#070808;stroke-width:0.37641236px;stroke-linecap:butt;stroke-linejoin:miter;stroke-opacity:1"
       d="m 374.77691,51.101684 c 0,0 8.70065,6.577176 30.4545,-5.234226 21.75384,-11.811415 25.66389,-21.977806 24.65396,-33.086285 -8.81457,-3.133269 -34.4919,0.220356 -43.34649,11.616383 -8.8546,11.395997 -11.76197,26.704128 -11.76197,26.704128 z"
       id="path4580"
       inkscape:connector-curvature="0" />
    <path
       inkscape:connector-curvature="0"
       id="path4582"
       d="m 469.75487,54.108337 c 0,0 -9.05685,6.07731 -30.11181,-6.939158 C 418.5881,34.152713 415.25617,23.782454 416.8894,12.74838 c 8.97688,-2.63245 34.42487,2.160368 42.62437,14.036442 8.19949,11.876077 10.2411,27.323515 10.2411,27.323515 z"
       style="fill:#000000;fill-opacity:1;stroke:#070808;stroke-width:0.37641236px;stroke-linecap:butt;stroke-linejoin:miter;stroke-opacity:1" />
    <path
       style="fill:none;stroke:#dcb3ff;stroke-width:1.23060167;stroke-linecap:round;stroke-linejoin:miter;stroke-miterlimit:4;stroke-dasharray:none;stroke-opacity:1"
       d="m 424.11113,29.116198 c 0,0 16.66973,18.282888 41.94311,22.988055"
       id="path4540"
       inkscape:connector-curvature="0" />
    <path
       inkscape:connector-curvature="0"
       id="path4542"
       d="m 425.99319,26.225893 c 0,0 16.66973,18.282887 41.94311,22.988052"
       style="fill:none;fill-opacity:1;stroke:#c0b3ff;stroke-width:1.23060167;stroke-linecap:round;stroke-linejoin:miter;stroke-miterlimit:4;stroke-dasharray:none;stroke-opacity:1" />
    <path
       style="fill:none;fill-opacity:1;stroke:#a1b3ff;stroke-width:1.23060167;stroke-linecap:round;stroke-linejoin:miter;stroke-miterlimit:4;stroke-dasharray:none;stroke-opacity:1"
       d="m 427.87525,23.335586 c 0,0 16.66973,18.282886 41.9431,22.988053"
       id="path4544"
       inkscape:connector-curvature="0" />
    <ellipse
       style="display:inline;opacity:0.18600003;fill:url(#radialGradient4316);fill-opacity:1;stroke:none;stroke-width:0.85615772;stroke-linecap:round;stroke-linejoin:round;stroke-miterlimit:4;stroke-dasharray:none;stroke-opacity:0.52173911;paint-order:stroke fill markers"
       id="path4577"
       cx="421.67477"
       cy="155.61328"
       rx="8.7759533"
       ry="3.9816828"
       transform="rotate(-11.085754)" />
    <ellipse
       style="display:inline;opacity:0.18600003;fill:url(#radialGradient4308);fill-opacity:1;stroke:none;stroke-width:0.85615772;stroke-linecap:round;stroke-linejoin:round;stroke-miterlimit:4;stroke-dasharray:none;stroke-opacity:0.52173911;paint-order:stroke fill markers"
       id="path4579"
       cx="381.53613"
       cy="134.34352"
       rx="6.0944128"
       ry="3.5753887"
       transform="rotate(-8.0315363)" />
    <path
       sodipodi:type="star"
       style="display:inline;opacity:0.18600003;fill:#d5f6ff;fill-opacity:1;stroke:#d5f6ff;stroke-width:3.97853827;stroke-linecap:round;stroke-linejoin:round;stroke-miterlimit:4;stroke-dasharray:none;stroke-dashoffset:0;stroke-opacity:1;paint-order:stroke fill markers"
       id="path4559"
       sodipodi:sides="5"
       sodipodi:cx="390.49033"
       sodipodi:cy="59.944859"
       sodipodi:r1="2.3659186"
       sodipodi:r2="1.9140686"
       sodipodi:arg1="1.0040671"
       sodipodi:arg2="1.6323856"
       inkscape:flatsided="true"
       inkscape:rounded="0"
       inkscape:randomized="0"
       d="m 391.76053,61.940893 -2.77603,-0.17119 -0.69503,-2.693063 2.34648,-1.493214 2.14523,1.770206 z"
       inkscape:transform-center-x="-0.044993039"
       inkscape:transform-center-y="-0.18270357" />
    <path
       sodipodi:type="star"
       style="display:inline;opacity:0.18600003;fill:#d5f6ff;fill-opacity:1;stroke:#d5f6ff;stroke-width:4.5789876;stroke-linecap:round;stroke-linejoin:round;stroke-miterlimit:4;stroke-dasharray:none;stroke-dashoffset:0;stroke-opacity:1;paint-order:stroke fill markers"
       id="path4561"
       sodipodi:sides="5"
       sodipodi:cx="435.56528"
       sodipodi:cy="55.203876"
       sodipodi:r1="3.6532724"
       sodipodi:r2="2.95556"
       sodipodi:arg1="1.0303768"
       sodipodi:arg2="1.6586954"
       inkscape:flatsided="true"
       inkscape:rounded="0"
       inkscape:randomized="0"
       d="m 437.44487,58.336532 -4.2781,-0.377012 -0.96344,-4.185218 3.68265,-2.209594 3.23946,2.819613 z"
       inkscape:transform-center-x="-0.099080276"
       inkscape:transform-center-y="-0.25326278" />
    <path
       style="fill:#ffffff;fill-opacity:1;stroke:none;stroke-width:0.35919982px;stroke-linecap:butt;stroke-linejoin:miter;stroke-opacity:1"
       d="m 407.384,-2.9894852 3.99007,12.527812 c 0,0 29.06322,-4.669247 47.68995,8.4934872 9.21836,-10.1243272 10.21643,-11.0491282 10.21643,-11.0491282 0,0 -33.6133,-6.30084798 -31.36388,-20.1827228 C 435.36695,0.81161382 407.384,-2.9894852 407.384,-2.9894852 Z"
       id="path4523"
       inkscape:connector-curvature="0" />
    <path
       inkscape:connector-curvature="0"
       id="path4330"
       d="m 408.70004,256.63469 c 0,0 4.423,8.91002 10.16506,11.72366 5.74204,2.81362 3.50601,20.16903 -8.53869,14.7088 -12.04463,-5.46019 -17.9489,-30.42844 -17.9489,-30.42844 z"
       style="fill:#d6ada7;fill-opacity:1;stroke:#d6ada7;stroke-width:0.30411664px;stroke-linecap:butt;stroke-linejoin:miter;stroke-opacity:1" />
    <path
       style="fill:url(#linearGradient4530);fill-opacity:1;stroke:none;stroke-width:1.05241191px;stroke-linecap:butt;stroke-linejoin:miter;stroke-opacity:1"
       d="m 402.64349,151.20309 c 0,0 -15.34449,30.9684 -13.64018,59.54988 1.41495,23.72912 11.18723,29.1863 11.80847,32.94325 -2.71841,11.82476 -2.4415,15.76512 -11.29639,15.65478 0.73023,-2.85014 -21.79014,-29.48561 -20.01132,-54.60238 1.84643,-26.07132 10.23521,-54.83484 23.32174,-67.22163 15.87874,-13.54327 9.8176,13.67609 9.8176,13.67609 z"
       id="path4640-3"
       inkscape:connector-curvature="0"
       sodipodi:nodetypes="csccsccc" />
    <path
       style="fill:url(#linearGradient4522);fill-opacity:1;stroke:#e9c6af;stroke-width:0.23735988px;stroke-linecap:butt;stroke-linejoin:miter;stroke-opacity:0"
       d="m 463.67618,272.20818 c 0,0 -3.45211,6.95419 -7.93373,9.1502 -4.4816,2.196 -2.73639,15.74172 6.66436,11.48007 9.40071,-4.26164 14.00892,-23.74909 14.00892,-23.74909 z"
       id="path4710"
       inkscape:connector-curvature="0" />
    <path
       sodipodi:nodetypes="csccssccc"
       inkscape:connector-curvature="0"
       id="path4300"
       d="m 411.29994,307.28922 c 0,0 2.30407,49.12166 2.88274,58.92721 0.58315,9.88136 11.70069,94.58356 19.03931,96.31695 7.3387,1.73339 15.76413,1.30815 15.63556,-4.36129 -0.1286,-5.66946 0.51072,-73.49693 -1.72092,-83.98385 -1.35308,-6.35838 6.0455,-40.45517 8.90389,-68.42019 1.85602,-18.15831 -0.53576,-35.27638 -0.53576,-35.27638 l -73.15597,2.49686 z"
       style="fill:url(#linearGradient4481);fill-opacity:1;stroke:none;stroke-width:0.36095753px;stroke-linecap:butt;stroke-linejoin:miter;stroke-opacity:1" />
    <path
       style="fill:url(#linearGradient4465);fill-opacity:1;stroke:none;stroke-width:0.36095753px;stroke-linecap:butt;stroke-linejoin:miter;stroke-opacity:1"
       d="m 382.34879,272.98853 c 0,0 -15.64235,89.12742 -14.18479,98.96651 1.61341,10.89131 17.17852,87.79191 24.61871,89.8564 7.44024,2.06444 15.90493,2.03083 15.59394,-3.61754 -0.311,-5.64843 -6.76031,-77.31704 -9.34186,-87.85721 -2.22161,-9.07056 5.45961,-51.27132 8.48258,-62.2915 0.48979,-1.78556 47.98739,-37.55352 47.98739,-37.55352 z"
       id="path4298"
       inkscape:connector-curvature="0"
       sodipodi:nodetypes="csccsscc" />
    <path
       sodipodi:nodetypes="csccsscc"
       inkscape:connector-curvature="0"
       id="path4483"
       d="m 382.34879,272.98853 c 0,0 -15.64235,89.12742 -14.18479,98.96651 1.61341,10.89131 17.17852,87.79191 24.61871,89.8564 7.44024,2.06444 15.90493,2.03083 15.59394,-3.61754 -0.311,-5.64843 -6.76031,-77.31704 -9.34186,-87.85721 -2.22161,-9.07056 5.45961,-51.27132 8.48258,-62.2915 0.48979,-1.78556 47.98739,-37.55352 47.98739,-37.55352 z"
       style="opacity:0.5550001;fill:url(#linearGradient4485);fill-opacity:1;stroke:none;stroke-width:0.36095753px;stroke-linecap:butt;stroke-linejoin:miter;stroke-opacity:1" />
    <path
       style="opacity:0.50899999;fill:url(#linearGradient4496);fill-opacity:1;stroke:none;stroke-width:0.36095753px;stroke-linecap:butt;stroke-linejoin:miter;stroke-opacity:1"
       d="m 411.29994,307.28922 c 0,0 2.30407,49.12166 2.88274,58.92721 0.58315,9.88136 11.70069,94.58356 19.03931,96.31695 7.3387,1.73339 15.76413,1.30815 15.63556,-4.36129 -0.1286,-5.66946 0.51072,-73.49693 -1.72092,-83.98385 -1.35308,-6.35838 6.0455,-40.45517 8.90389,-68.42019 1.85602,-18.15831 -0.53576,-35.27638 -0.53576,-35.27638 l -73.15597,2.49686 z"
       id="path4494"
       inkscape:connector-curvature="0"
       sodipodi:nodetypes="csccssccc" />
    <path
       style="fill:url(#linearGradient4505);fill-opacity:1;stroke:none;stroke-width:4.64208794px;stroke-linecap:butt;stroke-linejoin:miter;stroke-opacity:1"
       d="m 1574.9668,455.75977 c -63.5014,2.17417 -86.9897,49.80757 -121.4531,106.62109 -2.3811,4.34923 -3.961,8.61356 -4.8242,12.7832 -2.6405,5.26725 -3.925,10.49672 -2.9141,18.29883 6.8379,50.59465 33.2182,107.46882 42.0078,159.0918 0,0 15.2388,36.34254 -12.8965,98.47461 -23.1796,51.18867 -61.5729,224.4318 -74.3789,283.873 -1.9039,14.772 282.6764,111.8616 343.1113,66.5391 -8.2949,-73.5758 -36.6838,-323.72981 -41.6777,-345.70312 -15.6895,-95.41531 88.2411,-192.53264 126.9492,-273.01953 -54.9109,-49.03786 -105.4207,-104.19813 -167.3379,-123.375 -8.9333,64.62656 -116.7753,103.11231 -86.5859,-3.58398 z"
       transform="scale(0.26458333)"
       id="path4617"
       inkscape:connector-curvature="0" />
    <path
       style="fill:url(#linearGradient4359);fill-opacity:1;stroke:none;stroke-width:1.00428736px;stroke-linecap:butt;stroke-linejoin:miter;stroke-opacity:1"
       d="m 444.77453,176.15742 c 32.26092,4.471 30.23975,23.84 27.41678,50.46409 -2.51048,21.9326 -7.36174,42.41109 -8.764,45.66529 -3.16911,7.35446 13.17676,1.62103 13.13215,-4.10071 -0.0447,-5.72183 25.54906,-85.58272 7.33451,-114.00842 z"
       id="path4640"
       inkscape:connector-curvature="0"
       sodipodi:nodetypes="cccccc" />
    <path
       style="fill:#ffffff;fill-opacity:1;stroke:#ffffff;stroke-width:0.35919985px;stroke-linecap:butt;stroke-linejoin:miter;stroke-opacity:1"
       d="m 382.34879,272.98853 c 0,0 27.99919,38.70936 70.07691,4.58538 -11.54573,-56.95886 -8.75639,-52.56422 -6.70382,-64.36649 2.05259,-11.8023 20.01257,-76.71483 20.01257,-76.71483 0,0 -5.94478,-5.60538 -14.56042,-10.32699 -6.92742,11.28913 -11.60984,27.51727 -28.80013,21.10297 -17.19027,-6.41428 -12.572,-26.39571 -12.572,-26.39571 0,0 -13.85484,1.75198 -20.78226,19.96854 6.15769,36.17655 15.90741,54.91915 13.34168,72.36602 -2.56568,17.44685 -20.01253,59.78111 -20.01253,59.78111 z"
       id="path4515"
       inkscape:connector-curvature="0"
       sodipodi:nodetypes="ccsccscccc" />
    <g
       aria-label="â¤"
       transform="matrix(1.3432352,0.19700874,-0.19700874,1.3432352,-182.36471,-118.28274)"
       style="font-style:normal;font-weight:normal;font-size:10.58333302px;line-height:1.25;font-family:sans-serif;letter-spacing:0px;word-spacing:0px;fill:#000000;fill-opacity:1;stroke:none;stroke-width:0.26458332"
       id="text4529">
      <path
         d="m 485.61373,143.21577 q -1.51033,-2.63481 -6.10746,-5.3027 -2.13872,-1.24574 -2.13872,-3.20807 0,-0.82682 0.29766,-1.5875 0.30868,-0.76068 0.91501,-1.35599 0.58429,-0.57326 1.34497,-0.90399 0.71658,-0.30868 1.56545,-0.30868 0.84887,0 1.56545,0.30868 0.74965,0.3197 1.34497,0.90399 0.58429,0.57327 0.89297,1.33394 0.3197,0.74966 0.3197,1.60955 0,-0.85989 0.30868,-1.60955 0.31971,-0.76067 0.90399,-1.33394 0.59532,-0.58429 1.34497,-0.90399 0.71658,-0.30868 1.56545,-0.30868 0.84887,0 1.56545,0.30868 0.76068,0.33073 1.34497,0.90399 0.60633,0.59531 0.90399,1.35599 0.30868,0.76068 0.30868,1.5875 0,1.98438 -2.13871,3.20807 -4.59714,2.66789 -6.10747,5.3027 z"
         style="font-size:22.57777786px;line-height:25.65000534;stroke-width:0.26458332"
         id="path4524"
         inkscape:connector-curvature="0" />
    </g>
    <path
       style="fill:none;stroke:#1a1a1a;stroke-width:3.4822588;stroke-linecap:butt;stroke-linejoin:miter;stroke-miterlimit:4;stroke-dasharray:none;stroke-opacity:1"
       d="m 400.18558,208.69487 c 0,0 15.96524,11.24824 46.80722,8.34547"
       id="path4531"
       inkscape:connector-curvature="0" />
    <path
       style="fill:#1a1a1a;fill-opacity:1;stroke:#1a1a1a;stroke-width:0.35919985px;stroke-linecap:butt;stroke-linejoin:miter;stroke-opacity:1"
       d="m 427.11846,216.45087 c 0,0 -10.33224,1.95994 -11.83195,4.50581 2.14603,3.91776 3.43422,3.86534 3.43422,3.86534 0,0 3.10885,-5.85633 8.39773,-8.37115 z"
       id="path4533"
       inkscape:connector-curvature="0" />
    <path
       inkscape:connector-curvature="0"
       id="path4535"
       d="m 421.80765,216.07294 c 0,0 10.02971,3.16256 11.21931,5.86726 -2.5923,3.63791 -3.86536,3.43422 -3.86536,3.43422 0,0 -2.39786,-6.18157 -7.35395,-9.30148 z"
       style="fill:#1a1a1a;fill-opacity:1;stroke:#1a1a1a;stroke-width:0.35919985px;stroke-linecap:butt;stroke-linejoin:miter;stroke-opacity:1" />
    <path
       style="fill:url(#linearGradient4538);fill-opacity:1;stroke:none;stroke-width:0.25958276px;stroke-linecap:butt;stroke-linejoin:miter;stroke-opacity:1"
       d="m 356.21486,485.2776 c 4.44866,0.3302 32.73326,1.0654 34.17948,0.11406 4.34866,-7.3342 7.2738,0.53038 8.12854,0.41513 1.24399,-0.22476 12.52648,0.12499 12.66464,-1.45798 0.13817,-1.58303 2.67203,-23.94757 0.84533,-27.03627 -0.2719,-0.45974 0.89201,-7.70048 -3.09021,-10.40005 -8.96661,-6.07849 -18.77136,-0.64125 -23.29798,0.73474 -2.3693,0.72017 2.75456,10.04809 3.47725,12.65558 -5.63763,14.84408 -28.31983,16.27172 -40.85552,11.18367 -2.81698,6.56598 4.70991,13.34561 7.94847,13.79104 z"
       id="path4302"
       inkscape:connector-curvature="0"
       sodipodi:nodetypes="cccccsscccc" />
    <path
       sodipodi:nodetypes="cccsscc"
       inkscape:connector-curvature="0"
       id="path4306"
       d="m 439.35927,486.69047 c 1.24399,-0.22473 13.62528,-0.75869 13.76344,-2.34164 0.13818,-1.58303 2.67203,-23.94759 0.8453,-27.03626 -0.27191,-0.45977 0.6567,-6.88581 -1.84579,-10.99474 -9.39332,-15.42311 -21.48125,-1.06124 -26.00786,0.31473 -2.36928,0.72019 2.00816,11.71522 2.73083,14.32271 -13.66945,31.08233 -14.10864,22.05406 10.51408,25.7352 z"
       style="fill:url(#linearGradient4546);fill-opacity:1;stroke:none;stroke-width:0.25958276px;stroke-linecap:butt;stroke-linejoin:miter;stroke-opacity:1" />
  </g>
  <g
     inkscape:groupmode="layer"
     id="layer2"
     inkscape:label="Decor"
     style="display:inline;opacity:0.18600003"
     transform="translate(-347.64741,1.950054)" />
</svg>
