<?xml version="1.0" encoding="UTF-8" standalone="no"?>
<!-- Created with Inkscape (http://www.inkscape.org/) -->

<svg
   xmlns:dc="http://purl.org/dc/elements/1.1/"
   xmlns:cc="http://creativecommons.org/ns#"
   xmlns:rdf="http://www.w3.org/1999/02/22-rdf-syntax-ns#"
   xmlns:svg="http://www.w3.org/2000/svg"
   xmlns="http://www.w3.org/2000/svg"
   xmlns:sodipodi="http://sodipodi.sourceforge.net/DTD/sodipodi-0.dtd"
   xmlns:inkscape="http://www.inkscape.org/namespaces/inkscape"
   width="1920"
   height="1080"
   viewBox="0 0 508 285.75001"
   version="1.1"
   id="svg8"
   inkscape:version="0.92+devel unknown"
   sodipodi:docname="matt visual template.svg">
  <title
     id="title37">Matt Visual</title>
  <defs
     id="defs2" />
  <sodipodi:namedview
     id="base"
     pagecolor="#ffffff"
     bordercolor="#666666"
     borderopacity="1.0"
     inkscape:pageopacity="0.0"
     inkscape:pageshadow="2"
     inkscape:zoom="0.12374369"
     inkscape:cx="-2525.1017"
     inkscape:cy="819.99874"
     inkscape:document-units="mm"
     inkscape:current-layer="layer5"
     showgrid="false"
     inkscape:window-width="1920"
     inkscape:window-height="1016"
     inkscape:window-x="0"
     inkscape:window-y="0"
     inkscape:window-maximized="1"
     units="px"
     inkscape:pagecheckerboard="true"
     showguides="false"
     inkscape:document-rotation="0">
    <inkscape:grid
       type="xygrid"
       id="grid4485" />
  </sodipodi:namedview>
  <metadata
     id="metadata5">
    <rdf:RDF>
      <cc:Work
         rdf:about="">
        <dc:format>image/svg+xml</dc:format>
        <dc:type
           rdf:resource="http://purl.org/dc/dcmitype/StillImage" />
        <dc:title>Matt Visual</dc:title>
        <cc:license
           rdf:resource="http://creativecommons.org/licenses/by/4.0/" />
        <dc:creator>
          <cc:Agent>
            <dc:title>Maxwell Paul Brickner</dc:title>
          </cc:Agent>
        </dc:creator>
      </cc:Work>
      <cc:License
         rdf:about="http://creativecommons.org/licenses/by/4.0/">
        <cc:permits
           rdf:resource="http://creativecommons.org/ns#Reproduction" />
        <cc:permits
           rdf:resource="http://creativecommons.org/ns#Distribution" />
        <cc:requires
           rdf:resource="http://creativecommons.org/ns#Notice" />
        <cc:requires
           rdf:resource="http://creativecommons.org/ns#Attribution" />
        <cc:permits
           rdf:resource="http://creativecommons.org/ns#DerivativeWorks" />
      </cc:License>
    </rdf:RDF>
  </metadata>
  <g
     inkscape:label="Head"
     inkscape:groupmode="layer"
     id="layer1"
     transform="translate(0,-11.249983)" />
  <g
     inkscape:groupmode="layer"
     id="layer4"
     inkscape:label="Open Mouth"
     style="display:inline" />
  <g
     inkscape:groupmode="layer"
     id="layer3"
     inkscape:label="Body"
     style="display:inline" />
  <g
     inkscape:groupmode="layer"
     id="layer5"
     inkscape:label="Pants">
    <g
       id="g4336"
       transform="matrix(0.97254924,0,0,0.97254924,23.910309,-13.952306)">
      <path
         inkscape:connector-curvature="0"
         id="path4612"
         d="m 424.10344,140.62368 c 0,0 4.97747,12.94144 4.12419,19.19887 19.7677,-4.55084 20.62099,-1.99098 20.62099,-1.99098 0,0 -6.82626,-18.91445 -7.53733,-22.4698 -0.71107,-3.55536 -17.20785,5.26191 -17.20785,5.26191 z"
         style="fill:#be7f56;fill-opacity:1;stroke:none;stroke-width:1.1262753px;stroke-linecap:butt;stroke-linejoin:miter;stroke-opacity:1"
         transform="translate(0,-11.249983)" />
      <path
         inkscape:connector-curvature="0"
         id="path4538"
         d="m 450.03698,126.45822 c 0,0 -10.3521,9.88158 -20.23368,16.23401 -9.88157,6.35244 -25.17449,9.64629 -25.17449,9.64629 0,0 3.29386,-62.112739 -3.05859,-89.404707 -6.35243,-27.291966 40.70268,-31.762202 46.11402,-28.468344 5.41132,3.293857 17.64566,71.523771 2.35274,91.992751 z"
         style="fill:#d38d5f;fill-opacity:1;stroke:none;stroke-width:0.32938579px;stroke-linecap:butt;stroke-linejoin:miter;stroke-opacity:1"
         transform="translate(0,-11.249983)" />
      <path
         sodipodi:nodetypes="cscc"
         inkscape:connector-curvature="0"
         id="path4548"
         d="m 420.2015,87.43561 c 0,0 1.11563,6.912384 0.8946,11.877434 -0.0615,1.380646 -3.06083,1.223626 -2.77452,2.409776 1.31597,5.4517 13.72324,0 13.72324,0"
         style="fill:none;fill-opacity:1;stroke:#2b1100;stroke-width:0.74439996px;stroke-linecap:butt;stroke-linejoin:miter;stroke-opacity:1"
         transform="translate(0,-11.249983)" />
      <path
         sodipodi:nodetypes="ccsscccsc"
         inkscape:connector-curvature="0"
         id="path4546"
         d="m 401.76192,85.986221 c 0,0 38.31641,-3.172748 46.9674,-10.492819 -0.23991,1.012969 0.68816,2.060123 0.4554,3.031723 -0.19939,0.832293 -9.26339,2.773004 -9.48271,3.553495 -1.12251,3.994671 -2.40864,9.759883 -5.91483,10.811743 -4.99096,1.497294 -10.89691,-6.072322 -10.89691,-6.072322 l -5.15733,1.164563 c 0,0 -0.24952,7.652777 -6.90414,8.484609 -6.65457,0.83182 -9.06688,-10.480992 -9.06688,-10.480992 z"
         style="fill:#000000;stroke:#000000;stroke-width:0.32938579px;stroke-linecap:butt;stroke-linejoin:miter;stroke-opacity:1"
         transform="translate(0,-11.249983)" />
      <path
         inkscape:connector-curvature="0"
         id="path4502"
         d="m 419.2736,153.45049 2.70346,5.44891 30.11022,-0.81033 3.07677,-8.54332 c 0,0 -20.84621,5.57286 -35.89045,3.90474 z"
         style="fill:#aa0000;fill-opacity:1;stroke:#aa0000;stroke-width:0.40583125px;stroke-linecap:butt;stroke-linejoin:miter;stroke-opacity:1"
         transform="translate(0,-11.249983)" />
      <g
         transform="matrix(1.2387134,-0.12418429,0.12418429,1.2387134,-142.57673,-33.339257)"
         id="g4518"
         style="display:inline">
        <path
           style="fill:#ffffff;fill-opacity:1;stroke:#000000;stroke-width:0.26500797px;stroke-linecap:butt;stroke-linejoin:miter;stroke-opacity:1"
           d="m 433.71796,159.90915 c 0,0 14.9242,-0.5354 16.99886,-1.8739 0.20077,6.55861 0.10039,6.05668 -0.7027,7.1944 -3.52429,4.7463 -11.38613,4.94638 -15.92806,2.67698 1.20465,-3.04507 0.63578,-5.38744 -0.3681,-7.99748 z"
           id="path4499"
           inkscape:connector-curvature="0"
           sodipodi:nodetypes="ccccc" />
        <path
           inkscape:connector-curvature="0"
           id="path4513"
           d="m 450.80461,161.75986 c 0.0192,2.68562 -0.1877,2.61582 -0.79049,3.46979 -3.52429,4.7463 -11.38613,4.94638 -15.92806,2.67698 0.54383,-1.37468 0.72622,-2.60615 0.6703,-3.78368 2.12972,-0.63801 15.80147,-5.89146 16.04825,-2.36309 z"
           style="fill:#aa0000;fill-opacity:1;stroke:#000000;stroke-width:0.26500797px;stroke-linecap:butt;stroke-linejoin:miter;stroke-opacity:1"
           sodipodi:nodetypes="ccccc" />
        <path
           style="fill:#000000;fill-opacity:1;stroke:#000000;stroke-width:0.26500794px;stroke-linecap:butt;stroke-linejoin:miter;stroke-opacity:1"
           d="m 450.71705,158.03505 c -0.0673,0.0434 -0.14932,0.0861 -0.24271,0.12781 -7.18086,3.86224 -13.50876,2.55292 -16.10088,1.71684 -0.13414,0.005 -0.65534,0.0292 -0.65534,0.0292 1.00388,2.61004 1.57287,4.95284 0.36825,7.99791 0.75955,0.42018 1.80289,0.70641 2.95583,0.89654 a 3.8314665,7.662933 75.883607 0 1 6.5037,-4.67421 3.8314665,7.662933 75.883607 0 1 7.00352,0.29847 c 0.29952,-0.65362 0.30932,-1.76382 0.16763,-6.39257 z"
           id="path4505"
           inkscape:connector-curvature="0" />
      </g>
      <path
         style="display:inline;fill:#d38d5f;fill-opacity:1;stroke:#d38d5f;stroke-width:0.32938579px;stroke-linecap:butt;stroke-linejoin:miter;stroke-opacity:1"
         d="m 489.26366,272.00843 c 0,0 -3.59074,9.58646 -3.97687,12.44804 2.00177,19.52254 -22.00722,19.73319 -19.97144,1.61721 2.3952,-1.50958 5.94931,-3.94272 7.73801,-6.10921 2.84704,-3.44831 4.98422,-10.89992 4.98422,-10.89992 z"
         id="path4317"
         inkscape:connector-curvature="0"
         sodipodi:nodetypes="cccccc" />
      <path
         sodipodi:nodetypes="cccccc"
         inkscape:connector-curvature="0"
         id="path4315"
         d="m 477.96609,171.65046 c 0,0 0.0959,85.31762 -1.59058,94.13872 -1.68649,8.82116 15.6881,19.58987 14.25174,13.33577 -1.43637,-6.25421 17.07996,-77.9672 -2.45525,-121.88691 -16.2833,1.7409 -10.2059,14.41241 -10.2059,14.41241 z"
         style="display:inline;fill:#e6e6e6;fill-opacity:1;stroke:#e6e6e6;stroke-width:1.1262753px;stroke-linecap:butt;stroke-linejoin:miter;stroke-opacity:1" />
      <path
         sodipodi:nodetypes="cccccc"
         inkscape:connector-curvature="0"
         id="path4565"
         d="m 374.68253,256.16142 c 0,0 -4.90777,8.98374 -6.82098,11.14647 -16.08286,11.24624 -0.5485,29.55359 11.83071,16.17122 -0.42322,-2.79942 -0.90504,-7.07957 -0.43469,-9.84939 0.74864,-4.40864 4.99092,-10.89686 4.99092,-10.89686 z"
         style="display:inline;fill:#d38d5f;fill-opacity:1;stroke:#d38d5f;stroke-width:0.32938579px;stroke-linecap:butt;stroke-linejoin:miter;stroke-opacity:1" />
      <path
         style="display:inline;fill:#e6e6e6;fill-opacity:1;stroke:#e6e6e6;stroke-width:1.1262753px;stroke-linecap:butt;stroke-linejoin:miter;stroke-opacity:1"
         d="m 386.33654,180.74155 c 0,0 -10.68433,60.53289 -14.16745,68.81081 -3.48314,8.27798 11.27375,22.4228 11.16867,16.00675 -0.10507,-6.41619 26.59755,-49.59187 16.61765,-96.61279 -13.16188,-18.04447 -13.61886,11.79523 -13.61886,11.79523 z"
         id="path4642"
         inkscape:connector-curvature="0"
         sodipodi:nodetypes="cccccc" />
      <path
         sodipodi:nodetypes="cscsc"
         inkscape:connector-curvature="0"
         id="path4615"
         d="m 387.6202,167.66441 c -7.3759,13.47286 27.14556,64.90407 40.99126,68.05643 13.8457,3.15236 26.12213,-58.36119 56.40324,-76.26813 -25.14018,-2.62984 -26.05705,-14.56545 -45.24209,-15.82259 -17.49824,-1.14666 -41.54634,6.55 -52.15241,24.03429 z"
         style="display:inline;fill:#d38d5f;fill-opacity:1;stroke:none;stroke-width:1.1262753px;stroke-linecap:butt;stroke-linejoin:miter;stroke-opacity:1" />
      <path
         sodipodi:nodetypes="ccsscccc"
         inkscape:connector-curvature="0"
         id="path4612-3"
         d="m 427.89975,141.52326 c 0.84818,3.34303 -0.56238,1.94546 -0.76636,3.44155 0.69392,-0.14221 4.70825,-0.97133 7.86209,0.47125 2.86552,1.31072 9.88208,1.40683 10.65672,3.29208 1.97876,4.81566 2.76795,-5.72311 2.57542,-3.82963 0,0 -0.82755,-2.29305 -1.9364,-5.43239 -8.40284,-5.20929 -14.40245,2.60107 -18.39145,2.05714 z"
         style="display:inline;fill:#be7f56;fill-opacity:1;stroke:none;stroke-width:1.1262753px;stroke-linecap:butt;stroke-linejoin:miter;stroke-opacity:1" />
      <path
         sodipodi:nodetypes="cccccsc"
         inkscape:connector-curvature="0"
         id="path4540"
         d="m 402.87102,58.506819 c 24.27715,5.288532 40.7534,-22.840334 43.7105,-7.402821 1.41168,12.234329 2.35277,36.467721 2.35277,36.467721 5.57987,-1.93644 5.679,-1.976265 10.52053,-0.361277 2.35274,-9.411018 -0.70583,-63.759682 -7.76411,-67.524091 -16.45381,-5.565607 -40.06959,-3.193599 -51.46119,7.936317 -10.27801,10.041895 -9.92686,28.569392 2.6415,30.884151 z"
         style="display:inline;fill:#2b1100;stroke:#2b1100;stroke-width:0.32938579px;stroke-linecap:butt;stroke-linejoin:miter;stroke-opacity:1" />
      <path
         sodipodi:nodetypes="cccccc"
         style="display:inline;fill:#2b1100;fill-opacity:1;stroke:#2b1100;stroke-width:0.32938579px;stroke-linecap:butt;stroke-linejoin:miter;stroke-opacity:0"
         d="m 452.66289,129.53783 c 0,0 2.99003,-12.25601 1.10785,-21.43175 -6.44064,1.75784 -6.44781,1.79663 -12.34886,7.64059 -2.63555,16.77046 -25.10418,23.05169 -36.23247,9.88158 1.83863,-1.26259 -11.74648,10.74315 -4.70549,14.82236 7.05825,3.76441 46.76762,0.14517 52.17897,-10.91278 z"
         id="path4542"
         inkscape:connector-curvature="0" />
      <path
         inkscape:connector-curvature="0"
         id="path4343"
         d="m 418.29188,148.99588 c 0,0 15.74333,15.18541 32.11635,-1.22386 -2.4236,35.42389 -15.79384,84.58617 -15.79384,84.58617 l -15.87183,-17.15344 z"
         style="display:inline;fill:#333333;stroke:none;stroke-width:0.32938579px;stroke-linecap:butt;stroke-linejoin:miter;stroke-opacity:1" />
      <path
         sodipodi:nodetypes="cccccccccc"
         inkscape:connector-curvature="0"
         id="path4617"
         d="m 428.12305,143.71339 c -1.92836,0.066 -4.67814,0.89857 -6.60679,1.22292 -12.3849,2.08313 -24.90865,-1.87697 -32.46034,8.64077 -4.2083,3.59655 -4.91731,26.33104 -3.91877,31.40212 13.59856,42.44398 14.79123,72.16158 4.17394,119.84818 l 71.22194,-1.81291 c 11.93523,-39.91589 8.69747,-107.50694 28.30287,-145.73231 -3.37989,-7.44537 -25.10608,-8.28114 -40.12858,-12.93385 -16.27442,17.50073 -13.85624,20.50032 -22.78796,37.43446 -1.12996,-17.777 -1.2933,-18.11899 2.20369,-38.06938 z"
         style="display:inline;fill:#aa0000;fill-opacity:1;stroke:none;stroke-width:1.1262753px;stroke-linecap:butt;stroke-linejoin:miter;stroke-opacity:1" />
      <path
         style="fill:#a05a2c;stroke:none;stroke-width:0.26458332px;stroke-linecap:butt;stroke-linejoin:miter;stroke-opacity:1"
         d="m 420.9375,456.66512 c 11.41825,-1.03936 35.18013,-1.69148 35.18013,-1.69148 l -2.84585,-28.97555 c 0,0 -15.25886,-2.01703 -17.68192,6.73542 1.74361,5.4753 2.2696,6.7264 1.12644,9.56931 -0.7298,1.81495 -13.7179,6.4153 -14.84693,7.75843 -1.24729,1.48378 -0.32018,3.33999 -0.93187,6.60387 z"
         id="path4296"
         inkscape:connector-curvature="0"
         sodipodi:nodetypes="ccccssc" />
      <path
         sodipodi:nodetypes="ccccc"
         inkscape:connector-curvature="0"
         id="path4288"
         d="m 394.12442,277.59088 c 0,0 -2.58039,19.7478 -4.81333,27.2365 -2.12021,9.66499 64.81124,5.94175 69.3071,1.4673 3.57166,-3.55466 7.38969,-21.6708 7.5412,-29.90269 z"
         style="fill:#000000;stroke:#000000;stroke-width:0.26458332px;stroke-linecap:butt;stroke-linejoin:miter;stroke-opacity:1" />
      <path
         sodipodi:nodetypes="ccccssc"
         inkscape:connector-curvature="0"
         id="path4298"
         d="m 364.68654,457.71157 c 11.41825,-1.03936 35.18013,-1.69148 35.18013,-1.69148 l -2.84585,-28.97555 c 0,0 -15.25886,-2.01703 -17.68192,6.73542 1.74361,5.4753 2.2696,6.7264 1.12644,9.56931 -0.7298,1.81495 -13.7179,6.4153 -14.84693,7.75843 -1.24729,1.48378 -0.32018,3.33999 -0.93187,6.60387 z"
         style="fill:#a05a2c;stroke:none;stroke-width:0.26458332px;stroke-linecap:butt;stroke-linejoin:miter;stroke-opacity:1" />
      <path
         sodipodi:nodetypes="csccccccc"
         inkscape:connector-curvature="0"
         id="path4290"
         d="m 434.64887,308.53721 c 0,0 -9.32376,-14.24853 -15.00301,-1.19575 -7.05655,16.2183 -12.79081,28.44289 -14.95437,58.75849 -1.56802,18.16132 -0.63871,46.8559 -2.54114,66.03967 -13.24891,4.19186 -13.56229,2.737 -22.81145,1.64034 -0.13509,-8.99242 7.31517,-24.24287 -1.16271,-72.27686 1.70087,-17.27618 4.12635,-36.08396 14.53732,-70.64317 10.63083,-3.19847 44.56755,-10.68886 53.48461,1.47946 5.5262,9.24447 -4.98069,15.80676 -11.54925,16.19782 z"
         style="fill:#000000;fill-opacity:1;stroke:#000000;stroke-width:0.26458332px;stroke-linecap:butt;stroke-linejoin:miter;stroke-opacity:1" />
      <path
         sodipodi:nodetypes="ccccccc"
         style="fill:#000000;fill-opacity:1;stroke:#000000;stroke-width:0.26458332px;stroke-linecap:butt;stroke-linejoin:miter;stroke-opacity:1"
         d="m 463.23699,292.32727 c 0,0 -12.07956,60.62476 -13.82965,72.29093 4.03778,17.77607 4.5739,48.25917 8.60456,67.11097 -7.76233,2.33667 -14.46836,4.23158 -22.42204,1.00434 -2.86744,-8.52406 2.04842,-28.82416 -10.41069,-60.19614 -3.64165,-16.97344 -5.22512,-55.41771 -4.09281,-66.73306 14.43264,-9.91069 42.15063,-13.47704 42.15063,-13.47704 z"
         id="path4292"
         inkscape:connector-curvature="0" />
    </g>
  </g>
  <g
     inkscape:groupmode="layer"
     id="layer2"
     inkscape:label="Decor"
     style="opacity:0.18600003"
     transform="translate(0,-11.249983)" />
</svg>
