<?xml version="1.0" encoding="UTF-8" standalone="no"?>
<!-- Created with Inkscape (http://www.inkscape.org/) -->

<svg
   xmlns:dc="http://purl.org/dc/elements/1.1/"
   xmlns:cc="http://creativecommons.org/ns#"
   xmlns:rdf="http://www.w3.org/1999/02/22-rdf-syntax-ns#"
   xmlns:svg="http://www.w3.org/2000/svg"
   xmlns="http://www.w3.org/2000/svg"
   xmlns:xlink="http://www.w3.org/1999/xlink"
   xmlns:sodipodi="http://sodipodi.sourceforge.net/DTD/sodipodi-0.dtd"
   xmlns:inkscape="http://www.inkscape.org/namespaces/inkscape"
   width="1920"
   height="1080"
   viewBox="0 0 508 285.75001"
   version="1.1"
   id="svg8"
   inkscape:version="0.92+devel unknown"
   sodipodi:docname="matt visual template.svg">
  <title
     id="title37">Matt Visual</title>
  <defs
     id="defs2">
    <linearGradient
       inkscape:collect="always"
       id="linearGradient4321">
      <stop
         style="stop-color:#333333;stop-opacity:1;"
         offset="0"
         id="stop4317" />
      <stop
         style="stop-color:#131212;stop-opacity:1"
         offset="1"
         id="stop4319" />
    </linearGradient>
    <linearGradient
       inkscape:collect="always"
       id="linearGradient4358">
      <stop
         style="stop-color:#e6e6e6;stop-opacity:1;"
         offset="0"
         id="stop4354" />
      <stop
         style="stop-color:#d0d0d0;stop-opacity:1"
         offset="1"
         id="stop4356" />
    </linearGradient>
    <linearGradient
       inkscape:collect="always"
       id="linearGradient4350">
      <stop
         style="stop-color:#aa0000;stop-opacity:1;"
         offset="0"
         id="stop4346" />
      <stop
         style="stop-color:#5f0000;stop-opacity:1"
         offset="1"
         id="stop4348" />
    </linearGradient>
    <linearGradient
       inkscape:collect="always"
       id="linearGradient4341">
      <stop
         style="stop-color:#aa0000;stop-opacity:1;"
         offset="0"
         id="stop4337" />
      <stop
         style="stop-color:#9b0000;stop-opacity:1"
         offset="1"
         id="stop4339" />
    </linearGradient>
    <linearGradient
       inkscape:collect="always"
       id="linearGradient4333">
      <stop
         style="stop-color:#632c09;stop-opacity:1;"
         offset="0"
         id="stop4329" />
      <stop
         style="stop-color:#cc814f;stop-opacity:1"
         offset="1"
         id="stop4331" />
    </linearGradient>
    <linearGradient
       inkscape:collect="always"
       id="linearGradient4309">
      <stop
         style="stop-color:#2b1100;stop-opacity:1;"
         offset="0"
         id="stop4305" />
      <stop
         style="stop-color:#632c09;stop-opacity:1"
         offset="1"
         id="stop4307" />
    </linearGradient>
    <linearGradient
       inkscape:collect="always"
       id="linearGradient4301">
      <stop
         style="stop-color:#ab6435;stop-opacity:1"
         offset="0"
         id="stop4297" />
      <stop
         style="stop-color:#cc814f;stop-opacity:1"
         offset="1"
         id="stop4299" />
    </linearGradient>
    <linearGradient
       inkscape:collect="always"
       xlink:href="#linearGradient4301"
       id="linearGradient4303"
       x1="1692.6978"
       y1="459.50806"
       x2="1699.059"
       y2="492.73352"
       gradientUnits="userSpaceOnUse" />
    <linearGradient
       inkscape:collect="always"
       xlink:href="#linearGradient4309"
       id="linearGradient4311"
       x1="452.6629"
       y1="129.53783"
       x2="399.98291"
       y2="136.53886"
       gradientUnits="userSpaceOnUse" />
    <linearGradient
       inkscape:collect="always"
       xlink:href="#linearGradient4309"
       id="linearGradient4319"
       x1="459.06018"
       y1="44.8955"
       x2="392.93536"
       y2="50.489456"
       gradientUnits="userSpaceOnUse" />
    <linearGradient
       inkscape:collect="always"
       xlink:href="#linearGradient4333"
       id="linearGradient4335"
       x1="418.83099"
       y1="102.80542"
       x2="425.06445"
       y2="100.22084"
       gradientUnits="userSpaceOnUse" />
    <radialGradient
       inkscape:collect="always"
       xlink:href="#linearGradient4341"
       id="radialGradient4343"
       cx="442.44594"
       cy="164.93137"
       fx="442.44594"
       fy="164.93137"
       r="8.3598801"
       gradientTransform="matrix(1,0,0,0.52400458,0,78.506577)"
       gradientUnits="userSpaceOnUse" />
    <linearGradient
       inkscape:collect="always"
       xlink:href="#linearGradient4350"
       id="linearGradient4352"
       x1="429.47269"
       y1="192.7029"
       x2="485.2868"
       y2="284.45648"
       gradientUnits="userSpaceOnUse" />
    <linearGradient
       inkscape:collect="always"
       xlink:href="#linearGradient4358"
       id="linearGradient4360"
       x1="496.7056"
       y1="232.68547"
       x2="477.88107"
       y2="231.29073"
       gradientUnits="userSpaceOnUse" />
    <linearGradient
       inkscape:collect="always"
       xlink:href="#linearGradient4358"
       id="linearGradient4368"
       x1="384.98892"
       y1="235.6837"
       x2="393.95468"
       y2="235.21004"
       gradientUnits="userSpaceOnUse" />
    <linearGradient
       inkscape:collect="always"
       xlink:href="#linearGradient4321"
       id="linearGradient4323"
       x1="432.20148"
       y1="157.26028"
       x2="425.91937"
       y2="181.78278"
       gradientUnits="userSpaceOnUse" />
  </defs>
  <sodipodi:namedview
     id="base"
     pagecolor="#ffffff"
     bordercolor="#666666"
     borderopacity="1.0"
     inkscape:pageopacity="0.0"
     inkscape:pageshadow="2"
     inkscape:zoom="0.35000001"
     inkscape:cx="1509.0402"
     inkscape:cy="187.3658"
     inkscape:document-units="mm"
     inkscape:current-layer="g4336"
     showgrid="false"
     inkscape:window-width="1920"
     inkscape:window-height="1016"
     inkscape:window-x="0"
     inkscape:window-y="0"
     inkscape:window-maximized="1"
     units="px"
     inkscape:pagecheckerboard="true"
     showguides="false"
     inkscape:document-rotation="0">
    <inkscape:grid
       type="xygrid"
       id="grid4485" />
  </sodipodi:namedview>
  <metadata
     id="metadata5">
    <rdf:RDF>
      <cc:Work
         rdf:about="">
        <dc:format>image/svg+xml</dc:format>
        <dc:type
           rdf:resource="http://purl.org/dc/dcmitype/StillImage" />
        <dc:title>Matt Visual</dc:title>
        <cc:license
           rdf:resource="http://creativecommons.org/licenses/by/4.0/" />
        <dc:creator>
          <cc:Agent>
            <dc:title>Maxwell Paul Brickner</dc:title>
          </cc:Agent>
        </dc:creator>
      </cc:Work>
      <cc:License
         rdf:about="http://creativecommons.org/licenses/by/4.0/">
        <cc:permits
           rdf:resource="http://creativecommons.org/ns#Reproduction" />
        <cc:permits
           rdf:resource="http://creativecommons.org/ns#Distribution" />
        <cc:requires
           rdf:resource="http://creativecommons.org/ns#Notice" />
        <cc:requires
           rdf:resource="http://creativecommons.org/ns#Attribution" />
        <cc:permits
           rdf:resource="http://creativecommons.org/ns#DerivativeWorks" />
      </cc:License>
    </rdf:RDF>
  </metadata>
  <g
     inkscape:label="Head"
     inkscape:groupmode="layer"
     id="layer1"
     transform="translate(0,-11.249983)" />
  <g
     inkscape:groupmode="layer"
     id="layer4"
     inkscape:label="Open Mouth"
     style="display:inline" />
  <g
     inkscape:groupmode="layer"
     id="layer3"
     inkscape:label="Body"
     style="display:inline" />
  <g
     inkscape:groupmode="layer"
     id="layer5"
     inkscape:label="Pants">
    <g
       id="g4336"
       transform="matrix(0.97254924,0,0,0.97254924,23.910309,-13.952306)">
      <path
         sodipodi:nodetypes="ccccssc"
         inkscape:connector-curvature="0"
         id="path4298"
         d="m 364.68654,457.71157 c 11.41825,-1.03936 35.18013,-1.69148 35.18013,-1.69148 l -2.84585,-28.97555 c 0,0 -15.25886,-2.01703 -17.68192,6.73542 1.74361,5.4753 2.2696,6.7264 1.12644,9.56931 -0.7298,1.81495 -13.7179,6.4153 -14.84693,7.75843 -1.24729,1.48378 -0.32018,3.33999 -0.93187,6.60387 z"
         style="fill:#a05a2c;stroke:none;stroke-width:0.26458332px;stroke-linecap:butt;stroke-linejoin:miter;stroke-opacity:1" />
      <path
         inkscape:connector-curvature="0"
         id="path4502"
         d="m 419.2736,153.45049 2.70346,5.44891 30.11022,-0.81033 3.07677,-8.54332 c 0,0 -20.84621,5.57286 -35.89045,3.90474 z"
         style="fill:#aa0000;fill-opacity:1;stroke:#aa0000;stroke-width:0.40583125px;stroke-linecap:butt;stroke-linejoin:miter;stroke-opacity:1"
         transform="translate(0,-11.249983)" />
      <path
         style="fill:url(#linearGradient4303);fill-opacity:1;stroke:none;stroke-width:4.13993645px;stroke-linecap:butt;stroke-linejoin:miter;stroke-opacity:1"
         d="m 1707.5098,400.38281 c -15.0605,-0.63965 -58.2305,22.4336 -58.2305,22.4336 0,0 11.1803,29.06958 14.5625,52.74804 -56.959,32.65776 -118.7555,40.98001 -148.666,88 -27.1122,49.52323 99.7801,238.57279 150.6738,250.16016 50.8937,11.58737 96.0196,-214.52379 207.3262,-280.3457 -76.3598,-7.98779 -91.9333,-39.32427 -134.8242,-52.57813 -0.1232,-0.34324 -0.2256,-0.62865 -0.3692,-1.0293 0.047,-0.51508 0.051,-0.60064 -0.01,-0.0293 -5.3136,-14.82497 -23.2012,-65.06625 -25.4415,-76.26758 -0.4083,-2.04199 -2.2325,-2.97334 -5.0214,-3.0918 z"
         transform="matrix(0.27205135,0,0,0.27205135,-24.585191,14.346118)"
         id="path4612"
         inkscape:connector-curvature="0"
         sodipodi:nodetypes="ccccscccccc" />
      <path
         inkscape:connector-curvature="0"
         id="path4538"
         d="m 450.03698,126.45822 c 0,0 -10.3521,9.88158 -20.23368,16.23401 -9.88157,6.35244 -25.17449,9.64629 -25.17449,9.64629 0,0 3.29386,-62.112739 -3.05859,-89.404707 -6.35243,-27.291966 40.70268,-31.762202 46.11402,-28.468344 5.41132,3.293857 17.64566,71.523771 2.35274,91.992751 z"
         style="fill:#cc814f;fill-opacity:1;stroke:none;stroke-width:0.32938579px;stroke-linecap:butt;stroke-linejoin:miter;stroke-opacity:1"
         transform="translate(0,-11.249983)" />
      <path
         sodipodi:nodetypes="cscc"
         inkscape:connector-curvature="0"
         id="path4548"
         d="m 420.2015,87.43561 c 0,0 1.11563,6.912384 0.8946,11.877434 -0.0615,1.380646 -3.06083,1.223626 -2.77452,2.409776 1.31597,5.4517 13.72324,0 13.72324,0"
         style="fill:url(#linearGradient4335);fill-opacity:1;stroke:none;stroke-width:0.74439996px;stroke-linecap:butt;stroke-linejoin:miter;stroke-opacity:1"
         transform="translate(0,-11.249983)" />
      <path
         sodipodi:nodetypes="ccsscccsc"
         inkscape:connector-curvature="0"
         id="path4546"
         d="m 401.76192,85.986221 c 0,0 38.31641,-3.172748 46.9674,-10.492819 -0.23991,1.012969 0.68816,2.060123 0.4554,3.031723 -0.19939,0.832293 -9.26339,2.773004 -9.48271,3.553495 -1.12251,3.994671 -2.40864,9.759883 -5.91483,10.811743 -4.99096,1.497294 -10.89691,-6.072322 -10.89691,-6.072322 l -5.15733,1.164563 c 0,0 -0.24952,7.652777 -6.90414,8.484609 -6.65457,0.83182 -9.06688,-10.480992 -9.06688,-10.480992 z"
         style="fill:#000000;stroke:#000000;stroke-width:0.32938579px;stroke-linecap:butt;stroke-linejoin:miter;stroke-opacity:1"
         transform="translate(0,-11.249983)" />
      <g
         transform="matrix(1.2387134,-0.12418429,0.12418429,1.2387134,-142.57673,-33.339257)"
         id="g4518"
         style="display:inline;stroke:none">
        <path
           style="fill:#ffffff;fill-opacity:1;stroke:none;stroke-width:0.26500797px;stroke-linecap:butt;stroke-linejoin:miter;stroke-opacity:1"
           d="m 433.71796,159.90915 c 0,0 14.9242,-0.5354 16.99886,-1.8739 0.20077,6.55861 0.10039,6.05668 -0.7027,7.1944 -3.52429,4.7463 -11.38613,4.94638 -15.92806,2.67698 1.20465,-3.04507 0.63578,-5.38744 -0.3681,-7.99748 z"
           id="path4499"
           inkscape:connector-curvature="0"
           sodipodi:nodetypes="ccccc" />
        <path
           inkscape:connector-curvature="0"
           id="path4513"
           d="m 450.80461,161.75986 c 0.0192,2.68562 -0.1877,2.61582 -0.79049,3.46979 -3.52429,4.7463 -11.38613,4.94638 -15.92806,2.67698 0.54383,-1.37468 0.72622,-2.60615 0.6703,-3.78368 2.12972,-0.63801 15.80147,-5.89146 16.04825,-2.36309 z"
           style="fill:url(#radialGradient4343);fill-opacity:1;stroke:none;stroke-width:0.26500797px;stroke-linecap:butt;stroke-linejoin:miter;stroke-opacity:1"
           sodipodi:nodetypes="ccccc" />
        <path
           style="fill:#000000;fill-opacity:1;stroke:none;stroke-width:0.26500794px;stroke-linecap:butt;stroke-linejoin:miter;stroke-opacity:1"
           d="m 450.71705,158.03505 c -0.0673,0.0434 -0.14932,0.0861 -0.24271,0.12781 -7.18086,3.86224 -13.50876,2.55292 -16.10088,1.71684 -0.13414,0.005 -0.65534,0.0292 -0.65534,0.0292 1.00388,2.61004 1.57287,4.95284 0.36825,7.99791 0.75955,0.42018 1.72199,0.87693 2.87493,1.06706 0.37338,-1.8734 3.14484,-3.97762 6.5846,-4.84473 2.71746,-0.68173 5.40304,-0.56728 7.00352,0.29847 0.29952,-0.65362 0.30932,-1.76382 0.16763,-6.39257 z"
           id="path4505"
           inkscape:connector-curvature="0"
           sodipodi:nodetypes="cccccccccc" />
      </g>
      <path
         style="display:inline;fill:#cc814f;fill-opacity:1;stroke:#d38d5f;stroke-width:0.32938579px;stroke-linecap:butt;stroke-linejoin:miter;stroke-opacity:1"
         d="m 489.26366,272.00843 c 0,0 -3.59074,9.58646 -3.97687,12.44804 2.00177,19.52254 -22.00722,19.73319 -19.97144,1.61721 2.3952,-1.50958 5.94931,-3.94272 7.73801,-6.10921 2.84704,-3.44831 4.98422,-10.89992 4.98422,-10.89992 z"
         id="path4317"
         inkscape:connector-curvature="0"
         sodipodi:nodetypes="cccccc" />
      <path
         sodipodi:nodetypes="cccccc"
         inkscape:connector-curvature="0"
         id="path4315"
         d="m 477.96609,171.65046 c 0,0 0.0959,85.31762 -1.59058,94.13872 -1.68649,8.82116 15.6881,19.58987 14.25174,13.33577 -1.43637,-6.25421 17.07996,-77.9672 -2.45525,-121.88691 -16.2833,1.7409 -10.2059,14.41241 -10.2059,14.41241 z"
         style="display:inline;fill:url(#linearGradient4360);fill-opacity:1;stroke:none;stroke-width:1.1262753px;stroke-linecap:butt;stroke-linejoin:miter;stroke-opacity:1" />
      <path
         sodipodi:nodetypes="cccccc"
         inkscape:connector-curvature="0"
         id="path4565"
         d="m 374.68253,256.16142 c 0,0 -4.90777,8.98374 -6.82098,11.14647 -16.08286,11.24624 -0.5485,29.55359 11.83071,16.17122 -0.42322,-2.79942 -0.90504,-7.07957 -0.43469,-9.84939 0.74864,-4.40864 4.99092,-10.89686 4.99092,-10.89686 z"
         style="display:inline;fill:#cc814f;fill-opacity:1;stroke:#d38d5f;stroke-width:0.32938579px;stroke-linecap:butt;stroke-linejoin:miter;stroke-opacity:1" />
      <path
         style="display:inline;fill:url(#linearGradient4368);fill-opacity:1;stroke:none;stroke-width:1.1262753px;stroke-linecap:butt;stroke-linejoin:miter;stroke-opacity:1"
         d="m 386.33654,180.74155 c 0,0 -10.68433,60.53289 -14.16745,68.81081 -3.48314,8.27798 11.27375,22.4228 11.16867,16.00675 -0.10507,-6.41619 26.59755,-49.59187 16.61765,-96.61279 -13.16188,-18.04447 -13.61886,11.79523 -13.61886,11.79523 z"
         id="path4642"
         inkscape:connector-curvature="0"
         sodipodi:nodetypes="cccccc" />
      <path
         sodipodi:nodetypes="cccccsc"
         inkscape:connector-curvature="0"
         id="path4540"
         d="m 402.87102,58.506819 c 24.27715,5.288532 40.7534,-22.840334 43.7105,-7.402821 1.41168,12.234329 2.35277,36.467721 2.35277,36.467721 5.57987,-1.93644 5.679,-1.976265 10.52053,-0.361277 2.35274,-9.411018 -0.70583,-63.759682 -7.76411,-67.524091 -16.45381,-5.565607 -40.06959,-3.193599 -51.46119,7.936317 -10.27801,10.041895 -9.92686,28.569392 2.6415,30.884151 z"
         style="display:inline;fill:url(#linearGradient4319);stroke:none;stroke-width:0.32938579px;stroke-linecap:butt;stroke-linejoin:miter;stroke-opacity:1;fill-opacity:1" />
      <path
         sodipodi:nodetypes="cccccc"
         style="display:inline;fill:url(#linearGradient4311);fill-opacity:1;stroke:#2b1100;stroke-width:0.32938579px;stroke-linecap:butt;stroke-linejoin:miter;stroke-opacity:0"
         d="m 452.66289,129.53783 c 0,0 2.99003,-12.25601 1.10785,-21.43175 -6.44064,1.75784 -6.44781,1.79663 -12.34886,7.64059 -2.63555,16.77046 -25.10418,23.05169 -36.23247,9.88158 1.83863,-1.26259 -11.74648,10.74315 -4.70549,14.82236 7.05825,3.76441 46.76762,0.14517 52.17897,-10.91278 z"
         id="path4542"
         inkscape:connector-curvature="0" />
      <path
         inkscape:connector-curvature="0"
         id="path4343"
         d="m 418.29188,148.99588 c 0,0 15.74333,15.18541 32.11635,-1.22386 -2.4236,35.42389 -15.79384,84.58617 -15.79384,84.58617 l -15.87183,-17.15344 z"
         style="display:inline;fill:url(#linearGradient4323);stroke:none;stroke-width:0.32938579px;stroke-linecap:butt;stroke-linejoin:miter;stroke-opacity:1;fill-opacity:1" />
      <path
         sodipodi:nodetypes="cccccccccc"
         inkscape:connector-curvature="0"
         id="path4617"
         d="m 428.06522,143.72407 c -1.92836,0.066 -4.62031,0.88789 -6.54896,1.21224 -12.3849,2.08313 -24.90865,-1.87697 -32.46034,8.64077 -4.2083,3.59655 -4.91731,26.33104 -3.91877,31.40212 13.59856,42.44398 14.79123,72.16158 4.17394,119.84818 l 71.22194,-1.81291 c 11.93523,-39.91589 8.69747,-107.50694 28.30287,-145.73231 -3.37989,-7.44537 -25.10608,-8.28114 -40.12858,-12.93385 -16.27442,17.50073 -13.85624,20.50032 -22.78796,37.43446 -1.12996,-17.777 -1.35113,-18.10831 2.14586,-38.0587 z"
         style="display:inline;fill:url(#linearGradient4352);fill-opacity:1;stroke:none;stroke-width:1.1262753px;stroke-linecap:butt;stroke-linejoin:miter;stroke-opacity:1" />
      <path
         style="fill:#a05a2c;stroke:none;stroke-width:0.26458332px;stroke-linecap:butt;stroke-linejoin:miter;stroke-opacity:1"
         d="m 430.23124,455.42953 c 11.41825,-1.03936 27.03395,-0.45589 27.03395,-0.45589 0.38328,-3.19402 -0.31924,-5.50897 -0.79024,-7.61645 -0.32931,-1.47345 -1.10639,-2.84548 -2.66544,-4.34563 l -0.53773,-17.01347 c 0,0 -15.25886,-2.01703 -17.68192,6.73542 1.74361,5.4753 2.2696,6.7264 1.12644,9.56931 -0.7298,1.81495 -4.21859,3.53405 -5.34762,4.87718 -1.24729,1.48378 -0.52575,4.98565 -1.13744,8.24953 z"
         id="path4296"
         inkscape:connector-curvature="0"
         sodipodi:nodetypes="ccscccssc" />
      <path
         style="fill:#000000;stroke:none;stroke-width:0.9725492px;stroke-linecap:butt;stroke-linejoin:miter;stroke-opacity:1"
         d="m 1803.8672,963.22266 -264.7832,4.40625 c 0,0 -4.5243,34.59949 -10.0254,65.08399 -34.1861,116.7232 -42.6192,182.6349 -48.5977,243.3594 31.1628,176.5622 3.7769,232.6197 4.2735,265.6738 33.9978,4.0311 35.1496,9.3771 83.8496,-6.0313 6.9929,-70.5152 3.5781,-175.9891 9.3418,-242.746 7.3579,-103.0989 26.0121,-149.3794 49.2949,-202.9239 3.287,-0.01 6.5963,-0.042 9.9141,-0.088 -1.6243,55.2418 4.2902,171.6404 16.0976,226.6739 45.7969,115.3164 27.7275,189.935 38.2676,221.2675 29.236,11.8627 44.2534,5.8546 72.786,-2.7345 -14.8158,-69.295 -7.153,-182.3016 -21.995,-247.6424 5.135,-34.2303 33.5287,-178.3934 45.1543,-237.084 8.8349,-25.9531 16.0265,-65.73219 16.4219,-87.21484 z"
         transform="matrix(0.27205135,0,0,0.27205135,-24.585191,14.346118)"
         id="path4288"
         inkscape:connector-curvature="0"
         sodipodi:nodetypes="ccccccccccccccc" />
    </g>
  </g>
  <g
     inkscape:groupmode="layer"
     id="layer2"
     inkscape:label="Decor"
     style="opacity:0.18600003"
     transform="translate(0,-11.249983)" />
</svg>
