<?xml version="1.0" encoding="UTF-8" standalone="no"?>
<!-- Created with Inkscape (http://www.inkscape.org/) -->

<svg
   xmlns:dc="http://purl.org/dc/elements/1.1/"
   xmlns:cc="http://creativecommons.org/ns#"
   xmlns:rdf="http://www.w3.org/1999/02/22-rdf-syntax-ns#"
   xmlns:svg="http://www.w3.org/2000/svg"
   xmlns="http://www.w3.org/2000/svg"
   xmlns:xlink="http://www.w3.org/1999/xlink"
   xmlns:sodipodi="http://sodipodi.sourceforge.net/DTD/sodipodi-0.dtd"
   xmlns:inkscape="http://www.inkscape.org/namespaces/inkscape"
   width="505.61304"
   height="1592.8191"
   viewBox="0 0 133.77678 421.4334"
   version="1.1"
   id="svg8"
   inkscape:version="0.92+devel unknown"
   sodipodi:docname="bellini rigatoni template.svg"
   inkscape:export-filename="/home/mbrickn/Projects/Operation-Ohio/game/images/characters/bellini rigatoni/bellini rigatoni.png"
   inkscape:export-xdpi="90"
   inkscape:export-ydpi="90">
  <defs
     id="defs2">
    <linearGradient
       inkscape:collect="always"
       id="linearGradient4693">
      <stop
         style="stop-color:#ff6600;stop-opacity:1;"
         offset="0"
         id="stop4689" />
      <stop
         style="stop-color:#bc4b00;stop-opacity:1"
         offset="1"
         id="stop4691" />
    </linearGradient>
    <linearGradient
       inkscape:collect="always"
       id="linearGradient4667">
      <stop
         style="stop-color:#edbe00;stop-opacity:1"
         offset="0"
         id="stop4663" />
      <stop
         style="stop-color:#ffcc00;stop-opacity:1"
         offset="1"
         id="stop4665" />
    </linearGradient>
    <linearGradient
       id="linearGradient4657"
       inkscape:collect="always">
      <stop
         id="stop4653"
         offset="0"
         style="stop-color:#004dc1;stop-opacity:1" />
      <stop
         id="stop4655"
         offset="1"
         style="stop-color:#0066ff;stop-opacity:1" />
    </linearGradient>
    <linearGradient
       inkscape:collect="always"
       id="linearGradient4646">
      <stop
         style="stop-color:#000000;stop-opacity:1;"
         offset="0"
         id="stop4642" />
      <stop
         style="stop-color:#000000;stop-opacity:0;"
         offset="1"
         id="stop4644" />
    </linearGradient>
    <linearGradient
       id="linearGradient4629"
       inkscape:collect="always">
      <stop
         id="stop4625"
         offset="0"
         style="stop-color:#deb200;stop-opacity:1" />
      <stop
         id="stop4627"
         offset="1"
         style="stop-color:#ffcc00;stop-opacity:1" />
    </linearGradient>
    <linearGradient
       inkscape:collect="always"
       id="linearGradient4612">
      <stop
         style="stop-color:#ffcc00;stop-opacity:1"
         offset="0"
         id="stop4608" />
      <stop
         style="stop-color:#ffcc00;stop-opacity:1"
         offset="1"
         id="stop4610" />
    </linearGradient>
    <linearGradient
       inkscape:collect="always"
       id="linearGradient4513">
      <stop
         style="stop-color:#d6ada7;stop-opacity:1;"
         offset="0"
         id="stop4509" />
      <stop
         style="stop-color:#e9c6af;stop-opacity:1"
         offset="1"
         id="stop4511" />
    </linearGradient>
    <linearGradient
       inkscape:collect="always"
       id="linearGradient4496">
      <stop
         style="stop-color:#cccccc;stop-opacity:1;"
         offset="0"
         id="stop4492" />
      <stop
         style="stop-color:#b2b2b2;stop-opacity:1"
         offset="1"
         id="stop4494" />
    </linearGradient>
    <linearGradient
       inkscape:collect="always"
       id="linearGradient4488">
      <stop
         style="stop-color:#cccccc;stop-opacity:1"
         offset="0"
         id="stop4484" />
      <stop
         style="stop-color:#acacac;stop-opacity:1"
         offset="1"
         id="stop4486" />
    </linearGradient>
    <linearGradient
       inkscape:collect="always"
       id="linearGradient4472">
      <stop
         style="stop-color:#ffffff;stop-opacity:1;"
         offset="0"
         id="stop4468" />
      <stop
         style="stop-color:#f1f1f1;stop-opacity:1"
         offset="1"
         id="stop4470" />
    </linearGradient>
    <linearGradient
       inkscape:collect="always"
       id="linearGradient4456">
      <stop
         style="stop-color:#f3f3f3;stop-opacity:1"
         offset="0"
         id="stop4452" />
      <stop
         style="stop-color:#ffffff;stop-opacity:1"
         offset="1"
         id="stop4454" />
    </linearGradient>
    <linearGradient
       inkscape:collect="always"
       id="linearGradient4337">
      <stop
         style="stop-color:#1a1a1a;stop-opacity:1;"
         offset="0"
         id="stop4333" />
      <stop
         style="stop-color:#000000;stop-opacity:1"
         offset="1"
         id="stop4335" />
    </linearGradient>
    <linearGradient
       inkscape:collect="always"
       xlink:href="#linearGradient4337"
       id="linearGradient4339"
       x1="424.49356"
       y1="377.87387"
       x2="448.2692"
       y2="373.73224"
       gradientUnits="userSpaceOnUse" />
    <linearGradient
       inkscape:collect="always"
       xlink:href="#linearGradient4456"
       id="linearGradient4458"
       x1="386.66507"
       y1="208.20857"
       x2="382.07416"
       y2="175.53799"
       gradientUnits="userSpaceOnUse" />
    <linearGradient
       inkscape:collect="always"
       xlink:href="#linearGradient4472"
       id="linearGradient4474"
       x1="480.03372"
       y1="192.6524"
       x2="457.75854"
       y2="213.5533"
       gradientUnits="userSpaceOnUse" />
    <linearGradient
       inkscape:collect="always"
       xlink:href="#linearGradient4488"
       id="linearGradient4490"
       x1="439.67221"
       y1="228.46007"
       x2="442.95032"
       y2="232.15178"
       gradientUnits="userSpaceOnUse" />
    <linearGradient
       inkscape:collect="always"
       xlink:href="#linearGradient4496"
       id="linearGradient4498"
       x1="459.79382"
       y1="244.48511"
       x2="464.92819"
       y2="250.55777"
       gradientUnits="userSpaceOnUse" />
    <linearGradient
       inkscape:collect="always"
       xlink:href="#linearGradient4513"
       id="linearGradient4515"
       x1="1654.319"
       y1="339.79904"
       x2="1663.2058"
       y2="381.14676"
       gradientUnits="userSpaceOnUse"
       gradientTransform="matrix(0.26080684,0.04454356,-0.04454356,0.26080684,22.212995,-61.206321)" />
    <linearGradient
       inkscape:collect="always"
       xlink:href="#linearGradient4438"
       id="linearGradient4427"
       x1="416.27716"
       y1="73.185646"
       x2="393.79346"
       y2="86.95105"
       gradientUnits="userSpaceOnUse"
       gradientTransform="matrix(1,0,0,1.974634,8.976537,-92.502428)" />
    <linearGradient
       id="linearGradient4438"
       inkscape:collect="always">
      <stop
         id="stop4434"
         offset="0"
         style="stop-color:#e9c6af;stop-opacity:1" />
      <stop
         id="stop4436"
         offset="1"
         style="stop-color:#0066ff;stop-opacity:0.23" />
    </linearGradient>
    <linearGradient
       inkscape:collect="always"
       xlink:href="#linearGradient4629"
       id="linearGradient4614"
       x1="462.96957"
       y1="81.612587"
       x2="458.27466"
       y2="76.179443"
       gradientUnits="userSpaceOnUse" />
    <linearGradient
       inkscape:collect="always"
       xlink:href="#linearGradient4612"
       id="linearGradient4616"
       gradientUnits="userSpaceOnUse"
       x1="462.96957"
       y1="81.612587"
       x2="458.27466"
       y2="76.179443" />
    <linearGradient
       inkscape:collect="always"
       xlink:href="#linearGradient4646"
       id="linearGradient4648"
       x1="403.79691"
       y1="12.199125"
       x2="469.78284"
       y2="12.199125"
       gradientUnits="userSpaceOnUse" />
    <linearGradient
       inkscape:collect="always"
       xlink:href="#linearGradient4657"
       id="linearGradient4650"
       gradientUnits="userSpaceOnUse"
       x1="466.36563"
       y1="32.300152"
       x2="405.51324"
       y2="24.475601"
       gradientTransform="matrix(3.7795276,0,0,3.7795276,0,-42.519621)" />
    <linearGradient
       inkscape:collect="always"
       xlink:href="#linearGradient4612"
       id="linearGradient4659"
       gradientUnits="userSpaceOnUse"
       x1="462.96957"
       y1="81.612587"
       x2="458.27466"
       y2="76.179443" />
    <linearGradient
       inkscape:collect="always"
       xlink:href="#linearGradient4667"
       id="linearGradient4661"
       gradientUnits="userSpaceOnUse"
       x1="462.96957"
       y1="81.612587"
       x2="457.12485"
       y2="52.493183" />
    <linearGradient
       inkscape:collect="always"
       xlink:href="#linearGradient4693"
       id="linearGradient4695"
       x1="383.76266"
       y1="245.31807"
       x2="449.55835"
       y2="280.73563"
       gradientUnits="userSpaceOnUse" />
    <linearGradient
       inkscape:collect="always"
       xlink:href="#linearGradient4629"
       id="linearGradient4378"
       gradientUnits="userSpaceOnUse"
       x1="462.96957"
       y1="81.612587"
       x2="458.27466"
       y2="76.179443" />
    <linearGradient
       inkscape:collect="always"
       xlink:href="#linearGradient4629"
       id="linearGradient4380"
       gradientUnits="userSpaceOnUse"
       x1="462.96957"
       y1="81.612587"
       x2="458.27466"
       y2="76.179443" />
  </defs>
  <sodipodi:namedview
     id="base"
     pagecolor="#ffffff"
     bordercolor="#666666"
     borderopacity="1.0"
     inkscape:pageopacity="0.0"
     inkscape:pageshadow="2"
     inkscape:zoom="0.175"
     inkscape:cx="-675.84321"
     inkscape:cy="1821.0435"
     inkscape:document-units="mm"
     inkscape:current-layer="layer3"
     showgrid="false"
     inkscape:window-width="1920"
     inkscape:window-height="1016"
     inkscape:window-x="0"
     inkscape:window-y="0"
     inkscape:window-maximized="1"
     units="px"
     inkscape:pagecheckerboard="true"
     inkscape:document-rotation="0"
     fit-margin-top="0"
     fit-margin-left="0"
     fit-margin-right="0"
     fit-margin-bottom="0">
    <inkscape:grid
       type="xygrid"
       id="grid4485"
       originx="-361.1711"
       originy="136.15674" />
  </sodipodi:namedview>
  <metadata
     id="metadata5">
    <rdf:RDF>
      <cc:Work
         rdf:about="">
        <dc:format>image/svg+xml</dc:format>
        <dc:type
           rdf:resource="http://purl.org/dc/dcmitype/StillImage" />
        <dc:title></dc:title>
        <cc:license
           rdf:resource="http://creativecommons.org/licenses/by/4.0/" />
        <dc:creator>
          <cc:Agent>
            <dc:title>Maxwell Paul Brickner</dc:title>
          </cc:Agent>
        </dc:creator>
      </cc:Work>
      <cc:License
         rdf:about="http://creativecommons.org/licenses/by/4.0/">
        <cc:permits
           rdf:resource="http://creativecommons.org/ns#Reproduction" />
        <cc:permits
           rdf:resource="http://creativecommons.org/ns#Distribution" />
        <cc:requires
           rdf:resource="http://creativecommons.org/ns#Notice" />
        <cc:requires
           rdf:resource="http://creativecommons.org/ns#Attribution" />
        <cc:permits
           rdf:resource="http://creativecommons.org/ns#DerivativeWorks" />
      </cc:License>
    </rdf:RDF>
  </metadata>
  <g
     inkscape:label="Head"
     inkscape:groupmode="layer"
     id="layer1"
     transform="translate(-361.17111,-11.723339)">
    <path
       sodipodi:nodetypes="cssscssccssccccscccc"
       inkscape:connector-curvature="0"
       id="path4544"
       d="m 410.12004,30.70168 c 0,0 1.491,1.491006 -2.98201,5.964028 -4.47302,4.473021 -1.49102,4.473021 -1.49102,8.946041 0,4.473021 -1.491,2.982015 -1.491,8.946043 0,5.964026 -1.0234,18.108755 1.95862,21.090764 2.98201,2.982018 1.49101,4.473026 0,4.473026 -1.49102,0 -1.49102,-2.982016 -2.98202,-2.982016 -1.491,0 2.98202,5.964032 0,4.473024 -2.98201,-1.491008 -4.47302,-1.491008 -5.96403,0 -0.27908,-2.604843 -0.11916,-6.104278 0.0253,-9.468417 0.0849,-1.976511 -1.22126,-2.142707 -1.23923,-3.816949 -0.0215,-2.000662 1.20351,-5.400001 0.74632,-6.314395 -1.491,-2.982011 -2.98201,-4.473023 -1.49099,-7.455037 1.49099,-2.982014 1.49099,-4.473022 0,-7.455034 -1.49102,-2.982014 -1.49102,0 0,-4.473022 0.36734,-1.102041 1.76244,-2.837819 1.99337,-3.508322 0.70638,-2.050963 -0.13503,-1.699391 0.98862,-3.946712 4.31328,-3.141763 2.98203,-2.982016 2.98203,-2.982016 1.35336,-2.030901 4.37774,-2.695588 6.42556,-1.536028 z"
       style="fill:#ffcc00;stroke:none;stroke-width:0.29820138px;stroke-linecap:butt;stroke-linejoin:miter;stroke-opacity:1" />
    <path
       style="fill:url(#linearGradient4515);fill-opacity:1;stroke:none;stroke-width:1.01964581px;stroke-linecap:butt;stroke-linejoin:miter;stroke-opacity:1"
       d="m 443.72924,93.570445 c -3.62985,-0.779778 -15.06725,3.031892 -15.06725,3.031892 0,0 1.54474,7.705743 1.34008,13.624963 -0.38727,1.14331 -1.16832,1.51921 -1.44875,2.41102 0.42521,-0.0243 0.83597,-0.002 1.23643,0.0508 -0.0923,0.60666 -0.21449,1.17066 -0.37313,1.6752 1.4441,-0.0826 2.76436,-0.14141 3.99417,-0.18388 2.99977,2.0536 5.17916,5.42956 7.05198,5.54466 4.43035,0.27232 6.31051,-2.83059 7.00531,-4.52624 0.61608,0.29376 0.65416,0.53165 0.65416,0.53165 0,0 -3.2091,-17.91972 -3.30178,-21.200906 -0.0145,-0.512683 -0.41902,-0.814706 -1.09122,-0.959109 z"
       id="path4612"
       inkscape:connector-curvature="0" />
    <path
       style="fill:#e9c6af;stroke:none;stroke-width:1.01964581px;stroke-linecap:butt;stroke-linejoin:miter;stroke-opacity:1"
       d="m 397.79706,54.588114 c 0,0 0,25.491135 10.19646,35.687618 15.4374,13.447238 39.95705,3.254019 45.88406,-5.098236 10.19646,-15.294697 10.19646,-40.78583 10.19646,-40.78583 0,0 0,-25.491221 -40.78582,-25.491177 -25.49115,3.5e-5 -25.49116,35.687625 -25.49116,35.687625 z"
       id="path4487"
       inkscape:connector-curvature="0"
       sodipodi:nodetypes="ccccsc" />
    <ellipse
       ry="10.4369"
       rx="9.0391016"
       cy="49.772728"
       cx="442.08237"
       id="ellipse4497"
       style="fill:#ffffff;fill-opacity:1;stroke:none;stroke-width:4.23892069;stroke-linecap:round;stroke-linejoin:round;stroke-miterlimit:4;stroke-dasharray:none;stroke-opacity:1;paint-order:stroke fill markers" />
    <ellipse
       ry="9.3772907"
       rx="6.8155112"
       cy="49.958382"
       cx="439.73129"
       id="path4526"
       style="fill:#0066ff;fill-opacity:1;stroke:none;stroke-width:20.16388321;stroke-linecap:square;stroke-linejoin:round;stroke-miterlimit:4;stroke-dasharray:none;stroke-dashoffset:0;stroke-opacity:1;paint-order:stroke markers fill" />
    <path
       inkscape:connector-curvature="0"
       id="path4647"
       d="m 401.12918,56.48629 16.78783,-2.9e-5"
       style="fill:none;stroke:none;stroke-width:0;stroke-linecap:butt;stroke-linejoin:miter;stroke-miterlimit:4;stroke-dasharray:none;stroke-opacity:1" />
    <ellipse
       ry="11.010703"
       rx="6.0706329"
       cy="83.497833"
       cx="401.64294"
       id="ellipse4499"
       style="fill:#ffffff;fill-opacity:1;stroke:none;stroke-width:4.36995602;stroke-linecap:round;stroke-linejoin:round;stroke-miterlimit:4;stroke-dasharray:none;stroke-opacity:1;paint-order:stroke fill markers"
       transform="rotate(-4.4885584)" />
    <ellipse
       style="fill:#0066ff;fill-opacity:1;stroke:none;stroke-width:3.35810065;stroke-linecap:round;stroke-linejoin:round;stroke-miterlimit:4;stroke-dasharray:none;stroke-opacity:1;paint-order:stroke fill markers"
       id="path4491"
       cx="400.12997"
       cy="83.334694"
       rx="4.6016493"
       ry="8.5776577"
       transform="rotate(-4.4885584)" />
    <g
       id="g4606"
       style="fill:url(#linearGradient4614);fill-opacity:1">
      <path
         sodipodi:nodetypes="cssscssccssccccsccc"
         inkscape:connector-curvature="0"
         id="path4645"
         d="m 450.01812,30.70168 c 0,0 -1.491,1.491006 2.98201,5.964028 4.47302,4.473021 1.49102,4.473021 1.49102,8.946041 0,4.473021 1.491,2.982015 1.491,8.946043 0,5.964026 1.0234,18.108755 -1.95862,21.090764 -2.98201,2.982018 -1.49101,4.473026 0,4.473026 1.49102,0 1.49102,-2.982016 2.98202,-2.982016 1.491,0 -2.98202,5.964032 0,4.473024 2.98201,-1.491008 4.47302,-1.491008 5.96403,0 0.27908,-2.604843 0.11916,-6.104278 -0.0253,-9.468417 -0.0849,-1.976511 1.22126,-2.142707 1.23923,-3.816949 0.0215,-2.000662 -1.20351,-5.400001 -0.74632,-6.314395 1.491,-2.982011 2.98201,-4.473023 1.49099,-7.455037 -1.49099,-2.982014 -1.49099,-4.473022 0,-7.455034 1.49102,-2.982014 1.49102,0 0,-4.473022 -0.36734,-1.102041 -1.76244,-2.837819 -1.99337,-3.508322 -0.70638,-2.050963 0.13503,-1.699391 -0.98862,-3.946712 -4.31328,-3.141763 -2.98203,-2.982016 -2.98203,-2.982016 z"
         style="fill:url(#linearGradient4661);fill-opacity:1;stroke:none;stroke-width:0.29820138px;stroke-linecap:butt;stroke-linejoin:miter;stroke-opacity:1" />
      <path
         style="fill:url(#linearGradient4616);fill-opacity:1;stroke:none;stroke-width:4.41104507px;stroke-linecap:butt;stroke-linejoin:miter;stroke-opacity:1"
         d="m 1674.1426,99.201172 c -0.9904,-0.0115 -2.0117,0.02626 -3.0664,0.115234 -20.0258,3.762464 -32.3512,12.952034 -34.0586,31.974614 l -3.002,-1.03125 -1.3926,4.05664 4.0567,1.39257 0.1387,-0.40039 c -0.015,1.22648 7e-4,2.48231 0.064,3.78321 0,0 1.8393,-28.79718 34.3242,-30.16211 32.485,-1.36443 33.8828,37.74414 33.8828,37.74414 0,0 -0.03,-2.09281 -0.3203,-5.30664 l 4.3535,-0.36914 -0.3769,-4.27149 -4.457,0.45703 c -1.8765,-13.77098 -8.2616,-37.728359 -30.1465,-37.982418 z"
         transform="matrix(0.26458333,0,0,0.26458333,0,11.249983)"
         id="path4505"
         inkscape:connector-curvature="0" />
      <path
         sodipodi:nodetypes="cccc"
         inkscape:connector-curvature="0"
         id="path4513"
         d="m 402.32873,31.431438 c 7.42535,4.819247 7.29069,4.701521 14.05068,3.895328 -2.35439,4.506079 -11.18725,5.930387 -14.05068,-3.895372 z"
         style="fill:url(#linearGradient4378);fill-opacity:1;stroke:none;stroke-width:1.14020205px;stroke-linecap:butt;stroke-linejoin:miter;stroke-opacity:1" />
      <path
         style="fill:url(#linearGradient4380);fill-opacity:1;stroke:none;stroke-width:1.14020205px;stroke-linecap:butt;stroke-linejoin:miter;stroke-opacity:1"
         d="m 432.35064,32.667337 c 7.41431,1.696241 8.93786,0.5813 15.72212,-3.06814 0,0 -2.4864,6.29047 -8.49627,7.295798 -6.00986,1.005284 -7.22584,-4.227702 -7.22584,-4.227702 z"
         id="path4515"
         inkscape:connector-curvature="0"
         sodipodi:nodetypes="ccscc" />
      <path
         id="path4509"
         transform="matrix(0.26458333,0,0,0.26458333,0,11.249983)"
         d="m 1538.3516,106.79688 c -0.5494,-0.0184 -1.1126,-0.0101 -1.6914,0.0254 -15.4285,3.28855 -19.8063,16.76585 -21.2386,31.09615 l -3.9099,-0.49459 -0.582,4.24805 4.1719,0.57226 c -0.08,1.2363 -0.147,2.4707 -0.2012,3.69922 0.5551,-8.38514 3.6312,-30.08644 20.6367,-30.51953 21.0832,-0.53647 25.1816,33.49804 25.1817,33.49805 -0.29,-1.9808 -0.5931,-4.13224 -0.9336,-6.36719 l 4.2089,-0.68946 -0.6933,-4.23242 -4.2031,0.68946 c -2.5093,-14.60816 -7.1995,-31.07182 -20.7461,-31.52539 z m -23.4512,39.14648 c -0.1331,2.01045 -0.125,3.27344 -0.125,3.27344 0.035,-1.08245 0.077,-2.17577 0.125,-3.27344 z"
         style="fill:url(#linearGradient4659);fill-opacity:1;stroke:none;stroke-width:3.44940162px;stroke-linecap:butt;stroke-linejoin:miter;stroke-opacity:1"
         inkscape:connector-curvature="0"
         sodipodi:nodetypes="ccccccccccccccccc" />
    </g>
    <path
       sodipodi:nodetypes="cc"
       inkscape:connector-curvature="0"
       id="path4511"
       d="m 399.45991,49.930305 0.98283,0.365575"
       style="fill:#ffff73;fill-opacity:1;stroke:none;stroke-width:0.91265416px;stroke-linecap:butt;stroke-linejoin:miter;stroke-opacity:1" />
    <path
       sodipodi:type="star"
       style="opacity:0.18600003;fill:#ffff98;fill-opacity:1;stroke:none;stroke-width:0.50609654;stroke-linecap:round;stroke-linejoin:round;stroke-miterlimit:4;stroke-dasharray:none;stroke-dashoffset:0;stroke-opacity:1;paint-order:stroke fill markers"
       id="path4514"
       sodipodi:sides="5"
       sodipodi:cx="404.70026"
       sodipodi:cy="51.848213"
       sodipodi:r1="2.3743701"
       sodipodi:r2="1.9209059"
       sodipodi:arg1="-0.69865982"
       sodipodi:arg2="-0.070341294"
       inkscape:flatsided="true"
       inkscape:rounded="0.71"
       inkscape:randomized="0"
       d="m 406.51832,50.321037 c 1.27467,1.517459 1.24548,1.103138 0.19618,2.784337 -1.0493,1.681199 -0.66427,1.525404 -2.58744,1.046983 -1.92316,-0.47842 -1.65602,-0.160386 -1.7953,-2.137265 -0.13929,-1.976879 -0.3592,-1.624528 1.47788,-2.367886 1.83708,-0.743359 1.43402,-0.843627 2.70868,0.673831 z"
       inkscape:transform-center-x="-0.1653841"
       inkscape:transform-center-y="-0.049451897" />
    <path
       style="fill:none;stroke:#0066ff;stroke-width:1;stroke-linecap:round;stroke-linejoin:miter;stroke-miterlimit:4;stroke-dasharray:none;stroke-opacity:1;paint-order:stroke fill markers"
       d="m 417.66981,84.551192 c 0,0 9.23031,6.988258 19.2011,-2.572437"
       id="path4539"
       inkscape:connector-curvature="0"
       sodipodi:nodetypes="cc" />
    <path
       inkscape:connector-curvature="0"
       id="path4542"
       d="m 435.79511,76.966169 c 0,0 -1.12318,6.013605 5.36903,7.774323"
       style="fill:none;fill-opacity:1;stroke:#0066ff;stroke-width:1;stroke-linecap:round;stroke-linejoin:miter;stroke-miterlimit:4;stroke-dasharray:none;stroke-opacity:1;paint-order:stroke fill markers"
       sodipodi:nodetypes="cc" />
    <path
       inkscape:connector-curvature="0"
       id="path4489-5"
       d="m 421.90394,41.854953 c -1.16902,5.514543 -2.4979,10.614147 -3.98693,14.631308 5.12055,-4.264112 8.40977,5.10179 11.13894,2.228739 0.35345,-0.400902 1.07004,-12.327646 0.19225,-18.768495"
       style="fill:url(#linearGradient4427);fill-opacity:1;stroke:none;stroke-width:1.22720921;stroke-linecap:butt;stroke-linejoin:miter;stroke-miterlimit:4;stroke-dasharray:none;stroke-opacity:1"
       sodipodi:nodetypes="cccc" />
  </g>
  <g
     inkscape:groupmode="layer"
     id="layer3"
     inkscape:label="Body"
     transform="translate(-361.17111,-0.47335611)">
    <path
       style="fill:url(#linearGradient4458);fill-opacity:1;stroke:none;stroke-width:1.18613183px;stroke-linecap:butt;stroke-linejoin:miter;stroke-opacity:1"
       d="m 396.6068,129.33285 c 0,0 -9.3446,28.94796 -12.01196,61.1078 -0.72249,8.71099 18.34688,9.87617 18.32324,14.16792 -5.26657,12.62001 6.5529,24.19345 -3.26327,22.38853 1.35274,-3.02757 -44.55418,-17.16475 -37.80606,-44.72979 7.00458,-28.61266 15.44781,-64.29629 30.95481,-77.34279 7.63702,3.97081 4.80548,12.07632 4.80548,12.07632 z"
       id="path4352"
       inkscape:connector-curvature="0"
       sodipodi:nodetypes="csccsccc" />
    <path
       sodipodi:nodetypes="csccsccc"
       inkscape:connector-curvature="0"
       id="path4315"
       d="m 461.87613,116.99511 c 0,0 11.17208,41.48242 9.28202,73.69729 -0.51196,8.72589 -19.55529,7.19289 -20.13651,11.44515 3.43608,13.23612 -9.89602,23.02895 0.0765,22.62498 -0.91272,-3.18795 46.52805,-10.71657 43.73071,-38.95737 -2.90365,-29.31412 -2.62288,-70.39322 -17.75763,-83.93506 -12.50231,8.86694 -15.19509,15.12501 -15.19509,15.12501 z"
       style="fill:url(#linearGradient4474);fill-opacity:1;stroke:none;stroke-width:1.18613183px;stroke-linecap:butt;stroke-linejoin:miter;stroke-opacity:1" />
    <path
       sodipodi:nodetypes="csccssccc"
       inkscape:connector-curvature="0"
       id="path4300"
       d="m 414.98345,279.72177 c 0,0 1.82609,38.93152 2.28474,46.70293 0.46217,7.83152 9.2734,74.96246 15.08965,76.33627 5.81629,1.3738 12.49389,1.0368 12.39199,-3.45655 -0.10187,-4.49335 0.40478,-58.25019 -1.36393,-66.56165 -1.07237,-5.03933 4.79139,-32.06283 7.05681,-54.2266 1.47099,-14.39139 -0.42461,-27.95838 -0.42461,-27.95838 L 387.47753,250.257 Z"
       style="fill:#000000;fill-opacity:1;stroke:none;stroke-width:0.28607789px;stroke-linecap:butt;stroke-linejoin:miter;stroke-opacity:1" />
    <path
       style="fill:#000000;fill-opacity:1;stroke:none;stroke-width:0.28607789px;stroke-linecap:butt;stroke-linejoin:miter;stroke-opacity:1"
       d="m 387.47753,250.257 c 0,0 -7.83678,72.91786 -6.68158,80.71585 1.27871,8.63194 13.61488,69.57972 19.51163,71.21592 5.89677,1.63621 12.60547,1.60957 12.35902,-2.86707 -0.24649,-4.47667 -5.35791,-61.27784 -7.40394,-69.63148 -1.76074,-7.1889 4.32704,-40.63522 6.72289,-49.36929 0.38821,-1.41514 38.03255,-29.76314 38.03255,-29.76314 z"
       id="path4298"
       inkscape:connector-curvature="0"
       sodipodi:nodetypes="csccsscc" />
    <path
       style="fill:#000000;fill-opacity:1;stroke:none;stroke-width:0.20573302px;stroke-linecap:butt;stroke-linejoin:miter;stroke-opacity:1"
       d="m 371.32563,420.78694 c 3.52578,0.26173 25.94283,0.84441 27.08904,0.0905 3.44653,-5.81276 5.76486,0.42036 6.44229,0.329 0.98593,-0.17814 9.92789,0.0991 10.03739,-1.15552 0.1096,-1.25463 2.11772,-18.97973 0.66997,-21.42768 -0.2155,-0.36437 0.70696,-6.10304 -2.44915,-8.24259 -7.10652,-4.81751 -14.87729,-0.5082 -18.46488,0.58233 -1.87778,0.57079 2.18313,7.96364 2.7559,10.03021 -5.60271,11.24225 -14.77492,13.57392 -25.4747,10.39551 -2.2326,5.20386 -3.17259,9.04524 -0.60586,9.39827 z"
       id="path4302"
       inkscape:connector-curvature="0"
       sodipodi:nodetypes="cccccsscccc" />
    <path
       sodipodi:nodetypes="cccsscc"
       inkscape:connector-curvature="0"
       id="path4306"
       d="m 437.22195,421.90674 c 0.98593,-0.17813 10.79875,-0.60128 10.90824,-1.85589 0.1096,-1.25462 2.11774,-18.97973 0.66995,-21.42767 -0.2155,-0.36438 0.52047,-5.45734 -1.46289,-8.71388 -7.4447,-12.22363 -17.025,-0.84109 -20.61259,0.24943 -1.87778,0.5708 1.59157,9.28494 2.16433,11.3515 -10.83376,24.63438 -11.18185,17.47902 8.33296,20.39651 z"
       style="fill:#000000;fill-opacity:1;stroke:none;stroke-width:0.20573302px;stroke-linecap:butt;stroke-linejoin:miter;stroke-opacity:1" />
    <path
       style="fill:#ffffff;fill-opacity:1;stroke:none;stroke-width:1.01964581px;stroke-linecap:butt;stroke-linejoin:miter;stroke-opacity:1"
       d="M 470.03556,114.97257 C 450.8432,152.94763 455.7144,183.4711 451.0982,224.76253 l -63.53765,0.51502 c 7.10345,-53.84911 7.93007,-59.08266 4.37748,-87.80729 -0.77683,-3.4515 -2.41795,-25.49146 -0.42779,-28.92996 6.72257,-11.615716 21.78288,22.30088 44.95661,26.20777 20.01691,3.37467 26.88515,-24.63534 33.56871,-19.7755 z"
       id="path4617"
       inkscape:connector-curvature="0"
       sodipodi:nodetypes="ccccssc" />
    <path
       sodipodi:nodetypes="cscccc"
       inkscape:connector-curvature="0"
       id="path4623"
       d="m 392.80356,104.92452 c -6.6776,12.19733 26.06711,40.51628 38.60198,43.37019 12.53486,2.85393 38.69142,-23.09634 45.66568,-46.42461 -10.08499,1.3185 -19.31427,1.82223 -28.01551,-0.68599 -9.87084,-1.02489 -9.76142,-0.73752 -18.81973,-0.46615 -13.94824,0.47755 -24.02376,6.81685 -37.43242,4.20656 z"
       style="fill:#ffffff;fill-opacity:1;stroke:none;stroke-width:1.01964581px;stroke-linecap:butt;stroke-linejoin:miter;stroke-opacity:1" />
    <path
       style="fill:url(#linearGradient4695);fill-opacity:1;stroke:none;stroke-width:0.29820138px;stroke-linecap:butt;stroke-linejoin:miter;stroke-opacity:1"
       d="m 387.56055,225.27756 c 0,0 -7.94358,45.88335 -4.93127,53.4141 l 67.16821,6.52366 c 8.13318,-1.2049 1.30071,-60.45279 1.30071,-60.45279 z"
       id="path4708"
       inkscape:connector-curvature="0"
       sodipodi:nodetypes="ccccc" />
    <path
       style="fill:#ffffff;fill-opacity:1;stroke:none;stroke-width:0.46379793px;stroke-linecap:butt;stroke-linejoin:miter;stroke-opacity:1"
       d="m 421.07123,98.626436 1.22987,3.689524 13.9966,-0.52728 -1.58121,-3.865191 z"
       id="path4686"
       inkscape:connector-curvature="0" />
    <path
       inkscape:connector-curvature="0"
       id="path4703"
       d="m 454.53138,98.758769 -1.22989,3.689531 -13.9966,-0.5273 1.58123,-3.865179 z"
       style="fill:#ffffff;fill-opacity:1;stroke:none;stroke-width:0.46379793px;stroke-linecap:butt;stroke-linejoin:miter;stroke-opacity:1" />
    <rect
       style="fill:url(#linearGradient4490);fill-opacity:1;stroke:none;stroke-width:0.1341202;stroke-linecap:round;stroke-linejoin:round;stroke-miterlimit:4;stroke-dasharray:none;stroke-dashoffset:0;stroke-opacity:1;paint-order:stroke fill markers"
       id="rect4607"
       width="22.742783"
       height="10.994856"
       x="420.20755"
       y="221.15692"
       ry="2.6327128" />
    <path
       style="fill:none;stroke:none;stroke-width:1.4257313;stroke-linecap:round;stroke-linejoin:miter;stroke-miterlimit:4;stroke-dasharray:none;stroke-opacity:1"
       d="m 423.18,223.71965 h 8.94604"
       id="path4609"
       inkscape:connector-curvature="0" />
    <circle
       style="fill:#b3b3b3;fill-opacity:1;stroke:none;stroke-width:1.4257313;stroke-linecap:round;stroke-linejoin:round;stroke-miterlimit:4;stroke-dasharray:none;stroke-dashoffset:0;stroke-opacity:1;paint-order:stroke fill markers"
       id="path4611"
       cx="437.34454"
       cy="227.44717"
       r="3.7275174" />
    <circle
       style="fill:#ff2a2a;fill-opacity:1;stroke:none;stroke-width:1.4257313;stroke-linecap:round;stroke-linejoin:round;stroke-miterlimit:4;stroke-dasharray:none;stroke-dashoffset:0;stroke-opacity:1;paint-order:stroke fill markers"
       id="path4613"
       cx="423.92551"
       cy="230.42918"
       r="0.74550349" />
    <circle
       style="fill:#d4ff2a;fill-opacity:1;stroke:none;stroke-width:1.4257313;stroke-linecap:round;stroke-linejoin:round;stroke-miterlimit:4;stroke-dasharray:none;stroke-dashoffset:0;stroke-opacity:1;paint-order:stroke fill markers"
       id="path4616"
       cx="426.9075"
       cy="230.42918"
       r="0.74550349" />
    <rect
       style="fill:url(#linearGradient4498);fill-opacity:1;stroke:none;stroke-width:0.29867101;stroke-linecap:round;stroke-linejoin:round;stroke-miterlimit:4;stroke-dasharray:none;stroke-dashoffset:0;stroke-opacity:1;paint-order:stroke fill markers"
       id="rect4637"
       width="14.910069"
       height="23.856112"
       x="450.01813"
       y="226.70166"
       ry="2.6327128" />
    <g
       id="g4608"
       transform="matrix(1.1259566,-0.04986892,0.04986892,1.1259566,-83.508972,-22.568973)"
       style="stroke:none">
      <g
         id="g4731"
         transform="translate(-1.7851003e-5)"
         style="stroke:none">
        <circle
           r="1.6036172"
           cy="148.64073"
           cx="446.741"
           id="circle4707"
           style="fill:#000000;fill-opacity:1;stroke:none;stroke-width:1.39999998;stroke-linecap:round;stroke-linejoin:round;stroke-miterlimit:4;stroke-dasharray:none;stroke-dashoffset:0;stroke-opacity:1;paint-order:stroke fill markers" />
      </g>
      <g
         transform="translate(-2.2272479,13.007121)"
         id="g4737"
         style="stroke:none">
        <circle
           style="fill:#000000;fill-opacity:1;stroke:none;stroke-width:1.39999998;stroke-linecap:round;stroke-linejoin:round;stroke-miterlimit:4;stroke-dasharray:none;stroke-dashoffset:0;stroke-opacity:1;paint-order:stroke fill markers"
           id="circle4735"
           cx="446.741"
           cy="148.64073"
           r="1.6036172" />
      </g>
      <g
         id="g4743"
         transform="translate(-4.4545179,26.014251)"
         style="stroke:none">
        <circle
           r="1.6036172"
           cy="148.64073"
           cx="446.741"
           id="circle4741"
           style="fill:#000000;fill-opacity:1;stroke:none;stroke-width:1.39999998;stroke-linecap:round;stroke-linejoin:round;stroke-miterlimit:4;stroke-dasharray:none;stroke-dashoffset:0;stroke-opacity:1;paint-order:stroke fill markers" />
      </g>
      <g
         transform="translate(-6.6817479,39.021361)"
         id="g4749"
         style="stroke:none">
        <circle
           style="fill:#000000;fill-opacity:1;stroke:none;stroke-width:1.39999998;stroke-linecap:round;stroke-linejoin:round;stroke-miterlimit:4;stroke-dasharray:none;stroke-dashoffset:0;stroke-opacity:1;paint-order:stroke fill markers"
           id="circle4747"
           cx="446.741"
           cy="148.64073"
           r="1.6036172" />
      </g>
      <g
         id="g4755"
         transform="translate(-8.9089879,52.028477)"
         style="stroke:none">
        <circle
           r="1.6036172"
           cy="148.64073"
           cx="446.741"
           id="circle4753"
           style="fill:#000000;fill-opacity:1;stroke:none;stroke-width:1.39999998;stroke-linecap:round;stroke-linejoin:round;stroke-miterlimit:4;stroke-dasharray:none;stroke-dashoffset:0;stroke-opacity:1;paint-order:stroke fill markers" />
      </g>
      <g
         transform="translate(-11.136248,65.035586)"
         id="g4761"
         style="stroke:none">
        <circle
           style="fill:#000000;fill-opacity:1;stroke:none;stroke-width:1.39999998;stroke-linecap:round;stroke-linejoin:round;stroke-miterlimit:4;stroke-dasharray:none;stroke-dashoffset:0;stroke-opacity:1;paint-order:stroke fill markers"
           id="circle4759"
           cx="446.741"
           cy="148.64073"
           r="1.6036172" />
      </g>
      <g
         id="g4767"
         transform="translate(-13.363488,78.042707)"
         style="stroke:none">
        <circle
           r="1.6036172"
           cy="148.64073"
           cx="446.741"
           id="circle4765"
           style="fill:#000000;fill-opacity:1;stroke:none;stroke-width:1.39999998;stroke-linecap:round;stroke-linejoin:round;stroke-miterlimit:4;stroke-dasharray:none;stroke-dashoffset:0;stroke-opacity:1;paint-order:stroke fill markers" />
      </g>
    </g>
    <path
       style="fill:url(#linearGradient4339);fill-opacity:1;stroke:none;stroke-width:0.29820138px;stroke-linecap:butt;stroke-linejoin:miter;stroke-opacity:1"
       d="m 422.55796,374.33743 23.9792,-3.08613 -0.17181,6.51053 -22.66981,4.13189 z"
       id="path4340"
       inkscape:connector-curvature="0"
       sodipodi:nodetypes="ccccc" />
    <path
       style="fill:#000000;stroke:none;stroke-width:0.39880633px;stroke-linecap:butt;stroke-linejoin:miter;stroke-opacity:1"
       d="m 446.0547,358.19292 0.18019,27.47441 7.57795,-0.60428 -0.73412,-29.39505 z"
       id="path4342"
       inkscape:connector-curvature="0"
       sodipodi:nodetypes="ccccc" />
    <g
       id="g4640"
       style="fill:url(#linearGradient4648);fill-opacity:1">
      <path
         style="fill:url(#linearGradient4650);fill-opacity:1;stroke:none;stroke-width:1.12706029px;stroke-linecap:butt;stroke-linejoin:miter;stroke-opacity:1"
         d="M 1694.0703,1.7890625 A 34.853711,34.853711 0 0 0 1661.4414,24.515625 C 1600.969,4.1617345 1531.0971,12.137778 1526.1621,73.517578 c 0,0 152.1518,-22.541065 219.7754,16.90625 -1.1592,-2.792521 -2.529,-5.537617 -4.084,-8.232422 a 34.853711,34.853711 0 0 0 33.7031,-34.8125 34.853711,34.853711 0 0 0 -34.8535,-34.853515 34.853711,34.853711 0 0 0 -0.035,0.002 34.853711,34.853711 0 0 0 -22.9336,-8.6464846 34.853711,34.853711 0 0 0 -8.9844,1.1953125 34.853711,34.853711 0 0 0 -14.6797,-3.2871094 z"
         transform="scale(0.26458333)"
         id="path4639"
         inkscape:connector-curvature="0" />
    </g>
    <path
       style="fill:#0066ff;fill-opacity:1;stroke:none;stroke-width:0.26458332px;stroke-linecap:butt;stroke-linejoin:miter;stroke-opacity:1"
       d="m 466.68541,139.82978 12.90841,4.33122 10.51248,-8.80861 c 0,0 1.49196,6.63783 1.28564,9.80265 -0.28128,0.17385 -9.79122,7.95226 -9.79122,7.95226 l -13.37829,-4.71732 c 0,0 -0.698,-6.42892 -1.53702,-8.5602 z"
       id="path4683"
       inkscape:connector-curvature="0" />
    <path
       inkscape:connector-curvature="0"
       id="path4685"
       d="m 468.74619,154.39884 12.84455,4.76346 10.51248,-8.80861 c 0,0 1.20589,7.97182 0.99957,11.13664 -0.28128,0.17385 -9.50515,6.61827 -9.50515,6.61827 l -13.37829,-4.71732 c 0,0 -0.63414,-6.86116 -1.47316,-8.99244 z"
       style="fill:#fd6500;fill-opacity:1;stroke:none;stroke-width:0.26458332px;stroke-linecap:butt;stroke-linejoin:miter;stroke-opacity:1"
       sodipodi:nodetypes="ccccccc" />
  </g>
  <g
     inkscape:groupmode="layer"
     id="layer2"
     inkscape:label="Decor"
     style="opacity:0.18600003"
     transform="translate(-361.17111,-11.723339)">
    <path
       inkscape:transform-center-y="0.22130229"
       inkscape:transform-center-x="0.16946869"
       d="m 442.96133,53.031972 c -1.46837,3.037997 -0.84515,2.703772 -4.1882,2.246067 -3.34306,-0.457706 -2.83261,0.03173 -3.43037,-3.289142 -0.59775,-3.320874 -0.9055,-2.684161 2.06812,-4.278868 2.97363,-1.594708 2.27298,-1.690635 4.70853,0.644655 2.43556,2.335291 2.31028,1.639291 0.84192,4.677288 z"
       inkscape:randomized="0"
       inkscape:rounded="0.71"
       inkscape:flatsided="true"
       sodipodi:arg2="1.0785441"
       sodipodi:arg1="0.4502256"
       sodipodi:r2="3.2705975"
       sodipodi:r1="4.0426803"
       sodipodi:cy="51.272724"
       sodipodi:cx="439.3215"
       sodipodi:sides="5"
       id="path4529"
       style="fill:#ffff98;fill-opacity:1;stroke:none;stroke-width:0.59704566;stroke-linecap:round;stroke-linejoin:round;stroke-miterlimit:4;stroke-dasharray:none;stroke-dashoffset:0;stroke-opacity:1;paint-order:stroke fill markers"
       sodipodi:type="star" />
  </g>
</svg>
