<?xml version="1.0" encoding="UTF-8" standalone="no"?>
<!-- Created with Inkscape (http://www.inkscape.org/) -->

<svg
   xmlns:dc="http://purl.org/dc/elements/1.1/"
   xmlns:cc="http://creativecommons.org/ns#"
   xmlns:rdf="http://www.w3.org/1999/02/22-rdf-syntax-ns#"
   xmlns:svg="http://www.w3.org/2000/svg"
   xmlns="http://www.w3.org/2000/svg"
   xmlns:xlink="http://www.w3.org/1999/xlink"
   xmlns:sodipodi="http://sodipodi.sourceforge.net/DTD/sodipodi-0.dtd"
   xmlns:inkscape="http://www.inkscape.org/namespaces/inkscape"
   width="1920"
   height="1080"
   viewBox="0 0 507.99999 285.75001"
   version="1.1"
   id="svg8"
   inkscape:version="0.92.2 (5c3e80d, 2017-08-06)"
   sodipodi:docname="ist s.svg"
   inkscape:export-filename="/home/mbrickn/Projects/aXVI/game/images/characters/ist/ist s.png"
   inkscape:export-xdpi="96"
   inkscape:export-ydpi="96">
  <title
     id="title77">IST</title>
  <defs
     id="defs2">
    <linearGradient
       inkscape:collect="always"
       id="linearGradient4546">
      <stop
         style="stop-color:#b3b3b3;stop-opacity:1;"
         offset="0"
         id="stop4542" />
      <stop
         style="stop-color:#a3a3a3;stop-opacity:1"
         offset="1"
         id="stop4544" />
    </linearGradient>
    <linearGradient
       inkscape:collect="always"
       id="linearGradient4538">
      <stop
         style="stop-color:#aa4400;stop-opacity:1;"
         offset="0"
         id="stop4534" />
      <stop
         style="stop-color:#843500;stop-opacity:1"
         offset="1"
         id="stop4536" />
    </linearGradient>
    <linearGradient
       id="linearGradient4512"
       inkscape:collect="always">
      <stop
         id="stop4508"
         offset="0"
         style="stop-color:#ff6600;stop-opacity:1" />
      <stop
         id="stop4510"
         offset="1"
         style="stop-color:#dd5a03;stop-opacity:1" />
    </linearGradient>
    <linearGradient
       inkscape:collect="always"
       id="linearGradient4406">
      <stop
         style="stop-color:#c9916c;stop-opacity:1;"
         offset="0"
         id="stop4402" />
      <stop
         style="stop-color:#ffc9a5;stop-opacity:1"
         offset="1"
         id="stop4404" />
    </linearGradient>
    <linearGradient
       inkscape:collect="always"
       id="linearGradient4397">
      <stop
         style="stop-color:#ff6600;stop-opacity:1;"
         offset="0"
         id="stop4393" />
      <stop
         style="stop-color:#bd4f06;stop-opacity:1"
         offset="1"
         id="stop4395" />
    </linearGradient>
    <linearGradient
       inkscape:collect="always"
       id="linearGradient4372">
      <stop
         style="stop-color:#d8a17c;stop-opacity:1"
         offset="0"
         id="stop4368" />
      <stop
         style="stop-color:#ffc9a5;stop-opacity:1"
         offset="1"
         id="stop4370" />
    </linearGradient>
    <linearGradient
       inkscape:collect="always"
       id="linearGradient4363">
      <stop
         style="stop-color:#d8d8d8;stop-opacity:1"
         offset="0"
         id="stop4359" />
      <stop
         style="stop-color:#ffffff;stop-opacity:1"
         offset="1"
         id="stop4361" />
    </linearGradient>
    <linearGradient
       inkscape:collect="always"
       id="linearGradient4352">
      <stop
         style="stop-color:#d40000;stop-opacity:1;"
         offset="0"
         id="stop4348" />
      <stop
         style="stop-color:#ff0000;stop-opacity:1"
         offset="1"
         id="stop4350" />
    </linearGradient>
    <linearGradient
       inkscape:collect="always"
       xlink:href="#linearGradient4352"
       id="linearGradient4356"
       gradientUnits="userSpaceOnUse"
       x1="1622.8359"
       y1="716.88281"
       x2="1658.4941"
       y2="451.19141"
       gradientTransform="matrix(0.33389505,0,0,0.33389505,-9.8852943,144.0616)" />
    <linearGradient
       inkscape:collect="always"
       xlink:href="#linearGradient4363"
       id="linearGradient4365"
       x1="1605.2881"
       y1="396.97223"
       x2="1465.897"
       y2="500.0256"
       gradientUnits="userSpaceOnUse"
       gradientTransform="translate(-5.6200179e-6,1.6855192e-6)" />
    <linearGradient
       inkscape:collect="always"
       xlink:href="#linearGradient4372"
       id="linearGradient4374"
       x1="481.88235"
       y1="143.2767"
       x2="486.53824"
       y2="140.31511"
       gradientUnits="userSpaceOnUse" />
    <linearGradient
       inkscape:collect="always"
       xlink:href="#linearGradient4397"
       id="linearGradient4399"
       x1="1638.1886"
       y1="938.86383"
       x2="1630.6469"
       y2="1301.9352"
       gradientUnits="userSpaceOnUse"
       gradientTransform="matrix(0.33389505,0,0,0.33389505,-9.8852943,144.0616)" />
    <linearGradient
       inkscape:collect="always"
       xlink:href="#linearGradient4406"
       id="linearGradient4408"
       x1="1645.1132"
       y1="421.97531"
       x2="1660.4336"
       y2="460.47266"
       gradientUnits="userSpaceOnUse"
       gradientTransform="matrix(0.33389505,0,0,0.33389505,-9.8852943,155.31158)" />
    <linearGradient
       inkscape:collect="always"
       xlink:href="#linearGradient4512"
       id="linearGradient4506"
       x1="392.46161"
       y1="150.46425"
       x2="360.91519"
       y2="212.86279"
       gradientUnits="userSpaceOnUse"
       gradientTransform="matrix(1.2619655,0,0,1.2619655,-9.8852943,144.0616)" />
    <linearGradient
       inkscape:collect="always"
       xlink:href="#linearGradient4538"
       id="linearGradient4540"
       x1="1544.3163"
       y1="624.49451"
       x2="1838.5137"
       y2="748.625"
       gradientUnits="userSpaceOnUse"
       gradientTransform="matrix(0.06533522,0,0,0.06533522,320.23723,150.05973)" />
    <linearGradient
       inkscape:collect="always"
       xlink:href="#linearGradient4546"
       id="linearGradient4550"
       x1="394.4549"
       y1="152.02037"
       x2="394.43896"
       y2="153.83437"
       gradientUnits="userSpaceOnUse"
       gradientTransform="matrix(1.2619655,0,0,1.2619655,-86.332172,-3.7364498)" />
    <linearGradient
       inkscape:collect="always"
       xlink:href="#linearGradient4546"
       id="linearGradient4558"
       x1="394.61996"
       y1="153.05974"
       x2="394.54623"
       y2="154.90764"
       gradientUnits="userSpaceOnUse"
       gradientTransform="matrix(1.2619655,0,0,1.2619655,-86.332172,-3.7364498)" />
  </defs>
  <sodipodi:namedview
     id="base"
     pagecolor="#ffffff"
     bordercolor="#666666"
     borderopacity="1.0"
     inkscape:pageopacity="0.0"
     inkscape:pageshadow="2"
     inkscape:zoom="0.9899495"
     inkscape:cx="678.05517"
     inkscape:cy="564.62967"
     inkscape:document-units="mm"
     inkscape:current-layer="g4367"
     showgrid="false"
     inkscape:window-width="1440"
     inkscape:window-height="863"
     inkscape:window-x="1920"
     inkscape:window-y="0"
     inkscape:window-maximized="1"
     units="px"
     inkscape:pagecheckerboard="true"
     inkscape:document-rotation="0"
     fit-margin-top="0"
     fit-margin-left="0"
     fit-margin-right="0"
     fit-margin-bottom="0">
    <inkscape:grid
       type="xygrid"
       id="grid4485"
       originx="-268.59049"
       originy="141.2275" />
  </sodipodi:namedview>
  <metadata
     id="metadata5">
    <rdf:RDF>
      <cc:Work
         rdf:about="">
        <dc:format>image/svg+xml</dc:format>
        <dc:type
           rdf:resource="http://purl.org/dc/dcmitype/StillImage" />
        <dc:title>IST</dc:title>
        <cc:license
           rdf:resource="http://creativecommons.org/licenses/by/4.0/" />
        <dc:creator>
          <cc:Agent>
            <dc:title>Maxwell Paul Brickner</dc:title>
          </cc:Agent>
        </dc:creator>
      </cc:Work>
      <cc:License
         rdf:about="http://creativecommons.org/licenses/by/4.0/">
        <cc:permits
           rdf:resource="http://creativecommons.org/ns#Reproduction" />
        <cc:permits
           rdf:resource="http://creativecommons.org/ns#Distribution" />
        <cc:requires
           rdf:resource="http://creativecommons.org/ns#Notice" />
        <cc:requires
           rdf:resource="http://creativecommons.org/ns#Attribution" />
        <cc:permits
           rdf:resource="http://creativecommons.org/ns#DerivativeWorks" />
      </cc:License>
    </rdf:RDF>
  </metadata>
  <g
     inkscape:label="Head"
     inkscape:groupmode="layer"
     id="layer1"
     transform="translate(-268.59049,-152.47747)"
     style="display:inline">
    <path
       style="fill:url(#linearGradient4408);fill-opacity:1;stroke:none;stroke-width:1.39712322px;stroke-linecap:butt;stroke-linejoin:miter;stroke-opacity:1"
       d="m 545.76369,280.28811 c -5.08251,-0.21587 -19.65156,7.57067 -19.65156,7.57067 0,0 3.77242,9.80739 4.91453,17.79752 -0.29263,0.60985 -1.00128,0.41112 -1.1556,1.54297 0.21265,-0.0435 0.68004,-0.13925 1.31731,-0.23151 0.18568,1.7347 0.22495,3.34882 0.0398,4.70648 5.55154,-1.27805 9.89074,-2.10007 13.29711,-2.61311 3.67698,0.68224 7.68305,1.26082 8.31802,2.80615 1.63382,3.97617 2.61056,-0.47619 3.01287,-3.21244 0.84519,0.25129 0.95213,0.54975 0.95213,0.54975 0,0 -0.46357,-1.29616 -0.75844,-2.11879 0.0207,-0.22907 0.0244,-0.30443 -0.006,-0.0177 -1.79411,-5.0057 -7.82947,-21.95699 -8.58538,-25.73666 -0.13783,-0.68912 -0.7537,-1.00344 -1.69491,-1.04342 z"
       id="path4612"
       inkscape:connector-curvature="0" />
    <path
       style="fill:#ffc9a5;fill-opacity:1;stroke:#ffc9a5;stroke-width:0.49971271px;stroke-linecap:butt;stroke-linejoin:miter;stroke-opacity:1"
       d="m 573.43431,257.83543 c 0,0 -11.0978,21.84081 -26.08918,31.47811 -14.99137,9.63733 -41.23333,-9.44013 -41.23333,-9.44013 0,0 4.19476,10.26245 -5.44255,-31.14233 -1.8462,-7.93183 -4.95735,-33.04342 -1.87036,-38.59464 13.02729,-23.42656 65.19329,-8.63465 71.83018,-4.59483 8.20954,4.9971 26.00621,21.24023 2.80524,52.29382 z"
       id="path4538"
       inkscape:connector-curvature="0"
       sodipodi:nodetypes="cscsssc" />
    <g
       transform="matrix(1.888678,0,0,1.888678,-388.10654,-12.466371)"
       style="display:inline"
       id="g4373">
      <path
         inkscape:connector-curvature="0"
         id="path4509"
         d="m 471.14996,127.80102 c 0,0 0.39376,-5.47329 5.51906,-5.60381 5.12531,-0.13042 5.90916,5.53348 5.90916,5.53348 0,0 -0.46248,-10.07747 -5.77958,-9.61478 -5.31711,0.46266 -5.64864,9.68511 -5.64864,9.68511 z"
         style="fill:#e6e6e6;fill-opacity:1;stroke:#e6e6e6;stroke-width:0.83854395px;stroke-linecap:butt;stroke-linejoin:miter;stroke-opacity:1"
         sodipodi:nodetypes="ccccc" />
      <path
         sodipodi:nodetypes="cc"
         inkscape:connector-curvature="0"
         id="path4511"
         d="m 470.01383,127.0974 0.90304,0.33589"
         style="fill:#c47d4d;fill-opacity:1;stroke:#e6e6e6;stroke-width:0.83854395px;stroke-linecap:butt;stroke-linejoin:miter;stroke-opacity:1" />
    </g>
    <g
       style="display:inline"
       id="g4379"
       transform="matrix(1.888678,0,0,1.888678,-396.34532,-23.120614)">
      <path
         sodipodi:nodetypes="ccccc"
         style="fill:#e6e6e6;fill-opacity:1;stroke:#e6e6e6;stroke-width:1.0116601px;stroke-linecap:butt;stroke-linejoin:miter;stroke-opacity:1"
         d="m 495.70087,134.95521 c 0,0 0.93528,-6.057 8.38559,-6.37005 7.45032,-0.31292 7.86344,6.36338 7.86344,6.36338 0,0 0.1809,-10.57007 -7.55986,-9.91712 -7.74075,0.65291 -8.68917,9.92379 -8.68917,9.92379 z"
         id="path4505"
         inkscape:connector-curvature="0" />
      <path
         style="fill:#d5f6ff;fill-opacity:1;stroke:#e6e6e6;stroke-width:1.0116601px;stroke-linecap:butt;stroke-linejoin:miter;stroke-opacity:1"
         d="m 512.21717,134.31379 1.29993,0.30473"
         id="path4507"
         inkscape:connector-curvature="0"
         sodipodi:nodetypes="cc" />
    </g>
  </g>
  <g
     inkscape:groupmode="layer"
     id="layer3"
     inkscape:label="Body"
     style="display:inline"
     transform="translate(-268.59049,-141.22749)">
    <path
       style="display:inline;fill:#ffb380;fill-opacity:1;stroke:#ffb380;stroke-width:0.43323284px;stroke-linecap:butt;stroke-linejoin:miter;stroke-opacity:1"
       d="m 397.70358,378.97558 c -3.40242,-1.68746 -11.37229,-2.69901 -14.19883,-6.74652 -1.42944,-2.04689 -2.67172,-4.07923 -3.55056,-5.58826 -0.4457,-6.52206 18.12836,-24.1496 21.09637,-16.94834 1.83518,4.44861 5.2345,12.42668 7.40678,15.9354 7.72225,10.28094 8.05648,10.1951 17.55333,3.4039 l 5.98959,16.93452 c -15.38346,2.28936 -15.74558,1.08206 -34.29668,-6.9907 z"
       id="path4565-3"
       inkscape:connector-curvature="0"
       sodipodi:nodetypes="cccccccc" />
    <path
       sodipodi:nodetypes="csccscc"
       inkscape:connector-curvature="0"
       id="path4642-6"
       d="m 478.73369,308.86728 c 0,0 -2.8811,49.06681 -19.94301,59.17457 -12.69843,7.52277 -26.92032,-0.24989 -31.19312,-1.07605 -13.81175,-2.67061 -30.73656,24.50938 -20.9356,22.27996 5.18524,-1.17946 28.55982,5.82549 59.6226,8.17564 27.65255,2.09213 1.3245,-55.07541 33.75429,-69.41883 23.4166,-25.9922 -21.30516,-19.13529 -21.30516,-19.13529 z"
       style="display:inline;fill:url(#linearGradient4506);fill-opacity:1;stroke:none;stroke-width:1.76418078px;stroke-linecap:butt;stroke-linejoin:miter;stroke-opacity:1" />
    <circle
       r="18.428329"
       cy="310.5257"
       cx="494.38675"
       id="circle4316"
       style="display:inline;fill:#ff6600;fill-opacity:1;stroke:none;stroke-width:53.0206337;stroke-linejoin:bevel;stroke-opacity:1;paint-order:markers fill stroke" />
    <path
       style="fill:url(#linearGradient4399);fill-opacity:1;stroke:none;stroke-width:1.39712322px;stroke-linecap:butt;stroke-linejoin:miter;stroke-opacity:1"
       d="m 586.74864,308.6249 c -10.23862,0.20006 -27.57325,34.318 -54.6127,38.87661 -27.42724,4.62399 -42.80002,-30.57423 -51.95786,-23.91523 -0.62305,6.02864 -0.43676,12.3547 -0.8021,17.96967 0.0395,40.39589 9.07392,63.91064 13.84945,85.24759 -0.7036,9.57449 -2.92301,19.15585 -6.10206,27.64677 0,0 0.69711,1.60319 8.64734,2.39269 -0.19786,2.09532 -0.48314,4.22983 -0.87319,6.41835 0,0 -6.9078,77.03381 -5.37688,88.29632 1.69451,12.46702 18.04212,100.49351 25.85663,102.85665 7.81447,2.36314 16.7057,2.3245 16.37912,-4.14107 -0.32668,-6.46565 -7.10067,-88.50319 -9.81207,-100.5683 -1.67222,-7.44074 3.61751,-33.15269 7.91825,-51.76938 0.48068,-2.08058 2.53443,-4.27523 5.57058,-6.47637 0.74408,17.1159 1.98947,45.56492 2.42073,53.52949 0.61254,11.31096 12.28871,108.26768 19.99655,110.25188 7.70779,1.98413 16.55785,1.49752 16.42278,-4.9921 -0.13526,-6.48975 0.53615,-84.13023 -1.80771,-96.1344 -1.80947,-9.26718 5.37766,-55.71665 8.96823,-75.45507 0.12835,-7.26186 0.42314,-14.3896 0.86275,-21.39732 12.9739,-1.49663 13.80776,-3.83848 13.80776,-3.83848 -5.35421,-11.44766 -9.0184,-25.15455 -9.25189,-38.27859 4.5012,-29.17802 11.47594,-56.19527 19.82174,-81.70582 1.06446,-4.72924 -12.47709,-16.77915 -15.20398,-21.49058 -1.36726,-2.36253 -2.93673,-3.35818 -4.72147,-3.32331 z"
       id="path4617"
       inkscape:connector-curvature="0" />
    <path
       sodipodi:nodetypes="csccccc"
       inkscape:connector-curvature="0"
       id="path4623"
       d="m 480.85569,324.10758 c 0.80458,22.54285 33.82268,32.40005 50.99802,36.31048 17.17533,3.91047 43.91291,-32.3665 62.27697,-57.45161 -14.27893,-2.32126 -30.63368,-4.45529 -37.82039,-6.65959 -18.46733,9.40928 -21.15438,16.05982 -25.89528,-1.18312 -15.7139,0.98698 -32.49954,2.8474 -46.87649,5.45731 z"
       style="fill:#ff6600;fill-opacity:1;stroke:#ff6600;stroke-width:1.39712334px;stroke-linecap:butt;stroke-linejoin:miter;stroke-opacity:1" />
    <g
       id="g4352" />
    <g
       id="g4367"
       transform="matrix(1.888678,0,0,1.888678,-384.605,-34.63364)">
      <path
         inkscape:connector-curvature="0"
         id="path4489"
         d="m 485.10892,134.64823 c 0,0 -0.83466,4.96272 -1.89371,7.32295 2.69357,1.64472 4.72384,-0.70642 4.72384,-0.70642"
         style="fill:url(#linearGradient4374);fill-opacity:1;stroke:none;stroke-width:0.60180032;stroke-linecap:butt;stroke-linejoin:miter;stroke-miterlimit:4;stroke-dasharray:none;stroke-opacity:1"
         sodipodi:nodetypes="ccc" />
      <ellipse
         style="fill:#000000;fill-opacity:1;stroke:none;stroke-width:9.52195072;stroke-linejoin:bevel;stroke-opacity:1;paint-order:markers fill stroke"
         id="path4351"
         cx="475.04489"
         cy="135.68735"
         rx="5.8077593"
         ry="8.3106861" />
      <ellipse
         cy="135.92023"
         cx="497.51645"
         id="circle4353"
         style="fill:#000000;fill-opacity:1;stroke:none;stroke-width:11.49811649;stroke-linejoin:bevel;stroke-opacity:1;paint-order:markers fill stroke"
         rx="7.5345449"
         ry="9.3409281" />
      <path
         style="fill:none;stroke:#000000;stroke-width:1.03434443;stroke-linecap:butt;stroke-linejoin:miter;stroke-miterlimit:4;stroke-dasharray:none;stroke-opacity:1"
         d="m 479.93151,134.54807 c 0,0 4.30039,-4.95804 10.66746,1.9126"
         id="path4366"
         inkscape:connector-curvature="0" />
      <path
         inkscape:connector-curvature="0"
         id="path4368"
         d="m 502.8588,136.36318 c 0,0 4.30039,-4.95804 10.66746,1.9126"
         style="fill:none;stroke:#000000;stroke-width:1.03434443;stroke-linecap:butt;stroke-linejoin:miter;stroke-miterlimit:4;stroke-dasharray:none;stroke-opacity:1" />
      <path
         style="fill:none;stroke:#000000;stroke-width:1.03434443;stroke-linecap:butt;stroke-linejoin:miter;stroke-miterlimit:4;stroke-dasharray:none;stroke-opacity:1"
         d="m 471.91954,136.80945 c 0,0 -2.63981,-4.37625 -5.34986,-4.41026"
         id="path4370"
         inkscape:connector-curvature="0"
         sodipodi:nodetypes="cc" />
      <path
         style="fill:url(#linearGradient4365);fill-opacity:1;stroke:none;stroke-width:1.22372854px;stroke-linecap:butt;stroke-linejoin:miter;stroke-opacity:1"
         d="m 1690.5293,15.607422 c -4.7982,0.164749 -11.9187,3.0722 -21.9766,9.609375 0,0 -7.4667,9.338505 -16.623,22.158203 -1.9156,-2.472543 -3.3008,-4.234375 -3.3008,-4.234375 -36.6413,-23.815308 -34.2907,0.546657 -22.6621,30.207031 -37.5162,0.327112 -96.1621,17.64539 -118.3828,27.404294 -5.3245,2.33843 -10.0545,4.96961 -14.1856,7.81446 -19.8024,-11.188775 -40.6757,-20.171879 -40.6757,-20.171879 -42.1068,-3.658365 -22.7757,18.710499 2.4101,38.507809 -28.5393,-2.21715 -50.9873,1.83694 -21.0137,26.52539 0,0 22.0538,8.53454 44.4922,14.42969 -5.0614,6.99385 -8.3281,11.85742 -8.3281,11.85742 -13.7035,49.34098 26.6646,17.0404 53.0098,-9.08203 46.2299,-8.21664 112.0195,-40.44531 112.0195,-40.44531 0,0 66.5539,36.77621 116.3555,51.80078 1.6918,4.007 4.7356,8.60282 8.5566,13.42774 -10.8669,34.5909 -7.1904,113.88776 -49.2578,134.61523 -34.1099,9.50212 -98.1337,21.84826 -169.2715,7.80469 0,0 1.9772,24.44901 -47.1562,140.88086 128.4625,-27.27353 191.2524,-60.10418 221.1211,-88.69336 16.9588,-11.64733 44.611,-58.54878 65.248,-109.03321 2.913,7.25329 5.0176,12.04297 5.0176,12.04297 35.5334,39.33428 28.224,-17.10757 19.8769,-53.38281 2.2492,1.86406 3.8946,3.20703 3.8946,3.20703 46.8501,17.41999 20.5688,-23.11278 -2.8379,-51.53711 0.062,-0.49624 0.109,-0.97856 0.166,-1.4707 3.3108,-9.14999 6.2167,-18.47153 7.7519,-26.48242 0.5978,-2.13868 0.9235,-4.31542 0.9668,-6.51172 0.2591,-2.73176 0.2815,-5.20852 0,-7.33594 -0.6575,-1.37793 -1.36,-2.6354 -2.0976,-3.79297 -4.3484,-11.02022 -15.3922,-21.62092 -32.5899,-29.17383 -18.0641,-7.93343 -63.5222,-23.766443 -102.6113,-31.83398 -0.1071,-0.167141 -0.213,-0.335043 -0.3203,-0.501953 15.2155,-29.98488 30.6976,-69.237626 12.4004,-68.609375 z"
         transform="matrix(0.17678771,0,0,0.17678771,198.40317,94.613923)"
         id="path4372"
         inkscape:connector-curvature="0" />
    </g>
    <path
       style="fill:#000000;fill-opacity:1;stroke:#000000;stroke-width:0.40859687px;stroke-linecap:butt;stroke-linejoin:miter;stroke-opacity:1"
       d="m 530.89108,294.61403 c 9.52221,2.91963 15.87117,1.6394 25.62305,0.74315 -8.66372,21.26585 -8.59333,112.58092 -19.41636,162.18641 -3.61744,-0.33655 -8.45965,0.66999 -8.70119,-0.51361 -12.40143,-70.4134 6.18848,-127.20018 2.4945,-162.41595 z"
       id="path4304"
       inkscape:connector-curvature="0"
       sodipodi:nodetypes="ccccc" />
    <circle
       style="display:inline;fill:#ff6600;fill-opacity:1;stroke:none;stroke-width:53.0206337;stroke-linejoin:bevel;stroke-opacity:1;paint-order:markers fill stroke"
       id="path4299"
       cx="593.97888"
       cy="315.63202"
       r="18.428329" />
    <path
       style="fill:url(#linearGradient4356);fill-opacity:1;stroke:none;stroke-width:0.46092746px;stroke-linecap:butt;stroke-linejoin:miter;stroke-opacity:1"
       d="m 526.9834,293.91265 -7.63462,8.02522 7.33397,0.9893 13.65384,-6.52269 a 3.2466014,3.2466014 0 0 0 -0.46498,1.66621 3.2466014,3.2466014 0 0 0 0.10305,0.80083 l -5.49428,4.5904 -0.23804,5.63252 3.78764,-2.32487 2.95026,-6.25858 a 3.2466014,3.2466014 0 0 0 1.39755,0.71735 l -13.34538,57.46778 2.93918,24.72911 12.82954,-21.65949 -2.06206,-60.47283 a 3.2466014,3.2466014 0 0 0 0.3789,0.0247 3.2466014,3.2466014 0 0 0 1.83249,-0.57127 l 2.8394,6.02314 3.78764,2.32489 -0.23804,-5.63253 -5.16297,-4.3139 a 3.2466014,3.2466014 0 0 0 0.18848,-1.07733 3.2466014,3.2466014 0 0 0 -0.44021,-1.62447 l 13.56579,6.48094 7.33397,-0.98928 -6.23836,-7.01636 -16.74564,-0.19173 0.0372,-0.0177 z"
       id="path4312"
       inkscape:connector-curvature="0" />
    <path
       inkscape:connector-curvature="0"
       id="path4519"
       d="m 511.51044,266.03917 c 0,0 21.97134,5.1234 28.9839,1.21477"
       style="display:inline;fill:none;fill-opacity:1;stroke:#aeaeae;stroke-width:1.35913694;stroke-linecap:round;stroke-linejoin:miter;stroke-miterlimit:4;stroke-dasharray:none;stroke-opacity:1"
       sodipodi:nodetypes="cc" />
    <path
       sodipodi:nodetypes="cc"
       style="display:inline;fill:none;fill-opacity:1;stroke:#aeaeae;stroke-width:1.35913694;stroke-linecap:round;stroke-linejoin:miter;stroke-miterlimit:4;stroke-dasharray:none;stroke-opacity:1"
       d="m 542.60423,260.58755 c 0,0 -6.34707,9.15141 4.68136,11.78047"
       id="path4349"
       inkscape:connector-curvature="0" />
    <circle
       style="fill:#000000;fill-opacity:1;stroke-width:1.95354354;stroke-linejoin:bevel;paint-order:markers fill stroke"
       id="path4306"
       cx="573.93927"
       cy="338.97076"
       r="3.3485165"
       transform="rotate(3.5924424)" />
    <circle
       style="fill:#000000;fill-opacity:1;stroke-width:1.95354354;stroke-linejoin:bevel;paint-order:markers fill stroke"
       id="path4308"
       cx="572.8526"
       cy="365.06299"
       r="3.6945536"
       transform="rotate(3.5924424)" />
    <circle
       style="fill:#000000;fill-opacity:1;stroke-width:1.95354354;stroke-linejoin:bevel;paint-order:markers fill stroke"
       id="path4310"
       cx="573.39594"
       cy="352.01688"
       r="3.4160309"
       transform="rotate(3.5924424)" />
    <g
       transform="matrix(0.27109392,0.03459712,-0.03459712,0.27109392,528.0244,274.26829)"
       id="g4342">
      <g
         transform="matrix(11.239459,0,0,11.239459,-975.15717,-1061.2053)"
         id="g4355">
        <g
           aria-label="BG IST"
           transform="matrix(0.26458333,0,0,0.26458333,-0.08620094,-0.49473256)"
           style="font-style:normal;font-weight:normal;font-size:13.33333397px;line-height:1.25;font-family:sans-serif;letter-spacing:0px;word-spacing:0px;fill:#ffffff;fill-opacity:1;stroke:none"
           id="flowRoot4271">
          <g
             id="g4318">
            <path
               inkscape:connector-curvature="0"
               id="path4305"
               style="font-style:normal;font-variant:normal;font-weight:bold;font-stretch:normal;font-size:17.33333397px;font-family:'League Gothic';-inkscape-font-specification:'League Gothic Bold';text-align:center;text-anchor:middle;fill:#ffffff;fill-opacity:1"
               d="m 379.23565,417.4262 c 2.236,-0.0867 2.89466,-1.73333 2.89466,-3.60534 0,-2.53066 -1.3,-3.12 -1.3,-3.12 0.90134,-0.78 1.16134,-1.456 1.16134,-2.63466 0,-2.53067 -1.17867,-3.38 -3.41467,-3.38 -0.71067,0 -1.64667,0 -1.64667,0 v 12.74 z m 0.95333,-3.81334 c 0,2.09734 -1.04,1.95867 -1.38667,1.95867 v -3.91733 c 0.34667,0 1.38667,-0.13867 1.38667,1.95866 z m 0,-5.37333 c 0,1.75067 -1.04,1.69867 -1.38667,1.69867 v -3.39734 c 0.34667,0 1.38667,-0.052 1.38667,1.69867 z" />
            <path
               inkscape:connector-curvature="0"
               id="path4307"
               style="font-style:normal;font-variant:normal;font-weight:bold;font-stretch:normal;font-size:17.33333397px;font-family:'League Gothic';-inkscape-font-specification:'League Gothic Bold';text-align:center;text-anchor:middle;fill:#ffffff;fill-opacity:1"
               d="m 388.09785,409.2622 v -1.95867 c 0,0 0.0173,-2.756 -2.496,-2.756 -2.51333,0 -2.496,2.756 -2.496,2.756 v 7.50534 c 0,0 -0.17333,2.756 2.20134,2.756 0.58933,0 1.10933,-0.312 1.456,-0.74534 l 0.22533,0.60667 h 1.10933 v -6.344 h -2.61733 v 1.57733 h 0.74533 v 2.30534 c 0,0 0.0347,0.936 -0.624,0.936 -0.65866,0 -0.624,-0.936 -0.624,-0.936 v -7.66134 c 0,0 -0.0347,-0.936 0.624,-0.936 0.65867,0 0.624,0.936 0.624,0.936 v 1.95867 z" />
          </g>
          <path
             inkscape:connector-curvature="0"
             d="m 375.84698,439.09285 h 1.872 v -12.74 h -1.872 z"
             style="font-style:normal;font-variant:normal;font-weight:bold;font-stretch:normal;font-size:17.33333397px;font-family:'League Gothic';-inkscape-font-specification:'League Gothic Bold';text-align:center;text-anchor:middle;fill:#ffffff;fill-opacity:1"
             id="path4309" />
          <path
             inkscape:connector-curvature="0"
             d="m 378.97565,429.19552 c 0,1.36933 0.832,2.66933 1.716,3.96933 0.71066,1.07467 1.508,2.09734 1.508,2.94667 0,0.79733 -0.208,1.404 -0.76267,1.404 -0.78,0 -0.884,-1.10933 -0.884,-2.16667 l -1.83733,0.17334 c 0,1.88933 0.312,3.70933 2.72133,3.70933 2.04533,0 2.6,-1.508 2.6,-3.20667 0,-1.36933 -0.884,-2.63466 -1.75067,-3.93466 -0.728,-1.05734 -1.47333,-2.028 -1.47333,-2.89467 0,-0.728 0.156,-1.248 0.64133,-1.26533 0.624,0 0.74534,0.988 0.74534,1.83733 l 1.83733,-0.17333 c 0,-1.42134 -0.364,-3.432 -2.61733,-3.38 -1.768,0.0347 -2.444,1.59466 -2.444,2.98133 z"
             style="font-style:normal;font-variant:normal;font-weight:bold;font-stretch:normal;font-size:17.33333397px;font-family:'League Gothic';-inkscape-font-specification:'League Gothic Bold';text-align:center;text-anchor:middle;fill:#ffffff;fill-opacity:1"
             id="path4311" />
          <path
             inkscape:connector-curvature="0"
             d="m 386.16465,428.27685 v 10.816 h 1.872 v -10.816 h 1.768 v -1.924 h -5.408 v 1.924 z"
             style="font-style:normal;font-variant:normal;font-weight:bold;font-stretch:normal;font-size:17.33333397px;font-family:'League Gothic';-inkscape-font-specification:'League Gothic Bold';text-align:center;text-anchor:middle;fill:#ffffff;fill-opacity:1"
             id="path4313" />
        </g>
        <g
           id="g4303"
           transform="matrix(1.0780464,-0.6224104,0.6224104,1.0780464,-75.54707,54.686524)">
          <path
             inkscape:connector-curvature="0"
             id="path4285"
             d="M 99.218749,107.02917 H 103.1875"
             style="fill:none;stroke:#ff6600;stroke-width:0.26458332px;stroke-linecap:butt;stroke-linejoin:miter;stroke-opacity:1" />
          <path
             inkscape:connector-curvature="0"
             id="path4287"
             d="M 103.1875,107.55833 H 99.218749"
             style="fill:none;stroke:#ff6600;stroke-width:0.26458332px;stroke-linecap:butt;stroke-linejoin:miter;stroke-opacity:1" />
          <path
             inkscape:connector-curvature="0"
             id="path4289"
             d="M 99.218749,108.0875 H 103.1875"
             style="fill:none;stroke:#ff6600;stroke-width:0.26458332px;stroke-linecap:butt;stroke-linejoin:miter;stroke-opacity:1" />
          <path
             inkscape:connector-curvature="0"
             id="path4291"
             d="M 103.1875,108.61667 H 99.218749"
             style="fill:none;stroke:#ff6600;stroke-width:0.26458332px;stroke-linecap:butt;stroke-linejoin:miter;stroke-opacity:1" />
          <path
             inkscape:connector-curvature="0"
             id="path4293"
             d="M 99.218749,109.14583 H 103.1875"
             style="fill:none;stroke:#ff6600;stroke-width:0.26458332px;stroke-linecap:butt;stroke-linejoin:miter;stroke-opacity:1" />
          <path
             inkscape:connector-curvature="0"
             id="path4295"
             d="M 103.1875,109.675 H 99.218749"
             style="fill:none;stroke:#ff6600;stroke-width:0.26458332px;stroke-linecap:butt;stroke-linejoin:miter;stroke-opacity:1" />
        </g>
        <g
           transform="matrix(1.0780464,-0.6224104,0.6224104,1.0780464,-75.337077,60.268118)"
           id="g4332">
          <path
             style="fill:none;stroke:#ff6600;stroke-width:0.26458332px;stroke-linecap:butt;stroke-linejoin:miter;stroke-opacity:1"
             d="M 99.218749,107.02917 H 103.1875"
             id="path4320"
             inkscape:connector-curvature="0" />
          <path
             style="fill:none;stroke:#ff6600;stroke-width:0.26458332px;stroke-linecap:butt;stroke-linejoin:miter;stroke-opacity:1"
             d="M 103.1875,107.55833 H 99.218749"
             id="path4322"
             inkscape:connector-curvature="0" />
          <path
             style="fill:none;stroke:#ff6600;stroke-width:0.26458332px;stroke-linecap:butt;stroke-linejoin:miter;stroke-opacity:1"
             d="M 99.218749,108.0875 H 103.1875"
             id="path4324"
             inkscape:connector-curvature="0" />
          <path
             style="fill:none;stroke:#ff6600;stroke-width:0.26458332px;stroke-linecap:butt;stroke-linejoin:miter;stroke-opacity:1"
             d="M 103.1875,108.61667 H 99.218749"
             id="path4326"
             inkscape:connector-curvature="0" />
          <path
             style="fill:none;stroke:#ff6600;stroke-width:0.26458332px;stroke-linecap:butt;stroke-linejoin:miter;stroke-opacity:1"
             d="M 99.218749,109.14583 H 103.1875"
             id="path4328"
             inkscape:connector-curvature="0" />
          <path
             style="fill:none;stroke:#ff6600;stroke-width:0.26458332px;stroke-linecap:butt;stroke-linejoin:miter;stroke-opacity:1"
             d="M 103.1875,109.675 H 99.218749"
             id="path4330"
             inkscape:connector-curvature="0" />
        </g>
      </g>
    </g>
    <path
       style="display:inline;fill:#000000;fill-opacity:1;stroke:none;stroke-width:0.28462586px;stroke-linecap:butt;stroke-linejoin:miter;stroke-opacity:1"
       d="m 476.97024,681.27517 c 4.67245,0.378 34.37982,1.21956 35.8988,0.1305 4.56741,-8.39529 7.63972,0.60715 8.53741,0.47519 1.30657,-0.25727 13.15661,0.14301 13.3017,-1.66895 0.14502,-1.81203 2.80646,-27.41221 0.88786,-30.94775 -0.28559,-0.52628 -6.27551,-62.61325 -8.90388,-67.31663 -9.86581,-17.65447 -27.97783,2.36694 -32.73216,3.94199 -2.48847,0.8244 16.81362,63.8128 17.57264,66.79752 -5.92121,16.99168 -29.74438,18.62586 -42.91064,12.80173 -2.9587,7.51589 4.94683,15.27638 8.34827,15.78621 z"
       id="path4302"
       inkscape:connector-curvature="0"
       sodipodi:nodetypes="cccccsscccc" />
    <path
       sodipodi:nodetypes="cccsscc"
       inkscape:connector-curvature="0"
       id="path4306-7"
       d="m 564.29701,682.8925 c 1.30659,-0.25726 14.31065,-0.86842 14.45576,-2.68045 0.145,-1.81204 2.80642,-27.41221 0.88783,-30.94775 -0.28559,-0.52629 -1.70202,-61.07715 -4.33038,-65.78051 -9.8658,-17.65448 -27.9778,2.36691 -32.73211,3.94195 -2.48847,0.82439 9.91692,63.0236 10.67595,66.00829 -14.35707,35.57915 -14.81833,25.24477 11.04295,29.45847 z"
       style="display:inline;fill:#000000;fill-opacity:1;stroke:none;stroke-width:0.28462586px;stroke-linecap:butt;stroke-linejoin:miter;stroke-opacity:1" />
    <g
       transform="matrix(5.1104907,0,0,5.1104907,-1646.4547,-622.81727)"
       style="display:inline"
       id="g4494">
      <rect
         y="189.41974"
         x="389.88571"
         height="2.050745"
         width="43.421535"
         id="rect4397"
         style="fill:url(#linearGradient4558);fill-opacity:1;stroke-width:1.20579219;stroke-linejoin:bevel;paint-order:markers fill stroke" />
      <rect
         style="fill:url(#linearGradient4550);fill-opacity:1;stroke-width:1.22684348;stroke-linejoin:bevel;paint-order:markers fill stroke"
         id="rect4337"
         width="46.745308"
         height="1.9720242"
         x="386.56195"
         y="188.11266" />
      <path
         inkscape:connector-curvature="0"
         id="path4395"
         d="m 419.7975,194.43854 c 0,0 -0.1243,1.22394 0.41577,1.35681 0.53997,0.13287 -0.3312,-0.20753 -0.41577,-1.35681 z"
         style="display:inline;fill:#aa4400;fill-opacity:1;stroke:#b3b3b3;stroke-width:0.33389506px;stroke-linecap:butt;stroke-linejoin:miter;stroke-opacity:1" />
      <circle
         r="1.4983472"
         cy="195.11578"
         cx="420.24545"
         id="path4393"
         style="display:inline;fill:none;stroke:#b3b3b3;stroke-width:0.71301055;stroke-linejoin:bevel;stroke-miterlimit:4;stroke-dasharray:none;stroke-opacity:1;paint-order:markers fill stroke" />
      <path
         style="display:inline;fill:url(#linearGradient4540);fill-opacity:1;stroke:none;stroke-width:0.33389506px;stroke-linecap:butt;stroke-linejoin:miter;stroke-opacity:1"
         d="m 416.98429,190.0847 v 3.33899 l 6.67785,3.33886 h 6.36444 l 1.71338,2.20877 h 8.61699 v -2.20877 -6.67785 h -12.06381 z"
         id="path4339"
         inkscape:connector-curvature="0" />
      <g
         aria-label="Department of Cyber Security SN: 00177 MN:6 If found, please return. "
         style="font-style:normal;font-weight:normal;font-size:0.44066963px;line-height:1.25;font-family:sans-serif;letter-spacing:0px;word-spacing:0px;fill:#803300;fill-opacity:1;stroke:none;stroke-width:0.01101674"
         id="text4433"
         transform="matrix(1.2619655,0,0,1.2619655,-86.332173,-3.7364498)">
        <path
           inkscape:connector-curvature="0"
           d="m 413.60863,158.96533 c 0,-0.12691 -0.007,-0.16172 -0.0948,-0.16216 h -0.0374 v 0.32389 h 0.0374 c 0.0881,-4.4e-4 0.0948,-0.0352 0.0948,-0.16173 z m -0.0846,-0.11457 c 0.0335,0 0.0357,0.008 0.0353,0.11413 4.4e-4,0.1062 -0.002,0.11458 -0.0353,0.11458 z"
           style="font-style:normal;font-variant:normal;font-weight:normal;font-stretch:normal;font-family:'League Gothic';-inkscape-font-specification:'League Gothic';fill:#803300;stroke-width:0.01101674"
           id="path4344" />
        <path
           inkscape:connector-curvature="0"
           d="m 413.71002,159.04069 v 0.0264 c 0,0 8.9e-4,0.0242 -0.0159,0.0242 -0.0163,0 -0.0163,-0.0242 -0.0163,-0.0242 v -0.0524 h 0.0736 v -0.0701 c 0,0 4.4e-4,-0.0621 -0.0573,-0.0621 -0.0573,0 -0.0577,0.0635 -0.0577,0.0635 v 0.12119 c 0,0 0,0.0635 0.0573,0.0635 0.0577,0 0.0577,-0.0621 0.0577,-0.0621 v -0.0278 z m -0.0322,-0.0948 c 0,0 0,-0.0247 0.0163,-0.0247 0.0168,0 0.0159,0.0247 0.0159,0.0247 v 0.0339 h -0.0322 z"
           style="font-style:normal;font-variant:normal;font-weight:normal;font-stretch:normal;font-family:'League Gothic';-inkscape-font-specification:'League Gothic';fill:#803300;stroke-width:0.01101674"
           id="path4346" />
        <path
           inkscape:connector-curvature="0"
           d="m 413.78111,159.20991 h 0.0445 v -0.0987 c 0,0 0.0189,0.0194 0.0352,0.0194 0.0242,0 0.0344,-0.0273 0.0344,-0.0472 v -0.15379 c 0,-0.0198 -0.0101,-0.0472 -0.0344,-0.0472 -0.0163,0 -0.0352,0.0194 -0.0352,0.0194 v -0.0159 h -0.0445 z m 0.0445,-0.27102 c 0,-0.008 0.007,-0.0145 0.0132,-0.0145 0.007,0 0.0119,0.006 0.0119,0.0145 v 0.13529 c 0,0.008 -0.005,0.0145 -0.0119,0.0145 -0.007,0 -0.0132,-0.007 -0.0132,-0.0145 0,-0.0463 0,-0.0806 0,-0.13529 z"
           style="font-style:normal;font-variant:normal;font-weight:normal;font-stretch:normal;font-family:'League Gothic';-inkscape-font-specification:'League Gothic';fill:#803300;stroke-width:0.01101674"
           id="path4348" />
        <path
           inkscape:connector-curvature="0"
           d="m 413.96314,159.06448 c 0,-0.0229 0.009,-0.0445 0.0308,-0.0538 v 0.0617 c 0,0.008 -0.008,0.0145 -0.0185,0.0145 -0.011,0 -0.0123,-0.0168 -0.0123,-0.0225 z m -0.0436,0.007 c 0,0.0507 0.0238,0.0595 0.0357,0.0595 0.0181,0 0.0313,-0.0146 0.0357,-0.0229 h 0.003 c 0,0.003 0,0.015 0.004,0.0194 0,0 10e-4,0 0.0436,0 -0.002,-0.0106 -0.003,-0.0203 -0.003,-0.0419 0,-0.0163 0,-0.0573 0,-0.0727 v -0.0754 c 0,-0.0313 -0.0251,-0.0546 -0.0542,-0.0546 -0.0339,0 -0.0599,0.0291 -0.0599,0.0643 0,0.002 0,0.0101 0,0.0101 h 0.0445 c 4.4e-4,-0.0137 -0.002,-0.0357 0.0128,-0.0357 0.0123,0 0.0123,0.0132 0.0123,0.022 0,0.004 0,0.0159 0,0.0185 0,0.002 0,0.005 0,0.008 -0.004,0.0145 -0.0745,0.0198 -0.0745,0.10135 z"
           style="font-style:normal;font-variant:normal;font-weight:normal;font-stretch:normal;font-family:'League Gothic';-inkscape-font-specification:'League Gothic';fill:#803300;stroke-width:0.01101674"
           id="path4350" />
        <path
           inkscape:connector-curvature="0"
           d="m 414.16104,158.88249 c -0.0326,0 -0.0432,0.0242 -0.0445,0.0304 v -0.0269 h -0.0445 v 0.24105 h 0.0445 c 0,-0.0502 0,-0.0308 0,-0.16745 0,-0.007 0.002,-0.015 0.01,-0.022 0.0141,-0.0123 0.0348,-0.006 0.0348,-0.006 z"
           style="font-style:normal;font-variant:normal;font-weight:normal;font-stretch:normal;font-family:'League Gothic';-inkscape-font-specification:'League Gothic';fill:#803300;stroke-width:0.01101674"
           id="path4352" />
        <path
           inkscape:connector-curvature="0"
           d="m 414.18972,158.82652 v 0.0595 h -0.0225 v 0.0401 h 0.0225 v 0.12339 c 0,0.0282 0,0.0811 0.0511,0.0811 0.0141,0 0.0238,-0.003 0.0238,-0.003 v -0.0436 c 0,0 -0.009,0.002 -0.0163,0.002 -0.0141,0 -0.0141,-0.0247 -0.0141,-0.0397 v -0.11987 h 0.0304 v -0.0401 h -0.0304 v -0.0595 z"
           style="font-style:normal;font-variant:normal;font-weight:normal;font-stretch:normal;font-family:'League Gothic';-inkscape-font-specification:'League Gothic';fill:#803300;stroke-width:0.01101674"
           id="path4354" />
        <path
           inkscape:connector-curvature="0"
           d="m 414.41981,158.92567 c 0.004,0 0.0119,0.001 0.0119,0.0106 v 0.19081 h 0.0419 v -0.19742 c 0,-0.0198 -0.01,-0.0472 -0.0335,-0.0472 -0.0154,0 -0.0335,0.0216 -0.0405,0.0269 -0.004,-0.0141 -0.0141,-0.0269 -0.03,-0.0269 -0.0154,0 -0.0335,0.0216 -0.037,0.0238 v -0.0203 h -0.0445 v 0.24105 h 0.0445 v -0.18993 c 0,0 0.008,-0.0115 0.0168,-0.0115 0.004,0 0.0119,0.001 0.0119,0.0106 v 0.19081 h 0.0419 v -0.18993 c 0,0 0.008,-0.0115 0.0167,-0.0115 z"
           style="font-style:normal;font-variant:normal;font-weight:normal;font-stretch:normal;font-family:'League Gothic';-inkscape-font-specification:'League Gothic';fill:#803300;stroke-width:0.01101674"
           id="path4356" />
        <path
           inkscape:connector-curvature="0"
           d="m 414.57759,159.04069 v 0.0264 c 0,0 8.8e-4,0.0242 -0.0159,0.0242 -0.0163,0 -0.0163,-0.0242 -0.0163,-0.0242 v -0.0524 h 0.0736 v -0.0701 c 0,0 4.4e-4,-0.0621 -0.0573,-0.0621 -0.0573,0 -0.0577,0.0635 -0.0577,0.0635 v 0.12119 c 0,0 0,0.0635 0.0573,0.0635 0.0577,0 0.0577,-0.0621 0.0577,-0.0621 v -0.0278 z m -0.0322,-0.0948 c 0,0 0,-0.0247 0.0163,-0.0247 0.0167,0 0.0159,0.0247 0.0159,0.0247 v 0.0339 h -0.0322 z"
           style="font-style:normal;font-variant:normal;font-weight:normal;font-stretch:normal;font-family:'League Gothic';-inkscape-font-specification:'League Gothic';fill:#803300;stroke-width:0.01101674"
           id="path4358" />
        <path
           inkscape:connector-curvature="0"
           d="m 414.70773,158.92567 c 0.005,0 0.0106,0.001 0.0106,0.0106 v 0.19081 h 0.0445 v -0.19742 c 0,-0.0198 -0.01,-0.0472 -0.0335,-0.0472 -0.0154,0 -0.0326,0.0216 -0.0361,0.0238 v -0.0203 h -0.0445 v 0.24105 h 0.0445 c 0,-0.0502 0,-0.0533 0,-0.18993 0,0 0.006,-0.0115 0.0145,-0.0115 z"
           style="font-style:normal;font-variant:normal;font-weight:normal;font-stretch:normal;font-family:'League Gothic';-inkscape-font-specification:'League Gothic';fill:#803300;stroke-width:0.01101674"
           id="path4360" />
        <path
           inkscape:connector-curvature="0"
           d="m 414.80425,158.82652 v 0.0595 h -0.0225 v 0.0401 h 0.0225 v 0.12339 c 0,0.0282 0,0.0811 0.0511,0.0811 0.0141,0 0.0238,-0.003 0.0238,-0.003 v -0.0436 c 0,0 -0.009,0.002 -0.0163,0.002 -0.0141,0 -0.0141,-0.0247 -0.0141,-0.0397 v -0.11987 h 0.0304 v -0.0401 h -0.0304 v -0.0595 z"
           style="font-style:normal;font-variant:normal;font-weight:normal;font-stretch:normal;font-family:'League Gothic';-inkscape-font-specification:'League Gothic';fill:#803300;stroke-width:0.01101674"
           id="path4362" />
        <path
           inkscape:connector-curvature="0"
           d="m 415.08074,158.94462 c 0,0 4.4e-4,-0.0621 -0.0573,-0.0621 -0.0573,0 -0.0568,0.0635 -0.0568,0.0635 v 0.12119 c 0,0 -4.4e-4,0.0635 0.0568,0.0635 0.0577,0 0.0573,-0.0621 0.0573,-0.0621 z m -0.0419,0.001 v 0.12119 c 0,0 0.001,0.0242 -0.0154,0.0242 -0.0163,0 -0.015,-0.0242 -0.015,-0.0242 v -0.12119 c 0,0 -0.001,-0.0247 0.015,-0.0247 0.0168,0 0.0154,0.0247 0.0154,0.0247 z"
           style="font-style:normal;font-variant:normal;font-weight:normal;font-stretch:normal;font-family:'League Gothic';-inkscape-font-specification:'League Gothic';fill:#803300;stroke-width:0.01101674"
           id="path4364" />
        <path
           inkscape:connector-curvature="0"
           d="m 415.16291,159.12706 v -0.20095 h 0.0225 v -0.0401 h -0.0225 v -0.003 -0.004 c 0,-0.011 -8.9e-4,-0.0388 0.0141,-0.0388 0.007,0 0.0132,0.002 0.0132,0.002 v -0.0383 c 0,0 -0.007,-0.003 -0.0207,-0.003 -0.0511,0 -0.0511,0.0529 -0.0511,0.078 v 0.003 0.004 h -0.0225 v 0.0401 h 0.0225 v 0.20095 z"
           style="font-style:normal;font-variant:normal;font-weight:normal;font-stretch:normal;font-family:'League Gothic';-inkscape-font-specification:'League Gothic';fill:#803300;stroke-width:0.01101674"
           id="path4367" />
        <path
           inkscape:connector-curvature="0"
           d="m 415.35888,159.01601 v 0.0445 c 0,0 0.002,0.0238 -0.0181,0.0238 -0.0167,0 -0.0167,-0.0238 -0.0167,-0.0238 v -0.19081 c 0,0 0,-0.0238 0.0167,-0.0238 0.0198,0 0.0181,0.0238 0.0181,0.0238 v 0.0445 c 0,0 0.0445,0 0.0445,0 v -0.0445 c 0,0 4.4e-4,-0.0701 -0.0635,-0.0701 -0.0639,0 -0.0635,0.0701 -0.0635,0.0701 v 0.19081 c 0,0 -4.4e-4,0.0701 0.0635,0.0701 0.0639,0 0.0635,-0.0701 0.0635,-0.0701 v -0.0445 z"
           style="font-style:normal;font-variant:normal;font-weight:normal;font-stretch:normal;font-family:'League Gothic';-inkscape-font-specification:'League Gothic';fill:#803300;stroke-width:0.01101674"
           id="path4369" />
        <path
           inkscape:connector-curvature="0"
           d="m 415.42132,159.21255 c 0,0 0.015,8.8e-4 0.0198,8.8e-4 0.0353,0 0.0573,-0.0348 0.0617,-0.0683 l 0.0427,-0.25912 h -0.0436 l -0.0176,0.14807 -8.8e-4,0.0123 h -0.002 l -8.9e-4,-0.0123 -0.0176,-0.14807 h -0.0436 l 0.041,0.2481 c 0,0.0176 -0.0101,0.0379 -0.0286,0.0397 -0.007,0 -0.0106,-8.8e-4 -0.0106,-8.8e-4 z"
           style="font-style:normal;font-variant:normal;font-weight:normal;font-stretch:normal;font-family:'League Gothic';-inkscape-font-specification:'League Gothic';fill:#803300;stroke-width:0.01101674"
           id="path4371" />
        <path
           inkscape:connector-curvature="0"
           d="m 415.56875,159.12706 h 0.0445 v -0.0159 c 0,0 0.0189,0.0194 0.0352,0.0194 0.0242,0 0.0344,-0.0273 0.0344,-0.0472 v -0.15379 c 0,-0.0198 -0.0101,-0.0472 -0.0344,-0.0472 -0.0163,0 -0.0352,0.0194 -0.0352,0.0194 v -0.0987 h -0.0445 z m 0.0445,-0.0529 c 0,-0.0546 0,-0.089 0,-0.13529 0,-0.007 0.007,-0.0145 0.0132,-0.0145 0.007,0 0.0119,0.006 0.0119,0.0145 v 0.13529 c 0,0.008 -0.005,0.0145 -0.0119,0.0145 -0.006,0 -0.0132,-0.006 -0.0132,-0.0145 z"
           style="font-style:normal;font-variant:normal;font-weight:normal;font-stretch:normal;font-family:'League Gothic';-inkscape-font-specification:'League Gothic';fill:#803300;stroke-width:0.01101674"
           id="path4373" />
        <path
           inkscape:connector-curvature="0"
           d="m 415.78685,159.04069 v 0.0264 c 0,0 8.8e-4,0.0242 -0.0159,0.0242 -0.0163,0 -0.0163,-0.0242 -0.0163,-0.0242 v -0.0524 h 0.0736 v -0.0701 c 0,0 4.5e-4,-0.0621 -0.0573,-0.0621 -0.0573,0 -0.0577,0.0635 -0.0577,0.0635 v 0.12119 c 0,0 0,0.0635 0.0573,0.0635 0.0577,0 0.0577,-0.0621 0.0577,-0.0621 v -0.0278 z m -0.0322,-0.0948 c 0,0 0,-0.0247 0.0163,-0.0247 0.0167,0 0.0159,0.0247 0.0159,0.0247 v 0.0339 h -0.0322 z"
           style="font-style:normal;font-variant:normal;font-weight:normal;font-stretch:normal;font-family:'League Gothic';-inkscape-font-specification:'League Gothic';fill:#803300;stroke-width:0.01101674"
           id="path4375" />
        <path
           inkscape:connector-curvature="0"
           d="m 415.94695,158.88249 c -0.0326,0 -0.0432,0.0242 -0.0445,0.0304 v -0.0269 h -0.0445 v 0.24105 h 0.0445 c 0,-0.0502 0,-0.0308 0,-0.16745 0,-0.007 0.002,-0.015 0.01,-0.022 0.0141,-0.0123 0.0348,-0.006 0.0348,-0.006 z"
           style="font-style:normal;font-variant:normal;font-weight:normal;font-stretch:normal;font-family:'League Gothic';-inkscape-font-specification:'League Gothic';fill:#803300;stroke-width:0.01101674"
           id="path4377" />
        <path
           inkscape:connector-curvature="0"
           d="m 416.03129,158.87544 c 0,0.0348 0.0212,0.0679 0.0436,0.10091 0.0181,0.0273 0.0383,0.0533 0.0383,0.0749 0,0.0203 -0.005,0.0357 -0.0194,0.0357 -0.0198,0 -0.0225,-0.0282 -0.0225,-0.0551 l -0.0467,0.004 c 0,0.048 0.008,0.0943 0.0692,0.0943 0.052,0 0.0661,-0.0383 0.0661,-0.0815 0,-0.0348 -0.0225,-0.067 -0.0445,-0.10003 -0.0185,-0.0269 -0.0375,-0.0516 -0.0375,-0.0736 0,-0.0185 0.004,-0.0317 0.0163,-0.0322 0.0159,0 0.019,0.0251 0.019,0.0467 l 0.0467,-0.004 c 0,-0.0361 -0.009,-0.0873 -0.0665,-0.0859 -0.045,8.8e-4 -0.0621,0.0405 -0.0621,0.0758 z"
           style="font-style:normal;font-variant:normal;font-weight:normal;font-stretch:normal;font-family:'League Gothic';-inkscape-font-specification:'League Gothic';fill:#803300;stroke-width:0.01101674"
           id="path4379" />
        <path
           inkscape:connector-curvature="0"
           d="m 416.25592,159.04069 v 0.0264 c 0,0 8.9e-4,0.0242 -0.0159,0.0242 -0.0163,0 -0.0163,-0.0242 -0.0163,-0.0242 v -0.0524 h 0.0736 v -0.0701 c 0,0 4.4e-4,-0.0621 -0.0573,-0.0621 -0.0573,0 -0.0577,0.0635 -0.0577,0.0635 v 0.12119 c 0,0 0,0.0635 0.0573,0.0635 0.0577,0 0.0577,-0.0621 0.0577,-0.0621 v -0.0278 z m -0.0322,-0.0948 c 0,0 0,-0.0247 0.0163,-0.0247 0.0167,0 0.0159,0.0247 0.0159,0.0247 v 0.0339 h -0.0322 z"
           style="font-style:normal;font-variant:normal;font-weight:normal;font-stretch:normal;font-family:'League Gothic';-inkscape-font-specification:'League Gothic';fill:#803300;stroke-width:0.01101674"
           id="path4381" />
        <path
           inkscape:connector-curvature="0"
           d="m 416.36885,158.94154 c 0,-0.009 4.4e-4,-0.0194 0.0123,-0.0194 0.0101,0 0.0128,0.005 0.0128,0.0194 v 0.0291 h 0.0445 v -0.0189 c 0,-0.0538 -0.0198,-0.0692 -0.0573,-0.0692 -0.0322,0 -0.0568,0.0176 -0.0568,0.0714 v 0.10532 c 0,0.0538 0.0247,0.0714 0.0568,0.0714 0.0375,0 0.0573,-0.0154 0.0573,-0.0692 v -0.0234 h -0.0445 v 0.0335 c 0,0.0145 -0.003,0.0194 -0.0128,0.0194 -0.0119,0 -0.0123,-0.0106 -0.0123,-0.0194 z"
           style="font-style:normal;font-variant:normal;font-weight:normal;font-stretch:normal;font-family:'League Gothic';-inkscape-font-specification:'League Gothic';fill:#803300;stroke-width:0.01101674"
           id="path4383" />
        <path
           inkscape:connector-curvature="0"
           d="m 416.52064,159.0874 c -0.005,0 -0.0106,-0.001 -0.0106,-0.0106 v -0.19081 h -0.0445 v 0.19742 c 0,0.0198 0.01,0.0472 0.0335,0.0472 0.0154,0 0.0326,-0.0216 0.0361,-0.0238 v 0.0203 h 0.0445 v -0.24105 h -0.0445 c 0,0.0502 0,0.0533 0,0.18993 0,0 -0.006,0.0115 -0.0145,0.0115 z"
           style="font-style:normal;font-variant:normal;font-weight:normal;font-stretch:normal;font-family:'League Gothic';-inkscape-font-specification:'League Gothic';fill:#803300;stroke-width:0.01101674"
           id="path4385" />
        <path
           inkscape:connector-curvature="0"
           d="m 416.70435,158.88249 c -0.0326,0 -0.0432,0.0242 -0.0445,0.0304 v -0.0269 h -0.0445 v 0.24105 h 0.0445 c 0,-0.0502 0,-0.0308 0,-0.16745 0,-0.007 0.002,-0.015 0.01,-0.022 0.0141,-0.0123 0.0348,-0.006 0.0348,-0.006 z"
           style="font-style:normal;font-variant:normal;font-weight:normal;font-stretch:normal;font-family:'League Gothic';-inkscape-font-specification:'League Gothic';fill:#803300;stroke-width:0.01101674"
           id="path4387" />
        <path
           inkscape:connector-curvature="0"
           d="m 416.76829,159.12706 v -0.24105 h -0.0445 v 0.24105 z m -0.0445,-0.27938 h 0.0445 v -0.0445 h -0.0445 z"
           style="font-style:normal;font-variant:normal;font-weight:normal;font-stretch:normal;font-family:'League Gothic';-inkscape-font-specification:'League Gothic';fill:#803300;stroke-width:0.01101674"
           id="path4389" />
        <path
           inkscape:connector-curvature="0"
           d="m 416.81136,158.82652 v 0.0595 h -0.0225 v 0.0401 h 0.0225 v 0.12339 c 0,0.0282 0,0.0811 0.0511,0.0811 0.0141,0 0.0238,-0.003 0.0238,-0.003 v -0.0436 c 0,0 -0.009,0.002 -0.0163,0.002 -0.0141,0 -0.0141,-0.0247 -0.0141,-0.0397 v -0.11987 h 0.0304 v -0.0401 h -0.0304 v -0.0595 z"
           style="font-style:normal;font-variant:normal;font-weight:normal;font-stretch:normal;font-family:'League Gothic';-inkscape-font-specification:'League Gothic';fill:#803300;stroke-width:0.01101674"
           id="path4391" />
        <path
           inkscape:connector-curvature="0"
           d="m 416.89912,159.21255 c 0,0 0.015,8.8e-4 0.0198,8.8e-4 0.0353,0 0.0573,-0.0348 0.0617,-0.0683 l 0.0427,-0.25912 h -0.0436 l -0.0176,0.14807 -8.8e-4,0.0123 h -0.002 l -8.8e-4,-0.0123 -0.0176,-0.14807 h -0.0436 l 0.041,0.2481 c 0,0.0176 -0.0101,0.0379 -0.0286,0.0397 -0.007,0 -0.0106,-8.8e-4 -0.0106,-8.8e-4 z"
           style="font-style:normal;font-variant:normal;font-weight:normal;font-stretch:normal;font-family:'League Gothic';-inkscape-font-specification:'League Gothic';fill:#803300;stroke-width:0.01101674"
           id="path4394" />
        <path
           inkscape:connector-curvature="0"
           d="m 413.47334,159.43719 c 0,0.0348 0.0212,0.0679 0.0436,0.10091 0.0181,0.0273 0.0383,0.0533 0.0383,0.0749 0,0.0203 -0.005,0.0357 -0.0194,0.0357 -0.0198,0 -0.0225,-0.0282 -0.0225,-0.0551 l -0.0467,0.004 c 0,0.048 0.008,0.0943 0.0692,0.0943 0.052,0 0.0661,-0.0383 0.0661,-0.0815 0,-0.0348 -0.0225,-0.067 -0.0445,-0.10003 -0.0185,-0.0269 -0.0375,-0.0516 -0.0375,-0.0736 0,-0.0185 0.004,-0.0317 0.0163,-0.0322 0.0159,0 0.019,0.0251 0.019,0.0467 l 0.0467,-0.004 c 0,-0.0361 -0.009,-0.0872 -0.0665,-0.0859 -0.045,8.8e-4 -0.0621,0.0405 -0.0621,0.0758 z"
           style="font-style:normal;font-variant:normal;font-weight:normal;font-stretch:normal;font-family:'League Gothic';-inkscape-font-specification:'League Gothic';fill:#803300;stroke-width:0.01101674"
           id="path4396" />
        <path
           inkscape:connector-curvature="0"
           d="m 413.72441,159.68881 c 0,0 0.0423,0 0.0423,0 0,0 0,-0.32389 0,-0.32389 h -0.0436 v 0.16877 0.015 h -0.003 l -0.004,-0.015 c 0,0 -0.0463,-0.16877 -0.0463,-0.16877 0,0 -0.0423,0 -0.0423,0 0,0 0,0.32389 0,0.32389 h 0.0436 v -0.16878 -0.015 h 0.003 l 0.004,0.015 z"
           style="font-style:normal;font-variant:normal;font-weight:normal;font-stretch:normal;font-family:'League Gothic';-inkscape-font-specification:'League Gothic';fill:#803300;stroke-width:0.01101674"
           id="path4398" />
        <path
           inkscape:connector-curvature="0"
           d="m 413.8,159.68881 h 0.0463 v -0.0489 H 413.8 Z m 0,-0.19213 h 0.0463 v -0.0489 H 413.8 Z"
           style="font-style:normal;font-variant:normal;font-weight:normal;font-stretch:normal;font-family:'League Gothic';-inkscape-font-specification:'League Gothic';fill:#803300;stroke-width:0.01101674"
           id="path4400" />
        <path
           inkscape:connector-curvature="0"
           d="m 414.07191,159.62227 v -0.19081 c 0,0 4.4e-4,-0.0701 -0.0635,-0.0701 -0.0639,0 -0.0634,0.0701 -0.0634,0.0701 v 0.19081 c 0,0 -4.4e-4,0.0701 0.0634,0.0701 0.0639,0 0.0635,-0.0701 0.0635,-0.0701 z m -0.0476,-0.19081 v 0.19081 c 0,0 8.8e-4,0.0238 -0.0159,0.0238 -0.0167,0 -0.0159,-0.0238 -0.0159,-0.0238 v -0.19081 c 0,0 -8.8e-4,-0.0238 0.0159,-0.0238 0.0168,0 0.0159,0.0238 0.0159,0.0238 z"
           style="font-style:normal;font-variant:normal;font-weight:normal;font-stretch:normal;font-family:'League Gothic';-inkscape-font-specification:'League Gothic';fill:#803300;stroke-width:0.01101674"
           id="path4402" />
        <path
           inkscape:connector-curvature="0"
           d="m 414.22769,159.62227 v -0.19081 c 0,0 4.4e-4,-0.0701 -0.0634,-0.0701 -0.0639,0 -0.0635,0.0701 -0.0635,0.0701 v 0.19081 c 0,0 -4.4e-4,0.0701 0.0635,0.0701 0.0639,0 0.0634,-0.0701 0.0634,-0.0701 z m -0.0476,-0.19081 v 0.19081 c 0,0 8.8e-4,0.0238 -0.0159,0.0238 -0.0168,0 -0.0159,-0.0238 -0.0159,-0.0238 v -0.19081 c 0,0 -8.8e-4,-0.0238 0.0159,-0.0238 0.0167,0 0.0159,0.0238 0.0159,0.0238 z"
           style="font-style:normal;font-variant:normal;font-weight:normal;font-stretch:normal;font-family:'League Gothic';-inkscape-font-specification:'League Gothic';fill:#803300;stroke-width:0.01101674"
           id="path4404" />
        <path
           inkscape:connector-curvature="0"
           d="m 414.27904,159.43498 v 0.25383 h 0.0476 v -0.32389 h -0.0286 c 0,0 -0.011,0.0317 -0.0507,0.0397 v 0.0304 z"
           style="font-style:normal;font-variant:normal;font-weight:normal;font-stretch:normal;font-family:'League Gothic';-inkscape-font-specification:'League Gothic';fill:#803300;stroke-width:0.01101674"
           id="path4406" />
        <path
           inkscape:connector-curvature="0"
           d="m 414.36912,159.68881 h 0.0494 l 0.0476,-0.2763 v -0.0476 h -0.11986 v 0.0471 h 0.0714 z"
           style="font-style:normal;font-variant:normal;font-weight:normal;font-stretch:normal;font-family:'League Gothic';-inkscape-font-specification:'League Gothic';fill:#803300;stroke-width:0.01101674"
           id="path4408" />
        <path
           inkscape:connector-curvature="0"
           d="m 414.49564,159.68881 h 0.0494 l 0.0476,-0.2763 v -0.0476 h -0.11986 v 0.0471 h 0.0714 z"
           style="font-style:normal;font-variant:normal;font-weight:normal;font-stretch:normal;font-family:'League Gothic';-inkscape-font-specification:'League Gothic';fill:#803300;stroke-width:0.01101674"
           id="path4410" />
        <path
           inkscape:connector-curvature="0"
           d="m 414.78226,159.68881 0.0304,-0.20359 0.002,-0.0137 h 0.003 v 0.0137 0.20359 h 0.0441 v -0.32389 h -0.0582 l -0.0282,0.14806 -0.002,0.0172 h -8.8e-4 l -0.002,-0.0172 -0.0282,-0.14806 h -0.0582 v 0.32389 h 0.0441 v -0.20359 -0.0137 h 0.003 l 0.002,0.0137 0.0304,0.20359 z"
           style="font-style:normal;font-variant:normal;font-weight:normal;font-stretch:normal;font-family:'League Gothic';-inkscape-font-specification:'League Gothic';fill:#803300;stroke-width:0.01101674"
           id="path4412" />
        <path
           inkscape:connector-curvature="0"
           d="m 414.99306,159.68881 c 0,0 0.0423,0 0.0423,0 0,0 0,-0.32389 0,-0.32389 h -0.0436 v 0.16877 0.015 h -0.003 l -0.004,-0.015 c 0,0 -0.0463,-0.16877 -0.0463,-0.16877 0,0 -0.0423,0 -0.0423,0 0,0 0,0.32389 0,0.32389 h 0.0436 v -0.16878 -0.015 h 0.003 l 0.004,0.015 z"
           style="font-style:normal;font-variant:normal;font-weight:normal;font-stretch:normal;font-family:'League Gothic';-inkscape-font-specification:'League Gothic';fill:#803300;stroke-width:0.01101674"
           id="path4414" />
        <path
           inkscape:connector-curvature="0"
           d="m 415.06865,159.68881 h 0.0463 v -0.0489 h -0.0463 z m 0,-0.19213 h 0.0463 v -0.0489 h -0.0463 z"
           style="font-style:normal;font-variant:normal;font-weight:normal;font-stretch:normal;font-family:'League Gothic';-inkscape-font-specification:'League Gothic';fill:#803300;stroke-width:0.01101674"
           id="path4416" />
        <path
           inkscape:connector-curvature="0"
           d="m 415.26948,159.55617 c 0,-0.0181 -0.004,-0.0683 -0.0529,-0.0683 -0.008,0 -0.0159,0.003 -0.0238,0.008 v -0.0577 c 0,-0.0247 0.003,-0.0353 0.0145,-0.0353 0.0137,0 0.0145,0.0119 0.0145,0.0555 h 0.0476 v -0.0203 c 0,-0.0229 -0.003,-0.0767 -0.0621,-0.0767 -0.0595,0 -0.0621,0.0538 -0.0621,0.0767 v 0.1842 c 0,0.0154 0.004,0.0701 0.0621,0.0701 0.0582,0 0.0621,-0.0547 0.0621,-0.0701 z m -0.0767,0.0802 v -0.0983 c 4.4e-4,-0.004 0.004,-0.0132 0.0145,-0.0132 0.0101,0 0.0145,0.0106 0.0145,0.0145 v 0.0969 c 0,0.004 -0.004,0.0145 -0.0145,0.0145 -0.011,0 -0.0145,-0.0106 -0.0145,-0.0145 z"
           style="font-style:normal;font-variant:normal;font-weight:normal;font-stretch:normal;font-family:'League Gothic';-inkscape-font-specification:'League Gothic';fill:#803300;stroke-width:0.01101674"
           id="path4418" />
        <path
           inkscape:connector-curvature="0"
           d="m 413.47643,160.25056 h 0.0476 v -0.32389 h -0.0476 z"
           style="font-style:normal;font-variant:normal;font-weight:normal;font-stretch:normal;font-family:'League Gothic';-inkscape-font-specification:'League Gothic';fill:#803300;stroke-width:0.01101674"
           id="path4420" />
        <path
           inkscape:connector-curvature="0"
           d="m 413.61282,160.25056 v -0.20094 h 0.0225 v -0.0401 h -0.0225 v -0.003 -0.004 c 0,-0.011 -8.9e-4,-0.0388 0.0141,-0.0388 0.007,0 0.0132,0.002 0.0132,0.002 v -0.0383 c 0,0 -0.007,-0.003 -0.0207,-0.003 -0.0511,0 -0.0511,0.0529 -0.0511,0.078 v 0.003 0.004 h -0.0225 v 0.0401 h 0.0225 v 0.20094 z"
           style="font-style:normal;font-variant:normal;font-weight:normal;font-stretch:normal;font-family:'League Gothic';-inkscape-font-specification:'League Gothic';fill:#803300;stroke-width:0.01101674"
           id="path4422" />
        <path
           inkscape:connector-curvature="0"
           d="m 413.78323,160.25056 v -0.20094 h 0.0225 v -0.0401 h -0.0225 v -0.003 -0.004 c 0,-0.011 -8.8e-4,-0.0388 0.0141,-0.0388 0.007,0 0.0132,0.002 0.0132,0.002 v -0.0383 c 0,0 -0.007,-0.003 -0.0207,-0.003 -0.0511,0 -0.0511,0.0529 -0.0511,0.078 v 0.003 0.004 h -0.0225 v 0.0401 h 0.0225 v 0.20094 z"
           style="font-style:normal;font-variant:normal;font-weight:normal;font-stretch:normal;font-family:'League Gothic';-inkscape-font-specification:'League Gothic';fill:#803300;stroke-width:0.01101674"
           id="path4424" />
        <path
           inkscape:connector-curvature="0"
           d="m 413.94206,160.06812 c 0,0 4.4e-4,-0.0621 -0.0573,-0.0621 -0.0573,0 -0.0568,0.0635 -0.0568,0.0635 v 0.12118 c 0,0 -4.4e-4,0.0635 0.0568,0.0635 0.0577,0 0.0573,-0.0621 0.0573,-0.0621 z m -0.0419,0.001 v 0.12118 c 0,0 10e-4,0.0242 -0.0154,0.0242 -0.0163,0 -0.015,-0.0242 -0.015,-0.0242 v -0.12118 c 0,0 -10e-4,-0.0247 0.015,-0.0247 0.0168,0 0.0154,0.0247 0.0154,0.0247 z"
           style="font-style:normal;font-variant:normal;font-weight:normal;font-stretch:normal;font-family:'League Gothic';-inkscape-font-specification:'League Gothic';fill:#803300;stroke-width:0.01101674"
           id="path4426" />
        <path
           inkscape:connector-curvature="0"
           d="m 414.02724,160.2109 c -0.005,0 -0.0106,-0.001 -0.0106,-0.0106 v -0.19081 h -0.0445 v 0.19742 c 0,0.0198 0.01,0.0472 0.0335,0.0472 0.0154,0 0.0326,-0.0216 0.0361,-0.0238 v 0.0203 h 0.0445 v -0.24105 h -0.0445 c 0,0.0502 0,0.0533 0,0.18993 0,0 -0.006,0.0115 -0.0145,0.0115 z"
           style="font-style:normal;font-variant:normal;font-weight:normal;font-stretch:normal;font-family:'League Gothic';-inkscape-font-specification:'League Gothic';fill:#803300;stroke-width:0.01101674"
           id="path4428" />
        <path
           inkscape:connector-curvature="0"
           d="m 414.18099,160.04917 c 0.005,0 0.0106,0.001 0.0106,0.0106 v 0.19081 h 0.0445 v -0.19742 c 0,-0.0198 -0.01,-0.0472 -0.0335,-0.0472 -0.0154,0 -0.0326,0.0216 -0.0361,0.0238 v -0.0203 h -0.0445 v 0.24105 h 0.0445 c 0,-0.0502 0,-0.0533 0,-0.18993 0,0 0.006,-0.0115 0.0145,-0.0115 z"
           style="font-style:normal;font-variant:normal;font-weight:normal;font-stretch:normal;font-family:'League Gothic';-inkscape-font-specification:'League Gothic';fill:#803300;stroke-width:0.01101674"
           id="path4430" />
        <path
           inkscape:connector-curvature="0"
           d="m 414.38321,159.92667 h -0.0445 v 0.0987 c 0,0 -0.019,-0.0194 -0.0353,-0.0194 -0.0242,0 -0.0344,0.0273 -0.0344,0.0472 v 0.15379 c 0,0.0198 0.0101,0.0472 0.0344,0.0472 0.0163,0 0.0353,-0.0194 0.0353,-0.0194 v 0.0159 h 0.0445 z m -0.0445,0.27101 c 0,0.008 -0.007,0.0145 -0.0132,0.0145 -0.007,0 -0.0119,-0.006 -0.0119,-0.0145 v -0.13529 c 0,-0.008 0.005,-0.0145 0.0119,-0.0145 0.007,0 0.0132,0.007 0.0132,0.0145 0,0.0463 0,0.0807 0,0.13529 z"
           style="font-style:normal;font-variant:normal;font-weight:normal;font-stretch:normal;font-family:'League Gothic';-inkscape-font-specification:'League Gothic';fill:#803300;stroke-width:0.01101674"
           id="path4432" />
        <path
           inkscape:connector-curvature="0"
           d="m 414.45721,160.20165 h -0.0463 v 0.0489 h 0.0154 l -0.0154,0.0573 h 0.022 l 0.0242,-0.0573 z"
           style="font-style:normal;font-variant:normal;font-weight:normal;font-stretch:normal;font-family:'League Gothic';-inkscape-font-specification:'League Gothic';fill:#803300;stroke-width:0.01101674"
           id="path4434" />
        <path
           inkscape:connector-curvature="0"
           d="m 414.55314,160.33341 h 0.0445 v -0.0987 c 0,0 0.019,0.0194 0.0353,0.0194 0.0242,0 0.0344,-0.0273 0.0344,-0.0472 v -0.15379 c 0,-0.0198 -0.0101,-0.0472 -0.0344,-0.0472 -0.0163,0 -0.0353,0.0194 -0.0353,0.0194 v -0.0159 h -0.0445 z m 0.0445,-0.27102 c 0,-0.008 0.007,-0.0145 0.0132,-0.0145 0.007,0 0.0119,0.006 0.0119,0.0145 v 0.13529 c 0,0.008 -0.005,0.0145 -0.0119,0.0145 -0.007,0 -0.0132,-0.007 -0.0132,-0.0145 0,-0.0463 0,-0.0806 0,-0.13529 z"
           style="font-style:normal;font-variant:normal;font-weight:normal;font-stretch:normal;font-family:'League Gothic';-inkscape-font-specification:'League Gothic';fill:#803300;stroke-width:0.01101674"
           id="path4436" />
        <path
           inkscape:connector-curvature="0"
           d="m 414.74569,160.25056 c 0,-0.23884 0,-0.32389 0,-0.32389 0,0 -0.0392,0 -0.0445,0 0,0.003 0,0.17627 0,0.32389 z"
           style="font-style:normal;font-variant:normal;font-weight:normal;font-stretch:normal;font-family:'League Gothic';-inkscape-font-specification:'League Gothic';fill:#803300;stroke-width:0.01101674"
           id="path4438" />
        <path
           inkscape:connector-curvature="0"
           d="m 414.85043,160.16419 v 0.0264 c 0,0 8.8e-4,0.0242 -0.0159,0.0242 -0.0163,0 -0.0163,-0.0242 -0.0163,-0.0242 v -0.0524 h 0.0736 v -0.0701 c 0,0 4.4e-4,-0.0621 -0.0573,-0.0621 -0.0573,0 -0.0577,0.0635 -0.0577,0.0635 v 0.12118 c 0,0 0,0.0635 0.0573,0.0635 0.0577,0 0.0577,-0.0621 0.0577,-0.0621 v -0.0278 z m -0.0322,-0.0947 c 0,0 0,-0.0247 0.0163,-0.0247 0.0168,0 0.0159,0.0247 0.0159,0.0247 v 0.0339 h -0.0322 z"
           style="font-style:normal;font-variant:normal;font-weight:normal;font-stretch:normal;font-family:'League Gothic';-inkscape-font-specification:'League Gothic';fill:#803300;stroke-width:0.01101674"
           id="path4440" />
        <path
           inkscape:connector-curvature="0"
           d="m 414.95637,160.18799 c 0,-0.0229 0.009,-0.0445 0.0308,-0.0538 v 0.0617 c 0,0.008 -0.008,0.0145 -0.0185,0.0145 -0.011,0 -0.0123,-0.0168 -0.0123,-0.0225 z m -0.0436,0.007 c 0,0.0507 0.0238,0.0595 0.0357,0.0595 0.0181,0 0.0313,-0.0145 0.0357,-0.0229 h 0.003 c 0,0.003 0,0.015 0.004,0.0194 0,0 10e-4,0 0.0436,0 -0.002,-0.0106 -0.003,-0.0203 -0.003,-0.0419 0,-0.0163 0,-0.0573 0,-0.0727 v -0.0754 c 0,-0.0313 -0.0251,-0.0546 -0.0542,-0.0546 -0.0339,0 -0.0599,0.0291 -0.0599,0.0643 0,0.002 0,0.0101 0,0.0101 h 0.0445 c 4.4e-4,-0.0137 -0.002,-0.0357 0.0128,-0.0357 0.0123,0 0.0123,0.0132 0.0123,0.022 0,0.004 0,0.0159 0,0.0185 0,0.002 0,0.005 0,0.008 -0.004,0.0145 -0.0745,0.0198 -0.0745,0.10136 z"
           style="font-style:normal;font-variant:normal;font-weight:normal;font-stretch:normal;font-family:'League Gothic';-inkscape-font-specification:'League Gothic';fill:#803300;stroke-width:0.01101674"
           id="path4442" />
        <path
           inkscape:connector-curvature="0"
           d="m 415.06305,160.07121 c 0,0.0348 0.0216,0.0542 0.0423,0.074 0.0137,0.0132 0.0278,0.0282 0.0278,0.0428 0,0.0141 -0.003,0.0291 -0.0154,0.0291 -0.0185,0 -0.0207,-0.0238 -0.0207,-0.0366 h -0.0414 c 0,0.026 0.008,0.0736 0.0621,0.0736 0.0423,0 0.0568,-0.0361 0.0568,-0.0661 0,-0.0313 -0.0216,-0.0551 -0.041,-0.0736 -0.0137,-0.0132 -0.0291,-0.0278 -0.0291,-0.0432 0,-0.0123 0.002,-0.0278 0.0137,-0.0282 0.0141,0 0.0145,0.0167 0.0145,0.0282 h 0.0414 c 0,-0.0273 -0.005,-0.0661 -0.0568,-0.0652 -0.0428,8.8e-4 -0.0542,0.0366 -0.0542,0.0652 z"
           style="font-style:normal;font-variant:normal;font-weight:normal;font-stretch:normal;font-family:'League Gothic';-inkscape-font-specification:'League Gothic';fill:#803300;stroke-width:0.01101674"
           id="path4444" />
        <path
           inkscape:connector-curvature="0"
           d="m 415.2713,160.16419 v 0.0264 c 0,0 8.8e-4,0.0242 -0.0159,0.0242 -0.0163,0 -0.0163,-0.0242 -0.0163,-0.0242 v -0.0524 h 0.0736 v -0.0701 c 0,0 4.4e-4,-0.0621 -0.0573,-0.0621 -0.0573,0 -0.0577,0.0635 -0.0577,0.0635 v 0.12118 c 0,0 0,0.0635 0.0573,0.0635 0.0577,0 0.0577,-0.0621 0.0577,-0.0621 v -0.0278 z m -0.0322,-0.0947 c 0,0 0,-0.0247 0.0163,-0.0247 0.0167,0 0.0159,0.0247 0.0159,0.0247 v 0.0339 h -0.0322 z"
           style="font-style:normal;font-variant:normal;font-weight:normal;font-stretch:normal;font-family:'League Gothic';-inkscape-font-specification:'League Gothic';fill:#803300;stroke-width:0.01101674"
           id="path4446" />
        <path
           inkscape:connector-curvature="0"
           d="m 415.50026,160.00599 c -0.0326,0 -0.0432,0.0242 -0.0445,0.0304 v -0.0269 h -0.0445 v 0.24105 h 0.0445 c 0,-0.0502 0,-0.0309 0,-0.16745 0,-0.007 0.002,-0.015 0.01,-0.022 0.0141,-0.0123 0.0348,-0.006 0.0348,-0.006 z"
           style="font-style:normal;font-variant:normal;font-weight:normal;font-stretch:normal;font-family:'League Gothic';-inkscape-font-specification:'League Gothic';fill:#803300;stroke-width:0.01101674"
           id="path4448" />
        <path
           inkscape:connector-curvature="0"
           d="m 415.58803,160.16419 v 0.0264 c 0,0 8.9e-4,0.0242 -0.0159,0.0242 -0.0163,0 -0.0163,-0.0242 -0.0163,-0.0242 v -0.0524 h 0.0736 v -0.0701 c 0,0 4.4e-4,-0.0621 -0.0573,-0.0621 -0.0573,0 -0.0577,0.0635 -0.0577,0.0635 v 0.12118 c 0,0 0,0.0635 0.0573,0.0635 0.0577,0 0.0577,-0.0621 0.0577,-0.0621 v -0.0278 z m -0.0322,-0.0947 c 0,0 0,-0.0247 0.0163,-0.0247 0.0167,0 0.0159,0.0247 0.0159,0.0247 v 0.0339 h -0.0322 z"
           style="font-style:normal;font-variant:normal;font-weight:normal;font-stretch:normal;font-family:'League Gothic';-inkscape-font-specification:'League Gothic';fill:#803300;stroke-width:0.01101674"
           id="path4450" />
        <path
           inkscape:connector-curvature="0"
           d="m 415.66665,159.95002 v 0.0595 h -0.0225 v 0.0401 h 0.0225 v 0.12338 c 0,0.0282 0,0.0811 0.0511,0.0811 0.0141,0 0.0238,-0.003 0.0238,-0.003 v -0.0436 c 0,0 -0.009,0.002 -0.0163,0.002 -0.0141,0 -0.0141,-0.0247 -0.0141,-0.0397 v -0.11986 h 0.0304 v -0.0401 h -0.0304 v -0.0595 z"
           style="font-style:normal;font-variant:normal;font-weight:normal;font-stretch:normal;font-family:'League Gothic';-inkscape-font-specification:'League Gothic';fill:#803300;stroke-width:0.01101674"
           id="path4452" />
        <path
           inkscape:connector-curvature="0"
           d="m 415.81919,160.2109 c -0.005,0 -0.0106,-0.001 -0.0106,-0.0106 v -0.19081 h -0.0445 v 0.19742 c 0,0.0198 0.01,0.0472 0.0335,0.0472 0.0154,0 0.0326,-0.0216 0.0361,-0.0238 v 0.0203 h 0.0445 v -0.24105 h -0.0445 c 0,0.0502 0,0.0533 0,0.18993 0,0 -0.006,0.0115 -0.0145,0.0115 z"
           style="font-style:normal;font-variant:normal;font-weight:normal;font-stretch:normal;font-family:'League Gothic';-inkscape-font-specification:'League Gothic';fill:#803300;stroke-width:0.01101674"
           id="path4454" />
        <path
           inkscape:connector-curvature="0"
           d="m 416.0029,160.00599 c -0.0326,0 -0.0432,0.0242 -0.0445,0.0304 v -0.0269 h -0.0445 v 0.24105 h 0.0445 c 0,-0.0502 0,-0.0309 0,-0.16745 0,-0.007 0.002,-0.015 0.01,-0.022 0.0141,-0.0123 0.0348,-0.006 0.0348,-0.006 z"
           style="font-style:normal;font-variant:normal;font-weight:normal;font-stretch:normal;font-family:'League Gothic';-inkscape-font-specification:'League Gothic';fill:#803300;stroke-width:0.01101674"
           id="path4456" />
        <path
           inkscape:connector-curvature="0"
           d="m 416.08138,160.04917 c 0.005,0 0.0106,0.001 0.0106,0.0106 v 0.19081 h 0.0445 v -0.19742 c 0,-0.0198 -0.01,-0.0472 -0.0335,-0.0472 -0.0154,0 -0.0326,0.0216 -0.0361,0.0238 v -0.0203 h -0.0445 v 0.24105 h 0.0445 c 0,-0.0502 0,-0.0533 0,-0.18993 0,0 0.006,-0.0115 0.0145,-0.0115 z"
           style="font-style:normal;font-variant:normal;font-weight:normal;font-stretch:normal;font-family:'League Gothic';-inkscape-font-specification:'League Gothic';fill:#803300;stroke-width:0.01101674"
           id="path4458" />
        <path
           inkscape:connector-curvature="0"
           d="m 416.16506,160.25056 h 0.0463 v -0.0489 h -0.0463 z"
           style="font-style:normal;font-variant:normal;font-weight:normal;font-stretch:normal;font-family:'League Gothic';-inkscape-font-specification:'League Gothic';fill:#803300;stroke-width:0.01101674"
           id="path4460" />
      </g>
    </g>
    <path
       inkscape:connector-curvature="0"
       id="path4317-7"
       d="m 526.68945,387.54223 c 0,0 -12.52026,-0.71021 -16.00796,-0.12026 -3.48773,0.58999 -3.7952,5.51306 -8.14038,4.00924 -16.93009,0.81879 -3.90737,-28.62801 1.32463,-24.55732 1.86026,1.4414 4.68435,3.40362 7.61655,4.60358 5.06985,2.07484 14.56387,1.86196 14.56387,1.86196 z"
       style="display:inline;fill:#ffb380;fill-opacity:1;stroke:#ffb380;stroke-width:0.40350482px;stroke-linecap:butt;stroke-linejoin:miter;stroke-opacity:1"
       sodipodi:nodetypes="ccccccc" />
    <path
       style="display:inline;fill:#ff6600;fill-opacity:1;stroke:#ff6600;stroke-width:1.55137813px;stroke-linecap:butt;stroke-linejoin:miter;stroke-opacity:1"
       d="m 591.37049,333.57371 c 0,0 27.86529,23.05292 1.27399,28.73915 -32.11262,6.86689 -58.52254,8.54867 -65.26353,7.9549 -12.323,-1.08539 -12.43899,21.51723 -4.06791,18.67974 5.03649,-1.70716 46.12762,1.73381 86.22878,-2.73063 26.55203,-2.95602 21.39977,-68.61351 -6.81873,-74.25345 18.12903,-24.8557 -11.3526,21.61029 -11.3526,21.61029 z"
       id="path4640-5"
       inkscape:connector-curvature="0"
       sodipodi:nodetypes="csccscc" />
  </g>
  <g
     inkscape:groupmode="layer"
     id="layer2"
     inkscape:label="Decor"
     style="opacity:0.18600003"
     transform="translate(-268.59049,-152.47747)" />
</svg>
