<?xml version="1.0" encoding="UTF-8" standalone="no"?>
<!-- Created with Inkscape (http://www.inkscape.org/) -->

<svg
   xmlns:dc="http://purl.org/dc/elements/1.1/"
   xmlns:cc="http://creativecommons.org/ns#"
   xmlns:rdf="http://www.w3.org/1999/02/22-rdf-syntax-ns#"
   xmlns:svg="http://www.w3.org/2000/svg"
   xmlns="http://www.w3.org/2000/svg"
   xmlns:xlink="http://www.w3.org/1999/xlink"
   xmlns:sodipodi="http://sodipodi.sourceforge.net/DTD/sodipodi-0.dtd"
   xmlns:inkscape="http://www.inkscape.org/namespaces/inkscape"
   width="1920"
   height="1080"
   viewBox="0 0 508.00001 285.75001"
   version="1.1"
   id="svg8"
   inkscape:version="0.92.2 (5c3e80d, 2017-08-06)"
   sodipodi:docname="ist tape.svg"
   inkscape:export-filename="/home/mbrickn/Projects/aXVI/game/images/characters/ist/ist tape.png"
   inkscape:export-xdpi="96"
   inkscape:export-ydpi="96">
  <title
     id="title77">IST</title>
  <defs
     id="defs2">
    <linearGradient
       inkscape:collect="always"
       id="linearGradient4406">
      <stop
         style="stop-color:#c9916c;stop-opacity:1;"
         offset="0"
         id="stop4402" />
      <stop
         style="stop-color:#ffc9a5;stop-opacity:1"
         offset="1"
         id="stop4404" />
    </linearGradient>
    <linearGradient
       inkscape:collect="always"
       id="linearGradient4397">
      <stop
         style="stop-color:#ff6600;stop-opacity:1;"
         offset="0"
         id="stop4393" />
      <stop
         style="stop-color:#bd4f06;stop-opacity:1"
         offset="1"
         id="stop4395" />
    </linearGradient>
    <linearGradient
       inkscape:collect="always"
       id="linearGradient4380">
      <stop
         style="stop-color:#b14700;stop-opacity:1;"
         offset="0"
         id="stop4376" />
      <stop
         style="stop-color:#ff6600;stop-opacity:1"
         offset="1"
         id="stop4378" />
    </linearGradient>
    <linearGradient
       inkscape:collect="always"
       id="linearGradient4372">
      <stop
         style="stop-color:#ff6600;stop-opacity:1"
         offset="0"
         id="stop4368" />
      <stop
         style="stop-color:#ffc9a5;stop-opacity:1"
         offset="1"
         id="stop4370" />
    </linearGradient>
    <linearGradient
       inkscape:collect="always"
       id="linearGradient4363">
      <stop
         style="stop-color:#d8d8d8;stop-opacity:1"
         offset="0"
         id="stop4359" />
      <stop
         style="stop-color:#ffffff;stop-opacity:1"
         offset="1"
         id="stop4361" />
    </linearGradient>
    <linearGradient
       inkscape:collect="always"
       id="linearGradient4352">
      <stop
         style="stop-color:#d40000;stop-opacity:1;"
         offset="0"
         id="stop4348" />
      <stop
         style="stop-color:#ff0000;stop-opacity:1"
         offset="1"
         id="stop4350" />
    </linearGradient>
    <linearGradient
       inkscape:collect="always"
       xlink:href="#linearGradient4352"
       id="linearGradient4356"
       gradientUnits="userSpaceOnUse"
       x1="1622.8359"
       y1="716.88281"
       x2="1658.4941"
       y2="451.19141"
       gradientTransform="matrix(0.32411879,0,0,0.32411879,-6.0290286,144.46587)" />
    <linearGradient
       inkscape:collect="always"
       xlink:href="#linearGradient4363"
       id="linearGradient4365"
       x1="1605.2881"
       y1="396.97223"
       x2="1465.897"
       y2="500.0256"
       gradientUnits="userSpaceOnUse"
       gradientTransform="translate(-5.6200167e-6,1.6855193e-6)" />
    <linearGradient
       inkscape:collect="always"
       xlink:href="#linearGradient4372"
       id="linearGradient4374"
       x1="481.88235"
       y1="143.2767"
       x2="486.53824"
       y2="140.31511"
       gradientUnits="userSpaceOnUse" />
    <linearGradient
       inkscape:collect="always"
       xlink:href="#linearGradient4380"
       id="linearGradient4382"
       x1="377.84384"
       y1="234.52652"
       x2="376.94202"
       y2="176.65327"
       gradientUnits="userSpaceOnUse"
       gradientTransform="matrix(1.2250159,0,0,1.2250159,-6.0290286,144.46587)" />
    <linearGradient
       inkscape:collect="always"
       xlink:href="#linearGradient4397"
       id="linearGradient4399"
       x1="1638.1886"
       y1="938.86383"
       x2="1630.6469"
       y2="1301.9352"
       gradientUnits="userSpaceOnUse"
       gradientTransform="matrix(0.32411879,0,0,0.32411879,-6.0290286,144.46587)" />
    <linearGradient
       inkscape:collect="always"
       xlink:href="#linearGradient4406"
       id="linearGradient4408"
       x1="1645.1132"
       y1="421.97531"
       x2="1660.4336"
       y2="460.47266"
       gradientUnits="userSpaceOnUse"
       gradientTransform="matrix(0.32411879,0,0,0.32411879,-6.0290286,155.71586)" />
  </defs>
  <sodipodi:namedview
     id="base"
     pagecolor="#ffffff"
     bordercolor="#666666"
     borderopacity="1.0"
     inkscape:pageopacity="0.0"
     inkscape:pageshadow="2"
     inkscape:zoom="0.69999999"
     inkscape:cx="601.27249"
     inkscape:cy="157.07572"
     inkscape:document-units="mm"
     inkscape:current-layer="layer3"
     showgrid="false"
     inkscape:window-width="1920"
     inkscape:window-height="1016"
     inkscape:window-x="0"
     inkscape:window-y="27"
     inkscape:window-maximized="1"
     units="px"
     inkscape:pagecheckerboard="true"
     inkscape:document-rotation="0"
     fit-margin-top="0"
     fit-margin-left="0"
     fit-margin-right="0"
     fit-margin-bottom="0">
    <inkscape:grid
       type="xygrid"
       id="grid4485"
       originx="-264.34998"
       originy="141.2275" />
  </sodipodi:namedview>
  <metadata
     id="metadata5">
    <rdf:RDF>
      <cc:Work
         rdf:about="">
        <dc:format>image/svg+xml</dc:format>
        <dc:type
           rdf:resource="http://purl.org/dc/dcmitype/StillImage" />
        <dc:title>IST</dc:title>
        <cc:license
           rdf:resource="http://creativecommons.org/licenses/by/4.0/" />
        <dc:creator>
          <cc:Agent>
            <dc:title>Maxwell Paul Brickner</dc:title>
          </cc:Agent>
        </dc:creator>
      </cc:Work>
      <cc:License
         rdf:about="http://creativecommons.org/licenses/by/4.0/">
        <cc:permits
           rdf:resource="http://creativecommons.org/ns#Reproduction" />
        <cc:permits
           rdf:resource="http://creativecommons.org/ns#Distribution" />
        <cc:requires
           rdf:resource="http://creativecommons.org/ns#Notice" />
        <cc:requires
           rdf:resource="http://creativecommons.org/ns#Attribution" />
        <cc:permits
           rdf:resource="http://creativecommons.org/ns#DerivativeWorks" />
      </cc:License>
    </rdf:RDF>
  </metadata>
  <g
     inkscape:label="Head"
     inkscape:groupmode="layer"
     id="layer1"
     transform="translate(-264.34998,-152.47747)"
     style="display:inline">
    <path
       style="fill:url(#linearGradient4408);fill-opacity:1;stroke:none;stroke-width:1.35621619px;stroke-linecap:butt;stroke-linejoin:miter;stroke-opacity:1"
       d="m 533.35082,277.03313 c -4.9337,-0.20955 -19.07617,7.34902 -19.07617,7.34902 0,0 3.66195,9.52023 4.77064,17.27641 -0.28405,0.59199 -0.97197,0.39908 -1.12178,1.49778 0.20644,-0.0423 0.66013,-0.13517 1.27875,-0.22473 0.18024,1.68392 0.21836,3.25077 0.0386,4.56868 5.38899,-1.24063 9.60114,-2.03858 12.90777,-2.5366 3.56932,0.66226 7.45811,1.22391 8.07449,2.72398 1.58596,3.85976 2.53411,-0.46224 2.92464,-3.11837 0.82044,0.24394 0.92426,0.53366 0.92426,0.53366 0,0 -0.45001,-1.25822 -0.73624,-2.05677 0.0201,-0.22235 0.0236,-0.29551 -0.006,-0.0171 -1.74157,-4.85913 -7.60023,-21.3141 -8.334,-24.98311 -0.13378,-0.66894 -0.73163,-0.97406 -1.64528,-1.01286 z"
       id="path4612"
       inkscape:connector-curvature="0" />
    <path
       style="fill:#ffc9a5;fill-opacity:1;stroke:#ffc9a5;stroke-width:0.48508137px;stroke-linecap:butt;stroke-linejoin:miter;stroke-opacity:1"
       d="m 560.21125,255.23785 c 0,0 -10.77285,21.20133 -25.32529,30.55645 -14.55244,9.35514 -40.02605,-9.16373 -40.02605,-9.16373 0,0 4.07194,9.96196 -5.28318,-30.2305 -1.79215,-7.69959 -4.81221,-32.07591 -1.8156,-37.4646 12.64586,-22.74064 63.28445,-8.38183 69.72703,-4.46029 7.96916,4.85078 25.24476,20.61832 2.72309,50.76267 z"
       id="path4538"
       inkscape:connector-curvature="0"
       sodipodi:nodetypes="cscsssc" />
    <g
       transform="matrix(1.8333784,0,0,1.8333784,-373.17614,-7.1496359)"
       style="display:inline"
       id="g4373">
      <path
         inkscape:connector-curvature="0"
         id="path4509"
         d="m 471.14996,127.80102 c 0,0 0.39376,-5.47329 5.51906,-5.60381 5.12531,-0.13042 5.90916,5.53348 5.90916,5.53348 0,0 -0.46248,-10.07747 -5.77958,-9.61478 -5.31711,0.46266 -5.64864,9.68511 -5.64864,9.68511 z"
         style="fill:#e6e6e6;fill-opacity:1;stroke:#e6e6e6;stroke-width:0.83854395px;stroke-linecap:butt;stroke-linejoin:miter;stroke-opacity:1"
         sodipodi:nodetypes="ccccc" />
      <path
         sodipodi:nodetypes="cc"
         inkscape:connector-curvature="0"
         id="path4511"
         d="m 470.01383,127.0974 0.90304,0.33589"
         style="fill:#c47d4d;fill-opacity:1;stroke:#e6e6e6;stroke-width:0.83854395px;stroke-linecap:butt;stroke-linejoin:miter;stroke-opacity:1" />
    </g>
    <g
       style="display:inline"
       id="g4379"
       transform="matrix(1.8333784,0,0,1.8333784,-381.17368,-17.491932)">
      <path
         sodipodi:nodetypes="ccccc"
         style="fill:#e6e6e6;fill-opacity:1;stroke:#e6e6e6;stroke-width:1.0116601px;stroke-linecap:butt;stroke-linejoin:miter;stroke-opacity:1"
         d="m 495.70087,134.95521 c 0,0 0.93528,-6.057 8.38559,-6.37005 7.45032,-0.31292 7.86344,6.36338 7.86344,6.36338 0,0 0.1809,-10.57007 -7.55986,-9.91712 -7.74075,0.65291 -8.68917,9.92379 -8.68917,9.92379 z"
         id="path4505"
         inkscape:connector-curvature="0" />
      <path
         style="fill:#d5f6ff;fill-opacity:1;stroke:#e6e6e6;stroke-width:1.0116601px;stroke-linecap:butt;stroke-linejoin:miter;stroke-opacity:1"
         d="m 512.21717,134.31379 1.29993,0.30473"
         id="path4507"
         inkscape:connector-curvature="0"
         sodipodi:nodetypes="cc" />
    </g>
  </g>
  <g
     inkscape:groupmode="layer"
     id="layer3"
     inkscape:label="Body"
     style="display:inline"
     transform="translate(-264.34998,-141.22749)">
    <rect
       style="fill:#e6e6e6;fill-opacity:1;stroke:none;stroke-width:1.89634466;stroke-linejoin:bevel;stroke-miterlimit:4;stroke-dasharray:none;stroke-opacity:1;paint-order:markers fill stroke"
       id="rect4382"
       width="5.9817533"
       height="299.05536"
       x="467.30017"
       y="246.39987"
       transform="rotate(14.325837)" />
    <path
       style="fill:#ffb380;fill-opacity:1;stroke:#ffb380;stroke-width:0.37873256px;stroke-linecap:butt;stroke-linejoin:miter;stroke-opacity:1"
       d="m 393.58443,415.13526 c -3.11516,1.14846 -8.54347,5.60474 -12.81227,4.97023 -2.15884,-0.32087 -4.19604,-0.75194 -5.68249,-1.09968 -4.41144,-3.63309 -2.45455,-24.36566 3.90296,-21.92733 3.9284,1.50524 9.03485,2.48285 12.56851,3.20954 11.16894,1.26696 11.31509,1.00306 12.70278,-9.10864 l 14.3559,6.36303 c -7.78262,11.14858 -8.7671,10.65373 -25.03539,17.59285 z"
       id="path4565"
       inkscape:connector-curvature="0"
       sodipodi:nodetypes="cccccccc" />
    <path
       sodipodi:nodetypes="cccccc"
       inkscape:connector-curvature="0"
       id="path4642"
       d="m 469.68551,318.73415 c 0,0 -55.79121,63.02474 -65.78134,70.19646 -9.99021,7.17174 -2.88403,34.24552 1.58461,26.67977 4.46877,-7.56594 66.54001,-38.86387 88.53707,-100.90109 -2.45344,-30.48514 -24.34034,4.02486 -24.34034,4.02486 z"
       style="fill:url(#linearGradient4382);fill-opacity:1;stroke:none;stroke-width:1.54224861px;stroke-linecap:butt;stroke-linejoin:miter;stroke-opacity:1" />
    <circle
       r="17.88876"
       cy="306.056"
       cx="483.47818"
       id="circle4316"
       style="display:inline;fill:#ff6600;fill-opacity:1;stroke:none;stroke-width:51.46821594;stroke-linejoin:bevel;stroke-opacity:1;paint-order:markers fill stroke" />
    <path
       style="fill:url(#linearGradient4399);fill-opacity:1;stroke:none;stroke-width:1.35621619px;stroke-linecap:butt;stroke-linejoin:miter;stroke-opacity:1"
       d="m 573.13575,304.21085 c -9.93885,0.19419 -26.76593,33.31317 -53.01367,37.73831 -26.6242,4.4886 -41.54685,-29.67903 -50.43655,-23.21501 -0.60481,5.85212 -0.42397,11.99297 -0.77863,17.44354 0.0383,39.21311 8.80825,62.03936 13.44397,82.75158 -0.68302,9.29415 -2.83744,18.59498 -5.92341,26.83728 0,0 0.67669,1.55625 8.39416,2.32264 -0.19208,2.03397 -0.46901,4.10598 -0.84763,6.23042 0,0 -6.70553,74.7783 -5.21945,85.71105 1.6449,12.10198 17.51385,97.5511 25.09956,99.84505 7.58567,2.29395 16.21657,2.25644 15.89955,-4.01982 -0.31712,-6.27633 -6.89277,-85.91186 -9.52478,-97.6237 -1.62325,-7.22289 3.5116,-32.18201 7.68641,-50.25361 0.4666,-2.01964 2.46022,-4.15006 5.40747,-6.28673 0.7223,16.61475 1.93124,44.2308 2.34987,51.96216 0.59459,10.97979 11.92889,105.09765 19.41104,107.02376 7.48213,1.92604 16.07304,1.45368 15.94194,-4.84593 -0.1313,-6.29973 0.52044,-81.66694 -1.75477,-93.31963 -1.7565,-8.99585 5.22019,-54.08531 8.70563,-73.24579 0.1246,-7.04923 0.41075,-13.96828 0.83749,-20.77081 12.59403,-1.45282 13.40348,-3.72611 13.40348,-3.72611 -5.19744,-11.11246 -8.75436,-24.41802 -8.98101,-37.15781 4.36942,-28.32368 11.13993,-54.54989 19.24138,-79.31351 1.03329,-4.59077 -12.11176,-16.28785 -14.75881,-20.86134 -1.32724,-2.29335 -2.85075,-3.25985 -4.58324,-3.22599 z"
       id="path4617"
       inkscape:connector-curvature="0" />
    <path
       sodipodi:nodetypes="csccccc"
       inkscape:connector-curvature="0"
       id="path4623"
       d="m 470.3433,319.24019 c 0.78102,21.88281 32.83236,31.4514 49.50482,35.24733 16.67245,3.79597 42.62716,-31.41882 60.45352,-55.76945 -13.86085,-2.2533 -29.73674,-4.32485 -36.71302,-6.4646 -17.92661,9.13377 -20.53499,15.58959 -25.13708,-1.14848 -15.2538,0.95808 -31.54797,2.76402 -45.50396,5.29751 z"
       style="fill:#ff6600;fill-opacity:1;stroke:#ff6600;stroke-width:1.35621619px;stroke-linecap:butt;stroke-linejoin:miter;stroke-opacity:1" />
    <g
       id="g4352" />
    <g
       id="g4367"
       transform="matrix(1.8333784,0,0,1.8333784,-369.77713,-28.997257)">
      <path
         inkscape:connector-curvature="0"
         id="path4489"
         d="m 485.10892,134.64823 c 0,0 -0.83466,4.96272 -1.89371,7.32295 2.69357,1.64472 4.72384,-0.70642 4.72384,-0.70642"
         style="fill:url(#linearGradient4374);fill-opacity:1;stroke:none;stroke-width:0.60180032;stroke-linecap:butt;stroke-linejoin:miter;stroke-miterlimit:4;stroke-dasharray:none;stroke-opacity:1"
         sodipodi:nodetypes="ccc" />
      <ellipse
         style="fill:#000000;fill-opacity:1;stroke:none;stroke-width:9.52195072;stroke-linejoin:bevel;stroke-opacity:1;paint-order:markers fill stroke"
         id="path4351"
         cx="475.04489"
         cy="135.68735"
         rx="5.8077593"
         ry="8.3106861" />
      <ellipse
         cy="135.92023"
         cx="497.51645"
         id="circle4353"
         style="fill:#000000;fill-opacity:1;stroke:none;stroke-width:11.49811649;stroke-linejoin:bevel;stroke-opacity:1;paint-order:markers fill stroke"
         rx="7.5345449"
         ry="9.3409281" />
      <path
         style="fill:none;stroke:#000000;stroke-width:1.03434443;stroke-linecap:butt;stroke-linejoin:miter;stroke-miterlimit:4;stroke-dasharray:none;stroke-opacity:1"
         d="m 479.93151,134.54807 c 0,0 4.30039,-4.95804 10.66746,1.9126"
         id="path4366"
         inkscape:connector-curvature="0" />
      <path
         inkscape:connector-curvature="0"
         id="path4368"
         d="m 502.8588,136.36318 c 0,0 4.30039,-4.95804 10.66746,1.9126"
         style="fill:none;stroke:#000000;stroke-width:1.03434443;stroke-linecap:butt;stroke-linejoin:miter;stroke-miterlimit:4;stroke-dasharray:none;stroke-opacity:1" />
      <path
         style="fill:none;stroke:#000000;stroke-width:1.03434443;stroke-linecap:butt;stroke-linejoin:miter;stroke-miterlimit:4;stroke-dasharray:none;stroke-opacity:1"
         d="m 471.91954,136.80945 c 0,0 -2.63981,-4.37625 -5.34986,-4.41026"
         id="path4370"
         inkscape:connector-curvature="0"
         sodipodi:nodetypes="cc" />
      <path
         style="fill:url(#linearGradient4365);fill-opacity:1;stroke:none;stroke-width:1.22372854px;stroke-linecap:butt;stroke-linejoin:miter;stroke-opacity:1"
         d="m 1690.5293,15.607422 c -4.7982,0.164749 -11.9187,3.0722 -21.9766,9.609375 0,0 -7.4667,9.338505 -16.623,22.158203 -1.9156,-2.472543 -3.3008,-4.234375 -3.3008,-4.234375 -36.6413,-23.815308 -34.2907,0.546657 -22.6621,30.207031 -37.5162,0.327112 -96.1621,17.64539 -118.3828,27.404294 -5.3245,2.33843 -10.0545,4.96961 -14.1856,7.81446 -19.8024,-11.188775 -40.6757,-20.171879 -40.6757,-20.171879 -42.1068,-3.658365 -22.7757,18.710499 2.4101,38.507809 -28.5393,-2.21715 -50.9873,1.83694 -21.0137,26.52539 0,0 22.0538,8.53454 44.4922,14.42969 -5.0614,6.99385 -8.3281,11.85742 -8.3281,11.85742 -13.7035,49.34098 26.6646,17.0404 53.0098,-9.08203 46.2299,-8.21664 112.0195,-40.44531 112.0195,-40.44531 0,0 66.5539,36.77621 116.3555,51.80078 1.6918,4.007 4.7356,8.60282 8.5566,13.42774 -10.8669,34.5909 -7.1904,113.88776 -49.2578,134.61523 -34.1099,9.50212 -98.1337,21.84826 -169.2715,7.80469 0,0 1.9772,24.44901 -47.1562,140.88086 128.4625,-27.27353 191.2524,-60.10418 221.1211,-88.69336 16.9588,-11.64733 44.611,-58.54878 65.248,-109.03321 2.913,7.25329 5.0176,12.04297 5.0176,12.04297 35.5334,39.33428 28.224,-17.10757 19.8769,-53.38281 2.2492,1.86406 3.8946,3.20703 3.8946,3.20703 46.8501,17.41999 20.5688,-23.11278 -2.8379,-51.53711 0.062,-0.49624 0.109,-0.97856 0.166,-1.4707 3.3108,-9.14999 6.2167,-18.47153 7.7519,-26.48242 0.5978,-2.13868 0.9235,-4.31542 0.9668,-6.51172 0.2591,-2.73176 0.2815,-5.20852 0,-7.33594 -0.6575,-1.37793 -1.36,-2.6354 -2.0976,-3.79297 -4.3484,-11.02022 -15.3922,-21.62092 -32.5899,-29.17383 -18.0641,-7.93343 -63.5222,-23.766443 -102.6113,-31.83398 -0.1071,-0.167141 -0.213,-0.335043 -0.3203,-0.501953 15.2155,-29.98488 30.6976,-69.237626 12.4004,-68.609375 z"
         transform="matrix(0.17678771,0,0,0.17678771,198.40317,94.613923)"
         id="path4372"
         inkscape:connector-curvature="0" />
    </g>
    <path
       style="fill:#000000;fill-opacity:1;stroke:#000000;stroke-width:0.39663336px;stroke-linecap:butt;stroke-linejoin:miter;stroke-opacity:1"
       d="m 518.91368,290.6102 c 9.24339,2.83415 15.40646,1.59139 24.87281,0.72139 -8.41005,20.64319 -8.34171,109.2846 -18.84785,157.43767 -3.51152,-0.3267 -8.21196,0.65038 -8.44643,-0.49857 -12.03833,-68.35173 6.00728,-123.47582 2.42147,-157.66049 z"
       id="path4304"
       inkscape:connector-curvature="0"
       sodipodi:nodetypes="ccccc" />
    <circle
       style="display:inline;fill:#ff6600;fill-opacity:1;stroke:none;stroke-width:51.46821594;stroke-linejoin:bevel;stroke-opacity:1;paint-order:markers fill stroke"
       id="path4299"
       cx="580.1543"
       cy="311.01282"
       r="17.88876" />
    <path
       style="fill:url(#linearGradient4356);fill-opacity:1;stroke:none;stroke-width:0.44743171px;stroke-linecap:butt;stroke-linejoin:miter;stroke-opacity:1"
       d="m 515.1204,289.92937 -7.41107,7.79024 7.11924,0.96033 13.25405,-6.33172 a 3.1515425,3.1515425 0 0 0 -0.45137,1.61743 3.1515425,3.1515425 0 0 0 0.10003,0.77738 l -5.33341,4.45599 -0.23106,5.46762 3.67674,-2.2568 2.86388,-6.07534 a 3.1515425,3.1515425 0 0 0 1.35663,0.69636 l -12.95464,55.78514 2.85313,24.00504 12.4539,-21.02531 -2.00169,-58.7022 a 3.1515425,3.1515425 0 0 0 0.3678,0.0241 3.1515425,3.1515425 0 0 0 1.77884,-0.55453 l 2.75627,5.84679 3.67673,2.2568 -0.23105,-5.4676 -5.01183,-4.18759 a 3.1515425,3.1515425 0 0 0 0.18297,-1.04579 3.1515425,3.1515425 0 0 0 -0.42731,-1.5769 l 13.16858,6.29118 7.11924,-0.96033 -6.05571,-6.81092 -16.25532,-0.18612 0.0361,-0.0171 z"
       id="path4312"
       inkscape:connector-curvature="0" />
    <path
       inkscape:connector-curvature="0"
       id="path4519"
       d="m 500.10049,262.87201 c 0,0 21.32803,4.97338 28.13526,1.1792"
       style="display:inline;fill:none;fill-opacity:1;stroke:#aeaeae;stroke-width:1.31934202;stroke-linecap:round;stroke-linejoin:miter;stroke-miterlimit:4;stroke-dasharray:none;stroke-opacity:1"
       sodipodi:nodetypes="cc" />
    <path
       sodipodi:nodetypes="cc"
       style="display:inline;fill:none;fill-opacity:1;stroke:#aeaeae;stroke-width:1.31934202;stroke-linecap:round;stroke-linejoin:miter;stroke-miterlimit:4;stroke-dasharray:none;stroke-opacity:1"
       d="m 530.28387,257.58 c 0,0 -6.16123,8.88347 4.54429,11.43555"
       id="path4349"
       inkscape:connector-curvature="0" />
    <circle
       style="fill:#000000;fill-opacity:1;stroke-width:1.89634466;stroke-linejoin:bevel;paint-order:markers fill stroke"
       id="path4306"
       cx="560.98413"
       cy="333.43564"
       r="3.2504735"
       transform="rotate(3.5924424)" />
    <circle
       style="fill:#000000;fill-opacity:1;stroke-width:1.89634466;stroke-linejoin:bevel;paint-order:markers fill stroke"
       id="path4308"
       cx="559.9292"
       cy="358.76389"
       r="3.5863786"
       transform="rotate(3.5924424)" />
    <circle
       style="fill:#000000;fill-opacity:1;stroke-width:1.89634466;stroke-linejoin:bevel;paint-order:markers fill stroke"
       id="path4310"
       cx="560.45667"
       cy="346.09976"
       r="3.3160112"
       transform="rotate(3.5924424)" />
    <g
       transform="matrix(0.26315642,0.03358412,-0.03358412,0.26315642,516.13093,270.86018)"
       id="g4342">
      <g
         transform="matrix(11.239459,0,0,11.239459,-975.15717,-1061.2053)"
         id="g4355">
        <g
           aria-label="BG IST"
           transform="matrix(0.26458333,0,0,0.26458333,-0.08620094,-0.49473256)"
           style="font-style:normal;font-weight:normal;font-size:13.33333397px;line-height:1.25;font-family:sans-serif;letter-spacing:0px;word-spacing:0px;fill:#ffffff;fill-opacity:1;stroke:none"
           id="flowRoot4271">
          <g
             id="g4318">
            <path
               inkscape:connector-curvature="0"
               id="path4305"
               style="font-style:normal;font-variant:normal;font-weight:bold;font-stretch:normal;font-size:17.33333397px;font-family:'League Gothic';-inkscape-font-specification:'League Gothic Bold';text-align:center;text-anchor:middle;fill:#ffffff;fill-opacity:1"
               d="m 379.23565,417.4262 c 2.236,-0.0867 2.89466,-1.73333 2.89466,-3.60534 0,-2.53066 -1.3,-3.12 -1.3,-3.12 0.90134,-0.78 1.16134,-1.456 1.16134,-2.63466 0,-2.53067 -1.17867,-3.38 -3.41467,-3.38 -0.71067,0 -1.64667,0 -1.64667,0 v 12.74 z m 0.95333,-3.81334 c 0,2.09734 -1.04,1.95867 -1.38667,1.95867 v -3.91733 c 0.34667,0 1.38667,-0.13867 1.38667,1.95866 z m 0,-5.37333 c 0,1.75067 -1.04,1.69867 -1.38667,1.69867 v -3.39734 c 0.34667,0 1.38667,-0.052 1.38667,1.69867 z" />
            <path
               inkscape:connector-curvature="0"
               id="path4307"
               style="font-style:normal;font-variant:normal;font-weight:bold;font-stretch:normal;font-size:17.33333397px;font-family:'League Gothic';-inkscape-font-specification:'League Gothic Bold';text-align:center;text-anchor:middle;fill:#ffffff;fill-opacity:1"
               d="m 388.09785,409.2622 v -1.95867 c 0,0 0.0173,-2.756 -2.496,-2.756 -2.51333,0 -2.496,2.756 -2.496,2.756 v 7.50534 c 0,0 -0.17333,2.756 2.20134,2.756 0.58933,0 1.10933,-0.312 1.456,-0.74534 l 0.22533,0.60667 h 1.10933 v -6.344 h -2.61733 v 1.57733 h 0.74533 v 2.30534 c 0,0 0.0347,0.936 -0.624,0.936 -0.65866,0 -0.624,-0.936 -0.624,-0.936 v -7.66134 c 0,0 -0.0347,-0.936 0.624,-0.936 0.65867,0 0.624,0.936 0.624,0.936 v 1.95867 z" />
          </g>
          <path
             inkscape:connector-curvature="0"
             d="m 375.84698,439.09285 h 1.872 v -12.74 h -1.872 z"
             style="font-style:normal;font-variant:normal;font-weight:bold;font-stretch:normal;font-size:17.33333397px;font-family:'League Gothic';-inkscape-font-specification:'League Gothic Bold';text-align:center;text-anchor:middle;fill:#ffffff;fill-opacity:1"
             id="path4309" />
          <path
             inkscape:connector-curvature="0"
             d="m 378.97565,429.19552 c 0,1.36933 0.832,2.66933 1.716,3.96933 0.71066,1.07467 1.508,2.09734 1.508,2.94667 0,0.79733 -0.208,1.404 -0.76267,1.404 -0.78,0 -0.884,-1.10933 -0.884,-2.16667 l -1.83733,0.17334 c 0,1.88933 0.312,3.70933 2.72133,3.70933 2.04533,0 2.6,-1.508 2.6,-3.20667 0,-1.36933 -0.884,-2.63466 -1.75067,-3.93466 -0.728,-1.05734 -1.47333,-2.028 -1.47333,-2.89467 0,-0.728 0.156,-1.248 0.64133,-1.26533 0.624,0 0.74534,0.988 0.74534,1.83733 l 1.83733,-0.17333 c 0,-1.42134 -0.364,-3.432 -2.61733,-3.38 -1.768,0.0347 -2.444,1.59466 -2.444,2.98133 z"
             style="font-style:normal;font-variant:normal;font-weight:bold;font-stretch:normal;font-size:17.33333397px;font-family:'League Gothic';-inkscape-font-specification:'League Gothic Bold';text-align:center;text-anchor:middle;fill:#ffffff;fill-opacity:1"
             id="path4311" />
          <path
             inkscape:connector-curvature="0"
             d="m 386.16465,428.27685 v 10.816 h 1.872 v -10.816 h 1.768 v -1.924 h -5.408 v 1.924 z"
             style="font-style:normal;font-variant:normal;font-weight:bold;font-stretch:normal;font-size:17.33333397px;font-family:'League Gothic';-inkscape-font-specification:'League Gothic Bold';text-align:center;text-anchor:middle;fill:#ffffff;fill-opacity:1"
             id="path4313" />
        </g>
        <g
           id="g4303"
           transform="matrix(1.0780464,-0.6224104,0.6224104,1.0780464,-75.54707,54.686524)">
          <path
             inkscape:connector-curvature="0"
             id="path4285"
             d="M 99.218749,107.02917 H 103.1875"
             style="fill:none;stroke:#ff6600;stroke-width:0.26458332px;stroke-linecap:butt;stroke-linejoin:miter;stroke-opacity:1" />
          <path
             inkscape:connector-curvature="0"
             id="path4287"
             d="M 103.1875,107.55833 H 99.218749"
             style="fill:none;stroke:#ff6600;stroke-width:0.26458332px;stroke-linecap:butt;stroke-linejoin:miter;stroke-opacity:1" />
          <path
             inkscape:connector-curvature="0"
             id="path4289"
             d="M 99.218749,108.0875 H 103.1875"
             style="fill:none;stroke:#ff6600;stroke-width:0.26458332px;stroke-linecap:butt;stroke-linejoin:miter;stroke-opacity:1" />
          <path
             inkscape:connector-curvature="0"
             id="path4291"
             d="M 103.1875,108.61667 H 99.218749"
             style="fill:none;stroke:#ff6600;stroke-width:0.26458332px;stroke-linecap:butt;stroke-linejoin:miter;stroke-opacity:1" />
          <path
             inkscape:connector-curvature="0"
             id="path4293"
             d="M 99.218749,109.14583 H 103.1875"
             style="fill:none;stroke:#ff6600;stroke-width:0.26458332px;stroke-linecap:butt;stroke-linejoin:miter;stroke-opacity:1" />
          <path
             inkscape:connector-curvature="0"
             id="path4295"
             d="M 103.1875,109.675 H 99.218749"
             style="fill:none;stroke:#ff6600;stroke-width:0.26458332px;stroke-linecap:butt;stroke-linejoin:miter;stroke-opacity:1" />
        </g>
        <g
           transform="matrix(1.0780464,-0.6224104,0.6224104,1.0780464,-75.337077,60.268118)"
           id="g4332">
          <path
             style="fill:none;stroke:#ff6600;stroke-width:0.26458332px;stroke-linecap:butt;stroke-linejoin:miter;stroke-opacity:1"
             d="M 99.218749,107.02917 H 103.1875"
             id="path4320"
             inkscape:connector-curvature="0" />
          <path
             style="fill:none;stroke:#ff6600;stroke-width:0.26458332px;stroke-linecap:butt;stroke-linejoin:miter;stroke-opacity:1"
             d="M 103.1875,107.55833 H 99.218749"
             id="path4322"
             inkscape:connector-curvature="0" />
          <path
             style="fill:none;stroke:#ff6600;stroke-width:0.26458332px;stroke-linecap:butt;stroke-linejoin:miter;stroke-opacity:1"
             d="M 99.218749,108.0875 H 103.1875"
             id="path4324"
             inkscape:connector-curvature="0" />
          <path
             style="fill:none;stroke:#ff6600;stroke-width:0.26458332px;stroke-linecap:butt;stroke-linejoin:miter;stroke-opacity:1"
             d="M 103.1875,108.61667 H 99.218749"
             id="path4326"
             inkscape:connector-curvature="0" />
          <path
             style="fill:none;stroke:#ff6600;stroke-width:0.26458332px;stroke-linecap:butt;stroke-linejoin:miter;stroke-opacity:1"
             d="M 99.218749,109.14583 H 103.1875"
             id="path4328"
             inkscape:connector-curvature="0" />
          <path
             style="fill:none;stroke:#ff6600;stroke-width:0.26458332px;stroke-linecap:butt;stroke-linejoin:miter;stroke-opacity:1"
             d="M 103.1875,109.675 H 99.218749"
             id="path4330"
             inkscape:connector-curvature="0" />
        </g>
      </g>
    </g>
    <path
       style="display:inline;fill:#000000;fill-opacity:1;stroke:none;stroke-width:0.27629215px;stroke-linecap:butt;stroke-linejoin:miter;stroke-opacity:1"
       d="m 466.5716,665.95009 c 4.53565,0.36693 33.37322,1.18386 34.84772,0.12668 4.43367,-8.14948 7.41603,0.58936 8.28743,0.46128 1.26831,-0.24974 12.7714,0.13882 12.91224,-1.62009 0.14076,-1.75897 2.72428,-26.60958 0.86186,-30.04161 -0.27724,-0.51086 -6.09177,-60.77997 -8.64318,-65.34564 -9.57695,-17.13755 -27.15865,2.29764 -31.77379,3.82657 -2.4156,0.80026 16.32133,61.9444 17.05813,64.84172 -5.74784,16.49417 -28.87348,18.08051 -41.65424,12.42691 -2.87208,7.29582 4.80199,14.82909 8.10383,15.324 z"
       id="path4302"
       inkscape:connector-curvature="0"
       sodipodi:nodetypes="cccccsscccc" />
    <path
       sodipodi:nodetypes="cccsscc"
       inkscape:connector-curvature="0"
       id="path4306-7"
       d="m 551.34148,667.52007 c 1.26835,-0.24973 13.89165,-0.843 14.03252,-2.60197 0.14075,-1.75898 2.72425,-26.60959 0.86183,-30.04161 -0.27722,-0.51089 -1.65217,-59.28885 -4.20359,-63.85449 -9.57692,-17.13757 -27.15863,2.2976 -31.77373,3.82653 -2.4156,0.80024 9.62656,61.17829 10.36336,64.0756 -13.9367,34.53741 -14.38445,24.50562 10.71961,28.59594 z"
       style="display:inline;fill:#000000;fill-opacity:1;stroke:none;stroke-width:0.27629215px;stroke-linecap:butt;stroke-linejoin:miter;stroke-opacity:1" />
    <rect
       style="display:inline;fill:#c83737;fill-opacity:1;stroke:none;stroke-width:2.55994701;stroke-linejoin:bevel;stroke-miterlimit:4;stroke-dasharray:none;stroke-opacity:1;paint-order:markers fill stroke"
       id="rect4384"
       width="9.1140337"
       height="10.359567"
       x="668.82086"
       y="-155.48018"
       transform="matrix(0.50235103,0.86466377,-0.23798681,0.97126839,0,0)" />
    <path
       style="display:inline;fill:#ffb380;fill-opacity:1;stroke:none;stroke-width:0.32411873px;stroke-linecap:butt;stroke-linejoin:miter;stroke-opacity:1"
       d="m 385.07052,402.86694 c 0,0 -0.83856,-5.52602 0.69611,-9.59605 1.53467,-4.07002 2.3825,-3.42341 3.25881,-3.13424 0.87633,0.28916 -0.85192,5.37109 0.52906,7.93182 1.38097,2.56072 4.12067,4.97911 4.51835,4.99223 0.3977,0.0131 -3.101,6.72858 -9.00233,-0.19376 z"
       id="path4355"
       inkscape:connector-curvature="0" />
    <path
       inkscape:connector-curvature="0"
       id="path4317"
       d="m 532.41645,355.79574 c 0,0 -8.94414,-0.50734 -11.43568,-0.0858 -2.49153,0.42149 -2.7112,3.93839 -5.81526,2.86411 -12.09445,0.58493 -2.79135,-20.45113 0.94627,-17.54314 1.32892,1.02969 3.34638,2.43146 5.44106,3.28868 3.62178,1.48222 10.40407,1.33015 10.40407,1.33015 z"
       style="display:inline;fill:#ffb380;fill-opacity:1;stroke:#ffb380;stroke-width:0.28825372px;stroke-linecap:butt;stroke-linejoin:miter;stroke-opacity:1"
       sodipodi:nodetypes="ccccccc" />
    <g
       style="display:inline"
       id="g4341"
       transform="matrix(1.2086278,0.19970649,-0.19970649,1.2086278,72.522787,1.4153355)">
      <rect
         y="207.47275"
         x="384.03564"
         height="28.803308"
         width="17.801422"
         id="rect4335"
         style="fill:#000000;stroke:#000000;stroke-width:1.26499999;stroke-linejoin:bevel;stroke-opacity:1;paint-order:markers fill stroke" />
      <circle
         r="2.6168578"
         cy="221.8744"
         cx="392.93634"
         id="path4337"
         style="fill:#ff6600;fill-opacity:1;stroke:none;stroke-width:1.26499999;stroke-linejoin:bevel;stroke-opacity:1;paint-order:markers fill stroke" />
    </g>
    <path
       style="display:inline;fill:#ff6600;fill-opacity:1;stroke:#ff6600;stroke-width:1.10826564px;stroke-linecap:butt;stroke-linejoin:miter;stroke-opacity:1"
       d="m 578.51807,316.66501 c 0,0 19.90627,16.46843 0.91012,20.53053 -22.94046,4.90555 -41.80704,6.10695 -46.62264,5.68279 -8.80326,-0.77537 -8.8861,15.37139 -2.90602,13.34433 3.59795,-1.21956 32.95243,1.23859 61.59968,-1.95069 18.96811,-2.11171 15.28746,-49.01577 -4.87113,-53.0448 z"
       id="path4640"
       inkscape:connector-curvature="0"
       sodipodi:nodetypes="csccscc" />
    <path
       style="display:inline;fill:#ffb380;fill-opacity:1;stroke:none;stroke-width:0.32411873px;stroke-linecap:butt;stroke-linejoin:miter;stroke-opacity:1"
       d="m 515.39562,346.95113 c 0,0 -0.83856,-5.52603 0.69611,-9.59605 1.53466,-4.07002 2.38249,-3.42341 3.25881,-3.13424 0.87633,0.28916 -0.8519,5.37109 0.52907,7.93182 1.38097,2.56072 4.12065,4.9791 4.51835,4.99223 0.39768,0.0131 -3.10102,6.72858 -9.00234,-0.19376 z"
       id="path4355-6"
       inkscape:connector-curvature="0" />
  </g>
  <g
     inkscape:groupmode="layer"
     id="layer2"
     inkscape:label="Decor"
     style="opacity:0.18600003"
     transform="translate(-264.34998,-152.47747)" />
</svg>
