<?xml version="1.0" encoding="UTF-8" standalone="no"?>
<!-- Created with Inkscape (http://www.inkscape.org/) -->

<svg
   xmlns:dc="http://purl.org/dc/elements/1.1/"
   xmlns:cc="http://creativecommons.org/ns#"
   xmlns:rdf="http://www.w3.org/1999/02/22-rdf-syntax-ns#"
   xmlns:svg="http://www.w3.org/2000/svg"
   xmlns="http://www.w3.org/2000/svg"
   xmlns:xlink="http://www.w3.org/1999/xlink"
   xmlns:sodipodi="http://sodipodi.sourceforge.net/DTD/sodipodi-0.dtd"
   xmlns:inkscape="http://www.inkscape.org/namespaces/inkscape"
   width="1920"
   height="1080"
   viewBox="0 0 508.00001 285.75001"
   version="1.1"
   id="svg8"
   inkscape:version="0.92.2 (5c3e80d, 2017-08-06)"
   sodipodi:docname="ist normal.svg"
   inkscape:export-filename="/home/mbrickn/Projects/aXVI/game/images/characters/ist/ist.png"
   inkscape:export-xdpi="96"
   inkscape:export-ydpi="96">
  <title
     id="title77">IST</title>
  <defs
     id="defs2">
    <linearGradient
       inkscape:collect="always"
       id="linearGradient4406">
      <stop
         style="stop-color:#c9916c;stop-opacity:1;"
         offset="0"
         id="stop4402" />
      <stop
         style="stop-color:#ffc9a5;stop-opacity:1"
         offset="1"
         id="stop4404" />
    </linearGradient>
    <linearGradient
       inkscape:collect="always"
       id="linearGradient4397">
      <stop
         style="stop-color:#ff6600;stop-opacity:1;"
         offset="0"
         id="stop4393" />
      <stop
         style="stop-color:#bd4f06;stop-opacity:1"
         offset="1"
         id="stop4395" />
    </linearGradient>
    <linearGradient
       inkscape:collect="always"
       id="linearGradient4388">
      <stop
         style="stop-color:#ff6600;stop-opacity:1;"
         offset="0"
         id="stop4384" />
      <stop
         style="stop-color:#cb5100;stop-opacity:1"
         offset="1"
         id="stop4386" />
    </linearGradient>
    <linearGradient
       inkscape:collect="always"
       id="linearGradient4380">
      <stop
         style="stop-color:#b14700;stop-opacity:1;"
         offset="0"
         id="stop4376" />
      <stop
         style="stop-color:#ff6600;stop-opacity:1"
         offset="1"
         id="stop4378" />
    </linearGradient>
    <linearGradient
       inkscape:collect="always"
       id="linearGradient4372">
      <stop
         style="stop-color:#d8a17c;stop-opacity:1"
         offset="0"
         id="stop4368" />
      <stop
         style="stop-color:#ffc9a5;stop-opacity:1"
         offset="1"
         id="stop4370" />
    </linearGradient>
    <linearGradient
       inkscape:collect="always"
       id="linearGradient4363">
      <stop
         style="stop-color:#d8d8d8;stop-opacity:1"
         offset="0"
         id="stop4359" />
      <stop
         style="stop-color:#ffffff;stop-opacity:1"
         offset="1"
         id="stop4361" />
    </linearGradient>
    <linearGradient
       inkscape:collect="always"
       id="linearGradient4352">
      <stop
         style="stop-color:#d40000;stop-opacity:1;"
         offset="0"
         id="stop4348" />
      <stop
         style="stop-color:#ff0000;stop-opacity:1"
         offset="1"
         id="stop4350" />
    </linearGradient>
    <linearGradient
       inkscape:collect="always"
       xlink:href="#linearGradient4352"
       id="linearGradient4356"
       gradientUnits="userSpaceOnUse"
       x1="1622.8359"
       y1="716.88281"
       x2="1658.4941"
       y2="451.19141"
       gradientTransform="matrix(0.32780288,0,0,0.32780288,1.8481159,139.62091)" />
    <linearGradient
       inkscape:collect="always"
       xlink:href="#linearGradient4363"
       id="linearGradient4365"
       x1="1605.2881"
       y1="396.97223"
       x2="1465.897"
       y2="500.0256"
       gradientUnits="userSpaceOnUse"
       gradientTransform="translate(-5.6200173e-6,1.6855192e-6)" />
    <linearGradient
       inkscape:collect="always"
       xlink:href="#linearGradient4372"
       id="linearGradient4374"
       x1="481.88235"
       y1="143.2767"
       x2="486.53824"
       y2="140.31511"
       gradientUnits="userSpaceOnUse" />
    <linearGradient
       inkscape:collect="always"
       xlink:href="#linearGradient4380"
       id="linearGradient4382"
       x1="377.84384"
       y1="234.52652"
       x2="376.94202"
       y2="176.65327"
       gradientUnits="userSpaceOnUse"
       gradientTransform="matrix(1.23894,0,0,1.23894,1.8481159,139.62091)" />
    <linearGradient
       inkscape:collect="always"
       xlink:href="#linearGradient4388"
       id="linearGradient4390"
       x1="487.59262"
       y1="178.76224"
       x2="491.78476"
       y2="243.96869"
       gradientUnits="userSpaceOnUse"
       gradientTransform="matrix(1.23894,0,0,1.23894,1.8481159,139.62091)" />
    <linearGradient
       inkscape:collect="always"
       xlink:href="#linearGradient4397"
       id="linearGradient4399"
       x1="1638.1886"
       y1="938.86383"
       x2="1630.6469"
       y2="1301.9352"
       gradientUnits="userSpaceOnUse"
       gradientTransform="matrix(0.32780288,0,0,0.32780288,1.8481159,139.62091)" />
    <linearGradient
       inkscape:collect="always"
       xlink:href="#linearGradient4406"
       id="linearGradient4408"
       x1="1645.1132"
       y1="421.97531"
       x2="1660.4336"
       y2="460.47266"
       gradientUnits="userSpaceOnUse"
       gradientTransform="matrix(0.32780288,0,0,0.32780288,1.8481159,150.87089)" />
  </defs>
  <sodipodi:namedview
     id="base"
     pagecolor="#ffffff"
     bordercolor="#666666"
     borderopacity="1.0"
     inkscape:pageopacity="0.0"
     inkscape:pageshadow="2"
     inkscape:zoom="1.979899"
     inkscape:cx="1004.8497"
     inkscape:cy="646.90615"
     inkscape:document-units="mm"
     inkscape:current-layer="g4367"
     showgrid="false"
     inkscape:window-width="1440"
     inkscape:window-height="863"
     inkscape:window-x="1920"
     inkscape:window-y="0"
     inkscape:window-maximized="1"
     units="px"
     inkscape:pagecheckerboard="true"
     inkscape:document-rotation="0"
     fit-margin-top="0"
     fit-margin-left="0"
     fit-margin-right="0"
     fit-margin-bottom="0">
    <inkscape:grid
       type="xygrid"
       id="grid4485"
       originx="-264.34998"
       originy="141.2275" />
  </sodipodi:namedview>
  <metadata
     id="metadata5">
    <rdf:RDF>
      <cc:Work
         rdf:about="">
        <dc:format>image/svg+xml</dc:format>
        <dc:type
           rdf:resource="http://purl.org/dc/dcmitype/StillImage" />
        <dc:title>IST</dc:title>
        <cc:license
           rdf:resource="http://creativecommons.org/licenses/by/4.0/" />
        <dc:creator>
          <cc:Agent>
            <dc:title>Maxwell Paul Brickner</dc:title>
          </cc:Agent>
        </dc:creator>
      </cc:Work>
      <cc:License
         rdf:about="http://creativecommons.org/licenses/by/4.0/">
        <cc:permits
           rdf:resource="http://creativecommons.org/ns#Reproduction" />
        <cc:permits
           rdf:resource="http://creativecommons.org/ns#Distribution" />
        <cc:requires
           rdf:resource="http://creativecommons.org/ns#Notice" />
        <cc:requires
           rdf:resource="http://creativecommons.org/ns#Attribution" />
        <cc:permits
           rdf:resource="http://creativecommons.org/ns#DerivativeWorks" />
      </cc:License>
    </rdf:RDF>
  </metadata>
  <g
     inkscape:label="Head"
     inkscape:groupmode="layer"
     id="layer1"
     transform="translate(-264.34998,-152.47747)"
     style="display:inline">
    <path
       style="fill:url(#linearGradient4408);fill-opacity:1;stroke:none;stroke-width:1.37163174px;stroke-linecap:butt;stroke-linejoin:miter;stroke-opacity:1"
       d="m 547.35886,273.56715 c -4.98979,-0.21195 -19.29301,7.43253 -19.29301,7.43253 0,0 3.70358,9.62845 4.82486,17.4728 -0.28729,0.5987 -0.98301,0.40361 -1.13453,1.5148 0.20878,-0.0427 0.66764,-0.13671 1.29329,-0.22728 0.18229,1.70306 0.22084,3.28771 0.039,4.62061 5.45024,-1.25474 9.71028,-2.06176 13.05449,-2.56545 3.6099,0.66981 7.54288,1.23783 8.16625,2.75495 1.60401,3.90364 2.56293,-0.46749 2.95791,-3.15381 0.82976,0.24671 0.93475,0.53972 0.93475,0.53972 0,0 -0.45512,-1.27252 -0.7446,-2.08015 0.0203,-0.22488 0.0239,-0.29887 -0.006,-0.0173 -1.76138,-4.91436 -7.68662,-21.55637 -8.42873,-25.26707 -0.13532,-0.67654 -0.73994,-0.98514 -1.66399,-1.02439 z"
       id="path4612"
       inkscape:connector-curvature="0" />
    <path
       style="fill:#ffc9a5;fill-opacity:1;stroke:#ffc9a5;stroke-width:0.4905951px;stroke-linecap:butt;stroke-linejoin:miter;stroke-opacity:1"
       d="m 574.5246,251.52412 c 0,0 -10.89531,21.44231 -25.61315,30.90378 -14.71786,9.46147 -40.48101,-9.2679 -40.48101,-9.2679 0,0 4.11823,10.0752 -5.34323,-30.57411 -1.81253,-7.78711 -4.86691,-32.44051 -1.83624,-37.89045 12.78959,-22.99912 64.00378,-8.47711 70.51958,-4.51099 8.05974,4.90591 25.53171,20.85267 2.75405,51.33967 z"
       id="path4538"
       inkscape:connector-curvature="0"
       sodipodi:nodetypes="cscsssc" />
    <g
       transform="matrix(1.8542176,0,0,1.8542176,-369.47219,-13.84581)"
       style="display:inline"
       id="g4373">
      <path
         inkscape:connector-curvature="0"
         id="path4509"
         d="m 471.14996,127.80102 c 0,0 0.39376,-5.47329 5.51906,-5.60381 5.12531,-0.13042 5.90916,5.53348 5.90916,5.53348 0,0 -0.46248,-10.07747 -5.77958,-9.61478 -5.31711,0.46266 -5.64864,9.68511 -5.64864,9.68511 z"
         style="fill:#e6e6e6;fill-opacity:1;stroke:#e6e6e6;stroke-width:0.83854395px;stroke-linecap:butt;stroke-linejoin:miter;stroke-opacity:1"
         sodipodi:nodetypes="ccccc" />
      <path
         sodipodi:nodetypes="cc"
         inkscape:connector-curvature="0"
         id="path4511"
         d="m 470.01383,127.0974 0.90304,0.33589"
         style="fill:#c47d4d;fill-opacity:1;stroke:#e6e6e6;stroke-width:0.83854395px;stroke-linecap:butt;stroke-linejoin:miter;stroke-opacity:1" />
    </g>
    <g
       style="display:inline"
       id="g4379"
       transform="matrix(1.8542176,0,0,1.8542176,-377.56064,-24.30566)">
      <path
         sodipodi:nodetypes="ccccc"
         style="fill:#e6e6e6;fill-opacity:1;stroke:#e6e6e6;stroke-width:1.0116601px;stroke-linecap:butt;stroke-linejoin:miter;stroke-opacity:1"
         d="m 495.70087,134.95521 c 0,0 0.93528,-6.057 8.38559,-6.37005 7.45032,-0.31292 7.86344,6.36338 7.86344,6.36338 0,0 0.1809,-10.57007 -7.55986,-9.91712 -7.74075,0.65291 -8.68917,9.92379 -8.68917,9.92379 z"
         id="path4505"
         inkscape:connector-curvature="0" />
      <path
         style="fill:#d5f6ff;fill-opacity:1;stroke:#e6e6e6;stroke-width:1.0116601px;stroke-linecap:butt;stroke-linejoin:miter;stroke-opacity:1"
         d="m 512.21717,134.31379 1.29993,0.30473"
         id="path4507"
         inkscape:connector-curvature="0"
         sodipodi:nodetypes="cc" />
    </g>
  </g>
  <g
     inkscape:groupmode="layer"
     id="layer3"
     inkscape:label="Body"
     style="display:inline"
     transform="translate(-264.34998,-141.22749)">
    <rect
       style="fill:#e6e6e6;fill-opacity:1;stroke:none;stroke-width:1.91789973;stroke-linejoin:bevel;stroke-miterlimit:4;stroke-dasharray:none;stroke-opacity:1;paint-order:markers fill stroke"
       id="rect4382"
       width="6.0497456"
       height="302.45462"
       x="478.70523"
       y="240.94922"
       transform="rotate(14.325837)" />
    <path
       style="fill:#ffb380;fill-opacity:1;stroke:#ffb380;stroke-width:0.38303745px;stroke-linecap:butt;stroke-linejoin:miter;stroke-opacity:1"
       d="m 406.0038,413.36688 c -3.15057,1.16152 -8.64058,5.66846 -12.9579,5.02673 -2.18337,-0.32452 -4.24373,-0.7605 -5.74709,-1.11218 -4.46158,-3.67439 -2.48245,-24.64262 3.94734,-22.17657 3.97305,1.52235 9.13754,2.51107 12.71137,3.24603 11.29588,1.28136 11.4437,1.01445 12.84716,-9.21218 l 14.51907,6.43535 c -7.87108,11.27531 -8.86675,10.77483 -25.31995,17.79282 z"
       id="path4565"
       inkscape:connector-curvature="0"
       sodipodi:nodetypes="cccccccc" />
    <path
       sodipodi:nodetypes="cccccc"
       inkscape:connector-curvature="0"
       id="path4642"
       d="m 482.96989,315.87004 c 0,0 -56.42536,63.7411 -66.52905,70.99433 -10.10377,7.25327 -2.91682,34.63477 1.60262,26.98302 4.51958,-7.65192 67.29635,-39.3056 89.54344,-102.04798 -2.48134,-30.83164 -24.61701,4.07063 -24.61701,4.07063 z"
       style="fill:url(#linearGradient4382);fill-opacity:1;stroke:none;stroke-width:1.55977857px;stroke-linecap:butt;stroke-linejoin:miter;stroke-opacity:1" />
    <circle
       r="18.092093"
       cy="303.04776"
       cx="496.91934"
       id="circle4316"
       style="display:inline;fill:#ff6600;fill-opacity:1;stroke:none;stroke-width:52.0532341;stroke-linejoin:bevel;stroke-opacity:1;paint-order:markers fill stroke" />
    <path
       inkscape:connector-curvature="0"
       id="path4317"
       d="m 608.82363,434.34486 c 0,0 -5.56001,9.59259 -6.48731,12.57938 -0.92735,2.98678 -0.70823,9.59876 -3.62962,12.42575 -1.71473,1.65934 -3.44646,3.11116 -4.58448,4.02738 -10.76419,4.14982 -24.2688,-11.56429 -13.38169,-18.33009 2.82969,-1.18242 7.04497,-3.13582 9.3383,-5.12192 3.66123,-3.17063 7.28462,-10.74466 7.28462,-10.74466 z"
       style="fill:#ffb380;fill-opacity:1;stroke:#ffb380;stroke-width:0.3567538px;stroke-linecap:butt;stroke-linejoin:miter;stroke-opacity:1"
       sodipodi:nodetypes="cccccccc" />
    <path
       style="fill:url(#linearGradient4399);fill-opacity:1;stroke:none;stroke-width:1.37163174px;stroke-linecap:butt;stroke-linejoin:miter;stroke-opacity:1"
       d="m 587.59599,301.18165 c -10.0518,0.19639 -27.07015,33.69182 -53.61625,38.16726 -26.92681,4.53962 -42.01909,-30.01637 -51.00983,-23.47889 -0.61169,5.91865 -0.42881,12.12931 -0.78748,17.64182 0.0387,39.65883 8.90836,62.74455 13.59677,83.69218 -0.69078,9.39979 -2.86969,18.80633 -5.99073,27.14233 0,0 0.68439,1.57393 8.48957,2.34904 -0.19426,2.05708 -0.47434,4.15265 -0.85726,6.30123 0,0 -6.78176,75.62828 -5.27879,86.6853 1.66361,12.23953 17.71293,98.65991 25.38486,100.97994 7.6719,2.32002 16.40091,2.28209 16.08028,-4.06552 -0.32073,-6.34767 -6.97112,-86.88838 -9.63305,-98.73333 -1.6417,-7.305 3.55151,-32.54781 7.77378,-50.82483 0.4719,-2.04261 2.48819,-4.19722 5.46893,-6.35819 0.73052,16.80359 1.95318,44.73355 2.37658,52.5528 0.60135,11.10458 12.06448,106.29225 19.63168,108.24024 7.56718,1.94794 16.25575,1.4702 16.12316,-4.90101 -0.13281,-6.37133 0.52635,-82.59522 -1.77473,-94.38035 -1.77646,-9.0981 5.27953,-54.70006 8.80459,-74.07834 0.126,-7.12935 0.41542,-14.12705 0.84701,-21.00691 12.73717,-1.46933 13.55582,-3.76845 13.55582,-3.76845 -5.25651,-11.23878 -8.85386,-24.69557 -9.08309,-37.58017 4.41908,-28.64563 11.26655,-55.16994 19.46008,-80.21502 1.04505,-4.64295 -12.24943,-16.473 -14.92656,-21.09847 -1.34232,-2.31942 -2.88316,-3.29691 -4.63534,-3.26266 z"
       id="path4617"
       inkscape:connector-curvature="0" />
    <path
       sodipodi:nodetypes="csccccc"
       inkscape:connector-curvature="0"
       id="path4623"
       d="m 483.63515,316.38182 c 0.7899,22.13155 33.20557,31.80889 50.06752,35.64797 16.86195,3.83912 43.11169,-31.77595 61.14068,-56.40336 -14.01841,-2.27891 -30.07475,-4.37401 -37.13033,-6.53808 -18.13037,9.23759 -20.7684,15.76679 -25.4228,-1.16153 -15.42718,0.96897 -31.90656,2.79544 -46.02118,5.35772 z"
       style="fill:#ff6600;fill-opacity:1;stroke:#ff6600;stroke-width:1.37163174px;stroke-linecap:butt;stroke-linejoin:miter;stroke-opacity:1" />
    <path
       style="fill:url(#linearGradient4390);fill-opacity:1;stroke:none;stroke-width:1.37163174px;stroke-linecap:butt;stroke-linejoin:miter;stroke-opacity:1"
       d="m 590.06217,318.23325 c 0,0 6.6989,99.19801 4.81436,109.97179 -1.88452,10.77384 17.88212,15.36059 16.01316,7.77254 -1.86897,-7.58822 25.32448,-103.44212 -7.86685,-135.44894 -20.53011,-17.84285 -12.96067,17.70461 -12.96067,17.70461 z"
       id="path4640"
       inkscape:connector-curvature="0"
       sodipodi:nodetypes="ccccc" />
    <g
       id="g4352" />
    <g
       id="g4367"
       transform="matrix(1.8542176,0,0,1.8542176,-366.03454,-35.813885)">
      <path
         inkscape:connector-curvature="0"
         id="path4489"
         d="m 485.10892,134.64823 c 0,0 -0.83466,4.96272 -1.89371,7.32295 2.69357,1.64472 4.72384,-0.70642 4.72384,-0.70642"
         style="fill:url(#linearGradient4374);fill-opacity:1;stroke:none;stroke-width:0.60180032;stroke-linecap:butt;stroke-linejoin:miter;stroke-miterlimit:4;stroke-dasharray:none;stroke-opacity:1"
         sodipodi:nodetypes="ccc" />
      <ellipse
         style="fill:#000000;fill-opacity:1;stroke:none;stroke-width:9.52195072;stroke-linejoin:bevel;stroke-opacity:1;paint-order:markers fill stroke"
         id="path4351"
         cx="475.04489"
         cy="135.68735"
         rx="5.8077593"
         ry="8.3106861" />
      <ellipse
         cy="135.92023"
         cx="497.51645"
         id="circle4353"
         style="fill:#000000;fill-opacity:1;stroke:none;stroke-width:11.49811649;stroke-linejoin:bevel;stroke-opacity:1;paint-order:markers fill stroke"
         rx="7.5345449"
         ry="9.3409281" />
      <path
         style="fill:none;stroke:#000000;stroke-width:1.03434443;stroke-linecap:butt;stroke-linejoin:miter;stroke-miterlimit:4;stroke-dasharray:none;stroke-opacity:1"
         d="m 479.93151,134.54807 c 0,0 4.30039,-4.95804 10.66746,1.9126"
         id="path4366"
         inkscape:connector-curvature="0" />
      <path
         inkscape:connector-curvature="0"
         id="path4368"
         d="m 502.8588,136.36318 c 0,0 4.30039,-4.95804 10.66746,1.9126"
         style="fill:none;stroke:#000000;stroke-width:1.03434443;stroke-linecap:butt;stroke-linejoin:miter;stroke-miterlimit:4;stroke-dasharray:none;stroke-opacity:1" />
      <path
         style="fill:none;stroke:#000000;stroke-width:1.03434443;stroke-linecap:butt;stroke-linejoin:miter;stroke-miterlimit:4;stroke-dasharray:none;stroke-opacity:1"
         d="m 471.91954,136.80945 c 0,0 -2.63981,-4.37625 -5.34986,-4.41026"
         id="path4370"
         inkscape:connector-curvature="0"
         sodipodi:nodetypes="cc" />
      <path
         style="fill:url(#linearGradient4365);fill-opacity:1;stroke:none;stroke-width:1.22372854px;stroke-linecap:butt;stroke-linejoin:miter;stroke-opacity:1"
         d="m 1690.5293,15.607422 c -4.7982,0.164749 -11.9187,3.0722 -21.9766,9.609375 0,0 -7.4667,9.338505 -16.623,22.158203 -1.9156,-2.472543 -3.3008,-4.234375 -3.3008,-4.234375 -36.6413,-23.815308 -34.2907,0.546657 -22.6621,30.207031 -37.5162,0.327112 -96.1621,17.64539 -118.3828,27.404294 -5.3245,2.33843 -10.0545,4.96961 -14.1856,7.81446 -19.8024,-11.188775 -40.6757,-20.171879 -40.6757,-20.171879 -42.1068,-3.658365 -22.7757,18.710499 2.4101,38.507809 -28.5393,-2.21715 -50.9873,1.83694 -21.0137,26.52539 0,0 22.0538,8.53454 44.4922,14.42969 -5.0614,6.99385 -8.3281,11.85742 -8.3281,11.85742 -13.7035,49.34098 26.6646,17.0404 53.0098,-9.08203 46.2299,-8.21664 112.0195,-40.44531 112.0195,-40.44531 0,0 66.5539,36.77621 116.3555,51.80078 1.6918,4.007 4.7356,8.60282 8.5566,13.42774 -10.8669,34.5909 -7.1904,113.88776 -49.2578,134.61523 -34.1099,9.50212 -98.1337,21.84826 -169.2715,7.80469 0,0 1.9772,24.44901 -47.1562,140.88086 128.4625,-27.27353 191.2524,-60.10418 221.1211,-88.69336 16.9588,-11.64733 44.611,-58.54878 65.248,-109.03321 2.913,7.25329 5.0176,12.04297 5.0176,12.04297 35.5334,39.33428 28.224,-17.10757 19.8769,-53.38281 2.2492,1.86406 3.8946,3.20703 3.8946,3.20703 46.8501,17.41999 20.5688,-23.11278 -2.8379,-51.53711 0.062,-0.49624 0.109,-0.97856 0.166,-1.4707 3.3108,-9.14999 6.2167,-18.47153 7.7519,-26.48242 0.5978,-2.13868 0.9235,-4.31542 0.9668,-6.51172 0.2591,-2.73176 0.2815,-5.20852 0,-7.33594 -0.6575,-1.37793 -1.36,-2.6354 -2.0976,-3.79297 -4.3484,-11.02022 -15.3922,-21.62092 -32.5899,-29.17383 -18.0641,-7.93343 -63.5222,-23.766443 -102.6113,-31.83398 -0.1071,-0.167141 -0.213,-0.335043 -0.3203,-0.501953 15.2155,-29.98488 30.6976,-69.237626 12.4004,-68.609375 z"
         transform="matrix(0.17678771,0,0,0.17678771,198.40317,94.613923)"
         id="path4372"
         inkscape:connector-curvature="0" />
    </g>
    <path
       style="fill:#000000;fill-opacity:1;stroke:#000000;stroke-width:0.40114173px;stroke-linecap:butt;stroke-linejoin:miter;stroke-opacity:1"
       d="m 532.75761,287.42641 c 9.34846,2.86636 15.58158,1.60947 25.15554,0.72958 -8.50565,20.87784 -8.43654,110.5268 -19.0621,159.22719 -3.55143,-0.33041 -8.3053,0.65777 -8.54243,-0.50423 -12.17516,-69.12865 6.07556,-124.87932 2.44899,-159.45254 z"
       id="path4304"
       inkscape:connector-curvature="0"
       sodipodi:nodetypes="ccccc" />
    <circle
       style="display:inline;fill:#ff6600;fill-opacity:1;stroke:none;stroke-width:52.0532341;stroke-linejoin:bevel;stroke-opacity:1;paint-order:markers fill stroke"
       id="path4299"
       cx="594.69427"
       cy="308.06088"
       r="18.092093" />
    <path
       style="fill:url(#linearGradient4356);fill-opacity:1;stroke:none;stroke-width:0.45251748px;stroke-linecap:butt;stroke-linejoin:miter;stroke-opacity:1"
       d="m 528.92122,286.73782 -7.49531,7.8788 7.20016,0.97125 13.40471,-6.40368 a 3.1873646,3.1873646 0 0 0 -0.4565,1.63581 3.1873646,3.1873646 0 0 0 0.10122,0.78622 l -5.39404,4.50664 -0.23368,5.52976 3.71853,-2.28247 2.89643,-6.14438 a 3.1873646,3.1873646 0 0 0 1.37205,0.70427 l -13.10188,56.41923 2.88554,24.27789 12.59548,-21.26428 -2.02445,-59.36945 a 3.1873646,3.1873646 0 0 0 0.37199,0.0243 3.1873646,3.1873646 0 0 0 1.79904,-0.56085 l 2.78761,5.91326 3.71853,2.28245 -0.23369,-5.52975 -5.06879,-4.23519 a 3.1873646,3.1873646 0 0 0 0.18505,-1.05767 3.1873646,3.1873646 0 0 0 -0.43217,-1.59484 l 13.31827,6.3627 7.20015,-0.97124 -6.12453,-6.88835 -16.44011,-0.18823 0.0365,-0.0173 z"
       id="path4312"
       inkscape:connector-curvature="0" />
    <path
       inkscape:connector-curvature="0"
       id="path4519"
       d="m 513.73058,259.37292 c 0,0 21.57047,5.02991 28.45507,1.1926"
       style="display:inline;fill:none;fill-opacity:1;stroke:#aeaeae;stroke-width:1.33433843;stroke-linecap:round;stroke-linejoin:miter;stroke-miterlimit:4;stroke-dasharray:none;stroke-opacity:1"
       sodipodi:nodetypes="cc" />
    <path
       sodipodi:nodetypes="cc"
       style="display:inline;fill:none;fill-opacity:1;stroke:#aeaeae;stroke-width:1.33433843;stroke-linecap:round;stroke-linejoin:miter;stroke-miterlimit:4;stroke-dasharray:none;stroke-opacity:1"
       d="m 544.25704,254.02076 c 0,0 -6.23126,8.98444 4.59595,11.56553"
       id="path4349"
       inkscape:connector-curvature="0" />
    <circle
       style="fill:#000000;fill-opacity:1;stroke-width:1.91789973;stroke-linejoin:bevel;paint-order:markers fill stroke"
       id="path4306"
       cx="574.88409"
       cy="330.25348"
       r="3.2874203"
       transform="rotate(3.5924424)" />
    <circle
       style="fill:#000000;fill-opacity:1;stroke-width:1.91789973;stroke-linejoin:bevel;paint-order:markers fill stroke"
       id="path4308"
       cx="573.8172"
       cy="355.86963"
       r="3.6271434"
       transform="rotate(3.5924424)" />
    <circle
       style="fill:#000000;fill-opacity:1;stroke-width:1.91789973;stroke-linejoin:bevel;paint-order:markers fill stroke"
       id="path4310"
       cx="574.35065"
       cy="343.06152"
       r="3.353703"
       transform="rotate(3.5924424)" />
    <g
       transform="matrix(0.2661476,0.03396586,-0.03396586,0.2661476,529.94323,267.45188)"
       id="g4342">
      <g
         transform="matrix(11.239459,0,0,11.239459,-975.15717,-1061.2053)"
         id="g4355">
        <g
           aria-label="BG IST"
           transform="matrix(0.26458333,0,0,0.26458333,-0.08620094,-0.49473256)"
           style="font-style:normal;font-weight:normal;font-size:13.33333397px;line-height:1.25;font-family:sans-serif;letter-spacing:0px;word-spacing:0px;fill:#ffffff;fill-opacity:1;stroke:none"
           id="flowRoot4271">
          <g
             id="g4318">
            <path
               inkscape:connector-curvature="0"
               id="path4305"
               style="font-style:normal;font-variant:normal;font-weight:bold;font-stretch:normal;font-size:17.33333397px;font-family:'League Gothic';-inkscape-font-specification:'League Gothic Bold';text-align:center;text-anchor:middle;fill:#ffffff;fill-opacity:1"
               d="m 379.23565,417.4262 c 2.236,-0.0867 2.89466,-1.73333 2.89466,-3.60534 0,-2.53066 -1.3,-3.12 -1.3,-3.12 0.90134,-0.78 1.16134,-1.456 1.16134,-2.63466 0,-2.53067 -1.17867,-3.38 -3.41467,-3.38 -0.71067,0 -1.64667,0 -1.64667,0 v 12.74 z m 0.95333,-3.81334 c 0,2.09734 -1.04,1.95867 -1.38667,1.95867 v -3.91733 c 0.34667,0 1.38667,-0.13867 1.38667,1.95866 z m 0,-5.37333 c 0,1.75067 -1.04,1.69867 -1.38667,1.69867 v -3.39734 c 0.34667,0 1.38667,-0.052 1.38667,1.69867 z" />
            <path
               inkscape:connector-curvature="0"
               id="path4307"
               style="font-style:normal;font-variant:normal;font-weight:bold;font-stretch:normal;font-size:17.33333397px;font-family:'League Gothic';-inkscape-font-specification:'League Gothic Bold';text-align:center;text-anchor:middle;fill:#ffffff;fill-opacity:1"
               d="m 388.09785,409.2622 v -1.95867 c 0,0 0.0173,-2.756 -2.496,-2.756 -2.51333,0 -2.496,2.756 -2.496,2.756 v 7.50534 c 0,0 -0.17333,2.756 2.20134,2.756 0.58933,0 1.10933,-0.312 1.456,-0.74534 l 0.22533,0.60667 h 1.10933 v -6.344 h -2.61733 v 1.57733 h 0.74533 v 2.30534 c 0,0 0.0347,0.936 -0.624,0.936 -0.65866,0 -0.624,-0.936 -0.624,-0.936 v -7.66134 c 0,0 -0.0347,-0.936 0.624,-0.936 0.65867,0 0.624,0.936 0.624,0.936 v 1.95867 z" />
          </g>
          <path
             inkscape:connector-curvature="0"
             d="m 375.84698,439.09285 h 1.872 v -12.74 h -1.872 z"
             style="font-style:normal;font-variant:normal;font-weight:bold;font-stretch:normal;font-size:17.33333397px;font-family:'League Gothic';-inkscape-font-specification:'League Gothic Bold';text-align:center;text-anchor:middle;fill:#ffffff;fill-opacity:1"
             id="path4309" />
          <path
             inkscape:connector-curvature="0"
             d="m 378.97565,429.19552 c 0,1.36933 0.832,2.66933 1.716,3.96933 0.71066,1.07467 1.508,2.09734 1.508,2.94667 0,0.79733 -0.208,1.404 -0.76267,1.404 -0.78,0 -0.884,-1.10933 -0.884,-2.16667 l -1.83733,0.17334 c 0,1.88933 0.312,3.70933 2.72133,3.70933 2.04533,0 2.6,-1.508 2.6,-3.20667 0,-1.36933 -0.884,-2.63466 -1.75067,-3.93466 -0.728,-1.05734 -1.47333,-2.028 -1.47333,-2.89467 0,-0.728 0.156,-1.248 0.64133,-1.26533 0.624,0 0.74534,0.988 0.74534,1.83733 l 1.83733,-0.17333 c 0,-1.42134 -0.364,-3.432 -2.61733,-3.38 -1.768,0.0347 -2.444,1.59466 -2.444,2.98133 z"
             style="font-style:normal;font-variant:normal;font-weight:bold;font-stretch:normal;font-size:17.33333397px;font-family:'League Gothic';-inkscape-font-specification:'League Gothic Bold';text-align:center;text-anchor:middle;fill:#ffffff;fill-opacity:1"
             id="path4311" />
          <path
             inkscape:connector-curvature="0"
             d="m 386.16465,428.27685 v 10.816 h 1.872 v -10.816 h 1.768 v -1.924 h -5.408 v 1.924 z"
             style="font-style:normal;font-variant:normal;font-weight:bold;font-stretch:normal;font-size:17.33333397px;font-family:'League Gothic';-inkscape-font-specification:'League Gothic Bold';text-align:center;text-anchor:middle;fill:#ffffff;fill-opacity:1"
             id="path4313" />
        </g>
        <g
           id="g4303"
           transform="matrix(1.0780464,-0.6224104,0.6224104,1.0780464,-75.54707,54.686524)">
          <path
             inkscape:connector-curvature="0"
             id="path4285"
             d="M 99.218749,107.02917 H 103.1875"
             style="fill:none;stroke:#ff6600;stroke-width:0.26458332px;stroke-linecap:butt;stroke-linejoin:miter;stroke-opacity:1" />
          <path
             inkscape:connector-curvature="0"
             id="path4287"
             d="M 103.1875,107.55833 H 99.218749"
             style="fill:none;stroke:#ff6600;stroke-width:0.26458332px;stroke-linecap:butt;stroke-linejoin:miter;stroke-opacity:1" />
          <path
             inkscape:connector-curvature="0"
             id="path4289"
             d="M 99.218749,108.0875 H 103.1875"
             style="fill:none;stroke:#ff6600;stroke-width:0.26458332px;stroke-linecap:butt;stroke-linejoin:miter;stroke-opacity:1" />
          <path
             inkscape:connector-curvature="0"
             id="path4291"
             d="M 103.1875,108.61667 H 99.218749"
             style="fill:none;stroke:#ff6600;stroke-width:0.26458332px;stroke-linecap:butt;stroke-linejoin:miter;stroke-opacity:1" />
          <path
             inkscape:connector-curvature="0"
             id="path4293"
             d="M 99.218749,109.14583 H 103.1875"
             style="fill:none;stroke:#ff6600;stroke-width:0.26458332px;stroke-linecap:butt;stroke-linejoin:miter;stroke-opacity:1" />
          <path
             inkscape:connector-curvature="0"
             id="path4295"
             d="M 103.1875,109.675 H 99.218749"
             style="fill:none;stroke:#ff6600;stroke-width:0.26458332px;stroke-linecap:butt;stroke-linejoin:miter;stroke-opacity:1" />
        </g>
        <g
           transform="matrix(1.0780464,-0.6224104,0.6224104,1.0780464,-75.337077,60.268118)"
           id="g4332">
          <path
             style="fill:none;stroke:#ff6600;stroke-width:0.26458332px;stroke-linecap:butt;stroke-linejoin:miter;stroke-opacity:1"
             d="M 99.218749,107.02917 H 103.1875"
             id="path4320"
             inkscape:connector-curvature="0" />
          <path
             style="fill:none;stroke:#ff6600;stroke-width:0.26458332px;stroke-linecap:butt;stroke-linejoin:miter;stroke-opacity:1"
             d="M 103.1875,107.55833 H 99.218749"
             id="path4322"
             inkscape:connector-curvature="0" />
          <path
             style="fill:none;stroke:#ff6600;stroke-width:0.26458332px;stroke-linecap:butt;stroke-linejoin:miter;stroke-opacity:1"
             d="M 99.218749,108.0875 H 103.1875"
             id="path4324"
             inkscape:connector-curvature="0" />
          <path
             style="fill:none;stroke:#ff6600;stroke-width:0.26458332px;stroke-linecap:butt;stroke-linejoin:miter;stroke-opacity:1"
             d="M 103.1875,108.61667 H 99.218749"
             id="path4326"
             inkscape:connector-curvature="0" />
          <path
             style="fill:none;stroke:#ff6600;stroke-width:0.26458332px;stroke-linecap:butt;stroke-linejoin:miter;stroke-opacity:1"
             d="M 99.218749,109.14583 H 103.1875"
             id="path4328"
             inkscape:connector-curvature="0" />
          <path
             style="fill:none;stroke:#ff6600;stroke-width:0.26458332px;stroke-linecap:butt;stroke-linejoin:miter;stroke-opacity:1"
             d="M 103.1875,109.675 H 99.218749"
             id="path4330"
             inkscape:connector-curvature="0" />
        </g>
      </g>
    </g>
    <path
       style="display:inline;fill:#000000;fill-opacity:1;stroke:none;stroke-width:0.27943262px;stroke-linecap:butt;stroke-linejoin:miter;stroke-opacity:1"
       d="m 479.82059,667.03262 c 4.5872,0.3711 33.75254,1.19731 35.2438,0.12812 4.48407,-8.24212 7.50034,0.59606 8.38164,0.46651 1.28273,-0.25258 12.91656,0.14041 13.059,-1.63849 0.14237,-1.77897 2.75526,-26.91205 0.87167,-30.38309 -0.2804,-0.51667 -6.16102,-61.47082 -8.74143,-66.08839 -9.68581,-17.33235 -27.46735,2.32375 -32.13494,3.87007 -2.44306,0.80936 16.50684,62.64848 17.25202,65.57874 -5.81318,16.68166 -29.20167,18.28602 -42.12769,12.56815 -2.90474,7.37876 4.85656,14.99765 8.19593,15.49819 z"
       id="path4302"
       inkscape:connector-curvature="0"
       sodipodi:nodetypes="cccccsscccc" />
    <path
       sodipodi:nodetypes="cccsscc"
       inkscape:connector-curvature="0"
       id="path4306-7"
       d="m 565.55401,668.62044 c 1.28276,-0.25257 14.04955,-0.85258 14.19202,-2.63155 0.14234,-1.77898 2.75521,-26.91205 0.87162,-30.38308 -0.28037,-0.51669 -1.67096,-59.96275 -4.25137,-64.5803 -9.68578,-17.33236 -27.46733,2.32373 -32.13488,3.87003 -2.44306,0.80934 9.73597,61.87368 10.48116,64.80391 -14.09511,34.92999 -14.54796,24.78417 10.84145,28.92099 z"
       style="display:inline;fill:#000000;fill-opacity:1;stroke:none;stroke-width:0.27943262px;stroke-linecap:butt;stroke-linejoin:miter;stroke-opacity:1" />
    <rect
       style="display:inline;fill:#c83737;fill-opacity:1;stroke:none;stroke-width:2.58904481;stroke-linejoin:bevel;stroke-miterlimit:4;stroke-dasharray:none;stroke-opacity:1;paint-order:markers fill stroke"
       id="rect4384"
       width="9.2176285"
       height="10.477319"
       x="685.32245"
       y="-171.84909"
       transform="matrix(0.50235103,0.86466377,-0.23798681,0.97126839,0,0)" />
    <path
       style="display:inline;fill:#ffb380;fill-opacity:1;stroke:none;stroke-width:0.3278029px;stroke-linecap:butt;stroke-linejoin:miter;stroke-opacity:1"
       d="m 397.39312,400.95911 c 0,0 -0.84809,-5.58883 0.70402,-9.70512 1.55211,-4.11628 2.40958,-3.46232 3.29585,-3.16987 0.88629,0.29246 -0.86159,5.43215 0.53508,8.02198 1.39667,2.58983 4.1675,5.0357 4.56971,5.04897 0.4022,0.0133 -3.13626,6.80507 -9.10466,-0.19596 z"
       id="path4355"
       inkscape:connector-curvature="0" />
  </g>
  <g
     inkscape:groupmode="layer"
     id="layer2"
     inkscape:label="Decor"
     style="opacity:0.18600003"
     transform="translate(-264.34998,-152.47747)" />
</svg>
