<?xml version="1.0" encoding="UTF-8" standalone="no"?>
<!-- Created with Inkscape (http://www.inkscape.org/) -->

<svg
   xmlns:dc="http://purl.org/dc/elements/1.1/"
   xmlns:cc="http://creativecommons.org/ns#"
   xmlns:rdf="http://www.w3.org/1999/02/22-rdf-syntax-ns#"
   xmlns:svg="http://www.w3.org/2000/svg"
   xmlns="http://www.w3.org/2000/svg"
   xmlns:xlink="http://www.w3.org/1999/xlink"
   xmlns:sodipodi="http://sodipodi.sourceforge.net/DTD/sodipodi-0.dtd"
   xmlns:inkscape="http://www.inkscape.org/namespaces/inkscape"
   width="1920"
   height="1080"
   viewBox="0 0 508 285.75001"
   version="1.1"
   id="svg8"
   inkscape:version="0.92+devel unknown"
   sodipodi:docname="ist template.svg">
  <title
     id="title77">IST</title>
  <defs
     id="defs2">
    <linearGradient
       inkscape:collect="always"
       id="linearGradient4406">
      <stop
         style="stop-color:#c9916c;stop-opacity:1;"
         offset="0"
         id="stop4402" />
      <stop
         style="stop-color:#ffc9a5;stop-opacity:1"
         offset="1"
         id="stop4404" />
    </linearGradient>
    <linearGradient
       inkscape:collect="always"
       id="linearGradient4397">
      <stop
         style="stop-color:#ff6600;stop-opacity:1;"
         offset="0"
         id="stop4393" />
      <stop
         style="stop-color:#bd4f06;stop-opacity:1"
         offset="1"
         id="stop4395" />
    </linearGradient>
    <linearGradient
       inkscape:collect="always"
       id="linearGradient4388">
      <stop
         style="stop-color:#ff6600;stop-opacity:1;"
         offset="0"
         id="stop4384" />
      <stop
         style="stop-color:#cb5100;stop-opacity:1"
         offset="1"
         id="stop4386" />
    </linearGradient>
    <linearGradient
       inkscape:collect="always"
       id="linearGradient4380">
      <stop
         style="stop-color:#b14700;stop-opacity:1;"
         offset="0"
         id="stop4376" />
      <stop
         style="stop-color:#ff6600;stop-opacity:1"
         offset="1"
         id="stop4378" />
    </linearGradient>
    <linearGradient
       inkscape:collect="always"
       id="linearGradient4372">
      <stop
         style="stop-color:#ff6600;stop-opacity:1"
         offset="0"
         id="stop4368" />
      <stop
         style="stop-color:#ffc9a5;stop-opacity:1"
         offset="1"
         id="stop4370" />
    </linearGradient>
    <linearGradient
       inkscape:collect="always"
       id="linearGradient4363">
      <stop
         style="stop-color:#d8d8d8;stop-opacity:1"
         offset="0"
         id="stop4359" />
      <stop
         style="stop-color:#ffffff;stop-opacity:1"
         offset="1"
         id="stop4361" />
    </linearGradient>
    <linearGradient
       inkscape:collect="always"
       id="linearGradient4352">
      <stop
         style="stop-color:#d40000;stop-opacity:1;"
         offset="0"
         id="stop4348" />
      <stop
         style="stop-color:#ff0000;stop-opacity:1"
         offset="1"
         id="stop4350" />
    </linearGradient>
    <linearGradient
       inkscape:collect="always"
       xlink:href="#linearGradient4352"
       id="linearGradient4356"
       gradientUnits="userSpaceOnUse"
       x1="1622.8359"
       y1="716.88281"
       x2="1658.4941"
       y2="451.19141" />
    <linearGradient
       inkscape:collect="always"
       xlink:href="#linearGradient4363"
       id="linearGradient4365"
       x1="1605.2881"
       y1="396.97223"
       x2="1465.897"
       y2="500.0256"
       gradientUnits="userSpaceOnUse"
       gradientTransform="translate(-5.6200177e-6,1.6855192e-6)" />
    <linearGradient
       inkscape:collect="always"
       xlink:href="#linearGradient4372"
       id="linearGradient4374"
       x1="481.88235"
       y1="143.2767"
       x2="486.53824"
       y2="140.31511"
       gradientUnits="userSpaceOnUse" />
    <linearGradient
       inkscape:collect="always"
       xlink:href="#linearGradient4380"
       id="linearGradient4382"
       x1="377.84384"
       y1="234.52652"
       x2="376.94202"
       y2="176.65327"
       gradientUnits="userSpaceOnUse" />
    <linearGradient
       inkscape:collect="always"
       xlink:href="#linearGradient4388"
       id="linearGradient4390"
       x1="487.59262"
       y1="178.76224"
       x2="491.78476"
       y2="243.96869"
       gradientUnits="userSpaceOnUse" />
    <linearGradient
       inkscape:collect="always"
       xlink:href="#linearGradient4397"
       id="linearGradient4399"
       x1="1638.1886"
       y1="938.86383"
       x2="1630.6469"
       y2="1301.9352"
       gradientUnits="userSpaceOnUse" />
    <linearGradient
       inkscape:collect="always"
       xlink:href="#linearGradient4406"
       id="linearGradient4408"
       x1="1645.1132"
       y1="421.97531"
       x2="1660.4336"
       y2="460.47266"
       gradientUnits="userSpaceOnUse" />
  </defs>
  <sodipodi:namedview
     id="base"
     pagecolor="#ffffff"
     bordercolor="#666666"
     borderopacity="1.0"
     inkscape:pageopacity="0.0"
     inkscape:pageshadow="2"
     inkscape:zoom="2.8"
     inkscape:cx="1327.3232"
     inkscape:cy="280.11569"
     inkscape:document-units="mm"
     inkscape:current-layer="layer3"
     showgrid="false"
     inkscape:window-width="1920"
     inkscape:window-height="1016"
     inkscape:window-x="0"
     inkscape:window-y="0"
     inkscape:window-maximized="1"
     units="px"
     inkscape:pagecheckerboard="true"
     inkscape:document-rotation="0">
    <inkscape:grid
       type="xygrid"
       id="grid4485" />
  </sodipodi:namedview>
  <metadata
     id="metadata5">
    <rdf:RDF>
      <cc:Work
         rdf:about="">
        <dc:format>image/svg+xml</dc:format>
        <dc:type
           rdf:resource="http://purl.org/dc/dcmitype/StillImage" />
        <dc:title>IST</dc:title>
        <cc:license
           rdf:resource="http://creativecommons.org/licenses/by/4.0/" />
        <dc:creator>
          <cc:Agent>
            <dc:title>Maxwell Paul Brickner</dc:title>
          </cc:Agent>
        </dc:creator>
      </cc:Work>
      <cc:License
         rdf:about="http://creativecommons.org/licenses/by/4.0/">
        <cc:permits
           rdf:resource="http://creativecommons.org/ns#Reproduction" />
        <cc:permits
           rdf:resource="http://creativecommons.org/ns#Distribution" />
        <cc:requires
           rdf:resource="http://creativecommons.org/ns#Notice" />
        <cc:requires
           rdf:resource="http://creativecommons.org/ns#Attribution" />
        <cc:permits
           rdf:resource="http://creativecommons.org/ns#DerivativeWorks" />
      </cc:License>
    </rdf:RDF>
  </metadata>
  <g
     inkscape:label="Head"
     inkscape:groupmode="layer"
     id="layer1"
     transform="translate(0,-11.249983)"
     style="display:inline">
    <path
       style="fill:url(#linearGradient4408);fill-opacity:1;stroke:none;stroke-width:4.18431854px;stroke-linecap:butt;stroke-linejoin:miter;stroke-opacity:1"
       d="M 1664.1426 374.29883 C 1648.9207 373.6523 1605.2871 396.97266 1605.2871 396.97266 C 1605.2871 396.97266 1616.5853 426.34533 1620.0059 450.27539 C 1619.1295 452.10183 1617.0071 451.50665 1616.5449 454.89648 C 1617.1818 454.76595 1618.5816 454.47943 1620.4902 454.20312 C 1621.0463 459.39849 1621.1639 464.23268 1620.6094 468.29883 C 1637.236 464.47111 1650.2317 462.00921 1660.4336 460.47266 C 1671.446 462.51595 1683.444 464.24878 1685.3457 468.87695 C 1690.2389 480.7854 1693.1642 467.4508 1694.3691 459.25586 C 1696.9004 460.00847 1697.2207 460.90234 1697.2207 460.90234 C 1697.2207 460.90234 1695.8323 457.0204 1694.9492 454.55664 C 1695.0111 453.87059 1695.0222 453.6449 1694.9316 454.50391 C 1689.5583 439.51207 1671.4827 388.74377 1669.2188 377.42383 C 1668.806 375.35995 1666.9615 374.41856 1664.1426 374.29883 z "
       transform="matrix(0.26458333,0,0,0.26458333,0,11.249983)"
       id="path4612" />
    <path
       style="fill:#ffc9a5;fill-opacity:1;stroke:#ffc9a5;stroke-width:0.39597967px;stroke-linecap:butt;stroke-linejoin:miter;stroke-opacity:1"
       d="m 462.23099,92.491379 c 0,0 -8.79405,17.306981 -20.67344,24.943721 -11.87939,7.63675 -32.6739,-7.4805 -32.6739,-7.4805 0,0 3.32399,8.13211 -4.31275,-24.677639 -1.46296,-6.285302 -3.92828,-26.184083 -1.4821,-30.582959 10.32301,-18.563546 51.66011,-6.842221 56.91928,-3.641008 6.50536,3.959777 20.60771,16.831064 2.22291,41.438385 z"
       id="path4538"
       inkscape:connector-curvature="0"
       sodipodi:nodetypes="cscsssc" />
    <g
       transform="matrix(1.4966161,0,0,1.4966161,-299.70805,-121.69972)"
       style="display:inline"
       id="g4373">
      <path
         inkscape:connector-curvature="0"
         id="path4509"
         d="m 471.14996,127.80102 c 0,0 0.39376,-5.47329 5.51906,-5.60381 5.12531,-0.13042 5.90916,5.53348 5.90916,5.53348 0,0 -0.46248,-10.07747 -5.77958,-9.61478 -5.31711,0.46266 -5.64864,9.68511 -5.64864,9.68511 z"
         style="fill:#e6e6e6;fill-opacity:1;stroke:#e6e6e6;stroke-width:0.83854395px;stroke-linecap:butt;stroke-linejoin:miter;stroke-opacity:1"
         sodipodi:nodetypes="ccccc" />
      <path
         sodipodi:nodetypes="cc"
         inkscape:connector-curvature="0"
         id="path4511"
         d="m 470.01383,127.0974 0.90304,0.33589"
         style="fill:#c47d4d;fill-opacity:1;stroke:#e6e6e6;stroke-width:0.83854395px;stroke-linecap:butt;stroke-linejoin:miter;stroke-opacity:1" />
    </g>
    <g
       style="display:inline"
       id="g4379"
       transform="matrix(1.4966161,0,0,1.4966161,-306.23657,-130.1423)">
      <path
         sodipodi:nodetypes="ccccc"
         style="fill:#e6e6e6;fill-opacity:1;stroke:#e6e6e6;stroke-width:1.0116601px;stroke-linecap:butt;stroke-linejoin:miter;stroke-opacity:1"
         d="m 495.70087,134.95521 c 0,0 0.93528,-6.057 8.38559,-6.37005 7.45032,-0.31292 7.86344,6.36338 7.86344,6.36338 0,0 0.1809,-10.57007 -7.55986,-9.91712 -7.74075,0.65291 -8.68917,9.92379 -8.68917,9.92379 z"
         id="path4505"
         inkscape:connector-curvature="0" />
      <path
         style="fill:#d5f6ff;fill-opacity:1;stroke:#e6e6e6;stroke-width:1.0116601px;stroke-linecap:butt;stroke-linejoin:miter;stroke-opacity:1"
         d="m 512.21717,134.31379 1.29993,0.30473"
         id="path4507"
         inkscape:connector-curvature="0"
         sodipodi:nodetypes="cc" />
    </g>
  </g>
  <g
     inkscape:groupmode="layer"
     id="layer3"
     inkscape:label="Body"
     style="display:inline">
    <rect
       style="fill:#e6e6e6;fill-opacity:1;stroke:none;stroke-width:1.54801655;stroke-linejoin:bevel;stroke-miterlimit:4;stroke-dasharray:none;stroke-opacity:1;paint-order:markers fill stroke"
       id="rect4382"
       width="4.8830009"
       height="244.12367"
       x="357.05307"
       y="85.659676"
       transform="rotate(14.325837)" />
    <path
       style="fill:#ffb380;fill-opacity:1;stroke:#ffb380;stroke-width:0.30916545px;stroke-linecap:butt;stroke-linejoin:miter;stroke-opacity:1"
       d="m 326.21085,220.95174 c -2.54295,0.93751 -6.97417,4.57525 -10.45886,4.05729 -1.76229,-0.26194 -3.42529,-0.61383 -4.63871,-0.89769 -3.60113,-2.96575 -2.00369,-19.89008 3.18606,-17.89963 3.20681,1.22875 7.37529,2.02679 10.25987,2.62 9.11738,1.03424 9.23669,0.81881 10.36948,-7.43553 l 11.71895,5.19424 c -6.35308,9.10077 -7.15673,8.69681 -20.43679,14.36132 z"
       id="path4565"
       inkscape:connector-curvature="0"
       sodipodi:nodetypes="cccccccc" />
    <path
       sodipodi:nodetypes="cccccc"
       inkscape:connector-curvature="0"
       id="path4642"
       d="m 388.33338,142.25799 c 0,0 -45.54325,51.44809 -53.69836,57.30248 -8.15517,5.85441 -2.35428,27.95516 1.29354,21.77912 3.64794,-6.17619 54.31768,-31.72519 72.27423,-82.36717 -2.00279,-24.8855 -19.86941,3.28557 -19.86941,3.28557 z"
       style="fill:url(#linearGradient4382);fill-opacity:1;stroke:none;stroke-width:1.25896215px;stroke-linecap:butt;stroke-linejoin:miter;stroke-opacity:1" />
    <circle
       r="14.60288"
       cy="131.9086"
       cx="399.59256"
       id="circle4316"
       style="display:inline;fill:#ff6600;fill-opacity:1;stroke:none;stroke-width:42.014328;stroke-linejoin:bevel;stroke-opacity:1;paint-order:markers fill stroke" />
    <path
       inkscape:connector-curvature="0"
       id="path4317"
       d="m 489.91516,237.88394 c 0,0 -4.48771,7.74258 -5.23617,10.15334 -0.7485,2.41076 -0.57164,7.74756 -2.92962,10.02934 -1.38403,1.33933 -2.78178,2.51115 -3.70032,3.25067 -8.68823,3.34949 -19.58836,-9.33402 -10.80092,-14.79498 2.28396,-0.95438 5.68628,-2.53105 7.53733,-4.13411 2.95513,-2.55915 5.87972,-8.67247 5.87972,-8.67247 z"
       style="fill:#ffb380;fill-opacity:1;stroke:#ffb380;stroke-width:0.28795081px;stroke-linecap:butt;stroke-linejoin:miter;stroke-opacity:1"
       sodipodi:nodetypes="cccccccc" />
    <path
       style="fill:url(#linearGradient4399);fill-opacity:1;stroke:none;stroke-width:4.18431854px;stroke-linecap:butt;stroke-linejoin:miter;stroke-opacity:1"
       d="M 1786.8906 492.85938 C 1756.2264 493.45853 1704.31 595.64014 1623.3281 609.29297 C 1541.1848 623.14161 1495.1441 517.72461 1467.7168 537.66797 C 1465.8508 555.72345 1466.4087 574.66974 1465.3145 591.48633 C 1465.4328 712.4701 1492.4905 782.89568 1506.793 846.79883 C 1504.6857 875.47398 1498.0387 904.1697 1488.5176 929.59961 C 1488.5176 929.59961 1490.6054 934.40108 1514.416 936.76562 C 1513.8234 943.04098 1512.969 949.43376 1511.8008 955.98828 C 1511.8008 955.98828 1491.1123 1186.7009 1495.6973 1220.4316 C 1500.7723 1257.7697 1549.7326 1521.4049 1573.1367 1528.4824 C 1596.5407 1535.5599 1623.1695 1535.4442 1622.1914 1516.0801 C 1621.213 1496.7158 1600.9252 1251.0172 1592.8047 1214.8828 C 1587.7965 1192.5981 1603.639 1115.592 1616.5195 1059.8359 C 1617.9591 1053.6047 1624.11 1047.0318 1633.2031 1040.4395 C 1635.4316 1091.7008 1639.1615 1176.9043 1640.4531 1200.7578 C 1642.2876 1234.6336 1677.2572 1525.0144 1700.3418 1530.957 C 1723.4263 1536.8994 1749.9318 1535.442 1749.5273 1516.0059 C 1749.1222 1496.5694 1751.133 1264.0398 1744.1133 1228.0879 C 1738.694 1200.3331 1760.2191 1061.2191 1770.9727 1002.1035 C 1771.3571 980.35458 1772.24 959.00731 1773.5566 938.01953 C 1812.4128 933.53717 1814.9102 926.52344 1814.9102 926.52344 C 1798.8746 892.23825 1787.9005 851.18678 1787.2012 811.88086 C 1800.6821 724.4941 1821.5711 643.57867 1846.5664 567.17578 C 1849.7544 553.01193 1809.1981 516.92303 1801.0312 502.8125 C 1796.9363 495.73686 1792.2358 492.75493 1786.8906 492.85938 z "
       transform="scale(0.26458333)"
       id="path4617" />
    <path
       sodipodi:nodetypes="csccccc"
       inkscape:connector-curvature="0"
       id="path4623"
       d="m 388.87034,142.67107 c 0.63756,17.86329 26.80159,25.67428 40.41158,28.77296 13.60998,3.09871 34.79723,-25.64769 49.34918,-45.5255 -11.31484,-1.8394 -24.27458,-3.53044 -29.96943,-5.27715 -14.63378,7.45604 -16.76304,12.72603 -20.5198,-0.93752 -12.45192,0.78209 -25.75311,2.25631 -37.14561,4.32444 z"
       style="fill:#ff6600;fill-opacity:1;stroke:#ff6600;stroke-width:1.10710096px;stroke-linecap:butt;stroke-linejoin:miter;stroke-opacity:1" />
    <path
       style="fill:url(#linearGradient4390);fill-opacity:1;stroke:none;stroke-width:1.10710096px;stroke-linecap:butt;stroke-linejoin:miter;stroke-opacity:1"
       d="m 474.77201,144.16544 c 0,0 5.40696,80.06684 3.88587,88.7628 -1.52108,8.69601 14.4334,12.39817 12.92489,6.27354 -1.50852,-6.12477 20.44044,-83.49243 -6.34966,-109.32647 -16.57071,-14.40171 -10.4611,14.29013 -10.4611,14.29013 z"
       id="path4640"
       inkscape:connector-curvature="0"
       sodipodi:nodetypes="ccccc" />
    <g
       id="g4352" />
    <g
       id="g4367"
       transform="matrix(1.4966161,0,0,1.4966161,-296.93338,-141.60072)">
      <path
         inkscape:connector-curvature="0"
         id="path4489"
         d="m 485.10892,134.64823 c 0,0 -0.83466,4.96272 -1.89371,7.32295 2.69357,1.64472 4.72384,-0.70642 4.72384,-0.70642"
         style="fill:url(#linearGradient4374);fill-opacity:1;stroke:none;stroke-width:0.60180032;stroke-linecap:butt;stroke-linejoin:miter;stroke-miterlimit:4;stroke-dasharray:none;stroke-opacity:1"
         sodipodi:nodetypes="ccc" />
      <ellipse
         style="fill:#000000;fill-opacity:1;stroke:none;stroke-width:9.52195072;stroke-linejoin:bevel;stroke-opacity:1;paint-order:markers fill stroke"
         id="path4351"
         cx="475.04489"
         cy="135.68735"
         rx="5.8077593"
         ry="8.3106861" />
      <ellipse
         cy="135.92023"
         cx="497.51645"
         id="circle4353"
         style="fill:#000000;fill-opacity:1;stroke:none;stroke-width:11.49811649;stroke-linejoin:bevel;stroke-opacity:1;paint-order:markers fill stroke"
         rx="7.5345449"
         ry="9.3409281" />
      <path
         style="fill:none;stroke:#000000;stroke-width:1.03434443;stroke-linecap:butt;stroke-linejoin:miter;stroke-miterlimit:4;stroke-dasharray:none;stroke-opacity:1"
         d="m 479.93151,134.54807 c 0,0 4.30039,-4.95804 10.66746,1.9126"
         id="path4366"
         inkscape:connector-curvature="0" />
      <path
         inkscape:connector-curvature="0"
         id="path4368"
         d="m 502.8588,136.36318 c 0,0 4.30039,-4.95804 10.66746,1.9126"
         style="fill:none;stroke:#000000;stroke-width:1.03434443;stroke-linecap:butt;stroke-linejoin:miter;stroke-miterlimit:4;stroke-dasharray:none;stroke-opacity:1" />
      <path
         style="fill:none;stroke:#000000;stroke-width:1.03434443;stroke-linecap:butt;stroke-linejoin:miter;stroke-miterlimit:4;stroke-dasharray:none;stroke-opacity:1"
         d="m 471.91954,136.80945 c 0,0 -2.63981,-4.37625 -5.34986,-4.41026"
         id="path4370"
         inkscape:connector-curvature="0"
         sodipodi:nodetypes="cc" />
      <path
         style="fill:url(#linearGradient4365);fill-opacity:1;stroke:none;stroke-width:1.22372854px;stroke-linecap:butt;stroke-linejoin:miter;stroke-opacity:1"
         d="M 1690.5293 15.607422 C 1685.7311 15.772171 1678.6106 18.679622 1668.5527 25.216797 C 1668.5527 25.216797 1661.086 34.555302 1651.9297 47.375 C 1650.0141 44.902457 1648.6289 43.140625 1648.6289 43.140625 C 1611.9876 19.325317 1614.3382 43.687282 1625.9668 73.347656 C 1588.4506 73.674768 1529.8047 90.993046 1507.584 100.75195 C 1502.2595 103.09038 1497.5295 105.72156 1493.3984 108.56641 C 1473.596 97.377635 1452.7227 88.394531 1452.7227 88.394531 C 1410.6159 84.736166 1429.947 107.10503 1455.1328 126.90234 C 1426.5935 124.68519 1404.1455 128.73928 1434.1191 153.42773 C 1434.1191 153.42773 1456.1729 161.96227 1478.6113 167.85742 C 1473.5499 174.85127 1470.2832 179.71484 1470.2832 179.71484 C 1456.5797 229.05582 1496.9478 196.75524 1523.293 170.63281 C 1569.5229 162.41617 1635.3125 130.1875 1635.3125 130.1875 C 1635.3125 130.1875 1701.8664 166.96371 1751.668 181.98828 C 1753.3598 185.99528 1756.4036 190.5911 1760.2246 195.41602 C 1749.3577 230.00692 1753.0342 309.30378 1710.9668 330.03125 C 1676.8569 339.53337 1612.8331 351.87951 1541.6953 337.83594 C 1541.6953 337.83594 1543.6725 362.28495 1494.5391 478.7168 C 1623.0016 451.44327 1685.7915 418.61262 1715.6602 390.02344 C 1732.619 378.37611 1760.2712 331.47466 1780.9082 280.99023 C 1783.8212 288.24352 1785.9258 293.0332 1785.9258 293.0332 C 1821.4592 332.36748 1814.1498 275.92563 1805.8027 239.65039 C 1808.0519 241.51445 1809.6973 242.85742 1809.6973 242.85742 C 1856.5474 260.27741 1830.2661 219.74464 1806.8594 191.32031 C 1806.921 190.82407 1806.9684 190.34175 1807.0254 189.84961 C 1810.3362 180.69962 1813.2421 171.37808 1814.7773 163.36719 C 1815.3751 161.22851 1815.7008 159.05177 1815.7441 156.85547 C 1816.0032 154.12371 1816.0256 151.64695 1815.748 149.51953 C 1815.0905 148.1416 1814.388 146.88413 1813.6504 145.72656 C 1809.302 134.70634 1798.2582 124.10564 1781.0605 116.55273 C 1762.9964 108.6193 1717.5383 92.786287 1678.4492 84.71875 C 1678.3421 84.551609 1678.2362 84.383707 1678.1289 84.216797 C 1693.3444 54.231917 1708.8265 14.979171 1690.5293 15.607422 z "
         transform="matrix(0.17678771,0,0,0.17678771,198.40317,94.613923)"
         id="path4372" />
    </g>
    <path
       style="fill:#000000;fill-opacity:1;stroke:#000000;stroke-width:0.32377815px;stroke-linecap:butt;stroke-linejoin:miter;stroke-opacity:1"
       d="m 428.51912,119.29995 c 7.54553,2.31356 12.57654,1.29908 20.30408,0.58888 -6.86526,16.85137 -6.80948,89.21077 -15.38581,128.51889 -2.86651,-0.26669 -6.70355,0.53091 -6.89495,-0.40699 -9.82708,-55.79661 4.90384,-100.79529 1.97668,-128.70078 z"
       id="path4304"
       inkscape:connector-curvature="0"
       sodipodi:nodetypes="ccccc" />
    <circle
       style="display:inline;fill:#ff6600;fill-opacity:1;stroke:none;stroke-width:42.014328;stroke-linejoin:bevel;stroke-opacity:1;paint-order:markers fill stroke"
       id="path4299"
       cx="478.51077"
       cy="135.95491"
       r="14.60288" />
    <path
       style="fill:url(#linearGradient4356);fill-opacity:1;stroke:none;stroke-width:1.38045609px;stroke-linecap:butt;stroke-linejoin:miter;stroke-opacity:1"
       d="M 1607.8965 448.79688 L 1585.0312 472.83203 L 1606.9961 475.79492 L 1647.8887 456.25977 A 9.7234185 9.7234185 0 0 0 1646.4961 461.25 A 9.7234185 9.7234185 0 0 0 1646.8047 463.64844 L 1630.3496 477.39648 L 1629.6367 494.26562 L 1640.9805 487.30273 L 1649.8164 468.55859 A 9.7234185 9.7234185 0 0 0 1654.002 470.70703 L 1614.0332 642.82031 L 1622.8359 716.88281 L 1661.2598 652.01367 L 1655.084 470.90039 A 9.7234185 9.7234185 0 0 0 1656.2188 470.97461 A 9.7234185 9.7234185 0 0 0 1661.707 469.26367 L 1670.2109 487.30273 L 1681.5547 494.26562 L 1680.8418 477.39648 L 1665.3789 464.47656 A 9.7234185 9.7234185 0 0 0 1665.9434 461.25 A 9.7234185 9.7234185 0 0 0 1664.625 456.38477 L 1705.2539 475.79492 L 1727.2188 472.83203 L 1708.5352 451.81836 L 1658.3828 451.24414 L 1658.4941 451.19141 L 1607.8965 448.79688 z "
       transform="scale(0.26458333)"
       id="path4312" />
    <path
       inkscape:connector-curvature="0"
       id="path4519"
       d="m 413.16161,96.656819 c 0,0 17.41042,4.059851 22.96727,0.962599"
       style="display:inline;fill:none;fill-opacity:1;stroke:#aeaeae;stroke-width:1.077;stroke-linecap:round;stroke-linejoin:miter;stroke-miterlimit:4;stroke-dasharray:none;stroke-opacity:1"
       sodipodi:nodetypes="cc" />
    <path
       sodipodi:nodetypes="cc"
       style="display:inline;fill:none;fill-opacity:1;stroke:#aeaeae;stroke-width:1.07700002;stroke-linecap:round;stroke-linejoin:miter;stroke-miterlimit:4;stroke-dasharray:none;stroke-opacity:1"
       d="m 437.80079,92.336865 c 0,0 -5.02951,7.251718 3.70958,9.335025"
       id="path4349"
       inkscape:connector-curvature="0" />
    <circle
       style="fill:#000000;fill-opacity:1;stroke-width:1.54801655;stroke-linejoin:bevel;paint-order:markers fill stroke"
       id="path4306"
       cx="455.46283"
       cy="154.18237"
       r="2.6534135"
       transform="rotate(3.5924424)" />
    <circle
       style="fill:#000000;fill-opacity:1;stroke-width:1.54801655;stroke-linejoin:bevel;paint-order:markers fill stroke"
       id="path4308"
       cx="454.60172"
       cy="174.85825"
       r="2.9276183"
       transform="rotate(3.5924424)" />
    <circle
       style="fill:#000000;fill-opacity:1;stroke-width:1.54801655;stroke-linejoin:bevel;paint-order:markers fill stroke"
       id="path4310"
       cx="455.03226"
       cy="164.52031"
       r="2.706913"
       transform="rotate(3.5924424)" />
    <g
       transform="matrix(0.21481879,0.02741526,-0.02741526,0.21481879,426.24752,103.17769)"
       id="g4342">
      <g
         transform="matrix(11.239459,0,0,11.239459,-975.15717,-1061.2053)"
         id="g4355">
        <g
           aria-label="BG IST"
           transform="matrix(0.26458333,0,0,0.26458333,-0.08620094,-0.49473256)"
           style="font-style:normal;font-weight:normal;font-size:13.33333397px;line-height:1.25;font-family:sans-serif;letter-spacing:0px;word-spacing:0px;fill:#ffffff;fill-opacity:1;stroke:none"
           id="flowRoot4271">
          <g
             id="g4318">
            <path
               inkscape:connector-curvature="0"
               id="path4305"
               style="font-style:normal;font-variant:normal;font-weight:bold;font-stretch:normal;font-size:17.33333397px;font-family:'League Gothic';-inkscape-font-specification:'League Gothic Bold';text-align:center;text-anchor:middle;fill:#ffffff;fill-opacity:1"
               d="m 379.23565,417.4262 c 2.236,-0.0867 2.89466,-1.73333 2.89466,-3.60534 0,-2.53066 -1.3,-3.12 -1.3,-3.12 0.90134,-0.78 1.16134,-1.456 1.16134,-2.63466 0,-2.53067 -1.17867,-3.38 -3.41467,-3.38 -0.71067,0 -1.64667,0 -1.64667,0 v 12.74 z m 0.95333,-3.81334 c 0,2.09734 -1.04,1.95867 -1.38667,1.95867 v -3.91733 c 0.34667,0 1.38667,-0.13867 1.38667,1.95866 z m 0,-5.37333 c 0,1.75067 -1.04,1.69867 -1.38667,1.69867 v -3.39734 c 0.34667,0 1.38667,-0.052 1.38667,1.69867 z" />
            <path
               inkscape:connector-curvature="0"
               id="path4307"
               style="font-style:normal;font-variant:normal;font-weight:bold;font-stretch:normal;font-size:17.33333397px;font-family:'League Gothic';-inkscape-font-specification:'League Gothic Bold';text-align:center;text-anchor:middle;fill:#ffffff;fill-opacity:1"
               d="m 388.09785,409.2622 v -1.95867 c 0,0 0.0173,-2.756 -2.496,-2.756 -2.51333,0 -2.496,2.756 -2.496,2.756 v 7.50534 c 0,0 -0.17333,2.756 2.20134,2.756 0.58933,0 1.10933,-0.312 1.456,-0.74534 l 0.22533,0.60667 h 1.10933 v -6.344 h -2.61733 v 1.57733 h 0.74533 v 2.30534 c 0,0 0.0347,0.936 -0.624,0.936 -0.65866,0 -0.624,-0.936 -0.624,-0.936 v -7.66134 c 0,0 -0.0347,-0.936 0.624,-0.936 0.65867,0 0.624,0.936 0.624,0.936 v 1.95867 z" />
          </g>
          <path
             inkscape:connector-curvature="0"
             d="m 375.84698,439.09285 h 1.872 v -12.74 h -1.872 z"
             style="font-style:normal;font-variant:normal;font-weight:bold;font-stretch:normal;font-size:17.33333397px;font-family:'League Gothic';-inkscape-font-specification:'League Gothic Bold';text-align:center;text-anchor:middle;fill:#ffffff;fill-opacity:1"
             id="path4309" />
          <path
             inkscape:connector-curvature="0"
             d="m 378.97565,429.19552 c 0,1.36933 0.832,2.66933 1.716,3.96933 0.71066,1.07467 1.508,2.09734 1.508,2.94667 0,0.79733 -0.208,1.404 -0.76267,1.404 -0.78,0 -0.884,-1.10933 -0.884,-2.16667 l -1.83733,0.17334 c 0,1.88933 0.312,3.70933 2.72133,3.70933 2.04533,0 2.6,-1.508 2.6,-3.20667 0,-1.36933 -0.884,-2.63466 -1.75067,-3.93466 -0.728,-1.05734 -1.47333,-2.028 -1.47333,-2.89467 0,-0.728 0.156,-1.248 0.64133,-1.26533 0.624,0 0.74534,0.988 0.74534,1.83733 l 1.83733,-0.17333 c 0,-1.42134 -0.364,-3.432 -2.61733,-3.38 -1.768,0.0347 -2.444,1.59466 -2.444,2.98133 z"
             style="font-style:normal;font-variant:normal;font-weight:bold;font-stretch:normal;font-size:17.33333397px;font-family:'League Gothic';-inkscape-font-specification:'League Gothic Bold';text-align:center;text-anchor:middle;fill:#ffffff;fill-opacity:1"
             id="path4311" />
          <path
             inkscape:connector-curvature="0"
             d="m 386.16465,428.27685 v 10.816 h 1.872 v -10.816 h 1.768 v -1.924 h -5.408 v 1.924 z"
             style="font-style:normal;font-variant:normal;font-weight:bold;font-stretch:normal;font-size:17.33333397px;font-family:'League Gothic';-inkscape-font-specification:'League Gothic Bold';text-align:center;text-anchor:middle;fill:#ffffff;fill-opacity:1"
             id="path4313" />
        </g>
        <g
           id="g4303"
           transform="matrix(1.0780464,-0.6224104,0.6224104,1.0780464,-75.54707,54.686524)">
          <path
             inkscape:connector-curvature="0"
             id="path4285"
             d="M 99.218749,107.02917 H 103.1875"
             style="fill:none;stroke:#ff6600;stroke-width:0.26458332px;stroke-linecap:butt;stroke-linejoin:miter;stroke-opacity:1" />
          <path
             inkscape:connector-curvature="0"
             id="path4287"
             d="M 103.1875,107.55833 H 99.218749"
             style="fill:none;stroke:#ff6600;stroke-width:0.26458332px;stroke-linecap:butt;stroke-linejoin:miter;stroke-opacity:1" />
          <path
             inkscape:connector-curvature="0"
             id="path4289"
             d="M 99.218749,108.0875 H 103.1875"
             style="fill:none;stroke:#ff6600;stroke-width:0.26458332px;stroke-linecap:butt;stroke-linejoin:miter;stroke-opacity:1" />
          <path
             inkscape:connector-curvature="0"
             id="path4291"
             d="M 103.1875,108.61667 H 99.218749"
             style="fill:none;stroke:#ff6600;stroke-width:0.26458332px;stroke-linecap:butt;stroke-linejoin:miter;stroke-opacity:1" />
          <path
             inkscape:connector-curvature="0"
             id="path4293"
             d="M 99.218749,109.14583 H 103.1875"
             style="fill:none;stroke:#ff6600;stroke-width:0.26458332px;stroke-linecap:butt;stroke-linejoin:miter;stroke-opacity:1" />
          <path
             inkscape:connector-curvature="0"
             id="path4295"
             d="M 103.1875,109.675 H 99.218749"
             style="fill:none;stroke:#ff6600;stroke-width:0.26458332px;stroke-linecap:butt;stroke-linejoin:miter;stroke-opacity:1" />
        </g>
        <g
           transform="matrix(1.0780464,-0.6224104,0.6224104,1.0780464,-75.337077,60.268118)"
           id="g4332">
          <path
             style="fill:none;stroke:#ff6600;stroke-width:0.26458332px;stroke-linecap:butt;stroke-linejoin:miter;stroke-opacity:1"
             d="M 99.218749,107.02917 H 103.1875"
             id="path4320"
             inkscape:connector-curvature="0" />
          <path
             style="fill:none;stroke:#ff6600;stroke-width:0.26458332px;stroke-linecap:butt;stroke-linejoin:miter;stroke-opacity:1"
             d="M 103.1875,107.55833 H 99.218749"
             id="path4322"
             inkscape:connector-curvature="0" />
          <path
             style="fill:none;stroke:#ff6600;stroke-width:0.26458332px;stroke-linecap:butt;stroke-linejoin:miter;stroke-opacity:1"
             d="M 99.218749,108.0875 H 103.1875"
             id="path4324"
             inkscape:connector-curvature="0" />
          <path
             style="fill:none;stroke:#ff6600;stroke-width:0.26458332px;stroke-linecap:butt;stroke-linejoin:miter;stroke-opacity:1"
             d="M 103.1875,108.61667 H 99.218749"
             id="path4326"
             inkscape:connector-curvature="0" />
          <path
             style="fill:none;stroke:#ff6600;stroke-width:0.26458332px;stroke-linecap:butt;stroke-linejoin:miter;stroke-opacity:1"
             d="M 99.218749,109.14583 H 103.1875"
             id="path4328"
             inkscape:connector-curvature="0" />
          <path
             style="fill:none;stroke:#ff6600;stroke-width:0.26458332px;stroke-linecap:butt;stroke-linejoin:miter;stroke-opacity:1"
             d="M 103.1875,109.675 H 99.218749"
             id="path4330"
             inkscape:connector-curvature="0" />
        </g>
      </g>
    </g>
    <path
       style="display:inline;fill:#000000;fill-opacity:1;stroke:none;stroke-width:0.2255417px;stroke-linecap:butt;stroke-linejoin:miter;stroke-opacity:1"
       d="m 385.79145,425.6959 c 3.70252,0.29953 27.24308,0.9664 28.44674,0.10341 3.61928,-6.65255 6.05383,0.48111 6.76517,0.37655 1.03534,-0.20387 10.42549,0.11332 10.54046,-1.3225 0.11491,-1.43588 2.22388,-21.72184 0.70356,-24.52345 -0.22632,-0.41703 -4.97282,-49.61566 -7.05557,-53.34269 -7.81782,-13.98966 -22.17004,1.8756 -25.93745,3.12369 -1.97189,0.65327 13.32336,50.5662 13.92482,52.93133 -4.69205,13.46446 -23.56988,14.75941 -34.00301,10.14428 -2.34453,5.9557 3.91993,12.10523 6.61528,12.50923 z"
       id="path4302"
       inkscape:connector-curvature="0"
       sodipodi:nodetypes="cccccsscccc" />
    <path
       sodipodi:nodetypes="cccsscc"
       inkscape:connector-curvature="0"
       id="path4306-7"
       d="m 454.99046,426.9775 c 1.03537,-0.20386 11.33997,-0.68815 11.45496,-2.12403 0.1149,-1.43589 2.22385,-21.72184 0.70353,-24.52345 -0.2263,-0.41704 -1.3487,-48.39843 -3.43146,-52.12544 -7.8178,-13.98967 -22.17002,1.87557 -25.9374,3.12366 -1.97189,0.65325 7.85831,49.94082 8.45978,52.30593 -11.37675,28.19344 -11.74226,20.00433 8.75059,23.34333 z"
       style="display:inline;fill:#000000;fill-opacity:1;stroke:none;stroke-width:0.2255417px;stroke-linecap:butt;stroke-linejoin:miter;stroke-opacity:1" />
    <rect
       style="display:inline;fill:#c83737;fill-opacity:1;stroke:none;stroke-width:2.08972573;stroke-linejoin:bevel;stroke-miterlimit:4;stroke-dasharray:none;stroke-opacity:1;paint-order:markers fill stroke"
       id="rect4384"
       width="7.4399314"
       height="8.4566793"
       x="512.40179"
       y="-218.45622"
       transform="matrix(0.50235103,0.86466377,-0.23798681,0.97126839,0,0)" />
    <path
       style="display:inline;fill:#ffb380;stroke:none;stroke-width:0.26458332px;stroke-linecap:butt;stroke-linejoin:miter;stroke-opacity:1;fill-opacity:1"
       d="m 319.26081,210.93692 c 0,0 -0.68453,-4.51098 0.56825,-7.83341 1.25277,-3.32242 1.94487,-2.79458 2.66022,-2.55853 0.71536,0.23605 -0.69543,4.38451 0.43188,6.47487 1.12731,2.09036 3.36376,4.06453 3.6884,4.07524 0.32464,0.0107 -2.5314,5.49265 -7.34875,-0.15817 z"
       id="path4355"
       inkscape:connector-curvature="0" />
  </g>
  <g
     inkscape:groupmode="layer"
     id="layer2"
     inkscape:label="Decor"
     style="opacity:0.18600003"
     transform="translate(0,-11.249983)" />
</svg>
