<?xml version="1.0" encoding="UTF-8" standalone="no"?>
<!-- Created with Inkscape (http://www.inkscape.org/) -->

<svg
   xmlns:dc="http://purl.org/dc/elements/1.1/"
   xmlns:cc="http://creativecommons.org/ns#"
   xmlns:rdf="http://www.w3.org/1999/02/22-rdf-syntax-ns#"
   xmlns:svg="http://www.w3.org/2000/svg"
   xmlns="http://www.w3.org/2000/svg"
   xmlns:sodipodi="http://sodipodi.sourceforge.net/DTD/sodipodi-0.dtd"
   xmlns:inkscape="http://www.inkscape.org/namespaces/inkscape"
   width="1920"
   height="1080"
   viewBox="0 0 508.00002 285.74999"
   version="1.1"
   id="svg8"
   inkscape:version="0.92+devel unknown"
   sodipodi:docname="bg ann.svg"
   inkscape:export-filename="/home/mbrickn/Projects/OO/game/images/characters/chibi ann.png"
   inkscape:export-xdpi="90"
   inkscape:export-ydpi="90">
  <defs
     id="defs2" />
  <sodipodi:namedview
     id="base"
     pagecolor="#ffffff"
     bordercolor="#666666"
     borderopacity="1.0"
     inkscape:pageopacity="0.0"
     inkscape:pageshadow="2"
     inkscape:zoom="0.087500002"
     inkscape:cx="2139.5611"
     inkscape:cy="-396.64037"
     inkscape:document-units="mm"
     inkscape:current-layer="layer1"
     showgrid="false"
     inkscape:window-width="1920"
     inkscape:window-height="1016"
     inkscape:window-x="0"
     inkscape:window-y="0"
     inkscape:window-maximized="1"
     fit-margin-top="0"
     fit-margin-left="0"
     fit-margin-right="0"
     fit-margin-bottom="0"
     units="px"
     inkscape:document-rotation="0">
    <inkscape:grid
       type="xygrid"
       id="grid10"
       originx="-65.484378"
       originy="-46.167127" />
  </sodipodi:namedview>
  <metadata
     id="metadata5">
    <rdf:RDF>
      <cc:Work
         rdf:about="">
        <dc:format>image/svg+xml</dc:format>
        <dc:type
           rdf:resource="http://purl.org/dc/dcmitype/StillImage" />
        <dc:title />
        <cc:license
           rdf:resource="http://creativecommons.org/licenses/by/4.0/" />
      </cc:Work>
      <cc:License
         rdf:about="http://creativecommons.org/licenses/by/4.0/">
        <cc:permits
           rdf:resource="http://creativecommons.org/ns#Reproduction" />
        <cc:permits
           rdf:resource="http://creativecommons.org/ns#Distribution" />
        <cc:requires
           rdf:resource="http://creativecommons.org/ns#Notice" />
        <cc:requires
           rdf:resource="http://creativecommons.org/ns#Attribution" />
        <cc:permits
           rdf:resource="http://creativecommons.org/ns#DerivativeWorks" />
      </cc:License>
    </rdf:RDF>
  </metadata>
  <g
     inkscape:groupmode="layer"
     id="layer3"
     inkscape:label="Legs"
     transform="translate(-65.484376,34.917125)" />
  <g
     inkscape:groupmode="layer"
     id="layer2"
     inkscape:label="Body"
     transform="translate(-65.484376,34.917125)" />
  <g
     inkscape:label="Head"
     inkscape:groupmode="layer"
     id="layer1"
     transform="translate(-65.484376,34.917125)">
    <g
       id="g4319"
       transform="matrix(23.128815,0,0,23.128815,-1623.4567,-4907.559)">
      <path
         inkscape:connector-curvature="0"
         id="path4498"
         d="m 84.005209,205.71876 c 0,0 -15.875,0 -15.875,15.875 -0.09449,6.66183 0,6.61458 0,6.61458 0,0 0,2.64583 -2.645833,2.64583 0,0 0,3.96875 3.96875,3.96875 h 1.322916 26.458334 1.32292 c 3.968744,0 3.968754,-3.96875 3.968754,-3.96875 -2.645844,0 -2.645844,-2.64583 -2.645844,-2.64583 0,0 0.0945,0.0472 0,-6.61458 0,-15.875 -15.874997,-15.875 -15.874997,-15.875 z"
         style="fill:#8800aa;stroke:none;stroke-width:0.26458332px;stroke-linecap:butt;stroke-linejoin:miter;stroke-opacity:1" />
      <circle
         style="fill:#deaa87;stroke-width:0.26458332"
         r="15.213541"
         cy="223.71986"
         cx="84.005211"
         id="path14" />
      <path
         inkscape:connector-curvature="0"
         id="path4517"
         d="m 68.791666,220.51136 c 0,0 27.781249,1.92424 30.427083,0.96213 -4.003982,-6.85929 -13.229167,-11.54546 -13.229167,-11.54546 l -7.9375,0.96212 -7.9375,6.73485 z"
         style="fill:#cd9d7d;fill-opacity:1;stroke:none;stroke-width:0.22563741px;stroke-linecap:butt;stroke-linejoin:miter;stroke-opacity:1" />
      <path
         sodipodi:nodetypes="cscsc"
         inkscape:connector-curvature="0"
         id="path4507"
         d="m 72.760417,226.88542 c 0,0 -10e-7,-0.75596 3.968749,-0.75596 3.96875,0 3.968751,0.75596 3.968751,0.75596 0,0 -6e-6,-7.9375 -3.968756,-7.9375 -3.96875,0 -3.968744,7.9375 -3.968744,7.9375 z"
         style="fill:#ffffff;fill-opacity:1;stroke:none;stroke-width:0.26458332px;stroke-linecap:butt;stroke-linejoin:miter;stroke-opacity:1" />
      <ellipse
         ry="1.984375"
         rx="1.3229166"
         cy="220.76447"
         cx="76.729164"
         id="path4513"
         style="fill:#55d400;fill-opacity:1;stroke:none;stroke-width:0.26499999;stroke-miterlimit:4;stroke-dasharray:none" />
      <path
         sodipodi:nodetypes="ccscsc"
         inkscape:connector-curvature="0"
         id="path4501"
         d="m 68.791666,220.51136 c 0,0 16.725447,1e-5 17.197916,-10.58333 -0.57,-0.50091 -0.621297,-1.39937 -1.142264,-1.99824 -0.515418,-0.59251 -1.503569,-0.88812 -1.503569,-0.88812 0,0 -10.364308,0.56389 -13.229167,5.77273 -2.645832,4.8106 -1.322916,7.69696 -1.322916,7.69696 z"
         style="fill:#8800aa;fill-opacity:1;stroke:none;stroke-width:0.22599274;stroke-linecap:butt;stroke-linejoin:miter;stroke-miterlimit:4;stroke-dasharray:none;stroke-opacity:1" />
      <path
         style="fill:#ffffff;fill-opacity:1;stroke:none;stroke-width:0.26458332px;stroke-linecap:butt;stroke-linejoin:miter;stroke-opacity:1"
         d="m 88.635417,226.88542 c 0,0 -10e-7,-0.75596 3.968749,-0.75596 3.96875,0 3.968751,0.75596 3.968751,0.75596 0,0 -6e-6,-7.9375 -3.968756,-7.9375 -3.96875,0 -3.968744,7.9375 -3.968744,7.9375 z"
         id="path4533"
         inkscape:connector-curvature="0"
         sodipodi:nodetypes="cscsc" />
      <ellipse
         style="fill:#55d400;fill-opacity:1;stroke:none;stroke-width:0.26499999;stroke-miterlimit:4;stroke-dasharray:none"
         id="ellipse4535"
         cx="92.604164"
         cy="220.76447"
         rx="1.3229166"
         ry="1.984375" />
      <path
         style="fill:#8800aa;fill-opacity:1;stroke:none;stroke-width:0.22599274;stroke-linecap:butt;stroke-linejoin:miter;stroke-miterlimit:4;stroke-dasharray:none;stroke-opacity:1"
         d="m 99.21875,221.85833 c 0,0 -15.402531,-2.30908 -15.875,-12.89242 1.133928,-0.99648 1.322917,-0.96212 1.322917,-0.96212 0,0 10.364308,0.56389 13.229167,5.77273 2.645836,4.8106 1.322916,8.08181 1.322916,8.08181 z"
         id="path4503"
         inkscape:connector-curvature="0"
         sodipodi:nodetypes="cccsc" />
      <path
         inkscape:connector-curvature="0"
         id="path4511"
         d="m 74.083332,228.20833 c 0,0 0,1.32292 9.260417,1.32292 9.260417,0 9.260417,-1.32292 9.260417,-1.32292 0,0 -2.645834,7.9375 -9.260417,7.9375 -6.614583,0 -9.260417,-7.9375 -9.260417,-7.9375 z"
         style="fill:#ff5555;stroke:none;stroke-width:0.26458332px;stroke-linecap:butt;stroke-linejoin:miter;stroke-opacity:1" />
      <path
         sodipodi:nodetypes="cccc"
         inkscape:connector-curvature="0"
         id="path4525"
         d="m 88.286138,229.34385 c 0,0 0.151357,0.40496 -0.149567,0.91433 1.31968,0.0925 1.131426,-1.00539 1.131426,-1.00539 z"
         style="fill:#ffffff;fill-opacity:1;stroke:none;stroke-width:0.22049123px;stroke-linecap:butt;stroke-linejoin:miter;stroke-opacity:1" />
      <path
         transform="scale(0.26458333)"
         inkscape:connector-curvature="0"
         id="path4542"
         d="m 280,862.51953 c 0,0 0.008,0.0965 0.0937,0.25391 C 280.0815,862.73804 280,862.51953 280,862.51953 Z m 0.0937,0.25391 c 0.37564,1.09246 6.50513,18.39944 20.7168,26.12695 a 9.4070453,22.16022 78.459244 0 1 19.23047,-10.39453 9.4070453,22.16022 78.459244 0 1 20.24023,1.01953 c 6.43795,-7.7393 9.36747,-16.00299 9.625,-16.75195 -0.55086,1.00949 -4.62708,4.74609 -34.90625,4.74609 -30.27917,0 -34.35539,-3.7366 -34.90625,-4.74609 z m 69.8125,0 c 0.0859,-0.15739 0.0937,-0.25391 0.0937,-0.25391 0,0 -0.0816,0.21848 -0.0937,0.25391 z"
         style="fill:#2b0000;stroke:none;stroke-width:0.99999994px;stroke-linecap:butt;stroke-linejoin:miter;stroke-opacity:1" />
      <path
         inkscape:connector-curvature="0"
         id="path4495"
         d="m 68.791666,220.51136 c 0,0 0.644977,3.43709 2.404226,4.33608 -0.696565,-4.93028 0.301598,-6.67502 0.301598,-6.67502 z"
         style="fill:#8800aa;fill-opacity:1;stroke:none;stroke-width:0.26458332px;stroke-linecap:butt;stroke-linejoin:miter;stroke-opacity:1" />
      <path
         style="fill:#8800aa;fill-opacity:1;stroke:none;stroke-width:0.26458332px;stroke-linecap:butt;stroke-linejoin:miter;stroke-opacity:1"
         d="m 78.637165,216.36426 c 0,0 2.57148,2.37004 2.400317,4.33824 -3.809892,-3.20586 -5.818409,-3.28526 -5.818409,-3.28526 z"
         id="path4497"
         inkscape:connector-curvature="0" />
      <path
         inkscape:connector-curvature="0"
         id="path4499"
         d="m 90.656961,216.36426 c 0,0 -2.57148,2.37004 -2.400317,4.33824 3.809892,-3.20586 5.818409,-3.28526 5.818409,-3.28526 z"
         style="fill:#8800aa;fill-opacity:1;stroke:none;stroke-width:0.26458332px;stroke-linecap:butt;stroke-linejoin:miter;stroke-opacity:1" />
      <path
         inkscape:connector-curvature="0"
         id="path4509"
         d="m 84.548548,222.18434 c 0,0 -0.212612,3.63802 0.661458,4.01599 -1.346539,1.01581 -2.078868,0.87407 -2.078868,0.87407"
         style="fill:none;stroke:#cd9d7d;stroke-width:0.26458332px;stroke-linecap:butt;stroke-linejoin:miter;stroke-opacity:1" />
      <circle
         r="1.1811756"
         cy="230.16908"
         cx="95.202759"
         id="path4512"
         style="fill:#8800aa;fill-opacity:0.1;stroke:none;stroke-width:0.26499999;stroke-miterlimit:4;stroke-dasharray:none;stroke-opacity:1" />
      <circle
         style="fill:#8800aa;fill-opacity:0.1;stroke:none;stroke-width:0.26499999;stroke-miterlimit:4;stroke-dasharray:none;stroke-opacity:1"
         id="circle4514"
         cx="72.571434"
         cy="230.16908"
         r="1.1811756" />
      <path
         sodipodi:nodetypes="cscscsc"
         inkscape:connector-curvature="0"
         id="path4538"
         d="m 82.478684,231.03241 c 0,0 0.755543,1.208 1.015928,1.16104 0.260376,-0.0469 0.546374,-1.44277 0.546374,-1.44277 0,0 -0.170363,-0.58336 -0.430749,-0.53641 -0.260376,0.0469 -0.350402,0.67727 -0.350402,0.67727 0,0 -0.359095,-0.53236 -0.619479,-0.4854 -0.260378,0.0469 -0.161672,0.62627 -0.161672,0.62627 z"
         style="fill:#2b0000;fill-opacity:1;stroke:none;stroke-width:0.26458332px;stroke-linecap:butt;stroke-linejoin:miter;stroke-opacity:1" />
    </g>
  </g>
</svg>
