<?xml version="1.0" encoding="UTF-8" standalone="no"?>
<!-- Created with Inkscape (http://www.inkscape.org/) -->

<svg
   xmlns:dc="http://purl.org/dc/elements/1.1/"
   xmlns:cc="http://creativecommons.org/ns#"
   xmlns:rdf="http://www.w3.org/1999/02/22-rdf-syntax-ns#"
   xmlns:svg="http://www.w3.org/2000/svg"
   xmlns="http://www.w3.org/2000/svg"
   xmlns:sodipodi="http://sodipodi.sourceforge.net/DTD/sodipodi-0.dtd"
   xmlns:inkscape="http://www.inkscape.org/namespaces/inkscape"
   width="1920"
   height="1080"
   viewBox="0 0 507.99999 285.75001"
   version="1.1"
   id="svg8"
   inkscape:version="0.92+devel unknown"
   sodipodi:docname="heart.svg">
  <defs
     id="defs2" />
  <sodipodi:namedview
     id="base"
     pagecolor="#ffffff"
     bordercolor="#666666"
     borderopacity="1.0"
     inkscape:pageopacity="0.0"
     inkscape:pageshadow="2"
     inkscape:zoom="0.24748737"
     inkscape:cx="1067.5311"
     inkscape:cy="-95.99512"
     inkscape:document-units="mm"
     inkscape:current-layer="layer1"
     inkscape:document-rotation="0"
     showgrid="false"
     units="px"
     inkscape:window-width="1920"
     inkscape:window-height="1016"
     inkscape:window-x="0"
     inkscape:window-y="0"
     inkscape:window-maximized="1" />
  <metadata
     id="metadata5">
    <rdf:RDF>
      <cc:Work
         rdf:about="">
        <dc:format>image/svg+xml</dc:format>
        <dc:type
           rdf:resource="http://purl.org/dc/dcmitype/StillImage" />
        <dc:title></dc:title>
        <cc:license
           rdf:resource="http://creativecommons.org/licenses/by/4.0/" />
      </cc:Work>
      <cc:License
         rdf:about="http://creativecommons.org/licenses/by/4.0/">
        <cc:permits
           rdf:resource="http://creativecommons.org/ns#Reproduction" />
        <cc:permits
           rdf:resource="http://creativecommons.org/ns#Distribution" />
        <cc:requires
           rdf:resource="http://creativecommons.org/ns#Notice" />
        <cc:requires
           rdf:resource="http://creativecommons.org/ns#Attribution" />
        <cc:permits
           rdf:resource="http://creativecommons.org/ns#DerivativeWorks" />
      </cc:License>
    </rdf:RDF>
  </metadata>
  <g
     inkscape:label="Layer 1"
     inkscape:groupmode="layer"
     id="layer1"
     transform="translate(0,-11.249983)">
    <g
       aria-label="❤️"
       transform="matrix(12.06608,-3.2330966,3.2330966,12.06608,-1799.4813,-1255.8839)"
       style="font-style:normal;font-weight:normal;font-size:40px;line-height:1.25;font-family:sans-serif;letter-spacing:0px;word-spacing:0px;fill:#000000;fill-opacity:1;stroke:none;stroke-opacity:1"
       id="flowRoot4267">
      <path
         d="m 130.16406,164.55859 q -2.67578,-4.66797 -10.82031,-9.39453 -3.78906,-2.20703 -3.78906,-5.68359 0,-1.46485 0.52734,-2.8125 0.54688,-1.34766 1.6211,-2.40235 1.03515,-1.01562 2.38281,-1.60156 1.26953,-0.54687 2.77344,-0.54687 1.5039,0 2.77343,0.54687 1.32813,0.56641 2.38281,1.60156 1.03516,1.01563 1.58204,2.36329 0.5664,1.32812 0.5664,2.85156 0,-1.52344 0.54688,-2.85156 0.5664,-1.34766 1.60156,-2.36329 1.05469,-1.03515 2.38281,-1.60156 1.26953,-0.54687 2.77344,-0.54687 1.50391,0 2.77344,0.54687 1.34765,0.58594 2.38281,1.60156 1.07422,1.05469 1.60156,2.40235 0.54688,1.34765 0.54688,2.8125 0,3.51562 -3.78907,5.68359 -8.14453,4.72656 -10.82031,9.39453 z"
         style="fill:#86009b;fill-opacity:1;stroke:none;stroke-opacity:1"
         id="path4291"
         inkscape:connector-curvature="0" />
    </g>
  </g>
</svg>
