<?xml version="1.0" encoding="UTF-8" standalone="no"?>
<!-- Created with Inkscape (http://www.inkscape.org/) -->

<svg
   xmlns:dc="http://purl.org/dc/elements/1.1/"
   xmlns:cc="http://creativecommons.org/ns#"
   xmlns:rdf="http://www.w3.org/1999/02/22-rdf-syntax-ns#"
   xmlns:svg="http://www.w3.org/2000/svg"
   xmlns="http://www.w3.org/2000/svg"
   xmlns:xlink="http://www.w3.org/1999/xlink"
   xmlns:sodipodi="http://sodipodi.sourceforge.net/DTD/sodipodi-0.dtd"
   xmlns:inkscape="http://www.inkscape.org/namespaces/inkscape"
   width="435.06403"
   height="1358.8665"
   viewBox="0 0 115.11069 359.53343"
   version="1.1"
   id="svg8"
   inkscape:version="0.92+devel unknown"
   sodipodi:docname="guest traffic head.svg"
   inkscape:export-filename="/home/mbrickn/Projects/Operation-Ohio/game/images/characters/guests/guest traffic head.png"
   inkscape:export-xdpi="90"
   inkscape:export-ydpi="90">
  <title
     id="title4277">Traffic Head Guest</title>
  <defs
     id="defs2">
    <linearGradient
       inkscape:collect="always"
       id="linearGradient4293">
      <stop
         style="stop-color:#682900;stop-opacity:1"
         offset="0"
         id="stop4289" />
      <stop
         style="stop-color:#ff6600;stop-opacity:1"
         offset="1"
         id="stop4291" />
    </linearGradient>
    <linearGradient
       inkscape:collect="always"
       id="linearGradient4281">
      <stop
         style="stop-color:#000080;stop-opacity:1;"
         offset="0"
         id="stop4277" />
      <stop
         style="stop-color:#000007;stop-opacity:1"
         offset="1"
         id="stop4279" />
    </linearGradient>
    <linearGradient
       inkscape:collect="always"
       xlink:href="#linearGradient4281"
       id="linearGradient4283"
       x1="448.92929"
       y1="205.1223"
       x2="452.30252"
       y2="273.2186"
       gradientUnits="userSpaceOnUse" />
    <linearGradient
       inkscape:collect="always"
       xlink:href="#linearGradient4293"
       id="linearGradient4295"
       x1="453.80093"
       y1="359.39203"
       x2="448.21765"
       y2="273.50769"
       gradientUnits="userSpaceOnUse" />
    <linearGradient
       inkscape:collect="always"
       xlink:href="#linearGradient4293"
       id="linearGradient4286"
       gradientUnits="userSpaceOnUse"
       x1="453.80093"
       y1="359.39203"
       x2="448.21765"
       y2="273.50769" />
    <linearGradient
       inkscape:collect="always"
       xlink:href="#linearGradient4293"
       id="linearGradient4288"
       gradientUnits="userSpaceOnUse"
       x1="453.80093"
       y1="359.39203"
       x2="448.21765"
       y2="273.50769" />
  </defs>
  <sodipodi:namedview
     id="base"
     pagecolor="#ffffff"
     bordercolor="#666666"
     borderopacity="1.0"
     inkscape:pageopacity="0.0"
     inkscape:pageshadow="2"
     inkscape:zoom="0.35"
     inkscape:cx="-2.8415963"
     inkscape:cy="276.93567"
     inkscape:document-units="mm"
     inkscape:current-layer="layer3"
     showgrid="false"
     inkscape:window-width="1920"
     inkscape:window-height="1016"
     inkscape:window-x="0"
     inkscape:window-y="0"
     inkscape:window-maximized="1"
     units="px"
     inkscape:pagecheckerboard="true"
     inkscape:document-rotation="0"
     fit-margin-top="0"
     fit-margin-left="0"
     fit-margin-right="0"
     fit-margin-bottom="0">
    <inkscape:grid
       type="xygrid"
       id="grid4485"
       originx="-384.55203"
       originy="77.144795" />
  </sodipodi:namedview>
  <metadata
     id="metadata5">
    <rdf:RDF>
      <cc:Work
         rdf:about="">
        <dc:format>image/svg+xml</dc:format>
        <dc:type
           rdf:resource="http://purl.org/dc/dcmitype/StillImage" />
        <dc:title>Traffic Head Guest</dc:title>
        <cc:license
           rdf:resource="http://creativecommons.org/licenses/by/4.0/" />
        <dc:creator>
          <cc:Agent>
            <dc:title>Maxwell Paul Brickner</dc:title>
          </cc:Agent>
        </dc:creator>
      </cc:Work>
      <cc:License
         rdf:about="http://creativecommons.org/licenses/by/4.0/">
        <cc:permits
           rdf:resource="http://creativecommons.org/ns#Reproduction" />
        <cc:permits
           rdf:resource="http://creativecommons.org/ns#Distribution" />
        <cc:requires
           rdf:resource="http://creativecommons.org/ns#Notice" />
        <cc:requires
           rdf:resource="http://creativecommons.org/ns#Attribution" />
        <cc:permits
           rdf:resource="http://creativecommons.org/ns#DerivativeWorks" />
      </cc:License>
    </rdf:RDF>
  </metadata>
  <g
     inkscape:label="Head"
     inkscape:groupmode="layer"
     id="layer1"
     transform="translate(-384.55203,-14.611343)">
    <path
       style="fill:#d6ada7;fill-opacity:1;stroke:none;stroke-width:1.75086832px;stroke-linecap:butt;stroke-linejoin:miter;stroke-opacity:1"
       d="m 422.3367,166.88072 c 0,0 7.73779,20.11832 6.41132,29.8459 30.73018,-7.07457 32.05666,-3.0951 32.05666,-3.0951 0,0 -10.61187,-29.40375 -11.71726,-34.93077 -1.10541,-5.52705 -26.75072,8.17997 -26.75072,8.17997 z"
       id="path4612"
       inkscape:connector-curvature="0" />
  </g>
  <g
     inkscape:groupmode="layer"
     id="layer3"
     inkscape:label="Body"
     style="display:inline"
     transform="translate(-384.55203,-3.3613604)">
    <path
       style="fill:url(#linearGradient4283);fill-opacity:1;stroke:none;stroke-width:0.51205164px;stroke-linecap:butt;stroke-linejoin:miter;stroke-opacity:1"
       d="m 415.67406,182.64745 c 0,0 -7.92039,70.25759 -3.61897,100.54145 11.71145,12.85192 16.62141,-1.40668 16.62141,-1.40668 0,0 2.75689,-51.87118 17.5257,-64.51747 18.13944,-1.72833 12.88245,53.31621 23.81338,59.98867 10.93089,6.6725 16.59136,-4.04399 16.59136,-4.04399 0,0 -15.76898,-85.8193 -0.54079,-101.56956 -69.43104,6.41659 -70.39209,11.00758 -70.39209,11.00758 z"
       id="path4641"
       inkscape:connector-curvature="0"
       sodipodi:nodetypes="cccccccc" />
    <path
       style="fill:#d6ada7;fill-opacity:1;stroke:none;stroke-width:1.75086832px;stroke-linecap:butt;stroke-linejoin:miter;stroke-opacity:1"
       d="m 428.23831,174.51803 c 1.31855,5.19695 -0.87425,3.02435 -1.19136,5.35011 1.07874,-0.22106 7.31928,-1.50998 12.22213,0.73259 4.45465,2.03761 15.36234,2.187 16.56657,5.11775 3.07611,7.48626 4.30296,-8.89695 4.00366,-5.95341 0,0 -1.28648,-3.56469 -3.01026,-8.445 -13.06277,-8.09818 -22.38956,4.04354 -28.59072,3.19796 z"
       id="path4612-3"
       inkscape:connector-curvature="0"
       sodipodi:nodetypes="ccsscccc" />
    <path
       style="fill:#ff6600;stroke:none;stroke-width:8.46395111px;stroke-linecap:butt;stroke-linejoin:miter;stroke-opacity:1"
       d="m 401.3659,177.07396 c 0,0 -8.81018,-0.59395 -9.15488,7.51401 -0.3447,8.10798 8.46549,8.70192 8.46549,8.70192 l 88.1022,5.93944 c 0,0 8.80996,0.59393 9.15465,-7.51405 0.3447,-8.10796 -8.46525,-8.70188 -8.46525,-8.70188 z"
       id="path4530"
       inkscape:connector-curvature="0" />
    <path
       style="fill:#ff6600;fill-opacity:1;stroke:#ff6600;stroke-width:8.1196804px;stroke-linecap:butt;stroke-linejoin:miter;stroke-opacity:1"
       d="m 405.84631,186.78545 81.08092,4.34074 c 0,0 -5.93793,-40.97453 -3.76757,-81.51467 2.17035,-40.540439 12.44903,-80.64682 12.44903,-80.64682 0,0 0.43406,-8.107971 -40.1064,-10.278329 -40.54046,-2.170376 -40.97451,5.9376 -40.97451,5.9376 0,0 5.93789,40.974532 3.76753,81.514979 -2.17035,40.54013 -12.449,80.6465 -12.449,80.6465 z"
       id="path4532"
       inkscape:connector-curvature="0" />
    <path
       inkscape:connector-curvature="0"
       style="fill:#aeaeae;fill-opacity:1;stroke:#ff6600;stroke-width:8.1196804px;stroke-linecap:butt;stroke-linejoin:miter;stroke-opacity:1"
       d="m 455.50229,18.686371 c -40.54046,-2.170376 -40.97451,5.9376 -40.97451,5.9376 0,0 2.92872,21.063486 3.88291,47.614288 16.93197,1.253755 40.519,0.95837 69.62821,-4.816645 3.5587,-21.86895 7.56979,-38.456914 7.56979,-38.456914 0,0 0.43406,-8.107971 -40.1064,-10.278329 z m 30.24926,63.57306 c -17.14517,7.093751 -37.33363,11.121578 -67.00949,6.338283 -0.003,5.78649 -0.1318,11.646406 -0.44735,17.541196 -0.26706,4.98804 -0.65646,9.96677 -1.14629,14.86728 16.34602,1.09021 38.60057,0.74193 65.79543,-4.41858 0.0633,-2.3292 0.0948,-4.64136 0.21978,-6.97588 0.49891,-9.31905 1.4608,-18.560736 2.5922,-27.352071 z"
       id="path4544-6"
       sodipodi:nodetypes="sccccsccsccscc" />
    <path
       style="fill:none;stroke:#ff6600;stroke-width:4.96407938;stroke-linecap:butt;stroke-linejoin:miter;stroke-miterlimit:4;stroke-dasharray:none;stroke-opacity:1"
       d="m 439.52892,18.12366 c 0,0 -0.91439,-11.6125975 1.00581,-11.8869088 1.92019,-0.2743112 28.80291,-1.1886884 33.00906,1.2801332 4.20613,2.4688215 -0.0915,11.6125976 -0.0915,11.6125976"
       id="path4635"
       inkscape:connector-curvature="0" />
    <g
       id="g4287"
       style="fill:url(#linearGradient4295);fill-opacity:1;stroke:none">
      <path
         sodipodi:nodetypes="cccccsscccc"
         inkscape:connector-curvature="0"
         id="path4302"
         d="m 392.53195,362.30254 c 4.1436,0.33522 30.48857,1.08153 31.83563,0.11578 4.05044,-7.44507 6.77501,0.53841 7.57111,0.4214 1.1587,-0.22815 11.66749,0.12684 11.79616,-1.48004 0.12872,-1.60694 2.48881,-24.30959 0.78737,-27.44495 -0.25327,-0.46672 -5.56524,-55.52643 -7.89611,-59.69745 -8.74916,-15.65627 -24.81119,2.09902 -29.02739,3.4958 -2.20681,0.73109 14.91055,56.59022 15.58368,59.2371 -5.25101,15.06849 -26.37778,16.51772 -38.05382,11.35278 -2.62383,6.66521 4.38692,13.54733 7.40337,13.99947 z"
         style="fill:url(#linearGradient4286);fill-opacity:1;stroke:none;stroke-width:0.25241068px;stroke-linecap:butt;stroke-linejoin:miter;stroke-opacity:1" />
      <path
         style="fill:url(#linearGradient4288);fill-opacity:1;stroke:none;stroke-width:0.25241068px;stroke-linecap:butt;stroke-linejoin:miter;stroke-opacity:1"
         d="m 478.88325,360.25246 c 1.15871,-0.22813 12.6909,-0.77013 12.8196,-2.37705 0.12868,-1.60696 2.48878,-24.3096 0.78733,-27.44497 -0.25325,-0.4667 -1.50937,-54.16418 -3.84025,-58.3352 -8.74914,-15.65626 -24.81114,2.09902 -29.02735,3.49581 -2.20683,0.73106 8.79449,55.89029 9.46761,58.53718 -12.73207,31.55217 -13.14112,22.38745 9.79306,26.12423 z"
         id="path4306"
         inkscape:connector-curvature="0"
         sodipodi:nodetypes="cccsscc" />
    </g>
  </g>
  <g
     inkscape:groupmode="layer"
     id="layer2"
     inkscape:label="Decor"
     style="opacity:0.18600003"
     transform="translate(-384.55203,-14.611343)" />
</svg>
