<?xml version="1.0" encoding="UTF-8" standalone="no"?>
<!-- Created with Inkscape (http://www.inkscape.org/) -->

<svg
   xmlns:dc="http://purl.org/dc/elements/1.1/"
   xmlns:cc="http://creativecommons.org/ns#"
   xmlns:rdf="http://www.w3.org/1999/02/22-rdf-syntax-ns#"
   xmlns:svg="http://www.w3.org/2000/svg"
   xmlns="http://www.w3.org/2000/svg"
   xmlns:xlink="http://www.w3.org/1999/xlink"
   xmlns:sodipodi="http://sodipodi.sourceforge.net/DTD/sodipodi-0.dtd"
   xmlns:inkscape="http://www.inkscape.org/namespaces/inkscape"
   width="569.97693"
   height="1898.9523"
   viewBox="0 0 150.8064 502.43114"
   version="1.1"
   id="svg8"
   inkscape:version="0.92+devel unknown"
   sodipodi:docname="girth marx template.svg"
   inkscape:export-filename="/home/mbrickn/Projects/Operation-Ohio/game/images/characters/girth marx/girth marx.png"
   inkscape:export-xdpi="90"
   inkscape:export-ydpi="90">
  <title
     id="title40">Girth Marx</title>
  <defs
     id="defs2">
    <linearGradient
       inkscape:collect="always"
       id="linearGradient4375">
      <stop
         style="stop-color:#ab2b67;stop-opacity:1;"
         offset="0"
         id="stop4371" />
      <stop
         style="stop-color:#7f204c;stop-opacity:1"
         offset="1"
         id="stop4373" />
    </linearGradient>
    <linearGradient
       inkscape:collect="always"
       id="linearGradient4367">
      <stop
         style="stop-color:#d6ada7;stop-opacity:1;"
         offset="0"
         id="stop4363" />
      <stop
         style="stop-color:#e9c6af;stop-opacity:1"
         offset="1"
         id="stop4365" />
    </linearGradient>
    <linearGradient
       inkscape:collect="always"
       id="linearGradient4358">
      <stop
         style="stop-color:#d6ada7;stop-opacity:1;"
         offset="0"
         id="stop4354" />
      <stop
         style="stop-color:#d6ada7;stop-opacity:0;"
         offset="1"
         id="stop4356" />
    </linearGradient>
    <linearGradient
       inkscape:collect="always"
       id="linearGradient4334">
      <stop
         style="stop-color:#d6ada7;stop-opacity:1;"
         offset="0"
         id="stop4330" />
      <stop
         style="stop-color:#c8aabe;stop-opacity:1"
         offset="1"
         id="stop4332" />
    </linearGradient>
    <radialGradient
       inkscape:collect="always"
       xlink:href="#linearGradient4334"
       id="radialGradient4336"
       cx="1522.5137"
       cy="87.144562"
       fx="1522.5137"
       fy="87.144562"
       r="36.929699"
       gradientTransform="matrix(1,0,0,0.76887051,0,20.141679)"
       gradientUnits="userSpaceOnUse" />
    <linearGradient
       inkscape:collect="always"
       xlink:href="#linearGradient4334"
       id="linearGradient4344"
       x1="298.90796"
       y1="283.26318"
       x2="301.48108"
       y2="283.26318"
       gradientUnits="userSpaceOnUse" />
    <linearGradient
       inkscape:collect="always"
       xlink:href="#linearGradient4358"
       id="linearGradient4360"
       x1="409.20987"
       y1="73.906013"
       x2="414.63895"
       y2="64.016479"
       gradientUnits="userSpaceOnUse" />
    <linearGradient
       inkscape:collect="always"
       xlink:href="#linearGradient4367"
       id="linearGradient4369"
       x1="1631.061"
       y1="405.12668"
       x2="1633.1566"
       y2="421.84155"
       gradientUnits="userSpaceOnUse" />
    <linearGradient
       inkscape:collect="always"
       xlink:href="#linearGradient4375"
       id="linearGradient4377"
       x1="428.45956"
       y1="111.82375"
       x2="419.93951"
       y2="142.95068"
       gradientUnits="userSpaceOnUse" />
  </defs>
  <sodipodi:namedview
     id="base"
     pagecolor="#ffffff"
     bordercolor="#666666"
     borderopacity="1.0"
     inkscape:pageopacity="0.0"
     inkscape:pageshadow="2"
     inkscape:zoom="0.7"
     inkscape:cx="-388.42768"
     inkscape:cy="1411.3941"
     inkscape:document-units="mm"
     inkscape:current-layer="layer3"
     showgrid="false"
     inkscape:window-width="1920"
     inkscape:window-height="1016"
     inkscape:window-x="0"
     inkscape:window-y="0"
     inkscape:window-maximized="1"
     units="px"
     inkscape:pagecheckerboard="true"
     inkscape:document-rotation="0"
     fit-margin-top="0"
     fit-margin-left="0"
     fit-margin-right="0"
     fit-margin-bottom="0">
    <inkscape:grid
       type="xygrid"
       id="grid4485"
       originx="-353.85368"
       originy="227.21091" />
  </sodipodi:namedview>
  <metadata
     id="metadata5">
    <rdf:RDF>
      <cc:Work
         rdf:about="">
        <dc:format>image/svg+xml</dc:format>
        <dc:type
           rdf:resource="http://purl.org/dc/dcmitype/StillImage" />
        <dc:title>Girth Marx</dc:title>
        <cc:license
           rdf:resource="http://creativecommons.org/licenses/by/4.0/" />
        <dc:creator>
          <cc:Agent>
            <dc:title>Maxwell Paul Brickner</dc:title>
          </cc:Agent>
        </dc:creator>
      </cc:Work>
      <cc:License
         rdf:about="http://creativecommons.org/licenses/by/4.0/">
        <cc:permits
           rdf:resource="http://creativecommons.org/ns#Reproduction" />
        <cc:permits
           rdf:resource="http://creativecommons.org/ns#Distribution" />
        <cc:requires
           rdf:resource="http://creativecommons.org/ns#Notice" />
        <cc:requires
           rdf:resource="http://creativecommons.org/ns#Attribution" />
        <cc:permits
           rdf:resource="http://creativecommons.org/ns#DerivativeWorks" />
      </cc:License>
    </rdf:RDF>
  </metadata>
  <g
     inkscape:label="Head"
     inkscape:groupmode="layer"
     id="layer1"
     transform="translate(-353.85367,-21.779747)">
    <path
       sodipodi:nodetypes="ccccc"
       inkscape:connector-curvature="0"
       id="path4547"
       d="m 398.76462,81.864866 c -9.66563,-18.065872 -4.08579,-24.613059 -4.08579,-24.613059 -3.32727,-6.243259 -3.28626,-6.47088 -10.35507,-11.999677 0,0 -5.23436,8.245064 -5.47257,14.997287 0.34639,9.526547 12.12813,19.909124 19.91343,21.615449 z"
       style="fill:#ffc148;fill-opacity:1;stroke:#ffc148;stroke-width:1.87399137;stroke-linecap:butt;stroke-linejoin:miter;stroke-miterlimit:4;stroke-dasharray:none;stroke-opacity:1" />
    <path
       style="fill:url(#linearGradient4369);fill-opacity:1;stroke:none;stroke-width:4.65333176px;stroke-linecap:butt;stroke-linejoin:miter;stroke-opacity:1"
       d="m 1643.0352,337.04492 c -17.7362,0.24551 -64.4786,25.22852 -64.4786,25.22852 0,0 12.5636,32.66653 16.3672,59.27929 -0.4398,0.91414 -1.1553,1.2972 -1.8633,1.76758 -62.7057,8.88813 -130.962,40.6493 -165.2382,97.1543 -30.4745,55.66465 112.6523,107.91321 169.8574,120.9375 57.205,13.02436 124.0894,-15.87486 249.1992,-89.85938 -55.1449,-49.24692 -105.8627,-104.64977 -168.0859,-123.77539 -0.1672,-0.46564 -0.321,-0.89832 -0.5254,-1.46875 0.069,-0.76088 0.081,-1.00993 -0.02,-0.0566 -5.9765,-16.67485 -26.078,-73.13048 -28.5957,-85.71875 -0.5049,-2.52474 -2.9361,-3.53923 -6.6171,-3.48828 z"
       transform="matrix(0.26458333,0,0,0.26458333,0,11.249983)"
       id="path4612"
       inkscape:connector-curvature="0" />
    <path
       style="fill:#e9c6af;stroke:none;stroke-width:1.23119402px;stroke-linecap:butt;stroke-linejoin:miter;stroke-opacity:1"
       d="m 383.48625,68.757483 c 0,0 5.37729,26.494651 19.14068,37.159457 13.76339,10.66473 22.75276,10.82658 22.75276,10.82658 0,0 8.03595,2.06977 15.6376,-3.98726 3.79676,-3.02527 6.71305,-9.8152 10.0074,-16.433935 9.8901,-19.870423 6.17967,-47.676461 6.17967,-47.676461 0,0 -17.48423,-36.648614 -52.72957,-24.337936 -31.12334,10.870904 -20.98854,44.449555 -20.98854,44.449555 z"
       id="path4487"
       inkscape:connector-curvature="0"
       sodipodi:nodetypes="cccsscsc" />
    <path
       sodipodi:nodetypes="ccc"
       style="fill:url(#linearGradient4360);fill-opacity:1;stroke:none;stroke-width:0.81898654;stroke-linecap:butt;stroke-linejoin:miter;stroke-miterlimit:4;stroke-dasharray:none;stroke-opacity:1"
       d="m 409.06124,53.024462 c -5.47676,7.036598 1.18335,15.386277 0.14863,20.881551 8.61621,-4.646394 12.0299,-2.495155 12.0299,-2.495155"
       id="path4489"
       inkscape:connector-curvature="0" />
    <path
       style="fill:#ffc148;fill-opacity:1;stroke:none;stroke-width:1.37676251px;stroke-linecap:butt;stroke-linejoin:miter;stroke-opacity:1"
       d="m 383.99226,49.331516 c 8.64438,-3.101325 10.63137,-1.984147 19.29034,1.414051 0,0 -3.88672,-7.183232 -11.23644,-7.522994 -7.34971,-0.339766 -8.05389,6.108986 -8.05389,6.108986 z"
       id="path4513"
       inkscape:connector-curvature="0"
       sodipodi:nodetypes="ccscc" />
    <path
       sodipodi:nodetypes="ccccccc"
       inkscape:connector-curvature="0"
       id="path4561"
       d="m 418.27578,55.850257 c 2.06834,-0.675072 8.59243,-9.108278 14.2513,-8.104488 5.65888,1.003831 7.4877,-1.198492 7.4877,-1.198492 0,0 -6.32932,-3.067202 -6.77157,-4.385975 -5.04395,1.785542 -12.62235,0.742955 -14.92827,10.384577 -1.40376,1.530423 -1.46176,1.523491 -4.14967,0.525985 1.27057,1.895636 3.05961,3.039315 4.11055,2.778562 z"
       style="fill:#ffc148;fill-opacity:1;stroke:#ffc148;stroke-width:0.36006993px;stroke-linecap:butt;stroke-linejoin:miter;stroke-opacity:1" />
    <path
       style="fill:#ffc148;fill-opacity:1;stroke:#ffc148;stroke-width:0.36006993px;stroke-linecap:butt;stroke-linejoin:miter;stroke-opacity:1"
       d="m 399.45863,61.521454 c -2.1714,-0.137286 -10.59442,-6.674518 -15.82346,-4.28965 -5.22902,2.384954 -3.6345,0.406784 -3.6345,0.406784 0,0 1.44778,-4.248149 1.54676,-5.63561 5.33001,0.469654 12.408,-2.432465 17.04826,6.328441 1.7414,1.131468 1.79584,1.110299 4.14956,-0.526845 -0.75703,2.152844 -2.20387,3.706977 -3.28661,3.716923 z"
       id="path4563"
       inkscape:connector-curvature="0"
       sodipodi:nodetypes="cccccccc" />
    <path
       style="fill:#ffc148;fill-opacity:1;stroke:none;stroke-width:2.61971974px;stroke-linecap:butt;stroke-linejoin:miter;stroke-opacity:1"
       d="m 407.45117,97.487998 c 17.46565,0.575034 20.41288,-2.607972 34.11398,-13.812884 0,0 -2.77758,12.318528 -16.59997,14.542068 -12.38623,1.992468 -17.51401,-0.729228 -17.51401,-0.729228 z"
       id="path4545"
       inkscape:connector-curvature="0"
       sodipodi:nodetypes="ccscc" />
    <circle
       r="9.9115219"
       cy="69.978256"
       cx="392.46655"
       id="path4551"
       style="fill:#ffffff;fill-opacity:1;stroke:none;stroke-width:1.55302906;stroke-linecap:round;stroke-linejoin:round;stroke-miterlimit:4;stroke-dasharray:none;stroke-dashoffset:0;stroke-opacity:1;paint-order:stroke fill markers" />
    <path
       inkscape:connector-curvature="0"
       id="path4555"
       d="m 398.49205,71.200673 c 0,0 7.42853,-15.626165 21.93847,-8.060061"
       style="fill:none;stroke:#ffffff;stroke-width:0.36006996px;stroke-linecap:butt;stroke-linejoin:miter;stroke-opacity:1" />
    <g
       id="g4312"
       style="stroke:none">
      <path
         id="path4549"
         transform="matrix(0.26458333,0,0,0.26458333,0,11.249983)"
         d="m 1529.4238,58.759766 a 27.011549,23.272925 25.30841 0 0 -21.9277,15.923828 27.011549,23.272925 25.30841 0 0 2.9023,17.625 l -24.8144,6.060547 a 27.011549,23.272925 10.308411 0 0 29.8789,17.027339 27.011549,23.272925 10.308411 0 0 22.5371,-22.11523 27.011549,23.272925 10.308411 0 0 -0.168,-2.488281 9.1099575,7.8490637 21.739983 0 0 7.8457,-5.855469 9.1099575,7.8490637 21.739983 0 0 0.1016,-1.90625 l 13.6641,0.304688 a 27.011549,23.272925 25.30841 0 0 -24.4532,-24.181641 27.011549,23.272925 25.30841 0 0 -5.5664,-0.394531 z m 5.7032,24.033203 0.6035,0.01367 -0.5821,0.02344 a 27.011549,23.272925 10.308411 0 0 -0.021,-0.03711 z"
         style="fill:url(#radialGradient4336);fill-opacity:1;stroke:none;stroke-width:1.68418062;stroke-linecap:round;stroke-linejoin:round;stroke-miterlimit:4;stroke-dasharray:none;stroke-dashoffset:0;stroke-opacity:1;paint-order:stroke fill markers"
         inkscape:connector-curvature="0" />
      <path
         style="fill:url(#linearGradient4344);fill-opacity:1;stroke:none;stroke-width:0.09310361;stroke-linecap:round;stroke-linejoin:round;stroke-miterlimit:4;stroke-dasharray:none;stroke-dashoffset:0;stroke-opacity:1;paint-order:stroke fill markers"
         id="path4559"
         transform="rotate(-38.260017)"
         sodipodi:type="arc"
         sodipodi:cx="300.19452"
         sodipodi:cy="283.17966"
         sodipodi:rx="1.2865565"
         sodipodi:ry="1.4932325"
         sodipodi:start="0"
         sodipodi:end="4.2348394"
         d="m 301.48108,283.17966 a 1.2865565,1.4932325 0 0 1 -1.08263,1.47435 1.2865565,1.4932325 0 0 1 -1.42584,-1.00695 1.2865565,1.4932325 0 0 1 0.6306,-1.79358 l 0.59131,1.32618 z"
         sodipodi:arc-type="slice" />
    </g>
    <circle
       style="fill:#ffffff;fill-opacity:1;stroke:none;stroke-width:1.55302906;stroke-linecap:round;stroke-linejoin:round;stroke-miterlimit:4;stroke-dasharray:none;stroke-dashoffset:0;stroke-opacity:1;paint-order:stroke fill markers"
       id="circle4564"
       cx="429.74838"
       cy="60.794239"
       r="9.9115219" />
    <path
       style="fill:none;stroke:#ffffff;stroke-width:0.36006996px;stroke-linecap:butt;stroke-linejoin:miter;stroke-opacity:1"
       d="m 435.26592,56.705961 c 0,0 7.42851,-15.626207 21.93845,-8.060103"
       id="path4566"
       inkscape:connector-curvature="0" />
    <path
       style="fill:#ffc148;fill-opacity:1;stroke:#ffc148;stroke-width:1.87399137;stroke-linecap:butt;stroke-linejoin:miter;stroke-miterlimit:4;stroke-dasharray:none;stroke-opacity:1"
       d="m 468.44292,80.682762 c -9.66563,-18.065873 -4.08578,-24.613071 -4.08578,-24.613071 -3.32727,-6.243258 -3.28626,-6.47088 -10.35508,-11.999673 0,0 -5.23436,8.245061 -5.47256,14.997283 0.34639,9.526547 12.12812,19.909125 19.91342,21.615461 z"
       id="path4543"
       inkscape:connector-curvature="0"
       sodipodi:nodetypes="ccccc" />
  </g>
  <g
     inkscape:groupmode="layer"
     id="layer3"
     inkscape:label="Body"
     style="display:inline"
     transform="translate(-353.85367,-10.529764)">
    <path
       sodipodi:nodetypes="ccccccc"
       inkscape:connector-curvature="0"
       id="path4359"
       d="m 497.10125,267.16983 c 0,0 -2.63031,8.90581 -2.79502,11.51996 0.30715,6.29834 0.63385,9.55675 -2.91186,14.32229 -8.53814,10.78297 -23.72545,-3.37832 -14.38064,-12.0717 2.01415,-1.51983 4.60837,-3.66534 5.9335,-5.52555 2.35353,-3.30387 3.80639,-10.1842 3.80639,-10.1842 z"
       style="display:inline;fill:#ab2b67;fill-opacity:1;stroke:none;stroke-width:0.29879352px;stroke-linecap:butt;stroke-linejoin:miter;stroke-opacity:1" />
    <path
       style="fill:#000000;fill-opacity:1;stroke:none;stroke-width:1.23119402px;stroke-linecap:butt;stroke-linejoin:miter;stroke-opacity:1"
       d="m 488.97858,146.16377 c -21.4318,41.78626 -4.93264,72.98805 -17.97969,116.62236 l -87.26486,-0.1497 c -7.25504,-16.00636 -15.96502,-70.5393 -7.80279,-121.46607 0.87952,-5.4876 -0.38529,3.85463 1.84668,-3.46134 8.11731,-14.02566 23.39626,11.1553 51.3779,15.87276 24.16987,4.07483 51.75254,-13.28615 59.82276,-7.41801 z"
       id="path4617"
       inkscape:connector-curvature="0"
       sodipodi:nodetypes="cccscsc" />
    <path
       sodipodi:nodetypes="cscccsc"
       inkscape:connector-curvature="0"
       id="path4623"
       d="m 377.77792,137.70902 c -8.06303,14.72794 29.80573,28.55207 44.94124,31.99808 15.1355,3.44603 32.83217,-4.20014 65.93414,-23.77521 -14.5637,-13.00603 -27.9602,-27.63569 -44.38215,-32.72182 -16.27404,8.29176 -27.79983,15.16993 -23.29917,-0.31524 -2.10802,0.0722 -4.03194,-0.3856 -6.14027,-0.0311 -14.73625,2.47862 -29.05733,11.66283 -37.05379,24.84516 z"
       style="fill:#000000;fill-opacity:1;stroke:#000000;stroke-width:1.23119402px;stroke-linecap:butt;stroke-linejoin:miter;stroke-opacity:1" />
    <path
       style="fill:#000000;fill-opacity:1;stroke:#000000;stroke-width:1.23119402px;stroke-linecap:butt;stroke-linejoin:miter;stroke-opacity:1"
       d="m 476.73522,161.61161 c 0,0 11.07093,91.58941 9.20539,101.22803 -1.86555,9.63868 13.31167,12.70559 11.75704,5.86534 -1.55461,-6.8404 20.22618,-93.51127 -9.04435,-122.77309 -18.13655,-16.34539 -11.91808,15.67972 -11.91808,15.67972 z"
       id="path4640"
       inkscape:connector-curvature="0"
       sodipodi:nodetypes="ccccc" />
    <path
       style="fill:url(#linearGradient4377);fill-opacity:1;stroke:none;stroke-width:1.23119402px;stroke-linecap:butt;stroke-linejoin:miter;stroke-opacity:1"
       d="m 450.51646,115.0787 c -1.88999,-1.15751 -5.01706,-3.82958 -6.51126,-2.98668 -8.97903,5.06525 -9.15944,5.10907 -19.88065,8.65176 -1.95641,-3.90511 -1.95641,-3.90511 -2.06103,-8.97873 -3.57468,0.0325 -7.6401,0.29422 -9.25942,0.85499 -0.9213,12.96453 -1.81689,23.89626 6.58789,25.12731 6.65982,0.97546 23.22008,-14.4305 31.12447,-22.66865 z"
       id="path4644"
       inkscape:connector-curvature="0"
       sodipodi:nodetypes="cscccsc" />
    <path
       inkscape:connector-curvature="0"
       style="fill:#000000;fill-opacity:1;stroke:none;stroke-width:0.41768315px;stroke-linecap:butt;stroke-linejoin:miter;stroke-opacity:1"
       d="m 470.99889,262.78613 -87.15987,-0.53933 c 0,0 -22.76634,64.15453 -13.9067,117.94792 5.52856,38.83736 19.87872,101.58837 28.48819,103.97729 8.60948,2.38893 18.40439,2.34979 18.04454,-4.1863 -0.35988,-6.5361 -2.04814,-89.29898 -5.03548,-101.49551 -2.57069,-10.49611 -0.43977,-54.95531 3.0583,-67.70733 0.0745,-0.27169 1.13096,-1.25363 2.83791,-2.70163 l 1.53852,1.82699 c 0,0 0.59316,53.4814 1.26286,64.8279 -0.32477,22.66403 16.59564,108.26514 25.08752,110.27093 8.492,2.00579 18.24173,1.51454 18.09294,-5.0459 -0.14871,-6.56048 0.5906,-85.04786 -1.99177,-97.18289 -1.56568,-7.35761 11.65778,-46.86423 14.96535,-79.22408 2.14771,-21.01192 -5.28231,-40.76806 -5.28231,-40.76806 z"
       id="path4300"
       sodipodi:nodetypes="cccsccccccccccc" />
    <path
       style="fill:#000000;fill-opacity:1;stroke:none;stroke-width:0.30037704px;stroke-linecap:butt;stroke-linejoin:miter;stroke-opacity:1"
       d="m 356.10563,511.32596 c 5.14775,0.38213 37.87739,1.23286 39.55091,0.13215 5.03205,-8.48679 8.41687,0.61373 9.40595,0.48036 1.43949,-0.26009 14.49505,0.14456 14.6549,-1.68708 0.16008,-1.83183 3.09194,-27.71106 0.97818,-31.28514 -0.31463,-0.53198 1.03219,-8.91062 -3.57583,-12.03442 -10.37575,-7.03376 -21.72132,-0.74201 -26.95932,0.85017 -2.74165,0.83338 3.18744,11.62721 4.02369,14.64449 -5.98083,10.80611 -27.84237,18.62533 -37.1939,15.17777 -3.25969,7.59781 -4.63209,13.20634 -0.88458,13.72177 z"
       id="path4302"
       inkscape:connector-curvature="0"
       sodipodi:nodetypes="cccccsscccc" />
    <path
       sodipodi:nodetypes="cccsscc"
       inkscape:connector-curvature="0"
       id="path4306"
       d="m 452.31643,512.9609 c 1.4395,-0.26004 15.76655,-0.87788 15.9264,-2.70968 0.16006,-1.83176 3.09197,-27.711 0.97815,-31.2851 -0.31466,-0.53199 0.75991,-7.96788 -2.13587,-12.72253 -10.86948,-17.84692 -24.85707,-1.228 -30.09507,0.36417 -2.74162,0.8334 2.32374,13.55633 3.16001,16.57355 -15.81767,35.96702 -16.32587,25.51997 12.16638,29.77959 z"
       style="fill:#000000;fill-opacity:1;stroke:none;stroke-width:0.30037704px;stroke-linecap:butt;stroke-linejoin:miter;stroke-opacity:1" />
  </g>
  <g
     inkscape:groupmode="layer"
     id="layer2"
     inkscape:label="Decor"
     style="opacity:0.18600003"
     transform="translate(-353.85367,-21.779747)" />
</svg>
