<?xml version="1.0" encoding="UTF-8" standalone="no"?>
<!-- Created with Inkscape (http://www.inkscape.org/) -->

<svg
   xmlns:dc="http://purl.org/dc/elements/1.1/"
   xmlns:cc="http://creativecommons.org/ns#"
   xmlns:rdf="http://www.w3.org/1999/02/22-rdf-syntax-ns#"
   xmlns:svg="http://www.w3.org/2000/svg"
   xmlns="http://www.w3.org/2000/svg"
   xmlns:xlink="http://www.w3.org/1999/xlink"
   xmlns:sodipodi="http://sodipodi.sourceforge.net/DTD/sodipodi-0.dtd"
   xmlns:inkscape="http://www.inkscape.org/namespaces/inkscape"
   width="1920"
   height="1080"
   viewBox="0 0 507.99999 285.75001"
   version="1.1"
   id="svg8"
   inkscape:version="0.92.2 (5c3e80d, 2017-08-06)"
   sodipodi:docname="rei ya silver.svg"
   inkscape:export-filename="/home/mbrickn/Projects/aXVI/game/images/characters/rei ya/rei ya normal.png"
   inkscape:export-xdpi="96"
   inkscape:export-ydpi="96">
  <title
     id="title52">Rei Ya</title>
  <defs
     id="defs2">
    <linearGradient
       inkscape:collect="always"
       id="linearGradient4351">
      <stop
         style="stop-color:#97dada;stop-opacity:1"
         offset="0"
         id="stop4346" />
      <stop
         style="stop-color:#78acac;stop-opacity:1"
         offset="1"
         id="stop4348" />
    </linearGradient>
    <linearGradient
       inkscape:collect="always"
       id="linearGradient4344">
      <stop
         style="stop-color:#97dada;stop-opacity:1"
         offset="0"
         id="stop4340" />
      <stop
         style="stop-color:#84bcbc;stop-opacity:1"
         offset="1"
         id="stop4342" />
    </linearGradient>
    <linearGradient
       inkscape:collect="always"
       id="linearGradient4401">
      <stop
         style="stop-color:#ddb6aa;stop-opacity:1"
         offset="0"
         id="stop4397" />
      <stop
         style="stop-color:#e9c6af;stop-opacity:1"
         offset="1"
         id="stop4399" />
    </linearGradient>
    <linearGradient
       inkscape:collect="always"
       id="linearGradient4384">
      <stop
         style="stop-color:#598080;stop-opacity:1"
         offset="0"
         id="stop4380" />
      <stop
         style="stop-color:#7bb1b1;stop-opacity:1"
         offset="1"
         id="stop4382" />
    </linearGradient>
    <linearGradient
       inkscape:collect="always"
       id="linearGradient4372">
      <stop
         style="stop-color:#803e80;stop-opacity:1;"
         offset="0"
         id="stop4368" />
      <stop
         style="stop-color:#803e80;stop-opacity:0;"
         offset="1"
         id="stop4370" />
    </linearGradient>
    <linearGradient
       inkscape:collect="always"
       id="linearGradient4364">
      <stop
         style="stop-color:#803e80;stop-opacity:1;"
         offset="0"
         id="stop4360" />
      <stop
         style="stop-color:#803e80;stop-opacity:0;"
         offset="1"
         id="stop4362" />
    </linearGradient>
    <linearGradient
       inkscape:collect="always"
       id="linearGradient4356">
      <stop
         style="stop-color:#645091;stop-opacity:1;"
         offset="0"
         id="stop4352" />
      <stop
         style="stop-color:#58467f;stop-opacity:1"
         offset="1"
         id="stop4354" />
    </linearGradient>
    <linearGradient
       id="linearGradient4330"
       inkscape:collect="always">
      <stop
         id="stop4326"
         offset="0"
         style="stop-color:#97dada;stop-opacity:1" />
      <stop
         id="stop4328"
         offset="1"
         style="stop-color:#517474;stop-opacity:1" />
    </linearGradient>
    <linearGradient
       inkscape:collect="always"
       id="linearGradient4314">
      <stop
         style="stop-color:#7bb1b1;stop-opacity:1;"
         offset="0"
         id="stop4310" />
      <stop
         style="stop-color:#517474;stop-opacity:1"
         offset="1"
         id="stop4312" />
    </linearGradient>
    <linearGradient
       inkscape:collect="always"
       xlink:href="#linearGradient4314"
       id="linearGradient4316"
       x1="450.60394"
       y1="257.22238"
       x2="447.02408"
       y2="300.25259"
       gradientUnits="userSpaceOnUse"
       gradientTransform="matrix(0.90647473,0,0,0.90647473,249.69734,140.07239)" />
    <linearGradient
       inkscape:collect="always"
       xlink:href="#linearGradient4330"
       id="linearGradient4324"
       x1="421.72278"
       y1="177.05852"
       x2="429.54855"
       y2="225.55316"
       gradientUnits="userSpaceOnUse" />
    <linearGradient
       inkscape:collect="always"
       xlink:href="#linearGradient4344"
       id="linearGradient4346"
       x1="489.60617"
       y1="199.76924"
       x2="475.55997"
       y2="213.08919"
       gradientUnits="userSpaceOnUse"
       gradientTransform="matrix(0.90647473,0,0,0.90647473,249.69734,140.07239)" />
    <linearGradient
       inkscape:collect="always"
       xlink:href="#linearGradient4351"
       id="linearGradient4350"
       gradientUnits="userSpaceOnUse"
       x1="492.97"
       y1="210.37859"
       x2="468.57553"
       y2="216.79384"
       gradientTransform="matrix(-0.90647473,0,0,0.90647473,1066.8249,140.07239)" />
    <radialGradient
       inkscape:collect="always"
       xlink:href="#linearGradient4356"
       id="radialGradient4358"
       cx="450.6113"
       cy="130.00717"
       fx="450.6113"
       fy="130.00717"
       r="3.2379129"
       gradientTransform="matrix(0.90647473,0,0,0.92116201,249.69734,138.16294)"
       gradientUnits="userSpaceOnUse" />
    <radialGradient
       inkscape:collect="always"
       xlink:href="#linearGradient4364"
       id="radialGradient4366"
       cx="415.73627"
       cy="146.98932"
       fx="415.73627"
       fy="146.98932"
       r="5.2870173"
       gradientTransform="matrix(0.90647466,0,0,0.53179846,227.53046,229.70094)"
       gradientUnits="userSpaceOnUse" />
    <radialGradient
       inkscape:collect="always"
       xlink:href="#linearGradient4372"
       id="radialGradient4374"
       cx="448.81482"
       cy="169.91335"
       fx="448.81482"
       fy="169.91335"
       r="7.6133037"
       gradientTransform="matrix(0.9064747,0,0,0.41127097,217.90297,270.64426)"
       gradientUnits="userSpaceOnUse" />
    <linearGradient
       inkscape:collect="always"
       xlink:href="#linearGradient4384"
       id="linearGradient4386"
       x1="454.02368"
       y1="424.32324"
       x2="449.16287"
       y2="339.76166"
       gradientUnits="userSpaceOnUse" />
    <linearGradient
       inkscape:collect="always"
       xlink:href="#linearGradient4401"
       id="linearGradient4403"
       x1="443.33212"
       y1="76.96537"
       x2="446.77939"
       y2="74.169838"
       gradientUnits="userSpaceOnUse"
       gradientTransform="matrix(2.1425939,0,0,2.1425939,-298.31402,45.618817)" />
    <linearGradient
       inkscape:collect="always"
       xlink:href="#linearGradient4384"
       id="linearGradient4347"
       gradientUnits="userSpaceOnUse"
       x1="454.02368"
       y1="424.32324"
       x2="449.16287"
       y2="339.76166" />
    <linearGradient
       inkscape:collect="always"
       xlink:href="#linearGradient4384"
       id="linearGradient4349"
       gradientUnits="userSpaceOnUse"
       x1="454.02368"
       y1="424.32324"
       x2="449.16287"
       y2="339.76166" />
  </defs>
  <sodipodi:namedview
     id="base"
     pagecolor="#ffffff"
     bordercolor="#666666"
     borderopacity="1.0"
     inkscape:pageopacity="0.0"
     inkscape:pageshadow="2"
     inkscape:zoom="0.11313709"
     inkscape:cx="1130.4492"
     inkscape:cy="-106.06205"
     inkscape:document-units="mm"
     inkscape:current-layer="layer1"
     showgrid="false"
     inkscape:window-width="1440"
     inkscape:window-height="863"
     inkscape:window-x="1920"
     inkscape:window-y="0"
     inkscape:window-maximized="1"
     units="px"
     inkscape:pagecheckerboard="true"
     inkscape:document-rotation="0"
     fit-margin-top="0"
     fit-margin-left="0"
     fit-margin-right="0"
     fit-margin-bottom="0">
    <inkscape:grid
       type="xygrid"
       id="grid4485"
       originx="-394.37452"
       originy="139.00279" />
  </sodipodi:namedview>
  <metadata
     id="metadata5">
    <rdf:RDF>
      <cc:Work
         rdf:about="">
        <dc:format>image/svg+xml</dc:format>
        <dc:type
           rdf:resource="http://purl.org/dc/dcmitype/StillImage" />
        <dc:title>Rei Ya</dc:title>
        <cc:license
           rdf:resource="http://creativecommons.org/licenses/by/4.0/" />
        <dc:creator>
          <cc:Agent>
            <dc:title>Maxwell Paul Brickner</dc:title>
          </cc:Agent>
        </dc:creator>
      </cc:Work>
      <cc:License
         rdf:about="http://creativecommons.org/licenses/by/4.0/">
        <cc:permits
           rdf:resource="http://creativecommons.org/ns#Reproduction" />
        <cc:permits
           rdf:resource="http://creativecommons.org/ns#Distribution" />
        <cc:requires
           rdf:resource="http://creativecommons.org/ns#Notice" />
        <cc:requires
           rdf:resource="http://creativecommons.org/ns#Attribution" />
        <cc:permits
           rdf:resource="http://creativecommons.org/ns#DerivativeWorks" />
      </cc:License>
    </rdf:RDF>
  </metadata>
  <g
     inkscape:label="Head"
     inkscape:groupmode="layer"
     id="layer1"
     transform="translate(-394.37453,-150.25276)">
    <path
       style="fill:#000000;fill-opacity:1;stroke:#070808;stroke-width:0.11502996px;stroke-linecap:butt;stroke-linejoin:miter;stroke-opacity:1"
       d="m 624.12902,205.11918 c -0.89961,4.86563 5.6807,26.1931 13.01772,27.1482 1.23012,-2.58061 -0.10333,-28.16075 -3.28834,-31.21134 -3.185,-3.05058 -9.72938,4.06314 -9.72938,4.06314 z"
       id="path900"
       inkscape:connector-curvature="0"
       sodipodi:nodetypes="ccsc" />
    <path
       style="fill:#000000;fill-opacity:1;stroke:#070808;stroke-width:0.29600453px;stroke-linecap:butt;stroke-linejoin:miter;stroke-opacity:1"
       d="m 689.37687,209.78728 c 0,0 3.03,0.75732 8.33491,-6.54086 1.60715,-1.8688 17.09695,-35.44846 -22.86365,-42.00287 -39.96062,-6.55438 -52.22366,28.75477 -52.85797,36.15487 -2.20409,10.91349 13.74308,19.24028 35.73199,6.34294 30.65762,5.49726 31.65472,6.04592 31.65472,6.04592 z"
       id="path4522"
       inkscape:connector-curvature="0"
       sodipodi:nodetypes="ccsccc" />
    <path
       style="fill:#7bb1b1;fill-opacity:1;stroke:none;stroke-width:1.01213431px;stroke-linecap:butt;stroke-linejoin:miter;stroke-opacity:1"
       d="m 654.94018,244.51004 c 0,0 4.47303,11.62991 3.70623,17.25319 17.76437,-4.08964 18.53117,-1.7892 18.53117,-1.7892 0,0 -6.13446,-16.99759 -6.77346,-20.19262 -0.63901,-3.19505 -15.46394,4.72863 -15.46394,4.72863 z"
       id="path4612"
       inkscape:connector-curvature="0" />
    <path
       style="fill:#e9c6af;stroke:none;stroke-width:1.01213431px;stroke-linecap:butt;stroke-linejoin:miter;stroke-opacity:1"
       d="m 631.12067,204.03179 c 0,0 0,25.30333 10.12134,35.4247 10.12133,10.12133 20.24268,10.12133 20.24268,10.12133 0,0 6.51331,0.31714 15.89464,-8.20476 13.50605,-12.26874 19.53005,-47.46261 19.53005,-47.46261 0,0 0,-25.30343 -40.48535,-25.30338 -25.30335,3e-5 -25.30336,35.42472 -25.30336,35.42472 z"
       id="path4487"
       inkscape:connector-curvature="0"
       sodipodi:nodetypes="cccscsc" />
    <ellipse
       ry="10.121343"
       rx="8.7658052"
       cy="198.97115"
       cx="675.31128"
       id="ellipse4497"
       style="fill:#ffffff;fill-opacity:1;stroke:none;stroke-width:4.11075735;stroke-linecap:round;stroke-linejoin:round;stroke-miterlimit:4;stroke-dasharray:none;stroke-opacity:1;paint-order:stroke fill markers" />
    <path
       sodipodi:nodetypes="ccc"
       style="fill:url(#linearGradient4403);fill-opacity:1;stroke:none;stroke-width:1.59137511;stroke-linecap:butt;stroke-linejoin:miter;stroke-miterlimit:4;stroke-dasharray:none;stroke-opacity:1"
       d="m 655.32597,197.9758 c 0,0 -0.95874,6.30726 -3.75927,12.54855 9.0116,2.15994 12.49155,-1.86802 12.49155,-1.86802"
       id="path4489"
       inkscape:connector-curvature="0" />
    <ellipse
       ry="11.318024"
       rx="6.2400713"
       cy="252.79077"
       cx="621.05084"
       id="ellipse4499"
       style="fill:#ffffff;fill-opacity:1;stroke:none;stroke-width:4.49192619;stroke-linecap:round;stroke-linejoin:round;stroke-miterlimit:4;stroke-dasharray:none;stroke-opacity:1;paint-order:stroke fill markers"
       transform="rotate(-4.4885584)" />
    <ellipse
       style="fill:#9fb3ff;fill-opacity:1;stroke:none;stroke-width:3.45182824;stroke-linecap:round;stroke-linejoin:round;stroke-miterlimit:4;stroke-dasharray:none;stroke-opacity:1;paint-order:stroke fill markers"
       id="path4491"
       cx="619.52112"
       cy="253.17192"
       rx="4.7300863"
       ry="8.8170691"
       transform="rotate(-4.4885584)" />
    <ellipse
       style="fill:#9fb3ff;fill-opacity:1;stroke:none;stroke-width:3.55749393;stroke-linecap:round;stroke-linejoin:round;stroke-miterlimit:4;stroke-dasharray:none;stroke-opacity:1;paint-order:stroke fill markers"
       id="path4493"
       cx="655.92603"
       cy="251.65982"
       rx="7.059402"
       ry="9.4125357"
       transform="rotate(-4.4885584)" />
    <path
       sodipodi:nodetypes="ccccc"
       style="fill:#000000;fill-opacity:1;stroke:#000000;stroke-width:1.13180244px;stroke-linecap:butt;stroke-linejoin:miter;stroke-opacity:1"
       d="m 666.32233,198.87952 c 0,0 1.04635,-6.77631 9.38144,-7.12653 8.33509,-0.3501 8.79728,7.11908 8.79728,7.11908 0,0 0.20238,-11.82536 -8.45765,-11.09487 -8.66003,0.73046 -9.72107,11.10232 -9.72107,11.10232 z"
       id="path4505"
       inkscape:connector-curvature="0" />
    <path
       style="fill:#d5f6ff;fill-opacity:1;stroke:#000000;stroke-width:1.13180244px;stroke-linecap:butt;stroke-linejoin:miter;stroke-opacity:1"
       d="m 684.80006,198.16193 1.4543,0.34092"
       id="path4507"
       inkscape:connector-curvature="0"
       sodipodi:nodetypes="cc" />
    <path
       inkscape:connector-curvature="0"
       id="path4509"
       d="m 632.50593,202.26788 c 0,0 0.44053,-6.12329 6.17451,-6.26932 5.73398,-0.1459 6.61092,6.19062 6.61092,6.19062 0,0 -0.51741,-11.27423 -6.46595,-10.75659 -5.94858,0.5176 -6.31948,10.83529 -6.31948,10.83529 z"
       style="fill:#000000;fill-opacity:1;stroke:#000000;stroke-width:0.93812734px;stroke-linecap:butt;stroke-linejoin:miter;stroke-opacity:1"
       sodipodi:nodetypes="ccccc" />
    <path
       sodipodi:nodetypes="cc"
       inkscape:connector-curvature="0"
       id="path4511"
       d="m 631.23489,201.4807 1.01028,0.37577"
       style="fill:#d5f6ff;fill-opacity:1;stroke:#000000;stroke-width:0.93812734px;stroke-linecap:butt;stroke-linejoin:miter;stroke-opacity:1" />
    <path
       sodipodi:nodetypes="cc"
       style="fill:none;fill-opacity:1;stroke:#d6ada7;stroke-width:0.67326868;stroke-linecap:butt;stroke-linejoin:miter;stroke-miterlimit:4;stroke-dasharray:none;stroke-opacity:1"
       d="m 662.91883,231.28393 c 0,0 -2.30617,1.40238 -5.09124,2.18946"
       id="path4489-3"
       inkscape:connector-curvature="0" />
    <path
       style="fill:#000000;fill-opacity:1;stroke:#070808;stroke-width:0.20064159px;stroke-linecap:butt;stroke-linejoin:miter;stroke-opacity:1"
       d="m 655.13166,166.71446 c 3.77521,7.76129 33.02055,33.39674 44.30832,27.14049 -0.94531,-4.89606 -15.62567,-27.9777 -23.25505,-28.9619 -7.62939,-0.98421 -21.05327,1.82141 -21.05327,1.82141 z"
       id="path4580"
       inkscape:connector-curvature="0"
       sodipodi:nodetypes="ccsc" />
    <path
       sodipodi:nodetypes="ccsc"
       inkscape:connector-curvature="0"
       id="path4510"
       d="m 627.91798,191.57222 c 8.58466,0.89091 45.7957,-10.4142 46.44111,-23.30363 -11.45977,-7.08925 -34.9701,3.26294 -39.83359,9.22305 -4.86345,5.96009 -6.60752,14.08058 -6.60752,14.08058 z"
       style="fill:#000000;fill-opacity:1;stroke:#070808;stroke-width:0.20064159px;stroke-linecap:butt;stroke-linejoin:miter;stroke-opacity:1" />
    <path
       sodipodi:nodetypes="ccsc"
       inkscape:connector-curvature="0"
       id="path898"
       d="m 701.75941,183.3283 c 2.54361,8.2474 -1.30801,46.94665 -13.82578,50.08674 -2.65361,-4.22178 -8.75296,-49.22641 -3.85263,-55.15625 4.90031,-5.92984 17.67841,5.06951 17.67841,5.06951 z"
       style="fill:#000000;fill-opacity:1;stroke:#070808;stroke-width:0.20064159px;stroke-linecap:butt;stroke-linejoin:miter;stroke-opacity:1" />
    <path
       inkscape:connector-curvature="0"
       id="path901"
       d="m 655.76141,281.26557 c 0,0 -99.14401,-42.54156 -179.24134,-155.96407"
       style="fill:none;stroke:#ff0000;stroke-width:0.465;stroke-linecap:butt;stroke-linejoin:miter;stroke-miterlimit:4;stroke-dasharray:none;stroke-opacity:1" />
    <path
       style="fill:none;stroke:#ff0000;stroke-width:0.465;stroke-linecap:butt;stroke-linejoin:miter;stroke-miterlimit:4;stroke-dasharray:none;stroke-opacity:1"
       d="m 654.65741,288.47537 c 0,0 -93.75836,-53.37312 -160.65479,-175.04939"
       id="path911"
       inkscape:connector-curvature="0" />
    <path
       style="fill:none;stroke:#97dada;stroke-width:0.465;stroke-linecap:butt;stroke-linejoin:miter;stroke-miterlimit:4;stroke-dasharray:none;stroke-opacity:1"
       d="m 622.76658,331.70569 c 0,0 -127.52487,96.52693 -198.62017,-187.10881"
       id="path907-3"
       inkscape:connector-curvature="0"
       sodipodi:nodetypes="cc" />
    <path
       sodipodi:nodetypes="ccc"
       inkscape:connector-curvature="0"
       id="path909-5"
       d="m 622.76658,331.70569 c 0,0 7.59407,-10.94875 -9.01259,-10.13078 C 524.33352,323.30882 410.178,302.82527 424.14641,144.59688"
       style="fill:none;stroke:#97dada;stroke-width:0.465;stroke-linecap:butt;stroke-linejoin:miter;stroke-miterlimit:4;stroke-dasharray:none;stroke-opacity:1" />
    <path
       sodipodi:nodetypes="cc"
       inkscape:connector-curvature="0"
       id="path921-6"
       d="m 621.78526,345.23846 c 0,0 -87.64555,-52.75963 -168.36179,-208.77796"
       style="fill:none;stroke:#97dada;stroke-width:0.465;stroke-linecap:butt;stroke-linejoin:miter;stroke-miterlimit:4;stroke-dasharray:none;stroke-opacity:1" />
    <path
       style="fill:none;stroke:#97dada;stroke-width:0.465;stroke-linecap:butt;stroke-linejoin:miter;stroke-miterlimit:4;stroke-dasharray:none;stroke-opacity:1"
       d="m 622.21829,340.37132 c 0,0 5.7197,-5.04187 -10.87379,-6.09375 -89.04967,-8.31768 -188.43316,-82.54526 -211.12438,-206.58685"
       id="path923-2"
       inkscape:connector-curvature="0"
       sodipodi:nodetypes="ccc" />
    <path
       style="fill:none;fill-opacity:1;stroke:#7bb1b1;stroke-width:0.465;stroke-linecap:butt;stroke-linejoin:miter;stroke-miterlimit:4;stroke-dasharray:none;stroke-opacity:1"
       d="m 542.18048,633.61027 c 0,0 -9.79814,-136.17168 77.23123,-244.36658"
       id="path961"
       inkscape:connector-curvature="0"
       sodipodi:nodetypes="cc" />
    <path
       sodipodi:nodetypes="cc"
       inkscape:connector-curvature="0"
       id="path963"
       d="m 519.14181,612.61812 c 0,0 11.1912,-136.06425 113.77704,-229.63986"
       style="fill:none;fill-opacity:1;stroke:#7bb1b1;stroke-width:0.465;stroke-linecap:butt;stroke-linejoin:miter;stroke-miterlimit:4;stroke-dasharray:none;stroke-opacity:1" />
    <path
       style="fill:none;stroke:#97dada;stroke-width:0.465;stroke-linecap:butt;stroke-linejoin:miter;stroke-miterlimit:4;stroke-dasharray:none;stroke-opacity:1"
       d="m 620.41226,290.17739 c 0,0 -119.88714,-47.99294 -209.87634,-153.73883"
       id="path973"
       inkscape:connector-curvature="0"
       sodipodi:nodetypes="cc" />
    <path
       sodipodi:nodetypes="cc"
       inkscape:connector-curvature="0"
       id="path979"
       d="m 635.93209,370.85952 c 0,0 -145.02718,14.66776 -235.01638,120.41367"
       style="fill:none;stroke:#97dada;stroke-width:0.465;stroke-linecap:butt;stroke-linejoin:miter;stroke-miterlimit:4;stroke-dasharray:none;stroke-opacity:1" />
    <path
       style="fill:none;stroke:#ff0000;stroke-width:0.465;stroke-linecap:butt;stroke-linejoin:miter;stroke-miterlimit:4;stroke-dasharray:none;stroke-opacity:1"
       d="m 685.59278,300.57101 c 0,0 -93.75838,-53.37312 -160.65482,-175.04939"
       id="path911-3"
       inkscape:connector-curvature="0" />
    <path
       style="fill:none;fill-opacity:1;stroke:#7bb1b1;stroke-width:0.465;stroke-linecap:butt;stroke-linejoin:miter;stroke-miterlimit:4;stroke-dasharray:none;stroke-opacity:1"
       d="m 545.19372,621.49153 c 0,0 -9.79814,-136.17167 77.23123,-244.36657"
       id="path961-6"
       inkscape:connector-curvature="0"
       sodipodi:nodetypes="cc" />
    <path
       sodipodi:nodetypes="cc"
       inkscape:connector-curvature="0"
       id="path963-0"
       d="m 522.15505,600.49938 c 0,0 11.1912,-136.06425 113.77704,-229.63986"
       style="fill:none;fill-opacity:1;stroke:#7bb1b1;stroke-width:0.465;stroke-linecap:butt;stroke-linejoin:miter;stroke-miterlimit:4;stroke-dasharray:none;stroke-opacity:1" />
    <path
       style="fill:none;fill-opacity:1;stroke:#7bb1b1;stroke-width:0.465;stroke-linecap:butt;stroke-linejoin:miter;stroke-miterlimit:4;stroke-dasharray:none;stroke-opacity:1"
       d="m 552.61448,594.38748 c 0,0 -9.79814,-136.17167 77.23123,-244.36658"
       id="path961-6-2"
       inkscape:connector-curvature="0"
       sodipodi:nodetypes="cc" />
    <path
       sodipodi:nodetypes="cc"
       inkscape:connector-curvature="0"
       id="path963-0-6"
       d="m 529.57581,573.39534 c 0,0 11.1912,-136.06426 113.77704,-229.63988"
       style="fill:none;fill-opacity:1;stroke:#7bb1b1;stroke-width:0.465;stroke-linecap:butt;stroke-linejoin:miter;stroke-miterlimit:4;stroke-dasharray:none;stroke-opacity:1" />
    <path
       style="fill:none;fill-opacity:1;stroke:#7bb1b1;stroke-width:0.465;stroke-linecap:butt;stroke-linejoin:miter;stroke-miterlimit:4;stroke-dasharray:none;stroke-opacity:1"
       d="m 544.55403,589.60503 c 0,0 -9.79814,-136.17167 77.23123,-244.36657"
       id="path961-6-8"
       inkscape:connector-curvature="0"
       sodipodi:nodetypes="cc" />
    <path
       sodipodi:nodetypes="cc"
       inkscape:connector-curvature="0"
       id="path963-0-7"
       d="m 521.51536,568.61289 c 0,0 11.1912,-136.06426 113.77704,-229.63987"
       style="fill:none;fill-opacity:1;stroke:#7bb1b1;stroke-width:0.465;stroke-linecap:butt;stroke-linejoin:miter;stroke-miterlimit:4;stroke-dasharray:none;stroke-opacity:1" />
    <path
       style="fill:none;fill-opacity:1;stroke:#7bb1b1;stroke-width:0.465;stroke-linecap:butt;stroke-linejoin:miter;stroke-miterlimit:4;stroke-dasharray:none;stroke-opacity:1"
       d="m 544.98706,584.73789 c 0,0 -9.79814,-136.17167 77.23123,-244.36657"
       id="path961-6-20"
       inkscape:connector-curvature="0"
       sodipodi:nodetypes="cc" />
    <path
       sodipodi:nodetypes="cc"
       inkscape:connector-curvature="0"
       id="path963-0-2"
       d="m 521.94839,563.74574 c 0,0 11.1912,-136.06425 113.77704,-229.63986"
       style="fill:none;fill-opacity:1;stroke:#7bb1b1;stroke-width:0.465;stroke-linecap:butt;stroke-linejoin:miter;stroke-miterlimit:4;stroke-dasharray:none;stroke-opacity:1" />
    <path
       inkscape:connector-curvature="0"
       id="path901-3"
       d="m 655.76141,281.26557 c 0,0 99.14401,-42.54156 179.24134,-155.96407"
       style="fill:none;stroke:#ff0000;stroke-width:0.465;stroke-linecap:butt;stroke-linejoin:miter;stroke-miterlimit:4;stroke-dasharray:none;stroke-opacity:1" />
    <path
       style="fill:none;stroke:#ff0000;stroke-width:0.465;stroke-linecap:butt;stroke-linejoin:miter;stroke-miterlimit:4;stroke-dasharray:none;stroke-opacity:1"
       d="m 656.86541,288.47537 c 0,0 93.75836,-53.37312 160.65479,-175.04939"
       id="path911-6"
       inkscape:connector-curvature="0" />
    <path
       style="fill:none;stroke:#97dada;stroke-width:0.465;stroke-linecap:butt;stroke-linejoin:miter;stroke-miterlimit:4;stroke-dasharray:none;stroke-opacity:1"
       d="m 688.75624,331.70569 c 0,0 127.52487,96.52693 198.62017,-187.10881"
       id="path907-3-7"
       inkscape:connector-curvature="0"
       sodipodi:nodetypes="cc" />
    <path
       sodipodi:nodetypes="ccc"
       inkscape:connector-curvature="0"
       id="path909-5-5"
       d="m 688.75624,331.70569 c 0,0 -7.59407,-10.94875 9.01259,-10.13078 89.42047,1.73391 203.57599,-18.74964 189.60758,-176.97803"
       style="fill:none;stroke:#97dada;stroke-width:0.465;stroke-linecap:butt;stroke-linejoin:miter;stroke-miterlimit:4;stroke-dasharray:none;stroke-opacity:1" />
    <path
       sodipodi:nodetypes="cc"
       inkscape:connector-curvature="0"
       id="path921-6-3"
       d="m 689.73756,345.23846 c 0,0 87.64555,-52.75963 168.36179,-208.77796"
       style="fill:none;stroke:#97dada;stroke-width:0.465;stroke-linecap:butt;stroke-linejoin:miter;stroke-miterlimit:4;stroke-dasharray:none;stroke-opacity:1" />
    <path
       style="fill:none;stroke:#97dada;stroke-width:0.465;stroke-linecap:butt;stroke-linejoin:miter;stroke-miterlimit:4;stroke-dasharray:none;stroke-opacity:1"
       d="m 689.30453,340.37132 c 0,0 -5.7197,-5.04187 10.87379,-6.09375 89.04967,-8.31768 179.9557,-82.83759 202.64692,-206.87918"
       id="path923-2-5"
       inkscape:connector-curvature="0"
       sodipodi:nodetypes="ccc" />
    <path
       style="fill:none;fill-opacity:1;stroke:#7bb1b1;stroke-width:0.465;stroke-linecap:butt;stroke-linejoin:miter;stroke-miterlimit:4;stroke-dasharray:none;stroke-opacity:1"
       d="m 769.34234,633.61027 c 0,0 9.79814,-136.17168 -77.23123,-244.36658"
       id="path961-62"
       inkscape:connector-curvature="0"
       sodipodi:nodetypes="cc" />
    <path
       sodipodi:nodetypes="cc"
       inkscape:connector-curvature="0"
       id="path963-9"
       d="m 792.38101,612.61812 c 0,0 -11.1912,-136.06425 -113.77704,-229.63986"
       style="fill:none;fill-opacity:1;stroke:#7bb1b1;stroke-width:0.465;stroke-linecap:butt;stroke-linejoin:miter;stroke-miterlimit:4;stroke-dasharray:none;stroke-opacity:1" />
    <path
       style="fill:none;stroke:#97dada;stroke-width:0.465;stroke-linecap:butt;stroke-linejoin:miter;stroke-miterlimit:4;stroke-dasharray:none;stroke-opacity:1"
       d="m 691.11056,290.17739 c 0,0 119.88714,-47.99294 209.87634,-153.73883"
       id="path973-1"
       inkscape:connector-curvature="0"
       sodipodi:nodetypes="cc" />
    <path
       sodipodi:nodetypes="cc"
       inkscape:connector-curvature="0"
       id="path979-2"
       d="m 675.59073,370.85952 c 0,0 145.02718,14.66776 235.01638,120.41367"
       style="fill:none;stroke:#97dada;stroke-width:0.465;stroke-linecap:butt;stroke-linejoin:miter;stroke-miterlimit:4;stroke-dasharray:none;stroke-opacity:1" />
    <path
       style="fill:none;stroke:#ff0000;stroke-width:0.465;stroke-linecap:butt;stroke-linejoin:miter;stroke-miterlimit:4;stroke-dasharray:none;stroke-opacity:1"
       d="m 625.93004,300.57101 c 0,0 93.75838,-53.37312 160.65482,-175.04939"
       id="path911-3-7"
       inkscape:connector-curvature="0" />
    <path
       style="fill:none;fill-opacity:1;stroke:#7bb1b1;stroke-width:0.465;stroke-linecap:butt;stroke-linejoin:miter;stroke-miterlimit:4;stroke-dasharray:none;stroke-opacity:1"
       d="m 766.3291,621.49153 c 0,0 9.79814,-136.17167 -77.23123,-244.36657"
       id="path961-6-0"
       inkscape:connector-curvature="0"
       sodipodi:nodetypes="cc" />
    <path
       sodipodi:nodetypes="cc"
       inkscape:connector-curvature="0"
       id="path963-0-9"
       d="m 789.36777,600.49938 c 0,0 -11.1912,-136.06425 -113.77704,-229.63986"
       style="fill:none;fill-opacity:1;stroke:#7bb1b1;stroke-width:0.465;stroke-linecap:butt;stroke-linejoin:miter;stroke-miterlimit:4;stroke-dasharray:none;stroke-opacity:1" />
    <path
       style="fill:none;fill-opacity:1;stroke:#7bb1b1;stroke-width:0.465;stroke-linecap:butt;stroke-linejoin:miter;stroke-miterlimit:4;stroke-dasharray:none;stroke-opacity:1"
       d="m 758.90834,594.38748 c 0,0 9.79814,-136.17167 -77.23123,-244.36658"
       id="path961-6-2-3"
       inkscape:connector-curvature="0"
       sodipodi:nodetypes="cc" />
    <path
       sodipodi:nodetypes="cc"
       inkscape:connector-curvature="0"
       id="path963-0-6-6"
       d="m 781.94701,573.39534 c 0,0 -11.1912,-136.06426 -113.77704,-229.63988"
       style="fill:none;fill-opacity:1;stroke:#7bb1b1;stroke-width:0.465;stroke-linecap:butt;stroke-linejoin:miter;stroke-miterlimit:4;stroke-dasharray:none;stroke-opacity:1" />
    <path
       style="fill:none;fill-opacity:1;stroke:#7bb1b1;stroke-width:0.465;stroke-linecap:butt;stroke-linejoin:miter;stroke-miterlimit:4;stroke-dasharray:none;stroke-opacity:1"
       d="m 766.96879,589.60503 c 0,0 9.79814,-136.17167 -77.23123,-244.36657"
       id="path961-6-8-0"
       inkscape:connector-curvature="0"
       sodipodi:nodetypes="cc" />
    <path
       sodipodi:nodetypes="cc"
       inkscape:connector-curvature="0"
       id="path963-0-7-6"
       d="m 790.00746,568.61289 c 0,0 -11.1912,-136.06426 -113.77704,-229.63987"
       style="fill:none;fill-opacity:1;stroke:#7bb1b1;stroke-width:0.465;stroke-linecap:butt;stroke-linejoin:miter;stroke-miterlimit:4;stroke-dasharray:none;stroke-opacity:1" />
    <path
       style="fill:none;fill-opacity:1;stroke:#7bb1b1;stroke-width:0.465;stroke-linecap:butt;stroke-linejoin:miter;stroke-miterlimit:4;stroke-dasharray:none;stroke-opacity:1"
       d="m 766.53576,584.73789 c 0,0 9.79814,-136.17167 -77.23123,-244.36657"
       id="path961-6-20-2"
       inkscape:connector-curvature="0"
       sodipodi:nodetypes="cc" />
    <path
       sodipodi:nodetypes="cc"
       inkscape:connector-curvature="0"
       id="path963-0-2-6"
       d="m 789.57443,563.74574 c 0,0 -11.1912,-136.06425 -113.77704,-229.63986"
       style="fill:none;fill-opacity:1;stroke:#7bb1b1;stroke-width:0.465;stroke-linecap:butt;stroke-linejoin:miter;stroke-miterlimit:4;stroke-dasharray:none;stroke-opacity:1" />
  </g>
  <g
     inkscape:groupmode="layer"
     id="layer3"
     inkscape:label="Body"
     transform="translate(-394.37453,-139.00278)">
    <path
       sodipodi:nodetypes="cccccc"
       inkscape:connector-curvature="0"
       id="path4348"
       d="m 652.30696,267.15113 c -1.0534,1.61242 -5.47743,3.85966 -6.22635,5.81212 -4.894,23.70526 -11.67862,52.13299 -0.55498,70.16907 3.07745,5.8378 -14.07693,6.17307 -14.40894,1.46954 -0.33201,-4.70362 -11.74858,-58.97104 1.38381,-83.49766 22.60158,-27.37282 19.80646,6.04693 19.80646,6.04693 z"
       style="fill:url(#linearGradient4350);fill-opacity:1;stroke:none;stroke-width:0.82759964px;stroke-linecap:butt;stroke-linejoin:miter;stroke-opacity:1" />
    <path
       style="fill:url(#linearGradient4346);fill-opacity:1;stroke:none;stroke-width:0.82759964px;stroke-linecap:butt;stroke-linejoin:miter;stroke-opacity:1"
       d="m 684.31543,273.60544 c 1.05341,1.61241 5.47743,3.85966 6.22635,5.81211 4.894,23.70528 -8.42153,45.67869 -19.54517,63.71477 -3.07744,5.8378 14.07693,6.17307 14.40895,1.46954 0.33202,-4.70362 31.84872,-52.51674 18.71631,-77.04334 -22.60156,-27.37284 -19.80644,6.04692 -19.80644,6.04692 z"
       id="path4640"
       inkscape:connector-curvature="0"
       sodipodi:nodetypes="cccccc" />
    <path
       style="fill:#97dada;fill-opacity:1;stroke:none;stroke-width:1.01213431px;stroke-linecap:butt;stroke-linejoin:miter;stroke-opacity:1"
       d="m 693.53255,254.49245 c -2.7261,5.66845 5.85401,18.64302 -2.03229,25.13035 -12.72375,12.63512 -8.22456,39.46333 -5.8772,54.33519 1.278,5.62332 8.8813,36.34443 8.8813,36.34443 l -69.41602,-4.66902 c 0,0 6.00052,-17.9645 11.02913,-32.70252 6.03607,-22.71739 -3.78331,-38.8693 -6.34725,-56.15808 -0.4126,-3.18456 0.91765,-4.40351 2.68826,-7.39028 6.67305,-11.53016 8.66191,7.2676 31.66492,11.1457 19.86947,3.34982 22.77482,-30.85982 29.40915,-26.03577 z"
       id="path4617"
       inkscape:connector-curvature="0"
       sodipodi:nodetypes="ccccccccsc" />
    <path
       style="fill:#7bb1b1;fill-opacity:1;stroke:none;stroke-width:1.01213431px;stroke-linecap:butt;stroke-linejoin:miter;stroke-opacity:1"
       d="m 658.35177,244.17834 c 0.7622,3.00424 -1.76524,4.92602 -1.94855,6.27049 0.85981,4.3227 2.00428,2.81622 4.11228,4.17175 2.30275,1.48082 8.41157,-0.55408 9.83527,-0.70812 5.99677,-0.64886 6.26876,-6.70094 6.26876,-6.70094 0,0 -0.74369,-2.06066 -1.74015,-4.88184 -7.55127,-4.68136 -12.94287,2.33747 -16.5276,1.84866 z"
       id="path4612-3"
       inkscape:connector-curvature="0"
       sodipodi:nodetypes="ccsscccc" />
    <path
       sodipodi:nodetypes="cssscccc"
       inkscape:connector-curvature="0"
       id="path4623"
       d="m 631.45731,269.99599 c -6.62842,12.10748 15.19955,21.14619 27.64208,23.97909 7.16448,1.6312 16.70427,-9.06438 27.23938,-13.59669 7.01025,-3.01589 16.59904,3.97079 18.42577,-7.39093 0.76587,-4.76353 -4.53452,-12.91825 -6.41282,-15.52621 -11.97246,-10.69193 -11.77253,-8.14189 -21.53498,-9.93099 -13.22073,6.35044 -22.01737,10.20195 -18.8783,-0.78146 -13.84549,0.47405 -18.96694,10.8599 -26.48113,23.24719 z"
       style="fill:#97dada;fill-opacity:1;stroke:#97dada;stroke-width:1.01247561;stroke-linecap:butt;stroke-linejoin:miter;stroke-miterlimit:4;stroke-dasharray:none;stroke-opacity:1" />
    <path
       style="fill:none;stroke:#7bb1b1;stroke-width:0.29600453px;stroke-linecap:butt;stroke-linejoin:miter;stroke-opacity:1"
       d="m 654.78268,246.642 c 0,0 -6.76579,9.62016 0.95145,11.36448 7.71729,1.74431 18.55316,-3.06576 23.99755,-10.51874"
       id="path4514"
       inkscape:connector-curvature="0" />
    <path
       sodipodi:type="star"
       style="fill:#7bb1b1;fill-opacity:1;stroke:#7bb1b1;stroke-width:0.67349195;stroke-linecap:round;stroke-linejoin:round;stroke-miterlimit:4;stroke-dasharray:none;stroke-dashoffset:0;stroke-opacity:1;paint-order:stroke fill markers"
       id="path4516"
       sodipodi:sides="3"
       sodipodi:cx="657.79565"
       sodipodi:cy="257.74216"
       sodipodi:r1="2.9306388"
       sodipodi:r2="1.4653194"
       sodipodi:arg1="0.88760488"
       sodipodi:arg2="1.9348024"
       inkscape:flatsided="true"
       inkscape:rounded="0.71"
       inkscape:randomized="0"
       d="m 659.64568,260.01505 c -2.7951,2.27508 -4.17069,1.751 -4.74342,-1.80717 -0.57273,-3.55817 0.56893,-4.48743 3.93676,-3.20434 3.36783,1.28309 3.60177,2.73643 0.80666,5.01151 z"
       inkscape:transform-center-x="-0.36982731"
       inkscape:transform-center-y="0.17867423" />
    <path
       inkscape:transform-center-y="0.14018258"
       inkscape:transform-center-x="-0.29010811"
       d="m 659.3266,259.56374 c -2.19277,1.78481 -3.27193,1.37367 -3.72124,-1.41774 -0.44931,-2.7914 0.44633,-3.52041 3.08841,-2.51382 2.64208,1.00659 2.8256,2.14674 0.63283,3.93156 z"
       inkscape:randomized="0"
       inkscape:rounded="0.71"
       inkscape:flatsided="true"
       sodipodi:arg2="1.9348024"
       sodipodi:arg1="0.88760488"
       sodipodi:r2="1.1495508"
       sodipodi:r1="2.2991018"
       sodipodi:cy="257.78064"
       sodipodi:cx="657.87524"
       sodipodi:sides="3"
       id="path4518"
       style="fill:url(#radialGradient4358);fill-opacity:1;stroke:none;stroke-width:0.52835798;stroke-linecap:round;stroke-linejoin:round;stroke-miterlimit:4;stroke-dasharray:none;stroke-dashoffset:0;stroke-opacity:1;paint-order:stroke fill markers"
       sodipodi:type="star" />
    <g
       aria-label="â¤"
       transform="matrix(-0.49805784,0.07555073,0.07555073,0.49805784,896.19522,138.5283)"
       style="font-style:normal;font-weight:normal;font-size:10.58333302px;line-height:1.25;font-family:sans-serif;letter-spacing:0px;word-spacing:0px;fill:#e9c6af;fill-opacity:1;stroke:none;stroke-width:0.26458332"
       id="text4529">
      <path
         inkscape:connector-curvature="0"
         d="m 485.61373,143.21577 q -1.51033,-2.63481 -6.10746,-5.3027 -2.13872,-1.24574 -2.13872,-3.20807 0,-0.82682 0.29766,-1.5875 0.30868,-0.76068 0.91501,-1.35599 0.58429,-0.57326 1.34497,-0.90399 0.71658,-0.30868 1.56545,-0.30868 0.84887,0 1.56545,0.30868 0.74965,0.3197 1.34497,0.90399 0.58429,0.57327 0.89297,1.33394 0.3197,0.74966 0.3197,1.60955 0,-0.85989 0.30868,-1.60955 0.31971,-0.76067 0.90399,-1.33394 0.59532,-0.58429 1.34497,-0.90399 0.71658,-0.30868 1.56545,-0.30868 0.84887,0 1.56545,0.30868 0.76068,0.33073 1.34497,0.90399 0.60633,0.59531 0.90399,1.35599 0.30868,0.76068 0.30868,1.5875 0,1.98438 -2.13871,3.20807 -4.59714,2.66789 -6.10747,5.3027 z"
         style="font-size:22.57777786px;line-height:25.65000534;fill:#e9c6af;fill-opacity:1;stroke-width:0.26458332"
         id="path4524" />
    </g>
    <path
       sodipodi:nodetypes="csccscc"
       inkscape:connector-curvature="0"
       id="path4300"
       d="m 657.51929,383.24364 c 0,0 1.82189,38.84154 2.27946,46.59502 0.4611,7.81341 9.25199,74.78921 15.05477,76.15986 5.80287,1.3706 12.46503,1.03438 12.36337,-3.44857 -0.10169,-4.48297 0.40386,-58.11558 -1.36075,-66.40782 -1.76463,-8.29228 8.44215,-57.23839 8.44215,-57.23839 z"
       style="fill:#000000;fill-opacity:1;stroke:none;stroke-width:0.28541678px;stroke-linecap:butt;stroke-linejoin:miter;stroke-opacity:1" />
    <path
       style="fill:#000000;fill-opacity:1;stroke:none;stroke-width:0.28541678px;stroke-linecap:butt;stroke-linejoin:miter;stroke-opacity:1"
       d="m 628.1021,380.87683 c 0,0 -5.84383,45.71947 -4.69129,53.49946 1.27575,8.612 13.58341,69.41891 19.46653,71.05136 5.88315,1.63239 12.57636,1.60582 12.33045,-2.86046 -0.24591,-4.46635 -5.34556,-61.13621 -7.38682,-69.47056 -2.04128,-8.33439 9.69832,-49.85299 9.69832,-49.85299 z"
       id="path4298"
       inkscape:connector-curvature="0"
       sodipodi:nodetypes="csccscc" />
    <path
       style="fill:url(#linearGradient4316);fill-opacity:1;stroke:none;stroke-width:0.2143255px;stroke-linecap:butt;stroke-linejoin:miter;stroke-opacity:1"
       d="m 625.08834,365.6334 c 0,0 -5.54982,32.75277 -3.38479,38.16533 2.16501,5.41254 69.06226,8.53996 74.9078,7.67394 5.84553,-0.86598 -2.10699,-41.17025 -2.10699,-41.17025 l -28.74004,-1.93309 -8.73703,-23.17019 -9.99151,21.91047 z"
       id="path4708"
       inkscape:connector-curvature="0"
       sodipodi:nodetypes="cccccccc" />
    <g
       id="g4378"
       style="fill:url(#linearGradient4386);fill-opacity:1"
       transform="matrix(0.90647468,0,0,0.90647468,249.69735,140.07238)">
      <path
         sodipodi:nodetypes="cccccsscccc"
         inkscape:connector-curvature="0"
         id="path4302"
         d="m 401.84795,423.5203 c 3.88059,0.28807 28.55335,0.92938 29.8149,0.0995 3.79334,-6.39764 6.34496,0.46269 7.09055,0.36211 1.08515,-0.19603 10.9269,0.10911 11.04742,-1.27179 0.12058,-1.38088 2.33082,-20.88957 0.73738,-23.58383 -0.23718,-0.40105 -5.71602,-53.65781 -9.18972,-56.01265 -7.82162,-5.30229 -21.73841,0.76977 -25.687,1.97002 -2.06675,0.62823 14.26101,54.37653 14.89142,56.65103 -4.91772,12.94857 -24.70349,14.19391 -35.63843,9.75559 -2.45725,5.72751 4.10848,11.64143 6.93348,12.02996 z"
         style="fill:url(#linearGradient4347);fill-opacity:1;stroke:none;stroke-width:0.22643499px;stroke-linecap:butt;stroke-linejoin:miter;stroke-opacity:1" />
      <path
         style="fill:url(#linearGradient4349);fill-opacity:1;stroke:none;stroke-width:0.22643499px;stroke-linecap:butt;stroke-linejoin:miter;stroke-opacity:1"
         d="m 474.37514,424.75278 c 1.08515,-0.19604 11.88538,-0.66179 12.00589,-2.04263 0.12058,-1.38088 2.33081,-20.88958 0.73736,-23.58384 -0.23719,-0.40105 -2.37205,-51.05945 -4.55499,-54.64368 -8.19382,-13.45364 -24.00562,-1.17763 -27.95419,0.0226 -2.06674,0.62824 9.96406,55.52411 10.59446,57.7986 -11.92391,27.11323 -12.30702,19.23785 9.17147,22.44892 z"
         id="path4306"
         inkscape:connector-curvature="0"
         sodipodi:nodetypes="cccsscc" />
    </g>
    <circle
       style="fill:#7bb1b1;fill-opacity:1;stroke:none;stroke-width:2.59704995;stroke-linecap:square;stroke-linejoin:bevel;paint-order:stroke fill markers"
       id="path4312"
       cx="657.18311"
       cy="345.53903"
       r="1.5597173" />
    <circle
       r="1.5597173"
       cy="362.6091"
       cx="629.50165"
       id="circle46"
       style="fill:#7bb1b1;fill-opacity:1;stroke:none;stroke-width:2.59704995;stroke-linecap:square;stroke-linejoin:bevel;paint-order:stroke fill markers" />
    <circle
       style="fill:#7bb1b1;fill-opacity:1;stroke:none;stroke-width:2.59704995;stroke-linecap:square;stroke-linejoin:bevel;paint-order:stroke fill markers"
       id="circle48"
       cx="637.01111"
       cy="363.30203"
       r="1.5597173" />
    <circle
       r="1.5597173"
       cy="363.99496"
       cx="644.52069"
       id="circle50"
       style="fill:#7bb1b1;fill-opacity:1;stroke:none;stroke-width:2.59704995;stroke-linecap:square;stroke-linejoin:bevel;paint-order:stroke fill markers" />
    <circle
       style="fill:#7bb1b1;fill-opacity:1;stroke:none;stroke-width:2.59704995;stroke-linecap:square;stroke-linejoin:bevel;paint-order:stroke fill markers"
       id="circle3504"
       cx="654.41345"
       cy="395.74066"
       r="1.5597173"
       transform="rotate(-2.6038836)" />
    <circle
       r="1.5597173"
       cy="396.43359"
       cx="661.92297"
       id="circle3506"
       style="fill:#7bb1b1;fill-opacity:1;stroke:none;stroke-width:2.59704995;stroke-linecap:square;stroke-linejoin:bevel;paint-order:stroke fill markers"
       transform="rotate(-2.6038836)" />
    <circle
       style="fill:#7bb1b1;fill-opacity:1;stroke:none;stroke-width:2.59704995;stroke-linecap:square;stroke-linejoin:bevel;paint-order:stroke fill markers"
       id="circle3508"
       cx="669.43243"
       cy="397.12653"
       r="1.5597173"
       transform="rotate(-2.6038836)" />
  </g>
  <g
     inkscape:groupmode="layer"
     id="layer2"
     inkscape:label="Decor"
     style="display:inline;opacity:0.18600003"
     transform="translate(-394.37453,-150.25276)">
    <ellipse
       style="fill:url(#radialGradient4374);fill-opacity:1;stroke:none;stroke-width:0.67326862;stroke-linecap:round;stroke-linejoin:round;stroke-miterlimit:4;stroke-dasharray:none;stroke-opacity:0.52173911;paint-order:stroke fill markers"
       id="path4577"
       cx="624.74231"
       cy="340.52469"
       rx="6.9012671"
       ry="3.1311309"
       transform="rotate(-11.085754)" />
    <ellipse
       style="fill:url(#radialGradient4366);fill-opacity:1;stroke:none;stroke-width:0.67326862;stroke-linecap:round;stroke-linejoin:round;stroke-miterlimit:4;stroke-dasharray:none;stroke-opacity:0.52173911;paint-order:stroke fill markers"
       id="path4579"
       cx="604.38483"
       cy="307.86966"
       rx="4.7925477"
       ry="2.8116274"
       transform="rotate(-8.0315364)" />
    <path
       sodipodi:type="star"
       style="fill:#d5f6ff;fill-opacity:1;stroke:#d5f6ff;stroke-width:3.12865806;stroke-linecap:round;stroke-linejoin:round;stroke-miterlimit:4;stroke-dasharray:none;stroke-dashoffset:0;stroke-opacity:1;paint-order:stroke fill markers"
       id="path4559"
       sodipodi:sides="5"
       sodipodi:cx="636.69543"
       sodipodi:cy="204.85683"
       sodipodi:r1="1.8605202"
       sodipodi:r2="1.5051925"
       sodipodi:arg1="1.0040671"
       sodipodi:arg2="1.6323856"
       inkscape:flatsided="true"
       inkscape:rounded="0"
       inkscape:randomized="0"
       d="m 637.6943,206.42648 -2.18302,-0.13463 -0.54656,-2.11778 1.84523,-1.17424 1.68698,1.39207 z"
       inkscape:transform-center-x="-0.035395181"
       inkscape:transform-center-y="-0.1436681" />
    <path
       sodipodi:type="star"
       style="fill:#d5f6ff;fill-opacity:1;stroke:#d5f6ff;stroke-width:3.60084176;stroke-linecap:round;stroke-linejoin:round;stroke-miterlimit:4;stroke-dasharray:none;stroke-dashoffset:0;stroke-opacity:1;paint-order:stroke fill markers"
       id="path4561"
       sodipodi:sides="5"
       sodipodi:cx="672.14166"
       sodipodi:cy="201.12859"
       sodipodi:r1="2.8728738"
       sodipodi:r2="2.3242042"
       sodipodi:arg1="1.0303768"
       sodipodi:arg2="1.6586954"
       inkscape:flatsided="true"
       inkscape:rounded="0"
       inkscape:randomized="0"
       d="m 673.61974,203.59205 -3.36422,-0.29647 -0.75764,-3.29119 2.89598,-1.73759 2.54745,2.2173 z"
       inkscape:transform-center-x="-0.077919072"
       inkscape:transform-center-y="-0.19916087" />
  </g>
</svg>
