<?xml version="1.0" encoding="UTF-8" standalone="no"?>
<!-- Created with Inkscape (http://www.inkscape.org/) -->

<svg
   xmlns:dc="http://purl.org/dc/elements/1.1/"
   xmlns:cc="http://creativecommons.org/ns#"
   xmlns:rdf="http://www.w3.org/1999/02/22-rdf-syntax-ns#"
   xmlns:svg="http://www.w3.org/2000/svg"
   xmlns="http://www.w3.org/2000/svg"
   xmlns:sodipodi="http://sodipodi.sourceforge.net/DTD/sodipodi-0.dtd"
   xmlns:inkscape="http://www.inkscape.org/namespaces/inkscape"
   width="3351.502"
   height="4081.8899"
   viewBox="0 0 886.75159 1080"
   version="1.1"
   id="svg8"
   inkscape:version="0.92+devel unknown"
   sodipodi:docname="ann chibi.svg"
   inkscape:export-filename="/home/mbrickn/Projects/Operation-Ohio/game/images/characters/ann/chibi ann.png"
   inkscape:export-xdpi="90"
   inkscape:export-ydpi="90">
  <title
     id="title4300">Ann Chibi</title>
  <defs
     id="defs2" />
  <sodipodi:namedview
     id="base"
     pagecolor="#ffffff"
     bordercolor="#666666"
     borderopacity="1.0"
     inkscape:pageopacity="0.0"
     inkscape:pageshadow="2"
     inkscape:zoom="0.175"
     inkscape:cx="971.37449"
     inkscape:cy="1686.9571"
     inkscape:document-units="mm"
     inkscape:current-layer="layer3"
     showgrid="false"
     inkscape:window-width="1920"
     inkscape:window-height="1016"
     inkscape:window-x="0"
     inkscape:window-y="0"
     inkscape:window-maximized="1"
     fit-margin-top="0"
     fit-margin-left="0"
     fit-margin-right="0"
     fit-margin-bottom="0"
     units="px"
     inkscape:document-rotation="0">
    <inkscape:grid
       type="xygrid"
       id="grid10"
       originx="531.38486"
       originy="-46.167123" />
  </sodipodi:namedview>
  <metadata
     id="metadata5">
    <rdf:RDF>
      <cc:Work
         rdf:about="">
        <dc:format>image/svg+xml</dc:format>
        <dc:type
           rdf:resource="http://purl.org/dc/dcmitype/StillImage" />
        <dc:title>Ann Chibi</dc:title>
        <cc:license
           rdf:resource="http://creativecommons.org/licenses/by/4.0/" />
        <dc:creator>
          <cc:Agent>
            <dc:title>Maxwell Paul Brickner</dc:title>
          </cc:Agent>
        </dc:creator>
      </cc:Work>
      <cc:License
         rdf:about="http://creativecommons.org/licenses/by/4.0/">
        <cc:permits
           rdf:resource="http://creativecommons.org/ns#Reproduction" />
        <cc:permits
           rdf:resource="http://creativecommons.org/ns#Distribution" />
        <cc:requires
           rdf:resource="http://creativecommons.org/ns#Notice" />
        <cc:requires
           rdf:resource="http://creativecommons.org/ns#Attribution" />
        <cc:permits
           rdf:resource="http://creativecommons.org/ns#DerivativeWorks" />
      </cc:License>
    </rdf:RDF>
  </metadata>
  <g
     inkscape:groupmode="layer"
     id="layer3"
     inkscape:label="Legs"
     transform="translate(531.38485,829.16713)">
    <path
       inkscape:connector-curvature="0"
       id="path4602"
       d="m -89.136281,207.8563 v -61.88283 h 9.247474 v 62.88278 z"
       style="fill:#e6e6e6;stroke:none;stroke-width:6.33393812px;stroke-linecap:butt;stroke-linejoin:miter;stroke-opacity:1" />
    <path
       style="fill:#e6e6e6;stroke:none;stroke-width:6.33393812px;stroke-linecap:butt;stroke-linejoin:miter;stroke-opacity:1"
       d="m -107.33127,207.8563 v -61.88283 h 9.247485 v 62.88278 z"
       id="path4600"
       inkscape:connector-curvature="0" />
    <path
       style="fill:#000000;stroke:#000000;stroke-width:6.33393812px;stroke-linecap:butt;stroke-linejoin:miter;stroke-opacity:1"
       d="m -91.17625,209.59836 v 6.3341 h 6.333932 V 247.602 h 6.333947 v -6.33387 c 0,0 12.865789,1.1036 12.667865,6.33387 6.588455,0.14363 12.667879,0 12.667879,0 0,0 0,-12.66773 -12.667879,-12.66773 -12.667865,0 -12.667865,-25.33591 -12.667865,-25.33591 z"
       id="path4596"
       inkscape:connector-curvature="0" />
    <path
       inkscape:connector-curvature="0"
       id="path4598"
       d="m -97.510113,209.59836 v 6.3341 h -4.222617 V 247.602 h -4.22264 v -6.33387 c 0,0 -8.57718,1.1036 -8.44523,6.33387 -4.3923,0.14363 -8.44526,0 -8.44526,0 0,0 0,-12.66773 8.44526,-12.66773 8.44523,0 8.44523,-25.33591 8.44523,-25.33591 z"
       style="fill:#000000;stroke:#000000;stroke-width:5.17163801px;stroke-linecap:butt;stroke-linejoin:miter;stroke-opacity:1" />
    <path
       style="fill:#cccccc;fill-opacity:1;stroke:#cccccc;stroke-width:6.33393812px;stroke-linecap:butt;stroke-linejoin:miter;stroke-opacity:1"
       d="m -121.97724,-11.383349 c 0,0 -59.58368,33.390768 -63.78252,50.186097 -1.79951,10.797105 7.19802,4.798633 11.39686,-1.199358 4.1989,-5.998229 42.58831,-33.3907666 50.98605,-37.78961232 8.39767,-4.39884568 1.39973,-11.19688768 1.39973,-11.19688768 z"
       id="path4604"
       inkscape:connector-curvature="0" />
    <path
       inkscape:connector-curvature="0"
       id="path4606"
       d="m -121.97724,93.143277 c 0,0 -59.58368,-33.390776 -63.78252,-50.186098 -1.79951,-10.797105 7.19802,-4.798637 11.39686,1.199353 4.1989,5.998234 42.58831,33.390762 50.98605,37.789612 8.39767,4.39885 1.39973,11.196881 1.39973,11.196881 z"
       style="fill:#cccccc;fill-opacity:1;stroke:#cccccc;stroke-width:6.33393812px;stroke-linecap:butt;stroke-linejoin:miter;stroke-opacity:1" />
    <path
       inkscape:connector-curvature="0"
       id="path4608"
       d="m -48.954272,-11.383349 c 0,0 59.583671,33.390768 63.782512,50.186097 C 16.627759,49.599853 7.6302188,43.601381 3.4313916,37.60339 -0.76751943,31.605161 -39.156934,4.2126234 -47.554672,-0.18622232 -55.952326,-4.585068 -48.954398,-11.38311 -48.954398,-11.38311 Z"
       style="fill:#cccccc;fill-opacity:1;stroke:#cccccc;stroke-width:6.33393812px;stroke-linecap:butt;stroke-linejoin:miter;stroke-opacity:1" />
    <path
       style="fill:#cccccc;fill-opacity:1;stroke:#cccccc;stroke-width:6.33393812px;stroke-linecap:butt;stroke-linejoin:miter;stroke-opacity:1"
       d="m -48.954272,93.143277 c 0,0 59.583671,-33.390776 63.782512,-50.186098 1.799519,-10.797105 -7.1980212,-4.798637 -11.3968484,1.199353 -4.19891103,5.998234 -42.5883256,33.390762 -50.9860636,37.789612 -8.397654,4.39885 -1.399726,11.196881 -1.399726,11.196881 z"
       id="path4610"
       inkscape:connector-curvature="0" />
  </g>
  <g
     inkscape:groupmode="layer"
     id="layer2"
     inkscape:label="Body"
     transform="translate(531.38485,829.16713)">
    <g
       transform="matrix(23.939295,0,0,23.939295,-2099.0345,-5747.5951)"
       id="g4562">
      <path
         inkscape:connector-curvature="0"
         id="path4547"
         d="m 82.814583,238.52708 h 2.645834 l 2.645833,7.9375 h -7.9375 z"
         style="fill:#cccccc;stroke:none;stroke-width:0.26458332px;stroke-linecap:butt;stroke-linejoin:miter;stroke-opacity:1" />
      <path
         inkscape:connector-curvature="0"
         id="path4549"
         d="m 80.962499,244.08333 h 6.35"
         style="fill:#8800aa;fill-opacity:1;stroke:#1c00aa;stroke-width:0.26458332px;stroke-linecap:butt;stroke-linejoin:miter;stroke-opacity:1" />
      <path
         inkscape:connector-curvature="0"
         id="path4551"
         d="m 82.814582,238.52708 1.322917,1.85208 1.322917,-1.85208 z"
         style="fill:#1c00aa;fill-opacity:1;stroke:none;stroke-width:0.26458332px;stroke-linecap:butt;stroke-linejoin:miter;stroke-opacity:1" />
      <path
         inkscape:connector-curvature="0"
         id="path4553"
         d="m 84.137499,240.37916 -0.529167,0.79375 0.529167,0.52917 0.529167,-0.52917 z"
         style="fill:#1c00aa;fill-opacity:1;stroke:none;stroke-width:0.26458332px;stroke-linecap:butt;stroke-linejoin:miter;stroke-opacity:1" />
      <circle
         r="0.26458332"
         cy="240.37917"
         cx="84.137497"
         id="path4555"
         style="fill:#1c00aa;fill-opacity:1;stroke:none;stroke-width:0.26499999;stroke-miterlimit:4;stroke-dasharray:none;stroke-opacity:1" />
    </g>
  </g>
  <g
     inkscape:label="Head"
     inkscape:groupmode="layer"
     id="layer1"
     transform="translate(531.38485,829.16713)">
    <path
       style="fill:#8800aa;stroke:none;stroke-width:6.33393812px;stroke-linecap:butt;stroke-linejoin:miter;stroke-opacity:1"
       d="m -88.009179,-829.16713 c 0,0 -380.036301,0 -380.036301,380.03631 -2.26203,159.47951 0,158.34838 0,158.34838 0,0 0,63.3393 -63.33937,63.3393 0,0 0,95.00907 95.00907,95.00907 h 31.66968 633.39385 31.66977 c 95.00893,0 95.00917,-95.00907 95.00917,-95.00907 -63.33964,0 -63.33964,-63.3393 -63.33964,-63.3393 0,0 2.26226,1.12993 0,-158.34838 0,-380.03631 -380.036229,-380.03631 -380.036229,-380.03631 z"
       id="path4498"
       inkscape:connector-curvature="0" />
    <circle
       id="path14"
       cx="-88.00914"
       cy="-398.2334"
       r="364.20145"
       style="fill:#deaa87;stroke-width:6.33393812" />
    <path
       style="fill:#cd9d7d;fill-opacity:1;stroke:none;stroke-width:5.40160036px;stroke-linecap:butt;stroke-linejoin:miter;stroke-opacity:1"
       d="m -452.21066,-475.04272 c 0,0 665.0635,46.06495 728.4029,23.03272 -95.85251,-164.20656 -316.696932,-276.39017 -316.696932,-276.39017 l -190.018148,23.03248 -190.01814,161.22756 z"
       id="path4517"
       inkscape:connector-curvature="0" />
    <path
       style="fill:#ffffff;fill-opacity:1;stroke:none;stroke-width:6.33393812px;stroke-linecap:butt;stroke-linejoin:miter;stroke-opacity:1"
       d="m -357.20156,-322.45221 c 0,0 -3e-5,-18.09716 95.00905,-18.09716 95.00907,0 95.0091,18.09716 95.0091,18.09716 0,0 -1.4e-4,-190.01815 -95.00923,-190.01815 -95.00907,0 -95.00892,190.01815 -95.00892,190.01815 z"
       id="path4507"
       inkscape:connector-curvature="0"
       sodipodi:nodetypes="cscsc" />
    <path
       style="fill:#8800aa;fill-opacity:1;stroke:none;stroke-width:5.41010666;stroke-linecap:butt;stroke-linejoin:miter;stroke-miterlimit:4;stroke-dasharray:none;stroke-opacity:1"
       d="m -452.21066,-475.04272 c 0,0 400.395401,2.4e-4 411.705968,-253.35745 -13.645387,-11.99144 -14.873403,-33.49993 -27.344994,-47.83645 -12.338742,-14.18427 -35.994374,-21.26097 -35.994374,-21.26097 0,0 -248.11423,13.49914 -316.69692,138.19509 -63.33935,115.16237 -31.66968,184.25978 -31.66968,184.25978 z"
       id="path4501"
       inkscape:connector-curvature="0"
       sodipodi:nodetypes="ccscsc" />
    <path
       sodipodi:nodetypes="cscsc"
       inkscape:connector-curvature="0"
       id="path4533"
       d="m 22.834732,-322.45221 c 0,0 -1.4e-5,-18.09716 95.009058,-18.09716 95.00907,0 95.00909,18.09716 95.00909,18.09716 0,0 -1.4e-4,-190.01815 -95.00921,-190.01815 -95.009078,0 -95.008938,190.01815 -95.008938,190.01815 z"
       style="fill:#ffffff;fill-opacity:1;stroke:none;stroke-width:6.33393812px;stroke-linecap:butt;stroke-linejoin:miter;stroke-opacity:1" />
    <path
       sodipodi:nodetypes="cccsc"
       inkscape:connector-curvature="0"
       id="path4503"
       d="m 276.19226,-442.7972 c 0,0 -368.725725,-55.27775 -380.03631,-308.63544 27.145452,-23.85502 31.669709,-23.03248 31.669709,-23.03248 0,0 248.114221,13.49913 316.696921,138.19509 63.33945,115.16236 31.66968,193.47283 31.66968,193.47283 z"
       style="fill:#8800aa;fill-opacity:1;stroke:none;stroke-width:5.41010666;stroke-linecap:butt;stroke-linejoin:miter;stroke-miterlimit:4;stroke-dasharray:none;stroke-opacity:1" />
    <path
       style="fill:#ff5555;stroke:none;stroke-width:6.33393812px;stroke-linecap:butt;stroke-linejoin:miter;stroke-opacity:1"
       d="m -325.53191,-290.78268 c 0,0 0,31.66976 221.68785,31.66976 221.68785,0 221.68785,-31.66976 221.68785,-31.66976 0,0 -63.33941,190.01815 -221.68785,190.01815 -158.34845,0 -221.68785,-190.01815 -221.68785,-190.01815 z"
       id="path4511"
       inkscape:connector-curvature="0" />
    <ellipse
       style="fill:#55d400;fill-opacity:1;stroke:none;stroke-width:6.34391308;stroke-miterlimit:4;stroke-dasharray:none"
       id="path4513"
       cx="-262.19257"
       cy="-401.62653"
       rx="31.669689"
       ry="47.504539" />
    <path
       style="fill:#ffffff;fill-opacity:1;stroke:none;stroke-width:5.27840424px;stroke-linecap:butt;stroke-linejoin:miter;stroke-opacity:1"
       d="m 14.473238,-263.59914 c 0,0 3.623379,9.69447 -3.580518,21.88841 31.592208,2.21439 27.085534,-24.06832 27.085534,-24.06832 z"
       id="path4525"
       inkscape:connector-curvature="0"
       sodipodi:nodetypes="cccc" />
    <ellipse
       ry="47.504539"
       rx="31.669689"
       cy="-401.62653"
       cx="117.84373"
       id="ellipse4535"
       style="fill:#55d400;fill-opacity:1;stroke:none;stroke-width:6.34391308;stroke-miterlimit:4;stroke-dasharray:none" />
    <path
       style="fill:#2b0000;stroke:none;stroke-width:6.33393764px;stroke-linecap:butt;stroke-linejoin:miter;stroke-opacity:1"
       d="m -325.53191,-290.78366 c 0,0 0.0506,0.61123 0.59349,1.60826 -0.0772,-0.22423 -0.59349,-1.60826 -0.59349,-1.60826 z m 0.59349,1.60826 c 2.37928,6.91958 41.2031,116.54091 131.21894,165.48648 a 59.583644,140.36146 78.459244 0 1 121.804613,-65.83831 59.583644,140.36146 78.459244 0 1 128.200358,6.45764 c 40.777582,-49.02025 59.332979,-101.36195 60.964159,-106.10581 -3.48911,6.39404 -29.307639,30.06143 -221.09403,30.06143 -191.7864,0 -217.60492,-23.66739 -221.09404,-30.06143 z m 442.18807,0 c 0.54409,-0.9969 0.59349,-1.60826 0.59349,-1.60826 0,0 -0.51685,1.38384 -0.59349,1.60826 z"
       id="path4542"
       inkscape:connector-curvature="0" />
    <path
       style="fill:#8800aa;fill-opacity:1;stroke:none;stroke-width:6.33393812px;stroke-linecap:butt;stroke-linejoin:miter;stroke-opacity:1"
       d="m -452.21066,-475.04272 c 0,0 15.44029,82.28151 57.55547,103.80271 -16.67527,-118.02743 7.22005,-159.79528 7.22005,-159.79528 z"
       id="path4495"
       inkscape:connector-curvature="0" />
    <path
       inkscape:connector-curvature="0"
       id="path4497"
       d="m -216.51636,-574.32136 c 0,0 61.55942,56.73708 57.46189,103.85441 -91.20612,-76.74603 -139.2886,-78.64681 -139.2886,-78.64681 z"
       style="fill:#8800aa;fill-opacity:1;stroke:none;stroke-width:6.33393812px;stroke-linecap:butt;stroke-linejoin:miter;stroke-opacity:1" />
    <path
       style="fill:#8800aa;fill-opacity:1;stroke:none;stroke-width:6.33393812px;stroke-linecap:butt;stroke-linejoin:miter;stroke-opacity:1"
       d="m 71.229075,-574.32136 c 0,0 -61.5594187,56.73708 -57.461897,103.85441 91.206122,-76.74603 139.288602,-78.64681 139.288602,-78.64681 z"
       id="path4499"
       inkscape:connector-curvature="0" />
    <path
       style="fill:none;stroke:#cd9d7d;stroke-width:6.33393812px;stroke-linecap:butt;stroke-linejoin:miter;stroke-opacity:1"
       d="m -75.002021,-434.99276 c 0,0 -5.089788,87.09163 15.834838,96.13997 -32.235193,24.31778 -49.766637,20.92462 -49.766637,20.92462"
       id="path4509"
       inkscape:connector-curvature="0" />
    <circle
       style="fill:#8800aa;fill-opacity:0.1;stroke:none;stroke-width:6.34391308;stroke-miterlimit:4;stroke-dasharray:none;stroke-opacity:1"
       id="path4512"
       cx="180.05226"
       cy="-243.84366"
       r="28.27651" />
    <circle
       r="28.27651"
       cy="-243.84366"
       cx="-361.72568"
       id="circle4514"
       style="fill:#8800aa;fill-opacity:0.1;stroke:none;stroke-width:6.34391308;stroke-miterlimit:4;stroke-dasharray:none;stroke-opacity:1" />
    <path
       style="fill:#2b0000;fill-opacity:1;stroke:none;stroke-width:6.33393812px;stroke-linecap:butt;stroke-linejoin:miter;stroke-opacity:1"
       d="m -124.55311,-223.1762 c 0,0 18.08717,28.91867 24.32059,27.79448 6.233234,-1.12276 13.07982,-34.5389 13.07982,-34.5389 0,0 -4.078372,-13.96522 -10.311824,-12.84128 -6.233226,1.12275 -8.388376,16.21337 -8.388376,16.21337 0,0 -8.59649,-12.74432 -14.82989,-11.62013 -6.23327,1.12275 -3.87032,14.99246 -3.87032,14.99246 z"
       id="path4538"
       inkscape:connector-curvature="0"
       sodipodi:nodetypes="cscscsc" />
  </g>
</svg>
