<?xml version="1.0" encoding="UTF-8" standalone="no"?>
<!-- Created with Inkscape (http://www.inkscape.org/) -->

<svg
   xmlns:dc="http://purl.org/dc/elements/1.1/"
   xmlns:cc="http://creativecommons.org/ns#"
   xmlns:rdf="http://www.w3.org/1999/02/22-rdf-syntax-ns#"
   xmlns:svg="http://www.w3.org/2000/svg"
   xmlns="http://www.w3.org/2000/svg"
   xmlns:xlink="http://www.w3.org/1999/xlink"
   xmlns:sodipodi="http://sodipodi.sourceforge.net/DTD/sodipodi-0.dtd"
   xmlns:inkscape="http://www.inkscape.org/namespaces/inkscape"
   width="625.85187"
   height="1691.0656"
   viewBox="0 0 165.58997 447.42778"
   version="1.1"
   id="svg8"
   inkscape:version="0.92.2 (5c3e80d, 2017-08-06)"
   sodipodi:docname="will normal.svg"
   inkscape:export-filename="/home/mbrickn/Projects/Operation-Ohio/game/images/characters/will/will normal.png"
   inkscape:export-xdpi="90"
   inkscape:export-ydpi="90">
  <title
     id="title39">Wild Wyoming Will</title>
  <defs
     id="defs2">
    <linearGradient
       inkscape:collect="always"
       id="linearGradient4413">
      <stop
         style="stop-color:#559bff;stop-opacity:1;"
         offset="0"
         id="stop4409" />
      <stop
         style="stop-color:#5541ff;stop-opacity:1"
         offset="1"
         id="stop4411" />
    </linearGradient>
    <linearGradient
       inkscape:collect="always"
       id="linearGradient4405">
      <stop
         style="stop-color:#d6ada7;stop-opacity:1;"
         offset="0"
         id="stop4401" />
      <stop
         style="stop-color:#e9c6af;stop-opacity:1"
         offset="1"
         id="stop4403" />
    </linearGradient>
    <linearGradient
       inkscape:collect="always"
       id="linearGradient4383">
      <stop
         style="stop-color:#ff5555;stop-opacity:1"
         offset="0"
         id="stop4379" />
      <stop
         style="stop-color:#ff5630;stop-opacity:1"
         offset="1"
         id="stop4381" />
    </linearGradient>
    <linearGradient
       inkscape:collect="always"
       id="linearGradient4310">
      <stop
         style="stop-color:#9c582a;stop-opacity:1;"
         offset="0"
         id="stop4306" />
      <stop
         style="stop-color:#b65800;stop-opacity:1"
         offset="1"
         id="stop4308" />
    </linearGradient>
    <linearGradient
       inkscape:collect="always"
       id="linearGradient4302">
      <stop
         style="stop-color:#d38d5f;stop-opacity:1;"
         offset="0"
         id="stop4298" />
      <stop
         style="stop-color:#d38d30;stop-opacity:1"
         offset="1"
         id="stop4300" />
    </linearGradient>
    <linearGradient
       inkscape:collect="always"
       xlink:href="#linearGradient4302"
       id="linearGradient4304"
       x1="371.86807"
       y1="143.92947"
       x2="499.54785"
       y2="232.91982"
       gradientUnits="userSpaceOnUse" />
    <linearGradient
       inkscape:collect="always"
       xlink:href="#linearGradient4310"
       id="linearGradient4314"
       gradientUnits="userSpaceOnUse"
       x1="375.11371"
       y1="32.175766"
       x2="462.74652"
       y2="61.347111" />
    <linearGradient
       inkscape:collect="always"
       xlink:href="#linearGradient4383"
       id="linearGradient4385"
       x1="374.12283"
       y1="201.8754"
       x2="476.33765"
       y2="280.35568"
       gradientUnits="userSpaceOnUse" />
    <linearGradient
       inkscape:collect="always"
       xlink:href="#linearGradient4405"
       id="linearGradient4407"
       x1="1606.1058"
       y1="408.66464"
       x2="1607.3397"
       y2="451.36276"
       gradientUnits="userSpaceOnUse" />
    <linearGradient
       inkscape:collect="always"
       xlink:href="#linearGradient4413"
       id="linearGradient4417"
       gradientUnits="userSpaceOnUse"
       x1="419.43649"
       y1="289.26733"
       x2="416.38303"
       y2="421.79379"
       gradientTransform="scale(3.7795276)" />
    <linearGradient
       inkscape:collect="always"
       xlink:href="#linearGradient4413"
       id="linearGradient4425"
       x1="430.77182"
       y1="388.46213"
       x2="420.41769"
       y2="297.26282"
       gradientUnits="userSpaceOnUse" />
    <linearGradient
       inkscape:collect="always"
       xlink:href="#linearGradient4302"
       id="linearGradient4437"
       x1="412.04764"
       y1="447.4888"
       x2="415.38528"
       y2="415.33719"
       gradientUnits="userSpaceOnUse" />
    <linearGradient
       inkscape:collect="always"
       xlink:href="#linearGradient4310"
       id="linearGradient4453"
       x1="431.53235"
       y1="281.72281"
       x2="453.16931"
       y2="281.72281"
       gradientUnits="userSpaceOnUse" />
    <linearGradient
       inkscape:collect="always"
       xlink:href="#linearGradient4383"
       id="linearGradient4323"
       gradientUnits="userSpaceOnUse"
       x1="374.12283"
       y1="201.8754"
       x2="476.33765"
       y2="280.35568" />
    <linearGradient
       inkscape:collect="always"
       xlink:href="#linearGradient4383"
       id="linearGradient4325"
       gradientUnits="userSpaceOnUse"
       x1="374.12283"
       y1="201.8754"
       x2="476.33765"
       y2="280.35568" />
    <linearGradient
       inkscape:collect="always"
       xlink:href="#linearGradient4383"
       id="linearGradient4327"
       gradientUnits="userSpaceOnUse"
       x1="374.12283"
       y1="201.8754"
       x2="476.33765"
       y2="280.35568" />
    <linearGradient
       inkscape:collect="always"
       xlink:href="#linearGradient4302"
       id="linearGradient4329"
       gradientUnits="userSpaceOnUse"
       x1="412.04764"
       y1="447.4888"
       x2="415.38528"
       y2="415.33719" />
    <linearGradient
       inkscape:collect="always"
       xlink:href="#linearGradient4302"
       id="linearGradient4331"
       gradientUnits="userSpaceOnUse"
       x1="412.04764"
       y1="447.4888"
       x2="415.38528"
       y2="415.33719" />
    <linearGradient
       inkscape:collect="always"
       xlink:href="#linearGradient886"
       id="linearGradient4375"
       x1="68.273849"
       y1="248.32983"
       x2="66.444138"
       y2="248.70354"
       gradientUnits="userSpaceOnUse"
       gradientTransform="matrix(6.4576748,-0.50693253,0.50693253,6.4576748,-146.28037,-1488.1175)" />
    <linearGradient
       id="linearGradient886"
       inkscape:collect="always">
      <stop
         id="stop882"
         offset="0"
         style="stop-color:#e9c6af;stop-opacity:0" />
      <stop
         id="stop884"
         offset="1"
         style="stop-color:#d9b8a3;stop-opacity:1" />
    </linearGradient>
  </defs>
  <sodipodi:namedview
     id="base"
     pagecolor="#ffffff"
     bordercolor="#666666"
     borderopacity="1.0"
     inkscape:pageopacity="0.0"
     inkscape:pageshadow="2"
     inkscape:zoom="3.959798"
     inkscape:cx="220.60841"
     inkscape:cy="1406.6073"
     inkscape:document-units="mm"
     inkscape:current-layer="layer3"
     showgrid="false"
     inkscape:window-width="1440"
     inkscape:window-height="863"
     inkscape:window-x="1920"
     inkscape:window-y="0"
     inkscape:window-maximized="1"
     units="px"
     inkscape:pagecheckerboard="true"
     showguides="false"
     inkscape:document-rotation="0"
     fit-margin-top="0"
     fit-margin-left="0"
     fit-margin-right="0"
     fit-margin-bottom="0">
    <inkscape:grid
       type="xygrid"
       id="grid4485"
       originx="-339.05238"
       originy="163.41607" />
  </sodipodi:namedview>
  <metadata
     id="metadata5">
    <rdf:RDF>
      <cc:Work
         rdf:about="">
        <dc:format>image/svg+xml</dc:format>
        <dc:type
           rdf:resource="http://purl.org/dc/dcmitype/StillImage" />
        <dc:title>Wild Wyoming Will</dc:title>
        <cc:license
           rdf:resource="http://creativecommons.org/licenses/by/4.0/" />
        <dc:creator>
          <cc:Agent>
            <dc:title>Maxwell Paul Brickner</dc:title>
          </cc:Agent>
        </dc:creator>
      </cc:Work>
      <cc:License
         rdf:about="http://creativecommons.org/licenses/by/4.0/">
        <cc:permits
           rdf:resource="http://creativecommons.org/ns#Reproduction" />
        <cc:permits
           rdf:resource="http://creativecommons.org/ns#Distribution" />
        <cc:requires
           rdf:resource="http://creativecommons.org/ns#Notice" />
        <cc:requires
           rdf:resource="http://creativecommons.org/ns#Attribution" />
        <cc:permits
           rdf:resource="http://creativecommons.org/ns#DerivativeWorks" />
      </cc:License>
    </rdf:RDF>
  </metadata>
  <g
     inkscape:label="Head"
     inkscape:groupmode="layer"
     id="layer1"
     transform="translate(-339.05239,-12.988286)" />
  <g
     inkscape:groupmode="layer"
     id="layer3"
     inkscape:label="Body"
     style="display:inline"
     transform="translate(-339.05239,-1.7383034)">
    <path
       sodipodi:type="star"
       style="display:inline;opacity:0.98999999;fill:#ffcc00;fill-opacity:1;stroke:none;stroke-width:0.00154282;stroke-linecap:round;stroke-linejoin:round;stroke-miterlimit:4;stroke-dasharray:none;stroke-dashoffset:0;stroke-opacity:1;paint-order:stroke markers fill"
       id="path4458"
       sodipodi:sides="5"
       sodipodi:cx="97.345154"
       sodipodi:cy="197.35034"
       sodipodi:r1="0.19499813"
       sodipodi:r2="0.097499065"
       sodipodi:arg1="-1.7078625"
       sodipodi:arg2="-1.079544"
       inkscape:flatsided="false"
       inkscape:rounded="0"
       inkscape:randomized="0"
       d="m 97.31851,197.15717 0.07264,0.1072 0.129488,9.4e-4 -0.07951,0.10221 0.03912,0.12344 -0.121775,-0.044 -0.105309,0.0753 0.0042,-0.12942 -0.104208,-0.0769 0.1244,-0.036 z"
       inkscape:transform-center-x="-0.19773975"
       inkscape:transform-center-y="-0.31633713"
       transform="matrix(26.386147,6.951972,-6.951972,26.386147,-753.46943,-5442.5843)" />
    <path
       sodipodi:nodetypes="cccccccc"
       inkscape:connector-curvature="0"
       id="path4307"
       d="m 481.42108,286.42919 c 0,0 -4.47714,10.64565 -5.0406,13.8541 -0.56347,3.20846 0.53651,10.01097 -2.10832,13.31781 -1.25284,1.56642 -2.53499,2.99464 -3.53756,4.06412 -11.77872,6.41773 -20.73568,-12.7636 -15.84713,-17.09424 2.67102,-1.59503 6.05424,-3.83202 7.90392,-5.89935 3.36383,-3.75963 6.10679,-12.06384 6.10679,-12.06384 z"
       style="fill:#e9c6af;fill-opacity:1;stroke:none;stroke-width:0.37159795px;stroke-linecap:butt;stroke-linejoin:miter;stroke-opacity:1" />
    <path
       style="fill:#e9c6af;fill-opacity:1;stroke:none;stroke-width:0.37159795px;stroke-linecap:butt;stroke-linejoin:miter;stroke-opacity:1"
       d="m 356.82474,246.72833 c 0,0 -5.53673,10.13504 -7.69512,12.57493 -2.15836,2.43991 -8.16431,5.81821 -9.10274,9.94732 -0.44452,1.95594 -0.76269,3.84869 -0.97449,5.29922 2.31974,13.21154 22.90336,8.26531 23.24449,1.74335 -0.41678,-3.08299 -0.77521,-7.12302 -0.31079,-9.85789 0.84458,-4.97361 5.63053,-12.29333 5.63053,-12.29333 z"
       id="path4565"
       inkscape:connector-curvature="0"
       sodipodi:nodetypes="cccccccc" />
    <g
       id="g4377"
       style="fill:url(#linearGradient4385);fill-opacity:1">
      <path
         sodipodi:nodetypes="cccccc"
         inkscape:connector-curvature="0"
         id="path4611"
         d="m 481.89983,202.41671 c 0,0 -12.05356,68.29044 -15.98306,77.62921 -3.92952,9.33883 12.71853,25.29637 12.59997,18.05807 -0.11853,-7.23844 30.00614,-55.94728 18.74727,-108.99412 -14.84862,-20.35695 -15.36417,13.30684 -15.36417,13.30684 z"
         style="fill:url(#linearGradient4323);fill-opacity:1;stroke:none;stroke-width:1.27061212px;stroke-linecap:butt;stroke-linejoin:miter;stroke-opacity:1" />
      <path
         style="fill:url(#linearGradient4325);fill-opacity:1;stroke:none;stroke-width:1.27061212px;stroke-linecap:butt;stroke-linejoin:miter;stroke-opacity:1"
         d="m 369.97226,161.6431 c 0,0 -12.05357,68.29042 -15.98306,77.6292 -3.92953,9.33884 12.71851,25.29638 12.59996,18.05807 -0.11853,-7.23844 30.00614,-55.94727 18.74728,-108.99412 -14.84864,-20.35694 -15.36417,13.30685 -15.36417,13.30685 z"
         id="path4642"
         inkscape:connector-curvature="0"
         sodipodi:nodetypes="cccccc" />
      <path
         sodipodi:nodetypes="ccccssc"
         inkscape:connector-curvature="0"
         id="path4617"
         d="m 469.00727,159.24838 c -16.65516,32.47311 -13.8268,89.09982 -23.96597,123.00907 -20.17699,3.2681 -39.71461,1.6735 -59.82079,-0.3162 9.01958,-40.51061 6.46583,-82.3143 -5.0864,-118.37118 -0.72897,-3.23873 0.58903,-7.66554 2.45647,-10.89206 6.30815,-10.89969 18.18179,8.66904 39.927,12.33509 18.78298,3.16664 40.21814,-10.32499 46.48969,-5.76472 z"
         style="fill:url(#linearGradient4327);fill-opacity:1;stroke:none;stroke-width:0.95679039px;stroke-linecap:butt;stroke-linejoin:miter;stroke-opacity:1" />
    </g>
    <g
       id="g4390">
      <path
         style="fill:url(#linearGradient4407);fill-opacity:1;stroke:none;stroke-width:4.80231333px;stroke-linecap:butt;stroke-linejoin:miter;stroke-opacity:1"
         d="m 1625.8965,365.87109 c -18.304,0.25338 -66.543,26.03711 -66.543,26.03711 0,0 12.967,33.71121 16.8926,61.17578 -1.006,2.09544 -3.4423,1.41263 -3.9727,5.30274 2.9588,-0.60635 -2.5632,39.84749 11.6856,44.1289 9.8117,2.94821 52.2355,-28.42832 73.3086,-39.94531 6.9336,0.79993 7.5976,2.70899 7.5976,2.70899 0,0 -1.3714,-3.83584 -1.9746,-5.51563 1.0511,-0.4528 2.0034,-0.81203 2.8164,-1.03906 -1.6976,-1.98244 -3.1634,-2.99238 -3.4629,-0.76953 -6.156,-17.1752 -26.918,-75.48689 -29.5175,-88.48438 -0.5212,-2.60557 -3.0312,-3.65219 -6.8301,-3.59961 z m 39.8105,92.85352 c 4.0175,4.69147 9.3124,14.81519 3.4239,0.48437 -0.3704,-0.90141 -1.573,-1.00118 -3.4239,-0.48437 z"
         transform="scale(0.26458333)"
         id="path4612"
         inkscape:connector-curvature="0" />
    </g>
    <path
       style="fill:#e9c6af;stroke:none;stroke-width:0.95679039px;stroke-linecap:butt;stroke-linejoin:miter;stroke-opacity:1"
       d="m 388.95697,67.776161 c 0,0 2.18375,13.629071 6.34138,24.023107 0.7113,1.778263 -13.24825,-0.266521 -11.83142,1.111954 -3.86938,10.177698 6.20282,15.149838 6.20282,15.149838 0,0 33.47833,2.72308 39.87666,-1.29135 3.19573,-2.00506 6.03984,-6.994025 9.16099,-11.817828 9.3701,-14.481776 8.92969,-36.277602 8.92969,-36.277602 0,0 -10.30564,-29.825346 -38.59619,-23.39244 -24.98193,5.680556 -20.08393,32.494321 -20.08393,32.494321 z"
       id="path4487"
       inkscape:connector-curvature="0"
       sodipodi:nodetypes="csccsscsc" />
    <path
       sodipodi:nodetypes="cccccccc"
       inkscape:connector-curvature="0"
       id="path4497"
       d="m 397.67516,88.162895 c 0,0 2.11644,8.983082 6.16844,9.503507 4.05021,0.481212 11.27952,-4.878516 11.27952,-4.878516 0,0 1.408,5.905545 6.34355,6.41483 4.93466,0.481206 10.22266,-9.491922 10.22266,-9.491922 0,0 -8.28399,6.669693 -16.2151,0.810934 -10.22175,2.299124 -12.86576,1.28323 -17.80175,-2.316953 z"
       style="display:inline;fill:#d38d5f;fill-opacity:1;stroke:none;stroke-width:0.60163039px;stroke-linecap:butt;stroke-linejoin:miter;stroke-opacity:1" />
    <path
       sodipodi:nodetypes="cc"
       style="display:inline;fill:#d38d5f;fill-opacity:1;stroke:none;stroke-width:4.48525906;stroke-linecap:butt;stroke-linejoin:miter;stroke-miterlimit:4;stroke-dasharray:none;stroke-opacity:1"
       d="m 384.72028,276.23375 65.32107,-5.2675"
       id="path4596"
       inkscape:connector-curvature="0" />
    <path
       sodipodi:nodetypes="cccccscc"
       inkscape:connector-curvature="0"
       id="path4623"
       d="m 371.61958,144.18311 c -12.92327,42.00813 34.88071,89.42918 73.50164,95.82542 9.68651,0.87599 46.11549,0.86777 54.42664,-7.08872 18.90878,-45.51673 -17.94011,-96.98352 -59.21209,-112.3336 -16.79508,8.55723 -28.68987,15.65563 -24.04512,-0.32534 -2.17551,0.0745 -4.45428,0.6226 -6.6301,0.98852 -15.20805,2.55798 -29.7885,9.32934 -38.04097,22.93372 z"
       style="fill:url(#linearGradient4304);fill-opacity:1;stroke:none;stroke-width:1.27061212px;stroke-linecap:butt;stroke-linejoin:miter;stroke-opacity:1" />
    <path
       style="fill:#ffffff;fill-opacity:1;stroke:none;stroke-width:0.27981892px;stroke-linecap:butt;stroke-linejoin:miter;stroke-opacity:1"
       d="m 395.03554,124.9756 c 0,0 12.15958,-6.32021 22.20909,-5.56271 -0.19695,11.42789 0.27034,9.68028 23.51513,-0.5933 14.90631,6.86267 15.04765,8.9826 15.04765,8.9826 0,0 -25.6001,34.01185 -42.68907,41.30712 -16.28947,-17.18888 -18.0828,-44.13371 -18.0828,-44.13371 z"
       id="path4622"
       inkscape:connector-curvature="0"
       sodipodi:nodetypes="cccccc" />
    <path
       sodipodi:type="star"
       style="display:inline;opacity:0.98999999;fill:#ffcc00;fill-opacity:1;stroke:none;stroke-width:0.00154282;stroke-linecap:round;stroke-linejoin:round;stroke-miterlimit:4;stroke-dasharray:none;stroke-dashoffset:0;stroke-opacity:1;paint-order:stroke markers fill"
       id="path4495"
       sodipodi:sides="5"
       sodipodi:cx="97.345154"
       sodipodi:cy="197.35034"
       sodipodi:r1="0.19499813"
       sodipodi:r2="0.097499065"
       sodipodi:arg1="-1.7078625"
       sodipodi:arg2="-1.079544"
       inkscape:flatsided="false"
       inkscape:rounded="0"
       inkscape:randomized="0"
       d="m 97.31851,197.15717 0.07264,0.1072 0.129488,9.4e-4 -0.07951,0.10221 0.03912,0.12344 -0.121775,-0.044 -0.105309,0.0753 0.0042,-0.12942 -0.104208,-0.0769 0.1244,-0.036 z"
       inkscape:transform-center-x="0.28454071"
       inkscape:transform-center-y="-0.55436183"
       transform="matrix(44.535456,1.3768211,-1.3768211,44.535456,-3679.1272,-8767.075)" />
    <path
       style="display:inline;fill:#483737;stroke:none;stroke-width:0.43096891px;stroke-linecap:butt;stroke-linejoin:miter;stroke-opacity:1"
       d="m 434.58829,268.88687 -0.50095,4.00769 0.1647,3.76752 15.9997,-1.8872 -0.48724,-7.43414 z"
       id="path4505"
       inkscape:connector-curvature="0" />
    <path
       style="display:inline;fill:url(#linearGradient4453);fill-opacity:1;stroke:none;stroke-width:0.43096891px;stroke-linecap:butt;stroke-linejoin:miter;stroke-opacity:1"
       d="m 431.53243,271.9791 19.84509,-2.14797 1.79179,23.78338 c 0,0 -4.57108,0 -5.18047,-2.745 -0.61078,-2.745 -0.61078,-9.14222 -3.04764,-10.66571 -2.43826,-1.52346 -8.83753,-0.27449 -10.36121,-0.61762 -1.52347,-0.27449 -3.04763,-7.61874 -3.04763,-7.61874 z"
       id="path4499"
       inkscape:connector-curvature="0" />
    <path
       style="display:inline;fill:#ff5555;fill-opacity:1;stroke:none;stroke-width:2.48886514px;stroke-linecap:butt;stroke-linejoin:miter;stroke-opacity:1"
       d="m 410.83625,146.01983 c 6.04881,7.65793 4.66867,12.34842 4.66867,12.34842 0,0 3.68718,-11.20821 8.03841,-11.0628 -5.6659,-5.64651 -5.76042,-10.90531 -5.17153,-13.07787 -2.04899,10.4206 -7.47133,11.74136 -7.47133,11.74136 z"
       id="path4540"
       inkscape:connector-curvature="0"
       sodipodi:nodetypes="cccccc" />
    <path
       style="display:inline;fill:url(#linearGradient4314);fill-opacity:1;stroke:none;stroke-width:0.47434142px;stroke-linecap:butt;stroke-linejoin:miter;stroke-opacity:1"
       d="m 379.82706,25.957268 c -1.56059,7.641245 63.39971,15.85919 83.88266,7.352897 6.43751,21.049473 2.536,27.537325 -9.36362,31.57421 -11.89965,4.036883 -109.82781,-5.766977 -74.51904,-38.927107 z"
       id="path4501"
       inkscape:connector-curvature="0" />
    <path
       style="display:inline;fill:#d38d5f;fill-opacity:1;stroke:none;stroke-width:0.55175817px;stroke-linecap:butt;stroke-linejoin:miter;stroke-opacity:1"
       d="m 404.40663,46.830397 c 0,0 31.21216,7.217809 35.30876,4.096594 4.09659,-3.121215 4.48676,-39.795498 1.36553,-42.3314864 C 437.9597,6.0595181 428.79112,17.373925 421.96346,15.813315 415.1358,14.252706 414.35549,3.1333781 410.84415,1.7678454 407.33277,0.40231475 404.40663,46.830397 404.40663,46.830397 Z"
       id="path4503"
       inkscape:connector-curvature="0" />
    <ellipse
       style="display:inline;opacity:0.98999999;fill:#ff5555;fill-opacity:1;stroke:none;stroke-width:0.89144641;stroke-linecap:round;stroke-linejoin:bevel;stroke-miterlimit:4;stroke-dasharray:none;stroke-dashoffset:0;stroke-opacity:1;paint-order:stroke markers fill"
       id="path4533"
       cx="406.56863"
       cy="73.924965"
       rx="3.7725227"
       ry="7.1329207" />
    <ellipse
       style="display:inline;opacity:0.98999999;fill:#ff5555;fill-opacity:1;stroke:none;stroke-width:1.02536321;stroke-linecap:round;stroke-linejoin:bevel;stroke-miterlimit:4;stroke-dasharray:none;stroke-dashoffset:0;stroke-opacity:1;paint-order:stroke markers fill"
       id="path4535"
       cx="425.07062"
       cy="76.160965"
       rx="4.7038879"
       ry="8.8972769" />
    <path
       style="fill:#ff5555;fill-opacity:1;stroke:none;stroke-width:0.60367852px;stroke-linecap:butt;stroke-linejoin:miter;stroke-opacity:1"
       d="m 403.51906,139.15458 c 0,0 1.50916,2.61399 4.1232,1.10481 2.614,-1.50921 1.10481,-4.12322 1.10481,-4.12322 0,0 -1.5092,-2.61401 -4.12321,-1.1048 -1.12133,-2.58897 -0.40437,-6.73721 -0.40437,-6.73721 0,0 -5.22803,3.01839 -0.70043,10.86042 z"
       id="path4778"
       inkscape:connector-curvature="0" />
    <path
       inkscape:connector-curvature="0"
       id="path4780"
       d="m 434.00486,140.97862 c 0,0 -2.19019,2.07693 -4.26716,-0.11327 -2.07694,-2.19022 0.11327,-4.26717 0.11327,-4.26717 0,0 2.1902,-2.07694 4.26715,0.11327 1.81123,-2.16324 2.30346,-6.34409 2.30346,-6.34409 0,0 4.1539,4.38042 -2.41672,10.61126 z"
       style="fill:#ff5555;fill-opacity:1;stroke:none;stroke-width:0.60367852px;stroke-linecap:butt;stroke-linejoin:miter;stroke-opacity:1" />
    <path
       style="display:inline;fill:#d38d5f;fill-opacity:1;stroke:none;stroke-width:0.27981892px;stroke-linecap:butt;stroke-linejoin:miter;stroke-opacity:1"
       d="m 398.58871,74.315624 c 1.60735,-0.5246 6.67737,-7.078289 11.07502,-6.298216 3.3547,1.256499 1.9556,-0.142595 0.5565,-4.33988 -3.91976,1.387596 -9.80912,0.577368 -11.6011,8.07009 -1.0909,1.189342 -1.13598,1.183948 -3.22483,0.408689 0.98739,1.473157 2.37769,2.361958 3.19441,2.159317 z"
       id="path4561"
       inkscape:connector-curvature="0"
       sodipodi:nodetypes="cccccc" />
    <path
       sodipodi:nodetypes="cccccccc"
       inkscape:connector-curvature="0"
       id="path4563"
       d="m 433.93313,72.473642 c -1.68745,-0.106679 -8.23318,-5.186935 -12.29681,-3.333599 -4.06359,1.853415 -2.82444,0.316144 -2.82444,0.316144 0,0 1.1251,-3.301334 1.20202,-4.379564 4.14209,0.365003 9.64261,-1.890145 13.24862,4.918001 1.35329,0.879296 1.39559,0.862839 3.22471,-0.409496 -0.58831,1.673022 -1.71268,2.880794 -2.5541,2.888514 z"
       style="display:inline;fill:#d38d5f;fill-opacity:1;stroke:none;stroke-width:0.27981892px;stroke-linecap:butt;stroke-linejoin:miter;stroke-opacity:1" />
    <path
       style="fill:url(#linearGradient4417);fill-opacity:1;stroke:none;stroke-width:1.0532198px;stroke-linecap:butt;stroke-linejoin:miter;stroke-opacity:1"
       d="m 1455.9512,1065.6055 c 0,0 -33.0049,268.541 -28.752,297.25 4.7077,31.7792 50.1247,256.1637 71.834,262.1875 21.7095,6.0238 46.4074,5.9245 45.5,-10.5567 -0.9075,-16.4812 -19.7253,-225.5988 -27.2578,-256.3535 -6.4824,-26.4665 15.9295,-149.6025 24.75,-181.7578 0.1868,-0.6809 2.7607,-3.0853 7.0176,-6.6992 l 4.0195,4.4941 c 0,0 6.7237,143.3283 8.4121,171.9395 1.7016,28.8323 34.1398,275.9812 55.5527,281.039 21.4133,5.0577 45.9983,3.818 45.6231,-12.7246 -0.3753,-16.5427 1.4901,-214.4533 -5.0215,-245.0527 -3.9481,-18.5527 17.6402,-118.0429 25.9805,-199.6406 5.4156,-52.9833 -1.5645,-102.9297 -1.5645,-102.9297 -76.0055,5.4025 -150.2193,2.0209 -226.0937,-1.1953 z"
       transform="scale(0.26458333)"
       id="path4298"
       inkscape:connector-curvature="0"
       sodipodi:nodetypes="csccccccccccscc" />
    <g
       id="g4429"
       style="fill:url(#linearGradient4437);fill-opacity:1">
      <path
         sodipodi:nodetypes="cccccsscccc"
         inkscape:connector-curvature="0"
         id="path4302"
         d="m 368.38807,448.07529 c 3.43443,0.25494 25.27055,0.82251 26.38706,0.0881 3.35722,-5.6621 5.61548,0.40948 6.27534,0.32048 0.96038,-0.17353 9.67062,0.0965 9.77729,-1.12558 0.10668,-1.22212 2.06285,-18.48788 0.65261,-20.8724 -0.20992,-0.35492 0.68864,-5.94488 -2.3857,-8.02898 -6.92235,-4.69268 -14.49174,-0.49504 -17.98637,0.56724 -1.82913,0.55598 2.12656,7.75727 2.68449,9.77027 -4.35233,11.45984 -21.86332,12.56202 -31.54106,8.63399 -2.17474,5.069 3.63613,10.303 6.13634,10.64686 z"
         style="fill:url(#linearGradient4329);fill-opacity:1;stroke:none;stroke-width:0.20040165px;stroke-linecap:butt;stroke-linejoin:miter;stroke-opacity:1" />
      <path
         style="fill:url(#linearGradient4331);fill-opacity:1;stroke:none;stroke-width:0.20040165px;stroke-linecap:butt;stroke-linejoin:miter;stroke-opacity:1"
         d="m 432.57677,449.16606 c 0.96037,-0.17351 10.5189,-0.58571 10.62556,-1.80779 0.10667,-1.22212 2.06284,-18.48789 0.65259,-20.8724 -0.20993,-0.35493 0.50698,-5.31591 -1.42498,-8.48806 -7.25177,-11.90688 -16.58383,-0.8193 -20.07843,0.24296 -1.82913,0.55601 1.55031,9.04433 2.10823,11.05733 -10.55301,23.99601 -10.89208,17.02605 8.11703,19.86796 z"
         id="path4306"
         inkscape:connector-curvature="0"
         sodipodi:nodetypes="cccsscc" />
    </g>
    <path
       transform="matrix(26.386147,6.951972,-6.951972,26.386147,-785.58301,-5442.0049)"
       inkscape:transform-center-y="-0.31633713"
       inkscape:transform-center-x="-0.19773975"
       d="m 97.31851,197.15717 0.07264,0.1072 0.129488,9.4e-4 -0.07951,0.10221 0.03912,0.12344 -0.121775,-0.044 -0.105309,0.0753 0.0042,-0.12942 -0.104208,-0.0769 0.1244,-0.036 z"
       inkscape:randomized="0"
       inkscape:rounded="0"
       inkscape:flatsided="false"
       sodipodi:arg2="-1.079544"
       sodipodi:arg1="-1.7078625"
       sodipodi:r2="0.097499065"
       sodipodi:r1="0.19499813"
       sodipodi:cy="197.35034"
       sodipodi:cx="97.345154"
       sodipodi:sides="5"
       id="path4456"
       style="display:inline;opacity:0.98999999;fill:#ffcc00;fill-opacity:1;stroke:none;stroke-width:0.00154282;stroke-linecap:round;stroke-linejoin:round;stroke-miterlimit:4;stroke-dasharray:none;stroke-dashoffset:0;stroke-opacity:1;paint-order:stroke markers fill"
       sodipodi:type="star" />
    <path
       inkscape:connector-curvature="0"
       id="path4489"
       d="m 423.30905,56.037595 c 0,0 -6.22577,19.592794 -14.43888,28.208768 9.76482,2.827939 15.24712,-1.196911 15.24712,-1.196911"
       style="fill:url(#linearGradient4375);fill-opacity:1;stroke:none;stroke-width:1.01950741;stroke-linecap:butt;stroke-linejoin:miter;stroke-miterlimit:4;stroke-dasharray:none;stroke-opacity:1"
       sodipodi:nodetypes="ccc" />
  </g>
  <g
     inkscape:groupmode="layer"
     id="layer2"
     inkscape:label="Decor"
     style="opacity:0.18600003"
     transform="translate(-339.05239,-12.988286)" />
</svg>
