<?xml version="1.0" encoding="UTF-8" standalone="no"?>
<!-- Created with Inkscape (http://www.inkscape.org/) -->

<svg
   xmlns:dc="http://purl.org/dc/elements/1.1/"
   xmlns:cc="http://creativecommons.org/ns#"
   xmlns:rdf="http://www.w3.org/1999/02/22-rdf-syntax-ns#"
   xmlns:svg="http://www.w3.org/2000/svg"
   xmlns="http://www.w3.org/2000/svg"
   xmlns:xlink="http://www.w3.org/1999/xlink"
   xmlns:sodipodi="http://sodipodi.sourceforge.net/DTD/sodipodi-0.dtd"
   xmlns:inkscape="http://www.inkscape.org/namespaces/inkscape"
   width="884.43347"
   height="1598.1732"
   viewBox="0 0 234.00636 422.85001"
   version="1.1"
   id="svg8"
   inkscape:version="0.92+devel unknown"
   sodipodi:docname="ist tape.svg"
   inkscape:export-filename="/home/mbrickn/Projects/Operation-Ohio/game/images/characters/ist/ist tape.png"
   inkscape:export-xdpi="90"
   inkscape:export-ydpi="90">
  <title
     id="title77">IST</title>
  <defs
     id="defs2">
    <linearGradient
       inkscape:collect="always"
       id="linearGradient4406">
      <stop
         style="stop-color:#c9916c;stop-opacity:1;"
         offset="0"
         id="stop4402" />
      <stop
         style="stop-color:#ffc9a5;stop-opacity:1"
         offset="1"
         id="stop4404" />
    </linearGradient>
    <linearGradient
       inkscape:collect="always"
       id="linearGradient4397">
      <stop
         style="stop-color:#ff6600;stop-opacity:1;"
         offset="0"
         id="stop4393" />
      <stop
         style="stop-color:#bd4f06;stop-opacity:1"
         offset="1"
         id="stop4395" />
    </linearGradient>
    <linearGradient
       inkscape:collect="always"
       id="linearGradient4380">
      <stop
         style="stop-color:#b14700;stop-opacity:1;"
         offset="0"
         id="stop4376" />
      <stop
         style="stop-color:#ff6600;stop-opacity:1"
         offset="1"
         id="stop4378" />
    </linearGradient>
    <linearGradient
       inkscape:collect="always"
       id="linearGradient4372">
      <stop
         style="stop-color:#ff6600;stop-opacity:1"
         offset="0"
         id="stop4368" />
      <stop
         style="stop-color:#ffc9a5;stop-opacity:1"
         offset="1"
         id="stop4370" />
    </linearGradient>
    <linearGradient
       inkscape:collect="always"
       id="linearGradient4363">
      <stop
         style="stop-color:#d8d8d8;stop-opacity:1"
         offset="0"
         id="stop4359" />
      <stop
         style="stop-color:#ffffff;stop-opacity:1"
         offset="1"
         id="stop4361" />
    </linearGradient>
    <linearGradient
       inkscape:collect="always"
       id="linearGradient4352">
      <stop
         style="stop-color:#d40000;stop-opacity:1;"
         offset="0"
         id="stop4348" />
      <stop
         style="stop-color:#ff0000;stop-opacity:1"
         offset="1"
         id="stop4350" />
    </linearGradient>
    <linearGradient
       inkscape:collect="always"
       xlink:href="#linearGradient4352"
       id="linearGradient4356"
       gradientUnits="userSpaceOnUse"
       x1="1622.8359"
       y1="716.88281"
       x2="1658.4941"
       y2="451.19141" />
    <linearGradient
       inkscape:collect="always"
       xlink:href="#linearGradient4363"
       id="linearGradient4365"
       x1="1605.2881"
       y1="396.97223"
       x2="1465.897"
       y2="500.0256"
       gradientUnits="userSpaceOnUse"
       gradientTransform="translate(-5.6200177e-6,1.6855192e-6)" />
    <linearGradient
       inkscape:collect="always"
       xlink:href="#linearGradient4372"
       id="linearGradient4374"
       x1="481.88235"
       y1="143.2767"
       x2="486.53824"
       y2="140.31511"
       gradientUnits="userSpaceOnUse" />
    <linearGradient
       inkscape:collect="always"
       xlink:href="#linearGradient4380"
       id="linearGradient4382"
       x1="377.84384"
       y1="234.52652"
       x2="376.94202"
       y2="176.65327"
       gradientUnits="userSpaceOnUse" />
    <linearGradient
       inkscape:collect="always"
       xlink:href="#linearGradient4397"
       id="linearGradient4399"
       x1="1638.1886"
       y1="938.86383"
       x2="1630.6469"
       y2="1301.9352"
       gradientUnits="userSpaceOnUse" />
    <linearGradient
       inkscape:collect="always"
       xlink:href="#linearGradient4406"
       id="linearGradient4408"
       x1="1645.1132"
       y1="421.97531"
       x2="1660.4336"
       y2="460.47266"
       gradientUnits="userSpaceOnUse" />
  </defs>
  <sodipodi:namedview
     id="base"
     pagecolor="#ffffff"
     bordercolor="#666666"
     borderopacity="1.0"
     inkscape:pageopacity="0.0"
     inkscape:pageshadow="2"
     inkscape:zoom="0.24748737"
     inkscape:cx="107.80229"
     inkscape:cy="1015.5418"
     inkscape:document-units="mm"
     inkscape:current-layer="layer3"
     showgrid="false"
     inkscape:window-width="1920"
     inkscape:window-height="1016"
     inkscape:window-x="0"
     inkscape:window-y="0"
     inkscape:window-maximized="1"
     units="px"
     inkscape:pagecheckerboard="true"
     inkscape:document-rotation="0"
     fit-margin-top="0"
     fit-margin-left="0"
     fit-margin-right="0"
     fit-margin-bottom="0">
    <inkscape:grid
       type="xygrid"
       id="grid4485"
       originx="-264.34998"
       originy="141.2275" />
  </sodipodi:namedview>
  <metadata
     id="metadata5">
    <rdf:RDF>
      <cc:Work
         rdf:about="">
        <dc:format>image/svg+xml</dc:format>
        <dc:type
           rdf:resource="http://purl.org/dc/dcmitype/StillImage" />
        <dc:title>IST</dc:title>
        <cc:license
           rdf:resource="http://creativecommons.org/licenses/by/4.0/" />
        <dc:creator>
          <cc:Agent>
            <dc:title>Maxwell Paul Brickner</dc:title>
          </cc:Agent>
        </dc:creator>
      </cc:Work>
      <cc:License
         rdf:about="http://creativecommons.org/licenses/by/4.0/">
        <cc:permits
           rdf:resource="http://creativecommons.org/ns#Reproduction" />
        <cc:permits
           rdf:resource="http://creativecommons.org/ns#Distribution" />
        <cc:requires
           rdf:resource="http://creativecommons.org/ns#Notice" />
        <cc:requires
           rdf:resource="http://creativecommons.org/ns#Attribution" />
        <cc:permits
           rdf:resource="http://creativecommons.org/ns#DerivativeWorks" />
      </cc:License>
    </rdf:RDF>
  </metadata>
  <g
     inkscape:label="Head"
     inkscape:groupmode="layer"
     id="layer1"
     transform="translate(-264.34998,-15.377477)"
     style="display:inline">
    <path
       style="fill:url(#linearGradient4408);fill-opacity:1;stroke:none;stroke-width:4.18431854px;stroke-linecap:butt;stroke-linejoin:miter;stroke-opacity:1"
       d="m 1664.1426,374.29883 c -15.2219,-0.64653 -58.8555,22.67383 -58.8555,22.67383 0,0 11.2982,29.37267 14.7188,53.30273 -0.8764,1.82644 -2.9988,1.23126 -3.461,4.62109 0.6369,-0.13053 2.0367,-0.41705 3.9453,-0.69336 0.5561,5.19537 0.6737,10.02956 0.1192,14.09571 16.6266,-3.82772 29.6223,-6.28962 39.8242,-7.82617 11.0124,2.04329 23.0104,3.77612 24.9121,8.40429 4.8932,11.90845 7.8185,-1.42615 9.0234,-9.62109 2.5313,0.75261 2.8516,1.64648 2.8516,1.64648 0,0 -1.3884,-3.88194 -2.2715,-6.3457 0.062,-0.68605 0.073,-0.91174 -0.018,-0.0527 -5.3733,-14.99184 -23.4489,-65.76014 -25.7128,-77.08008 -0.4128,-2.06388 -2.2573,-3.00527 -5.0762,-3.125 z"
       transform="matrix(0.26458333,0,0,0.26458333,0,11.249983)"
       id="path4612"
       inkscape:connector-curvature="0" />
    <path
       style="fill:#ffc9a5;fill-opacity:1;stroke:#ffc9a5;stroke-width:0.39597967px;stroke-linecap:butt;stroke-linejoin:miter;stroke-opacity:1"
       d="m 462.23099,92.491379 c 0,0 -8.79405,17.306981 -20.67344,24.943721 -11.87939,7.63675 -32.6739,-7.4805 -32.6739,-7.4805 0,0 3.32399,8.13211 -4.31275,-24.677639 -1.46296,-6.285302 -3.92828,-26.184083 -1.4821,-30.582959 10.32301,-18.563546 51.66011,-6.842221 56.91928,-3.641008 6.50536,3.959777 20.60771,16.831064 2.22291,41.438385 z"
       id="path4538"
       inkscape:connector-curvature="0"
       sodipodi:nodetypes="cscsssc" />
    <g
       transform="matrix(1.4966161,0,0,1.4966161,-299.70805,-121.69972)"
       style="display:inline"
       id="g4373">
      <path
         inkscape:connector-curvature="0"
         id="path4509"
         d="m 471.14996,127.80102 c 0,0 0.39376,-5.47329 5.51906,-5.60381 5.12531,-0.13042 5.90916,5.53348 5.90916,5.53348 0,0 -0.46248,-10.07747 -5.77958,-9.61478 -5.31711,0.46266 -5.64864,9.68511 -5.64864,9.68511 z"
         style="fill:#e6e6e6;fill-opacity:1;stroke:#e6e6e6;stroke-width:0.83854395px;stroke-linecap:butt;stroke-linejoin:miter;stroke-opacity:1"
         sodipodi:nodetypes="ccccc" />
      <path
         sodipodi:nodetypes="cc"
         inkscape:connector-curvature="0"
         id="path4511"
         d="m 470.01383,127.0974 0.90304,0.33589"
         style="fill:#c47d4d;fill-opacity:1;stroke:#e6e6e6;stroke-width:0.83854395px;stroke-linecap:butt;stroke-linejoin:miter;stroke-opacity:1" />
    </g>
    <g
       style="display:inline"
       id="g4379"
       transform="matrix(1.4966161,0,0,1.4966161,-306.23657,-130.1423)">
      <path
         sodipodi:nodetypes="ccccc"
         style="fill:#e6e6e6;fill-opacity:1;stroke:#e6e6e6;stroke-width:1.0116601px;stroke-linecap:butt;stroke-linejoin:miter;stroke-opacity:1"
         d="m 495.70087,134.95521 c 0,0 0.93528,-6.057 8.38559,-6.37005 7.45032,-0.31292 7.86344,6.36338 7.86344,6.36338 0,0 0.1809,-10.57007 -7.55986,-9.91712 -7.74075,0.65291 -8.68917,9.92379 -8.68917,9.92379 z"
         id="path4505"
         inkscape:connector-curvature="0" />
      <path
         style="fill:#d5f6ff;fill-opacity:1;stroke:#e6e6e6;stroke-width:1.0116601px;stroke-linecap:butt;stroke-linejoin:miter;stroke-opacity:1"
         d="m 512.21717,134.31379 1.29993,0.30473"
         id="path4507"
         inkscape:connector-curvature="0"
         sodipodi:nodetypes="cc" />
    </g>
  </g>
  <g
     inkscape:groupmode="layer"
     id="layer3"
     inkscape:label="Body"
     style="display:inline"
     transform="translate(-264.34998,-4.1274939)">
    <rect
       style="fill:#e6e6e6;fill-opacity:1;stroke:none;stroke-width:1.54801655;stroke-linejoin:bevel;stroke-miterlimit:4;stroke-dasharray:none;stroke-opacity:1;paint-order:markers fill stroke"
       id="rect4382"
       width="4.8830009"
       height="244.12367"
       x="357.05307"
       y="85.659676"
       transform="rotate(14.325837)" />
    <path
       style="fill:#ffb380;fill-opacity:1;stroke:#ffb380;stroke-width:0.30916545px;stroke-linecap:butt;stroke-linejoin:miter;stroke-opacity:1"
       d="m 326.21085,220.95174 c -2.54295,0.93751 -6.97417,4.57525 -10.45886,4.05729 -1.76229,-0.26194 -3.42529,-0.61383 -4.63871,-0.89769 -3.60113,-2.96575 -2.00369,-19.89008 3.18606,-17.89963 3.20681,1.22875 7.37529,2.02679 10.25987,2.62 9.11738,1.03424 9.23669,0.81881 10.36948,-7.43553 l 11.71895,5.19424 c -6.35308,9.10077 -7.15673,8.69681 -20.43679,14.36132 z"
       id="path4565"
       inkscape:connector-curvature="0"
       sodipodi:nodetypes="cccccccc" />
    <path
       sodipodi:nodetypes="cccccc"
       inkscape:connector-curvature="0"
       id="path4642"
       d="m 388.33338,142.25799 c 0,0 -45.54325,51.44809 -53.69836,57.30248 -8.15517,5.85441 -2.35428,27.95516 1.29354,21.77912 3.64794,-6.17619 54.31768,-31.72519 72.27423,-82.36717 -2.00279,-24.8855 -19.86941,3.28557 -19.86941,3.28557 z"
       style="fill:url(#linearGradient4382);fill-opacity:1;stroke:none;stroke-width:1.25896215px;stroke-linecap:butt;stroke-linejoin:miter;stroke-opacity:1" />
    <circle
       r="14.60288"
       cy="131.9086"
       cx="399.59256"
       id="circle4316"
       style="display:inline;fill:#ff6600;fill-opacity:1;stroke:none;stroke-width:42.014328;stroke-linejoin:bevel;stroke-opacity:1;paint-order:markers fill stroke" />
    <path
       style="fill:url(#linearGradient4399);fill-opacity:1;stroke:none;stroke-width:4.18431854px;stroke-linecap:butt;stroke-linejoin:miter;stroke-opacity:1"
       d="m 1786.8906,492.85938 c -30.6642,0.59915 -82.5806,102.78076 -163.5625,116.43359 -82.1433,13.84864 -128.184,-91.56836 -155.6113,-71.625 -1.866,18.05548 -1.3081,37.00177 -2.4023,53.81836 0.1183,120.98377 27.176,191.40935 41.4785,255.3125 -2.1073,28.67515 -8.7543,57.37087 -18.2754,82.80078 0,0 2.0878,4.80147 25.8984,7.16601 -0.5926,6.27536 -1.447,12.66814 -2.6152,19.22266 0,0 -20.6885,230.71262 -16.1035,264.44332 5.075,37.3381 54.0353,300.9733 77.4394,308.0508 23.404,7.0775 50.0328,6.9618 49.0547,-12.4023 -0.9784,-19.3643 -21.2662,-265.0629 -29.3867,-301.1973 -5.0082,-22.2847 10.8343,-99.2908 23.7148,-155.0469 1.4396,-6.2312 7.5905,-12.8041 16.6836,-19.3964 2.2285,51.2613 5.9584,136.4648 7.25,160.3183 1.8345,33.8758 36.8041,324.2566 59.8887,330.1992 23.0845,5.9424 49.59,4.485 49.1855,-14.9511 -0.4051,-19.4365 1.6057,-251.9661 -5.414,-287.918 -5.4193,-27.7548 16.1058,-166.8688 26.8594,-225.9844 0.3844,-21.74892 1.2673,-43.09619 2.5839,-64.08397 38.8562,-4.48236 41.3536,-11.49609 41.3536,-11.49609 -16.0356,-34.28519 -27.0097,-75.33666 -27.709,-114.64258 13.4809,-87.38676 34.3699,-168.30219 59.3652,-244.70508 3.188,-14.16385 -37.3683,-50.25275 -45.5352,-64.36328 -4.0949,-7.07564 -8.7954,-10.05757 -14.1406,-9.95312 z"
       transform="scale(0.26458333)"
       id="path4617"
       inkscape:connector-curvature="0" />
    <path
       sodipodi:nodetypes="csccccc"
       inkscape:connector-curvature="0"
       id="path4623"
       d="m 388.87034,142.67107 c 0.63756,17.86329 26.80159,25.67428 40.41158,28.77296 13.60998,3.09871 34.79723,-25.64769 49.34918,-45.5255 -11.31484,-1.8394 -24.27458,-3.53044 -29.96943,-5.27715 -14.63378,7.45604 -16.76304,12.72603 -20.5198,-0.93752 -12.45192,0.78209 -25.75311,2.25631 -37.14561,4.32444 z"
       style="fill:#ff6600;fill-opacity:1;stroke:#ff6600;stroke-width:1.10710096px;stroke-linecap:butt;stroke-linejoin:miter;stroke-opacity:1" />
    <g
       id="g4352" />
    <g
       id="g4367"
       transform="matrix(1.4966161,0,0,1.4966161,-296.93338,-141.60072)">
      <path
         inkscape:connector-curvature="0"
         id="path4489"
         d="m 485.10892,134.64823 c 0,0 -0.83466,4.96272 -1.89371,7.32295 2.69357,1.64472 4.72384,-0.70642 4.72384,-0.70642"
         style="fill:url(#linearGradient4374);fill-opacity:1;stroke:none;stroke-width:0.60180032;stroke-linecap:butt;stroke-linejoin:miter;stroke-miterlimit:4;stroke-dasharray:none;stroke-opacity:1"
         sodipodi:nodetypes="ccc" />
      <ellipse
         style="fill:#000000;fill-opacity:1;stroke:none;stroke-width:9.52195072;stroke-linejoin:bevel;stroke-opacity:1;paint-order:markers fill stroke"
         id="path4351"
         cx="475.04489"
         cy="135.68735"
         rx="5.8077593"
         ry="8.3106861" />
      <ellipse
         cy="135.92023"
         cx="497.51645"
         id="circle4353"
         style="fill:#000000;fill-opacity:1;stroke:none;stroke-width:11.49811649;stroke-linejoin:bevel;stroke-opacity:1;paint-order:markers fill stroke"
         rx="7.5345449"
         ry="9.3409281" />
      <path
         style="fill:none;stroke:#000000;stroke-width:1.03434443;stroke-linecap:butt;stroke-linejoin:miter;stroke-miterlimit:4;stroke-dasharray:none;stroke-opacity:1"
         d="m 479.93151,134.54807 c 0,0 4.30039,-4.95804 10.66746,1.9126"
         id="path4366"
         inkscape:connector-curvature="0" />
      <path
         inkscape:connector-curvature="0"
         id="path4368"
         d="m 502.8588,136.36318 c 0,0 4.30039,-4.95804 10.66746,1.9126"
         style="fill:none;stroke:#000000;stroke-width:1.03434443;stroke-linecap:butt;stroke-linejoin:miter;stroke-miterlimit:4;stroke-dasharray:none;stroke-opacity:1" />
      <path
         style="fill:none;stroke:#000000;stroke-width:1.03434443;stroke-linecap:butt;stroke-linejoin:miter;stroke-miterlimit:4;stroke-dasharray:none;stroke-opacity:1"
         d="m 471.91954,136.80945 c 0,0 -2.63981,-4.37625 -5.34986,-4.41026"
         id="path4370"
         inkscape:connector-curvature="0"
         sodipodi:nodetypes="cc" />
      <path
         style="fill:url(#linearGradient4365);fill-opacity:1;stroke:none;stroke-width:1.22372854px;stroke-linecap:butt;stroke-linejoin:miter;stroke-opacity:1"
         d="m 1690.5293,15.607422 c -4.7982,0.164749 -11.9187,3.0722 -21.9766,9.609375 0,0 -7.4667,9.338505 -16.623,22.158203 -1.9156,-2.472543 -3.3008,-4.234375 -3.3008,-4.234375 -36.6413,-23.815308 -34.2907,0.546657 -22.6621,30.207031 -37.5162,0.327112 -96.1621,17.64539 -118.3828,27.404294 -5.3245,2.33843 -10.0545,4.96961 -14.1856,7.81446 -19.8024,-11.188775 -40.6757,-20.171879 -40.6757,-20.171879 -42.1068,-3.658365 -22.7757,18.710499 2.4101,38.507809 -28.5393,-2.21715 -50.9873,1.83694 -21.0137,26.52539 0,0 22.0538,8.53454 44.4922,14.42969 -5.0614,6.99385 -8.3281,11.85742 -8.3281,11.85742 -13.7035,49.34098 26.6646,17.0404 53.0098,-9.08203 46.2299,-8.21664 112.0195,-40.44531 112.0195,-40.44531 0,0 66.5539,36.77621 116.3555,51.80078 1.6918,4.007 4.7356,8.60282 8.5566,13.42774 -10.8669,34.5909 -7.1904,113.88776 -49.2578,134.61523 -34.1099,9.50212 -98.1337,21.84826 -169.2715,7.80469 0,0 1.9772,24.44901 -47.1562,140.88086 128.4625,-27.27353 191.2524,-60.10418 221.1211,-88.69336 16.9588,-11.64733 44.611,-58.54878 65.248,-109.03321 2.913,7.25329 5.0176,12.04297 5.0176,12.04297 35.5334,39.33428 28.224,-17.10757 19.8769,-53.38281 2.2492,1.86406 3.8946,3.20703 3.8946,3.20703 46.8501,17.41999 20.5688,-23.11278 -2.8379,-51.53711 0.062,-0.49624 0.109,-0.97856 0.166,-1.4707 3.3108,-9.14999 6.2167,-18.47153 7.7519,-26.48242 0.5978,-2.13868 0.9235,-4.31542 0.9668,-6.51172 0.2591,-2.73176 0.2815,-5.20852 0,-7.33594 -0.6575,-1.37793 -1.36,-2.6354 -2.0976,-3.79297 -4.3484,-11.02022 -15.3922,-21.62092 -32.5899,-29.17383 -18.0641,-7.93343 -63.5222,-23.766443 -102.6113,-31.83398 -0.1071,-0.167141 -0.213,-0.335043 -0.3203,-0.501953 15.2155,-29.98488 30.6976,-69.237626 12.4004,-68.609375 z"
         transform="matrix(0.17678771,0,0,0.17678771,198.40317,94.613923)"
         id="path4372"
         inkscape:connector-curvature="0" />
    </g>
    <path
       style="fill:#000000;fill-opacity:1;stroke:#000000;stroke-width:0.32377815px;stroke-linecap:butt;stroke-linejoin:miter;stroke-opacity:1"
       d="m 428.51912,119.29995 c 7.54553,2.31356 12.57654,1.29908 20.30408,0.58888 -6.86526,16.85137 -6.80948,89.21077 -15.38581,128.51889 -2.86651,-0.26669 -6.70355,0.53091 -6.89495,-0.40699 -9.82708,-55.79661 4.90384,-100.79529 1.97668,-128.70078 z"
       id="path4304"
       inkscape:connector-curvature="0"
       sodipodi:nodetypes="ccccc" />
    <circle
       style="display:inline;fill:#ff6600;fill-opacity:1;stroke:none;stroke-width:42.014328;stroke-linejoin:bevel;stroke-opacity:1;paint-order:markers fill stroke"
       id="path4299"
       cx="478.51077"
       cy="135.95491"
       r="14.60288" />
    <path
       style="fill:url(#linearGradient4356);fill-opacity:1;stroke:none;stroke-width:1.38045609px;stroke-linecap:butt;stroke-linejoin:miter;stroke-opacity:1"
       d="m 1607.8965,448.79688 -22.8653,24.03515 21.9649,2.96289 40.8926,-19.53515 a 9.7234185,9.7234185 0 0 0 -1.3926,4.99023 9.7234185,9.7234185 0 0 0 0.3086,2.39844 l -16.4551,13.74804 -0.7129,16.86914 11.3438,-6.96289 8.8359,-18.74414 a 9.7234185,9.7234185 0 0 0 4.1856,2.14844 l -39.9688,172.11328 8.8027,74.0625 38.4239,-64.86914 -6.1758,-181.11328 a 9.7234185,9.7234185 0 0 0 1.1348,0.0742 9.7234185,9.7234185 0 0 0 5.4882,-1.71094 l 8.5039,18.03906 11.3438,6.96289 -0.7129,-16.86914 -15.4629,-12.91992 a 9.7234185,9.7234185 0 0 0 0.5645,-3.22656 9.7234185,9.7234185 0 0 0 -1.3184,-4.86523 l 40.6289,19.41015 21.9649,-2.96289 -18.6836,-21.01367 -50.1524,-0.57422 0.1113,-0.0527 z"
       transform="scale(0.26458333)"
       id="path4312"
       inkscape:connector-curvature="0" />
    <path
       inkscape:connector-curvature="0"
       id="path4519"
       d="m 413.16161,96.656819 c 0,0 17.41042,4.059851 22.96727,0.962599"
       style="display:inline;fill:none;fill-opacity:1;stroke:#aeaeae;stroke-width:1.07700002;stroke-linecap:round;stroke-linejoin:miter;stroke-miterlimit:4;stroke-dasharray:none;stroke-opacity:1"
       sodipodi:nodetypes="cc" />
    <path
       sodipodi:nodetypes="cc"
       style="display:inline;fill:none;fill-opacity:1;stroke:#aeaeae;stroke-width:1.07700002;stroke-linecap:round;stroke-linejoin:miter;stroke-miterlimit:4;stroke-dasharray:none;stroke-opacity:1"
       d="m 437.80079,92.336865 c 0,0 -5.02951,7.251718 3.70958,9.335025"
       id="path4349"
       inkscape:connector-curvature="0" />
    <circle
       style="fill:#000000;fill-opacity:1;stroke-width:1.54801655;stroke-linejoin:bevel;paint-order:markers fill stroke"
       id="path4306"
       cx="455.46283"
       cy="154.18237"
       r="2.6534135"
       transform="rotate(3.5924424)" />
    <circle
       style="fill:#000000;fill-opacity:1;stroke-width:1.54801655;stroke-linejoin:bevel;paint-order:markers fill stroke"
       id="path4308"
       cx="454.60172"
       cy="174.85825"
       r="2.9276183"
       transform="rotate(3.5924424)" />
    <circle
       style="fill:#000000;fill-opacity:1;stroke-width:1.54801655;stroke-linejoin:bevel;paint-order:markers fill stroke"
       id="path4310"
       cx="455.03226"
       cy="164.52031"
       r="2.706913"
       transform="rotate(3.5924424)" />
    <g
       transform="matrix(0.21481879,0.02741526,-0.02741526,0.21481879,426.24752,103.17769)"
       id="g4342">
      <g
         transform="matrix(11.239459,0,0,11.239459,-975.15717,-1061.2053)"
         id="g4355">
        <g
           aria-label="BG IST"
           transform="matrix(0.26458333,0,0,0.26458333,-0.08620094,-0.49473256)"
           style="font-style:normal;font-weight:normal;font-size:13.33333397px;line-height:1.25;font-family:sans-serif;letter-spacing:0px;word-spacing:0px;fill:#ffffff;fill-opacity:1;stroke:none"
           id="flowRoot4271">
          <g
             id="g4318">
            <path
               inkscape:connector-curvature="0"
               id="path4305"
               style="font-style:normal;font-variant:normal;font-weight:bold;font-stretch:normal;font-size:17.33333397px;font-family:'League Gothic';-inkscape-font-specification:'League Gothic Bold';text-align:center;text-anchor:middle;fill:#ffffff;fill-opacity:1"
               d="m 379.23565,417.4262 c 2.236,-0.0867 2.89466,-1.73333 2.89466,-3.60534 0,-2.53066 -1.3,-3.12 -1.3,-3.12 0.90134,-0.78 1.16134,-1.456 1.16134,-2.63466 0,-2.53067 -1.17867,-3.38 -3.41467,-3.38 -0.71067,0 -1.64667,0 -1.64667,0 v 12.74 z m 0.95333,-3.81334 c 0,2.09734 -1.04,1.95867 -1.38667,1.95867 v -3.91733 c 0.34667,0 1.38667,-0.13867 1.38667,1.95866 z m 0,-5.37333 c 0,1.75067 -1.04,1.69867 -1.38667,1.69867 v -3.39734 c 0.34667,0 1.38667,-0.052 1.38667,1.69867 z" />
            <path
               inkscape:connector-curvature="0"
               id="path4307"
               style="font-style:normal;font-variant:normal;font-weight:bold;font-stretch:normal;font-size:17.33333397px;font-family:'League Gothic';-inkscape-font-specification:'League Gothic Bold';text-align:center;text-anchor:middle;fill:#ffffff;fill-opacity:1"
               d="m 388.09785,409.2622 v -1.95867 c 0,0 0.0173,-2.756 -2.496,-2.756 -2.51333,0 -2.496,2.756 -2.496,2.756 v 7.50534 c 0,0 -0.17333,2.756 2.20134,2.756 0.58933,0 1.10933,-0.312 1.456,-0.74534 l 0.22533,0.60667 h 1.10933 v -6.344 h -2.61733 v 1.57733 h 0.74533 v 2.30534 c 0,0 0.0347,0.936 -0.624,0.936 -0.65866,0 -0.624,-0.936 -0.624,-0.936 v -7.66134 c 0,0 -0.0347,-0.936 0.624,-0.936 0.65867,0 0.624,0.936 0.624,0.936 v 1.95867 z" />
          </g>
          <path
             inkscape:connector-curvature="0"
             d="m 375.84698,439.09285 h 1.872 v -12.74 h -1.872 z"
             style="font-style:normal;font-variant:normal;font-weight:bold;font-stretch:normal;font-size:17.33333397px;font-family:'League Gothic';-inkscape-font-specification:'League Gothic Bold';text-align:center;text-anchor:middle;fill:#ffffff;fill-opacity:1"
             id="path4309" />
          <path
             inkscape:connector-curvature="0"
             d="m 378.97565,429.19552 c 0,1.36933 0.832,2.66933 1.716,3.96933 0.71066,1.07467 1.508,2.09734 1.508,2.94667 0,0.79733 -0.208,1.404 -0.76267,1.404 -0.78,0 -0.884,-1.10933 -0.884,-2.16667 l -1.83733,0.17334 c 0,1.88933 0.312,3.70933 2.72133,3.70933 2.04533,0 2.6,-1.508 2.6,-3.20667 0,-1.36933 -0.884,-2.63466 -1.75067,-3.93466 -0.728,-1.05734 -1.47333,-2.028 -1.47333,-2.89467 0,-0.728 0.156,-1.248 0.64133,-1.26533 0.624,0 0.74534,0.988 0.74534,1.83733 l 1.83733,-0.17333 c 0,-1.42134 -0.364,-3.432 -2.61733,-3.38 -1.768,0.0347 -2.444,1.59466 -2.444,2.98133 z"
             style="font-style:normal;font-variant:normal;font-weight:bold;font-stretch:normal;font-size:17.33333397px;font-family:'League Gothic';-inkscape-font-specification:'League Gothic Bold';text-align:center;text-anchor:middle;fill:#ffffff;fill-opacity:1"
             id="path4311" />
          <path
             inkscape:connector-curvature="0"
             d="m 386.16465,428.27685 v 10.816 h 1.872 v -10.816 h 1.768 v -1.924 h -5.408 v 1.924 z"
             style="font-style:normal;font-variant:normal;font-weight:bold;font-stretch:normal;font-size:17.33333397px;font-family:'League Gothic';-inkscape-font-specification:'League Gothic Bold';text-align:center;text-anchor:middle;fill:#ffffff;fill-opacity:1"
             id="path4313" />
        </g>
        <g
           id="g4303"
           transform="matrix(1.0780464,-0.6224104,0.6224104,1.0780464,-75.54707,54.686524)">
          <path
             inkscape:connector-curvature="0"
             id="path4285"
             d="M 99.218749,107.02917 H 103.1875"
             style="fill:none;stroke:#ff6600;stroke-width:0.26458332px;stroke-linecap:butt;stroke-linejoin:miter;stroke-opacity:1" />
          <path
             inkscape:connector-curvature="0"
             id="path4287"
             d="M 103.1875,107.55833 H 99.218749"
             style="fill:none;stroke:#ff6600;stroke-width:0.26458332px;stroke-linecap:butt;stroke-linejoin:miter;stroke-opacity:1" />
          <path
             inkscape:connector-curvature="0"
             id="path4289"
             d="M 99.218749,108.0875 H 103.1875"
             style="fill:none;stroke:#ff6600;stroke-width:0.26458332px;stroke-linecap:butt;stroke-linejoin:miter;stroke-opacity:1" />
          <path
             inkscape:connector-curvature="0"
             id="path4291"
             d="M 103.1875,108.61667 H 99.218749"
             style="fill:none;stroke:#ff6600;stroke-width:0.26458332px;stroke-linecap:butt;stroke-linejoin:miter;stroke-opacity:1" />
          <path
             inkscape:connector-curvature="0"
             id="path4293"
             d="M 99.218749,109.14583 H 103.1875"
             style="fill:none;stroke:#ff6600;stroke-width:0.26458332px;stroke-linecap:butt;stroke-linejoin:miter;stroke-opacity:1" />
          <path
             inkscape:connector-curvature="0"
             id="path4295"
             d="M 103.1875,109.675 H 99.218749"
             style="fill:none;stroke:#ff6600;stroke-width:0.26458332px;stroke-linecap:butt;stroke-linejoin:miter;stroke-opacity:1" />
        </g>
        <g
           transform="matrix(1.0780464,-0.6224104,0.6224104,1.0780464,-75.337077,60.268118)"
           id="g4332">
          <path
             style="fill:none;stroke:#ff6600;stroke-width:0.26458332px;stroke-linecap:butt;stroke-linejoin:miter;stroke-opacity:1"
             d="M 99.218749,107.02917 H 103.1875"
             id="path4320"
             inkscape:connector-curvature="0" />
          <path
             style="fill:none;stroke:#ff6600;stroke-width:0.26458332px;stroke-linecap:butt;stroke-linejoin:miter;stroke-opacity:1"
             d="M 103.1875,107.55833 H 99.218749"
             id="path4322"
             inkscape:connector-curvature="0" />
          <path
             style="fill:none;stroke:#ff6600;stroke-width:0.26458332px;stroke-linecap:butt;stroke-linejoin:miter;stroke-opacity:1"
             d="M 99.218749,108.0875 H 103.1875"
             id="path4324"
             inkscape:connector-curvature="0" />
          <path
             style="fill:none;stroke:#ff6600;stroke-width:0.26458332px;stroke-linecap:butt;stroke-linejoin:miter;stroke-opacity:1"
             d="M 103.1875,108.61667 H 99.218749"
             id="path4326"
             inkscape:connector-curvature="0" />
          <path
             style="fill:none;stroke:#ff6600;stroke-width:0.26458332px;stroke-linecap:butt;stroke-linejoin:miter;stroke-opacity:1"
             d="M 99.218749,109.14583 H 103.1875"
             id="path4328"
             inkscape:connector-curvature="0" />
          <path
             style="fill:none;stroke:#ff6600;stroke-width:0.26458332px;stroke-linecap:butt;stroke-linejoin:miter;stroke-opacity:1"
             d="M 103.1875,109.675 H 99.218749"
             id="path4330"
             inkscape:connector-curvature="0" />
        </g>
      </g>
    </g>
    <path
       style="display:inline;fill:#000000;fill-opacity:1;stroke:none;stroke-width:0.2255417px;stroke-linecap:butt;stroke-linejoin:miter;stroke-opacity:1"
       d="m 385.79145,425.6959 c 3.70252,0.29953 27.24308,0.9664 28.44674,0.10341 3.61928,-6.65255 6.05383,0.48111 6.76517,0.37655 1.03534,-0.20387 10.42549,0.11332 10.54046,-1.3225 0.11491,-1.43588 2.22388,-21.72184 0.70356,-24.52345 -0.22632,-0.41703 -4.97282,-49.61566 -7.05557,-53.34269 -7.81782,-13.98966 -22.17004,1.8756 -25.93745,3.12369 -1.97189,0.65327 13.32336,50.5662 13.92482,52.93133 -4.69205,13.46446 -23.56988,14.75941 -34.00301,10.14428 -2.34453,5.9557 3.91993,12.10523 6.61528,12.50923 z"
       id="path4302"
       inkscape:connector-curvature="0"
       sodipodi:nodetypes="cccccsscccc" />
    <path
       sodipodi:nodetypes="cccsscc"
       inkscape:connector-curvature="0"
       id="path4306-7"
       d="m 454.99046,426.9775 c 1.03537,-0.20386 11.33997,-0.68815 11.45496,-2.12403 0.1149,-1.43589 2.22385,-21.72184 0.70353,-24.52345 -0.2263,-0.41704 -1.3487,-48.39843 -3.43146,-52.12544 -7.8178,-13.98967 -22.17002,1.87557 -25.9374,3.12366 -1.97189,0.65325 7.85831,49.94082 8.45978,52.30593 -11.37675,28.19344 -11.74226,20.00433 8.75059,23.34333 z"
       style="display:inline;fill:#000000;fill-opacity:1;stroke:none;stroke-width:0.2255417px;stroke-linecap:butt;stroke-linejoin:miter;stroke-opacity:1" />
    <rect
       style="display:inline;fill:#c83737;fill-opacity:1;stroke:none;stroke-width:2.08972573;stroke-linejoin:bevel;stroke-miterlimit:4;stroke-dasharray:none;stroke-opacity:1;paint-order:markers fill stroke"
       id="rect4384"
       width="7.4399314"
       height="8.4566793"
       x="512.40179"
       y="-218.45622"
       transform="matrix(0.50235103,0.86466377,-0.23798681,0.97126839,0,0)" />
    <path
       style="display:inline;fill:#ffb380;fill-opacity:1;stroke:none;stroke-width:0.26458332px;stroke-linecap:butt;stroke-linejoin:miter;stroke-opacity:1"
       d="m 319.26081,210.93692 c 0,0 -0.68453,-4.51098 0.56825,-7.83341 1.25277,-3.32242 1.94487,-2.79458 2.66022,-2.55853 0.71536,0.23605 -0.69543,4.38451 0.43188,6.47487 1.12731,2.09036 3.36376,4.06453 3.6884,4.07524 0.32464,0.0107 -2.5314,5.49265 -7.34875,-0.15817 z"
       id="path4355"
       inkscape:connector-curvature="0" />
    <path
       inkscape:connector-curvature="0"
       id="path4317"
       d="m 439.54165,172.51195 c 0,0 -7.30125,-0.41416 -9.33513,-0.0701 -2.03388,0.34407 -2.21319,3.21497 -4.74709,2.33802 -9.87289,0.47748 -2.27862,-16.69459 0.77245,-14.32075 1.08482,0.84056 2.73171,1.98484 4.44163,2.6846 2.95652,1.20996 8.49301,1.08582 8.49301,1.08582 z"
       style="display:inline;fill:#ffb380;fill-opacity:1;stroke:#ffb380;stroke-width:0.23530611px;stroke-linecap:butt;stroke-linejoin:miter;stroke-opacity:1"
       sodipodi:nodetypes="ccccccc" />
    <g
       style="display:inline"
       id="g4341"
       transform="rotate(9.3824404,743.57417,332.31811)">
      <rect
         y="207.47275"
         x="384.03564"
         height="28.803308"
         width="17.801422"
         id="rect4335"
         style="fill:#000000;stroke:#000000;stroke-width:1.26499999;stroke-linejoin:bevel;stroke-opacity:1;paint-order:markers fill stroke" />
      <circle
         r="2.6168578"
         cy="221.8744"
         cx="392.93634"
         id="path4337"
         style="fill:#ff6600;fill-opacity:1;stroke:none;stroke-width:1.26499999;stroke-linejoin:bevel;stroke-opacity:1;paint-order:markers fill stroke" />
    </g>
    <path
       style="display:inline;fill:#ff6600;fill-opacity:1;stroke:#ff6600;stroke-width:0.90469491px;stroke-linecap:butt;stroke-linejoin:miter;stroke-opacity:1"
       d="m 477.17514,140.56891 c 0,0 16.2498,13.44344 0.74294,16.7594 -18.72666,4.00448 -34.12775,4.9852 -38.0588,4.63895 -7.18624,-0.63295 -7.25387,12.54791 -2.37223,10.89319 2.93706,-0.99554 26.89959,1.01108 50.2848,-1.59238 15.48397,-1.72382 12.4794,-40.01236 -3.97638,-43.30132 10.57205,-14.49474 -6.62033,12.60216 -6.62033,12.60216 z"
       id="path4640"
       inkscape:connector-curvature="0"
       sodipodi:nodetypes="csccscc" />
    <path
       style="display:inline;fill:#ffb380;fill-opacity:1;stroke:none;stroke-width:0.26458332px;stroke-linecap:butt;stroke-linejoin:miter;stroke-opacity:1"
       d="m 425.64727,165.29195 c 0,0 -0.68453,-4.51098 0.56825,-7.83341 1.25277,-3.32242 1.94486,-2.79458 2.66022,-2.55853 0.71536,0.23605 -0.69543,4.38451 0.43188,6.47487 1.12731,2.09036 3.36376,4.06453 3.6884,4.07524 0.32464,0.0107 -2.5314,5.49265 -7.34875,-0.15817 z"
       id="path4355-6"
       inkscape:connector-curvature="0" />
  </g>
  <g
     inkscape:groupmode="layer"
     id="layer2"
     inkscape:label="Decor"
     style="opacity:0.18600003"
     transform="translate(-264.34998,-15.377477)" />
</svg>
