<?xml version="1.0" encoding="UTF-8" standalone="no"?>
<!-- Created with Inkscape (http://www.inkscape.org/) -->

<svg
   xmlns:dc="http://purl.org/dc/elements/1.1/"
   xmlns:cc="http://creativecommons.org/ns#"
   xmlns:rdf="http://www.w3.org/1999/02/22-rdf-syntax-ns#"
   xmlns:svg="http://www.w3.org/2000/svg"
   xmlns="http://www.w3.org/2000/svg"
   xmlns:xlink="http://www.w3.org/1999/xlink"
   xmlns:sodipodi="http://sodipodi.sourceforge.net/DTD/sodipodi-0.dtd"
   xmlns:inkscape="http://www.inkscape.org/namespaces/inkscape"
   width="1920"
   height="1080"
   viewBox="0 0 508 285.75001"
   version="1.1"
   id="svg8"
   inkscape:version="0.92+devel unknown"
   sodipodi:docname="geepm template.svg">
  <title
     id="title4294">GeePM</title>
  <defs
     id="defs2">
    <linearGradient
       inkscape:collect="always"
       id="linearGradient4397">
      <stop
         style="stop-color:#aad400;stop-opacity:1"
         offset="0"
         id="stop4393" />
      <stop
         style="stop-color:#e9c6af;stop-opacity:1"
         offset="1"
         id="stop4395" />
    </linearGradient>
    <linearGradient
       inkscape:collect="always"
       id="linearGradient4389">
      <stop
         style="stop-color:#ff6600;stop-opacity:1;"
         offset="0"
         id="stop4385" />
      <stop
         style="stop-color:#b74900;stop-opacity:1"
         offset="1"
         id="stop4387" />
    </linearGradient>
    <linearGradient
       inkscape:collect="always"
       id="linearGradient4381">
      <stop
         style="stop-color:#d6ada7;stop-opacity:1;"
         offset="0"
         id="stop4377" />
      <stop
         style="stop-color:#e8c6af;stop-opacity:1"
         offset="1"
         id="stop4379" />
    </linearGradient>
    <linearGradient
       inkscape:collect="always"
       id="linearGradient4373">
      <stop
         style="stop-color:#440055;stop-opacity:1;"
         offset="0"
         id="stop4369" />
      <stop
         style="stop-color:#9a00c0;stop-opacity:1"
         offset="1"
         id="stop4371" />
    </linearGradient>
    <linearGradient
       inkscape:collect="always"
       id="linearGradient4357">
      <stop
         style="stop-color:#440055;stop-opacity:1;"
         offset="0"
         id="stop4353" />
      <stop
         style="stop-color:#5a0070;stop-opacity:1"
         offset="1"
         id="stop4355" />
    </linearGradient>
    <linearGradient
       inkscape:collect="always"
       id="linearGradient4349">
      <stop
         style="stop-color:#ab37c8;stop-opacity:1;"
         offset="0"
         id="stop4345" />
      <stop
         style="stop-color:#5c1e6b;stop-opacity:1"
         offset="1"
         id="stop4347" />
    </linearGradient>
    <linearGradient
       inkscape:collect="always"
       id="linearGradient4333">
      <stop
         style="stop-color:#e9c6af;stop-opacity:1;"
         offset="0"
         id="stop4329" />
      <stop
         style="stop-color:#e1bfa9;stop-opacity:1"
         offset="1"
         id="stop4331" />
    </linearGradient>
    <linearGradient
       inkscape:collect="always"
       id="linearGradient4325">
      <stop
         style="stop-color:#e9c6af;stop-opacity:1;"
         offset="0"
         id="stop4321" />
      <stop
         style="stop-color:#e7c5af;stop-opacity:1"
         offset="1"
         id="stop4323" />
    </linearGradient>
    <linearGradient
       inkscape:collect="always"
       id="linearGradient4317">
      <stop
         style="stop-color:#e9c6af;stop-opacity:1;"
         offset="0"
         id="stop4313" />
      <stop
         style="stop-color:#e7c5af;stop-opacity:1"
         offset="1"
         id="stop4315" />
    </linearGradient>
    <linearGradient
       inkscape:collect="always"
       id="linearGradient4307">
      <stop
         style="stop-color:#440055;stop-opacity:1"
         offset="0"
         id="stop4303" />
      <stop
         style="stop-color:#ab37c8;stop-opacity:1"
         offset="1"
         id="stop4305" />
    </linearGradient>
    <linearGradient
       inkscape:collect="always"
       xlink:href="#linearGradient4307"
       id="linearGradient4309"
       x1="368.98648"
       y1="468.3587"
       x2="366.71017"
       y2="428.40543"
       gradientUnits="userSpaceOnUse" />
    <linearGradient
       inkscape:collect="always"
       xlink:href="#linearGradient4317"
       id="linearGradient4319"
       x1="1767.942"
       y1="706.96545"
       x2="1807.9341"
       y2="1109.2272"
       gradientUnits="userSpaceOnUse" />
    <linearGradient
       inkscape:collect="always"
       xlink:href="#linearGradient4325"
       id="linearGradient4327"
       x1="1186.6359"
       y1="734.65723"
       x2="1148.0465"
       y2="1083.0054"
       gradientUnits="userSpaceOnUse" />
    <linearGradient
       inkscape:collect="always"
       xlink:href="#linearGradient4333"
       id="linearGradient4335"
       x1="405.13766"
       y1="306.57202"
       x2="406.55582"
       y2="441.24228"
       gradientUnits="userSpaceOnUse" />
    <linearGradient
       inkscape:collect="always"
       xlink:href="#linearGradient4333"
       id="linearGradient4343"
       x1="310.64819"
       y1="354.41437"
       x2="376.55637"
       y2="354.41437"
       gradientUnits="userSpaceOnUse" />
    <linearGradient
       inkscape:collect="always"
       xlink:href="#linearGradient4349"
       id="linearGradient4351"
       x1="381.84106"
       y1="130.84804"
       x2="385.79202"
       y2="274.51736"
       gradientUnits="userSpaceOnUse" />
    <linearGradient
       inkscape:collect="always"
       xlink:href="#linearGradient4357"
       id="linearGradient4359"
       x1="379.15451"
       y1="299.49023"
       x2="381.21979"
       y2="270.80389"
       gradientUnits="userSpaceOnUse" />
    <linearGradient
       inkscape:collect="always"
       xlink:href="#linearGradient4373"
       id="linearGradient4375"
       x1="375.81528"
       y1="177.1084"
       x2="377.28796"
       y2="127.91567"
       gradientUnits="userSpaceOnUse" />
    <linearGradient
       inkscape:collect="always"
       xlink:href="#linearGradient4381"
       id="linearGradient4383"
       x1="381.55869"
       y1="136.07225"
       x2="383.03824"
       y2="147.39749"
       gradientUnits="userSpaceOnUse" />
    <linearGradient
       inkscape:collect="always"
       xlink:href="#linearGradient4389"
       id="linearGradient4391"
       x1="387.75375"
       y1="67.318619"
       x2="395.97183"
       y2="148.30531"
       gradientUnits="userSpaceOnUse" />
    <linearGradient
       inkscape:collect="always"
       xlink:href="#linearGradient4397"
       id="linearGradient4399"
       x1="372.58923"
       y1="74.838768"
       x2="381.47198"
       y2="69.375015"
       gradientUnits="userSpaceOnUse" />
  </defs>
  <sodipodi:namedview
     id="base"
     pagecolor="#ffffff"
     bordercolor="#666666"
     borderopacity="1.0"
     inkscape:pageopacity="0.0"
     inkscape:pageshadow="2"
     inkscape:zoom="0.35"
     inkscape:cx="2015.6794"
     inkscape:cy="-221.71544"
     inkscape:document-units="mm"
     inkscape:current-layer="layer3"
     showgrid="false"
     inkscape:window-width="1920"
     inkscape:window-height="1016"
     inkscape:window-x="0"
     inkscape:window-y="0"
     inkscape:window-maximized="1"
     units="px"
     inkscape:pagecheckerboard="true"
     inkscape:document-rotation="0">
    <inkscape:grid
       type="xygrid"
       id="grid4485" />
  </sodipodi:namedview>
  <metadata
     id="metadata5">
    <rdf:RDF>
      <cc:Work
         rdf:about="">
        <dc:format>image/svg+xml</dc:format>
        <dc:type
           rdf:resource="http://purl.org/dc/dcmitype/StillImage" />
        <dc:title>GeePM</dc:title>
        <cc:license
           rdf:resource="http://creativecommons.org/licenses/by/4.0/" />
        <dc:creator>
          <cc:Agent>
            <dc:title>Maxwell Paul Brickner</dc:title>
          </cc:Agent>
        </dc:creator>
      </cc:Work>
      <cc:License
         rdf:about="http://creativecommons.org/licenses/by/4.0/">
        <cc:permits
           rdf:resource="http://creativecommons.org/ns#Reproduction" />
        <cc:permits
           rdf:resource="http://creativecommons.org/ns#Distribution" />
        <cc:requires
           rdf:resource="http://creativecommons.org/ns#Notice" />
        <cc:requires
           rdf:resource="http://creativecommons.org/ns#Attribution" />
        <cc:permits
           rdf:resource="http://creativecommons.org/ns#DerivativeWorks" />
      </cc:License>
    </rdf:RDF>
  </metadata>
  <g
     inkscape:label="Head"
     inkscape:groupmode="layer"
     id="layer1"
     transform="translate(0,-11.249983)"
     style="display:inline">
    <path
       style="display:inline;fill:url(#linearGradient4391);fill-opacity:1;stroke:none;stroke-width:0.64762396px;stroke-linecap:butt;stroke-linejoin:miter;stroke-opacity:1"
       d="m 329.83138,125.70111 c 0,0 12.88903,5.70063 12.88903,-9.18223 0,-14.88282 -27.03752,-80.902917 -3.9116,-88.458825 23.12596,-7.55898 37.78007,2.516227 46.9388,0.206344 9.15842,-2.289334 38.23793,-10.761999 45.33603,-6.177112 7.09801,4.578683 13.50923,13.509215 10.99052,40.985558 -1.94166,21.185314 -4.03591,51.718335 -0.46013,61.929655 -13.57797,19.9551 -88.33887,38.34267 -93.05123,13.81692 -3.95542,-11.35255 -0.0634,15.82489 -18.73142,-13.12031 z"
       id="path4523"
       inkscape:connector-curvature="0"
       sodipodi:nodetypes="csccccccc" />
    <path
       style="display:inline;fill:url(#linearGradient4383);fill-opacity:1;stroke:none;stroke-width:0.38722688px;stroke-linecap:butt;stroke-linejoin:miter;stroke-opacity:1"
       d="m 354.00911,135.85698 c 0,0 14.99173,-3.58745 18.0232,-8.18356 20.71588,0.33724 40.122,0.81433 56.26636,6.30985 -13.23895,24.00491 -48.63801,61.44074 -48.63801,61.44074 0,0 -30.37537,-46.10285 -25.65155,-59.56703 z"
       id="path4591"
       inkscape:connector-curvature="0"
       sodipodi:nodetypes="ccccc" />
  </g>
  <g
     inkscape:groupmode="layer"
     id="layer3"
     inkscape:label="Body"
     style="display:inline">
    <path
       sodipodi:nodetypes="cscccccccc"
       inkscape:connector-curvature="0"
       id="path4289"
       d="m 395.09675,280.07063 c 0,0 -21.08495,16.90344 -21.80624,43.69021 -0.72131,26.78677 6.52613,31.70284 6.52613,31.70284 0,0 -9.62401,14.82614 0.68267,41.15015 10.30666,26.32404 13.48454,33.17426 13.48454,33.17426 l 27.43561,-4.3359 c 0,0 13.16722,-62.59897 -8.7174,-76.10292 14.97077,-23.96121 18.54904,-43.99666 5.21852,-60.79747 -8.07089,-2.55065 -22.82401,-8.48112 -22.82401,-8.48112 z"
       style="fill:url(#linearGradient4335);fill-opacity:1;stroke:none;stroke-width:0.38722688px;stroke-linecap:butt;stroke-linejoin:miter;stroke-opacity:1" />
    <path
       style="fill:url(#linearGradient4343);fill-opacity:1.0;stroke:none;stroke-width:0.38722688px;stroke-linecap:butt;stroke-linejoin:miter;stroke-opacity:1"
       d="m 356.92132,277.55573 c -19.27025,4.85492 -45.00379,36.44153 -35.31253,68.34191 0,0 -13.31119,11.62963 -10.59506,39.76864 2.71609,28.13905 16.52216,45.6067 16.52216,45.6067 l 28.66794,-0.46973 c 0,0 18.41612,-58.04854 1.05787,-77.0218 12.61575,-34.2119 13.45693,-37.05409 19.29467,-61.82701 -7.06588,-4.66028 -19.63524,-14.39871 -19.63524,-14.39871 z"
       id="path4287"
       inkscape:connector-curvature="0"
       sodipodi:nodetypes="ccccccccc" />
    <path
       style="fill:url(#linearGradient4327);fill-opacity:1;stroke:none;stroke-width:1.46353471px;stroke-linecap:butt;stroke-linejoin:miter;stroke-opacity:1"
       d="M 1235.3633 534.78516 C 1235.3633 534.78516 1138.1393 566.08655 1099.5215 659.71289 C 1060.9036 753.33923 1079.8789 780.45898 1079.8789 780.45898 C 1079.8789 780.45898 1025.9264 819.85892 1026.877 926.70117 C 1027.8276 1033.5436 1084.0508 1073.5879 1084.0508 1073.5879 L 1088.9922 1072.793 C 1086.3739 1080.7141 1085.6956 1089.396 1087.4434 1098.1621 C 1090.7772 1114.8835 1095.3573 1143.9238 1109.2559 1152.5176 C 1117.8197 1157.8128 1160.6243 1148.0445 1170.9277 1145.9902 C 1197.9524 1140.6022 1190.6967 1105.6751 1185.3086 1078.6504 C 1183.8206 1071.187 1180.7343 1064.4522 1176.4844 1058.7188 L 1181.9141 1057.8457 C 1193.2328 1081.6313 1207.8421 1112.531 1211.8555 1102.0566 C 1213.3857 1098.0632 1220.2758 1082.4238 1218.5273 1073.6973 C 1215.7275 1059.7227 1203.8126 1035.369 1196.7676 1020.584 C 1217.0604 964.26673 1246.4067 858.18842 1204.248 803.14844 C 1289.3832 738.68863 1328.9981 672.7517 1304.5449 595.46875 C 1279.4772 575.59308 1235.3633 534.78516 1235.3633 534.78516 z "
       transform="scale(0.26458333)"
       id="path4571" />
    <path
       style="fill:url(#linearGradient4375);fill-opacity:1;stroke:none;stroke-width:0.38722688px;stroke-linecap:butt;stroke-linejoin:miter;stroke-opacity:1"
       d="m 342.44259,132.53198 c 0,0 29.17495,10.24806 81.13938,-0.50881 -49.86658,42.47123 -50.08049,42.47123 -50.08049,42.47123 z"
       id="path4294"
       inkscape:connector-curvature="0"
       sodipodi:nodetypes="cccc" />
    <path
       style="fill:#e9c6af;stroke:none;stroke-width:1.32405245px;stroke-linecap:butt;stroke-linejoin:miter;stroke-opacity:1"
       d="m 346.54464,66.847333 c 4.65345,24.979497 8.45995,40.759267 9.04586,50.052177 0.19713,3.12662 -2.78097,0.90241 -2.7601,3.61376 0.0289,3.76902 6.30481,3.2209 8.54192,3.3914 4.7752,0.36395 21.53463,-0.34363 23.75521,-0.35403 19.26096,-0.0903 39.42856,-25.847478 47.48051,-69.943819 0,0 0,-33.101407 -52.96208,-33.101348 -33.10131,4.3e-5 -33.10132,46.34186 -33.10132,46.34186 z"
       id="path4487"
       inkscape:connector-curvature="0"
       sodipodi:nodetypes="csssscsc" />
    <ellipse
       ry="13.240524"
       rx="11.467239"
       cy="60.227085"
       cx="404.35373"
       id="ellipse4497"
       style="fill:#ffffff;fill-opacity:1;stroke:none;stroke-width:5.37760592;stroke-linecap:round;stroke-linejoin:round;stroke-miterlimit:4;stroke-dasharray:none;stroke-opacity:1;paint-order:stroke fill markers" />
    <path
       sodipodi:nodetypes="ccc"
       style="fill:url(#linearGradient4399);fill-opacity:1;stroke:none;stroke-width:0.8807556;stroke-linecap:butt;stroke-linejoin:miter;stroke-miterlimit:4;stroke-dasharray:none;stroke-opacity:1"
       d="m 377.70194,56.00967 c 0,0 -0.11651,10.342512 -5.1127,18.829096 10.27003,-2.313963 13.18162,0.903464 13.18162,0.903464"
       id="path4489"
       inkscape:connector-curvature="0" />
    <ellipse
       ry="14.805998"
       rx="8.1631279"
       cy="93.75399"
       cx="350.4978"
       id="ellipse4499"
       style="fill:#ffffff;fill-opacity:1;stroke:none;stroke-width:5.87624216;stroke-linecap:round;stroke-linejoin:round;stroke-miterlimit:4;stroke-dasharray:none;stroke-opacity:1;paint-order:stroke fill markers"
       transform="rotate(-4.4885583)" />
    <ellipse
       style="fill:#aad400;fill-opacity:1;stroke:none;stroke-width:4.51560831;stroke-linecap:round;stroke-linejoin:round;stroke-miterlimit:4;stroke-dasharray:none;stroke-opacity:1;paint-order:stroke fill markers"
       id="path4491"
       cx="348.49661"
       cy="94.252563"
       rx="6.187798"
       ry="11.534303"
       transform="rotate(-4.4885583)" />
    <ellipse
       style="fill:#aad400;fill-opacity:1;stroke:none;stroke-width:4.65383768;stroke-linecap:round;stroke-linejoin:round;stroke-miterlimit:4;stroke-dasharray:none;stroke-opacity:1;paint-order:stroke fill markers"
       id="path4493"
       cx="396.12076"
       cy="92.274475"
       rx="9.2349586"
       ry="12.313278"
       transform="rotate(-4.4885583)" />
    <path
       style="fill:none;fill-opacity:1;stroke:#d6ada7;stroke-width:2.14407849;stroke-linecap:round;stroke-linejoin:miter;stroke-miterlimit:4;stroke-dasharray:none;stroke-opacity:1;paint-order:stroke fill markers"
       d="m 385.5077,111.00019 c 0,0 15.50434,4.00445 21.63271,-11.187691"
       id="path4520"
       inkscape:connector-curvature="0"
       sodipodi:nodetypes="cc" />
    <path
       sodipodi:type="star"
       style="display:inline;opacity:0.18600003;fill:#d5f6ff;fill-opacity:1;stroke:none;stroke-width:8.20876789;stroke-linecap:round;stroke-linejoin:round;stroke-miterlimit:4;stroke-dasharray:none;stroke-dashoffset:0;stroke-opacity:1;paint-order:stroke fill markers"
       id="path4559"
       sodipodi:sides="5"
       sodipodi:cx="354.3074"
       sodipodi:cy="68.616768"
       sodipodi:r1="4.8815107"
       sodipodi:r2="3.9492254"
       sodipodi:arg1="1.0040671"
       sodipodi:arg2="1.6323856"
       inkscape:flatsided="true"
       inkscape:rounded="0"
       inkscape:randomized="0"
       d="m 356.92817,72.73511 -5.72768,-0.35321 -1.43403,-5.556495 4.8414,-3.080892 4.42618,3.652399 z"
       inkscape:transform-center-x="-0.092891315"
       inkscape:transform-center-y="-0.37695776" />
    <path
       sodipodi:type="star"
       style="display:inline;opacity:0.18600003;fill:#d5f6ff;fill-opacity:1;stroke:none;stroke-width:6.55208826;stroke-linecap:round;stroke-linejoin:round;stroke-miterlimit:4;stroke-dasharray:none;stroke-dashoffset:0;stroke-opacity:1;paint-order:stroke fill markers"
       id="path4561"
       sodipodi:sides="5"
       sodipodi:cx="400.06477"
       sodipodi:cy="63.946029"
       sodipodi:r1="5.227479"
       sodipodi:r2="4.2291198"
       sodipodi:arg1="1.0303768"
       sodipodi:arg2="1.6586954"
       inkscape:flatsided="true"
       inkscape:rounded="0"
       inkscape:randomized="0"
       d="m 402.75427,68.428556 -6.12154,-0.539468 -1.3786,-5.98864 5.26953,-3.161716 4.63534,4.034593 z"
       inkscape:transform-center-x="-0.14172707"
       inkscape:transform-center-y="-0.36240089" />
    <path
       style="fill:#ff6600;fill-opacity:1;stroke:none;stroke-width:0.52384299px;stroke-linecap:butt;stroke-linejoin:miter;stroke-opacity:1"
       d="m 350.15531,40.437103 c 0,0 22.59519,-4.262443 32.78157,-8.889393 12.03844,3.703548 48.18633,9.350844 48.18633,9.350844 l -4.84957,-23.614584 -43.7087,1.109401 -33.54179,-0.417091 z"
       id="path4525"
       inkscape:connector-curvature="0"
       sodipodi:nodetypes="ccccccc" />
    <path
       style="fill:#ff6600;fill-opacity:1;stroke:none;stroke-width:0.38722688px;stroke-linecap:butt;stroke-linejoin:miter;stroke-opacity:1"
       d="m 392.17434,59.056791 c 2.22435,-0.725957 9.24047,-9.795263 15.32614,-8.715774 6.0857,1.079562 8.05242,-1.288978 8.05242,-1.288978 0,0 -6.8067,-3.298501 -7.2823,-4.716754 -5.42435,1.920232 -13.57434,0.798988 -16.05417,11.16778 -1.50963,1.645877 -1.572,1.638413 -4.46267,0.565568 1.3664,2.038617 3.29038,3.268586 4.42058,2.988158 z"
       id="path4561-7"
       inkscape:connector-curvature="0"
       sodipodi:nodetypes="ccccccc" />
    <path
       sodipodi:nodetypes="cccccccc"
       inkscape:connector-curvature="0"
       id="path4563"
       d="m 365.87503,60.6574 c -2.33516,-0.147626 -11.39347,-7.177921 -17.0169,-4.613193 -5.62339,2.564845 -3.9086,0.437509 -3.9086,0.437509 0,0 1.55697,-4.568555 1.6634,-6.060658 5.73202,0.505111 13.34391,-2.615673 18.33409,6.805758 1.87274,1.216812 1.93128,1.19404 4.4625,-0.56668 -0.81414,2.315223 -2.3701,3.986581 -3.53449,3.997264 z"
       style="fill:#ff6600;fill-opacity:1;stroke:none;stroke-width:0.38722688px;stroke-linecap:butt;stroke-linejoin:miter;stroke-opacity:1" />
    <path
       style="fill:url(#linearGradient4319);fill-opacity:1;stroke:none;stroke-width:1.46353471px;stroke-linecap:butt;stroke-linejoin:miter;stroke-opacity:1"
       d="M 1698.9199 528.98047 C 1698.9199 528.98047 1653.9387 568.83028 1628.4492 588.16211 C 1602.3392 664.90107 1640.5272 731.67493 1724.2559 797.95117 C 1681.0948 851.8569 1707.7633 957.8957 1726.8262 1014.8047 C 1726.7776 1014.9054 1726.7282 1014.9965 1726.6797 1015.0977 C 1719.6344 1029.7948 1707.325 1054.6621 1704.4473 1068.8164 C 1702.6739 1077.538 1709.5183 1093.1976 1711.0371 1097.1953 C 1714.9454 1107.483 1729.1523 1078.0039 1740.4414 1054.4531 C 1739.897 1056.7181 1739.4953 1059.0439 1739.2676 1061.4297 C 1737.6472 1078.403 1733.6731 1107.533 1744.5098 1119.7637 C 1751.1869 1127.2999 1794.9926 1130.2671 1805.4512 1131.2656 C 1832.883 1133.8845 1835.9885 1098.3461 1838.6074 1070.9141 C 1838.6074 1070.9141 1895.6791 1032.0883 1898.9277 925.29102 C 1902.1766 818.49393 1849.084 777.94336 1849.084 777.94336 C 1849.084 777.94336 1868.6378 751.23625 1832.043 656.80078 C 1795.4481 562.36532 1698.9199 528.98047 1698.9199 528.98047 z "
       transform="scale(0.26458333)"
       id="path4569" />
    <path
       style="fill:url(#linearGradient4351);fill-opacity:1;stroke:none;stroke-width:1.32405245px;stroke-linecap:butt;stroke-linejoin:miter;stroke-opacity:1"
       d="m 417.66451,119.73999 c -9.15291,14.28204 -33.02119,41.4493 -41.41407,48.8677 -0.20275,0.008 -0.39899,0.0148 -0.59973,0.0227 -11.16248,-11.66963 -24.18577,-32.62721 -21.64161,-44.02362 -2.26703,0.0776 -4.33594,-0.41458 -6.60327,-0.0333 -14.55952,2.44891 -28.73766,10.98795 -37.61549,23.35235 -0.92767,0.72279 -1.78744,1.74328 -2.58275,3.11748 -2.58424,4.46502 28.48255,52.10478 29.49131,56.58668 1.71537,36.79955 3.2053,37.22189 -0.68168,71.43108 l 95.6387,-7.27434 c -2.90489,-17.48898 2.44008,-49.48426 4.10931,-60.32261 3.51318,-22.8111 24.35233,-34.85352 40.2627,-53.54147 -19.93374,-18.54488 -35.31609,-34.25635 -58.36342,-38.18269 z"
       id="path4530"
       inkscape:connector-curvature="0"
       sodipodi:nodetypes="ccccccccccsccc" />
    <path
       style="fill:url(#linearGradient4359);fill-opacity:1;stroke:none;stroke-width:0.33378172px;stroke-linecap:butt;stroke-linejoin:miter;stroke-opacity:1"
       d="m 337.49208,272.96558 94.16382,-1.17882 v 0 c 2.58582,13.00052 0.54372,18.70796 -6.25281,29.07556 l -42.6767,-8.42759 0.73107,-6.39874 -4.724,-0.021 -2.17709,5.93954 -44.67696,5.39978 c 0.008,-11.64138 0.77089,-14.66909 5.61267,-24.38864 z"
       id="path4575"
       inkscape:connector-curvature="0"
       sodipodi:nodetypes="cccccccccc" />
    <g
       id="g4297"
       style="fill-opacity:1;fill:url(#linearGradient4309)">
      <path
         sodipodi:nodetypes="ccccscc"
         inkscape:connector-curvature="0"
         id="path4293"
         d="m 327.53587,431.27296 28.66796,-0.46974 c 0,0 -0.19904,39.37698 -2.1976,43.69961 -51.81932,3.11551 -60.13448,4.93683 -61.03748,1.24677 -0.90305,-3.68998 -0.20172,-19.98419 3.44552,-19.98419 3.64726,0 20.62596,0.43703 22.70858,-2.9138 2.08263,-3.35083 8.41302,-21.57865 8.41302,-21.57865 z"
         style="fill:url(#linearGradient4309);fill-opacity:1;stroke:none;stroke-width:0.38722688px;stroke-linecap:butt;stroke-linejoin:miter;stroke-opacity:1" />
      <path
         style="fill:url(#linearGradient4309);fill-opacity:1;stroke:none;stroke-width:0.38722688px;stroke-linecap:butt;stroke-linejoin:miter;stroke-opacity:1"
         d="m 393.98385,429.78809 27.43561,-4.3359 c 0,0 1.03331,43.24315 -0.96524,47.56576 -51.81932,3.11551 -43.78834,4.5747 -44.69136,0.88466 -0.004,-10.8669 7.37827,-18.38489 9.80798,-22.53588 2.08262,-3.35082 8.41301,-21.57864 8.41301,-21.57864 z"
         id="path4295"
         inkscape:connector-curvature="0"
         sodipodi:nodetypes="cccccc" />
    </g>
  </g>
</svg>
